<svg xmlns="http://www.w3.org/2000/svg" xmlns:xlink="http://www.w3.org/1999/xlink" width="296.146" height="305.488" viewBox="0 0 296.146 305.488">
  <defs>
    <linearGradient id="linear-gradient" y1="0.5" x2="1" y2="0.5" gradientUnits="objectBoundingBox">
      <stop offset="0" stop-color="#4f52ff"/>
      <stop offset="1" stop-color="#4042e2"/>
    </linearGradient>
    <linearGradient id="linear-gradient-2" x1="1.082" y1="1.018" x2="0.336" y2="0.362" gradientUnits="objectBoundingBox">
      <stop offset="0" stop-color="#b37cff"/>
      <stop offset="1" stop-color="#f895e7"/>
    </linearGradient>
    <linearGradient id="linear-gradient-3" x1="0.255" y1="0.183" x2="1.032" y2="1.188" gradientUnits="objectBoundingBox">
      <stop offset="0" stop-color="#53d8ff"/>
      <stop offset="1" stop-color="#3840f7"/>
    </linearGradient>
    <linearGradient id="linear-gradient-4" x1="-0.404" y1="-0.588" x2="1.174" y2="1.079" xlink:href="#linear-gradient-3"/>
    <linearGradient id="linear-gradient-5" x1="1.473" y1="-2.837" x2="-0.485" y2="3.393" xlink:href="#linear-gradient-3"/>
    <linearGradient id="linear-gradient-6" x1="-0.281" y1="1.359" x2="1.473" y2="-0.461" xlink:href="#linear-gradient-3"/>
    <linearGradient id="linear-gradient-7" x1="0.142" y1="1.149" x2="0.775" y2="0.008" gradientUnits="objectBoundingBox">
      <stop offset="0" stop-color="#e1473d"/>
      <stop offset="1" stop-color="#e9605a"/>
    </linearGradient>
    <linearGradient id="linear-gradient-8" y1="0.5" x2="1" y2="0.5" gradientUnits="objectBoundingBox">
      <stop offset="0" stop-color="#ff928e"/>
      <stop offset="1" stop-color="#feb3b1"/>
    </linearGradient>
    <linearGradient id="linear-gradient-10" x1="-0.077" y1="1.258" x2="1.063" y2="-0.259" gradientUnits="objectBoundingBox">
      <stop offset="0" stop-color="#fe7062"/>
      <stop offset="1" stop-color="#ff928e"/>
    </linearGradient>
    <linearGradient id="linear-gradient-11" x1="0.886" y1="0.076" x2="-0.253" y2="1.297" gradientUnits="objectBoundingBox">
      <stop offset="0" stop-color="#febbba"/>
      <stop offset="1" stop-color="#ff928e"/>
    </linearGradient>
    <linearGradient id="linear-gradient-12" x1="1.519" y1="-0.775" x2="-1.484" y2="2.907" gradientUnits="objectBoundingBox">
      <stop offset="0" stop-color="#09005d"/>
      <stop offset="1" stop-color="#1a0f91"/>
    </linearGradient>
    <linearGradient id="linear-gradient-13" x1="1.004" y1="-2.464" x2="-0.074" y2="4.125" xlink:href="#linear-gradient-12"/>
    <linearGradient id="linear-gradient-14" x1="0.5" y1="-4.989" x2="0.5" y2="3.864" xlink:href="#linear-gradient-7"/>
    <linearGradient id="linear-gradient-15" x1="1.519" y1="-0.775" x2="-1.484" y2="2.907" gradientUnits="objectBoundingBox">
      <stop offset="0" stop-color="#2b3582"/>
      <stop offset="1" stop-color="#150e42"/>
    </linearGradient>
    <linearGradient id="linear-gradient-16" x1="1.004" y1="-2.464" x2="-0.074" y2="4.125" xlink:href="#linear-gradient-15"/>
    <linearGradient id="linear-gradient-17" x1="0.5" y1="-4.989" x2="0.5" y2="3.864" gradientUnits="objectBoundingBox">
      <stop offset="0" stop-color="#cb236d"/>
      <stop offset="1" stop-color="#4c246d"/>
    </linearGradient>
    <linearGradient id="linear-gradient-18" x1="-6.622" y1="0.5" x2="-7.622" y2="0.5" gradientUnits="objectBoundingBox">
      <stop offset="0" stop-color="#f9b776"/>
      <stop offset="1" stop-color="#f47960"/>
    </linearGradient>
    <linearGradient id="linear-gradient-19" x1="7.788" y1="-3.045" x2="7.809" y2="1.639" xlink:href="#linear-gradient-17"/>
    <linearGradient id="linear-gradient-20" x1="29.008" y1="0.5" x2="30.008" y2="0.5" xlink:href="#linear-gradient-18"/>
    <linearGradient id="linear-gradient-21" x1="9.148" y1="1.255" x2="9.355" y2="0.047" xlink:href="#linear-gradient-15"/>
    <linearGradient id="linear-gradient-22" x1="18.539" y1="-3.752" x2="18.589" y2="1.733" xlink:href="#linear-gradient-17"/>
    <linearGradient id="linear-gradient-23" x1="33.597" y1="0.5" x2="34.597" y2="0.5" xlink:href="#linear-gradient-18"/>
    <linearGradient id="linear-gradient-24" x1="6.545" y1="1.244" x2="6.691" y2="0.059" xlink:href="#linear-gradient-15"/>
    <linearGradient id="linear-gradient-25" x1="-1.991" y1="0.326" x2="-3.242" y2="0.962" gradientUnits="objectBoundingBox">
      <stop offset="0" stop-color="#fdf53f"/>
      <stop offset="1" stop-color="#d93c65"/>
    </linearGradient>
    <linearGradient id="linear-gradient-26" x1="-2.977" y1="0.724" x2="-5.281" y2="2.27" xlink:href="#linear-gradient-25"/>
    <linearGradient id="linear-gradient-27" x1="4.36" y1="0.5" x2="5.36" y2="0.5" xlink:href="#linear-gradient-18"/>
    <linearGradient id="linear-gradient-28" x1="-3.114" y1="-0.363" x2="-3.523" y2="0.753" xlink:href="#linear-gradient-15"/>
    <linearGradient id="linear-gradient-29" x1="22.894" y1="-3.497" x2="22.321" y2="1.805" xlink:href="#linear-gradient-15"/>
    <linearGradient id="linear-gradient-30" x1="12.107" y1="-1.235" x2="11.964" y2="1.146" xlink:href="#linear-gradient-15"/>
    <linearGradient id="linear-gradient-31" x1="14.401" y1="0.5" x2="15.401" y2="0.5" xlink:href="#linear-gradient-18"/>
    <linearGradient id="linear-gradient-32" x1="-18.879" y1="-7.315" x2="-17.747" y2="-7.315" xlink:href="#linear-gradient-18"/>
    <linearGradient id="linear-gradient-33" x1="11.348" y1="0.5" x2="12.348" y2="0.5" xlink:href="#linear-gradient-18"/>
    <linearGradient id="linear-gradient-34" x1="-32.394" y1="-10.517" x2="-32.716" y2="-11.583" xlink:href="#linear-gradient-18"/>
    <linearGradient id="linear-gradient-35" x1="-24.582" y1="-9.139" x2="-24.377" y2="-7.96" xlink:href="#linear-gradient-15"/>
    <linearGradient id="linear-gradient-36" x1="-106.794" y1="-53.442" x2="-107.737" y2="-58.089" xlink:href="#linear-gradient-18"/>
    <linearGradient id="linear-gradient-37" x1="0.505" y1="-0.014" x2="0.498" y2="0.95" gradientUnits="objectBoundingBox">
      <stop offset="0" stop-color="#41a362"/>
      <stop offset="1" stop-color="#204f2e"/>
    </linearGradient>
    <linearGradient id="linear-gradient-38" x1="0.133" y1="0.912" x2="0.72" y2="0.178" xlink:href="#linear-gradient-37"/>
    <linearGradient id="linear-gradient-39" x1="0.514" y1="-1.28" x2="0.477" y2="0.468" xlink:href="#linear-gradient-37"/>
    <linearGradient id="linear-gradient-40" x1="0.406" y1="4.149" x2="0.584" y2="-2.598" xlink:href="#linear-gradient-37"/>
    <linearGradient id="linear-gradient-41" x1="-0.02" y1="0.209" x2="0.98" y2="0.209" xlink:href="#linear-gradient-37"/>
    <linearGradient id="linear-gradient-42" x1="2.065" y1="-0.478" x2="0.34" y2="0.6" xlink:href="#linear-gradient-37"/>
    <linearGradient id="linear-gradient-43" x1="2.446" y1="-0.495" x2="0.286" y2="0.583" xlink:href="#linear-gradient-37"/>
    <linearGradient id="linear-gradient-44" x1="-47.665" y1="-0.478" x2="-49.39" y2="0.6" xlink:href="#linear-gradient-37"/>
    <linearGradient id="linear-gradient-45" x1="-55.32" y1="-0.454" x2="-57.479" y2="0.623" xlink:href="#linear-gradient-37"/>
    <linearGradient id="linear-gradient-46" x1="6.854" y1="-0.483" x2="-0.149" y2="0.6" xlink:href="#linear-gradient-37"/>
  </defs>
  <g id="Group_152888" data-name="Group 152888" transform="translate(-443.784 -348.932)">
    <g id="Group_152863" data-name="Group 152863" transform="translate(474.979 348.932)">
      <path id="Path_216187" data-name="Path 216187" d="M742.888,350.843a1.584,1.584,0,0,1,2.62-1.491c11.515,10.5,39.272,42.052,33.281,97.978-7.518,70.167,7.444,95.513,25.832,110.84,0,0-25.048-6.969-41.117-32.676C724.05,462.378,748.7,377.506,742.888,350.843Z" transform="translate(-740.537 -348.932)" fill="#91b3fa"/>
      <path id="Path_216188" data-name="Path 216188" d="M848.093,569.851c1.534,7.777,2.914,15.58,4.007,23.422q1.7,11.753,2.679,23.584c.619,7.884,1.09,15.779,1.225,23.682.171,7.9,0,15.8-.2,23.734-.153,7.928-.352,15.914.265,23.945a80.412,80.412,0,0,0,5.188,23.629c.751,1.88,1.539,3.754,2.429,5.562.857,1.826,1.8,3.614,2.766,5.385a83.375,83.375,0,0,0,23.81,27.121,1.532,1.532,0,0,0,1.866-2.43l0,0c-1.535-1.212-3.055-2.441-4.515-3.733-.74-.634-1.451-1.3-2.174-1.952-.7-.679-1.421-1.331-2.1-2.03a80.779,80.779,0,0,1-7.622-8.81A88.549,88.549,0,0,1,864.4,710.622a77.142,77.142,0,0,1-3.375-11.122,87.5,87.5,0,0,1-1.718-11.546c-.659-7.794-.527-15.7-.431-23.629s.118-15.9-.179-23.86q-.206-5.969-.626-11.927c-.129-1.986-.3-3.969-.459-5.953q-.273-2.972-.585-5.94-1.279-11.869-3.287-23.632c-1.378-7.831-2.964-15.622-4.848-23.339a.411.411,0,0,0-.8.177Z" transform="translate(-836.78 -546.189)" fill="#fff" style="mix-blend-mode: soft-light;isolation: isolate"/>
    </g>
    <g id="Group_152866" data-name="Group 152866" transform="translate(443.784 367.872)">
      <g id="Group_152865" data-name="Group 152865" transform="translate(0 0)">
        <path id="Path_216189" data-name="Path 216189" d="M497.472,727.79a4.406,4.406,0,0,1-7.1,1.771c-12.84-11.545-46.191-47.47-43.216-107,2.512-50.274-.9-77.773-3.318-90.149a2.763,2.763,0,0,1,4.582-2.563C470.1,549.728,535.575,620.989,497.472,727.79Z" transform="translate(-443.784 -529.107)" fill="url(#linear-gradient)"/>
        <g id="Group_152864" data-name="Group 152864" transform="translate(18.349 55.589)" opacity="0.5">
          <path id="Path_216190" data-name="Path 216190" d="M649.441,1201.054a1.224,1.224,0,0,1-1.808-.541c-.3-.705-29.627-71.323-29.291-141.383a1.222,1.222,0,0,1,2.444.012c-.333,69.55,28.806,139.724,29.1,140.424A1.222,1.222,0,0,1,649.441,1201.054Z" transform="translate(-618.34 -1057.914)" fill="#91b3fa"/>
        </g>
      </g>
    </g>
    <path id="Path_216191" data-name="Path 216191" d="M731.933,651.7c-28.393,65.892-104.027,102.8-169.617,92.847-10.673-1.62-39.932-6.447-65.838-29.216C446.609,671.5,435.943,584.7,476.172,523.537c29.279-44.518,81.765-69.754,131.637-68.491,10.743.272,51.912,1.948,88.093,31.351a134.431,134.431,0,0,1,27.6,30.863C748.306,555.491,750.438,608.755,731.933,651.7Z" transform="translate(-6.947 -94.918)" opacity="0.3" fill="url(#linear-gradient-2)"/>
    <g id="Group_152869" data-name="Group 152869" transform="translate(454.793 363.974)">
      <ellipse id="Ellipse_4271" data-name="Ellipse 4271" cx="125.888" cy="135.883" rx="125.888" ry="135.883" transform="translate(0 251.533) rotate(-87.486)" fill="url(#linear-gradient-3)"/>
      <path id="Path_216192" data-name="Path 216192" d="M812.491,822.537c-2.983,4.788-5.282,10.179-4.851,15.8.5,6.513,3.8,12.612,3.965,19.142.287,11.074-8.262,20.344-10.929,31.1C797.7,900.6,808.935,914.29,813.413,921s2.553-5.443,5.269-10.181,8.57,19.937,17.715,25.352c4.907,2.906,10.663,4.84,14.192,9.319,5.147,6.533,3.721,15.829,2.948,24.11s.385,18.373,7.843,22.054c4.391,2.167,9.973,1.434,13.936,4.311,6.959,5.053,3.635,16.069,6.392,24.215,3,8.859,8.945,8.975,18.145,10.853s-1.159-18.333,3.151-25.4c2.265-3.713,5.724-6.668,7.51-10.633,2.478-5.5,1.78-12.847,6.587-16.491,3.6-2.731,8.617-1.992,13.138-2.032s10.021-2,10.533-6.494c.455-3.986-3.535-7.164-7.439-8.088s-8.064-.483-11.9-1.664c-10.967-3.377-16.082-18.724-27.535-19.442-9.79-.614-17.989,10.375-27.608,8.455-5.363-1.07-9.033-5.819-13.014-9.568-5.113-4.816-11.46-8.431-15.519-14.164s-4.75-14.9,1.025-18.894c4.29-2.97,10.386-1.765,14.624,1.279s7.125,7.56,10.238,11.748a7.776,7.776,0,0,0,3.587,3.115c4.139,1.3,7.159-4.527,6.168-8.749s-3.973-7.936-4.113-12.271c-.247-7.639,7.98-12.486,15.2-15s15.723-5.518,17.845-12.861c.75-2.594.553-5.448,1.7-7.893,3.791-8.1,23.793-12.151,19.012-16.85s-19.957-5.721-22.912-15.186c-1.058-3.388-2.147-7.867-5.682-8.195-5.757-.534-9.042,6.593-13.871,7.816-2.293.581-2.513,4.475-2.424,9.263a6.3,6.3,0,0,1-12.588.238,9.725,9.725,0,0,1,.732-3.894,17.617,17.617,0,0,1,4.476-5.8c7.427-7.092,29.591-14.884,24.949-17.9s-26.916-11.35-30.238-6.752,2.173.7,3.513,6.157-16.478,4.722-24.716,7.082c-1.36.39-2.869.77-4.143.153-1.424-.689-2.023-2.346-2.8-3.726-4.138-7.392-17.9-2.594-17.9-2.594A22.4,22.4,0,0,0,812.491,822.537Z" transform="translate(-773.726 -774.214)" fill="url(#linear-gradient-4)"/>
      <path id="Path_216193" data-name="Path 216193" d="M1505.954,563.262c-2,3.729,3.948,3.669,4.54,7.859,5.355.584,7.555-7.86,12.851-8.845,2.989-.556,5.887,1.585,7.511,4.155s2.382,5.587,3.758,8.3a20.433,20.433,0,0,0,16.243,10.9,5.616,5.616,0,0,0,4.217-.954c3.228-2.844-1.39-8.188-.19-12.319,1.371-4.721,8.178-4,12.779-5.736,1.269-.478,11.03-3.082,11.187-4.429.278-2.388-4.25-3.908-9.316-5.21-8.583-2.207-23.684-2.115-31.065-1.447-9.82.889-26.181.171-32.515,7.728Z" transform="translate(-1404.94 -548.484)" fill="url(#linear-gradient-5)"/>
      <g id="Group_152867" data-name="Group 152867" transform="translate(211.371 53.043)">
        <path id="Path_216194" data-name="Path 216194" d="M2612.659,1118.732a123.778,123.778,0,0,0-.545-42.109c-.689-3.7-2.3-8.11-6.029-8.642-4.309-.616-9.584,4.334-12.281.918-1.191-1.508-.716-3.7-.042-5.5a36.455,36.455,0,0,1,8.117-12.722c2.207-2.244,4.733-4.234,6.433-6.884,3.635-5.667,1.083-13.948-4.062-18.291s-11.783,3.445-17.191.354-5.577-10.59-6.594-16.736c-.752-4.553-4.107-16.887-7.813-10.88s4.943,29.919,14.676,41.381c1.174,1.383,2.47,2.931,2.371,4.742-.236,4.325-6.539,4.133-10.779,5.018-5.248,1.1-13.292-1.714-8.853,7.431,2.341,4.823,13.524,11.425,10.52,14.652s-12.243,12.577-16.578,20.138-6.435,16.976-3.166,25.056,13.1,13.658,21.121,10.255c3.755-1.593,7.848-4.905,11.339-2.794,3.161,1.911,2.695,6.5,2.538,10.19s1.971,8.59,5.562,7.722a5.955,5.955,0,0,0,2.909-2.1C2609.364,1134.124,2611.445,1126.332,2612.659,1118.732Z" transform="translate(-2559.248 -996.62)" fill="url(#linear-gradient-6)"/>
      </g>
      <ellipse id="Ellipse_4272" data-name="Ellipse 4272" cx="106.626" cy="100.728" rx="106.626" ry="100.728" transform="translate(27.293 21.916)" fill="#fff" opacity="0.2"/>
      <g id="Group_152868" data-name="Group 152868" transform="translate(21.067 10.721)" opacity="0.68">
        <path id="Path_216195" data-name="Path 216195" d="M1663.875,722.815a381.67,381.67,0,0,1-5.445,66.318c-.986,5.466-2.13,10.905-3.494,16.293a156.89,156.89,0,0,1-4.882,15.943c-.97,2.608-2.031,5.184-3.224,7.7a59.793,59.793,0,0,1-4.061,7.315,29.939,29.939,0,0,1-5.462,6.381,15.559,15.559,0,0,1-3.568,2.3,10.678,10.678,0,0,1-4.158.983,10.464,10.464,0,0,1-4.2-.775,14.586,14.586,0,0,1-3.65-2.177,28.424,28.424,0,0,1-5.58-6.28,57.789,57.789,0,0,1-4.126-7.28c-1.209-2.512-2.284-5.083-3.265-7.687a153.477,153.477,0,0,1-4.934-15.926c-1.377-5.384-2.533-10.821-3.527-16.285-1.985-10.931-3.336-21.967-4.245-33.033s-1.351-22.171-1.4-33.275c-.023-5.552.116-11.1.31-16.65s.5-11.091.905-16.628c.81-11.072,2.026-22.119,3.838-33.076.91-5.477,1.971-10.931,3.248-16.337a156.908,156.908,0,0,1,4.619-16.009c.929-2.62,1.945-5.211,3.1-7.742a56.516,56.516,0,0,1,3.975-7.343,27.337,27.337,0,0,1,5.462-6.328,13.957,13.957,0,0,1,3.608-2.167,10.171,10.171,0,0,1,4.147-.74,10.973,10.973,0,0,1,4.1.964,16.038,16.038,0,0,1,3.564,2.229,30.466,30.466,0,0,1,5.581,6.22,59.541,59.541,0,0,1,4.241,7.191c1.259,2.482,2.379,5.03,3.415,7.609a151.658,151.658,0,0,1,5.243,15.816c1.476,5.356,2.725,10.771,3.8,16.218A349.4,349.4,0,0,1,1663.875,722.815Zm-1.344,0c.016-11.067-.409-22.137-1.333-33.166a319,319,0,0,0-4.354-32.9c-1.028-5.436-2.223-10.841-3.645-16.187a150.975,150.975,0,0,0-5.076-15.782c-1.006-2.573-2.1-5.114-3.324-7.587a58.9,58.9,0,0,0-4.135-7.158,29.985,29.985,0,0,0-5.432-6.167,15.6,15.6,0,0,0-3.444-2.2,10.341,10.341,0,0,0-3.937-.956,9.675,9.675,0,0,0-3.972.743,13.5,13.5,0,0,0-3.473,2.129,26.844,26.844,0,0,0-5.3,6.259,55.974,55.974,0,0,0-3.868,7.3c-1.127,2.52-2.113,5.1-3.013,7.715a156.294,156.294,0,0,0-4.453,15.971c-1.225,5.395-2.233,10.838-3.091,16.3-1.708,10.935-2.822,21.961-3.531,33.006s-.975,22.12-.957,33.188q-.032,16.6,1.187,33.173c.837,11.035,2.115,22.041,4.022,32.94.956,5.448,2.073,10.868,3.409,16.233a152.459,152.459,0,0,0,4.8,15.856c.956,2.589,2.006,5.144,3.186,7.634a57,57,0,0,0,4.02,7.2,27.653,27.653,0,0,0,5.382,6.142,13.855,13.855,0,0,0,3.451,2.09,9.553,9.553,0,0,0,3.91.741,9.945,9.945,0,0,0,3.871-.943,14.807,14.807,0,0,0,3.379-2.215,29.171,29.171,0,0,0,5.272-6.247,74.653,74.653,0,0,0,7.1-14.89,155.891,155.891,0,0,0,4.747-15.874c1.322-5.368,2.425-10.791,3.372-16.241,1.894-10.9,3.156-21.909,3.994-32.943S1662.534,733.884,1662.531,722.815Z" transform="translate(-1505.743 -599.649)" fill="#fff" style="mix-blend-mode: soft-light;isolation: isolate"/>
        <path id="Path_216196" data-name="Path 216196" d="M1182.247,717.176a164.707,164.707,0,0,1-1.432,21.368,156.249,156.249,0,0,1-4.291,20.982,136.033,136.033,0,0,1-17.668,38.859,111.5,111.5,0,0,1-13.525,16.582,94.876,94.876,0,0,1-16.659,13.411,80.39,80.39,0,0,1-19.422,8.924,73.357,73.357,0,0,1-42.274.015,80.4,80.4,0,0,1-19.434-8.912,94.94,94.94,0,0,1-16.678-13.4,111.6,111.6,0,0,1-13.547-16.579,136.2,136.2,0,0,1-17.706-38.871A155.027,155.027,0,0,1,995.3,738.56a161.107,161.107,0,0,1,.011-42.766,154.97,154.97,0,0,1,4.325-20.988,136.167,136.167,0,0,1,17.726-38.849,111.507,111.507,0,0,1,13.548-16.564,94.688,94.688,0,0,1,16.673-13.384A80.654,80.654,0,0,1,1067,597.125a72.932,72.932,0,0,1,42.22.014,80.617,80.617,0,0,1,19.41,8.9,94.647,94.647,0,0,1,16.655,13.392A111.47,111.47,0,0,1,1158.813,636a136,136,0,0,1,17.688,38.837,156.21,156.21,0,0,1,4.3,20.977A164.621,164.621,0,0,1,1182.247,717.176Zm-1.54,0A163.1,163.1,0,0,0,1179.356,696a154.773,154.773,0,0,0-4.183-20.8,135.549,135.549,0,0,0-17.208-38.642,110.547,110.547,0,0,0-13.275-16.542,92.814,92.814,0,0,0-16.416-13.414,79.334,79.334,0,0,0-19.22-8.91,71.448,71.448,0,0,0-41.876.014,79.314,79.314,0,0,0-19.207,8.923,92.759,92.759,0,0,0-16.4,13.423,110.477,110.477,0,0,0-13.253,16.545,135.386,135.386,0,0,0-17.17,38.63,161.7,161.7,0,0,0,.023,83.891,135.345,135.345,0,0,0,17.19,38.608,110.4,110.4,0,0,0,13.255,16.53,92.5,92.5,0,0,0,16.393,13.4,79.543,79.543,0,0,0,19.194,8.9,71.03,71.03,0,0,0,41.822.015,79.567,79.567,0,0,0,19.206-8.884,92.566,92.566,0,0,0,16.412-13.4,110.458,110.458,0,0,0,13.276-16.527,135.491,135.491,0,0,0,17.228-38.62,154.771,154.771,0,0,0,4.195-20.8A163.232,163.232,0,0,0,1180.707,717.176Z" transform="translate(-968.126 -594.01)" fill="#fff" style="mix-blend-mode: soft-light;isolation: isolate"/>
        <path id="Path_216197" data-name="Path 216197" d="M842.641,1298.442l28.321-.186,28.321-.107,56.642-.086,56.642.094,28.321.116,28.321.2a.068.068,0,0,1,0,.136l-28.321.2-28.321.116-56.642.094-56.642-.085-28.321-.107-28.321-.186a.1.1,0,0,1,0-.2Z" transform="translate(-832.699 -1224.053)" fill="#fff" style="mix-blend-mode: soft-light;isolation: isolate"/>
        <path id="Path_216198" data-name="Path 216198" d="M1155.194,847.2l20.107-.187,20.107-.106c6.7-.045,13.4-.04,20.107-.054l20.107-.031,40.214.094,20.107.116c6.7.069,13.4.109,20.107.2a.068.068,0,0,1,0,.136c-6.7.093-13.4.133-20.107.2l-20.107.116-40.214.094-20.107-.031c-6.7-.014-13.4-.009-20.107-.054l-20.107-.106-20.107-.187a.1.1,0,0,1,0-.2Z" transform="translate(-1112.396 -820.246)" fill="#fff" style="mix-blend-mode: soft-light;isolation: isolate"/>
        <path id="Path_216199" data-name="Path 216199" d="M749.016,1749.687l30.781-.186,30.782-.107,61.563-.085,61.563.094,30.781.115,30.781.2a.068.068,0,0,1,0,.136l-30.781.2-30.781.116-61.563.094-61.563-.085-30.782-.107-30.781-.186a.1.1,0,0,1,0-.2Z" transform="translate(-748.916 -1627.862)" fill="#fff" style="mix-blend-mode: soft-light;isolation: isolate"/>
        <path id="Path_216200" data-name="Path 216200" d="M842.641,2200.928l28.321-.186,28.321-.106,56.642-.086,56.642.094,28.321.115,28.321.2a.068.068,0,0,1,.068.068.069.069,0,0,1-.068.068l-28.321.2-28.321.115-56.642.094-56.642-.086-28.321-.106-28.321-.186a.1.1,0,0,1,0-.2Z" transform="translate(-832.699 -2031.669)" fill="#fff" style="mix-blend-mode: soft-light;isolation: isolate"/>
        <path id="Path_216201" data-name="Path 216201" d="M1352.434,2653.691H1191.578a.355.355,0,1,1,0-.709h160.856a.355.355,0,1,1,0,.709Z" transform="translate(-1144.727 -2436.541)" fill="#fff" style="mix-blend-mode: soft-light;isolation: isolate"/>
      </g>
    </g>
    <g id="Group_152878" data-name="Group 152878" transform="translate(530.492 414.467)">
      <g id="Group_152877" data-name="Group 152877" transform="translate(0 1.788)">
        <path id="Path_216202" data-name="Path 216202" d="M1268.627,1265.833a14.735,14.735,0,0,1,14.735-14.734h125.3a12.981,12.981,0,0,1,12.965,12.321l9.249,181.665a9.573,9.573,0,0,1-9.386,10.058l-143.613,2.61a9.087,9.087,0,0,1-9.251-9.085Z" transform="translate(-1268.627 -1223.585)" fill="url(#linear-gradient-7)"/>
        <path id="Path_216203" data-name="Path 216203" d="M1336.516,2892.331h0l-16.069-.208a9.911,9.911,0,0,1-9.745-9.872V2857.99a.343.343,0,1,1,.686,0v24.262a9.222,9.222,0,0,0,9.068,9.186l16.069.208a.343.343,0,0,1,0,.686Z" transform="translate(-1306.275 -2661.252)" fill="url(#linear-gradient-8)"/>
        <path id="Path_216204" data-name="Path 216204" d="M1311.04,2753.393a.343.343,0,0,1-.343-.343v-3.929a.343.343,0,1,1,.686,0v3.929A.343.343,0,0,1,1311.04,2753.393Z" transform="translate(-1306.275 -2563.827)" fill="url(#linear-gradient-8)"/>
        <g id="Group_152874" data-name="Group 152874" transform="translate(10.265 26.001)">
          <path id="Path_216205" data-name="Path 216205" d="M1366.28,1241.022a4.28,4.28,0,0,1,4.854-4.269c17.111,2.32,75.952,9.5,124.6,5.762a3.958,3.958,0,0,1,4.262,3.733l9.7,182.474a4.554,4.554,0,0,1-4.279,4.79c-20.461,1.211-104.725,5.892-134.781,2.744a3.608,3.608,0,0,1-3.229-3.571Z" transform="translate(-1366.28 -1236.714)" fill="url(#linear-gradient-10)"/>
          <path id="Path_216206" data-name="Path 216206" d="M1385.454,1285.9a4.119,4.119,0,0,1,4.672-4.108c16.467,2.233,73.092,9.14,119.908,5.546a3.809,3.809,0,0,1,4.1,3.592l9.333,175.6a4.383,4.383,0,0,1-4.118,4.609c-19.69,1.165-100.781,5.67-129.705,2.64a3.472,3.472,0,0,1-3.107-3.436Z" transform="translate(-1383.439 -1277.022)" fill="url(#linear-gradient-11)"/>
          <g id="Group_152870" data-name="Group 152870" transform="translate(28.191 62.237)" opacity="0.6">
            <path id="Path_216207" data-name="Path 216207" d="M1635.834,1828.763a1.276,1.276,0,0,0-1.364,1.518l.195,1.295a1.926,1.926,0,0,0,1.841,1.585h23.248a1.584,1.584,0,0,0,1.583-1.6v-.127a1.717,1.717,0,0,0-1.622-1.67Z" transform="translate(-1634.453 -1828.761)" fill="#fff"/>
          </g>
          <g id="Group_152871" data-name="Group 152871" transform="translate(85.11 62.141)" opacity="0.6">
            <path id="Path_216208" data-name="Path 216208" d="M2177.3,1827.852a1.275,1.275,0,0,0-1.364,1.518l.194,1.295a1.926,1.926,0,0,0,1.842,1.585h23.248a1.584,1.584,0,0,0,1.583-1.6v-.128a1.716,1.716,0,0,0-1.622-1.67Z" transform="translate(-2175.921 -1827.85)" fill="#fff"/>
          </g>
          <rect id="Rectangle_45363" data-name="Rectangle 45363" width="105.023" height="4.408" rx="2.204" transform="translate(17.236 109.436)" fill="#fff" opacity="0.68"/>
          <rect id="Rectangle_45364" data-name="Rectangle 45364" width="77.855" height="4.408" rx="2.204" transform="translate(17.236 118.635)" fill="#fff" opacity="0.68"/>
          <rect id="Rectangle_45365" data-name="Rectangle 45365" width="105.023" height="4.408" rx="2.204" transform="translate(17.428 100.428)" fill="#fff" opacity="0.68"/>
          <rect id="Rectangle_45366" data-name="Rectangle 45366" width="105.023" height="4.408" rx="2.204" transform="translate(16.764 137.279)" fill="#fff" opacity="0.68"/>
          <rect id="Rectangle_45367" data-name="Rectangle 45367" width="79.271" height="4.408" rx="2.204" transform="translate(16.764 146.478)" fill="#fff" opacity="0.68"/>
          <rect id="Rectangle_45368" data-name="Rectangle 45368" width="105.023" height="4.408" rx="2.204" transform="translate(16.956 128.272)" fill="#fff" opacity="0.68"/>
          <rect id="Rectangle_45369" data-name="Rectangle 45369" width="105.023" height="4.408" rx="2.204" transform="translate(16.956 156.233)" fill="#fff" opacity="0.68"/>
          <rect id="Rectangle_45370" data-name="Rectangle 45370" width="105.023" height="4.408" rx="2.204" transform="translate(16.47 47.725)" fill="#fff" opacity="0.68"/>
          <rect id="Rectangle_45371" data-name="Rectangle 45371" width="69.089" height="4.408" rx="2.204" transform="translate(34.005 29.231)" fill="#fff" opacity="0.68"/>
          <rect id="Rectangle_45372" data-name="Rectangle 45372" width="105.023" height="4.408" rx="2.204" transform="translate(16.661 38.717)" fill="#fff" opacity="0.68"/>
          <g id="Group_152872" data-name="Group 152872" transform="translate(17.232 71.873)">
            <rect id="Rectangle_45373" data-name="Rectangle 45373" width="47.639" height="4.408" rx="2.204" transform="translate(0.184 8.433)" fill="#fff" opacity="0.68"/>
            <rect id="Rectangle_45374" data-name="Rectangle 45374" width="47.639" height="4.408" rx="2.204" transform="translate(0.184 16.865)" fill="#fff" opacity="0.68"/>
            <rect id="Rectangle_45375" data-name="Rectangle 45375" width="47.639" height="4.408" rx="2.204" fill="#fff" opacity="0.68"/>
          </g>
          <g id="Group_152873" data-name="Group 152873" transform="translate(73.769 72.064)">
            <rect id="Rectangle_45376" data-name="Rectangle 45376" width="48.403" height="4.408" rx="2.204" transform="translate(0.187 8.433)" fill="#fff" opacity="0.68"/>
            <rect id="Rectangle_45377" data-name="Rectangle 45377" width="48.403" height="4.408" rx="2.204" transform="translate(0.187 16.865)" fill="#fff" opacity="0.68"/>
            <rect id="Rectangle_45378" data-name="Rectangle 45378" width="48.403" height="4.408" rx="2.204" fill="#fff" opacity="0.68"/>
          </g>
        </g>
        <path id="Path_216209" data-name="Path 216209" d="M1949.486,992.11c-4.526-3.149-8.462-3.086-11.232-2.269a5.526,5.526,0,0,0-3.925,5.81l1.2,13.041,14.217,1.262S1958.362,998.285,1949.486,992.11Zm-6.252,10.521a3.545,3.545,0,1,1,3.545-3.545A3.545,3.545,0,0,1,1943.234,1002.631Z" transform="translate(-1864.329 -989.366)" fill="url(#linear-gradient-12)"/>
        <g id="Group_152875" data-name="Group 152875" transform="translate(71.734 1.91)">
          <path id="Path_216210" data-name="Path 216210" d="M1951.906,1019.462a.343.343,0,0,1-.341-.312l-.19-2.077a.343.343,0,1,1,.683-.062l.19,2.077a.343.343,0,0,1-.31.373Zm-.373-4.07a.343.343,0,0,1-.341-.312l-.145-1.577a5.275,5.275,0,0,1,3.74-5.534,10.63,10.63,0,0,1,5.2-.213.343.343,0,1,1-.138.672,9.957,9.957,0,0,0-4.864.2,4.587,4.587,0,0,0-3.251,4.814l.145,1.577a.343.343,0,0,1-.31.373Z" transform="translate(-1951.025 -1007.531)" fill="#bdd0fb"/>
        </g>
        <path id="Path_216211" data-name="Path 216211" d="M1761.309,1163.508v-6.556a4,4,0,0,1,4.138-4l45.2,1.549a3.891,3.891,0,0,1,3.751,3.656l.378,6.3Z" transform="translate(-1709.518 -1135.754)" fill="url(#linear-gradient-13)"/>
        <path id="Path_216212" data-name="Path 216212" d="M1902.183,1170.633h-1.944a.343.343,0,0,1,0-.686h1.944a.343.343,0,0,1,0,.686Z" transform="translate(-1833.536 -1150.964)" fill="#bdd0fb"/>
        <path id="Path_216213" data-name="Path 216213" d="M1781.664,1176.659a.343.343,0,0,1-.343-.343v-2.652a3.721,3.721,0,0,1,3.717-3.716h7.147a.343.343,0,1,1,0,.686h-7.147a3.034,3.034,0,0,0-3.03,3.03v2.652A.343.343,0,0,1,1781.664,1176.659Z" transform="translate(-1727.426 -1150.964)" fill="#bdd0fb"/>
        <path id="Path_216214" data-name="Path 216214" d="M1584.577,1234.59a4.259,4.259,0,0,1,4.254-4.055l79.048,0a5.843,5.843,0,0,1,5.757,4.846l.067.386a5.018,5.018,0,0,1-4.944,5.874h-81.1a3.262,3.262,0,0,1-3.259-3.419Z" transform="translate(-1551.204 -1205.181)" fill="url(#linear-gradient-14)"/>
        <g id="Group_152876" data-name="Group 152876" transform="translate(59.804 191.333)">
          <path id="Path_216215" data-name="Path 216215" d="M1837.537,2830.552a26.421,26.421,0,0,1,3.932-11.758,27.336,27.336,0,0,1,3.9-4.928c.382-.361.755-.733,1.147-1.084s.8-.69,1.208-1.019.838-.64,1.271-.94l.661-.436.331-.217.166-.109c.06-.037.14-.085.212-.123a3.322,3.322,0,0,1,3.953.459,2.979,2.979,0,0,1,.607.919,3.521,3.521,0,0,1,.165.484,3.917,3.917,0,0,1,.1.475,6.688,6.688,0,0,1,.013,1.773c-.03.281-.076.557-.125.826l-.151.759c-.1.507-.21,1.011-.32,1.515-.223,1.008-.475,2.009-.74,3.006a69.658,69.658,0,0,1-4.269,11.6l-.676,1.392c-.236.458-.467.92-.708,1.375l-.366.681-.183.341-.2.355a10.374,10.374,0,0,1-.954,1.369,6.406,6.406,0,0,1-1.291,1.205,3.659,3.659,0,0,1-1.864.665,2.556,2.556,0,0,1-.529-.02,2.846,2.846,0,0,1-.511-.107,2.973,2.973,0,0,1-.937-.453,3.6,3.6,0,0,1-1.222-1.552,4.833,4.833,0,0,1-.353-1.8,7.238,7.238,0,0,1,.205-1.707,14.842,14.842,0,0,1,.454-1.537l.253-.746.286-.733a28.093,28.093,0,0,1,7.068-10.247l.287-.267.3-.253.6-.506c.2-.164.413-.32.619-.48s.41-.322.627-.468c.428-.3.851-.6,1.3-.874l.331-.209.165-.1c.03-.018.051-.033.087-.054l.109-.061a2.631,2.631,0,0,1,.949-.293,2.413,2.413,0,0,1,1.892.588,1.97,1.97,0,0,1,.574.914,2.53,2.53,0,0,1,.069.979,5.521,5.521,0,0,1-.165.837l-.207.742-.413,1.471c-.547,1.962-1.115,3.918-1.672,5.877v0l-.86-.153a4.507,4.507,0,0,1,.605-1.923,3.151,3.151,0,0,1,.7-.8,2.747,2.747,0,0,1,.963-.5,2.537,2.537,0,0,1,1.1-.072,2.071,2.071,0,0,1,.548.166,1.968,1.968,0,0,1,.256.138l.173.109a1.574,1.574,0,0,0,1.378.091,1.446,1.446,0,0,0,.3-.175,1.385,1.385,0,0,0,.134-.115l.065-.064.078-.083.626-.668,1.253-1.337,1.253-1.337.627-.668a1.207,1.207,0,0,1,.62-.354,1.159,1.159,0,0,1,.717.081,1.208,1.208,0,0,1,.534.469,1.136,1.136,0,0,1,.156.713.789.789,0,0,1-.033.176c-.014.053-.034.123-.045.149l-.075.21-.142.425c-.184.568-.339,1.146-.47,1.728s-.231,1.172-.3,1.764c-.008.073-.02.15-.025.22l-.005.181a.676.676,0,0,0,.011.178.91.91,0,0,0,.028.174,1.452,1.452,0,0,0,.323.617,1.5,1.5,0,0,0,.578.411,1.8,1.8,0,0,0,.343.1,1.688,1.688,0,0,0,.354.014,1.382,1.382,0,0,0,.665-.212l.078-.043.07-.058.141-.116.324-.317q1.293-1.27,2.47-2.652a40.671,40.671,0,0,0,4.174-5.918l.444-.79.214-.4.107-.2.027-.05c0-.006,0,0,0,0s0,0,0,.009c0,.034.013.04.01.037a.027.027,0,0,0,.02,0l.031-.006s0,0,0,0l-.039.04-.077.078c-.052.052-.1.1-.152.159-.1.106-.2.216-.295.327a10.946,10.946,0,0,0-1.038,1.421q-.23.376-.431.769c-.066.131-.131.263-.192.4l-.09.2-.044.1-.029.091a1.851,1.851,0,0,0,.04,1.444,1.944,1.944,0,0,0,1.064,1,1.889,1.889,0,0,0,.722.129,1.974,1.974,0,0,0,.718-.179l.172-.08.194-.113c.129-.076.26-.148.387-.229.257-.154.509-.315.76-.48a22.809,22.809,0,0,0,5.282-4.834h0a.438.438,0,0,1,.687.545,23.677,23.677,0,0,1-5.487,5.022q-.39.256-.789.5c-.132.083-.268.158-.4.237l-.2.118-.243.115a2.814,2.814,0,0,1-1.049.256,2.761,2.761,0,0,1-1.068-.187,2.818,2.818,0,0,1-1.544-1.445,2.735,2.735,0,0,1-.065-2.118l.044-.127.048-.109.1-.217c.066-.145.135-.286.207-.428q.216-.424.465-.83a11.851,11.851,0,0,1,1.122-1.536c.1-.119.209-.238.319-.353.054-.058.109-.116.165-.172l.083-.085.042-.042c.027-.024.057-.05.086-.073a.812.812,0,0,1,.452-.17.857.857,0,0,1,.459.108.846.846,0,0,1,.435.793.817.817,0,0,1-.053.232c-.013.034-.03.073-.044.1l-.027.051-.11.2-.219.409-.454.807a41.54,41.54,0,0,1-4.265,6.047q-1.2,1.411-2.524,2.71l-.331.324-.212.176-.108.086-.121.071a2.258,2.258,0,0,1-1.061.338,2.546,2.546,0,0,1-.559-.024,2.674,2.674,0,0,1-.533-.158,2.375,2.375,0,0,1-.9-.641,2.335,2.335,0,0,1-.517-.99,1.772,1.772,0,0,1-.047-.277,1.319,1.319,0,0,1-.018-.278l.01-.277.027-.236q.116-.93.319-1.846c.136-.609.3-1.213.491-1.808l.149-.444.078-.221a.438.438,0,0,0,.02-.071.113.113,0,0,0,.01-.048.251.251,0,0,0-.033-.166.333.333,0,0,0-.146-.126.28.28,0,0,0-.337.074l-.626.668-1.253,1.337-1.254,1.337-.627.668-.078.083-.1.1a2.258,2.258,0,0,1-.7.463,2.447,2.447,0,0,1-2.152-.134l-.215-.134a1.057,1.057,0,0,0-.147-.078,1.179,1.179,0,0,0-.326-.1,1.666,1.666,0,0,0-.716.049,2,2,0,0,0-1.153.915,3.642,3.642,0,0,0-.479,1.545l-.86-.153v0c.493-1.977.974-3.956,1.477-5.929l.374-1.481.185-.734a4.385,4.385,0,0,0,.115-.664,1.368,1.368,0,0,0-.044-.534.763.763,0,0,0-.24-.354,1.2,1.2,0,0,0-.949-.256,1.388,1.388,0,0,0-.5.169l-.057.034-.074.049-.155.1-.31.207c-.418.268-.813.569-1.213.864-.2.143-.391.305-.585.461s-.387.311-.576.471l-.555.5-.278.247-.268.258a26.351,26.351,0,0,0-3.822,4.541,26.017,26.017,0,0,0-2.715,5.264l-.258.694-.227.7a13.5,13.5,0,0,0-.39,1.4,4.089,4.089,0,0,0,.1,2.494,1.907,1.907,0,0,0,.651.812,1.28,1.28,0,0,0,.436.2,1.325,1.325,0,0,0,.467.049,1.936,1.936,0,0,0,.966-.372,4.71,4.71,0,0,0,.923-.886,8.578,8.578,0,0,0,.78-1.142l.173-.311.176-.333.352-.667c.231-.445.452-.9.679-1.346l.647-1.362a71.028,71.028,0,0,0,4.1-11.321c.255-.972.5-1.947.712-2.928.106-.491.216-.981.308-1.475l.145-.74c.042-.231.079-.458.1-.684a4.861,4.861,0,0,0,0-1.272,1.578,1.578,0,0,0-.364-.86.992.992,0,0,0-.318-.223,1.452,1.452,0,0,0-.44-.111,1.728,1.728,0,0,0-.955.208c-.041.022-.07.039-.118.068l-.154.1-.308.2-.617.4c-.406.275-.792.581-1.193.864s-.763.619-1.146.927-.728.662-1.093.992a28.208,28.208,0,0,0-8.209,15.524.439.439,0,0,1-.87-.108Z" transform="translate(-1837.536 -2809.492)" fill="#fff"/>
          <path id="Path_216216" data-name="Path 216216" d="M2267.663,2852.259a.438.438,0,0,1-.233-.81l4.379-2.743a.438.438,0,1,1,.465.743l-4.378,2.743A.435.435,0,0,1,2267.663,2852.259Z" transform="translate(-2222.055 -2844.524)" fill="#fff"/>
        </g>
      </g>
      <path id="Path_216217" data-name="Path 216217" d="M1334.708,2880.207h0l-16.111-.208a9.935,9.935,0,0,1-9.769-9.9v-24.324a.344.344,0,0,1,.688,0V2870.1a9.245,9.245,0,0,0,9.091,9.209l16.111.208a.344.344,0,0,1,0,.688Z" transform="translate(-1304.598 -2648.534)" fill="#fff"/>
      <path id="Path_216218" data-name="Path 216218" d="M1309.167,2740.913a.344.344,0,0,1-.344-.344v-3.939a.344.344,0,1,1,.688,0v3.939A.344.344,0,0,1,1309.167,2740.913Z" transform="translate(-1304.598 -2550.86)" fill="#fff"/>
      <path id="Path_216219" data-name="Path 216219" d="M1949.253,975.105c-4.538-3.157-8.483-3.094-11.261-2.275a5.54,5.54,0,0,0-3.935,5.824l1.2,13.074,14.253,1.265S1958.152,981.3,1949.253,975.105Zm-6.268,10.548a3.554,3.554,0,1,1,3.554-3.554A3.554,3.554,0,0,1,1942.984,985.653Z" transform="translate(-1864.086 -972.354)" fill="url(#linear-gradient-15)"/>
      <path id="Path_216220" data-name="Path 216220" d="M1951.678,1002.527a.344.344,0,0,1-.342-.313l-.191-2.082a.344.344,0,1,1,.685-.062l.191,2.082a.344.344,0,0,1-.311.374Zm-.374-4.08a.344.344,0,0,1-.342-.313l-.145-1.58a5.288,5.288,0,0,1,3.749-5.549,10.654,10.654,0,0,1,5.209-.214.344.344,0,1,1-.138.674,9.986,9.986,0,0,0-4.877.2,4.6,4.6,0,0,0-3.259,4.826l.145,1.581a.344.344,0,0,1-.311.374Z" transform="translate(-1879.085 -988.651)" fill="#fff"/>
      <path id="Path_216221" data-name="Path 216221" d="M1760.592,1146.943v-6.573a4.011,4.011,0,0,1,4.149-4.009l45.32,1.552a3.9,3.9,0,0,1,3.76,3.666l.379,6.316Z" transform="translate(-1708.876 -1119.118)" fill="url(#linear-gradient-16)"/>
      <path id="Path_216222" data-name="Path 216222" d="M1901.828,1154.087h-1.949a.344.344,0,0,1,0-.688h1.949a.344.344,0,0,1,0,.688Z" transform="translate(-1833.214 -1134.367)" fill="#fff"/>
      <path id="Path_216223" data-name="Path 216223" d="M1781,1160.128a.344.344,0,0,1-.344-.344v-2.659a3.73,3.73,0,0,1,3.726-3.726h7.165a.344.344,0,1,1,0,.688h-7.165a3.042,3.042,0,0,0-3.039,3.038v2.659A.344.344,0,0,1,1781,1160.128Z" transform="translate(-1726.83 -1134.367)" fill="#fff"/>
      <path id="Path_216224" data-name="Path 216224" d="M1583.406,1218.208a4.27,4.27,0,0,1,4.266-4.065l79.25,0a5.857,5.857,0,0,1,5.772,4.858l.067.388a5.031,5.031,0,0,1-4.957,5.888H1586.5a3.271,3.271,0,0,1-3.267-3.428Z" transform="translate(-1550.156 -1188.724)" fill="url(#linear-gradient-17)"/>
    </g>
    <g id="Group_152880" data-name="Group 152880" transform="translate(702.979 561.416)">
      <path id="Path_216225" data-name="Path 216225" d="M2944.961,2371.319a1.044,1.044,0,0,0-1.008-1.059h-33.338a1.171,1.171,0,0,0-1.149,1.081v83.081a1.8,1.8,0,0,0,.53,1.184,1.592,1.592,0,0,0,1.145.488l33.7-.1a1.536,1.536,0,0,0,1.123-.5,1.739,1.739,0,0,0,.451-1.2Z" transform="translate(-2909.466 -2370.26)" fill="#91b3fa"/>
      <g id="Group_152879" data-name="Group 152879" transform="translate(5.239 4.391)">
        <path id="Path_216226" data-name="Path 216226" d="M2972.158,2413.524l-10.905-.04,0-1.457,10.893.037Z" transform="translate(-2961.048 -2412.026)" fill="#bdd0fb" style="mix-blend-mode: overlay;isolation: isolate"/>
        <path id="Path_216227" data-name="Path 216227" d="M2972.06,2464.364l-10.95-.054,0-1.469,10.938.05Z" transform="translate(-2960.92 -2457.5)" fill="#bdd0fb" style="mix-blend-mode: overlay;isolation: isolate"/>
        <path id="Path_216228" data-name="Path 216228" d="M2971.962,2515.624l-11-.067,0-1.481,10.983.063Z" transform="translate(-2960.792 -2503.348)" fill="#bdd0fb" style="mix-blend-mode: overlay;isolation: isolate"/>
        <path id="Path_216229" data-name="Path 216229" d="M2971.863,2567.308l-11.041-.081,0-1.493,11.028.076Z" transform="translate(-2960.663 -2549.576)" fill="#bdd0fb" style="mix-blend-mode: overlay;isolation: isolate"/>
        <path id="Path_216230" data-name="Path 216230" d="M2971.764,2619.419l-11.087-.093,0-1.506,11.074.09Z" transform="translate(-2960.533 -2596.187)" fill="#bdd0fb" style="mix-blend-mode: overlay;isolation: isolate"/>
        <path id="Path_216231" data-name="Path 216231" d="M2971.562,2724.955l-11.181-.122,0-1.531,11.167.118Z" transform="translate(-2960.268 -2690.58)" fill="#bdd0fb" style="mix-blend-mode: overlay;isolation: isolate"/>
        <path id="Path_216232" data-name="Path 216232" d="M2971.252,2886.615l-11.323-.166,0-1.57,11.31.162Z" transform="translate(-2959.864 -2835.172)" fill="#bdd0fb" style="mix-blend-mode: overlay;isolation: isolate"/>
        <path id="Path_216233" data-name="Path 216233" d="M2971.663,2671.967l-11.133-.108,0-1.519,11.121.1Z" transform="translate(-2960.401 -2643.187)" fill="#bdd0fb" style="mix-blend-mode: overlay;isolation: isolate"/>
        <path id="Path_216234" data-name="Path 216234" d="M2971.459,2778.389l-11.228-.136,0-1.544,11.214.133Z" transform="translate(-2960.135 -2738.372)" fill="#bdd0fb" style="mix-blend-mode: overlay;isolation: isolate"/>
        <path id="Path_216235" data-name="Path 216235" d="M2971.357,2832.273l-11.275-.151,0-1.558,11.262.147Z" transform="translate(-2960 -2786.568)" fill="#bdd0fb" style="mix-blend-mode: overlay;isolation: isolate"/>
        <path id="Path_216236" data-name="Path 216236" d="M2971.146,2941.419l-11.371-.181,0-1.584,11.358.177Z" transform="translate(-2959.726 -2884.189)" fill="#bdd0fb" style="mix-blend-mode: overlay;isolation: isolate"/>
        <path id="Path_216237" data-name="Path 216237" d="M2971.041,2996.693l-11.42-.2.005-1.6,11.406.192Z" transform="translate(-2959.588 -2933.627)" fill="#bdd0fb" style="mix-blend-mode: overlay;isolation: isolate"/>
        <path id="Path_216238" data-name="Path 216238" d="M2970.935,3052.442l-11.469-.213,0-1.611,11.456.208Z" transform="translate(-2959.449 -2983.489)" fill="#bdd0fb" style="mix-blend-mode: overlay;isolation: isolate"/>
        <path id="Path_216239" data-name="Path 216239" d="M2970.827,3108.671l-11.519-.228,0-1.625,11.5.224Z" transform="translate(-2959.308 -3033.781)" fill="#bdd0fb" style="mix-blend-mode: overlay;isolation: isolate"/>
        <path id="Path_216240" data-name="Path 216240" d="M3107.49,2413.985l-10.974-.041-.012-1.462,10.962.037Z" transform="translate(-3082.082 -2412.434)" fill="#bdd0fb" style="mix-blend-mode: overlay;isolation: isolate"/>
        <path id="Path_216241" data-name="Path 216241" d="M3107.949,2464.987l-11.02-.054-.012-1.474,11.007.05Z" transform="translate(-3082.452 -2458.052)" fill="#bdd0fb" style="mix-blend-mode: overlay;isolation: isolate"/>
        <path id="Path_216242" data-name="Path 216242" d="M3108.413,2516.41l-11.065-.066-.012-1.486,11.053.063Z" transform="translate(-3082.826 -2504.047)" fill="#bdd0fb" style="mix-blend-mode: overlay;isolation: isolate"/>
        <path id="Path_216243" data-name="Path 216243" d="M3108.879,2568.261l-11.111-.081-.012-1.5,11.1.077Z" transform="translate(-3083.202 -2550.425)" fill="#bdd0fb" style="mix-blend-mode: overlay;isolation: isolate"/>
        <path id="Path_216244" data-name="Path 216244" d="M3109.351,2620.543l-11.158-.094-.013-1.511,11.146.091Z" transform="translate(-3083.582 -2597.187)" fill="#bdd0fb" style="mix-blend-mode: overlay;isolation: isolate"/>
        <path id="Path_216245" data-name="Path 216245" d="M3110.3,2726.425l-11.252-.123-.012-1.536,11.239.119Z" transform="translate(-3084.352 -2691.891)" fill="#bdd0fb" style="mix-blend-mode: overlay;isolation: isolate"/>
        <path id="Path_216246" data-name="Path 216246" d="M3111.765,2888.629l-11.4-.167-.013-1.576,11.383.164Z" transform="translate(-3085.529 -2836.968)" fill="#bdd0fb" style="mix-blend-mode: overlay;isolation: isolate"/>
        <path id="Path_216247" data-name="Path 216247" d="M3109.825,2673.263l-11.205-.109-.012-1.523,11.192.1Z" transform="translate(-3083.965 -2644.342)" fill="#bdd0fb" style="mix-blend-mode: overlay;isolation: isolate"/>
        <path id="Path_216248" data-name="Path 216248" d="M3110.787,2780.038l-11.3-.137-.013-1.549,11.287.133Z" transform="translate(-3084.74 -2739.843)" fill="#bdd0fb" style="mix-blend-mode: overlay;isolation: isolate"/>
        <path id="Path_216249" data-name="Path 216249" d="M3111.274,2834.1l-11.348-.152-.013-1.562,11.335.148Z" transform="translate(-3085.133 -2788.2)" fill="#bdd0fb" style="mix-blend-mode: overlay;isolation: isolate"/>
        <path id="Path_216250" data-name="Path 216250" d="M3112.26,2943.621l-11.445-.182-.013-1.59,11.433.178Z" transform="translate(-3085.928 -2886.154)" fill="#bdd0fb" style="mix-blend-mode: overlay;isolation: isolate"/>
        <path id="Path_216251" data-name="Path 216251" d="M3112.76,2999.084l-11.5-.2-.013-1.6,11.481.193Z" transform="translate(-3086.331 -2935.761)" fill="#bdd0fb" style="mix-blend-mode: overlay;isolation: isolate"/>
        <path id="Path_216252" data-name="Path 216252" d="M3113.264,3055.027l-11.545-.213-.013-1.617,11.531.209Z" transform="translate(-3086.737 -2985.797)" fill="#bdd0fb" style="mix-blend-mode: overlay;isolation: isolate"/>
        <path id="Path_216253" data-name="Path 216253" d="M3113.772,3111.454l-11.6-.229-.013-1.631,11.581.225Z" transform="translate(-3087.147 -3036.264)" fill="#bdd0fb" style="mix-blend-mode: overlay;isolation: isolate"/>
      </g>
    </g>
    <g id="Group_152884" data-name="Group 152884" transform="translate(469.458 488.308)">
      <path id="Path_216254" data-name="Path 216254" d="M1107.637,2128.675s-7.13,16.454-11.518,14.26-7.678-20.293-7.678-20.293S1102.153,2119.352,1107.637,2128.675Z" transform="translate(-1046.348 -2075.06)" fill="url(#linear-gradient-18)"/>
      <path id="Path_216255" data-name="Path 216255" d="M1027.259,3156.152s-.6,3.375-.888,6.715a2.3,2.3,0,0,0,2.2,2.493c4.448.186,13.963.546,17.378.394a.749.749,0,0,0,.659-1.026,1.676,1.676,0,0,0-.857-.9l-15.717-7.224Z" transform="translate(-990.794 -3000.43)" fill="url(#linear-gradient-19)"/>
      <path id="Path_216256" data-name="Path 216256" d="M1030.251,3131.985l.479,4.036s2.753,1.282,4.634-.162l-1.14-4.5Z" transform="translate(-994.275 -2978.245)" fill="url(#linear-gradient-20)"/>
      <path id="Path_216257" data-name="Path 216257" d="M927.411,2415.41c-.207,1.054-1.11,52.6,4.4,75.7a.784.784,0,0,1-.46.912,13.661,13.661,0,0,1-4.487.911,1.349,1.349,0,0,1-1.339-.969c-1.575-5.359-9.122-32.211-10.106-57.862-1.1-28.663,0-.976,0-.976l.645-17.718Z" transform="translate(-891.075 -2337.554)" fill="url(#linear-gradient-21)"/>
      <path id="Path_216258" data-name="Path 216258" d="M846.762,3172.9a24.29,24.29,0,0,0-1.867,6.23,1.4,1.4,0,0,0,1.235,1.682c1.469.144,3.73.33,5.541.317a1.4,1.4,0,0,0,1.386-1.562,11.807,11.807,0,0,0-2.756-6.476Z" transform="translate(-828.377 -3015.416)" fill="url(#linear-gradient-22)"/>
      <path id="Path_216259" data-name="Path 216259" d="M854.976,3121.494l1.119,6.1a3.946,3.946,0,0,0,3.3.227l-.534-6.568Z" transform="translate(-837.425 -2969.203)" fill="url(#linear-gradient-23)"/>
      <path id="Path_216260" data-name="Path 216260" d="M811.451,2406.19c-4.506,27.2.978,67.216,2.827,75.049a1.221,1.221,0,0,0,.986.928,8.212,8.212,0,0,0,3.525-.141,1.12,1.12,0,0,0,.8-1.031c.248-6.333-.2-45.209,4-60.574a3.49,3.49,0,0,1,1.346-1.925l8.15-5.794.625-9.365Z" transform="translate(-796.923 -2326.753)" fill="url(#linear-gradient-24)"/>
      <g id="Group_152881" data-name="Group 152881" transform="translate(12.846 28.55)">
        <path id="Path_216261" data-name="Path 216261" d="M841.1,1946.768a76.135,76.135,0,0,0-28.9,2.519c-4.025,23.488-.7,50.58-.7,50.58,10.455,2.742,22.248-1.676,22.248-1.676,1.738-9.817,9.845-37.447,9.845-37.447C850.191,1959.925,845.25,1947.183,841.1,1946.768Z" transform="translate(-810.212 -1946.383)" fill="url(#linear-gradient-25)"/>
      </g>
      <path id="Path_216262" data-name="Path 216262" d="M709.3,1987.08,704.119,1974s-12.614,8.571-14.688,19.437a29.857,29.857,0,0,1,10.966,2.939C701.329,1991.249,709.3,1987.08,709.3,1987.08Z" transform="translate(-689.282 -1942.551)" fill="url(#linear-gradient-26)"/>
      <path id="Path_216263" data-name="Path 216263" d="M720.151,2164.85s-14.91,7.983-19.689,1.149a6.447,6.447,0,0,1-1.3-4.5,28.262,28.262,0,0,0-11-2.6c-.625,3.276.8,6.76,2.727,10.281,8.37,15.312,31.135-.846,31.135-.846Z" transform="translate(-688.014 -2108.017)" fill="url(#linear-gradient-27)"/>
      <g id="Group_152882" data-name="Group 152882" transform="translate(30.404 35.103)">
        <path id="Path_216264" data-name="Path 216264" d="M977.278,2062.9l7.729-26.992a.787.787,0,0,1,.666-.567c1.4-.163,5.458-.622,10.143-1.018a115.111,115.111,0,0,1,16.114-.535.79.79,0,0,1,.646,1.137c-2.227,4.506-11.388,22.833-15.975,28.837a.793.793,0,0,1-.637.313l-17.933-.167A.79.79,0,0,1,977.278,2062.9Z" transform="translate(-977.247 -2031.041)" fill="url(#linear-gradient-28)"/>
        <path id="Path_216265" data-name="Path 216265" d="M1155.735,2009.66l5.6-.934a.4.4,0,0,1,.448.523l-.555,1.681a.4.4,0,0,1-.329.273l-5.393.72a.4.4,0,0,1-.445-.49l.344-1.468A.4.4,0,0,1,1155.735,2009.66Z" transform="translate(-1136.364 -2008.721)" fill="url(#linear-gradient-29)"/>
        <path id="Path_216266" data-name="Path 216266" d="M1121.518,2028.7l.462-2.4a.556.556,0,0,1,.49-.448l11.318-1.148a.556.556,0,0,1,.6.683l-.72,3a.556.556,0,0,1-.513.425l-11.06.557A.556.556,0,0,1,1121.518,2028.7Z" transform="translate(-1106.343 -2023.016)" fill="url(#linear-gradient-30)"/>
        <path id="Path_216267" data-name="Path 216267" d="M988.959,2171.39s-1.077-4.427-.642-6,1.276-3.59,4.081-3.141a41,41,0,0,1,6.113,1.63,1.606,1.606,0,0,1-2.3,1.386l1.322,1.023s-.189,1.638-1.99.763l1.23,1.356a1.433,1.433,0,0,1-2.1.482C993.351,2168.028,992.716,2171.923,988.959,2171.39Z" transform="translate(-987.06 -2146.055)" fill="url(#linear-gradient-31)"/>
        <path id="Path_216268" data-name="Path 216268" d="M1225.8,2089.718s3.264-3.179,3.73-4.74.826-3.719-1.788-4.829a41.023,41.023,0,0,0-6.046-1.866,1.606,1.606,0,0,0,1.212,2.4l-1.664.165s-.71,1.488,1.281,1.7l-1.762.5a1.433,1.433,0,0,0,1.521,1.523C1223.868,2084.537,1222.338,2088.174,1225.8,2089.718Z" transform="translate(-1195.167 -2070.97)" fill="url(#linear-gradient-32)"/>
      </g>
      <path id="Path_216269" data-name="Path 216269" d="M948.107,1845.694l-4.3,12.426a.448.448,0,0,0,.2.539,10.1,10.1,0,0,0,10.477-.7,2.108,2.108,0,0,0,.971-1.506l1.391-10.755Z" transform="translate(-916.898 -1827.729)" fill="url(#linear-gradient-33)"/>
      <g id="Group_152883" data-name="Group 152883" transform="translate(23.054)">
        <path id="Path_216270" data-name="Path 216270" d="M980.081,1736.228s4.718,8.882,4.114,12.47-6.453,3.33-11.559.416l-3.568-9.591Z" transform="translate(-962.576 -1729.77)" fill="url(#linear-gradient-34)"/>
        <path id="Path_216271" data-name="Path 216271" d="M917.605,1689.428a.366.366,0,0,0,.16-.536,9.557,9.557,0,0,1-1.313-2.787s-.848-.543,2.159-1.263,7.492-1.837,8.434-4.4c.919-2.5-1.5-8.772-5.348-3.771a.366.366,0,0,1-.58,0c-.631-.822-2.292-2.528-4.6-1.494a3.462,3.462,0,0,0-2.37,3.346.364.364,0,0,1-.431.373,4.222,4.222,0,0,0-4.929,2.3c-1.006,2.211-.352,3.463.243,4.075a.365.365,0,0,1-.156.606,2.2,2.2,0,0,0-1.55,2.506c.128,2.322,2.724,2.117,3.463,2.011a.367.367,0,0,1,.325.115c.634.7,3.489,3.678,6.578,4.038a.369.369,0,0,0,.387-.488l-1.337-3.887a.368.368,0,0,1,.2-.456Z" transform="translate(-907.321 -1674.793)" fill="url(#linear-gradient-35)"/>
        <path id="Path_216272" data-name="Path 216272" d="M979.472,1809.54s-3.359-2.305-3.6-.364,3.025,2.812,4.645,2.088Z" transform="translate(-968.65 -1794.354)" fill="url(#linear-gradient-36)"/>
      </g>
    </g>
    <g id="Group_152887" data-name="Group 152887" transform="translate(636.532 522.227)">
      <g id="Group_152885" data-name="Group 152885" transform="translate(0 0)">
        <path id="Path_216273" data-name="Path 216273" d="M2545.36,2008.113l-.426-5.679a3.938,3.938,0,0,1,3.486-4.208c4.817-.545,13.327-1.238,19.93-.309a4.427,4.427,0,0,1,3.8,4.391v5.805h-5.874l.2-2.969a4.434,4.434,0,0,0-4.014-4.713,41.4,41.4,0,0,0-9.541.207,3.945,3.945,0,0,0-3.276,4.856l.655,2.619Z" transform="translate(-2516.797 -1997.462)" fill="url(#linear-gradient-37)"/>
        <path id="Path_216274" data-name="Path 216274" d="M2413.189,2293.545l-63.126-1.337-4.492-96.522,70.941-4.162Z" transform="translate(-2338.401 -2171.124)" fill="url(#linear-gradient-38)"/>
        <path id="Path_216275" data-name="Path 216275" d="M2417.421,2084.86l-70.9,3.016,7.783-9.748a8.524,8.524,0,0,1,6.539-3.005l42.808-.66a5.694,5.694,0,0,1,3.9,1.411Z" transform="translate(-2339.248 -2066.367)" fill="url(#linear-gradient-39)"/>
        <path id="Path_216276" data-name="Path 216276" d="M2388.3,3149.324l63.126,1.337-11.454,8.63a5.06,5.06,0,0,1-3.03,1.027l-36.346.114a5.073,5.073,0,0,1-3.78-1.689Z" transform="translate(-2376.638 -3028.239)" fill="url(#linear-gradient-40)"/>
        <path id="Path_216277" data-name="Path 216277" d="M2277.479,2159.142l1.7-5.073c.425-1.272,2.008-2.173,3.88-2.208l73.029-1.39c2.052-.039,3.879.969,4.319,2.382l1.979,6.356c.565,1.815-1.359,3.5-4,3.507l-76.7.107C2278.93,2162.827,2276.855,2161.008,2277.479,2159.142Z" transform="translate(-2277.367 -2134.385)" fill="url(#linear-gradient-41)"/>
        <path id="Path_216278" data-name="Path 216278" d="M2429.093,2421.142h0a1.056,1.056,0,0,1-1.055-1.009l-3.665-81.067a1.056,1.056,0,0,1,1.055-1.1h0a1.056,1.056,0,0,1,1.056,1.008l3.664,81.067A1.057,1.057,0,0,1,2429.093,2421.142Z" transform="translate(-2408.919 -2302.169)" fill="url(#linear-gradient-42)"/>
        <path id="Path_216279" data-name="Path 216279" d="M2531.793,2420.977h0a1.057,1.057,0,0,1-1.041-1.024l-2.5-81.111a1.056,1.056,0,0,1,1.071-1.089h0a1.056,1.056,0,0,1,1.041,1.023l2.5,81.111A1.056,1.056,0,0,1,2531.793,2420.977Z" transform="translate(-2501.877 -2301.981)" fill="url(#linear-gradient-43)"/>
        <path id="Path_216280" data-name="Path 216280" d="M2898.243,2421.142h0a1.057,1.057,0,0,0,1.056-1.009l3.664-81.067a1.056,1.056,0,0,0-1.055-1.1h0a1.055,1.055,0,0,0-1.055,1.008l-3.665,81.067A1.057,1.057,0,0,0,2898.243,2421.142Z" transform="translate(-2832.031 -2302.169)" fill="url(#linear-gradient-44)"/>
        <path id="Path_216281" data-name="Path 216281" d="M2805.435,2420.977h0a1.057,1.057,0,0,0,1.041-1.024l2.5-81.111a1.057,1.057,0,0,0-1.071-1.089h0a1.056,1.056,0,0,0-1.041,1.023l-2.5,81.111A1.057,1.057,0,0,0,2805.435,2420.977Z" transform="translate(-2748.964 -2301.981)" fill="url(#linear-gradient-45)"/>
        <path id="Path_216282" data-name="Path 216282" d="M2674.96,2431.143h0a.705.705,0,0,1-.705-.705v-80.594a.705.705,0,0,1,.705-.7h0a.705.705,0,0,1,.705.7v80.594A.705.705,0,0,1,2674.96,2431.143Z" transform="translate(-2632.533 -2312.17)" fill="url(#linear-gradient-46)"/>
      </g>
      <g id="Group_152886" data-name="Group 152886" transform="translate(17.725 49.923)">
        <path id="Path_216283" data-name="Path 216283" d="M2763.923,2609.466l8.857,16.3,6.627-11.825a4.444,4.444,0,0,0,.061-4.237l-4.08-7.792a.9.9,0,0,0-1.6.017l-2.828,5.689-5.9-.05A1.282,1.282,0,0,0,2763.923,2609.466Z" transform="translate(-2730.359 -2587.867)" fill="#fff"/>
        <path id="Path_216284" data-name="Path 216284" d="M2691.273,2734.29l-1.363.933a7.825,7.825,0,0,1-4.484,1.368l-12.325-.105.023-2.819a.345.345,0,0,0-.645-.175l-5.747,10.035,5.629,10.049a.345.345,0,0,0,.646-.15l.173-3.339,5.731.049a6.213,6.213,0,0,0,5.51-3.245Z" transform="translate(-2643.528 -2705.886)" fill="#fff"/>
        <path id="Path_216285" data-name="Path 216285" d="M2525.084,2490.4l9.691-15.823-13.556.173a4.448,4.448,0,0,0-3.7,2.066l-4.708,7.43a.9.9,0,0,0,.813,1.375l6.34-.4,2.908,5.138A1.283,1.283,0,0,0,2525.084,2490.4Z" transform="translate(-2505.661 -2474.341)" fill="#fff"/>
        <path id="Path_216286" data-name="Path 216286" d="M2491.512,2761.2l-18.549-.481,6.928,11.653a4.446,4.446,0,0,0,3.639,2.17l8.789.363a.9.9,0,0,0,.784-1.391l-3.513-5.293,3-5.087A1.282,1.282,0,0,0,2491.512,2761.2Z" transform="translate(-2470.126 -2730.406)" fill="#fff"/>
        <path id="Path_216287" data-name="Path 216287" d="M2454.379,2628.261l-.126-1.647a7.813,7.813,0,0,1,1.058-4.567l6.253-10.621,2.43,1.431a.345.345,0,0,0,.473-.471l-5.818-9.995-11.517-.149a.345.345,0,0,0-.192.635l2.805,1.82-2.908,4.938a6.213,6.213,0,0,0,.054,6.395Z" transform="translate(-2445.979 -2588.589)" fill="#fff"/>
        <path id="Path_216288" data-name="Path 216288" d="M2932.14,2486.239l.082.083Z" transform="translate(-2881.034 -2484.781)" fill="#fff"/>
        <path id="Path_216289" data-name="Path 216289" d="M2932.14,2486.239l.082.167Z" transform="translate(-2881.034 -2484.781)" fill="#fff"/>
        <path id="Path_216290" data-name="Path 216290" d="M2619.362,2472.74l1.49.714a7.82,7.82,0,0,1,3.426,3.2l6.071,10.726-2.454,1.388a.345.345,0,0,0,.172.646l11.564-.041,5.888-9.9a.345.345,0,0,0-.453-.484l-2.979,1.519-2.823-4.987a6.211,6.211,0,0,0-5.565-3.15Z" transform="translate(-2601.136 -2472.369)" fill="#fff"/>
      </g>
    </g>
  </g>
</svg>
