<svg xmlns="http://www.w3.org/2000/svg" width="223.926" height="91.455" viewBox="0 0 223.926 91.455">
  <g id="Group_152921" data-name="Group 152921" transform="translate(-371.299 -238)">
    <g id="Group_152897" data-name="Group 152897" transform="translate(371.299 254.498)">
      <path id="Path_216291" data-name="Path 216291" d="M425.959,289.431l7.143,16.261,6.643,15.123,58.31-10.5c6.9-1.76,14.648-3.547,24.11-5.4l-1.989-4.239-1.385-2.953-12.368-26.352Z" transform="translate(-398.943 -271.379)" fill="#ffb85a"/>
      <path id="Path_216292" data-name="Path 216292" d="M436.609,319.878l.011.067.045.251.174.952.87,4.789.244,1.346.534,2.937.115.632.257,1.416,1.073,5.9.129.709.766,4.218h0l.009.057v0l.232,1.284h0l.148.817v0l.221,1.217.72,3.961h0c6.7-1.308,12.533-2.586,17.818-3.848,16.731-3.988,27.948-7.793,43.461-11.746,6.9-1.76,14.648-3.547,24.11-5.4l-1.989-4.239-69.229,17.219-.387.1-2.283-2.674c.075-.071.148-.143.22-.216.22-.213.434-.432.643-.654q-.479.133-.972.278c-.106.03-.211.061-.316.092l-.263-.307-.709-.832-1.509-1.767-1.994-2.334-.744-.871-3.854-4.514-.1-.121-.269-.314-.073-.249-.043-.147-.034-.117-.079.085c-.025.025-.048.05-.072.076L440.9,324.9l-.646-.757-1.912-2.237-1.016-1.191-.493-.578-.056-.065Z" transform="translate(-404.329 -295.907)" fill="#e2963b"/>
      <path id="Path_216293" data-name="Path 216293" d="M462.178,357.559q1.578-.521,3.029-.96c.326-.1.646-.2.962-.289l-.263-.307-.709-.832-1.509-1.767-1.356,3.733Z" transform="translate(-417.26 -312.862)" fill="#895731"/>
      <g id="Group_152889" data-name="Group 152889" transform="translate(26.491)" opacity="0.58">
        <path id="Path_216294" data-name="Path 216294" d="M433.733,298.881s1.7-2.695,9.106-4.058,8.615-3.4,15.455-4.353,3.289-2.141,14-3.518,12.086-3.542,18.76-4.271,5.342-2.352,10.595-2.788a34.781,34.781,0,0,0,7.642-1.264l-3.4-7.25L424.9,289.554Z" transform="translate(-424.897 -271.379)" fill="#e59033"/>
      </g>
      <g id="Group_152890" data-name="Group 152890" transform="translate(26.491)" opacity="0.73">
        <path id="Path_216295" data-name="Path 216295" d="M430.7,295.417a18.4,18.4,0,0,1,6.452-3.787c3.611-1.089,2.018-1.182,7.114-2.436s12.553-3.966,17.1-3.484,7.114-2.925,13.538-3.029,4.713-1.3,11.223-2.137,5.819-.568,10.492-2.108a67.508,67.508,0,0,1,11.53-2.249l-2.256-4.807L424.9,289.554Z" transform="translate(-424.897 -271.379)" fill="#d68630"/>
      </g>
      <path id="Path_216296" data-name="Path 216296" d="M371.3,314.4a29.647,29.647,0,0,0,6.814,17.8c8.051,9.762,9.729,10.212,17.395,12.1s11.064,1.306,13.624.806a3.382,3.382,0,0,0,.6-.179c1.935-.758,4.409-3.26,5.487-4.419.341-.368.541-.6.541-.6l-.156-.529-.267-.9-.428-1.448-.369-1.252-1.427-4.843-.314-1.064-.754-2.556-1.14-3.868-.142-.482-.073-.249-.043-.147-.034-.117-.079.085c-.025.025-.048.05-.072.076l-2.592-3.037-.646-.757-1.912-2.237-1.016-1.191-.493-.578-.056-.065-.169-.2-1.749-2.047-.511-.6-.9-1.058c-.035.007-.072.016-.112.023a5.444,5.444,0,0,1-.978.065c-.352,0-.763-.026-1.228-.074a5.248,5.248,0,0,1-2.726-1.259h0c-.1-.088-.2-.175-.291-.265l-.5.107-1.019.217-.042.009-.346.074-.779.166-4.328.923-1.213.259-2.469.526-1.13.242-3.949.842-1.35.288-2.386.509-.709.151-1.518.325Z" transform="translate(-371.299 -290.57)" fill="#e2963b"/>
      <path id="Path_216297" data-name="Path 216297" d="M436.778,320.076l-.169-.2.058.316.173.953.87,4.789.244,1.346.649,3.569.257,1.416,1.073,5.9.129.709.768,4.218.009.057v0l.233,1.284.148.818h0l.221,1.217.72,3.961c.2-.059.4-.118.6-.179a33.051,33.051,0,0,0,6.776-2.886l.109-.063a32.024,32.024,0,0,0,6.3-4.782l-2.283-2.674q.442-.423.863-.87-.632.176-1.289.371l-.263-.307-.709-.832-1.509-1.767-1.994-2.334-.744-.871-3.956-4.635-.269-.314-.15-.513c-.05.055-.1.109-.151.161L440.9,324.9l-.646-.757-2.927-3.428Z" transform="translate(-404.329 -295.907)" fill="#e2963b"/>
      <path id="Path_216298" data-name="Path 216298" d="M375.426,313.241c.045.269.092.538.144.808,3.509,18.608,18.826,29.568,34.167,26.535q.384-.076.763-.164.251-.056.5-.118c.336-.084.67-.174,1-.269.746-.218,1.478-.467,2.192-.748a24.963,24.963,0,0,0,2.279-1.022q.486-.244.958-.513a25.469,25.469,0,0,0,2.676-1.735,26.055,26.055,0,0,0,2.62-2.219c.075-.071.148-.143.22-.216.22-.213.434-.432.643-.654q-.479.133-.972.278c-.106.03-.211.061-.316.092l-.263-.307-.709-.832-1.509-1.767-1.994-2.334-.744-.871-3.854-4.514-.1-.121-.269-.314-.073-.249-.043-.147-.034-.117-.079.085c-.025.025-.048.05-.072.076l-2.592-3.037-.646-.757-1.912-2.237-1.016-1.191-.493-.578-.056-.065-.169-.2-1.749-2.047-.511-.6-.9-1.058-.293-.309-1.012-1.066-.424-.448-.367-.386,0-.007h0l-3.088.667-.1.021-1.571.34-.042.009-.346.074-.779.166-4.328.923-1.213.259-2.469.526-1.13.242-3.949.842-1.35.288-2.386.509-.709.151Z" transform="translate(-373.386 -289.85)" fill="#ffb85a"/>
      <g id="Group_152891" data-name="Group 152891" transform="translate(17.654 18.052)" opacity="0.58">
        <path id="Path_216299" data-name="Path 216299" d="M424.691,317.352s-2.4,2.229-7.5,1.634-8.089-1.416-8.523-3.689a38.414,38.414,0,0,0-1.648-5.385l9.362-2.009Z" transform="translate(-407.018 -307.902)" fill="#e59033"/>
      </g>
      <g id="Group_152892" data-name="Group 152892" transform="translate(15.552 20.25)">
        <path id="Path_216300" data-name="Path 216300" d="M402.765,312.609a15.878,15.878,0,0,0,.24,2.925q.09.518.23,1.078a18.045,18.045,0,0,0,1.122,3.159c2.555,5.585,7.931,4.763,13.545,4.471a7.35,7.35,0,0,0,2.3-.489q.325-.124.634-.278a9.37,9.37,0,0,0,2.946-2.378l-.646-.757a11.034,11.034,0,0,1-2.544,1.79,9.848,9.848,0,0,1-.922.412,11.315,11.315,0,0,1-5.167.682c-5.23-.462-9.174-2.863-10.181-6.83a8.141,8.141,0,0,1-.2-1.095,8.826,8.826,0,0,1-.053-1.066,16.352,16.352,0,0,0-.094-1.882Z" transform="translate(-402.764 -312.35)" fill="#e2963b"/>
      </g>
      <g id="Group_152893" data-name="Group 152893" transform="translate(21.872 18.054)" opacity="0.73">
        <path id="Path_216301" data-name="Path 216301" d="M415.552,309.015c.343,2.2,2.816,5.529,4.619,5.484s3.339-1.253,5.825-.632l-5.034-5.96Z" transform="translate(-415.552 -307.907)" fill="#d68630"/>
      </g>
      <g id="Group_152894" data-name="Group 152894" transform="translate(11.953 21.036)">
        <path id="Path_216302" data-name="Path 216302" d="M395.482,314.181c.136.592.308,1.219.514,1.9.112.37.216.721.316,1.057l.278.96c1,3.458,1.594,5.327,5.174,8.667,3.117,2.906,10.61,4.463,16.3,2.5.152-.052.3-.108.454-.167a11.571,11.571,0,0,0,2.524-1.331c.112-.079.221-.158.329-.241a9.487,9.487,0,0,0,1.769-1.753l.005-.006c.04-.054.083-.108.121-.163l-.269-.314-.073-.249-.043-.147-.034-.117-.079.085c-.025.025-.048.05-.072.076a6.446,6.446,0,0,1-.926.8c-.264.184-.558.377-.882.572-.117.073-.239.145-.364.217a21.279,21.279,0,0,1-2.581,1.266l-.137.056a15.775,15.775,0,0,1-9.832.98c-5.388-1.453-8.216-4.413-9.853-8.611a21.955,21.955,0,0,1-.755-2.313c-.087-.326-.169-.65-.24-.974a28.4,28.4,0,0,1-.511-2.991Z" transform="translate(-395.482 -313.939)" fill="#e2963b"/>
      </g>
      <g id="Group_152895" data-name="Group 152895" transform="translate(6.654 22.12)">
        <path id="Path_216303" data-name="Path 216303" d="M384.761,316.42c.159.816.35,1.619.566,2.4.081.3.169.594.258.886.267.873.565,1.717.884,2.522,2.986,7.56,8.2,16.135,22.356,15.463a27.62,27.62,0,0,0,3.506-.384c.1-.018.2-.036.3-.055.411-.079.815-.167,1.209-.262q1.03-.253,1.973-.585a18.425,18.425,0,0,0,3.846-1.858c.088-.058.176-.114.263-.173q.6-.4,1.147-.833a16.475,16.475,0,0,0,1.472-1.318l-.744-.871q-.558.589-1.15,1.108-.509.451-1.038.851l-.12.09a18.172,18.172,0,0,1-4,2.266,17.281,17.281,0,0,1-1.779.615c-.43.124-.855.225-1.274.309l-.168.034c-.126.024-.251.044-.375.066-7.415,1.212-17.195,1.25-23.474-13.5q-.719-1.691-1.244-3.254c-.127-.37-.244-.733-.353-1.091-.287-.937-.522-1.84-.712-2.71Z" transform="translate(-384.761 -316.132)" fill="#e2963b"/>
      </g>
      <g id="Group_152896" data-name="Group 152896" transform="translate(3.558 22.916)">
        <path id="Path_216304" data-name="Path 216304" d="M378.5,317.894c.094.6.189,1.175.282,1.708,1.219,7.072,5.656,18.171,17.2,22.147a32.9,32.9,0,0,0,15.349,1.667c.117-.016.234-.035.35-.053h0q.38-.06.757-.129a26.278,26.278,0,0,0,2.579-.613,24.8,24.8,0,0,0,2.43-.851c.375-.154.741-.316,1.1-.488a21.644,21.644,0,0,0,2.045-1.1,20.463,20.463,0,0,0,2.29-1.616c.239-.193.472-.393.7-.6l-.709-.832a20.175,20.175,0,0,1-2.865,1.966l-.362.2q-.705.382-1.467.726c-.351.16-.714.311-1.083.456a26.48,26.48,0,0,1-2.634.874,30.682,30.682,0,0,1-3.025.662h0l-.027,0c-.276.046-.557.089-.84.13a39.12,39.12,0,0,1-3.931.352c-19.616.808-25.765-14.236-27.433-24.763Z" transform="translate(-378.498 -317.743)" fill="#e2963b"/>
      </g>
      <path id="Path_216305" data-name="Path 216305" d="M450.687,335.867c-.05.055-.1.109-.151.161l.3.352Z" transform="translate(-411.372 -303.993)" fill="#7a4e2c"/>
      <path id="Path_216306" data-name="Path 216306" d="M469.327,344.776l3.166.188,69.616-17.316-1.386-2.953-70.513,17.6Z" transform="translate(-420.876 -298.343)" fill="#e2963b"/>
      <path id="Path_216307" data-name="Path 216307" d="M469,338.531s27.715-7.47,35.422-9.767,34.994-8.7,34.994-8.7l-.568-1.21s-13.782,3.007-23.031,5.763-21.192,5.7-27.958,7.224-6.533,1.059-12.238,3.268a71.523,71.523,0,0,1-7.33,2.587Z" transform="translate(-420.349 -295.391)" fill="#e2963b"/>
      <path id="Path_216308" data-name="Path 216308" d="M460.437,329.5s15.845-2.938,21-5.111,28.15-5.807,32.343-8.05,19.43-4.324,19.43-4.324l-.589-1.256s-8.074,1.591-12.532,2.5-5.633,2.144-10.653,3.224-16.527,3.633-22.115,5.023-6.876,2.212-11.488,3.382-6.614,1.814-9.208,2.347-6.93,1.4-6.93,1.4Z" transform="translate(-416.004 -291.297)" fill="#e2963b"/>
      <path id="Path_216309" data-name="Path 216309" d="M450.979,319.321s21.21-4.356,26.624-6.286,17.579-3.962,25.362-6.392,23.247-4.508,23.247-4.508l-.447-.953s-8.31,1.363-16.186,3.03-16.412,4.6-20.109,5.142S476.6,312.5,471.094,313.7s-20.558,4.79-20.558,4.79Z" transform="translate(-411.372 -286.452)" fill="#e2963b"/>
      <path id="Path_216310" data-name="Path 216310" d="M444.63,310.979s25.242-5.682,29.188-7.238,25.787-5.426,32.57-7.226,14.543-3.045,14.543-3.045l-.529-1.126s-11.581,2.594-18.973,4.221-23.1,5.3-28.815,6.585-10.625,2.115-15.564,3.326-13.066,3.746-13.066,3.746Z" transform="translate(-408.059 -281.982)" fill="#e2963b"/>
      <path id="Path_216311" data-name="Path 216311" d="M422.307,308.305c.191,1.17.547,1.2,1.589,1.828a5.693,5.693,0,0,0,2.754.513l-2.507-2.74Z" transform="translate(-397.096 -289.853)" fill="#aa5e2b"/>
      <path id="Path_216312" data-name="Path 216312" d="M427.793,307.239a2.67,2.67,0,0,1,1.949-2.072c1.825-.652,3.746-1.013,5.1-1.456a26.569,26.569,0,0,0,2.483-.955L426.02,305.3Z" transform="translate(-398.974 -287.248)" fill="#aa5e2b"/>
      <path id="Path_216313" data-name="Path 216313" d="M371.3,313.676a29.647,29.647,0,0,0,6.814,17.8c8.051,9.762,9.729,10.212,17.395,12.1s11.064,1.306,13.624.806h0c6.7-1.308,12.533-2.586,17.818-3.848l-2.97-3.388-.676-.773-2.334-2.661-.116-.132-.329-.376-.263-.3-.725-.826-3.563-4.065-.765-.872-3.941-4.5-.576-.657-.113-.131-.043-.048-2.608-2.974-.663-.757-1.952-2.225-1.031-1.177-.074-.083-.437-.5-.045-.053-.135-.154-1.844-2.1-.526-.6-.915-1.043-.254-.29-1.363-1.556-.343-.39-.03,0-3.088.667-.1.021-1.571.34-.042.009-.346.074-.779.166-4.328.923-1.213.259-2.469.526-1.13.242-3.949.842-1.35.288-2.386.509-.709.151-1.518.325Z" transform="translate(-371.299 -289.85)" fill="#9b501e" opacity="0.17" style="mix-blend-mode: multiply;isolation: isolate"/>
    </g>
    <path id="Path_216314" data-name="Path 216314" d="M468.1,319.979l-16.407-23.551,26.872-5.573-3.368,23,48.363-4.625L474.067,322.5Z" transform="translate(-40.656 -26.731)" fill="#843306" opacity="0.25" style="mix-blend-mode: multiply;isolation: isolate"/>
    <g id="Group_152906" data-name="Group 152906" transform="translate(405.225 266.529)">
      <path id="Path_216315" data-name="Path 216315" d="M537.35,316.856l7.763,15.974,7.221,14.856L610.2,334.952c6.826-2.024,14.5-4.109,23.885-6.32l-2.151-4.159-1.5-2.9L617.059,295.72Z" transform="translate(-510.576 -295.72)" fill="#ffb85a"/>
      <path id="Path_216316" data-name="Path 216316" d="M548.453,350.039l.014.066.055.249.211.945,1.054,4.752.3,1.335.647,2.915.139.627.311,1.4,1.3,5.859.156.7.928,4.185h0l.011.056v0l.281,1.274h0l.179.811h0l.268,1.208.872,3.93h0c6.64-1.565,12.424-3.067,17.656-4.531,16.565-4.629,27.627-8.864,42.976-13.411,6.826-2.024,14.5-4.109,23.885-6.32l-2.151-4.159-68.515,19.871-.384.111-2.384-2.583c.072-.074.142-.149.212-.224.212-.221.417-.449.617-.679-.315.1-.636.206-.961.316-.1.034-.209.069-.313.1l-.274-.3-.74-.8-1.576-1.708-2.082-2.256-.777-.842-4.025-4.362-.107-.117-.281-.3-.083-.246-.048-.145-.039-.115-.076.088-.069.079-2.708-2.935-.675-.732-2-2.161-1.061-1.151-.515-.559-.058-.062Z" transform="translate(-516.191 -323.191)" fill="#e2963b"/>
      <path id="Path_216317" data-name="Path 216317" d="M575.618,386.649q1.556-.581,2.989-1.076c.322-.111.638-.22.95-.325l-.274-.3-.74-.8-1.576-1.708-1.211,3.783Z" transform="translate(-529.93 -339.577)" fill="#895731"/>
      <g id="Group_152898" data-name="Group 152898" transform="translate(26.254)" opacity="0.58">
        <path id="Path_216318" data-name="Path 216318" d="M545.487,325.978s1.594-2.758,8.943-4.405,8.477-3.73,15.276-4.945,3.2-2.266,13.851-4.054,11.941-4,18.582-4.99,5.247-2.556,10.479-3.193a34.77,34.77,0,0,0,7.588-1.557l-3.679-7.113L536.3,317Z" transform="translate(-536.298 -295.72)" fill="#e59033"/>
      </g>
      <g id="Group_152899" data-name="Group 152899" transform="translate(26.254)" opacity="0.73">
        <path id="Path_216319" data-name="Path 216319" d="M542.32,322.634a18.4,18.4,0,0,1,6.3-4.033c3.566-1.227,1.971-1.259,7.015-2.709s12.391-4.446,16.949-4.139,7-3.2,13.412-3.547,4.659-1.483,11.132-2.567,5.794-.793,10.4-2.511a67.464,67.464,0,0,1,11.435-2.691l-2.44-4.717L536.3,317Z" transform="translate(-536.298 -295.72)" fill="#d68630"/>
      </g>
      <path id="Path_216320" data-name="Path 216320" d="M483.18,346.139a29.647,29.647,0,0,0,7.494,17.523c8.422,9.445,10.114,9.829,17.848,11.421s11.106.88,13.645.282a3.412,3.412,0,0,0,.592-.2c1.9-.832,4.281-3.428,5.314-4.627.326-.381.518-.619.518-.619l-.176-.522-.3-.894-.483-1.43-.417-1.238-1.613-4.784L525.246,360l-.853-2.526-1.288-3.821-.161-.477-.083-.246-.048-.145-.039-.115-.076.088-.069.079-2.708-2.935-.675-.732-2-2.161-1.061-1.151-.515-.56-.058-.062-.176-.192-1.826-1.978-.534-.578-.943-1.023-.11.028a5.481,5.481,0,0,1-.976.1c-.351.012-.763,0-1.23-.027a5.245,5.245,0,0,1-2.773-1.153h0c-.106-.084-.207-.167-.3-.254l-.5.126-1.01.257-.041.01-.344.087-.772.2-4.289,1.089-1.2.306-2.447.62-1.12.286-3.914.993-1.338.339-2.365.6-.7.178-1.5.383Z" transform="translate(-483.18 -318.193)" fill="#e2963b"/>
      <path id="Path_216321" data-name="Path 216321" d="M548.628,350.231l-.176-.192.071.313.209.947,1.054,4.752.3,1.335.786,3.541.311,1.4,1.3,5.859.156.7.93,4.185.011.057h0l.282,1.274.18.811h0l.268,1.208.872,3.93c.2-.067.394-.133.592-.2a33.041,33.041,0,0,0,6.661-3.145l.107-.067a31.99,31.99,0,0,0,6.109-5.022l-2.384-2.583q.425-.44.829-.9-.625.2-1.274.421l-.274-.3-.74-.8-1.576-1.708-2.082-2.256-.778-.842-4.132-4.479-.281-.3-.17-.507-.144.167-2.708-2.935-.674-.732-3.057-3.312Z" transform="translate(-516.191 -323.191)" fill="#e2963b"/>
      <path id="Path_216322" data-name="Path 216322" d="M487.27,344.78c.056.267.113.534.174.8,4.223,18.459,19.95,28.821,35.163,25.2q.381-.091.756-.193c.166-.044.33-.089.492-.137.333-.1.662-.2.989-.307.737-.246,1.459-.523,2.161-.831a24.847,24.847,0,0,0,2.237-1.109q.476-.263.938-.55a25.5,25.5,0,0,0,2.607-1.837,26.141,26.141,0,0,0,2.532-2.318c.072-.074.142-.149.212-.224.212-.221.417-.449.617-.679-.315.1-.636.206-.961.316-.1.034-.209.069-.313.1l-.274-.3-.74-.8-1.576-1.708-2.082-2.256-.777-.842-4.025-4.362-.107-.117-.281-.3-.083-.246-.048-.145-.039-.115-.076.088c-.024.026-.047.052-.069.079l-2.708-2.935-.675-.732-2-2.161-1.061-1.151-.515-.56-.058-.062-.176-.192-1.826-1.978-.534-.578-.943-1.023-.3-.3-1.052-1.026-.441-.431-.381-.371,0-.006h0l-3.06.784-.1.025-1.557.4-.041.01-.344.087-.772.2-4.289,1.089-1.2.306-2.447.62-1.12.286-3.914.993-1.338.339-2.365.6-.7.178Z" transform="translate(-485.248 -317.347)" fill="#ffb85a"/>
      <g id="Group_152900" data-name="Group 152900" transform="translate(17.497 21.136)" opacity="0.58">
        <path id="Path_216323" data-name="Path 216323" d="M536.527,347.606s-2.313,2.32-7.434,1.922-8.137-1.1-8.659-3.358a38.43,38.43,0,0,0-1.853-5.318l9.277-2.367Z" transform="translate(-518.58 -338.483)" fill="#e59033"/>
      </g>
      <g id="Group_152901" data-name="Group 152901" transform="translate(15.413 23.727)">
        <path id="Path_216324" data-name="Path 216324" d="M514.365,344.032a15.84,15.84,0,0,0,.352,2.913q.109.515.271,1.068a18.1,18.1,0,0,0,1.243,3.114c2.768,5.482,8.109,4.454,13.708,3.946a7.351,7.351,0,0,0,2.281-.577q.32-.137.622-.3a9.373,9.373,0,0,0,2.853-2.49l-.675-.732a11.053,11.053,0,0,1-2.473,1.887,9.952,9.952,0,0,1-.906.447,11.318,11.318,0,0,1-5.137.88c-5.244-.26-9.277-2.508-10.436-6.433a8.14,8.14,0,0,1-.24-1.087,8.858,8.858,0,0,1-.094-1.063,16.359,16.359,0,0,0-.167-1.877Z" transform="translate(-514.365 -343.726)" fill="#e2963b"/>
      </g>
      <g id="Group_152902" data-name="Group 152902" transform="translate(21.677 21.128)" opacity="0.73">
        <path id="Path_216325" data-name="Path 216325" d="M527.037,339.781c.427,2.182,3.027,5.417,4.826,5.3s3.288-1.38,5.8-.856l-5.259-5.762Z" transform="translate(-527.037 -338.466)" fill="#d68630"/>
      </g>
      <g id="Group_152903" data-name="Group 152903" transform="translate(11.846 24.654)">
        <path id="Path_216326" data-name="Path 216326" d="M507.147,345.886c.159.587.354,1.206.587,1.878q.188.546.356,1.043l.314.948c1.131,3.417,1.8,5.261,5.5,8.462,3.227,2.784,10.774,4.051,16.38,1.87.15-.058.3-.119.447-.183a11.576,11.576,0,0,0,2.472-1.427c.108-.082.215-.166.319-.254a9.493,9.493,0,0,0,1.7-1.819l0-.006c.039-.055.079-.111.115-.167l-.281-.3-.083-.246-.048-.145-.039-.115-.076.088-.069.079a6.471,6.471,0,0,1-.9.832c-.257.194-.543.4-.859.606-.114.078-.233.153-.356.231a21.315,21.315,0,0,1-2.53,1.365l-.134.062a15.775,15.775,0,0,1-9.787,1.358c-5.44-1.244-8.38-4.093-10.177-8.226a21.949,21.949,0,0,1-.843-2.282c-.1-.322-.194-.643-.278-.964a28.291,28.291,0,0,1-.625-2.969Z" transform="translate(-507.147 -345.6)" fill="#e2963b"/>
      </g>
      <g id="Group_152904" data-name="Group 152904" transform="translate(6.594 25.932)">
        <path id="Path_216327" data-name="Path 216327" d="M496.521,348.526c.19.81.412,1.6.658,2.374.092.3.191.587.292.876.3.862.631,1.693.98,2.486,3.274,7.44,8.816,15.808,22.935,14.591a27.587,27.587,0,0,0,3.489-.519l.3-.066c.408-.1.808-.2,1.2-.309q1.019-.292,1.949-.66a18.426,18.426,0,0,0,3.772-2.006c.086-.061.172-.12.256-.182q.58-.419,1.114-.877a16.529,16.529,0,0,0,1.421-1.374l-.778-.842q-.534.609-1.107,1.151-.491.469-1,.89l-.117.094a18.134,18.134,0,0,1-3.909,2.418,17.177,17.177,0,0,1-1.754.684q-.637.21-1.261.358l-.167.04c-.125.029-.249.054-.372.08-7.363,1.5-17.133,1.912-23.976-12.585q-.784-1.662-1.368-3.2c-.141-.365-.272-.723-.394-1.077-.323-.925-.593-1.818-.817-2.68Z" transform="translate(-496.521 -348.187)" fill="#e2963b"/>
      </g>
      <g id="Group_152905" data-name="Group 152905" transform="translate(3.526 26.872)">
        <path id="Path_216328" data-name="Path 216328" d="M490.314,350.266c.118.6.235,1.166.347,1.7,1.49,7.02,6.352,17.94,18.044,21.468a32.9,32.9,0,0,0,15.4,1.075c.116-.021.233-.044.347-.067h0q.378-.074.751-.158a26.342,26.342,0,0,0,2.554-.713,24.639,24.639,0,0,0,2.4-.944c.369-.168.728-.344,1.081-.529a21.737,21.737,0,0,0,2-1.178,20.42,20.42,0,0,0,2.227-1.7c.231-.2.457-.411.676-.623l-.74-.8a20.177,20.177,0,0,1-2.787,2.074l-.354.214q-.69.409-1.438.782c-.345.173-.7.338-1.065.5a26.243,26.243,0,0,1-2.6.975,30.459,30.459,0,0,1-3,.778h0l-.027.006q-.411.085-.834.161a39.165,39.165,0,0,1-3.915.5c-19.57,1.562-26.294-13.234-28.366-23.689Z" transform="translate(-490.314 -350.088)" fill="#e2963b"/>
      </g>
      <path id="Path_216329" data-name="Path 216329" d="M563.142,365.469l-.144.167.314.34Z" transform="translate(-523.547 -330.995)" fill="#7a4e2c"/>
      <path id="Path_216330" data-name="Path 216330" d="M582.9,370.848l3.171.065,68.9-19.983-1.5-2.9-69.784,20.3Z" transform="translate(-533.61 -322.177)" fill="#e2963b"/>
      <path id="Path_216331" data-name="Path 216331" d="M582.275,364.653s27.407-8.531,35.02-11.123,34.634-10.036,34.634-10.036l-.615-1.188s-13.656,3.535-22.792,6.645-20.957,6.509-27.659,8.3-6.487,1.309-12.1,3.736a71.59,71.59,0,0,1-7.225,2.868Z" transform="translate(-532.922 -319.28)" fill="#e2963b"/>
      <path id="Path_216332" data-name="Path 216332" d="M573.338,355.869s15.72-3.546,20.786-5.915,27.9-6.886,32.009-9.29,19.249-5.069,19.249-5.069l-.638-1.232s-8.006,1.9-12.427,2.977-5.547,2.36-10.521,3.631-16.375,4.267-21.906,5.871-6.785,2.475-11.349,3.822-6.54,2.068-9.111,2.7-6.871,1.663-6.871,1.663Z" transform="translate(-528.384 -315.263)" fill="#e2963b"/>
      <path id="Path_216333" data-name="Path 216333" d="M563.473,345.967s21.027-5.17,26.362-7.306,17.414-4.636,25.1-7.364,23.057-5.4,23.057-5.4l-.484-.935s-8.252,1.682-16.058,3.651-16.222,5.232-19.9,5.912-12.737,3.638-18.2,5.045S563,345.15,563,345.15Z" transform="translate(-523.547 -310.509)" fill="#e2963b"/>
      <path id="Path_216334" data-name="Path 216334" d="M556.829,337.829s25-6.649,28.888-8.356,25.559-6.414,32.268-8.475,14.415-3.6,14.415-3.6l-.572-1.105s-11.472,3.038-18.8,4.949-22.874,6.188-28.54,7.689-10.535,2.523-15.424,3.922-12.912,4.246-12.912,4.246Z" transform="translate(-520.086 -306.124)" fill="#e2963b"/>
      <path id="Path_216335" data-name="Path 216335" d="M533.732,338.954c.236,1.161.593,1.181,1.658,1.766a5.691,5.691,0,0,0,2.771.407l-2.611-2.641Z" transform="translate(-508.746 -317.348)" fill="#aa5e2b"/>
      <path id="Path_216336" data-name="Path 216336" d="M539.258,337.3a2.67,2.67,0,0,1,1.868-2.146c1.8-.722,3.7-1.157,5.042-1.651a26.547,26.547,0,0,0,2.444-1.051l-11.2,2.979Z" transform="translate(-510.607 -314.299)" fill="#aa5e2b"/>
      <path id="Path_216337" data-name="Path 216337" d="M483.18,345.293a29.647,29.647,0,0,0,7.494,17.523c8.422,9.445,10.114,9.829,17.848,11.421s11.106.88,13.645.282v0c6.64-1.565,12.424-3.067,17.656-4.531l-3.1-3.271-.705-.747-2.435-2.569-.121-.128-.344-.363-.275-.291-.756-.8-3.717-3.925-.8-.842-4.111-4.341-.6-.635-.118-.126-.044-.046-2.72-2.871-.691-.731-2.036-2.148-1.076-1.137-.077-.08-.456-.481-.047-.051-.141-.149-1.923-2.032-.55-.579-.954-1.007-.265-.28-1.422-1.5-.357-.377h-.03l-3.06.784-.1.025-1.557.4-.041.01-.344.087-.772.2-4.289,1.089-1.2.306-2.447.62-1.12.286-3.914.993-1.338.339-2.365.6-.7.178-1.5.383Z" transform="translate(-483.18 -317.347)" fill="#9b501e" opacity="0.17" style="mix-blend-mode: multiply;isolation: isolate"/>
    </g>
    <g id="Group_152911" data-name="Group 152911" transform="translate(415.293 238)">
      <path id="Path_216338" data-name="Path 216338" d="M585.365,244.848l-1.034,1.539h0l-.176.262-.4.592-1.751,2.6-.8,1.2-.763,1.134,0,0-1.971,2.933h0l0,0-1.06,1.578-1.7,2.521-.2.3-.585.871h0l-1.686,2.51h0l-1.407,2.094-1.994,2.966-.976,1.45-1.229,1.83,0,0-.013-.039-2.044.474a.279.279,0,0,0-.039.009l-22.031,5.1s-.006,0-.011,0l-34.189,7.923-.948.219-35.891,8.32-1.391-3.7-1.06-2.82-.267-.709-1.71-4.548,0-.011,0-.006-.364-.971-1.461-3.884-.317-.841-1.116-2.97-.254-.672-.913-2.43,0-.011-.013-.03-.295-.789-1-2.664-.4-1.053-.512-1.357-.375-1-.189-.505-.5-1.325.013,0c.017,0,.048-.013.1-.024l.072-.015,90.068-20.723,4.955-1.14-.039-.109a45.07,45.07,0,0,1,10.5-.923c1.015.026,2.07.087,3.152.2a36.485,36.485,0,0,1,4.121.644c.362.08.727.163,1.09.256.462.119.906.236,1.331.36q1.168.338,2.161.693c.466.167.9.336,1.318.508.091.037.177.076.266.113h0c.1.043.2.086.3.13.263.115.51.23.748.345a20.032,20.032,0,0,1,1.773.951l.109.065c.041.026.083.05.121.074.07.045.137.087.2.13.412.267.768.52,1.073.757l.165.132a9.865,9.865,0,0,1,.745.659c.024.022.046.045.067.067l.067.067a5.008,5.008,0,0,1,.568.67s0,.008.007.011Z" transform="translate(-460.31 -238)" fill="#ffb85a"/>
      <path id="Path_216339" data-name="Path 216339" d="M490.2,289.385l-1.217,1.808-16.529,24.579-11.167-29.694-.979-2.6a44.49,44.49,0,0,1,18.864.175c6.321,1.6,9.237,3.834,10.387,4.986a4.884,4.884,0,0,1,.638.745Z" transform="translate(-460.309 -260.524)" fill="#ffb85a"/>
      <path id="Path_216340" data-name="Path 216340" d="M466.268,286.377a17.335,17.335,0,0,1,8.106-2.089c4.636-.008,3.614.213,7.2,1.81s3.742,1.879,4.418,2.669,2.39,2.779,2.39,2.779a68.74,68.74,0,0,0,11.05-1.687c6.911-1.531,11.794-2.744,18.206-2.963s7.471-2,12.435-2.6,10.985-4.183,17.479-4.873,7.728-.735,13.6-1.737,7.8-3.063,10.643-3.137,9.681-1.93,9.681-1.93l-1.062,1.579s-4.663.629-8.283,1.2-5.925,2.172-10.531,3.19a92.86,92.86,0,0,1-13.138,1.9c-5.126.454-11.02,3.792-16.422,4.614s-10.108,3.225-15.436,3.14-8.8.923-15.353,2.29a125.118,125.118,0,0,1-13.44,1.926s-3.769-4.334-6.309-5.434-2.93-1.654-6.359-1.759a16.183,16.183,0,0,0-6.15.742,7.209,7.209,0,0,0-2.389,1.179Z" transform="translate(-463.323 -255.508)" fill="#e2963b"/>
      <path id="Path_216341" data-name="Path 216341" d="M468.8,293.818s4.848-3.008,8.824-2.609,5.1,1.816,7.209,4.119a28.163,28.163,0,0,0,3.072,3.035s.528.19,9.8-1,11.068-1.872,19.809-2.9,13.285-2.347,22.024-4.963,9.172-3.058,16.484-3.769,12-3.086,17.023-3.852,6.951-.958,6.951-.958l-.784,1.166a111.288,111.288,0,0,1-12.694,2.481c-8.5,1.276-9.656,2.13-15.806,3.936s-10.368,1.855-17.112,3.824a136.176,136.176,0,0,1-17.787,3.728c-4.12.458-16.132,2.135-20.883,2.794s-7.892.8-7.892.8a7.644,7.644,0,0,0-3.666-4.7c-3.039-1.682-3.01-3.184-6.691-2.844a24.508,24.508,0,0,0-7.631,2.387Z" transform="translate(-464.604 -259.705)" fill="#e2963b"/>
      <path id="Path_216342" data-name="Path 216342" d="M490.373,316.82s3.477,1.141,8.7-.925,18.481-3.987,23.954-4.107,20.609-3.937,25.826-5.377,16.008-3.28,16.008-3.28,1.669-1.257,5.918-1.978,7.837-1.879,9.363-1.638,1.917-.342,1.917-.342l-2.012,2.994-95.169,22.019Z" transform="translate(-472.737 -268.938)" fill="#9b501e" opacity="0.17" style="mix-blend-mode: multiply;isolation: isolate"/>
      <path id="Path_216343" data-name="Path 216343" d="M585.378,244.848l0,0-.041.008-.035.009c-2.059.5-42.528,10.275-58.239,14.192-15.746,3.923-35.875,7.624-36.81,7.795a.037.037,0,0,1-.015,0l-.02,0,0,0a30.347,30.347,0,0,0-6.274-3.368h0c-.158-.063-.319-.126-.477-.186l-.006,0a39.852,39.852,0,0,0-6.475-1.829h0a50.755,50.755,0,0,0-7.752-.889h0a51,51,0,0,0-8.883.367c.017,0,.048-.013.1-.024l.072-.015,90.068-20.723,4.955-1.14-.039-.109a45.07,45.07,0,0,1,10.5-.923c1.015.026,2.07.087,3.152.2a36.489,36.489,0,0,1,4.121.644c.362.08.727.163,1.09.256.462.119.906.236,1.331.36q1.168.338,2.161.693c.466.167.9.336,1.318.508.091.037.177.076.266.113h0c.1.043.2.086.3.13.262.115.51.23.748.345a20.026,20.026,0,0,1,1.773.951c.037.022.074.043.109.065s.083.05.121.074c.07.045.137.087.2.13.412.267.768.52,1.073.757l.165.132a9.867,9.867,0,0,1,.745.659c.024.022.046.045.067.067l.067.067a5,5,0,0,1,.568.67s0,.008.007.011Z" transform="translate(-460.323 -238)" fill="#75411d"/>
      <path id="Path_216344" data-name="Path 216344" d="M489.758,319.1a4.5,4.5,0,0,0,3.737,1.106c2.4-.31,3.666-.853,7.709-1.577s2.264-.589,10.366-1.954,9.128-1.426,14.621-2.271,8.83-.657,11.416-1.807,17.523-5.027,21.432-5.744,4.257-1.346,9.454-2.088,5.137-.5,7.37-1.285a48.554,48.554,0,0,1,5.233-1.4l-1.045,1.556-95.169,22.019Z" transform="translate(-472.737 -270.409)" fill="#9b501e" opacity="0.17" style="mix-blend-mode: multiply;isolation: isolate"/>
      <path id="Path_216345" data-name="Path 216345" d="M479.382,333.906c1.932-.89,2.222-1.612,4.252-.977a11.59,11.59,0,0,1,3.342,1.654l-4.875,6.552Z" transform="translate(-469.955 -285.888)" fill="#9b501e" opacity="0.17" style="mix-blend-mode: multiply;isolation: isolate"/>
      <g id="Group_152907" data-name="Group 152907" transform="translate(8.896 11.511)" opacity="0.83">
        <path id="Path_216346" data-name="Path 216346" d="M478.307,272.361c29.111-6.74,59.714-14.464,42.8-9.484S484.2,273.4,499.863,271.74s-6.839,3.529-6.839,3.529Z" transform="translate(-478.307 -261.289)" fill="#603117"/>
      </g>
      <path id="Path_216347" data-name="Path 216347" d="M461.881,287.473c3.86-1.565,10.816-1.757,13.455-1.138s6.51,1.5,9.2,3.222a31.143,31.143,0,0,1,4.5,3.482l1.1-1.637s-6.343-5.286-9.646-5.9-13.469-.692-15.265-.634a11.519,11.519,0,0,0-3.913,1.1Z" transform="translate(-460.818 -261.694)" fill="#e08d32"/>
      <path id="Path_216348" data-name="Path 216348" d="M476.326,326.449c1.948-1.078,3.6-.321,5.763,0s2.416.954,2.734,1.5,1.223,2.387,1.223,2.387l-5.49,7.366Z" transform="translate(-468.409 -282.45)" fill="#9b501e" opacity="0.17" style="mix-blend-mode: multiply;isolation: isolate"/>
      <path id="Path_216349" data-name="Path 216349" d="M490.2,289.385l-.925,1.375a62.522,62.522,0,0,0-5.447-3.6c-3.033-1.775-5.016-2.33-10.136-3.106S461,285.3,461,285.3l-.687-1.828a44.49,44.49,0,0,1,18.864.175c6.321,1.6,9.237,3.834,10.387,4.986l.638.745Z" transform="translate(-460.309 -260.524)" fill="#aa5e2b"/>
      <path id="Path_216350" data-name="Path 216350" d="M518.915,275.242s22.046-4.782,43.247-9.163,51.233-11.831,51.233-11.831l1.61-2.394L519.84,273.868Z" transform="translate(-489.948 -245.007)" fill="#aa5e2b"/>
      <path id="Path_216351" data-name="Path 216351" d="M488.291,298.075a16.985,16.985,0,0,0-5.954-5.2c-3.712-1.825-2.521-.746-7.317-2.03s-11.132,1.325-11.132,1.325l-.4-1.056s7.455-2.537,12.363-1.486,4.559.49,8,3.146a57.421,57.421,0,0,0,5.43,3.814Z" transform="translate(-461.918 -263.984)" fill="#e2963b"/>
      <path id="Path_216352" data-name="Path 216352" d="M513.635,284.21s-.616.746,3.5-.248,8.413-1.344,16.406-3.651,6.58-2.073,14.062-2.5,11.039-2.9,19.546-5.019,9.537-1.2,14.463-2.725a73.021,73.021,0,0,1,13.174-3.274c6.675-1.1,12.606-2.5,12.606-2.5l1.567-2.331s-12.289,3.165-18.835,4.454-7.206,2.789-17.263,4.028-16.58,5.58-28.195,6.487S531.929,280,526.31,281.223a80.89,80.89,0,0,1-11.679,1.505Z" transform="translate(-487.261 -250.119)" fill="#e2963b"/>
      <path id="Path_216353" data-name="Path 216353" d="M471.572,301.221a9.158,9.158,0,0,1,7.934-2.235c4.769.97,4.275,1.318,5.851,3.121a7.82,7.82,0,0,1,1.825,3.76s6.6-1.478,11.645-2.432,13.305-.386,21.668-1.7,10.995-2.325,21.306-4.758,20.915-5.718,26.159-6.285a68.231,68.231,0,0,0,10.971-2.341l-1.411,2.1s-4.439.718-8.592,1.024-7.635,1.482-12.7,2.764-13.109,4.308-22.35,5.718-10.77,2.98-18.47,3.581-14.08.054-19.082,1.239-9.593,2.427-9.593,2.427-.019-4.888-3.531-6.225-4.147-1.17-6.773-.967a8.157,8.157,0,0,0-4.538,2.051Z" transform="translate(-466.005 -263.465)" fill="#e2963b"/>
      <path id="Path_216354" data-name="Path 216354" d="M475.025,309.727a7.746,7.746,0,0,1,3.473-1.875,6.27,6.27,0,0,1,4.39.593c1.414.575,2.885,1.408,3.409,2.548s.861,1.95.861,1.95,4.017-.834,8.738-1.423,4.985-.748,12.979-2.147,13.638-1.226,20.02-2.869,18.263-3.961,26.027-6.075,11.691-3.142,15.283-3.506,8.03-1.226,8.03-1.226l-.965,1.432a67.669,67.669,0,0,0-14.354,2.05c-8.166,2.019-15.97,3.911-20.552,4.957s-18.567,5.028-26.02,5.236-24.069,3.567-26.4,4.253-3.176,1.027-3.176,1.027-.508-3.136-2.119-4.143a9.7,9.7,0,0,0-4.7-1.657,5.351,5.351,0,0,0-3.364,1c-.183.1-1.115.8-1.115.8Z" transform="translate(-467.751 -267.179)" fill="#e2963b"/>
      <path id="Path_216355" data-name="Path 216355" d="M482.067,336.891c2.672-.857,3.456.054,3.546.966s1.1.815,1.1.815,7.137-1.585,10.05-2.042,11.45-2.963,17.4-3.663a51.821,51.821,0,0,0,8.029-1.35l-38.736,8.978Z" transform="translate(-471.313 -285.345)" fill="#aa5e2b"/>
      <path id="Path_216356" data-name="Path 216356" d="M517.4,277.927s26.437-6.444,31.837-6.879,17.23-4.363,33.948-7.93,28.769-6.294,28.769-6.294l1.248-1.854s-23.67,5.581-33.194,7.891c-11.7,2.838-38.825,8.584-48.469,10.866s-13.392,3.092-13.392,3.092Z" transform="translate(-489.184 -246.582)" fill="#e08d32"/>
      <g id="Group_152908" data-name="Group 152908" transform="translate(39.364)" opacity="0.83">
        <path id="Path_216357" data-name="Path 216357" d="M619.693,240.788c-2.211.509-4.769,1.094-7.583,1.736-.678.156-1.374.314-2.083.476l-.013,0c-2.389.544-4.931,1.123-7.584,1.725-20.091,4.552-46.4,10.4-58.248,12.525-7.936,1.424-3.809.206,5-2.083a.02.02,0,0,0,.011,0l.029-.006a.49.49,0,0,1,.05-.013c1.7-.44,3.564-.921,5.551-1.428h0l2.536-.646h0c2.909-.743,6.009-1.53,9.159-2.332,3.039-.774,6.124-1.563,9.124-2.337,6.527-1.686,12.657-3.312,17.064-4.589l.008,0c1.682-.49,3.113-.928,4.219-1.3,13.254-4.455-12.529,2.233-29.433,5.53-13.095,2.554,5.1-2.519,23.333-7.858l4.955-1.14-.038-.109a45.069,45.069,0,0,1,10.5-.923c1.015.026,2.07.087,3.152.2a36.489,36.489,0,0,1,4.121.644c.362.08.727.163,1.09.256.462.119.906.236,1.331.36q1.168.338,2.161.693c.466.167.9.336,1.318.508C619.517,240.712,619.6,240.751,619.693,240.788Z" transform="translate(-539.952 -238)" fill="#603117"/>
      </g>
      <g id="Group_152909" data-name="Group 152909" transform="translate(69.084 4.28)" opacity="0.26" style="mix-blend-mode: screen;isolation: isolate">
        <path id="Path_216358" data-name="Path 216358" d="M655.477,248.544c-10.3,2.059-34.078,6.745-50.732,9.54-19.447,3.263,26.868-6.359,48.291-11.425a15.388,15.388,0,0,1,1.4.96A10.556,10.556,0,0,1,655.477,248.544Z" transform="translate(-600.082 -246.659)" fill="#995f34"/>
      </g>
      <g id="Group_152910" data-name="Group 152910" transform="translate(32.286 17.428)" opacity="0.26" style="mix-blend-mode: screen;isolation: isolate">
        <path id="Path_216359" data-name="Path 216359" d="M528.007,280.766c10.05-3.626,4.927-3.437,12.406-4.452s22.24-4.912,12.227-1.982-16,5.726-21.776,7.362S524.035,282.2,528.007,280.766Z" transform="translate(-525.632 -273.26)" fill="#995f34"/>
      </g>
      <path id="Path_216360" data-name="Path 216360" d="M502.629,273.868l95.165-22.013-17.745,26.386-95.165,22.013Z" transform="translate(-472.738 -245.007)" fill="#9b501e" opacity="0.17" style="mix-blend-mode: multiply;isolation: isolate"/>
      <path id="Path_216361" data-name="Path 216361" d="M558.626,261.121c10.9-1.1,7.341-4.208,17.349-4.431s26.186-6.927,26.186-6.927-12.232,3.949-17.061,4.588-13.246,1.045-15.669,1.993-3.035,2.726-5.165,3.325S558.626,261.121,558.626,261.121Z" transform="translate(-510.032 -243.95)" fill="#4f2e18"/>
      <path id="Path_216362" data-name="Path 216362" d="M510.458,274.866c1.579-2.1,5.753-2.315,8.944-2.743s-.438-1.341,4.332-2.075a34.279,34.279,0,0,0,8.517-2.511A46.962,46.962,0,0,1,524.5,269.3c-3.2.31-3.358,1.711-5.181,2.288s-3.19.308-5.732,1.035C510.458,273.521,510.458,274.866,510.458,274.866Z" transform="translate(-485.671 -252.938)" fill="#4f2e18"/>
    </g>
    <path id="Path_216363" data-name="Path 216363" d="M645.555,325.595l-2.816-4.351-73.671,17.182a26.826,26.826,0,0,0,.874,7.049s1.174,9.868,7.084,17.069l12.038-4.318-11.549-7.7Z" transform="translate(-100.02 -42.1)" fill="#843306" opacity="0.25" style="mix-blend-mode: multiply;isolation: isolate"/>
    <path id="Path_216364" data-name="Path 216364" d="M683.109,243.136c-2.12.542-4.7,1.207-6.726,1.749-3.369.9-8.8,1.754-10.841,2.062l-.8.117c.223-.061,3.847-1.038,8.382-1.843l.013,0a20.332,20.332,0,0,0,2.083-.476,61.842,61.842,0,0,0,6-2.357c.466.167.9.336,1.318.508.091.037.177.076.266.113h0C682.909,243.049,683.011,243.093,683.109,243.136Z" transform="translate(-148.407 -2.218)" fill="#684025"/>
    <g id="Group_152920" data-name="Group 152920" transform="translate(471.672 266.619)">
      <path id="Path_216365" data-name="Path 216365" d="M627.463,322.5l8.85,15.4,8.231,14.321,56.843-16.7c6.669-2.491,14.181-5.1,23.391-7.956l-2.434-4-1.7-2.787L705.519,295.9Z" transform="translate(-601.224 -295.903)" fill="#ffb85a"/>
      <path id="Path_216366" data-name="Path 216366" d="M639.338,356.119l.019.065.071.244.276.928,1.38,4.668.387,1.312.847,2.863.182.616.408,1.379,1.7,5.755.205.691,1.215,4.111h0l.015.056,0,0,.368,1.251h0l.235.8v0l.351,1.186,1.142,3.861h0c6.517-2.021,12.183-3.918,17.3-5.741,16.2-5.764,26.948-10.753,41.946-16.351,6.669-2.491,14.182-5.1,23.391-7.956l-2.434-4-66.977,24.562-.375.137-2.557-2.412c.067-.079.132-.159.2-.239.2-.235.385-.476.569-.719q-.462.185-.937.381l-.3.126-.295-.277-.794-.751-1.69-1.595-2.233-2.107-.834-.786-4.316-4.073-.115-.109-.3-.283-.1-.24-.059-.141-.046-.112-.07.093c-.022.028-.043.055-.063.083l-2.9-2.741-.723-.683-2.141-2.019-1.138-1.074-.553-.522-.062-.058Z" transform="translate(-607.23 -324.202)" fill="#e2963b"/>
      <path id="Path_216367" data-name="Path 216367" d="M669.268,395.026q1.513-.687,2.908-1.28c.314-.133.621-.264.926-.39l-.295-.277-.794-.751-1.69-1.595-.947,3.857Z" transform="translate(-622.367 -343.862)" fill="#895731"/>
      <g id="Group_152912" data-name="Group 152912" transform="translate(25.73)" opacity="0.58">
        <path id="Path_216368" data-name="Path 216368" d="M636.222,331s1.4-2.862,8.617-5.013,8.2-4.307,14.9-5.99,3.04-2.482,13.537-5,11.635-4.821,18.192-6.263,5.058-2.913,10.234-3.911a34.789,34.789,0,0,0,7.462-2.078L705,295.9l-78.565,26.776Z" transform="translate(-626.434 -295.903)" fill="#e59033"/>
      </g>
      <g id="Group_152913" data-name="Group 152913" transform="translate(25.73)" opacity="0.73">
        <path id="Path_216369" data-name="Path 216369" d="M632.831,327.885a18.385,18.385,0,0,1,6.007-4.459c3.472-1.471,1.879-1.392,6.811-3.187s12.053-5.293,16.621-5.3,6.759-3.672,13.134-4.466,4.545-1.8,10.928-3.331,5.725-1.191,10.2-3.225a67.485,67.485,0,0,1,11.222-3.475L705,295.9l-78.565,26.776Z" transform="translate(-626.434 -295.903)" fill="#d68630"/>
      </g>
      <path id="Path_216370" data-name="Path 216370" d="M574.376,359.434a29.648,29.648,0,0,0,8.689,16.963c9.054,8.84,10.769,9.106,18.595,10.16s11.14.109,13.632-.663a3.368,3.368,0,0,0,.577-.243c1.842-.962,4.033-3.715,4.981-4.984.3-.4.474-.654.474-.654l-.212-.509-.362-.87-.581-1.393-.5-1.205-1.94-4.661-.427-1.024-1.025-2.46-1.549-3.723-.194-.464-.1-.24-.059-.141-.046-.112-.07.093c-.022.028-.042.055-.063.083l-2.9-2.741-.723-.683-2.141-2.019-1.138-1.074-.553-.522-.062-.058-.189-.179-1.958-1.847-.572-.54-1.011-.955c-.034.011-.07.024-.108.035a5.461,5.461,0,0,1-.966.17c-.35.036-.762.056-1.229.058a5.249,5.249,0,0,1-2.846-.958h0c-.112-.077-.218-.153-.317-.233l-.488.16-.99.326-.04.013-.337.111-.757.249-4.2,1.382-1.178.388-2.4.788-1.1.363-3.836,1.261-1.311.431-2.318.763-.689.226-1.475.486Z" transform="translate(-574.376 -324.19)" fill="#e2963b"/>
      <path id="Path_216371" data-name="Path 216371" d="M639.527,360.657l-.189-.179.092.308.274.93,1.38,4.668.387,1.312,1.029,3.479.408,1.379,1.7,5.755.2.691,1.217,4.111.015.056h0l.37,1.251.235.8h0L647,386.4l1.142,3.861c.194-.08.385-.16.577-.243a33.059,33.059,0,0,0,6.427-3.6l.1-.074A31.986,31.986,0,0,0,661,380.918l-2.557-2.412q.394-.469.765-.958-.609.244-1.242.508l-.295-.277-.794-.751-1.69-1.595-2.233-2.107-.834-.786-4.432-4.182-.3-.283-.2-.494c-.044.06-.09.119-.133.176l-2.9-2.741-.723-.683-3.279-3.093Z" transform="translate(-607.23 -328.561)" fill="#e2963b"/>
      <path id="Path_216372" data-name="Path 216372" d="M578.384,357.711c.074.263.15.525.23.787,5.489,18.123,21.9,27.373,36.822,22.709.249-.078.5-.159.741-.245.162-.055.323-.111.481-.171q.488-.179.965-.375,1.078-.445,2.1-.979,1.113-.579,2.156-1.261.456-.3.9-.613a25.6,25.6,0,0,0,2.473-2.012,26.121,26.121,0,0,0,2.366-2.488c.067-.079.132-.159.2-.239.2-.235.385-.476.569-.719q-.462.185-.937.381l-.3.126-.295-.277-.794-.751-1.69-1.595-2.233-2.107-.834-.786-4.316-4.073-.115-.109-.3-.283-.1-.24-.059-.141-.046-.112-.07.093c-.022.028-.043.055-.063.083l-2.9-2.741-.723-.683-2.141-2.019-1.138-1.074-.553-.522-.062-.058-.189-.179-1.958-1.847-.572-.54-1.011-.955-.324-.276-1.121-.951-.47-.4-.406-.345,0-.006h0l-3,.994-.094.032-1.525.507-.04.013-.337.111-.757.249-4.2,1.382-1.178.389-2.4.788-1.1.363-3.836,1.261-1.311.431-2.318.763-.689.226Z" transform="translate(-576.403 -323.119)" fill="#ffb85a"/>
      <g id="Group_152914" data-name="Group 152914" transform="translate(17.147 26.598)" opacity="0.58">
        <path id="Path_216373" data-name="Path 216373" d="M627.44,358.218s-2.147,2.474-7.283,2.431-8.194-.538-8.87-2.752a38.485,38.485,0,0,0-2.217-5.177l9.092-3Z" transform="translate(-609.069 -349.717)" fill="#e59033"/>
      </g>
      <g id="Group_152915" data-name="Group 152915" transform="translate(15.106 29.886)">
        <path id="Path_216374" data-name="Path 216374" d="M604.938,356.758a15.9,15.9,0,0,0,.553,2.882q.145.506.344,1.047a18.078,18.078,0,0,0,1.456,3.02c3.141,5.278,8.4,3.883,13.948,2.988a7.354,7.354,0,0,0,2.236-.733q.31-.159.6-.345a9.366,9.366,0,0,0,2.673-2.681l-.723-.683a11.058,11.058,0,0,1-2.337,2.053,9.877,9.877,0,0,1-.873.509,11.316,11.316,0,0,1-5.064,1.233c-5.25.1-9.429-1.86-10.856-5.7a8.064,8.064,0,0,1-.314-1.067,8.837,8.837,0,0,1-.167-1.054,16.358,16.358,0,0,0-.3-1.86Z" transform="translate(-604.938 -356.369)" fill="#e2963b"/>
      </g>
      <g id="Group_152916" data-name="Group 152916" transform="translate(21.244 26.571)" opacity="0.73">
        <path id="Path_216375" data-name="Path 216375" d="M617.358,351.346c.577,2.147,3.394,5.195,5.181,4.955s3.185-1.6,5.724-1.254l-5.645-5.384Z" transform="translate(-617.358 -349.663)" fill="#d68630"/>
      </g>
      <g id="Group_152917" data-name="Group 152917" transform="translate(11.61 31.062)">
        <path id="Path_216376" data-name="Path 216376" d="M597.865,359.112c.2.574.437,1.179.715,1.832q.225.532.428,1.016t.379.924c1.365,3.331,2.157,5.125,6.076,8.061,3.411,2.555,11.029,3.3,16.471.733.146-.068.292-.139.433-.214a11.566,11.566,0,0,0,2.367-1.595c.1-.09.2-.181.3-.275a9.479,9.479,0,0,0,1.571-1.933l0-.006c.035-.058.071-.116.1-.174l-.3-.283-.1-.24-.059-.141-.046-.112-.07.093c-.022.028-.042.055-.063.083a6.45,6.45,0,0,1-.835.893c-.242.211-.514.434-.815.664-.109.086-.222.17-.339.255a21.322,21.322,0,0,1-2.43,1.537c-.042.024-.087.048-.13.071a15.775,15.775,0,0,1-9.669,2.031c-5.513-.865-8.643-3.5-10.721-7.5a21.911,21.911,0,0,1-1-2.219c-.122-.314-.237-.628-.344-.942a28.375,28.375,0,0,1-.829-2.919Z" transform="translate(-597.865 -358.749)" fill="#e2963b"/>
      </g>
      <g id="Group_152918" data-name="Group 152918" transform="translate(6.462 32.686)">
        <path id="Path_216377" data-name="Path 216377" d="M587.451,362.466c.246.795.522,1.572.82,2.323.113.288.232.572.352.854.359.839.747,1.646,1.15,2.412,3.781,7.194,9.887,15.16,23.889,12.969a27.579,27.579,0,0,0,3.444-.759l.292-.086c.4-.123.793-.254,1.174-.391.664-.241,1.3-.507,1.9-.794a18.411,18.411,0,0,0,3.624-2.261c.082-.067.163-.132.243-.2q.549-.457,1.05-.951a16.6,16.6,0,0,0,1.322-1.468l-.834-.786q-.491.645-1.025,1.225-.457.5-.94.957l-.11.1a18.163,18.163,0,0,1-3.732,2.682,17.013,17.013,0,0,1-1.7.8c-.414.17-.825.316-1.233.445l-.164.052c-.122.037-.244.071-.365.105-7.242,2-16.961,3.092-24.79-10.9q-.9-1.6-1.586-3.1c-.167-.354-.322-.7-.469-1.047q-.578-1.352-1-2.617Z" transform="translate(-587.451 -362.035)" fill="#e2963b"/>
      </g>
      <g id="Group_152919" data-name="Group 152919" transform="translate(3.456 33.879)">
        <path id="Path_216378" data-name="Path 216378" d="M581.368,364.675c.159.59.315,1.147.464,1.667,1.972,6.9,7.576,17.458,19.485,20.169a32.913,32.913,0,0,0,15.439.007c.115-.029.229-.06.342-.09h0q.372-.1.738-.21a26.317,26.317,0,0,0,2.5-.887,24.662,24.662,0,0,0,2.325-1.108q.534-.289,1.042-.6a21.608,21.608,0,0,0,1.915-1.314,20.451,20.451,0,0,0,2.1-1.853c.216-.218.427-.441.631-.668l-.794-.751a20.122,20.122,0,0,1-2.637,2.262l-.339.238q-.661.455-1.38.88c-.333.2-.677.386-1.029.569a26.457,26.457,0,0,1-2.525,1.152,30.624,30.624,0,0,1-2.936.984h0l-.026.007c-.269.076-.544.149-.821.219a39.084,39.084,0,0,1-3.87.773c-19.416,2.912-27.146-11.384-29.937-21.67Z" transform="translate(-581.368 -364.449)" fill="#e2963b"/>
      </g>
      <path id="Path_216379" data-name="Path 216379" d="M655.072,374.845c-.044.06-.09.119-.133.176l.337.318Z" transform="translate(-615.12 -335.827)" fill="#7a4e2c"/>
      <path id="Path_216380" data-name="Path 216380" d="M676.753,373.861l3.168-.154,67.351-24.7-1.7-2.787-68.213,25.074Z" transform="translate(-626.152 -321.35)" fill="#e2963b"/>
      <path id="Path_216381" data-name="Path 216381" d="M675.615,367.78s26.752-10.407,34.167-13.519,33.857-12.407,33.857-12.407l-.7-1.143s-13.379,4.471-22.278,8.206-20.456,7.942-27.019,10.188-6.381,1.755-11.816,4.565a71.588,71.588,0,0,1-7.01,3.36Z" transform="translate(-625.175 -318.564)" fill="#e2963b"/>
      <path id="Path_216382" data-name="Path 216382" d="M666.03,359.464s15.438-4.624,20.327-7.339,27.362-8.8,31.29-11.481,18.852-6.387,18.852-6.387l-.721-1.185s-7.856,2.45-12.191,3.829-5.37,2.738-10.244,4.35-16.041,5.389-21.447,7.371-6.6,2.938-11.058,4.6-6.38,2.515-8.9,3.323-6.74,2.134-6.74,2.134Z" transform="translate(-620.307 -314.701)" fill="#e2963b"/>
      <path id="Path_216383" data-name="Path 216383" d="M655.47,350.1s20.618-6.612,25.793-9.112,17.051-5.829,24.528-9.082,22.628-6.981,22.628-6.981l-.547-.9s-8.116,2.248-15.767,4.753-15.821,6.341-19.439,7.274-12.455,4.511-17.8,6.292-19.924,6.973-19.924,6.973Z" transform="translate(-615.12 -310.128)" fill="#e2963b"/>
      <path id="Path_216384" data-name="Path 216384" d="M648.323,342.362s24.485-8.362,28.241-10.333,25.054-8.167,31.6-10.686,14.131-4.59,14.131-4.59l-.646-1.063s-11.235,3.824-18.409,6.237-22.391,7.755-27.94,9.645-10.335,3.245-15.116,4.98-12.587,5.128-12.587,5.128Z" transform="translate(-611.408 -305.91)" fill="#e2963b"/>
      <path id="Path_216385" data-name="Path 216385" d="M623.92,350.309c.315,1.142.673,1.137,1.776,1.647a5.693,5.693,0,0,0,2.793.214l-2.788-2.454Z" transform="translate(-599.432 -323.118)" fill="#aa5e2b"/>
      <path id="Path_216386" data-name="Path 216386" d="M629.5,347.617a2.67,2.67,0,0,1,1.715-2.27c1.744-.844,3.616-1.41,4.916-2s2.366-1.217,2.366-1.217l-10.969,3.747Z" transform="translate(-601.255 -319.284)" fill="#aa5e2b"/>
      <path id="Path_216387" data-name="Path 216387" d="M574.376,358.361a29.648,29.648,0,0,0,8.689,16.963c9.054,8.84,10.769,9.106,18.595,10.16s11.14.109,13.632-.663h0c6.517-2.021,12.182-3.918,17.3-5.741l-3.318-3.049-.756-.7-2.606-2.394-.13-.12-.368-.338-.294-.271-.81-.743-3.98-3.658-.854-.785-4.4-4.046-.644-.592-.126-.118-.048-.043-2.912-2.676-.741-.681-2.179-2-1.152-1.059-.082-.075-.488-.449-.051-.047-.151-.138-2.06-1.894-.588-.539-1.022-.939-.284-.26-1.522-1.4-.383-.352h-.03l-3,.994-.094.032-1.525.507-.04.013-.337.111-.757.249L590.66,353l-1.178.389-2.4.788-1.1.363L582.15,355.8l-1.311.431L578.52,357l-.689.226-1.475.486Z" transform="translate(-574.376 -323.117)" fill="#9b501e" opacity="0.17" style="mix-blend-mode: multiply;isolation: isolate"/>
    </g>
  </g>
</svg>
