<svg xmlns="http://www.w3.org/2000/svg" xmlns:xlink="http://www.w3.org/1999/xlink" width="640.748" height="223.656" viewBox="0 0 640.748 223.656">
  <defs>
    <clipPath id="clip-path">
      <rect id="Rectangle_45324" data-name="Rectangle 45324" width="640.748" height="223.656" fill="none"/>
    </clipPath>
  </defs>
  <g id="Group_152784" data-name="Group 152784" transform="translate(-195.345 -427.642)">
    <g id="Group_152783" data-name="Group 152783" transform="translate(195.345 427.642)">
      <g id="Group_152782" data-name="Group 152782" clip-path="url(#clip-path)">
        <g id="Group_152781" data-name="Group 152781" transform="translate(31.263 -1.976)">
          <g id="Group_152424" data-name="Group 152424" transform="translate(812.331 171.273)">
            <g id="Group_152423" data-name="Group 152423">
              <path id="Path_215797" data-name="Path 215797" d="M2751.716,933.863c-27.9,2.173-34.288,55.454-34.288,55.454h42.142V934.551A22.855,22.855,0,0,0,2751.716,933.863Z" transform="translate(-2717.428 -933.785)" fill="#3da894"/>
            </g>
          </g>
          <g id="Group_152433" data-name="Group 152433" transform="translate(0 140.358)">
            <g id="Group_152426" data-name="Group 152426">
              <g id="Group_152425" data-name="Group 152425">
                <path id="Path_215798" data-name="Path 215798" d="M369.26,891.535s-12.068-54.194-41.374-49.939-39.075,86.21-39.075,86.21h85.333Z" transform="translate(-288.811 -841.358)" fill="#368b86"/>
              </g>
            </g>
            <g id="Group_152428" data-name="Group 152428" transform="translate(10.623 31.394)">
              <g id="Group_152427" data-name="Group 152427">
                <path id="Path_215799" data-name="Path 215799" d="M321.5,955.474a.934.934,0,0,1-.867-1.279,8.486,8.486,0,0,1,6-4.769,12.33,12.33,0,0,1,6.048.156c.273-2.74,1.514-9.014,7.13-12.168,5.536-3.109,10.061-2.352,12.882-1.17,3.065,1.285,5.135,3.511,5.305,4.138a.934.934,0,0,1-1.743.649,11.334,11.334,0,0,0-4.5-3.152c-3.485-1.381-7.2-.989-11.03,1.163-6.209,3.487-6.254,11.769-6.254,11.853a.934.934,0,0,1-1.368.829,9.814,9.814,0,0,0-6.077-.473,6.638,6.638,0,0,0-4.657,3.634A.934.934,0,0,1,321.5,955.474Zm34.695-14.6v0Z" transform="translate(-320.571 -935.216)" fill="#296b6d"/>
              </g>
            </g>
            <g id="Group_152430" data-name="Group 152430" transform="translate(34.475 57.86)">
              <g id="Group_152429" data-name="Group 152429">
                <path id="Path_215800" data-name="Path 215800" d="M392.815,1023.469h-.027a.939.939,0,0,1-.907-.966c0-.171.187-4.217,6.162-6.89,5.881-2.631,9.831-.375,10-.277a.934.934,0,0,1-.944,1.612c-.149-.085-3.347-1.841-8.29.37-4.834,2.162-5.051,5.125-5.058,5.25A.928.928,0,0,1,392.815,1023.469Z" transform="translate(-391.881 -1014.342)" fill="#296b6d"/>
              </g>
            </g>
            <g id="Group_152432" data-name="Group 152432" transform="translate(20.494 58.472)">
              <g id="Group_152431" data-name="Group 152431">
                <path id="Path_215801" data-name="Path 215801" d="M351.015,1025.136a.935.935,0,0,1-.831-1.359c.1-.194,2.469-4.756,6.328-6.383,4.381-1.846,7.269-1.265,8.919-.453a6.119,6.119,0,0,1,2.669,2.409.934.934,0,0,1-1.649.876c-.1-.181-2.325-4.014-9.214-1.111-3.238,1.365-5.369,5.471-5.39,5.512A.934.934,0,0,1,351.015,1025.136Z" transform="translate(-350.082 -1016.17)" fill="#296b6d"/>
              </g>
            </g>
          </g>
          <g id="Group_152448" data-name="Group 152448" transform="translate(691.75 110.164)">
            <g id="Group_152435" data-name="Group 152435">
              <g id="Group_152434" data-name="Group 152434">
                <path id="Path_215802" data-name="Path 215802" d="M2361.637,801.226s-.932-50.605,35.95-50.132,34.991,39.121,34.991,39.121,4.256-2.971,10.4,0,3,11.012,3,11.012,18.279-7.343,29.63,6.024-2.365,26.173-2.365,26.173,16.553,4.27,27.9,17.251,11.823,17.059,11.823,17.059H2356.927Z" transform="translate(-2356.927 -751.09)" fill="#368b86"/>
              </g>
            </g>
            <g id="Group_152437" data-name="Group 152437" transform="translate(56.554 52.394)">
              <g id="Group_152436" data-name="Group 152436">
                <path id="Path_215803" data-name="Path 215803" d="M2558.347,928.807a.8.8,0,0,1-.112-.008.768.768,0,0,1-.65-.871,20.093,20.093,0,0,0-.789-8.009c-1.744-5.458-5.751-8.865-11.91-10.124s-10.963-.29-14.241,2.892a11.808,11.808,0,0,0-3.122,5.214.768.768,0,0,1-1.5-.337,13.143,13.143,0,0,1,3.492-5.922c2.52-2.477,7.285-5.069,15.679-3.353,8.427,1.724,11.766,7.051,13.083,11.217a21.3,21.3,0,0,1,.828,8.644A.769.769,0,0,1,2558.347,928.807Z" transform="translate(-2526.006 -907.733)" fill="#296b6d"/>
              </g>
            </g>
            <g id="Group_152439" data-name="Group 152439" transform="translate(75.53 71.938)">
              <g id="Group_152438" data-name="Group 152438">
                <path id="Path_215804" data-name="Path 215804" d="M2613.478,979.553a.768.768,0,0,1-.742-.571,14.448,14.448,0,0,0-2.159-4.173,17.18,17.18,0,0,0-8.862-6.306c-8.942-2.884-17.692,2.88-17.78,2.938a.768.768,0,0,1-.856-1.277,26.282,26.282,0,0,1,5.884-2.744,21.264,21.264,0,0,1,13.224-.381,18.871,18.871,0,0,1,9.677,6.925,15.62,15.62,0,0,1,2.357,4.62.769.769,0,0,1-.743.967Z" transform="translate(-2582.738 -966.162)" fill="#296b6d"/>
              </g>
            </g>
            <g id="Group_152441" data-name="Group 152441" transform="translate(27.378 38.67)">
              <g id="Group_152440" data-name="Group 152440">
                <path id="Path_215805" data-name="Path 215805" d="M2439.637,885.871a.768.768,0,0,1-.76-.659,17.97,17.97,0,0,1,1.04-8.14c1.469-3.873,5.084-8.771,13.971-10.109a20.806,20.806,0,0,1,11.028,1.194,22.665,22.665,0,0,1,7.551,5.114,28.692,28.692,0,0,1,5.713,8.2.769.769,0,0,1-1.416.6,27.641,27.641,0,0,0-5.422-7.746,19.248,19.248,0,0,0-17.225-5.837c-6.52.982-10.807,4.036-12.742,9.079A16.693,16.693,0,0,0,2440.4,885a.769.769,0,0,1-.654.868A.792.792,0,0,1,2439.637,885.871Z" transform="translate(-2438.778 -866.702)" fill="#296b6d"/>
              </g>
            </g>
            <g id="Group_152443" data-name="Group 152443" transform="translate(61.995 99.305)">
              <g id="Group_152442" data-name="Group 152442">
                <path id="Path_215806" data-name="Path 215806" d="M2543.042,1065.318a.769.769,0,0,1-.7-1.085,34.443,34.443,0,0,1,5.375-7.955c4.728-5.266,10.382-8.129,16.352-8.279a44.163,44.163,0,0,1,16.261,2.456,23.935,23.935,0,0,1,5.618,2.779.769.769,0,0,1-.916,1.234,23.109,23.109,0,0,0-5.3-2.6,42.652,42.652,0,0,0-15.622-2.336c-5.615.141-10.746,2.755-15.247,7.769a33.439,33.439,0,0,0-5.118,7.562A.768.768,0,0,1,2543.042,1065.318Z" transform="translate(-2542.274 -1047.981)" fill="#296b6d"/>
              </g>
            </g>
            <g id="Group_152445" data-name="Group 152445" transform="translate(52.182 91.115)">
              <g id="Group_152444" data-name="Group 152444">
                <path id="Path_215807" data-name="Path 215807" d="M2545.509,1033.992a.769.769,0,0,1-.731-.532,11.288,11.288,0,0,0-2.58-3.873,15.985,15.985,0,0,0-10.579-4.448c-12.279-.905-17.3,4.384-17.35,4.438a.769.769,0,1,1-1.131-1.042c.222-.241,5.584-5.887,18.594-4.929,6.043.445,9.656,2.946,11.623,4.966a12.548,12.548,0,0,1,2.885,4.415.769.769,0,0,1-.731,1.006Z" transform="translate(-2512.935 -1023.496)" fill="#296b6d"/>
              </g>
            </g>
            <g id="Group_152447" data-name="Group 152447" transform="translate(65.303 39.261)">
              <g id="Group_152446" data-name="Group 152446">
                <path id="Path_215808" data-name="Path 215808" d="M2568.785,875.664a.767.767,0,0,1-.688-.425c-.022-.043-2.269-4.43-6.211-5.083-6.067-1.005-8.239,3.431-8.259,3.476a.769.769,0,0,1-1.39-.656,8.108,8.108,0,0,1,2.246-2.648,9.485,9.485,0,0,1,7.655-1.688c4.724.783,7.23,5.7,7.335,5.913a.769.769,0,0,1-.687,1.112Z" transform="translate(-2552.163 -868.47)" fill="#296b6d"/>
              </g>
            </g>
          </g>
          <g id="Group_152552" data-name="Group 152552" transform="translate(35.179 31.223)">
            <g id="Group_152450" data-name="Group 152450" transform="translate(4.011 53.676)">
              <g id="Group_152449" data-name="Group 152449">
                <path id="Path_215809" data-name="Path 215809" d="M472.88,675.553l-66.9,141.907H707.925L643.492,675.553Z" transform="translate(-405.978 -675.553)" fill="#4e4059"/>
              </g>
            </g>
            <g id="Group_152459" data-name="Group 152459" transform="translate(77.377 67.936)">
              <g id="Group_152452" data-name="Group 152452">
                <g id="Group_152451" data-name="Group 152451">
                  <rect id="Rectangle_45316" data-name="Rectangle 45316" width="163.289" height="4.044" fill="#af7535"/>
                </g>
              </g>
              <g id="Group_152454" data-name="Group 152454" transform="translate(14.234 35.046)">
                <g id="Group_152453" data-name="Group 152453">
                  <rect id="Rectangle_45317" data-name="Rectangle 45317" width="178.113" height="4.044" fill="#af7535"/>
                </g>
              </g>
              <g id="Group_152456" data-name="Group 152456" transform="translate(33.353 70.091)">
                <g id="Group_152455" data-name="Group 152455">
                  <rect id="Rectangle_45318" data-name="Rectangle 45318" width="163.289" height="4.044" fill="#af7535"/>
                </g>
              </g>
              <g id="Group_152458" data-name="Group 152458" transform="translate(47.344 105.137)">
                <g id="Group_152457" data-name="Group 152457">
                  <rect id="Rectangle_45319" data-name="Rectangle 45319" width="163.289" height="4.044" fill="#af7535"/>
                </g>
              </g>
            </g>
            <g id="Group_152461" data-name="Group 152461" transform="translate(241.526 53.675)">
              <g id="Group_152460" data-name="Group 152460">
                <path id="Path_215810" data-name="Path 215810" d="M1508.238,677.519a3.351,3.351,0,0,0-2.4-1.9v-.067H1116.072L1180.5,817.46h391.273Z" transform="translate(-1116.072 -675.553)" fill="#a3544a"/>
              </g>
            </g>
            <g id="Group_152474" data-name="Group 152474" transform="translate(70.913 53.676)">
              <g id="Group_152463" data-name="Group 152463">
                <g id="Group_152462" data-name="Group 152462">
                  <path id="Path_215811" data-name="Path 215811" d="M605.993,675.553l4.531,5.764H743.792l-2.32-5.764Z" transform="translate(-605.993 -675.553)" fill="#ffb94a"/>
                </g>
              </g>
              <g id="Group_152465" data-name="Group 152465" transform="translate(20.698 2.882)">
                <g id="Group_152464" data-name="Group 152464">
                  <path id="Path_215812" data-name="Path 215812" d="M731.247,823.194,667.873,684.169h5.993L737.24,823.194Z" transform="translate(-667.873 -684.169)" fill="#ffb94a"/>
                </g>
              </g>
              <g id="Group_152467" data-name="Group 152467" transform="translate(52.095 2.882)">
                <g id="Group_152466" data-name="Group 152466">
                  <path id="Path_215813" data-name="Path 215813" d="M825.115,823.194,761.741,684.169h5.993l63.374,139.025Z" transform="translate(-761.741 -684.169)" fill="#ffb94a"/>
                </g>
              </g>
              <g id="Group_152469" data-name="Group 152469" transform="translate(83.492 2.882)">
                <g id="Group_152468" data-name="Group 152468">
                  <path id="Path_215814" data-name="Path 215814" d="M918.982,823.194,855.608,684.169H861.6l63.374,139.025Z" transform="translate(-855.608 -684.169)" fill="#ffb94a"/>
                </g>
              </g>
              <g id="Group_152471" data-name="Group 152471" transform="translate(114.889 2.882)">
                <g id="Group_152470" data-name="Group 152470">
                  <path id="Path_215815" data-name="Path 215815" d="M1012.85,823.194,949.476,684.169h5.993l63.374,139.025Z" transform="translate(-949.476 -684.169)" fill="#ffb94a"/>
                </g>
              </g>
              <g id="Group_152473" data-name="Group 152473" transform="translate(146.286 2.882)">
                <g id="Group_152472" data-name="Group 152472">
                  <path id="Path_215816" data-name="Path 215816" d="M1106.717,823.194l-63.374-139.025h5.994l63.374,139.025Z" transform="translate(-1043.343 -684.169)" fill="#ffb94a"/>
                </g>
              </g>
            </g>
            <g id="Group_152476" data-name="Group 152476" transform="translate(266.277 157.274)">
              <g id="Group_152475" data-name="Group 152475">
                <path id="Path_215817" data-name="Path 215817" d="M1222.438,985.279H1190.07l11.1,24.443h32.369Z" transform="translate(-1190.07 -985.279)" fill="#a3544a"/>
              </g>
            </g>
            <g id="Group_152478" data-name="Group 152478" transform="translate(218.223 132.831)">
              <g id="Group_152477" data-name="Group 152477" transform="translate(0)">
                <path id="Path_215818" data-name="Path 215818" d="M1112.629,912.2H1046.4l11.1,24.443h66.224Z" transform="translate(-1046.405 -912.203)" fill="#a3544a"/>
              </g>
            </g>
            <g id="Group_152480" data-name="Group 152480" transform="translate(190.086 53.676)">
              <g id="Group_152479" data-name="Group 152479">
                <path id="Path_215819" data-name="Path 215819" d="M1015.306,675.553H962.283L973.381,700H1026.4Z" transform="translate(-962.283 -675.553)" fill="#a3544a"/>
              </g>
            </g>
            <g id="Group_152482" data-name="Group 152482" transform="translate(13.849 66.795)">
              <g id="Group_152481" data-name="Group 152481">
                <path id="Path_215820" data-name="Path 215820" d="M435.388,843.565,497.78,714.778l59.474,128.787Z" transform="translate(-435.388 -714.778)" fill="#ffb94a"/>
              </g>
            </g>
            <g id="Group_152485" data-name="Group 152485" transform="translate(0 53.675)">
              <g id="Group_152484" data-name="Group 152484">
                <g id="Group_152483" data-name="Group 152483">
                  <path id="Path_215821" data-name="Path 215821" d="M401.458,817.459h-7.473l67.854-140.016a3.353,3.353,0,0,1,6.07.076l63.54,139.941h-7.37L464.758,686.8Z" transform="translate(-393.985 -675.552)" fill="#e26949"/>
                </g>
              </g>
            </g>
            <g id="Group_152487" data-name="Group 152487" transform="translate(452.864 7.036)">
              <g id="Group_152486" data-name="Group 152486">
                <path id="Path_215822" data-name="Path 215822" d="M1747.906,582.754V536.115h34.838v88.8l-18.858-42.164Z" transform="translate(-1747.906 -536.115)" fill="#ffb94a"/>
              </g>
            </g>
            <g id="Group_152489" data-name="Group 152489" transform="translate(487.702 7.036)">
              <g id="Group_152488" data-name="Group 152488">
                <rect id="Rectangle_45320" data-name="Rectangle 45320" width="52.006" height="88.802" fill="#ff9343"/>
              </g>
            </g>
            <g id="Group_152494" data-name="Group 152494" transform="translate(448.231)">
              <g id="Group_152491" data-name="Group 152491" transform="translate(37.487)">
                <g id="Group_152490" data-name="Group 152490">
                  <rect id="Rectangle_45321" data-name="Rectangle 45321" width="57.257" height="10.014" fill="#a3544a"/>
                </g>
              </g>
              <g id="Group_152493" data-name="Group 152493">
                <g id="Group_152492" data-name="Group 152492">
                  <rect id="Rectangle_45322" data-name="Rectangle 45322" width="37.487" height="10.014" fill="#e26949"/>
                </g>
              </g>
            </g>
            <g id="Group_152496" data-name="Group 152496" transform="translate(7.473 64.921)">
              <g id="Group_152495" data-name="Group 152495">
                <path id="Path_215823" data-name="Path 215823" d="M482.71,715.969l-3.085-6.794-63.3,130.661H422.7Z" transform="translate(-416.326 -709.174)" fill="#a3544a"/>
              </g>
            </g>
            <g id="Group_152549" data-name="Group 152549" transform="translate(276.888 82.228)">
              <g id="Group_152498" data-name="Group 152498" transform="translate(92.507 69.684)">
                <g id="Group_152497" data-name="Group 152497">
                  <path id="Path_215824" data-name="Path 215824" d="M1510.3,995.417a.579.579,0,0,1-.526-.339l-11.357-25.012a.578.578,0,1,1,1.052-.478l11.357,25.012a.578.578,0,0,1-.526.817Z" transform="translate(-1498.363 -969.249)" fill="#7f3633"/>
                </g>
              </g>
              <g id="Group_152500" data-name="Group 152500" transform="translate(137.637 35.837)">
                <g id="Group_152499" data-name="Group 152499">
                  <path id="Path_215825" data-name="Path 215825" d="M1645.223,894.227a.578.578,0,0,1-.526-.339l-11.357-25.013a.578.578,0,1,1,1.052-.478l11.357,25.013a.577.577,0,0,1-.287.765A.57.57,0,0,1,1645.223,894.227Z" transform="translate(-1633.288 -868.058)" fill="#7f3633"/>
                </g>
              </g>
              <g id="Group_152502" data-name="Group 152502" transform="translate(187.076 35.837)">
                <g id="Group_152501" data-name="Group 152501">
                  <path id="Path_215826" data-name="Path 215826" d="M1793.03,894.227a.578.578,0,0,1-.526-.339l-11.357-25.013a.578.578,0,1,1,1.052-.478l11.357,25.013a.578.578,0,0,1-.526.817Z" transform="translate(-1781.095 -868.058)" fill="#7f3633"/>
                </g>
              </g>
              <g id="Group_152504" data-name="Group 152504" transform="translate(221.78 71.111)">
                <g id="Group_152503" data-name="Group 152503">
                  <path id="Path_215827" data-name="Path 215827" d="M1892.105,989.383a.577.577,0,0,1-.526-.339l-6.68-14.712a.578.578,0,0,1,1.052-.478l6.68,14.712a.577.577,0,0,1-.287.765A.57.57,0,0,1,1892.105,989.383Z" transform="translate(-1884.847 -973.516)" fill="#7f3633"/>
                </g>
              </g>
              <g id="Group_152506" data-name="Group 152506" transform="translate(180.556 60.81)">
                <g id="Group_152505" data-name="Group 152505">
                  <path id="Path_215828" data-name="Path 215828" d="M1773.535,968.889a.577.577,0,0,1-.526-.339l-11.357-25.013a.578.578,0,0,1,1.052-.478l11.357,25.013a.578.578,0,0,1-.287.765A.572.572,0,0,1,1773.535,968.889Z" transform="translate(-1761.6 -942.721)" fill="#7f3633"/>
                </g>
              </g>
              <g id="Group_152508" data-name="Group 152508" transform="translate(136.333 86.689)">
                <g id="Group_152507" data-name="Group 152507">
                  <path id="Path_215829" data-name="Path 215829" d="M1633.6,1029.253a.578.578,0,0,1-.526-.339l-3.635-8.007a.578.578,0,1,1,1.052-.478l3.636,8.007a.578.578,0,0,1-.526.817Z" transform="translate(-1629.389 -1020.09)" fill="#7f3633"/>
                </g>
              </g>
              <g id="Group_152510" data-name="Group 152510" transform="translate(128.612 69.684)">
                <g id="Group_152509" data-name="Group 152509">
                  <path id="Path_215830" data-name="Path 215830" d="M1610.182,977.671a.578.578,0,0,1-.527-.339l-3.3-7.266a.578.578,0,1,1,1.052-.478l3.3,7.266a.578.578,0,0,1-.525.817Z" transform="translate(-1606.305 -969.249)" fill="#7f3633"/>
                </g>
              </g>
              <g id="Group_152512" data-name="Group 152512" transform="translate(67.76 94.696)">
                <g id="Group_152511" data-name="Group 152511">
                  <path id="Path_215831" data-name="Path 215831" d="M1497.162,1045.184h-72.209a.578.578,0,1,1,0-1.155h72.209a.578.578,0,1,1,0,1.155Z" transform="translate(-1424.375 -1044.029)" fill="#7f3633"/>
                </g>
              </g>
              <g id="Group_152514" data-name="Group 152514" transform="translate(148.895 60.85)">
                <g id="Group_152513" data-name="Group 152513">
                  <path id="Path_215832" data-name="Path 215832" d="M1717.06,943.994h-49.538a.578.578,0,1,1,0-1.156h49.538a.578.578,0,0,1,0,1.156Z" transform="translate(-1666.944 -942.838)" fill="#7f3633"/>
                </g>
              </g>
              <g id="Group_152516" data-name="Group 152516" transform="translate(170.269 35.837)">
                <g id="Group_152515" data-name="Group 152515">
                  <path id="Path_215833" data-name="Path 215833" d="M1780.962,869.214h-49.539a.578.578,0,0,1,0-1.155h49.539a.578.578,0,1,1,0,1.155Z" transform="translate(-1730.846 -868.059)" fill="#7f3633"/>
                </g>
              </g>
              <g id="Group_152527" data-name="Group 152527">
                <g id="Group_152518" data-name="Group 152518" transform="translate(0 50.025)">
                  <g id="Group_152517" data-name="Group 152517">
                    <path id="Path_215834" data-name="Path 215834" d="M1340.005,911.631H1222.373a.578.578,0,0,1,0-1.155h117.632a.578.578,0,1,1,0,1.155Z" transform="translate(-1221.795 -910.476)" fill="#7f3633"/>
                  </g>
                </g>
                <g id="Group_152520" data-name="Group 152520" transform="translate(33.966 25.012)">
                  <g id="Group_152519" data-name="Group 152519">
                    <path id="Path_215835" data-name="Path 215835" d="M1335.277,861.864a.578.578,0,0,1-.526-.339l-11.357-25.012a.578.578,0,1,1,1.052-.478l11.357,25.012a.578.578,0,0,1-.526.817Z" transform="translate(-1323.342 -835.696)" fill="#7f3633"/>
                  </g>
                </g>
                <g id="Group_152522" data-name="Group 152522" transform="translate(77.32 25.012)">
                  <g id="Group_152521" data-name="Group 152521">
                    <path id="Path_215836" data-name="Path 215836" d="M1464.893,861.864a.578.578,0,0,1-.526-.339l-11.357-25.012a.578.578,0,0,1,1.052-.478l11.357,25.012a.578.578,0,0,1-.526.817Z" transform="translate(-1452.958 -835.696)" fill="#7f3633"/>
                  </g>
                </g>
                <g id="Group_152524" data-name="Group 152524" transform="translate(47.459)">
                  <g id="Group_152523" data-name="Group 152523">
                    <path id="Path_215837" data-name="Path 215837" d="M1375.618,787.085a.579.579,0,0,1-.526-.339l-11.357-25.013a.578.578,0,0,1,1.052-.477l11.357,25.013a.578.578,0,0,1-.526.817Z" transform="translate(-1363.683 -760.917)" fill="#7f3633"/>
                  </g>
                </g>
                <g id="Group_152526" data-name="Group 152526" transform="translate(19.474 25.012)">
                  <g id="Group_152525" data-name="Group 152525">
                    <path id="Path_215838" data-name="Path 215838" d="M1364.984,836.852h-84.39a.578.578,0,1,1,0-1.156h84.39a.578.578,0,0,1,0,1.156Z" transform="translate(-1280.015 -835.696)" fill="#7f3633"/>
                  </g>
                </g>
              </g>
              <g id="Group_152538" data-name="Group 152538" transform="translate(289.85 44.671)">
                <g id="Group_152529" data-name="Group 152529" transform="translate(0 50.025)">
                  <g id="Group_152528" data-name="Group 152528">
                    <path id="Path_215839" data-name="Path 215839" d="M2206.565,1045.184H2088.933a.578.578,0,1,1,0-1.155h117.632a.578.578,0,1,1,0,1.155Z" transform="translate(-2088.355 -1044.029)" fill="#7f3633"/>
                  </g>
                </g>
                <g id="Group_152531" data-name="Group 152531" transform="translate(33.966 25.012)">
                  <g id="Group_152530" data-name="Group 152530">
                    <path id="Path_215840" data-name="Path 215840" d="M2201.837,995.417a.579.579,0,0,1-.527-.339l-11.356-25.012a.578.578,0,1,1,1.052-.478l11.357,25.012a.578.578,0,0,1-.526.817Z" transform="translate(-2189.902 -969.249)" fill="#7f3633"/>
                  </g>
                </g>
                <g id="Group_152533" data-name="Group 152533" transform="translate(77.32 25.012)">
                  <g id="Group_152532" data-name="Group 152532">
                    <path id="Path_215841" data-name="Path 215841" d="M2331.453,995.417a.579.579,0,0,1-.527-.339l-11.356-25.012a.577.577,0,1,1,1.052-.478l11.357,25.012a.579.579,0,0,1-.526.817Z" transform="translate(-2319.518 -969.249)" fill="#7f3633"/>
                  </g>
                </g>
                <g id="Group_152535" data-name="Group 152535" transform="translate(47.459)">
                  <g id="Group_152534" data-name="Group 152534">
                    <path id="Path_215842" data-name="Path 215842" d="M2242.178,920.638a.578.578,0,0,1-.527-.339l-11.357-25.013a.578.578,0,0,1,1.052-.478l11.357,25.013a.578.578,0,0,1-.526.816Z" transform="translate(-2230.243 -894.47)" fill="#7f3633"/>
                  </g>
                </g>
                <g id="Group_152537" data-name="Group 152537" transform="translate(19.474 25.013)">
                  <g id="Group_152536" data-name="Group 152536">
                    <path id="Path_215843" data-name="Path 215843" d="M2231.543,970.405h-84.391a.578.578,0,0,1,0-1.155h84.391a.578.578,0,1,1,0,1.155Z" transform="translate(-2146.575 -969.25)" fill="#7f3633"/>
                  </g>
                </g>
              </g>
              <g id="Group_152540" data-name="Group 152540" transform="translate(191.913 85.823)">
                <g id="Group_152539" data-name="Group 152539">
                  <path id="Path_215844" data-name="Path 215844" d="M1846.512,1018.656h-50.381a.578.578,0,1,1,0-1.155h50.381a.578.578,0,0,1,0,1.155Z" transform="translate(-1795.554 -1017.501)" fill="#7f3633"/>
                </g>
              </g>
              <g id="Group_152542" data-name="Group 152542" transform="translate(250.086 44.938)">
                <g id="Group_152541" data-name="Group 152541">
                  <path id="Path_215845" data-name="Path 215845" d="M1976.732,911.136a.577.577,0,0,1-.526-.339l-6.68-14.712a.578.578,0,0,1,1.052-.478l6.68,14.712a.578.578,0,0,1-.526.817Z" transform="translate(-1969.474 -895.268)" fill="#7f3633"/>
                </g>
              </g>
              <g id="Group_152544" data-name="Group 152544" transform="translate(247.802 59.65)">
                <g id="Group_152543" data-name="Group 152543">
                  <path id="Path_215846" data-name="Path 215846" d="M1986.021,940.409h-22.8a.578.578,0,0,1,0-1.156h22.8a.578.578,0,0,1,0,1.156Z" transform="translate(-1962.645 -939.253)" fill="#7f3633"/>
                </g>
              </g>
              <g id="Group_152546" data-name="Group 152546" transform="translate(342.404 5.676)">
                <g id="Group_152545" data-name="Group 152545">
                  <path id="Path_215847" data-name="Path 215847" d="M2252.734,793.754a.577.577,0,0,1-.526-.339l-6.68-14.712a.577.577,0,1,1,1.052-.478l6.68,14.712a.578.578,0,0,1-.287.765A.569.569,0,0,1,2252.734,793.754Z" transform="translate(-2245.476 -777.887)" fill="#7f3633"/>
                </g>
              </g>
              <g id="Group_152548" data-name="Group 152548" transform="translate(340.119 20.389)">
                <g id="Group_152547" data-name="Group 152547">
                  <path id="Path_215848" data-name="Path 215848" d="M2274.829,823.027h-35.6a.578.578,0,0,1,0-1.155h35.6a.578.578,0,1,1,0,1.155Z" transform="translate(-2238.646 -821.872)" fill="#7f3633"/>
                </g>
              </g>
            </g>
            <g id="Group_152551" data-name="Group 152551" transform="translate(539.707 53.676)">
              <g id="Group_152550" data-name="Group 152550">
                <path id="Path_215849" data-name="Path 215849" d="M2007.542,717.716l30.039-42.163h-30.039Z" transform="translate(-2007.542 -675.553)" fill="#7f3633"/>
              </g>
            </g>
          </g>
          <g id="Group_152553" data-name="Group 152553" transform="translate(293.654 105.51)">
            <path id="Path_215850" data-name="Path 215850" d="M1244.336,737.694s-14.717-.762-25.69-.44-38.286,1.614-42.66,1.855-10.259,2.3-9.09,3.871,9.945,1.636,15.37,2.136,25.407-.585,32.856-.929,25.323-.9,29.214-1.865S1250.6,737.955,1244.336,737.694Z" transform="translate(-1166.745 -737.175)" fill="#7f3633"/>
          </g>
          <g id="Group_152676" data-name="Group 152676" transform="translate(263.352 11.595)">
            <g id="Group_152561" data-name="Group 152561" transform="translate(33.521 86.392)">
              <g id="Group_152558" data-name="Group 152558" transform="translate(0 5.116)">
                <g id="Group_152555" data-name="Group 152555" transform="translate(0 5.208)">
                  <g id="Group_152554" data-name="Group 152554">
                    <path id="Path_215851" data-name="Path 215851" d="M1192.53,745.549c-2.986.026-5.215,2.725-5.515,2.912-.326.2-4.976.857-6.648.408s-2.08-2.366-2.651-2.569a2.061,2.061,0,0,0-.825-.082,1.114,1.114,0,0,0-.133.268c-.2.536-.482.821-.357,1.517s1.164,1.143,2.466,1.589a12.8,12.8,0,0,0,4.944.607,6.964,6.964,0,0,0,3.678-1.214c.482-.5.232-.607.982-.785s1,.446,2.232.375,1.9-.535,2.107-1.446a2.156,2.156,0,0,0-.169-1.3C1192.6,745.739,1192.563,745.644,1192.53,745.549Z" transform="translate(-1176.369 -745.549)" fill="#4e4059"/>
                  </g>
                </g>
                <g id="Group_152557" data-name="Group 152557" transform="translate(0.521)">
                  <g id="Group_152556" data-name="Group 152556">
                    <path id="Path_215852" data-name="Path 215852" d="M1178.751,735.937c.571.2.979,2.121,2.651,2.569s6.323-.2,6.649-.408c.3-.188,2.529-2.887,5.515-2.912a4.808,4.808,0,0,1-.245-1.073,7.362,7.362,0,0,0-.888-3.239c-.669-.715-3.423-1.146-5.632-.738a3.006,3.006,0,0,0-1.491.749c-.976.9-2.961,2.711-3.572,3.15a15.08,15.08,0,0,1-2.982,1.464c-.446.153-.663.123-.831.357A2.063,2.063,0,0,1,1178.751,735.937Z" transform="translate(-1177.926 -729.978)" fill="#4e4059"/>
                  </g>
                </g>
              </g>
              <g id="Group_152560" data-name="Group 152560" transform="translate(7.831)">
                <g id="Group_152559" data-name="Group 152559">
                  <path id="Path_215853" data-name="Path 215853" d="M1200.032,721.233l-.25-6.549,7.35.167s-.294,3.3-.484,5.742a.907.907,0,0,1-.507.841C1204.768,721.978,1201.224,723.142,1200.032,721.233Z" transform="translate(-1199.782 -714.684)" fill="#fff"/>
                </g>
              </g>
            </g>
            <g id="Group_152566" data-name="Group 152566" transform="translate(96.625 82.055)">
              <g id="Group_152563" data-name="Group 152563" transform="translate(3.754 1.325)">
                <g id="Group_152562" data-name="Group 152562">
                  <path id="Path_215854" data-name="Path 215854" d="M1386.961,707.03a2.158,2.158,0,0,0-1.242-.412c-.1,0-.2-.014-.3-.025a4.837,4.837,0,0,1-1.072-.247,7.364,7.364,0,0,0-3.3-.61c-.935.291-2.521,2.583-3.116,4.75a3.005,3.005,0,0,0,.026,1.668c.385,1.27,1.23,3.084.872,4.587-.285,1.2-1.4,1.629-1.774,1.91s-.594.32-.682.594a1.136,1.136,0,0,0-.045.3c-.023.57-.207.93.124,1.554s1.458.732,2.834.758c.924.018,3.955-.842,4.716-1.607,1.561-1.951,2.561-6.967,2.32-7.619s-.445-.473-.28-1.226.837-.706,1.309-1.846S1387.693,707.61,1386.961,707.03Z" transform="translate(-1376.252 -705.68)" fill="#4e4059"/>
                </g>
              </g>
              <g id="Group_152565" data-name="Group 152565">
                <g id="Group_152564" data-name="Group 152564">
                  <path id="Path_215855" data-name="Path 215855" d="M1371.035,709.588l-6.006-2.624,1.787-3.494a3.217,3.217,0,0,1,4.5-1.3c.7.416,1.442.85,2.1,1.236a.9.9,0,0,1,.448.851C1373.749,705.773,1373.234,709.35,1371.035,709.588Z" transform="translate(-1365.029 -701.717)" fill="#fff"/>
                </g>
              </g>
            </g>
            <g id="Group_152568" data-name="Group 152568" transform="translate(33.596 38.418)">
              <g id="Group_152567" data-name="Group 152567">
                <path id="Path_215856" data-name="Path 215856" d="M1209.759,575.961s-23.811-7.007-29.61-3.916c-8.142,4.34.411,32.171-.751,50.423,0,0,10.836,1.237,13.211-.982a24.22,24.22,0,0,0,.541-9.89c-.74-4.867-.934-4.207-.675-9.121.059-1.122.424-11.875-.673-13.015,0,0,23.519,7.357,27.185,5.664C1224.531,592.563,1218.352,576.644,1209.759,575.961Z" transform="translate(-1176.594 -571.257)" fill="#ff9343"/>
              </g>
            </g>
            <g id="Group_152570" data-name="Group 152570" transform="translate(60.897 41.718)">
              <g id="Group_152569" data-name="Group 152569">
                <path id="Path_215857" data-name="Path 215857" d="M1260.939,583.8l-2.725,8.724,12.771,2.538,2.678,12.826s13.838,4.626,19.169-6.061c4.478-8.976-4.057-20.7-4.057-20.7Z" transform="translate(-1258.214 -581.124)" fill="#ff9343"/>
              </g>
            </g>
            <g id="Group_152572" data-name="Group 152572" transform="translate(26.61 38.907)">
              <g id="Group_152571" data-name="Group 152571">
                <path id="Path_215858" data-name="Path 215858" d="M1170.113,579.671c-.319.637-16.172,27.6-14.245,29.146.834.669,3.18,1.246,5.407-.684,2.914-2.526,6.056-8.227,9.714-12.32,5.386-6.029,9.224-14.743,10.91-20.288a27.794,27.794,0,0,1-10.354-2.807C1170.811,576.518,1170.221,579.456,1170.113,579.671Z" transform="translate(-1155.706 -572.718)" fill="#eda472"/>
              </g>
            </g>
            <g id="Group_152574" data-name="Group 152574" transform="translate(42.449 20.657)">
              <g id="Group_152573" data-name="Group 152573">
                <path id="Path_215859" data-name="Path 215859" d="M1215.716,525.791l-9.215-7.634s-2,10.786-3.441,18.25a27.8,27.8,0,0,0,10.354,2.807c.333-1.1.584-2.07.744-2.873C1215.133,531.475,1215.716,525.791,1215.716,525.791Z" transform="translate(-1203.06 -518.157)" fill="#e8e2cf"/>
              </g>
            </g>
            <g id="Group_152576" data-name="Group 152576" transform="translate(57.274 55.328)">
              <g id="Group_152575" data-name="Group 152575">
                <path id="Path_215860" data-name="Path 215860" d="M1259.744,622.54s-10.424,21.615-12.265,29.026c-.635,2.558,1.974,6.879,4.628,8.26,3.778,1.966,41.277-1.885,41.277-1.885s1.922-5.5.189-9.719a153.1,153.1,0,0,0-16.5-2.637c-2.2-.156-6.554-.758-6.554-.758a59.782,59.782,0,0,0,14.816-15.721C1288.067,624.827,1262.194,619.942,1259.744,622.54Z" transform="translate(-1247.382 -621.814)" fill="#ff9343"/>
              </g>
            </g>
            <g id="Group_152578" data-name="Group 152578" transform="translate(44.788 8.968)">
              <g id="Group_152577" data-name="Group 152577">
                <path id="Path_215861" data-name="Path 215861" d="M1226.283,519.7c10.689,7.628,33.466,1.629,33.466,1.629s-8.883-29.34-25.993-36.831c-12.841-5.622-27.122,8.622-22.969,15.857,1.585,2.761,4.648,2.265,10.306,8.92C1224.958,513.819,1225.689,519.271,1226.283,519.7Z" transform="translate(-1210.054 -483.21)" fill="#fcf8eb"/>
              </g>
            </g>
            <g id="Group_152633" data-name="Group 152633" transform="translate(33.704)">
              <g id="Group_152620" data-name="Group 152620" transform="translate(3.447 2.618)">
                <g id="Group_152581" data-name="Group 152581" transform="translate(0 1.99)">
                  <g id="Group_152580" data-name="Group 152580">
                    <g id="Group_152579" data-name="Group 152579">
                      <path id="Path_215862" data-name="Path 215862" d="M1189.814,471.2a3.841,3.841,0,0,1,4.791-.354c2.2,1.513,4.027,3.227,4.337,4.066.658,1.78-1.294,5.841-2.97,6.834-1.006.6-2,.025-3.424-1.064a24.253,24.253,0,0,1-1.959-1.842c-.966-.821-4.471-3.209-3.02-5.14A19.922,19.922,0,0,1,1189.814,471.2Z" transform="translate(-1187.223 -470.176)" fill="#ffbe91"/>
                    </g>
                  </g>
                </g>
                <g id="Group_152584" data-name="Group 152584" transform="translate(4.235)">
                  <g id="Group_152583" data-name="Group 152583">
                    <g id="Group_152582" data-name="Group 152582">
                      <path id="Path_215863" data-name="Path 215863" d="M1201.315,468.029c.833.218,2.24,1.271,3.063,1.3a2.093,2.093,0,0,0,1.745-1.677c.009-1.551-.986-1.875-1.592-2.269-2.108-1.374-2.744-1.439-4.009-.608S1200.054,467.7,1201.315,468.029Z" transform="translate(-1199.883 -464.227)" fill="#4e4059"/>
                    </g>
                  </g>
                </g>
                <g id="Group_152587" data-name="Group 152587" transform="translate(9.083 5.322)">
                  <g id="Group_152586" data-name="Group 152586">
                    <g id="Group_152585" data-name="Group 152585">
                      <path id="Path_215864" data-name="Path 215864" d="M1215.955,480.137s6.772,4.857,6.829,5.449c.123,1.263-1.993,4.016-2.785,4.193s-5.621-4.714-5.621-4.714Z" transform="translate(-1214.379 -480.137)" fill="#ffbe91"/>
                    </g>
                  </g>
                </g>
                <g id="Group_152590" data-name="Group 152590" transform="translate(5.744 9.959)">
                  <g id="Group_152589" data-name="Group 152589">
                    <g id="Group_152588" data-name="Group 152588">
                      <path id="Path_215865" data-name="Path 215865" d="M1205.714,494s-.818,1.079-1.319,1.851a.844.844,0,0,0,1.222-.193A1.941,1.941,0,0,0,1205.714,494Z" transform="translate(-1204.395 -494.001)" fill="#fff"/>
                    </g>
                  </g>
                </g>
                <g id="Group_152593" data-name="Group 152593" transform="translate(4.741 8.977)">
                  <g id="Group_152592" data-name="Group 152592">
                    <g id="Group_152591" data-name="Group 152591">
                      <path id="Path_215866" data-name="Path 215866" d="M1201.556,491.078a.108.108,0,0,0-.157.119,3.491,3.491,0,0,1,.035,1.259c-.122.817.276,1.092.813.327s.534-.871.165-1.176A6.379,6.379,0,0,0,1201.556,491.078Z" transform="translate(-1201.397 -491.065)" fill="#ea907e"/>
                    </g>
                  </g>
                </g>
                <g id="Group_152596" data-name="Group 152596" transform="translate(5.317 7.311)">
                  <g id="Group_152595" data-name="Group 152595">
                    <g id="Group_152594" data-name="Group 152594">
                      <path id="Path_215867" data-name="Path 215867" d="M1203.119,486.758s.494.6.856.23-.146-.888-.257-.9A.775.775,0,0,0,1203.119,486.758Z" transform="translate(-1203.119 -486.085)" fill="#4e4059"/>
                    </g>
                  </g>
                </g>
                <g id="Group_152599" data-name="Group 152599" transform="translate(3.34 9.58)">
                  <g id="Group_152598" data-name="Group 152598">
                    <g id="Group_152597" data-name="Group 152597">
                      <path id="Path_215868" data-name="Path 215868" d="M1197.207,493.355s.524.554.81.3-.242-.752-.346-.778A.468.468,0,0,0,1197.207,493.355Z" transform="translate(-1197.207 -492.869)" fill="#4e4059"/>
                    </g>
                  </g>
                </g>
                <g id="Group_152602" data-name="Group 152602" transform="translate(3.776 5.378)">
                  <g id="Group_152601" data-name="Group 152601">
                    <g id="Group_152600" data-name="Group 152600">
                      <path id="Path_215869" data-name="Path 215869" d="M1198.681,481.95a.106.106,0,0,1-.149-.149,7,7,0,0,1,1.609-1.479.106.106,0,0,1,.147.031.1.1,0,0,1-.031.147,6.912,6.912,0,0,0-1.555,1.429A.12.12,0,0,1,1198.681,481.95Z" transform="translate(-1198.511 -480.304)" fill="#4e4059"/>
                    </g>
                  </g>
                </g>
                <g id="Group_152605" data-name="Group 152605" transform="translate(1.856 8.158)">
                  <g id="Group_152604" data-name="Group 152604">
                    <g id="Group_152603" data-name="Group 152603">
                      <path id="Path_215870" data-name="Path 215870" d="M1192.943,489.815a.106.106,0,0,1-.152-.144l.668-1.007a.106.106,0,0,1,.177.117l-.668,1.007A.1.1,0,0,1,1192.943,489.815Z" transform="translate(-1192.773 -488.617)" fill="#4e4059"/>
                    </g>
                  </g>
                </g>
                <g id="Group_152612" data-name="Group 152612" transform="translate(8.739 2.627)">
                  <g id="Group_152608" data-name="Group 152608">
                    <g id="Group_152607" data-name="Group 152607">
                      <g id="Group_152606" data-name="Group 152606">
                        <path id="Path_215871" data-name="Path 215871" d="M1213.437,473.692a1.429,1.429,0,0,1,.04-1.083.862.862,0,0,1,1.233-.431c1.322.5,1.356,3.427.2,3.222C1214.1,475.257,1213.641,474.271,1213.437,473.692Z" transform="translate(-1213.35 -472.08)" fill="#ffbe91"/>
                      </g>
                    </g>
                  </g>
                  <g id="Group_152611" data-name="Group 152611" transform="translate(0.576 0.548)">
                    <g id="Group_152610" data-name="Group 152610">
                      <g id="Group_152609" data-name="Group 152609">
                        <path id="Path_215872" data-name="Path 215872" d="M1216.245,475.97a.106.106,0,0,1-.1.014c-.02-.008-.484-.2-.435-.547a.71.71,0,0,1,.263-.393c.092-.087.179-.17.167-.237a1.4,1.4,0,0,0-.476-.786.385.385,0,0,0-.426-.043.106.106,0,0,1-.115-.179.593.593,0,0,1,.666.05,1.615,1.615,0,0,1,.559.918c.034.181-.106.314-.23.43a.569.569,0,0,0-.2.268c-.021.153.219.286.3.32a.107.107,0,0,1,.059.138A.105.105,0,0,1,1216.245,475.97Z" transform="translate(-1215.072 -473.72)" fill="#ea907e"/>
                      </g>
                    </g>
                  </g>
                </g>
                <g id="Group_152615" data-name="Group 152615" transform="translate(10.292 8.773)">
                  <g id="Group_152614" data-name="Group 152614">
                    <g id="Group_152613" data-name="Group 152613">
                      <path id="Path_215873" data-name="Path 215873" d="M1218.161,493.537a.106.106,0,0,1-.148-.149,7.122,7.122,0,0,0,1.248-2.839.106.106,0,0,1,.211.027,7.2,7.2,0,0,1-1.29,2.94A.109.109,0,0,1,1218.161,493.537Z" transform="translate(-1217.991 -490.456)" fill="#ea907e"/>
                    </g>
                  </g>
                </g>
                <g id="Group_152617" data-name="Group 152617" transform="translate(5.064 6.838)">
                  <g id="Group_152616" data-name="Group 152616">
                    <path id="Path_215874" data-name="Path 215874" d="M1202.47,486.057a.106.106,0,0,1-.087-.167,5.8,5.8,0,0,1,1.033-1.211.106.106,0,0,1,.078.2,6.19,6.19,0,0,0-.937,1.136A.106.106,0,0,1,1202.47,486.057Z" transform="translate(-1202.363 -484.671)" fill="#4e4059"/>
                  </g>
                </g>
                <g id="Group_152619" data-name="Group 152619" transform="translate(3.008 9.333)">
                  <g id="Group_152618" data-name="Group 152618">
                    <path id="Path_215875" data-name="Path 215875" d="M1196.322,493.076a.108.108,0,0,1-.088-.046.106.106,0,0,1,.028-.147,3.188,3.188,0,0,0,.723-.706.106.106,0,0,1,.177.117,3.348,3.348,0,0,1-.78.763A.108.108,0,0,1,1196.322,493.076Z" transform="translate(-1196.215 -492.129)" fill="#4e4059"/>
                  </g>
                </g>
              </g>
              <g id="Group_152623" data-name="Group 152623" transform="translate(9.488 4.382)">
                <g id="Group_152622" data-name="Group 152622">
                  <g id="Group_152621" data-name="Group 152621">
                    <path id="Path_215876" data-name="Path 215876" d="M1205.548,469.5l3.99.064.269,1.007-4.526.021Z" transform="translate(-1205.282 -469.499)" fill="#fff"/>
                  </g>
                </g>
              </g>
              <g id="Group_152626" data-name="Group 152626">
                <g id="Group_152625" data-name="Group 152625">
                  <g id="Group_152624" data-name="Group 152624">
                    <path id="Path_215877" data-name="Path 215877" d="M1188.733,459.142a35.093,35.093,0,0,1-2.5,3.747c-.764.807-5.734,7.114-6.433,7.318s.334-2.348.334-2.348-3.4-2.98-3.209-5.317,3-5.567,5.718-6.068A6.593,6.593,0,0,1,1188.733,459.142Z" transform="translate(-1176.916 -456.399)" fill="#ffd44d"/>
                  </g>
                </g>
              </g>
              <g id="Group_152629" data-name="Group 152629" transform="translate(1.939 0.826)">
                <g id="Group_152628" data-name="Group 152628">
                  <g id="Group_152627" data-name="Group 152627">
                    <path id="Path_215878" data-name="Path 215878" d="M1185.944,467.6a.107.107,0,0,1-.13,0,9.833,9.833,0,0,1-1.731-1.759c-.454-.672-1.881-2.986-1.181-4.523a6.46,6.46,0,0,1,2.354-2.435.106.106,0,0,1,.107.183,6.368,6.368,0,0,0-2.268,2.34c-.67,1.474.852,3.854,1.164,4.317a9.814,9.814,0,0,0,1.687,1.711.106.106,0,0,1,.018.149A.113.113,0,0,1,1185.944,467.6Z" transform="translate(-1182.712 -458.868)" fill="#4e4059"/>
                  </g>
                </g>
              </g>
              <g id="Group_152632" data-name="Group 152632" transform="translate(0.109 5.068)">
                <g id="Group_152631" data-name="Group 152631">
                  <g id="Group_152630" data-name="Group 152630">
                    <path id="Path_215879" data-name="Path 215879" d="M1180.96,477.308a.106.106,0,0,1-.129,0,12.7,12.7,0,0,1-2.57-2.746,7.628,7.628,0,0,1-1.018-2.892.106.106,0,1,1,.211-.022,7.577,7.577,0,0,0,.988,2.8,12.718,12.718,0,0,0,2.52,2.69.106.106,0,0,1,.018.149A.1.1,0,0,1,1180.96,477.308Z" transform="translate(-1177.242 -471.551)" fill="#4e4059"/>
                  </g>
                </g>
              </g>
            </g>
            <g id="Group_152635" data-name="Group 152635" transform="translate(46.071 9.76)">
              <g id="Group_152634" data-name="Group 152634">
                <path id="Path_215880" data-name="Path 215880" d="M1262.841,524.16l-5.8-14.267s-7.78,3.272-10.754,2.218-21.166-26.534-21.166-26.534a15.052,15.052,0,0,0-2.727,1.087s5.637,10.748,8.053,13.35l-6.861,4.194s-6.622-9.311-7.779-12.461a11.277,11.277,0,0,0-1.916,2.777s11.037,17.171,11.964,20.888,1.671,6.951,1.671,6.951,12.788,3.244,18.394,3.456S1262.841,524.16,1262.841,524.16Z" transform="translate(-1213.89 -485.578)" fill="#ff9343"/>
              </g>
            </g>
            <g id="Group_152658" data-name="Group 152658" transform="translate(0 62.581)">
              <g id="Group_152637" data-name="Group 152637" transform="translate(26.94 11.008)">
                <g id="Group_152636" data-name="Group 152636">
                  <path id="Path_215881" data-name="Path 215881" d="M1156.7,680.445c.207.9,1.352,1.227,1.352,1.227l3.435-5.263a10.268,10.268,0,0,0-2.811,1.182C1157.439,678.5,1156.6,679.993,1156.7,680.445Z" transform="translate(-1156.694 -676.408)" fill="#ffbe91"/>
                </g>
              </g>
              <g id="Group_152655" data-name="Group 152655">
                <g id="Group_152640" data-name="Group 152640" transform="translate(9.896)">
                  <g id="Group_152639" data-name="Group 152639">
                    <g id="Group_152638" data-name="Group 152638">
                      <path id="Path_215882" data-name="Path 215882" d="M1132.978,661.053q.026-.057.049-.116a1.647,1.647,0,0,0-.816-2.054c-2.261-1.122-5.96-2.237-6.969-3.407a29.856,29.856,0,0,0-4.938-3.59,1.5,1.5,0,0,1-.539-1.96c.617-1.206,1-2.6.54-3.464a7.214,7.214,0,0,0-2.426-2.664c-1.316-.864-4.234.316-5.455,1.31l-6.255,5.093a2.044,2.044,0,0,0-.429.481,17.316,17.316,0,0,1,3.827,3.122,13.49,13.49,0,0,1,2.935,3.995,2.051,2.051,0,0,0,.336-.275l.382-.388a1.152,1.152,0,0,1,1.432-.163.814.814,0,0,0,.566.162c.557-.124,1.2-1.625,2.117-1.084s1.218,2.345,2.281,2.118,1.08-.6,1.717-.4,5,4.406,5.536,5.188l1.3,1.141a1.832,1.832,0,0,0,2.53-.107A13.388,13.388,0,0,0,1132.978,661.053Z" transform="translate(-1105.738 -643.496)" fill="#ffd44d"/>
                    </g>
                  </g>
                </g>
                <g id="Group_152642" data-name="Group 152642" transform="translate(19.762 12.16)">
                  <g id="Group_152641" data-name="Group 152641">
                    <path id="Path_215883" data-name="Path 215883" d="M1135.234,681.075a10.741,10.741,0,0,1,1.1,1.443.531.531,0,0,0,.815.122l1.364-1.242s-.346-1.373-1.305-1.434S1136.34,679.411,1135.234,681.075Z" transform="translate(-1135.234 -679.85)" fill="#ffd44d"/>
                  </g>
                </g>
                <g id="Group_152645" data-name="Group 152645" transform="translate(0 17.332)">
                  <g id="Group_152644" data-name="Group 152644" transform="translate(0 0)">
                    <g id="Group_152643" data-name="Group 152643">
                      <rect id="Rectangle_45323" data-name="Rectangle 45323" width="7.376" height="0.747" rx="0.218" transform="translate(0 4.966) rotate(-42.322)" fill="#ddc1a4"/>
                    </g>
                  </g>
                </g>
                <g id="Group_152647" data-name="Group 152647" transform="translate(3.511 11.741)">
                  <g id="Group_152646" data-name="Group 152646">
                    <path id="Path_215884" data-name="Path 215884" d="M1087.677,681.254a3.169,3.169,0,0,0-.208,4.463h0a3.168,3.168,0,0,0,4.463.209l2.917-2.656-4.254-4.672Z" transform="translate(-1086.649 -678.598)" fill="#4e4059"/>
                  </g>
                </g>
                <g id="Group_152649" data-name="Group 152649" transform="translate(6.142 7.947)">
                  <g id="Group_152648" data-name="Group 152648">
                    <path id="Path_215885" data-name="Path 215885" d="M1095.415,670.892c-1.646,1.5-.771,2.939.523,4.361,1.324,1.454,2.647,2.427,4.293.928l3.919-3.2-5.21-5.722Z" transform="translate(-1094.515 -667.256)" fill="#4e4059"/>
                  </g>
                </g>
                <g id="Group_152651" data-name="Group 152651" transform="translate(9.476 7.185)">
                  <g id="Group_152650" data-name="Group 152650">
                    <path id="Path_215886" data-name="Path 215886" d="M1108.73,668.1a17.316,17.316,0,0,0-3.828-3.122,2.038,2.038,0,0,0-.309.875l-.111,1.013,2.54,2.789,2.539,2.789,1.019-.016a2.035,2.035,0,0,0,1.084-.333A13.485,13.485,0,0,0,1108.73,668.1Z" transform="translate(-1104.483 -664.976)" fill="#ffd44d"/>
                  </g>
                </g>
                <g id="Group_152654" data-name="Group 152654" transform="translate(25.336 12.334)">
                  <g id="Group_152653" data-name="Group 152653">
                    <g id="Group_152652" data-name="Group 152652">
                      <path id="Path_215887" data-name="Path 215887" d="M1159.686,686.065c.6-1.266-3.914-5.689-5.728-5.695a2.193,2.193,0,0,0-2.06,1.9,1.342,1.342,0,0,1,.152.039c.637.2,5,4.406,5.536,5.188A3.913,3.913,0,0,0,1159.686,686.065Z" transform="translate(-1151.898 -680.371)" fill="#4e4059"/>
                    </g>
                  </g>
                </g>
              </g>
              <g id="Group_152657" data-name="Group 152657" transform="translate(26.772 10.744)">
                <g id="Group_152656" data-name="Group 152656">
                  <path id="Path_215888" data-name="Path 215888" d="M1161.184,675.863l-.029.018-2.864,4.076c-.6.767-1.074,1.125-1.885,2.208-.7.935.484,2.025,1.052,2.075a3.005,3.005,0,0,1,1.874.715c.648.45,1.211-.724,1.8-.523s1.264.51,1.574.114,3.3-4.93,3.068-6.457S1163.791,675,1161.184,675.863Z" transform="translate(-1156.19 -675.616)" fill="#ffbe91"/>
                </g>
              </g>
            </g>
            <g id="Group_152663" data-name="Group 152663" transform="translate(31.755 12.858)">
              <g id="Group_152660" data-name="Group 152660" transform="translate(0 22.511)">
                <g id="Group_152659" data-name="Group 152659">
                  <path id="Path_215889" data-name="Path 215889" d="M1192.216,562.14c-1.495,4.409-2.442,7.731-2.442,7.731s-21.55,30.924-18.364,34.587c3.233,3.719,22.948-19.812,27.417-28.215a100.4,100.4,0,0,0,4.3-9.521A15.607,15.607,0,0,1,1192.216,562.14Z" transform="translate(-1171.089 -562.14)" fill="#ffbe91"/>
                </g>
              </g>
              <g id="Group_152662" data-name="Group 152662" transform="translate(21.127)">
                <g id="Group_152661" data-name="Group 152661">
                  <path id="Path_215890" data-name="Path 215890" d="M1252.281,499.807c-1.349-3.831-8.249-6.431-9.292-4.061-2.478,5.634-6.345,14.552-8.736,21.6,1.294,1.317,5.427,5.508,11.285,5.553C1249,514.2,1253.336,502.806,1252.281,499.807Z" transform="translate(-1234.253 -494.84)" fill="#fcf8eb"/>
                </g>
              </g>
            </g>
            <g id="Group_152665" data-name="Group 152665" transform="translate(66.237 48.426)">
              <g id="Group_152664" data-name="Group 152664">
                <path id="Path_215891" data-name="Path 215891" d="M1275,614.746a.478.478,0,0,1-.421-.7,12.65,12.65,0,0,0-.322-12.127.478.478,0,1,1,.8-.52,13.257,13.257,0,0,1,1.56,3.968,13.07,13.07,0,0,1-1.2,9.127A.477.477,0,0,1,1275,614.746Z" transform="translate(-1274.18 -601.179)" fill="#e26949"/>
              </g>
            </g>
            <g id="Group_152667" data-name="Group 152667" transform="translate(81.883 51.683)">
              <g id="Group_152666" data-name="Group 152666">
                <path id="Path_215892" data-name="Path 215892" d="M1328.821,616.049c-3.9,0-6.616-3.071-7.516-4.088-.09-.1-.167-.189-.209-.23a.478.478,0,0,1,.676-.676c.062.062.14.15.248.272.838.946,3.389,3.826,6.91,3.765a.478.478,0,0,1,.016.956Z" transform="translate(-1320.957 -610.916)" fill="#e26949"/>
              </g>
            </g>
            <g id="Group_152669" data-name="Group 152669" transform="translate(69.635 77.864)">
              <g id="Group_152668" data-name="Group 152668">
                <path id="Path_215893" data-name="Path 215893" d="M1284.818,699.609a.478.478,0,0,1-.2-.914c2.953-1.324,10.069-9.266,10.141-9.346a.478.478,0,0,1,.713.637c-.3.333-7.326,8.176-10.463,9.582A.474.474,0,0,1,1284.818,699.609Z" transform="translate(-1284.34 -689.189)" fill="#e26949"/>
              </g>
            </g>
            <g id="Group_152671" data-name="Group 152671" transform="translate(73.565 79.393)">
              <g id="Group_152670" data-name="Group 152670">
                <path id="Path_215894" data-name="Path 215894" d="M1296.565,702.651a.478.478,0,0,1-.311-.841c1.162-1,3.9-5.964,4.855-7.793a.478.478,0,0,1,.847.443c-.144.275-3.541,6.757-5.08,8.076A.477.477,0,0,1,1296.565,702.651Z" transform="translate(-1296.087 -693.761)" fill="#e26949"/>
              </g>
            </g>
            <g id="Group_152673" data-name="Group 152673" transform="translate(25.212 70.893)">
              <g id="Group_152672" data-name="Group 152672">
                <path id="Path_215895" data-name="Path 215895" d="M1154,668.407s-1.957,1.164-2.347,2.372a4.124,4.124,0,0,0,.778,3.509c.566.5.625-1.288.826-1.918s1.3-1.374,1.793-2.117S1154.557,668.033,1154,668.407Z" transform="translate(-1151.526 -668.347)" fill="#eda472"/>
              </g>
            </g>
            <g id="Group_152675" data-name="Group 152675" transform="translate(68.921 18.834)">
              <g id="Group_152674" data-name="Group 152674">
                <path id="Path_215896" data-name="Path 215896" d="M1282.523,521.4a.324.324,0,0,1-.1-.017.319.319,0,0,1-.2-.4,37.136,37.136,0,0,0,1.816-7.984.319.319,0,0,1,.635.053,37.8,37.8,0,0,1-1.848,8.138A.319.319,0,0,1,1282.523,521.4Z" transform="translate(-1282.204 -512.706)" fill="#e8e2cf"/>
              </g>
            </g>
          </g>
          <g id="Group_152774" data-name="Group 152774" transform="translate(172.921 98.939)">
            <g id="Group_152677" data-name="Group 152677" transform="translate(61.374 21.887)">
              <path id="Path_215897" data-name="Path 215897" d="M997.005,783.172c3.206,3.536,6.308,8.7,9.4,13.663,3,4.8,4.523,6.926,4.523,6.926s18.454-21.078,21.621-20.022-5.276,31.166-21.3,33.8c-12.806,2.1-21.57-23.491-21.964-27.4C988.981,787.079,995.824,781.869,997.005,783.172Z" transform="translate(-989.28 -782.967)" fill="#eda472"/>
            </g>
            <g id="Group_152678" data-name="Group 152678" transform="translate(62.251 21.865)">
              <path id="Path_215898" data-name="Path 215898" d="M998.919,783.127a81.809,81.809,0,0,1,5.7,7.6c1.553,2.648,4.982,7.89,4.982,7.89s-8.316,7.37-11.981,7.606-5.715-11.644-5.715-11.644S996.241,781,998.919,783.127Z" transform="translate(-991.902 -782.901)" fill="#59afce"/>
            </g>
            <g id="Group_152682" data-name="Group 152682" transform="translate(64.909 92.789)">
              <g id="Group_152679" data-name="Group 152679" transform="translate(0 5.377)">
                <path id="Path_215899" data-name="Path 215899" d="M1016.762,1017.476a1.2,1.2,0,0,0-.14-.282c-.176-.246-.4-.214-.873-.375a15.851,15.851,0,0,1-3.134-1.539c-.642-.46-2.729-2.365-3.755-3.311a3.16,3.16,0,0,0-1.567-.787c-2.323-.429-5.217.024-5.92.776-.543.581-.814,2.326-.934,3.4a5.071,5.071,0,0,1-.257,1.128c-.035.1-.072.2-.114.3a2.267,2.267,0,0,0-.178,1.364c.214.957.92,1.445,2.215,1.52s1.558-.582,2.346-.394.525.3,1.032.826a7.324,7.324,0,0,0,3.866,1.276,13.466,13.466,0,0,0,5.2-.638c1.368-.469,2.46-.938,2.592-1.67S1016.968,1018.039,1016.762,1017.476Z" transform="translate(-999.848 -1011.017)" fill="#ddc1a4"/>
              </g>
              <g id="Group_152681" data-name="Group 152681" transform="translate(1.363)">
                <g id="Group_152680" data-name="Group 152680">
                  <path id="Path_215900" data-name="Path 215900" d="M1011.386,1001.825l.263-6.884-7.726.175s.309,3.466.509,6.036a.953.953,0,0,0,.533.884C1006.408,1002.608,1010.133,1003.831,1011.386,1001.825Z" transform="translate(-1003.923 -994.941)" fill="#fff"/>
                </g>
              </g>
            </g>
            <g id="Group_152687" data-name="Group 152687" transform="translate(0 88.23)">
              <g id="Group_152684" data-name="Group 152684" transform="translate(0 1.393)">
                <g id="Group_152683" data-name="Group 152683">
                  <path id="Path_215901" data-name="Path 215901" d="M806.489,986.9a2.266,2.266,0,0,1,1.305-.433c.106,0,.212-.015.317-.026a5.043,5.043,0,0,0,1.127-.259c1.024-.362,2.713-.877,3.472-.641.983.306,2.65,2.715,3.275,4.993a3.166,3.166,0,0,1-.027,1.753c-.4,1.335-1.293,3.242-.917,4.821.3,1.258,1.469,1.713,1.865,2.008s.624.336.717.625a1.162,1.162,0,0,1,.047.311c.025.6.219.977-.131,1.634s-1.532.769-2.978.8c-.972.019-4.158-.885-4.957-1.689-1.641-2.05-2.692-7.323-2.439-8.008s.468-.5.294-1.289-.88-.742-1.375-1.941S805.72,987.505,806.489,986.9Z" transform="translate(-805.791 -985.476)" fill="#ddc1a4"/>
                </g>
              </g>
              <g id="Group_152686" data-name="Group 152686" transform="translate(6.607)">
                <g id="Group_152685" data-name="Group 152685">
                  <path id="Path_215902" data-name="Path 215902" d="M828.524,989.584l6.313-2.758-1.879-3.672a3.381,3.381,0,0,0-4.73-1.371c-.739.437-1.516.894-2.212,1.3a.949.949,0,0,0-.47.894C825.672,985.574,826.212,989.334,828.524,989.584Z" transform="translate(-825.543 -981.311)" fill="#fff"/>
                </g>
              </g>
            </g>
            <g id="Group_152689" data-name="Group 152689" transform="translate(35.371 42.363)">
              <g id="Group_152688" data-name="Group 152688">
                <path id="Path_215903" data-name="Path 215903" d="M923.459,849.127s25.028-7.366,31.123-4.117c8.558,4.561-.432,33.815.79,53,0,0-11.39,1.3-13.886-1.033a25.462,25.462,0,0,1-.568-10.4c.779-5.116.982-4.422.709-9.587-.062-1.179-.446-12.482.707-13.68,0,0-24.722,7.733-28.575,5.953C907.932,866.578,914.427,849.845,923.459,849.127Z" transform="translate(-911.54 -844.183)" fill="#ff9343"/>
              </g>
            </g>
            <g id="Group_152691" data-name="Group 152691" transform="translate(15.702 45.832)">
              <g id="Group_152690" data-name="Group 152690">
                <path id="Path_215904" data-name="Path 215904" d="M887.622,857.367l2.864,9.169-13.423,2.668-2.815,13.482s-14.546,4.862-20.149-6.371c-4.707-9.435,4.264-21.761,4.264-21.761Z" transform="translate(-852.733 -854.555)" fill="#ff9343"/>
              </g>
            </g>
            <g id="Group_152693" data-name="Group 152693" transform="translate(7.95 60.138)">
              <g id="Group_152692" data-name="Group 152692">
                <path id="Path_215905" data-name="Path 215905" d="M865.878,898.087s10.957,22.719,12.892,30.51c.668,2.688-2.075,7.231-4.865,8.683-3.971,2.067-43.387-1.981-43.387-1.981s-2.02-5.776-.2-10.216a160.933,160.933,0,0,1,17.339-2.771c2.315-.164,6.889-.8,6.889-.8a62.836,62.836,0,0,1-15.573-16.525C836.107,900.491,863.3,895.357,865.878,898.087Z" transform="translate(-829.559 -897.324)" fill="#ff9343"/>
              </g>
            </g>
            <g id="Group_152695" data-name="Group 152695" transform="translate(18.152 11.407)">
              <g id="Group_152694" data-name="Group 152694">
                <path id="Path_215906" data-name="Path 215906" d="M895.235,789.986C884,798,860.059,791.7,860.059,791.7s3.273-6.92,7.4-15.048c4.574-9.02,10.466-19.524,19.926-23.666,13.5-5.909,28.508,9.063,24.143,16.668-1.666,2.9-4.885,2.38-10.832,9.376C896.627,783.809,895.859,789.54,895.235,789.986Z" transform="translate(-860.059 -751.636)" fill="#7fd7e5"/>
              </g>
            </g>
            <g id="Group_152697" data-name="Group 152697" transform="translate(17.585 12.24)">
              <g id="Group_152696" data-name="Group 152696">
                <path id="Path_215907" data-name="Path 215907" d="M858.363,794.679l6.968-16.124s7.308,4.567,10.433,3.46,22.248-27.89,22.248-27.89a15.816,15.816,0,0,1,2.867,1.142s-5.925,11.3-8.464,14.033l7.211,4.409s6.961-9.788,8.177-13.1a11.857,11.857,0,0,1,2.014,2.918s-11.6,18.049-12.576,21.956-1.756,7.306-1.756,7.306-13.442,3.41-19.334,3.633S858.363,794.679,858.363,794.679Z" transform="translate(-858.363 -754.125)" fill="#ff9343"/>
              </g>
            </g>
            <g id="Group_152699" data-name="Group 152699" transform="translate(44.92 52.883)">
              <g id="Group_152698" data-name="Group 152698">
                <path id="Path_215908" data-name="Path 215908" d="M942.146,889.894a.5.5,0,0,0,.443-.738,13.3,13.3,0,0,1,.339-12.747.5.5,0,0,0-.843-.547,13.94,13.94,0,0,0-1.64,4.171,13.739,13.739,0,0,0,1.257,9.594A.5.5,0,0,0,942.146,889.894Z" transform="translate(-940.088 -875.634)" fill="#e26949"/>
              </g>
            </g>
            <g id="Group_152701" data-name="Group 152701" transform="translate(22.503 56.306)">
              <g id="Group_152700" data-name="Group 152700">
                <path id="Path_215909" data-name="Path 215909" d="M873.694,891.264c4.1,0,6.954-3.228,7.9-4.3.094-.107.176-.2.219-.242a.5.5,0,0,0-.71-.71c-.065.065-.147.158-.261.286-.88.994-3.562,4.022-7.263,3.957a.5.5,0,0,0-.017,1Z" transform="translate(-873.068 -885.868)" fill="#e26949"/>
              </g>
            </g>
            <g id="Group_152703" data-name="Group 152703" transform="translate(32.436 83.826)">
              <g id="Group_152702" data-name="Group 152702">
                <path id="Path_215910" data-name="Path 215910" d="M914.1,979.1a.5.5,0,0,0,.206-.961c-3.1-1.391-10.584-9.74-10.659-9.824a.5.5,0,1,0-.749.669c.313.35,7.7,8.594,11,10.071A.5.5,0,0,0,914.1,979.1Z" transform="translate(-902.765 -968.143)" fill="#e26949"/>
              </g>
            </g>
            <g id="Group_152705" data-name="Group 152705" transform="translate(33.913 85.433)">
              <g id="Group_152704" data-name="Group 152704">
                <path id="Path_215911" data-name="Path 215911" d="M912.9,982.294a.5.5,0,0,0,.327-.884c-1.222-1.047-4.1-6.268-5.1-8.192a.5.5,0,0,0-.89.465c.151.289,3.722,7.1,5.34,8.489A.5.5,0,0,0,912.9,982.294Z" transform="translate(-907.18 -972.949)" fill="#e26949"/>
              </g>
            </g>
            <g id="Group_152760" data-name="Group 152760" transform="translate(59.654)">
              <g id="Group_152747" data-name="Group 152747" transform="translate(0 3.331)">
                <g id="Group_152708" data-name="Group 152708" transform="translate(4.076 1.402)">
                  <g id="Group_152707" data-name="Group 152707">
                    <g id="Group_152706" data-name="Group 152706">
                      <path id="Path_215912" data-name="Path 215912" d="M1003.507,732.048a3.6,3.6,0,0,0-4.393.984c-1.567,1.956-2.735,3.988-2.785,4.825-.106,1.775,2.747,4.888,4.52,5.323,1.064.261,1.8-.52,2.782-1.884a22.694,22.694,0,0,0,1.256-2.184c.644-1,3.139-4.092,1.313-5.431A18.7,18.7,0,0,0,1003.507,732.048Z" transform="translate(-996.325 -731.681)" fill="#ffbe91"/>
                    </g>
                  </g>
                </g>
                <g id="Group_152711" data-name="Group 152711" transform="translate(4.174)">
                  <g id="Group_152710" data-name="Group 152710">
                    <g id="Group_152709" data-name="Group 152709">
                      <path id="Path_215913" data-name="Path 215913" d="M1001.155,730.8c-.688.422-1.663,1.748-2.4,1.994a1.961,1.961,0,0,1-2.02-1.03,2.218,2.218,0,0,1,.811-2.467c1.517-1.806,2.07-2.036,3.431-1.634S1002.2,730.157,1001.155,730.8Z" transform="translate(-996.617 -727.489)" fill="#f3e990"/>
                    </g>
                  </g>
                </g>
                <g id="Group_152714" data-name="Group 152714" transform="translate(0 6.026)">
                  <g id="Group_152713" data-name="Group 152713">
                    <g id="Group_152712" data-name="Group 152712">
                      <path id="Path_215914" data-name="Path 215914" d="M988.786,745.506s-4.754,6.2-4.645,6.742c.232,1.166,2.879,3.06,3.637,3s3.761-5.754,3.761-5.754Z" transform="translate(-984.138 -745.506)" fill="#ffbe91"/>
                    </g>
                  </g>
                </g>
                <g id="Group_152717" data-name="Group 152717" transform="translate(9.159 9.186)">
                  <g id="Group_152716" data-name="Group 152716">
                    <g id="Group_152715" data-name="Group 152715">
                      <path id="Path_215915" data-name="Path 215915" d="M1011.521,754.953s1.25.643,2.07,1.136a.805.805,0,0,1-1.175.3A2.07,2.07,0,0,1,1011.521,754.953Z" transform="translate(-1011.521 -754.953)" fill="#fff"/>
                    </g>
                  </g>
                </g>
                <g id="Group_152720" data-name="Group 152720" transform="translate(10.258 7.544)">
                  <g id="Group_152719" data-name="Group 152719">
                    <g id="Group_152718" data-name="Group 152718">
                      <path id="Path_215916" data-name="Path 215916" d="M1015.575,750.075a.1.1,0,0,1,.173.065,3.275,3.275,0,0,0,.311,1.138c.332.7.049,1.054-.64.514s-.715-.636-.467-1.01A6.036,6.036,0,0,1,1015.575,750.075Z" transform="translate(-1014.807 -750.045)" fill="#ea907e"/>
                    </g>
                  </g>
                </g>
                <g id="Group_152723" data-name="Group 152723" transform="translate(9.445 6.208)">
                  <g id="Group_152722" data-name="Group 152722">
                    <g id="Group_152721" data-name="Group 152721">
                      <path id="Path_215917" data-name="Path 215917" d="M1013.3,746.5s-.281.669-.705.439-.11-.836-.015-.88A.726.726,0,0,1,1013.3,746.5Z" transform="translate(-1012.376 -746.048)" fill="#4e4059"/>
                    </g>
                  </g>
                </g>
                <g id="Group_152726" data-name="Group 152726" transform="translate(11.92 7.66)">
                  <g id="Group_152725" data-name="Group 152725">
                    <g id="Group_152724" data-name="Group 152724">
                      <path id="Path_215918" data-name="Path 215918" d="M1020.561,750.721s-.319.639-.646.485.013-.74.1-.791A.438.438,0,0,1,1020.561,750.721Z" transform="translate(-1019.776 -750.392)" fill="#4e4059"/>
                    </g>
                  </g>
                </g>
                <g id="Group_152729" data-name="Group 152729" transform="translate(9.252 4.661)">
                  <g id="Group_152728" data-name="Group 152728">
                    <g id="Group_152727" data-name="Group 152727">
                      <path id="Path_215919" data-name="Path 215919" d="M1013.678,742.491a.1.1,0,0,0,.093-.174,6.562,6.562,0,0,0-1.844-.889.1.1,0,0,0-.123.068.1.1,0,0,0,.068.123,6.465,6.465,0,0,1,1.783.859A.1.1,0,0,0,1013.678,742.491Z" transform="translate(-1011.799 -741.424)" fill="#4e4059"/>
                    </g>
                  </g>
                </g>
                <g id="Group_152732" data-name="Group 152732" transform="translate(12.548 6.385)">
                  <g id="Group_152731" data-name="Group 152731">
                    <g id="Group_152730" data-name="Group 152730">
                      <path id="Path_215920" data-name="Path 215920" d="M1022.591,747.494a.1.1,0,0,0,.1-.17l-.872-.722a.1.1,0,0,0-.127.154l.872.722A.1.1,0,0,0,1022.591,747.494Z" transform="translate(-1021.654 -746.579)" fill="#4e4059"/>
                    </g>
                  </g>
                </g>
                <g id="Group_152739" data-name="Group 152739" transform="translate(3.941 3.294)">
                  <g id="Group_152735" data-name="Group 152735">
                    <g id="Group_152734" data-name="Group 152734">
                      <g id="Group_152733" data-name="Group 152733">
                        <path id="Path_215921" data-name="Path 215921" d="M997.977,738.6a1.341,1.341,0,0,0-.33-.961.808.808,0,0,0-1.223-.052c-1.049.81-.286,3.442.695,2.945C997.806,740.184,997.952,739.174,997.977,738.6Z" transform="translate(-995.921 -737.337)" fill="#ffbe91"/>
                      </g>
                    </g>
                  </g>
                  <g id="Group_152738" data-name="Group 152738" transform="translate(0.466 0.511)">
                    <g id="Group_152737" data-name="Group 152737">
                      <g id="Group_152736" data-name="Group 152736">
                        <path id="Path_215922" data-name="Path 215922" d="M997.735,741.133a.1.1,0,0,0,.1-.015c.015-.013.38-.309.242-.608a.669.669,0,0,0-.343-.282c-.107-.053-.207-.1-.214-.167a1.318,1.318,0,0,1,.213-.834.361.361,0,0,1,.371-.154.1.1,0,0,0,.054-.191.556.556,0,0,0-.584.225,1.515,1.515,0,0,0-.252.976c.019.172.181.252.323.323a.529.529,0,0,1,.251.187c.06.131-.118.315-.186.37a.1.1,0,0,0-.015.14A.1.1,0,0,0,997.735,741.133Z" transform="translate(-997.313 -738.866)" fill="#ea907e"/>
                      </g>
                    </g>
                  </g>
                </g>
                <g id="Group_152742" data-name="Group 152742" transform="translate(4.611 9.391)">
                  <g id="Group_152741" data-name="Group 152741">
                    <g id="Group_152740" data-name="Group 152740">
                      <path id="Path_215923" data-name="Path 215923" d="M999.912,758.006a.1.1,0,0,0,.093-.174,6.676,6.676,0,0,1-1.89-2.207.1.1,0,0,0-.182.082,6.744,6.744,0,0,0,1.955,2.286A.091.091,0,0,0,999.912,758.006Z" transform="translate(-997.924 -755.566)" fill="#ea907e"/>
                    </g>
                  </g>
                </g>
                <g id="Group_152744" data-name="Group 152744" transform="translate(9.233 5.855)">
                  <g id="Group_152743" data-name="Group 152743">
                    <path id="Path_215924" data-name="Path 215924" d="M1013.071,745.974a.1.1,0,0,0,.05-.034.1.1,0,0,0-.017-.14,5.406,5.406,0,0,0-1.255-.806.1.1,0,0,0-.016.2,5.8,5.8,0,0,1,1.149.764A.1.1,0,0,0,1013.071,745.974Z" transform="translate(-1011.741 -744.994)" fill="#4e4059"/>
                  </g>
                </g>
                <g id="Group_152746" data-name="Group 152746" transform="translate(11.964 7.47)">
                  <g id="Group_152745" data-name="Group 152745">
                    <path id="Path_215925" data-name="Path 215925" d="M1020.907,750.473a.1.1,0,0,0,.066-.065.1.1,0,0,0-.065-.125,2.99,2.99,0,0,1-.84-.437.1.1,0,0,0-.127.154,3.142,3.142,0,0,0,.907.473A.1.1,0,0,0,1020.907,750.473Z" transform="translate(-1019.906 -749.824)" fill="#4e4059"/>
                  </g>
                </g>
              </g>
              <g id="Group_152750" data-name="Group 152750" transform="translate(4.024 4.983)">
                <g id="Group_152749" data-name="Group 152749">
                  <g id="Group_152748" data-name="Group 152748">
                    <path id="Path_215926" data-name="Path 215926" d="M999.729,732.43l-3.561,1.141.032.976,4.065-1.21Z" transform="translate(-996.168 -732.43)" fill="#fff"/>
                  </g>
                </g>
              </g>
              <g id="Group_152753" data-name="Group 152753" transform="translate(5.289)">
                <g id="Group_152752" data-name="Group 152752">
                  <g id="Group_152751" data-name="Group 152751">
                    <path id="Path_215927" data-name="Path 215927" d="M999.952,721.6a32.825,32.825,0,0,0,3.262,2.681c.9.516,7.074,4.823,7.757,4.817s-.937-2.016-.937-2.016,2.239-3.6,1.434-5.64-4.2-4.178-6.777-3.889A6.18,6.18,0,0,0,999.952,721.6Z" transform="translate(-999.952 -717.531)" fill="#ffd44d"/>
                  </g>
                </g>
              </g>
              <g id="Group_152756" data-name="Group 152756" transform="translate(11.228 0.373)">
                <g id="Group_152755" data-name="Group 152755">
                  <g id="Group_152754" data-name="Group 152754">
                    <path id="Path_215928" data-name="Path 215928" d="M1019.581,726.654a.1.1,0,0,0,.116-.036,9.219,9.219,0,0,0,1.075-2.048c.224-.727.876-3.189-.169-4.378a6.055,6.055,0,0,0-2.773-1.545.1.1,0,0,0-.047.194,5.965,5.965,0,0,1,2.67,1.482c1,1.14.283,3.688.128,4.187a9.172,9.172,0,0,1-1.048,1.992.1.1,0,0,0,.024.139A.11.11,0,0,0,1019.581,726.654Z" transform="translate(-1017.708 -718.645)" fill="#4e4059"/>
                  </g>
                </g>
              </g>
              <g id="Group_152759" data-name="Group 152759" transform="translate(14.585 3.004)">
                <g id="Group_152758" data-name="Group 152758">
                  <g id="Group_152757" data-name="Group 152757">
                    <path id="Path_215929" data-name="Path 215929" d="M1027.809,732.661a.1.1,0,0,0,.116-.036,11.9,11.9,0,0,0,1.56-3.161,7.152,7.152,0,0,0,.127-2.871.1.1,0,1,0-.2.037,7.089,7.089,0,0,1-.125,2.783,11.925,11.925,0,0,1-1.53,3.1.1.1,0,0,0,.025.139A.108.108,0,0,0,1027.809,732.661Z" transform="translate(-1027.743 -726.513)" fill="#4e4059"/>
                  </g>
                </g>
              </g>
            </g>
            <g id="Group_152761" data-name="Group 152761" transform="translate(42.704 12.981)">
              <path id="Path_215930" data-name="Path 215930" d="M940.673,756.868c3.586,2.844,3.942,9.334,4.769,15.126a101.4,101.4,0,0,0,2.128,10.562s24.609-14.22,27.078-11.974-18.238,29.946-32.2,26.6c-12.621-3.021-8.638-34.23-7.419-37.961C935.983,756.3,939.295,755.775,940.673,756.868Z" transform="translate(-933.462 -756.341)" fill="#ffbe91"/>
            </g>
            <g id="Group_152764" data-name="Group 152764" transform="translate(80.441 25.102)">
              <g id="Group_152763" data-name="Group 152763">
                <g id="Group_152762" data-name="Group 152762">
                  <path id="Path_215931" data-name="Path 215931" d="M1047.009,794.852s1.073-1.686,1.784-1.945.823.206,2.306-.219c.906-.26,1.3-.032.743.475s-1.467.428-1.736.921-2.4,2.816-3.438,2.41S1047.009,794.852,1047.009,794.852Z" transform="translate(-1046.283 -792.579)" fill="#ffbe91"/>
                </g>
              </g>
            </g>
            <g id="Group_152765" data-name="Group 152765" transform="translate(83.348 15.093)">
              <path id="Path_215932" data-name="Path 215932" d="M1093.626,797.7l-38.652-7.275V762.654l38.652,7.275Z" transform="translate(-1054.974 -762.654)" fill="#a3544a"/>
            </g>
            <g id="Group_152769" data-name="Group 152769" transform="translate(79.319 26.272)">
              <g id="Group_152768" data-name="Group 152768">
                <g id="Group_152767" data-name="Group 152767">
                  <g id="Group_152766" data-name="Group 152766">
                    <path id="Path_215933" data-name="Path 215933" d="M1042.983,798.241s2.5-1.582,3.1-1.871a10.127,10.127,0,0,1,3.506-.284c1.728-.014,3.4-.051,3.532.217.236.465-2.691.975-2.639,1.185s2.849-.924,2.956-.534-2.63,1.373-2.672,1.575,1.941-.823,1.961-.433c.024.452-2.2,1.273-2.2,1.472s.8-.37.991.057-2.11.793-2.776.924-2.678,1.031-4.037.808C1043.726,801.2,1042.676,798.533,1042.983,798.241Z" transform="translate(-1042.928 -796.077)" fill="#ffbe91"/>
                  </g>
                </g>
              </g>
            </g>
            <g id="Group_152770" data-name="Group 152770" transform="translate(42.266 12.464)">
              <path id="Path_215934" data-name="Path 215934" d="M932.393,782.118s10.326.828,14.267-3.232c0,0-1.971-12.021-2.8-16.75-.69-3.945-2.562-7.012-4.493-7.289a5.327,5.327,0,0,0-5.045,1.969c-.867,1.419-2.246,8.474-2.167,12.3S932.393,782.118,932.393,782.118Z" transform="translate(-932.153 -754.793)" fill="#7fd7e5"/>
            </g>
            <g id="Group_152771" data-name="Group 152771" transform="translate(49.974 38.902)">
              <path id="Path_215935" data-name="Path 215935" d="M955.494,840.613a.293.293,0,0,1-.141-.036.3.3,0,0,1-.117-.4c2.107-3.857,6.478-6.209,6.663-6.307a.3.3,0,1,1,.277.522c-.044.023-4.4,2.37-6.422,6.068A.3.3,0,0,1,955.494,840.613Z" transform="translate(-955.199 -833.835)" fill="#ea907e"/>
            </g>
            <g id="Group_152772" data-name="Group 152772" transform="translate(65.811 52.528)">
              <path id="Path_215936" data-name="Path 215936" d="M1002.9,883.9a.355.355,0,0,1-.329-.486c.1-.257,2.541-6.308,6.168-8.776a.355.355,0,0,1,.4.587c-3.449,2.346-5.883,8.39-5.907,8.451A.355.355,0,0,1,1002.9,883.9Z" transform="translate(-1002.544 -874.573)" fill="#e26949"/>
            </g>
            <g id="Group_152773" data-name="Group 152773" transform="translate(41.928 17.048)">
              <path id="Path_215937" data-name="Path 215937" d="M931.585,783.808a.237.237,0,0,1-.235-.214c-.19-2.014-.21-6.328-.206-8.72,0-1.479.017-3.036.039-4.271.033-1.892.054-1.924.1-2a.237.237,0,0,1,.428.189c-.078.6-.212,11.324.111,14.753a.237.237,0,0,1-.214.258Zm.1-14.947h0Zm0,0h0Z" transform="translate(-931.144 -768.498)" fill="#59afce"/>
            </g>
          </g>
          <g id="Group_152776" data-name="Group 152776" transform="translate(300.133 91.378)">
            <g id="Group_152775" data-name="Group 152775">
              <path id="Path_215938" data-name="Path 215938" d="M1274.277,830.053c-.089-.057-8.867-5.714-9.776-11.167-.977-5.863-10.053-26.733-17.649-39.248-5.876-9.682-9.781-12.1-15.184-15.437-1.649-1.02-3.518-2.175-5.6-3.651-8.958-6.344-14.689-24.771-19.114-41.958a36.489,36.489,0,0,0-5.227-11.65,33.427,33.427,0,0,0-6.769-7.245,28.34,28.34,0,0,0-8.381-4.756.355.355,0,0,0-.209.678,28.1,28.1,0,0,1,8.15,4.634,34.056,34.056,0,0,1,11.749,18.516c4.457,17.312,10.246,35.884,19.391,42.361,2.1,1.488,3.98,2.65,5.638,3.675,5.32,3.289,9.163,5.666,14.951,15.2,7.561,12.457,16.588,33.19,17.555,39,.848,5.089,7.773,10.084,9.642,11.349h1A.355.355,0,0,0,1274.277,830.053Z" transform="translate(-1186.116 -694.924)" fill="#4e4059"/>
            </g>
          </g>
          <g id="Group_152777" data-name="Group 152777" transform="translate(514.928 0.56)">
            <path id="Path_215939" data-name="Path 215939" d="M1828.284,435.367h52.59a5.712,5.712,0,0,0-4.681-3.3,32.134,32.134,0,0,0-7.012,0s-.292-7.559-12.521-8.577a23.822,23.822,0,0,0-19.432,7.85S1829.358,430.817,1828.284,435.367Z" transform="translate(-1828.284 -423.408)" fill="#f7f4e9"/>
          </g>
          <g id="Group_152778" data-name="Group 152778" transform="translate(616.532 44.08)">
            <path id="Path_215940" data-name="Path 215940" d="M2132.049,568.946h46.866s4.129-3.428,4.345-8.325-10.953,1.224-10.953,1.224,3.019-7.591-3.13-8.08-11.522,8.815-11.522,8.815-4.063-4.407-7.494-2.448-4.29,3.183-4.29,3.183-2.145-11.546-7.435-9.568S2132.049,568.946,2132.049,568.946Z" transform="translate(-2132.049 -553.519)" fill="#f7f4e9"/>
          </g>
          <g id="Group_152779" data-name="Group 152779" transform="translate(185.549 34.637)">
            <path id="Path_215941" data-name="Path 215941" d="M843.545,545.348h55.561s3.163-3.108-.122-4.1-7.744,0-7.744,0,11.521-14.249-8.7-15.833-24.181,11.79-24.181,11.79-2.884-1.89-10.382,2.064A7.911,7.911,0,0,0,843.545,545.348Z" transform="translate(-843.545 -525.287)" fill="#f7f4e9"/>
          </g>
          <g id="Group_152780" data-name="Group 152780" transform="translate(351.836)">
            <path id="Path_215942" data-name="Path 215942" d="M1340.691,439.333h44.8s1.406-6.163-4.19-6.559-7.357,1.822-7.357,1.822,6.634-9.183-1.068-12.422-25.22,12.422-25.22,12.422S1343.768,432.395,1340.691,439.333Z" transform="translate(-1340.691 -421.733)" fill="#f7f4e9"/>
          </g>
        </g>
      </g>
    </g>
  </g>
</svg>
