<svg xmlns="http://www.w3.org/2000/svg" width="523.444" height="298.889" viewBox="0 0 523.444 298.889">
  <g id="Group_157321" data-name="Group 157321" transform="translate(-811.557 -1575.237)">
    <path id="Path_215568" data-name="Path 215568" d="M14.31,52.55c-.272,0-.528-.069-.791-.086-.268.017-.519.086-.791.086V63.775a12.739,12.739,0,0,1,1.583-.156,13.046,13.046,0,0,1,0,26.091,12.739,12.739,0,0,1-1.583-.16V100.94a12.741,12.741,0,0,1,1.583-.16,13.048,13.048,0,0,1,0,26.1,12.736,12.736,0,0,1-1.583-.16V138.1a12.741,12.741,0,0,1,1.583-.16,13.046,13.046,0,0,1,0,26.091,13.618,13.618,0,0,1-1.583-.156v11.385a12.738,12.738,0,0,1,1.583-.16,13.05,13.05,0,0,1,0,26.1,13.623,13.623,0,0,1-1.583-.164v11.385a13.624,13.624,0,0,1,1.583-.151,13.043,13.043,0,1,1,0,26.087,11.959,11.959,0,0,1-1.583-.16V249.6a11.969,11.969,0,0,1,1.583-.16,13.048,13.048,0,0,1,0,26.1,13.626,13.626,0,0,1-1.583-.16v11.385a13.619,13.619,0,0,1,1.583-.16,13.048,13.048,0,0,1,0,26.1,12.735,12.735,0,0,1-1.583-.16v11.389a12.741,12.741,0,0,1,1.583-.16,13.045,13.045,0,0,1,13.046,13.05,13.548,13.548,0,0,1-.16,1.578h9.729a12.986,12.986,0,0,1,25.931,0H74.085a12.988,12.988,0,0,1,25.935,0H111.25a12.986,12.986,0,0,1,25.931,0H148.41a12.991,12.991,0,0,1,25.94,0h11.225a12.988,12.988,0,0,1,25.935,0H222.74a12.986,12.986,0,0,1,25.931,0H259.9a12.986,12.986,0,0,1,25.931,0h11.229a12.986,12.986,0,0,1,25.931,0h11.229a12.989,12.989,0,0,1,25.935,0H371.4a12.986,12.986,0,0,1,25.931,0h11.229a12.988,12.988,0,0,1,25.935,0h11.229a12.984,12.984,0,0,1,25.927,0h11.234a12.988,12.988,0,0,1,25.935,0h10.516a13.559,13.559,0,0,1-.16-1.578,13.045,13.045,0,0,1,13.046-13.05,12.7,12.7,0,0,1,3.952.679V312.012a13.047,13.047,0,1,1,0-24.742V274.847a12.7,12.7,0,0,1-3.952.683,13.049,13.049,0,1,1,3.952-25.421V237.687a12.694,12.694,0,0,1-3.952.675,13.043,13.043,0,1,1,0-26.087,12.822,12.822,0,0,1,3.952.675V200.526a13.021,13.021,0,1,1-3.952-25.421,12.824,12.824,0,0,1,3.952.679V163.361a12.821,12.821,0,0,1-3.952.675,13.046,13.046,0,0,1,0-26.091,12.822,12.822,0,0,1,3.952.675V126.2a12.823,12.823,0,0,1-3.952.679,13.049,13.049,0,1,1,3.952-25.421V89.032a12.824,12.824,0,0,1-3.952.679,13.046,13.046,0,0,1,0-26.091,12.821,12.821,0,0,1,3.952.675V52.113a12.694,12.694,0,0,1-3.156.437c-.143,0-.264-.039-.4-.043s-.264.043-.4.043A13.048,13.048,0,0,1,519.173,39.5H508.895a13.048,13.048,0,1,1-26.1,0H471.734a13.048,13.048,0,1,1-26.1,0H434.565a13.046,13.046,0,1,1-26.091,0H397.4a13.048,13.048,0,1,1-26.1,0H360.244a13.048,13.048,0,1,1-26.1,0H323.079a13.046,13.046,0,1,1-26.091,0H285.914a13.046,13.046,0,1,1-26.091,0h-11.07a13.048,13.048,0,1,1-26.1,0H211.588a13.046,13.046,0,1,1-26.091,0H174.428a13.048,13.048,0,1,1-26.1,0H137.263a13.046,13.046,0,1,1-26.091,0H100.1a13.048,13.048,0,1,1-26.1,0H62.933a13.043,13.043,0,1,1-26.087,0H27.355A13.048,13.048,0,0,1,14.31,52.55Z" transform="translate(798.83 1535.737)" fill="#50a31a"/>
    <path id="Path_221741" data-name="Path 221741" d="M0,0H473.965V249.87H0Z" transform="translate(836.299 1599.748)" fill="#fff"/>
    <path id="Path_215569" data-name="Path 215569" d="M192.4,96.974A410.975,410.975,0,0,1,219.293,65.4c-53.6-17.746-92.711-.964-109.354,22.783-13.443,19.19-10.78,33.714-10.78,33.714,24.928-22.749,56.078-31.245,56.078-31.245-23.536,11.519-52.182,37.446-52.182,37.446C143.255,147.266,171.111,125.089,192.4,96.974Z" transform="translate(1085.417 1597.217)" fill="#296e0e"/>
    <path id="Path_215570" data-name="Path 215570" d="M158.027,87.368a381.125,381.125,0,0,1,4.618-37.961c-50.254,13.6-71.813,46.414-72.531,73.149-.592,21.6,8.856,31.418,8.856,31.418,7.606-30.186,27.246-52.567,27.246-52.567-12.237,20.833-21.106,55.352-21.106,55.352C145.8,151.065,155.938,119.832,158.027,87.368Z" transform="translate(1055.975 1568.668)" fill="#50a31a"/>
    <path id="Path_215571" data-name="Path 215571" d="M125.419,82.75a318.8,318.8,0,0,1-8.579-31.185c-34.925,26.792-41.26,59.382-33.226,80.522,6.486,17.08,17.032,21.732,17.032,21.732-3.758-26.056,4.41-49.869,4.41-49.869-2.871,20.219,1.3,50.063,1.3,50.063C136.337,136.484,134.222,108.8,125.419,82.75Z" transform="translate(1024.124 1575.842)" fill="#92e537"/>
    <path id="Path_215572" data-name="Path 215572" d="M43.369,112.291a341.029,341.029,0,0,1-22.355,26.26c44.563,14.754,77.076.8,90.908-18.944,11.182-15.951,8.964-28.028,8.964-28.028-20.725,18.909-46.617,25.974-46.617,25.974,19.562-9.573,43.383-31.129,43.383-31.129C84.222,70.482,61.072,88.924,43.369,112.291Z" transform="translate(826.376 1671.839)" fill="#296e0e"/>
    <path id="Path_215573" data-name="Path 215573" d="M41.409,139.5a315.912,315.912,0,0,1-3.844,31.557c41.783-11.307,59.706-38.583,60.307-60.813.489-17.958-7.364-26.121-7.364-26.121-6.326,25.1-22.654,43.7-22.654,43.7C78.029,110.5,85.4,81.8,85.4,81.8,51.57,86.54,43.143,112.5,41.409,139.5Z" transform="translate(881.391 1676.359)" fill="#50a31a"/>
    <path id="Path_215574" data-name="Path 215574" d="M54.521,140.2a265.308,265.308,0,0,1,7.13,25.927c29.036-22.277,34.3-49.372,27.622-66.944-5.392-14.2-14.161-18.066-14.161-18.066,3.126,21.663-3.667,41.45-3.667,41.45,2.391-16.807-1.077-41.619-1.077-41.619C45.437,95.529,47.2,118.546,54.521,140.2Z" transform="translate(921.871 1673.527)" fill="#92e537"/>
    <path id="Path_215575" data-name="Path 215575" d="M76.211,151.151H29.352v-98.8h47.14v2.681H32.033V92.859H64.217l-.99,2.685H32.033v52.93H76.211Z" transform="translate(854.091 1578.458)" fill="#296e0e"/>
    <path id="Path_215576" data-name="Path 215576" d="M71.519,151.249q10.306,0,22.727-4.8l.843,2.542a63.082,63.082,0,0,1-22.861,4.661q-2.264,0-6.849-.428a25.742,25.742,0,0,1-9.738-3.178,20.223,20.223,0,0,1-8.328-8.752q-3.172-5.993-3.174-14.888V81.1q0-10.721,3.031-16.232a25.378,25.378,0,0,1,9.249-9.314,30.127,30.127,0,0,1,15.1-3.528A41.474,41.474,0,0,1,91.56,56.683l-1.129,2.4a45.835,45.835,0,0,0-18.49-4.376,30.128,30.128,0,0,0-11.147,1.9,22.573,22.573,0,0,0-7.481,4.519,21.046,21.046,0,0,0-4.588,7.411,30.5,30.5,0,0,0-1.907,11.29v46.3q0,9.178,3.74,15.169a18.057,18.057,0,0,0,9.387,7.978A34.622,34.622,0,0,0,71.519,151.249Z" transform="translate(903.243 1577.374)" fill="#296e0e"/>
    <path id="Path_215577" data-name="Path 215577" d="M117.355,81.471v45.307q0,14.256-8.678,20.958t-20.82,6.7a33.6,33.6,0,0,1-20.959-6.7q-8.827-6.7-8.821-20.958V81.328q0-14.535,7.973-22.018T88,51.83q13.971,0,21.663,7.9T117.355,81.471Zm-2.681,45.445V80.9q0-12.135-6.776-19.125T87.714,54.792q-13.407,0-20.18,7.13T60.758,81.19v45.726q0,12.285,7.9,18.563t19.2,6.283q11.292,0,19.056-5.928T114.674,126.916Z" transform="translate(949.573 1576.723)" fill="#296e0e"/>
    <path id="Path_215578" data-name="Path 215578" d="M69.262,130.306H64.41V83.131H86.921v4.713H69.262v14.624H80.18l-1.82,4.713h-9.1Z" transform="translate(970.625 1680.768)" fill="#296e0e"/>
    <path id="Path_215579" data-name="Path 215579" d="M100.694,130.306H95.7l-5.323-15.64a19.505,19.505,0,0,1-2.158.134H76.229v15.506H71.377V83.131H87.752q6.467,0,9.673,4.1,3.2,4.119,3.2,10.784,0,8.3-2.564,12.068a10.225,10.225,0,0,1-3.17,3.031ZM76.229,110.087H87.622q3.969,0,5.725-2.3a16.042,16.042,0,0,0,1.314-2.153,8.289,8.289,0,0,0,.709-2.694,41.821,41.821,0,0,0,.264-4.925q0-10.17-8.622-10.174H76.229Z" transform="translate(993.783 1680.768)" fill="#296e0e"/>
    <path id="Path_215580" data-name="Path 215580" d="M89.254,130.306H84.4V87.71l-4.449-.138V83.131h9.305Z" transform="translate(1022.276 1680.768)" fill="#296e0e"/>
    <path id="Path_215581" data-name="Path 215581" d="M106.885,130.306H84.517V83.131h22.507v4.644H89.364v14.693h11.8l-1.552,4.713H89.364v18.74h17.521Z" transform="translate(1037.46 1680.768)" fill="#296e0e"/>
    <path id="Path_215582" data-name="Path 215582" d="M124.925,130.306H120L96.616,92.566v37.74H91.764V83.131h4.852L120,120.8V83.131h4.925Z" transform="translate(1061.55 1680.768)" fill="#296e0e"/>
    <path id="Path_215583" data-name="Path 215583" d="M115.912,130.359H101.894V83.115h12.674q7.615,0,11.623,4.173T130.2,98.409v18.472Q130.2,130.359,115.912,130.359Zm9.435-12.812V97.735q0-5.053-2.927-7.515a10.8,10.8,0,0,0-7.182-2.456H106.75v38.211h8.09q7.472,0,9.569-3.978A9.388,9.388,0,0,0,125.347,117.547Z" transform="translate(1095.222 1680.714)" fill="#296e0e"/>
    <path id="Path_215584" data-name="Path 215584" d="M135.2,130.306H110.872V83.131h4.852v42.79H135.2Z" transform="translate(1125.065 1680.768)" fill="#296e0e"/>
    <path id="Path_215585" data-name="Path 215585" d="M136.587,131.041l-1.349-3.438a6.011,6.011,0,0,0,3.165-2.253c.813-1.1,1.215-2.958,1.215-5.561v-7.818q-3.3,2.821-9.971,2.828t-10.853-3.675q-4.177-3.671-4.181-10.546V83.131h4.925v17.715q0,4.527,2.828,6.841a10.8,10.8,0,0,0,7.113,2.335,14.165,14.165,0,0,0,6.875-1.453,6.375,6.375,0,0,0,3.265-4.082V83.131h4.916V119.79Q144.534,130.031,136.587,131.041Z" transform="translate(1137.497 1680.768)" fill="#296e0e"/>
  </g>
</svg>
