<svg xmlns="http://www.w3.org/2000/svg" width="75.324" height="50.188" viewBox="0 0 75.324 50.188">
  <g id="Group_151552" data-name="Group 151552" transform="translate(-93.807 -213.212)" opacity="0.6">
    <g id="Group_151558" data-name="Group 151558" transform="translate(93.807 219.189)">
      <g id="Group_151554" data-name="Group 151554" transform="translate(45.558)">
        <g id="Group_151552-2" data-name="Group 151552" transform="translate(0 42.659)">
          <path id="Path_210443" data-name="Path 210443" d="M282.748,416.913v.59c0,.265,6.663.481,14.883.481s14.883-.215,14.883-.481v-.59Z" transform="translate(-282.748 -416.432)" fill="#7a7a7a"/>
          <path id="Path_210444" data-name="Path 210444" d="M312.513,415.4c0,.266-6.663.481-14.883.481s-14.883-.215-14.883-.481,6.663-.481,14.883-.481S312.513,415.134,312.513,415.4Z" transform="translate(-282.748 -414.919)" fill="#5d5d5d"/>
        </g>
        <rect id="Rectangle_45044" data-name="Rectangle 45044" width="26.618" height="42.878" transform="translate(1.574 0.437)" fill="#4c4c4c"/>
        <rect id="Rectangle_45045" data-name="Rectangle 45045" width="1.639" height="2.187" transform="translate(1.574 9.668)" fill="#5d5d5d"/>
        <rect id="Rectangle_45046" data-name="Rectangle 45046" width="10.424" height="2.187" transform="translate(8.917 9.668)" fill="#5d5d5d"/>
        <rect id="Rectangle_45047" data-name="Rectangle 45047" width="1.049" height="2.187" transform="translate(24.193 9.668)" fill="#5d5d5d"/>
        <rect id="Rectangle_45048" data-name="Rectangle 45048" width="1.311" height="2.187" transform="translate(26.881 9.668)" fill="#5d5d5d"/>
        <rect id="Rectangle_45049" data-name="Rectangle 45049" width="1.639" height="2.187" transform="translate(1.574 10.62)" fill="#3d3d3d"/>
        <rect id="Rectangle_45050" data-name="Rectangle 45050" width="10.424" height="2.187" transform="translate(8.917 10.62)" fill="#3d3d3d"/>
        <rect id="Rectangle_45051" data-name="Rectangle 45051" width="1.049" height="2.187" transform="translate(24.193 10.62)" fill="#3d3d3d"/>
        <rect id="Rectangle_45052" data-name="Rectangle 45052" width="1.311" height="2.187" transform="translate(26.881 10.62)" fill="#3d3d3d"/>
        <path id="Path_210445" data-name="Path 210445" d="M286.514,280.055v2.184h-2.058a1.039,1.039,0,0,1-.978-1.091,1.17,1.17,0,0,1,.286-.774.935.935,0,0,1,.693-.32Z" transform="translate(-283.301 -269.915)" fill="#4c4c4c"/>
        <rect id="Rectangle_45053" data-name="Rectangle 45053" width="10.424" height="2.185" transform="translate(8.917 10.14)" fill="#4c4c4c"/>
        <rect id="Rectangle_45054" data-name="Rectangle 45054" width="1.049" height="2.185" transform="translate(24.193 10.14)" fill="#4c4c4c"/>
        <path id="Path_210446" data-name="Path 210446" d="M396.938,281.148a1.039,1.039,0,0,1-.978,1.091h-1.731v-2.184h1.731A1.041,1.041,0,0,1,396.938,281.148Z" transform="translate(-367.348 -269.915)" fill="#4c4c4c"/>
        <rect id="Rectangle_45055" data-name="Rectangle 45055" width="1.639" height="2.187" transform="translate(1.574 34.026)" fill="#3d3d3d"/>
        <rect id="Rectangle_45056" data-name="Rectangle 45056" width="10.424" height="2.187" transform="translate(8.917 34.026)" fill="#3d3d3d"/>
        <rect id="Rectangle_45057" data-name="Rectangle 45057" width="1.049" height="2.187" transform="translate(24.193 34.026)" fill="#3d3d3d"/>
        <rect id="Rectangle_45058" data-name="Rectangle 45058" width="1.311" height="2.187" transform="translate(26.881 34.026)" fill="#3d3d3d"/>
        <rect id="Rectangle_45059" data-name="Rectangle 45059" width="1.639" height="2.187" transform="translate(1.574 33.074)" fill="#5d5d5d"/>
        <rect id="Rectangle_45060" data-name="Rectangle 45060" width="10.424" height="2.187" transform="translate(8.917 33.074)" fill="#5d5d5d"/>
        <rect id="Rectangle_45061" data-name="Rectangle 45061" width="1.049" height="2.187" transform="translate(24.193 33.074)" fill="#5d5d5d"/>
        <rect id="Rectangle_45062" data-name="Rectangle 45062" width="1.311" height="2.187" transform="translate(26.881 33.074)" fill="#5d5d5d"/>
        <path id="Path_210447" data-name="Path 210447" d="M286.514,377.124v2.185h-2.058a1.039,1.039,0,0,1-.978-1.091,1.17,1.17,0,0,1,.286-.774.934.934,0,0,1,.693-.32Z" transform="translate(-283.301 -343.578)" fill="#4c4c4c"/>
        <rect id="Rectangle_45063" data-name="Rectangle 45063" width="10.424" height="2.185" transform="translate(8.917 33.546)" fill="#4c4c4c"/>
        <rect id="Rectangle_45064" data-name="Rectangle 45064" width="1.049" height="2.185" transform="translate(24.193 33.546)" fill="#4c4c4c"/>
        <path id="Path_210448" data-name="Path 210448" d="M396.938,378.218a1.039,1.039,0,0,1-.978,1.091h-1.731v-2.185h1.731A1.041,1.041,0,0,1,396.938,378.218Z" transform="translate(-367.348 -343.578)" fill="#4c4c4c"/>
        <path id="Path_210449" data-name="Path 210449" d="M315.892,242.1v.805c-2.431.157-7.492.267-13.341.267-5.8,0-10.82-.108-13.278-.265V242.1Z" transform="translate(-287.7 -241.109)" fill="#3d3d3d"/>
        <g id="Group_151553" data-name="Group 151553">
          <path id="Path_210450" data-name="Path 210450" d="M282.748,239.994v.59c0,.265,6.663.481,14.883.481s14.883-.215,14.883-.481v-.59Z" transform="translate(-282.748 -239.513)" fill="#7a7a7a"/>
          <path id="Path_210451" data-name="Path 210451" d="M312.513,238.481c0,.265-6.663.481-14.883.481s-14.883-.215-14.883-.481,6.663-.481,14.883-.481S312.513,238.215,312.513,238.481Z" transform="translate(-282.748 -238)" fill="#5d5d5d"/>
        </g>
        <path id="Path_210452" data-name="Path 210452" d="M325.693,299.175a7.117,7.117,0,0,0-5.966,3.231v7.789a7.119,7.119,0,0,0,10.424,1.66V300.746A7.074,7.074,0,0,0,325.693,299.175Z" transform="translate(-310.81 -284.424)" fill="#2b2b2b"/>
        <path id="Path_210453" data-name="Path 210453" d="M327.427,308.29a1.717,1.717,0,0,0-.566-1.073c.76-1.489,1.513-2.859,2.216-4.107-.59-.281-1.167-.524-1.728-.727a5.017,5.017,0,0,0-3.357-.029,8.211,8.211,0,0,0-1.631.758,26.121,26.121,0,0,0,2.213,4.112,1.727,1.727,0,0,0-.556,1.041,27.649,27.649,0,0,0-4.29.4v2.172a5.017,5.017,0,0,0,1.812,2.442q.724.523,1.571,1.023c.637-1.285,1.348-2.675,2.153-4.141a1.762,1.762,0,0,0,.459.063,1.814,1.814,0,0,0,.4-.047c.805,1.469,1.518,2.861,2.156,4.146.564-.333,1.088-.671,1.571-1.02.1-.076.207-.155.3-.239v-4.6C329.278,308.369,328.363,308.322,327.427,308.29Zm-1.7,1.4a1.18,1.18,0,1,1,1.18-1.18A1.179,1.179,0,0,1,325.722,309.685Z" transform="translate(-310.81 -286.629)" fill="#bcbc3c"/>
        <rect id="Rectangle_45065" data-name="Rectangle 45065" width="5.704" height="2.185" transform="translate(3.213 10.14)" fill="#424242"/>
        <rect id="Rectangle_45066" data-name="Rectangle 45066" width="5.704" height="0.472" transform="translate(3.213 9.668)" fill="#4d4d4d"/>
        <rect id="Rectangle_45067" data-name="Rectangle 45067" width="5.704" height="7.002" transform="translate(3.213 2.666)" fill="#373737"/>
        <rect id="Rectangle_45068" data-name="Rectangle 45068" width="5.704" height="0.483" transform="translate(3.213 12.325)" fill="#2b2b2b"/>
        <rect id="Rectangle_45069" data-name="Rectangle 45069" width="5.704" height="2.185" transform="translate(3.213 33.546)" fill="#424242"/>
        <rect id="Rectangle_45070" data-name="Rectangle 45070" width="5.704" height="0.472" transform="translate(3.213 33.074)" fill="#4d4d4d"/>
        <path id="Path_210454" data-name="Path 210454" d="M318.505,329.4v2.172c-.039-.1-.071-.212-.1-.32a8.241,8.241,0,0,1-.289-1.775C318.246,329.446,318.374,329.42,318.505,329.4Z" transform="translate(-309.589 -307.36)" fill="#abab36"/>
        <path id="Path_210455" data-name="Path 210455" d="M316.079,316.631c-.131.021-.26.047-.388.076a8.241,8.241,0,0,0,.289,1.775c.029.108.06.215.1.32v1.56a7.122,7.122,0,0,1,0-7.789Z" transform="translate(-307.163 -294.592)" fill="#1f1f1f"/>
        <path id="Path_210456" data-name="Path 210456" d="M301.775,296.289a7.122,7.122,0,0,0,0,7.789v7.3h-5.7V291.115h5.7Z" transform="translate(-292.859 -278.308)" fill="#373737"/>
        <rect id="Rectangle_45071" data-name="Rectangle 45071" width="5.704" height="0.483" transform="translate(3.213 35.731)" fill="#2b2b2b"/>
        <rect id="Rectangle_45072" data-name="Rectangle 45072" width="5.704" height="5.397" transform="translate(3.213 36.213)" fill="#373737"/>
        <rect id="Rectangle_45073" data-name="Rectangle 45073" width="4.852" height="2.185" transform="translate(19.341 10.14)" fill="#838383"/>
        <rect id="Rectangle_45074" data-name="Rectangle 45074" width="4.852" height="0.472" transform="translate(19.341 9.668)" fill="#8f8f8f"/>
        <rect id="Rectangle_45075" data-name="Rectangle 45075" width="4.852" height="7.002" transform="translate(19.341 2.666)" fill="#7a7a7a"/>
        <rect id="Rectangle_45076" data-name="Rectangle 45076" width="4.852" height="0.483" transform="translate(19.341 12.325)" fill="#646464"/>
        <rect id="Rectangle_45077" data-name="Rectangle 45077" width="4.852" height="2.185" transform="translate(19.341 33.546)" fill="#838383"/>
        <rect id="Rectangle_45078" data-name="Rectangle 45078" width="4.852" height="0.472" transform="translate(19.341 33.074)" fill="#8f8f8f"/>
        <path id="Path_210457" data-name="Path 210457" d="M365.627,311.244a7.105,7.105,0,0,1-2.667,5.555V315.8a5.023,5.023,0,0,0,1.608-2.526,8.234,8.234,0,0,0,.288-1.773,16.159,16.159,0,0,0-1.9-.3V305.69A7.1,7.1,0,0,1,365.627,311.244Z" transform="translate(-343.619 -289.368)" fill="#5d5d5d"/>
        <path id="Path_210458" data-name="Path 210458" d="M364.856,328.864a8.234,8.234,0,0,1-.288,1.773,5.023,5.023,0,0,1-1.608,2.526v-4.6A16.159,16.159,0,0,1,364.856,328.864Z" transform="translate(-343.619 -306.725)" fill="#cfcf42"/>
        <path id="Path_210459" data-name="Path 210459" d="M367.812,291.115v20.267H362.96v-5.644a7.117,7.117,0,0,0,0-11.109v-3.514Z" transform="translate(-343.619 -278.308)" fill="#7a7a7a"/>
        <rect id="Rectangle_45079" data-name="Rectangle 45079" width="4.852" height="0.483" transform="translate(19.341 35.731)" fill="#646464"/>
        <rect id="Rectangle_45080" data-name="Rectangle 45080" width="4.852" height="5.397" transform="translate(19.341 36.213)" fill="#7a7a7a"/>
        <rect id="Rectangle_45081" data-name="Rectangle 45081" width="1.639" height="2.185" transform="translate(25.242 10.14)" fill="#838383"/>
        <rect id="Rectangle_45082" data-name="Rectangle 45082" width="1.639" height="0.472" transform="translate(25.242 9.668)" fill="#8f8f8f"/>
        <rect id="Rectangle_45083" data-name="Rectangle 45083" width="1.639" height="6.981" transform="translate(25.242 2.687)" fill="#7a7a7a"/>
        <rect id="Rectangle_45084" data-name="Rectangle 45084" width="1.639" height="0.483" transform="translate(25.242 12.325)" fill="#646464"/>
        <rect id="Rectangle_45085" data-name="Rectangle 45085" width="1.639" height="2.185" transform="translate(25.242 33.546)" fill="#838383"/>
        <rect id="Rectangle_45086" data-name="Rectangle 45086" width="1.639" height="0.472" transform="translate(25.242 33.074)" fill="#8f8f8f"/>
        <rect id="Rectangle_45087" data-name="Rectangle 45087" width="1.639" height="20.267" transform="translate(25.242 12.807)" fill="#7a7a7a"/>
        <rect id="Rectangle_45088" data-name="Rectangle 45088" width="1.639" height="0.483" transform="translate(25.242 35.731)" fill="#646464"/>
        <rect id="Rectangle_45089" data-name="Rectangle 45089" width="1.639" height="5.397" transform="translate(25.242 36.213)" fill="#7a7a7a"/>
      </g>
      <g id="Group_151557" data-name="Group 151557" transform="translate(0 4.34)">
        <g id="Group_151555" data-name="Group 151555" transform="translate(0 38.472)">
          <path id="Path_210460" data-name="Path 210460" d="M93.807,417.349v.532c0,.239,6.009.434,13.422.434s13.422-.194,13.422-.434v-.532Z" transform="translate(-93.807 -416.915)" fill="#7a7a7a"/>
          <path id="Path_210461" data-name="Path 210461" d="M120.65,415.985c0,.239-6.009.434-13.422.434s-13.422-.194-13.422-.434,6.009-.434,13.422-.434S120.65,415.745,120.65,415.985Z" transform="translate(-93.807 -415.551)" fill="#5d5d5d"/>
        </g>
        <rect id="Rectangle_45090" data-name="Rectangle 45090" width="24.005" height="38.669" transform="translate(1.419 0.394)" fill="#4c4c4c"/>
        <rect id="Rectangle_45091" data-name="Rectangle 45091" width="1.478" height="1.972" transform="translate(1.419 8.719)" fill="#5d5d5d"/>
        <rect id="Rectangle_45092" data-name="Rectangle 45092" width="9.401" height="1.972" transform="translate(8.041 8.719)" fill="#5d5d5d"/>
        <rect id="Rectangle_45093" data-name="Rectangle 45093" width="0.946" height="1.972" transform="translate(21.818 8.719)" fill="#5d5d5d"/>
        <rect id="Rectangle_45094" data-name="Rectangle 45094" width="1.183" height="1.972" transform="translate(24.242 8.719)" fill="#5d5d5d"/>
        <rect id="Rectangle_45095" data-name="Rectangle 45095" width="1.478" height="1.972" transform="translate(1.419 9.578)" fill="#3d3d3d"/>
        <rect id="Rectangle_45096" data-name="Rectangle 45096" width="9.401" height="1.972" transform="translate(8.041 9.578)" fill="#3d3d3d"/>
        <rect id="Rectangle_45097" data-name="Rectangle 45097" width="0.946" height="1.972" transform="translate(21.818 9.578)" fill="#3d3d3d"/>
        <rect id="Rectangle_45098" data-name="Rectangle 45098" width="1.183" height="1.972" transform="translate(24.242 9.578)" fill="#3d3d3d"/>
        <path id="Path_210462" data-name="Path 210462" d="M97.2,293.926v1.97H95.347a.937.937,0,0,1-.882-.984,1.054,1.054,0,0,1,.258-.7.842.842,0,0,1,.624-.289Z" transform="translate(-94.306 -284.781)" fill="#4c4c4c"/>
        <rect id="Rectangle_45099" data-name="Rectangle 45099" width="9.401" height="1.97" transform="translate(8.041 9.145)" fill="#4c4c4c"/>
        <rect id="Rectangle_45100" data-name="Rectangle 45100" width="0.946" height="1.97" transform="translate(21.818 9.145)" fill="#4c4c4c"/>
        <path id="Path_210463" data-name="Path 210463" d="M196.787,294.912a.937.937,0,0,1-.882.984h-1.561v-1.97H195.9A.939.939,0,0,1,196.787,294.912Z" transform="translate(-170.102 -284.781)" fill="#4c4c4c"/>
        <rect id="Rectangle_45101" data-name="Rectangle 45101" width="1.478" height="1.972" transform="translate(1.419 30.686)" fill="#3d3d3d"/>
        <rect id="Rectangle_45102" data-name="Rectangle 45102" width="9.401" height="1.972" transform="translate(8.041 30.686)" fill="#3d3d3d"/>
        <rect id="Rectangle_45103" data-name="Rectangle 45103" width="0.946" height="1.972" transform="translate(21.818 30.686)" fill="#3d3d3d"/>
        <rect id="Rectangle_45104" data-name="Rectangle 45104" width="1.183" height="1.972" transform="translate(24.242 30.686)" fill="#3d3d3d"/>
        <rect id="Rectangle_45105" data-name="Rectangle 45105" width="1.478" height="1.972" transform="translate(1.419 29.827)" fill="#5d5d5d"/>
        <rect id="Rectangle_45106" data-name="Rectangle 45106" width="9.401" height="1.972" transform="translate(8.041 29.827)" fill="#5d5d5d"/>
        <rect id="Rectangle_45107" data-name="Rectangle 45107" width="0.946" height="1.972" transform="translate(21.818 29.827)" fill="#5d5d5d"/>
        <rect id="Rectangle_45108" data-name="Rectangle 45108" width="1.183" height="1.972" transform="translate(24.242 29.827)" fill="#5d5d5d"/>
        <path id="Path_210464" data-name="Path 210464" d="M97.2,381.466v1.97H95.347a.937.937,0,0,1-.882-.984,1.054,1.054,0,0,1,.258-.7.842.842,0,0,1,.624-.289Z" transform="translate(-94.306 -351.213)" fill="#4c4c4c"/>
        <rect id="Rectangle_45109" data-name="Rectangle 45109" width="9.401" height="1.97" transform="translate(8.041 30.253)" fill="#4c4c4c"/>
        <rect id="Rectangle_45110" data-name="Rectangle 45110" width="0.946" height="1.97" transform="translate(21.818 30.253)" fill="#4c4c4c"/>
        <path id="Path_210465" data-name="Path 210465" d="M196.787,382.452a.937.937,0,0,1-.882.984h-1.561v-1.97H195.9A.939.939,0,0,1,196.787,382.452Z" transform="translate(-170.102 -351.213)" fill="#4c4c4c"/>
        <path id="Path_210466" data-name="Path 210466" d="M123.7,259.694v.726c-2.192.142-6.757.241-12.031.241-5.229,0-9.758-.1-11.974-.239v-.728Z" transform="translate(-98.274 -258.803)" fill="#3d3d3d"/>
        <g id="Group_151556" data-name="Group 151556">
          <path id="Path_210467" data-name="Path 210467" d="M93.807,257.8v.532c0,.239,6.009.434,13.422.434s13.422-.194,13.422-.434V257.8Z" transform="translate(-93.807 -257.364)" fill="#7a7a7a"/>
          <path id="Path_210468" data-name="Path 210468" d="M120.65,256.434c0,.239-6.009.434-13.422.434s-13.422-.194-13.422-.434S99.816,256,107.229,256,120.65,256.194,120.65,256.434Z" transform="translate(-93.807 -256)" fill="#5d5d5d"/>
        </g>
        <path id="Path_210469" data-name="Path 210469" d="M132.536,311.169a6.418,6.418,0,0,0-5.38,2.914v7.024a6.421,6.421,0,0,0,9.4,1.5V312.586A6.379,6.379,0,0,0,132.536,311.169Z" transform="translate(-119.115 -297.866)" fill="#2b2b2b"/>
        <path id="Path_210470" data-name="Path 210470" d="M134.1,319.39a1.55,1.55,0,0,0-.511-.967c.686-1.343,1.365-2.578,2-3.7-.532-.253-1.052-.473-1.559-.655a4.524,4.524,0,0,0-3.027-.026,7.406,7.406,0,0,0-1.471.684,23.534,23.534,0,0,0,2,3.708,1.556,1.556,0,0,0-.5.939,24.919,24.919,0,0,0-3.869.362v1.958a4.524,4.524,0,0,0,1.634,2.2q.652.472,1.417.922c.575-1.159,1.216-2.412,1.942-3.734a1.589,1.589,0,0,0,.414.057,1.641,1.641,0,0,0,.359-.043c.726,1.324,1.369,2.581,1.944,3.739.508-.3.981-.605,1.417-.92.095-.068.187-.14.274-.215v-4.148C135.769,319.461,134.944,319.418,134.1,319.39Zm-1.537,1.258a1.064,1.064,0,1,1,1.064-1.064A1.063,1.063,0,0,1,132.563,320.648Z" transform="translate(-119.115 -299.855)" fill="#bcbc3c"/>
        <rect id="Rectangle_45111" data-name="Rectangle 45111" width="5.144" height="1.97" transform="translate(2.897 9.145)" fill="#424242"/>
        <rect id="Rectangle_45112" data-name="Rectangle 45112" width="5.144" height="0.426" transform="translate(2.897 8.719)" fill="#4d4d4d"/>
        <rect id="Rectangle_45113" data-name="Rectangle 45113" width="5.144" height="6.315" transform="translate(2.897 2.404)" fill="#373737"/>
        <rect id="Rectangle_45114" data-name="Rectangle 45114" width="5.144" height="0.435" transform="translate(2.897 11.115)" fill="#2b2b2b"/>
        <rect id="Rectangle_45115" data-name="Rectangle 45115" width="5.144" height="1.97" transform="translate(2.897 30.253)" fill="#424242"/>
        <rect id="Rectangle_45116" data-name="Rectangle 45116" width="5.144" height="0.426" transform="translate(2.897 29.827)" fill="#4d4d4d"/>
        <path id="Path_210471" data-name="Path 210471" d="M126.055,338.427v1.958c-.035-.095-.064-.191-.09-.288a7.437,7.437,0,0,1-.26-1.6C125.821,338.469,125.937,338.446,126.055,338.427Z" transform="translate(-118.014 -318.552)" fill="#abab36"/>
        <path id="Path_210472" data-name="Path 210472" d="M123.866,326.912c-.118.019-.234.042-.35.068a7.437,7.437,0,0,0,.26,1.6c.026.1.054.194.09.288v1.407a6.423,6.423,0,0,1,0-7.024Z" transform="translate(-115.825 -307.037)" fill="#1f1f1f"/>
        <path id="Path_210473" data-name="Path 210473" d="M110.967,308.567a6.423,6.423,0,0,0,0,7.024v6.587h-5.144V303.9h5.144Z" transform="translate(-102.926 -292.351)" fill="#373737"/>
        <rect id="Rectangle_45117" data-name="Rectangle 45117" width="5.144" height="0.435" transform="translate(2.897 32.223)" fill="#2b2b2b"/>
        <rect id="Rectangle_45118" data-name="Rectangle 45118" width="5.144" height="4.867" transform="translate(2.897 32.658)" fill="#373737"/>
        <rect id="Rectangle_45119" data-name="Rectangle 45119" width="4.375" height="1.97" transform="translate(17.442 9.145)" fill="#838383"/>
        <rect id="Rectangle_45120" data-name="Rectangle 45120" width="4.375" height="0.426" transform="translate(17.442 8.719)" fill="#8f8f8f"/>
        <rect id="Rectangle_45121" data-name="Rectangle 45121" width="4.375" height="6.315" transform="translate(17.442 2.404)" fill="#7a7a7a"/>
        <rect id="Rectangle_45122" data-name="Rectangle 45122" width="4.375" height="0.435" transform="translate(17.442 11.115)" fill="#646464"/>
        <rect id="Rectangle_45123" data-name="Rectangle 45123" width="4.375" height="1.97" transform="translate(17.442 30.253)" fill="#838383"/>
        <rect id="Rectangle_45124" data-name="Rectangle 45124" width="4.375" height="0.426" transform="translate(17.442 29.827)" fill="#8f8f8f"/>
        <path id="Path_210474" data-name="Path 210474" d="M168.55,322.054a6.408,6.408,0,0,1-2.405,5.009v-.9a4.527,4.527,0,0,0,1.45-2.278,7.418,7.418,0,0,0,.26-1.6,14.647,14.647,0,0,0-1.71-.272v-4.974A6.407,6.407,0,0,1,168.55,322.054Z" transform="translate(-148.703 -302.326)" fill="#5d5d5d"/>
        <path id="Path_210475" data-name="Path 210475" d="M167.855,337.944a7.418,7.418,0,0,1-.26,1.6,4.527,4.527,0,0,1-1.45,2.278v-4.148A14.64,14.64,0,0,1,167.855,337.944Z" transform="translate(-148.703 -317.979)" fill="#cfcf42"/>
        <path id="Path_210476" data-name="Path 210476" d="M170.52,303.9v18.277h-4.375v-5.09a6.419,6.419,0,0,0,0-10.018V303.9Z" transform="translate(-148.703 -292.351)" fill="#7a7a7a"/>
        <rect id="Rectangle_45125" data-name="Rectangle 45125" width="4.375" height="0.435" transform="translate(17.442 32.223)" fill="#646464"/>
        <rect id="Rectangle_45126" data-name="Rectangle 45126" width="4.375" height="4.867" transform="translate(17.442 32.658)" fill="#7a7a7a"/>
        <rect id="Rectangle_45127" data-name="Rectangle 45127" width="1.478" height="1.97" transform="translate(22.764 9.145)" fill="#838383"/>
        <rect id="Rectangle_45128" data-name="Rectangle 45128" width="1.478" height="0.426" transform="translate(22.764 8.719)" fill="#8f8f8f"/>
        <rect id="Rectangle_45129" data-name="Rectangle 45129" width="1.478" height="6.296" transform="translate(22.764 2.423)" fill="#7a7a7a"/>
        <rect id="Rectangle_45130" data-name="Rectangle 45130" width="1.478" height="0.435" transform="translate(22.764 11.115)" fill="#646464"/>
        <rect id="Rectangle_45131" data-name="Rectangle 45131" width="1.478" height="1.97" transform="translate(22.764 30.253)" fill="#838383"/>
        <rect id="Rectangle_45132" data-name="Rectangle 45132" width="1.478" height="0.426" transform="translate(22.764 29.827)" fill="#8f8f8f"/>
        <rect id="Rectangle_45133" data-name="Rectangle 45133" width="1.478" height="18.277" transform="translate(22.764 11.55)" fill="#7a7a7a"/>
        <rect id="Rectangle_45134" data-name="Rectangle 45134" width="1.478" height="0.435" transform="translate(22.764 32.223)" fill="#646464"/>
        <rect id="Rectangle_45135" data-name="Rectangle 45135" width="1.478" height="4.867" transform="translate(22.764 32.658)" fill="#7a7a7a"/>
      </g>
      <path id="Path_210477" data-name="Path 210477" d="M170.834,244,141.3,247.979l-10.971,38.339h51.721Z" transform="translate(-121.52 -242.553)" opacity="0.5"/>
    </g>
    <g id="Group_151561" data-name="Group 151561" transform="translate(111.553 213.212)">
      <g id="Group_151559" data-name="Group 151559" transform="translate(0 48.427)">
        <path id="Path_210478" data-name="Path 210478" d="M167.4,416.312v.67c0,.3,7.564.546,16.895.546s16.895-.244,16.895-.546v-.67Z" transform="translate(-167.404 -415.766)" fill="#7a7a7a"/>
        <path id="Path_210479" data-name="Path 210479" d="M201.193,414.595c0,.3-7.564.546-16.895.546s-16.895-.244-16.895-.546,7.564-.546,16.895-.546S201.193,414.293,201.193,414.595Z" transform="translate(-167.404 -414.049)" fill="#5d5d5d"/>
      </g>
      <rect id="Rectangle_45136" data-name="Rectangle 45136" width="30.217" height="48.675" transform="translate(1.786 0.496)" fill="#4c4c4c"/>
      <rect id="Rectangle_45137" data-name="Rectangle 45137" width="1.861" height="2.483" transform="translate(1.786 10.975)" fill="#5d5d5d"/>
      <rect id="Rectangle_45138" data-name="Rectangle 45138" width="11.834" height="2.483" transform="translate(10.122 10.975)" fill="#5d5d5d"/>
      <rect id="Rectangle_45139" data-name="Rectangle 45139" width="1.191" height="2.483" transform="translate(27.463 10.975)" fill="#5d5d5d"/>
      <rect id="Rectangle_45140" data-name="Rectangle 45140" width="1.489" height="2.483" transform="translate(30.515 10.975)" fill="#5d5d5d"/>
      <rect id="Rectangle_45141" data-name="Rectangle 45141" width="1.861" height="2.483" transform="translate(1.786 12.056)" fill="#3d3d3d"/>
      <rect id="Rectangle_45142" data-name="Rectangle 45142" width="11.834" height="2.483" transform="translate(10.122 12.056)" fill="#3d3d3d"/>
      <rect id="Rectangle_45143" data-name="Rectangle 45143" width="1.191" height="2.483" transform="translate(27.463 12.056)" fill="#3d3d3d"/>
      <rect id="Rectangle_45144" data-name="Rectangle 45144" width="1.489" height="2.483" transform="translate(30.515 12.056)" fill="#3d3d3d"/>
      <path id="Path_210480" data-name="Path 210480" d="M171.678,260.952v2.48h-2.337a1.179,1.179,0,0,1-1.11-1.238,1.327,1.327,0,0,1,.325-.878,1.06,1.06,0,0,1,.786-.363Z" transform="translate(-168.032 -249.441)" fill="#4c4c4c"/>
      <rect id="Rectangle_45145" data-name="Rectangle 45145" width="11.834" height="2.48" transform="translate(10.122 11.511)" fill="#4c4c4c"/>
      <rect id="Rectangle_45146" data-name="Rectangle 45146" width="1.191" height="2.48" transform="translate(27.463 11.511)" fill="#4c4c4c"/>
      <path id="Path_210481" data-name="Path 210481" d="M297.03,262.194a1.179,1.179,0,0,1-1.11,1.238h-1.965v-2.48h1.965A1.182,1.182,0,0,1,297.03,262.194Z" transform="translate(-263.44 -249.441)" fill="#4c4c4c"/>
      <rect id="Rectangle_45147" data-name="Rectangle 45147" width="1.861" height="2.483" transform="translate(1.786 38.626)" fill="#3d3d3d"/>
      <rect id="Rectangle_45148" data-name="Rectangle 45148" width="11.834" height="2.483" transform="translate(10.122 38.626)" fill="#3d3d3d"/>
      <rect id="Rectangle_45149" data-name="Rectangle 45149" width="1.191" height="2.483" transform="translate(27.463 38.626)" fill="#3d3d3d"/>
      <rect id="Rectangle_45150" data-name="Rectangle 45150" width="1.489" height="2.483" transform="translate(30.515 38.626)" fill="#3d3d3d"/>
      <rect id="Rectangle_45151" data-name="Rectangle 45151" width="1.861" height="2.483" transform="translate(1.786 37.546)" fill="#5d5d5d"/>
      <rect id="Rectangle_45152" data-name="Rectangle 45152" width="11.834" height="2.483" transform="translate(10.122 37.546)" fill="#5d5d5d"/>
      <rect id="Rectangle_45153" data-name="Rectangle 45153" width="1.191" height="2.483" transform="translate(27.463 37.546)" fill="#5d5d5d"/>
      <rect id="Rectangle_45154" data-name="Rectangle 45154" width="1.489" height="2.483" transform="translate(30.515 37.546)" fill="#5d5d5d"/>
      <path id="Path_210482" data-name="Path 210482" d="M171.678,371.145v2.48h-2.337a1.179,1.179,0,0,1-1.11-1.238,1.327,1.327,0,0,1,.325-.878,1.06,1.06,0,0,1,.786-.363Z" transform="translate(-168.032 -333.064)" fill="#4c4c4c"/>
      <rect id="Rectangle_45155" data-name="Rectangle 45155" width="11.834" height="2.48" transform="translate(10.122 38.081)" fill="#4c4c4c"/>
      <rect id="Rectangle_45156" data-name="Rectangle 45156" width="1.191" height="2.48" transform="translate(27.463 38.081)" fill="#4c4c4c"/>
      <path id="Path_210483" data-name="Path 210483" d="M297.03,372.386a1.179,1.179,0,0,1-1.11,1.238h-1.965v-2.48h1.965A1.182,1.182,0,0,1,297.03,372.386Z" transform="translate(-263.44 -333.064)" fill="#4c4c4c"/>
      <path id="Path_210484" data-name="Path 210484" d="M205.029,217.863v.914c-2.76.179-8.505.3-15.144.3-6.582,0-12.283-.122-15.073-.3v-.917Z" transform="translate(-173.026 -216.742)" fill="#3d3d3d"/>
      <g id="Group_151560" data-name="Group 151560" transform="translate(0)">
        <path id="Path_210485" data-name="Path 210485" d="M167.4,215.476v.67c0,.3,7.564.546,16.895.546s16.895-.244,16.895-.546v-.67Z" transform="translate(-167.404 -214.93)" fill="#7a7a7a"/>
        <path id="Path_210486" data-name="Path 210486" d="M201.193,213.758c0,.3-7.564.546-16.895.546s-16.895-.244-16.895-.546,7.564-.546,16.895-.546S201.193,213.457,201.193,213.758Z" transform="translate(-167.404 -213.212)" fill="#5d5d5d"/>
      </g>
      <path id="Path_210487" data-name="Path 210487" d="M216.155,282.657a8.079,8.079,0,0,0-6.773,3.668v8.842a8.082,8.082,0,0,0,11.834,1.884V284.44A8.031,8.031,0,0,0,216.155,282.657Z" transform="translate(-199.26 -265.912)" fill="#2b2b2b"/>
      <path id="Path_210488" data-name="Path 210488" d="M218.123,293a1.949,1.949,0,0,0-.643-1.217c.863-1.691,1.718-3.245,2.516-4.662-.67-.319-1.325-.6-1.962-.825a5.694,5.694,0,0,0-3.811-.033,9.327,9.327,0,0,0-1.852.86,29.626,29.626,0,0,0,2.513,4.668,1.96,1.96,0,0,0-.631,1.182,31.384,31.384,0,0,0-4.87.455V295.9a5.7,5.7,0,0,0,2.057,2.772q.822.594,1.783,1.161c.723-1.459,1.53-3.037,2.444-4.7a2,2,0,0,0,.521.071,2.065,2.065,0,0,0,.453-.054c.914,1.667,1.724,3.248,2.447,4.707.64-.378,1.235-.762,1.783-1.158.119-.086.235-.176.345-.271V293.2C220.224,293.094,219.185,293.041,218.123,293Zm-1.935,1.584a1.34,1.34,0,1,1,1.34-1.34A1.338,1.338,0,0,1,216.188,294.589Z" transform="translate(-199.26 -268.415)" fill="#bcbc3c"/>
      <rect id="Rectangle_45157" data-name="Rectangle 45157" width="6.475" height="2.48" transform="translate(3.647 11.511)" fill="#424242"/>
      <rect id="Rectangle_45158" data-name="Rectangle 45158" width="6.475" height="0.536" transform="translate(3.647 10.975)" fill="#4d4d4d"/>
      <rect id="Rectangle_45159" data-name="Rectangle 45159" width="6.475" height="7.949" transform="translate(3.647 3.027)" fill="#373737"/>
      <rect id="Rectangle_45160" data-name="Rectangle 45160" width="6.475" height="0.548" transform="translate(3.647 13.991)" fill="#2b2b2b"/>
      <rect id="Rectangle_45161" data-name="Rectangle 45161" width="6.475" height="2.48" transform="translate(3.647 38.081)" fill="#424242"/>
      <rect id="Rectangle_45162" data-name="Rectangle 45162" width="6.475" height="0.536" transform="translate(3.647 37.546)" fill="#4d4d4d"/>
      <path id="Path_210489" data-name="Path 210489" d="M208,316.968v2.465c-.045-.119-.081-.241-.113-.363a9.364,9.364,0,0,1-.327-2.016C207.7,317.022,207.847,316.992,208,316.968Z" transform="translate(-197.874 -291.95)" fill="#abab36"/>
      <path id="Path_210490" data-name="Path 210490" d="M205.241,302.473c-.149.024-.295.054-.441.086a9.364,9.364,0,0,0,.327,2.016c.033.122.068.244.113.363v1.772a8.085,8.085,0,0,1,0-8.842Z" transform="translate(-195.119 -277.455)" fill="#1f1f1f"/>
      <path id="Path_210491" data-name="Path 210491" d="M189,279.383a8.085,8.085,0,0,0,0,8.842v8.291h-6.475V273.509H189Z" transform="translate(-178.881 -258.97)" fill="#373737"/>
      <rect id="Rectangle_45163" data-name="Rectangle 45163" width="6.475" height="0.548" transform="translate(3.647 40.561)" fill="#2b2b2b"/>
      <rect id="Rectangle_45164" data-name="Rectangle 45164" width="6.475" height="6.127" transform="translate(3.647 41.109)" fill="#373737"/>
      <rect id="Rectangle_45165" data-name="Rectangle 45165" width="5.508" height="2.48" transform="translate(21.956 11.511)" fill="#838383"/>
      <rect id="Rectangle_45166" data-name="Rectangle 45166" width="5.508" height="0.536" transform="translate(21.956 10.975)" fill="#8f8f8f"/>
      <rect id="Rectangle_45167" data-name="Rectangle 45167" width="5.508" height="7.949" transform="translate(21.956 3.027)" fill="#7a7a7a"/>
      <rect id="Rectangle_45168" data-name="Rectangle 45168" width="5.508" height="0.548" transform="translate(21.956 13.991)" fill="#646464"/>
      <rect id="Rectangle_45169" data-name="Rectangle 45169" width="5.508" height="2.48" transform="translate(21.956 38.081)" fill="#838383"/>
      <rect id="Rectangle_45170" data-name="Rectangle 45170" width="5.508" height="0.536" transform="translate(21.956 37.546)" fill="#8f8f8f"/>
      <path id="Path_210492" data-name="Path 210492" d="M261.487,296.358a8.065,8.065,0,0,1-3.028,6.305v-1.128a5.7,5.7,0,0,0,1.825-2.867,9.354,9.354,0,0,0,.327-2.012,18.32,18.32,0,0,0-2.152-.342v-6.261A8.065,8.065,0,0,1,261.487,296.358Z" transform="translate(-236.503 -271.525)" fill="#5d5d5d"/>
      <path id="Path_210493" data-name="Path 210493" d="M260.612,316.36a9.354,9.354,0,0,1-.327,2.012,5.7,5.7,0,0,1-1.825,2.867v-5.222A18.32,18.32,0,0,1,260.612,316.36Z" transform="translate(-236.503 -291.229)" fill="#cfcf42"/>
      <path id="Path_210494" data-name="Path 210494" d="M263.967,273.509v23.007h-5.508v-6.407a8.079,8.079,0,0,0,0-12.611v-3.989Z" transform="translate(-236.503 -258.97)" fill="#7a7a7a"/>
      <rect id="Rectangle_45171" data-name="Rectangle 45171" width="5.508" height="0.548" transform="translate(21.956 40.561)" fill="#646464"/>
      <rect id="Rectangle_45172" data-name="Rectangle 45172" width="5.508" height="6.127" transform="translate(21.956 41.109)" fill="#7a7a7a"/>
      <rect id="Rectangle_45173" data-name="Rectangle 45173" width="1.861" height="2.48" transform="translate(28.654 11.511)" fill="#838383"/>
      <rect id="Rectangle_45174" data-name="Rectangle 45174" width="1.861" height="0.536" transform="translate(28.654 10.975)" fill="#8f8f8f"/>
      <rect id="Rectangle_45175" data-name="Rectangle 45175" width="1.861" height="7.925" transform="translate(28.654 3.051)" fill="#7a7a7a"/>
      <rect id="Rectangle_45176" data-name="Rectangle 45176" width="1.861" height="0.548" transform="translate(28.654 13.991)" fill="#646464"/>
      <rect id="Rectangle_45177" data-name="Rectangle 45177" width="1.861" height="2.48" transform="translate(28.654 38.081)" fill="#838383"/>
      <rect id="Rectangle_45178" data-name="Rectangle 45178" width="1.861" height="0.536" transform="translate(28.654 37.546)" fill="#8f8f8f"/>
      <rect id="Rectangle_45179" data-name="Rectangle 45179" width="1.861" height="23.007" transform="translate(28.654 14.539)" fill="#7a7a7a"/>
      <rect id="Rectangle_45180" data-name="Rectangle 45180" width="1.861" height="0.548" transform="translate(28.654 40.561)" fill="#646464"/>
      <rect id="Rectangle_45181" data-name="Rectangle 45181" width="1.861" height="6.127" transform="translate(28.654 41.109)" fill="#7a7a7a"/>
    </g>
  </g>
</svg>
