<svg xmlns="http://www.w3.org/2000/svg" width="473.785" height="267.738" viewBox="0 0 473.785 267.738">
  <g id="Group_157336" data-name="Group 157336" transform="translate(5895 5693.571)">
    <g id="Group_157332" data-name="Group 157332" transform="translate(-5839.808 -5719.76)">
      <g id="Group_151466" data-name="Group 151466" transform="translate(61.991 26.189)">
        <rect id="Rectangle_45023" data-name="Rectangle 45023" width="289.508" height="64.049" rx="0.766" transform="translate(0 74.518)" fill="#798b94"/>
        <path id="Path_209679" data-name="Path 209679" d="M346.5,50.512H66.99a5,5,0,0,1-5-5v7.453a5,5,0,0,0,5,5H346.5a4.994,4.994,0,0,0,4.993-5V45.513A4.994,4.994,0,0,1,346.5,50.512Z" transform="translate(-61.99 80.6)" fill="#1c3a4a" opacity="0.2"/>
        <rect id="Rectangle_45024" data-name="Rectangle 45024" width="289.508" height="115.699" rx="1.029" transform="translate(0 4.862)" fill="#1c3a4a" opacity="0.4"/>
        <rect id="Rectangle_45025" data-name="Rectangle 45025" width="289.508" height="115.699" rx="1.029" transform="translate(0 0.003)" fill="#bec9cf"/>
        <path id="Path_209680" data-name="Path 209680" d="M344.78,26.189H68.707a6.719,6.719,0,0,0-6.715,6.722V38.55a6.718,6.718,0,0,1,6.715-6.715H344.78A6.714,6.714,0,0,1,351.5,38.55V32.911A6.715,6.715,0,0,0,344.78,26.189Z" transform="translate(-61.99 -26.189)" fill="#eaf8ff" opacity="0.4"/>
        <rect id="Rectangle_45026" data-name="Rectangle 45026" width="266.88" height="77.04" rx="1.461" transform="translate(10.006 22.05)" fill="#eaf8ff" opacity="0.3"/>
        <path id="Rectangle_45027" data-name="Rectangle 45027" d="M1.46,0H265.419a1.461,1.461,0,0,1,1.461,1.461V75.579a1.46,1.46,0,0,1-1.46,1.46H1.46A1.46,1.46,0,0,1,0,75.579V1.46A1.46,1.46,0,0,1,1.46,0Z" transform="translate(11.315 18.125)" fill="#387594"/>
        <path id="Path_209681" data-name="Path 209681" d="M327.8,96.4H79.982a9.527,9.527,0,0,1-9.528-9.528V29.038A9.5,9.5,0,0,0,63.725,38.1V96.076a9.528,9.528,0,0,0,9.528,9.535H321.068a9.534,9.534,0,0,0,9.535-9.535v-.144A9.3,9.3,0,0,1,327.8,96.4Z" transform="translate(-52.408 -10.445)" fill="#60caff" opacity="0.2"/>
        <path id="Path_209682" data-name="Path 209682" d="M321.013,28.966H73.2a9.506,9.506,0,0,0-9.463,8.83,9.73,9.73,0,0,1,2.056-.235H313.606A9.534,9.534,0,0,1,323.14,47.1v57.979c0,.235-.059.463-.072.7a9.526,9.526,0,0,0,7.479-9.3V38.5A9.534,9.534,0,0,0,321.013,28.966Z" transform="translate(-52.353 -10.843)" fill="#091217" opacity="0.2"/>
        <rect id="Rectangle_45028" data-name="Rectangle 45028" width="73.635" height="38.499" rx="0.716" transform="translate(35.911 42.856)" fill="#60caff" opacity="0.3"/>
        <rect id="Rectangle_45029" data-name="Rectangle 45029" width="73.635" height="38.5" rx="0.716" transform="translate(37.733 41.32)" fill="#1c3a4a"/>
        <path id="Path_209683" data-name="Path 209683" d="M136.625,32.52H72.335a4.619,4.619,0,0,0-4.542,4.014c.15-.013.274-.085.431-.085h64.29a4.672,4.672,0,0,1,4.673,4.673V70.274a4.363,4.363,0,0,1-.137.659,4.627,4.627,0,0,0,4.249-4.581V37.193A4.676,4.676,0,0,0,136.625,32.52Z" transform="translate(-29.927 8.798)" opacity="0.2"/>
        <g id="Group_151462" data-name="Group 151462" transform="translate(38.656 41.318)" opacity="0.3">
          <path id="Path_209684" data-name="Path 209684" d="M108.55,51.173V35.889a4.618,4.618,0,0,0-1.26-3.133C95.549,45.639,82.928,59.52,73.719,69.714H89.558Z" transform="translate(-35.834 -31.216)" fill="#bec9cf"/>
          <path id="Path_209685" data-name="Path 209685" d="M92.975,32.52,67.914,68.989a4.575,4.575,0,0,0,3.753,2.03H89l32.2-38.5Z" transform="translate(-67.914 -32.52)" fill="#bec9cf"/>
        </g>
        <path id="Path_209686" data-name="Path 209686" d="M350.575,131.714H74.5A6.714,6.714,0,0,1,67.786,125V26.2a6.7,6.7,0,0,0-5.8,6.624v102.26a6.719,6.719,0,0,0,6.715,6.722H344.78a6.715,6.715,0,0,0,6.716-6.722v-3.465A6.1,6.1,0,0,1,350.575,131.714Z" transform="translate(-61.99 -26.106)" fill="#1c3a4a" opacity="0.1"/>
        <path id="Path_209687" data-name="Path 209687" d="M346.536,139.865H70.462a6.721,6.721,0,0,1-6.722-6.722V30.883a6.643,6.643,0,0,1,1.821-4.568,6.68,6.68,0,0,0-3.57,5.9v102.26a6.719,6.719,0,0,0,6.715,6.722H344.78a6.677,6.677,0,0,0,4.9-2.154A6.6,6.6,0,0,1,346.536,139.865Z" transform="translate(-61.99 -25.493)" fill="#fff" opacity="0.4"/>
        <g id="Group_151463" data-name="Group 151463" transform="translate(125.292 50.265)">
          <circle id="Ellipse_4153" data-name="Ellipse 4153" cx="9.496" cy="9.496" r="9.496" fill="#bec9cf"/>
          <path id="Path_209688" data-name="Path 209688" d="M88.69,36.234a9.476,9.476,0,0,1,8.8,13.046,9.4,9.4,0,0,0,2.1-5.893A9.488,9.488,0,0,0,81.3,39.843,9.435,9.435,0,0,1,88.69,36.234Z" transform="translate(-80.598 -33.891)" fill="#1c3a4a" opacity="0.3"/>
        </g>
        <g id="Group_151464" data-name="Group 151464" transform="translate(161.175 50.265)">
          <circle id="Ellipse_4154" data-name="Ellipse 4154" cx="9.496" cy="9.496" r="9.496" fill="#bec9cf"/>
          <path id="Path_209689" data-name="Path 209689" d="M94.195,36.234a9.462,9.462,0,0,1,8.791,13.046,9.4,9.4,0,0,0,2.1-5.893,9.488,9.488,0,0,0-18.293-3.544A9.438,9.438,0,0,1,94.195,36.234Z" transform="translate(-86.098 -33.891)" fill="#1c3a4a" opacity="0.3"/>
        </g>
        <g id="Group_151465" data-name="Group 151465" transform="translate(197.058 50.265)">
          <circle id="Ellipse_4155" data-name="Ellipse 4155" cx="9.496" cy="9.496" r="9.496" fill="#bec9cf"/>
          <path id="Path_209690" data-name="Path 209690" d="M99.687,36.234a9.476,9.476,0,0,1,8.8,13.046,9.473,9.473,0,1,0-16.192-9.437A9.415,9.415,0,0,1,99.687,36.234Z" transform="translate(-91.591 -33.891)" fill="#1c3a4a" opacity="0.3"/>
        </g>
      </g>
      <path id="Path_209691" data-name="Path 209691" d="M304.939,90.391V38.5a9.534,9.534,0,0,0-9.535-9.535H68.369C127.712,44.361,218.192,67.862,304.939,90.391Z" transform="translate(35.247 15.346)" fill="#d0efff" opacity="0.2"/>
    </g>
    <g id="Group_157329" data-name="Group 157329" transform="translate(-6089.983 -5667.532)">
      <path id="Path_209692" data-name="Path 209692" d="M195.477,175.975l24.163,10.837,448.42-56.722L649.2,121.66Z" transform="translate(0.707 0.001)" fill="#ffd392"/>
      <path id="Path_209693" data-name="Path 209693" d="M219.915,154.265,196.185,144l-1.2,56.79,22.279,8.933Z" transform="translate(0 31.976)" fill="#c57716"/>
      <path id="Path_209694" data-name="Path 209694" d="M647.156,175.157l8.5-50.03L206.8,181.277l-2.653,55.457Z" transform="translate(13.116 4.964)" fill="#ecaf59"/>
      <path id="Path_209695" data-name="Path 209695" d="M652.794,129.563a60.925,60.925,0,0,1-14.126,2.64c-9.018.323-18.332-1.432-27.284.214-15.966,2.937-32.241,8.762-48.84,9.737-20,1.177-40.367,1.422-60.792,3.17-17.116,1.466-34.947,1.007-52.2,4.17-17.892,3.282-36.209,9.528-54.8,13.024-32.3,6.078-67.147,4.114-101.443,5.932-15.509.824-32.132,4.539-47.838,6.7-11.011,1.515-28.577,3.776-40.141,8.993l-.469,9.805c18.534-1.072,35.82-7.294,52.757-12.536,21.638-6.7,43.4-3.871,65.652-4.8,31.886-1.337,69.443-.365,98.693-10.046,31.293-10.36,56.87-14.024,89.065-13.535,14.435.219,28.526.26,42.477-.258,14.359-.532,26.3-4.413,39.657-8.1,12.507-3.452,25.7-4.376,38.524-5.6,3.508-.336,12.548.4,19.657-.985Z" transform="translate(14.141 11.313)" fill="#d79040" opacity="0.74"/>
      <path id="Path_209696" data-name="Path 209696" d="M400.374,141.943c-27.668-.37-56.741-2.261-83.7,4.478-4.673,1.169-16.039,3.037-15.164,10.214.807,6.606,13.64,7.031,18.5,7.642,16.528,2.074,33.362.639,49.234-2.5,9.093-1.8,18.191-3.844,26.934-7.155,2.186-.827,9.7-2.495,10.617-5.509C408.56,143.324,404.48,142,400.374,141.943Z" transform="translate(152.396 28.281)" fill="#d79040" opacity="0.74"/>
      <path id="Path_209697" data-name="Path 209697" d="M381.2,145.58c-8.32-3.448-75.572-4.547-72.683,7.44C311.553,165.6,377.75,151.933,381.2,145.58Z" transform="translate(162.377 30.91)" fill="#ecaf59"/>
      <path id="Path_209698" data-name="Path 209698" d="M345.8,144.824c-7.792-.083-27.887-3.287-30.885,6.005C320.387,153.027,353.953,153.8,345.8,144.824Z" transform="translate(171.656 32.298)" fill="#d79040" opacity="0.74"/>
      <path id="Path_209699" data-name="Path 209699" d="M444.844,136.066c-13.2,2.067-27.547,1.4-40.316,3.849-18.24,3.5-37.709,5.58-56.253,10.087,16.251,6.307,44.95,1.354,60.957-2.045,9.745-2.071,19.086-3.917,28.777-5.718.766-.143,3.049-.333,5.9-.659Z" transform="translate(219.407 20.621)" fill="#d79040" opacity="0.74"/>
      <path id="Path_209700" data-name="Path 209700" d="M391.383,149.7c-15.164,2.628-30.768,5.733-46.722,7.3-15.558,1.532-31.765-.08-47.2,2.018-15.986,2.174-30.355,7.262-46.858,8.85-16,1.537-30.428,4.306-45.633,7.561l-.445,9.322c10.588-2.567,23.058-2.186,33.7-4.777,10.9-2.655,21.726-5.772,32.353-8.317,33.81-8.106,68.869-3.815,102.187-8.475,15.256-2.135,31.349-7.394,46.793-5.641,14.16,1.607,25.993,10.287,40.6,4.831-11.512-3.112-22.032-9.326-33.333-12.353S402.953,147.7,391.383,149.7Z" transform="translate(13.659 37.66)" fill="#d79040" opacity="0.74"/>
      <path id="Path_209701" data-name="Path 209701" d="M204.242,182.812c12.412-.919,24.887-3.664,37.179-4.846,22.859-2.2,41.872-10.165,62.7-18.563-23.391,4.488-54.1,12.171-80.417,10.331-7.841-.549-12.57,7.131-19.176,7.112Z" transform="translate(13.252 54.023)" fill="#d79040" opacity="0.74"/>
      <path id="Path_209702" data-name="Path 209702" d="M374.418,158.351c-19.171-7.824-50.7,1.93-70.8,4.824-19.941,2.871-47.186-4.051-61.346,15.791,14.05,1.053,26.973-6.436,40.408-8.947,12.331-2.3,24.454-3.973,36.637-5.145,10.224-.985,20.554-1.566,30.693-2.66,8.614-.931,20.323.569,27.661-4.1C376.084,157.107,375.576,158.823,374.418,158.351Z" transform="translate(67.679 48.259)" fill="#d79040" opacity="0.74"/>
      <path id="Path_209703" data-name="Path 209703" d="M389.388,149.129c-9.183,2-41.266,3.533-44.865,13.715,10.839,1.872,23.421-3.6,34.014-5,11.155-1.481,22.433-2.254,33.464-3.406.953-.1,2.431-.139,4.262-.158l29.973-4.167,1.272-7.486A283.063,283.063,0,0,0,389.388,149.129Z" transform="translate(214.035 30.008)" fill="#d79040" opacity="0.74"/>
      <path id="Path_209704" data-name="Path 209704" d="M212.311,161.82a52.631,52.631,0,0,1,5.1-2.465c11.692-4.87,23.549-6.44,35.9-7.858,22.482-2.575,46.661-2.431,66.608-13.124-17.77,8.191-42.139,2.443-61.39,6.5-15.845,3.338-40.787,3.992-59.037,11.4Z" transform="translate(6.452 23.923)" fill="#f3bc63"/>
      <path id="Path_209705" data-name="Path 209705" d="M295.351,143.327c7.374-1.337,14.024-4.824,21.444-6.139,7.209-1.279,14.867.858,21.852-1.938,11.152-3.79-83.522,5.757-83.522,5.757a30.753,30.753,0,0,0-3.331,4.634C262.7,152.045,284.016,145.386,295.351,143.327Z" transform="translate(81.313 18.179)" fill="#f3bc63"/>
      <path id="Path_209706" data-name="Path 209706" d="M354.808,138.461c14.191-3.8,30.248-3.345,43.632-8.138a39.77,39.77,0,0,0-8.135-1.906l-48.947,5.859a133.727,133.727,0,0,0-38.514,10.314c-4.243,1.884-11.087,3.888-22.373,5.675C296.039,151.356,340.371,142.326,354.808,138.461Z" transform="translate(122.358 9.673)" fill="#f3bc63"/>
      <path id="Path_209707" data-name="Path 209707" d="M363.713,134.674c5.774-1.218,25.373-2.358,27.683-7.632a10.505,10.505,0,0,0-2.91-2.234l-53.79,6.44c-.148,1.06-3.876,1.7.049,3.338C342.646,138.674,355.712,136.359,363.713,134.674Z" transform="translate(197.476 4.507)" fill="#f3bc63"/>
      <path id="Path_209708" data-name="Path 209708" d="M408.718,126.21c3.163-.292,9.73-.007,12.784-1.69l-6.4-2.862-50.4,6.034c-1.337,2.249-2.66,4.423-5.67,5.85C375.57,135.78,392.951,127.667,408.718,126.21Z" transform="translate(234.809)" fill="#f3bc63"/>
      <path id="Path_209709" data-name="Path 209709" d="M362.443,134.881c-.523-2.363-3.411-4.481-4.858-4.527-3.861-.119-7.457,3.025-11.447,3.078-3,.041-5.49-.1-8.4.793a29.171,29.171,0,0,1-9.21,1.746,26.607,26.607,0,0,0-9.582,1.169c-1.867.659-4.792,2.144-6.183,3.956Z" transform="translate(168.58 12.44)" fill="#f3bc63"/>
      <path id="Path_209710" data-name="Path 209710" d="M285.34,144.42c-3.263-.773-6.253-2.978-9.4-3.766-3.311-.832-7.826-.287-11.092.474-3,.7-5.412,2.735-8.4,3.579-3.652,1.031-7.413,1.393-11.016,2.616-1.5.511-7.651,1.629-11.089,3.477Z" transform="translate(56.337 26.59)" fill="#f3bc63"/>
      <path id="Path_209711" data-name="Path 209711" d="M566.914,150.082C556,151.154,546.7,156.6,535.942,158.951a115.676,115.676,0,0,1-25.5,2.636c-19.482-.114-40.262-3.635-60.194-1.42-23.4,2.6-44.9,17.014-68.832,21.257-22.878,4.058-45.983-2.035-69.759,3.824-21.077,5.2-43.155,14.077-65.533,13.319-10.231-.348-21.653-6.688-31.539-6.022a38.851,38.851,0,0,0-9.348,1.952l-1.092,22.8,443.01-61.58,2.888-17.009C625.061,151.6,594.271,147.4,566.914,150.082Z" transform="translate(13.115 24.402)" fill="#c27e2a" opacity="0.32" style="mix-blend-mode: multiply;isolation: isolate"/>
      <path id="Path_209712" data-name="Path 209712" d="M205.75,203.832l-1.013.141-1-.32,2.5-55.636,2.587.508Z" transform="translate(12.525 37.725)" fill="#ffd8a0"/>
      <path id="Path_209713" data-name="Path 209713" d="M196.211,143.964l-.721.086-.022,1.033,22.49,11.186,1.706-1.877Z" transform="translate(0.695 31.925)" fill="#ffd8a0"/>
      <path id="Path_209714" data-name="Path 209714" d="M654.617,126.7l.268-1.578L205.031,181.205l-.348,3.951Z" transform="translate(13.883 4.964)" fill="#ffe4be"/>
    </g>
    <g id="Group_157330" data-name="Group 157330" transform="translate(-6062.219 -5679.372)">
      <path id="Path_209667" data-name="Path 209667" d="M188.8,145.191h0a1.755,1.755,0,0,1-1.755-1.755V88.751A1.752,1.752,0,0,1,188.8,87h0a1.752,1.752,0,0,1,1.755,1.752v54.686A1.755,1.755,0,0,1,188.8,145.191Z" transform="translate(15.164 48.328)" fill="#c7fff6"/>
      <path id="Path_209668" data-name="Path 209668" d="M198.193,145.191h0a1.754,1.754,0,0,1-1.752-1.755V88.751A1.752,1.752,0,0,1,198.193,87h0a1.752,1.752,0,0,1,1.755,1.752v54.686A1.755,1.755,0,0,1,198.193,145.191Z" transform="translate(31.493 48.328)" fill="#c7fff6"/>
      <g id="Group_151457" data-name="Group 151457" transform="translate(178.315 59.183)">
        <path id="Path_209669" data-name="Path 209669" d="M255.226,65.1l-3.9-3.9a6.93,6.93,0,0,0-4.892-2.026H189.125a6.923,6.923,0,0,0-4.889,2.026l-3.9,3.9A6.918,6.918,0,0,0,178.315,70V113.97h78.936V70A6.93,6.93,0,0,0,255.226,65.1Z" transform="translate(-178.315 -59.183)" fill="#6bb3a7"/>
        <path id="Path_209670" data-name="Path 209670" d="M226.841,105.594H186.013V61.617a6.9,6.9,0,0,1,.4-2.228,6.876,6.876,0,0,0-2.176,1.462l-3.9,3.9a6.918,6.918,0,0,0-2.026,4.892v43.974h78.936v-8.018Z" transform="translate(-178.315 -58.825)" fill="#253d39" opacity="0.1"/>
        <path id="Path_209671" data-name="Path 209671" d="M252.989,65.1l-3.9-3.9a6.93,6.93,0,0,0-4.892-2.026H186.889A6.923,6.923,0,0,0,182,61.209l-2.4,2.4a6.9,6.9,0,0,1,4.465-1.678H241.38a6.921,6.921,0,0,1,4.892,2.028l3.893,3.9a6.907,6.907,0,0,1,2.026,4.889V113.97h2.825V70A6.93,6.93,0,0,0,252.989,65.1Z" transform="translate(-176.079 -59.183)" fill="#98ffee" opacity="0.3"/>
        <path id="Path_209672" data-name="Path 209672" d="M219.144,79.2H178.315l17.147,32.567a4.372,4.372,0,0,0,3.865,2.335h36.909a4.373,4.373,0,0,0,3.868-2.335L257.251,79.2Z" transform="translate(-178.315 -24.41)" fill="#497a72"/>
        <path id="Path_209673" data-name="Path 209673" d="M212.073,79.2l-15,28.494a4.372,4.372,0,0,0,3.868,6.408h0a4.38,4.38,0,0,0,3.868-2.335L221.953,79.2Z" transform="translate(-146.61 -24.41)" fill="#9fe" opacity="0.3"/>
        <path id="Path_209674" data-name="Path 209674" d="M224.889,106.078H202.437L188.285,79.2h-9.97l17.147,32.567a4.372,4.372,0,0,0,3.865,2.335h36.909a4.373,4.373,0,0,0,3.868-2.335l2.992-5.686Z" transform="translate(-178.315 -24.41)" fill="#253d39" opacity="0.2"/>
        <path id="Path_209675" data-name="Path 209675" d="M254.359,84.689l2.892-5.492H178.315l2.892,5.492Z" transform="translate(-178.315 -24.41)" fill="#253d39" opacity="0.2"/>
        <rect id="Rectangle_45011" data-name="Rectangle 45011" width="57.224" height="30.408" rx="1.101" transform="translate(10.214 9.762)" fill="#9bffee"/>
        <path id="Rectangle_45012" data-name="Rectangle 45012" d="M1.1,0H56.123a1.1,1.1,0,0,1,1.1,1.1V29.307a1.1,1.1,0,0,1-1.1,1.1H1.1a1.1,1.1,0,0,1-1.1-1.1V1.1A1.1,1.1,0,0,1,1.1,0Z" transform="translate(10.856 9.097)" fill="#253d39"/>
        <path id="Path_209676" data-name="Path 209676" d="M236.487,62.506H185.295a3.015,3.015,0,0,0-3.014,3.017v1.218h51.13a3.014,3.014,0,0,1,3.014,3.014V92.913h.063A3.015,3.015,0,0,0,239.5,89.9V65.523A3.015,3.015,0,0,0,236.487,62.506Z" transform="translate(-171.424 -53.41)" opacity="0.3"/>
        <g id="Group_151452" data-name="Group 151452" transform="translate(10.857 9.096)" opacity="0.4">
          <path id="Path_209677" data-name="Path 209677" d="M224.2,75.927V65.914c-10.972,6.986-23.085,14.7-33.109,21.078H205.3Z" transform="translate(-166.976 -56.585)" fill="#9bffee"/>
          <path id="Path_209678" data-name="Path 209678" d="M236.487,62.506H199.026c-5.453,6.271-11.344,13.044-16.745,19.25V89.9a3.014,3.014,0,0,0,3.014,3.014h11.85c12.726-9.4,27.465-20.35,40.6-30.125A2.965,2.965,0,0,0,236.487,62.506Z" transform="translate(-182.281 -62.506)" fill="#9bffee"/>
        </g>
        <g id="Group_151453" data-name="Group 151453" transform="translate(12.602 44.78)">
          <path id="Rectangle_45013" data-name="Rectangle 45013" d="M.481,0H7.09a.48.48,0,0,1,.48.48V3.5a.48.48,0,0,1-.48.48H.48A.48.48,0,0,1,0,3.5V.481A.481.481,0,0,1,.481,0Z" transform="translate(0 0.711)" fill="#253d39" opacity="0.3"/>
          <path id="Rectangle_45014" data-name="Rectangle 45014" d="M.481,0H7.09a.48.48,0,0,1,.48.48V3.5a.48.48,0,0,1-.48.48H.48A.48.48,0,0,1,0,3.5V.481A.481.481,0,0,1,.481,0Z" transform="translate(0.385)" fill="#253d39"/>
        </g>
        <g id="Group_151454" data-name="Group 151454" transform="translate(27.016 44.78)">
          <path id="Rectangle_45015" data-name="Rectangle 45015" d="M.481,0H7.09a.48.48,0,0,1,.48.48V3.5a.48.48,0,0,1-.48.48H.48A.48.48,0,0,1,0,3.5V.481A.481.481,0,0,1,.481,0Z" transform="translate(0 0.711)" fill="#253d39" opacity="0.3"/>
          <path id="Rectangle_45016" data-name="Rectangle 45016" d="M.481,0H7.089a.48.48,0,0,1,.48.48V3.5a.48.48,0,0,1-.48.48H.48A.48.48,0,0,1,0,3.5V.481A.481.481,0,0,1,.481,0Z" transform="translate(0.385)" fill="#253d39"/>
        </g>
        <g id="Group_151455" data-name="Group 151455" transform="translate(41.43 44.78)">
          <path id="Rectangle_45017" data-name="Rectangle 45017" d="M.481,0H7.09a.48.48,0,0,1,.48.48V3.5a.48.48,0,0,1-.48.48H.481A.481.481,0,0,1,0,3.5V.481A.481.481,0,0,1,.481,0Z" transform="translate(0 0.711)" fill="#253d39" opacity="0.3"/>
          <rect id="Rectangle_45018" data-name="Rectangle 45018" width="7.57" height="3.977" rx="0.48" transform="translate(0.385)" fill="#253d39"/>
        </g>
        <g id="Group_151456" data-name="Group 151456" transform="translate(55.844 44.78)">
          <path id="Rectangle_45019" data-name="Rectangle 45019" d="M.481,0H7.09a.48.48,0,0,1,.48.48V3.5a.48.48,0,0,1-.48.48H.48A.48.48,0,0,1,0,3.5V.481A.481.481,0,0,1,.481,0Z" transform="translate(0 0.711)" fill="#253d39" opacity="0.3"/>
          <path id="Rectangle_45020" data-name="Rectangle 45020" d="M.481,0H7.09a.48.48,0,0,1,.48.48V3.5a.48.48,0,0,1-.48.48H.48A.48.48,0,0,1,0,3.5V.481A.481.481,0,0,1,.481,0Z" transform="translate(0.385)" fill="#253d39"/>
        </g>
      </g>
      <rect id="Rectangle_45021" data-name="Rectangle 45021" width="3.508" height="1.571" transform="translate(202.208 148.871)" fill="#253d39" opacity="0.3"/>
      <rect id="Rectangle_45022" data-name="Rectangle 45022" width="3.508" height="1.571" transform="translate(227.933 148.871)" fill="#253d39" opacity="0.3"/>
    </g>
  </g>
</svg>
