<svg xmlns="http://www.w3.org/2000/svg" width="149.802" height="307.591" viewBox="0 0 149.802 307.591">
  <g id="Group_157335" data-name="Group 157335" transform="translate(-1596.099 -6444.833)">
    <g id="Group_157333" data-name="Group 157333" transform="translate(1243.28 6525.068)">
      <g id="Group_151441" data-name="Group 151441" transform="translate(352.819 23.335)">
        <path id="Path_209583" data-name="Path 209583" d="M387.084,60.356,388.308,218.3l33.25-18.16a1.215,1.215,0,0,1,.744-1.755,7.212,7.212,0,0,1,1.842-.537,2.023,2.023,0,0,1,1.246.2l15.845-8.653,1.587-160.87Z" transform="translate(-293.021 -14.28)" fill="#ffd392"/>
        <path id="Path_209584" data-name="Path 209584" d="M447.925,74.167l54.7-36.588L419.08,23.335,352.819,52.243Z" transform="translate(-352.819 -23.335)" fill="#fcd381"/>
        <path id="Path_209585" data-name="Path 209585" d="M447.925,52.368l-95.105-18.5V188.352l17.193,3.665a2.088,2.088,0,0,1,.815-.266,5.084,5.084,0,0,1,1.872.1,1.5,1.5,0,0,1,1.164.987l71.518,15.245a21.492,21.492,0,0,1,2.119-.762,3.94,3.94,0,0,1,.865-.088c.126-.056.231-.1.3-.127a2.67,2.67,0,0,1,.233-.29Z" transform="translate(-352.819 -4.957)" fill="#ecaf59"/>
        <g id="Group_151437" data-name="Group 151437" transform="translate(0.001 32.559)" opacity="0.32" style="mix-blend-mode: multiply;isolation: isolate">
          <path id="Path_209586" data-name="Path 209586" d="M399.846,84.347c1.793,3.086,4.143,6.319,5.836,9.693l-.036-6.989c-.516-.7-1.024-1.395-1.48-2.095a94.571,94.571,0,0,1-9.1-17.3c-3.643-9.43-7.478-18.656-12.831-27.013l-5.062-1.167a166.619,166.619,0,0,0,12.993,26.392C393.667,71.87,396.363,78.348,399.846,84.347Z" transform="translate(-310.322 -27.719)" fill="#d69776"/>
          <path id="Path_209587" data-name="Path 209587" d="M383.443,62.717c5.246,12.115,11.741,23.046,17.877,34.68,4.963,9.405,11.684,16.987,17.3,25.47l-.03-5.543c-1.246-2.191-2.91-4.458-4.917-7.978-4.8-8.406-8.417-17.311-12.205-26.252C397.35,73.377,392.9,64.01,388.374,54.52c-2.548-5.334-6.089-9.88-9.235-14.588l-9.3-2.144.03.06C373.945,46.474,379.652,53.968,383.443,62.717Z" transform="translate(-323.12 -30.67)" fill="#d69776"/>
          <path id="Path_209588" data-name="Path 209588" d="M386.391,90.78c7.467,12.019,16.6,23.389,24.883,34.881,7.876,10.929,18.322,20.046,25.772,31.122.283.42.975,2.932,1.386,4.112l-.074-13.622c-2.778-3.011-6.407-5.131-9.059-7.909-3.893-4.074-6.528-9.262-9.089-14.3-6.814-13.41-13.6-26.521-20.71-39.663-6.7-12.378-14.182-24.2-20.858-36.618-1.9-3.53-3.939-6.937-5.976-10.341l-14.077-3.245c2.2,6.292,5.622,11.84,8.73,17.756C373.873,65.436,379.034,78.937,386.391,90.78Z" transform="translate(-342.754 -35.195)" fill="#d69776"/>
          <path id="Path_209589" data-name="Path 209589" d="M385,105.247c9.987,14.994,19.625,30.208,32.314,43.372,6.185,6.416,12.1,12.076,17.265,19.219a41.517,41.517,0,0,0,13.723,11.9c.113.063.228,0,.346-.113L448.6,170.7c-1.112-1.985-2.745-2.383-5.1-4.8-7.791-8.013-17.119-16.565-23.974-25.509-8.005-10.443-11.33-24.331-19.041-35.18-8.51-11.972-16.727-23.977-25.36-35.756-4.821-6.578-9.685-12.439-14.9-18.593-2.155-2.542-4.675-6.424-7.415-10.042v19.37c.236.316.486.648.711.953C364.353,75.812,374.87,90.035,385,105.247Z" transform="translate(-352.82 -25.375)" fill="#d69776"/>
          <path id="Path_209590" data-name="Path 209590" d="M439.8,162.518c-5.663-5.842-10.849-12.027-17.1-16.971-14.739-11.653-27.34-27.732-37.577-43.97-5.861-9.293-12.971-17.391-18.909-26.834-2.946-4.683-6.158-9.095-9.235-13.69-1.469-2.2-2.709-5.147-4.154-7.884V66.559c.085.137.156.283.247.423,8.411,13.281,18.223,25.945,27.3,38.916,10.728,15.329,20.943,29.53,33.942,42.628,5.754,5.8,11.288,12.535,18.492,16.853,3.948,2.369,10.341,7.039,15.944,9.765l-.03-5.7C445.77,167.141,442.514,165.318,439.8,162.518Z" transform="translate(-352.82 -36.037)" fill="#d69776"/>
          <path id="Path_209591" data-name="Path 209591" d="M437.013,155.429c-7.291-5.924-12.112-13.594-18.33-20.312a254.536,254.536,0,0,0-21.632-20.1c-16.276-13.767-29.2-31.636-44.231-47.358V86.327c3.769,4.538,7.849,8.862,11.453,13.649,5.024,6.674,11.445,9.726,17.729,15.047,5.963,5.048,9.858,10.833,16.839,14.9,7.832,4.56,13.965,10.138,20.693,16.059,9.581,8.428,18.991,17.762,29.322,25l-.036-6.572a8.568,8.568,0,0,0-.651-1.112C445.633,159.731,440.554,158.3,437.013,155.429Z" transform="translate(-352.82 -10.742)" fill="#d69776"/>
          <path id="Path_209592" data-name="Path 209592" d="M373.942,99.16C371.194,96.6,361.165,85.742,352.82,78.8V93.285c3.912,4.011,7.514,7.294,8.623,8.258,6.959,6.07,14.591,11.53,21.437,17.88,7.061,6.55,15.634,10.454,22.931,16.674,7.854,6.7,15.3,13.4,21.86,21.3l9.949,2.515c-5.383-7.577-11.9-14.78-17.907-21.421C406.335,123.694,388.549,112.776,373.942,99.16Z" transform="translate(-352.82 8.694)" fill="#d69776"/>
          <path id="Path_209593" data-name="Path 209593" d="M389.3,119.561c-7.739-6.287-13.476-13.885-21.456-19.549-3.042-2.158-9.446-8.453-15.027-12.054V99.191c5.773,6.394,13.545,11.686,19.348,16.617,6.624,5.628,13.073,11.434,19.993,16.639l19.118,4.829C405.083,130.075,396.661,125.54,389.3,119.561Z" transform="translate(-352.82 24.679)" fill="#d69776"/>
          <path id="Path_209594" data-name="Path 209594" d="M370.829,113.931a4.312,4.312,0,0,1,1.872.121,1.61,1.61,0,0,1,1.164,1.169l8.433,2.13a132.849,132.849,0,0,0-16.238-12.812,103.6,103.6,0,0,1-11.324-7.747c-.384-.316-1.082-.925-1.916-1.611v5.757c2.029,1.164,3.928,2.169,4.892,2.877,3.566,2.616,6.322,5.957,9.54,9.084.291.283.61.587.911.881l1.85.467A1.874,1.874,0,0,1,370.829,113.931Z" transform="translate(-352.82 37.284)" fill="#d69776"/>
        </g>
        <g id="Group_151439" data-name="Group 151439" transform="translate(94.168 22.358)" opacity="0.32" style="mix-blend-mode: multiply;isolation: isolate">
          <g id="Group_151438" data-name="Group 151438">
            <path id="Path_209595" data-name="Path 209595" d="M402.147,74.469c7.689-6.709,15.6-13.215,23.244-19.8,5.573-4.8,11.846-8.719,17.215-13.655l.082-9.537c-.623.524-1.224,1.018-1.76,1.406-6,4.321-12.087,8.359-17.951,12.831-8.022,6.116-16.057,12.367-23.809,18.624-4.115,3.319-8.76,7.385-12.046,11.964l.093,14.023c1.732-1.955,3.094-4.458,4.8-6.319A124.4,124.4,0,0,1,402.147,74.469Z" transform="translate(-387.122 -31.479)" fill="#e4baa4"/>
            <path id="Path_209596" data-name="Path 209596" d="M428.345,64.833c3.662-3.193,9.174-7.176,13.847-11.618l.1-11.357c-6.1,6.3-13.644,12.106-19.337,17.492-7.376,6.973-15.862,13.482-22.717,20.814-4.241,4.535-9.216,9.732-12.548,14.928-.165.258-.321.516-.472.771l.041,6.179a11.647,11.647,0,0,0,2.784-1.455C403.992,91.335,415.673,75.877,428.345,64.833Z" transform="translate(-386.963 -13.365)" fill="#e4baa4"/>
            <path id="Path_209597" data-name="Path 209597" d="M405.433,97.7c7.508-7.58,15.063-15.088,23.241-22.082,4.228-3.615,8.991-7.14,13.144-11.129l.11-12.842c-4.052,4.554-8.1,9.584-11.612,13.273-8.227,8.636-17.015,16.6-24.888,25.58-5.015,5.721-14.031,12.45-18.138,20.158l.055,8.23C393.958,114.032,399.877,103.307,405.433,97.7Z" transform="translate(-386.829 -8.44)" fill="#e4baa4"/>
            <path id="Path_209598" data-name="Path 209598" d="M406.605,114.828c7.95-7.7,16.024-14.5,23.112-23.062a124.258,124.258,0,0,0,11.7-16.191l.11-13.01c-11.324,13.265-22.966,26.53-35.054,38.7-7.058,7.11-15.491,16.142-19.1,25.767l.044,6.446C393.823,130.951,402.183,119.116,406.605,114.828Z" transform="translate(-386.68 3.545)" fill="#e4baa4"/>
            <path id="Path_209599" data-name="Path 209599" d="M408.2,110.571c7.151-5.8,13.377-12.606,20.216-18.538,3.89-3.374,8.565-6.438,12.68-9.858l.058-6.83c-3.377,3.075-7.017,5.8-10.47,8.842-7.267,6.394-14.388,12.54-21.783,18.621-4.823,3.964-17.462,13.125-21.476,20.993l.033,4.73C394.487,125.738,402.316,115.336,408.2,110.571Z" transform="translate(-386.6 20.937)" fill="#e4baa4"/>
            <path id="Path_209600" data-name="Path 209600" d="M407.513,115.812c7.253-5.592,14.94-11.379,22.618-16.49,2.965-1.974,7.033-4.008,10.69-6.361l.085-10.138c-4.3,3.665-9.106,6.943-13,10.058-8.082,6.465-16.342,13.1-23.971,20.114-3.832,3.528-11.947,8.872-16.477,14.7l.052,7.659C394.427,131.194,401.605,120.366,407.513,115.812Z" transform="translate(-386.529 25.918)" fill="#e4baa4"/>
            <path id="Path_209601" data-name="Path 209601" d="M406.817,116.772c-6.995,5.309-15.346,11.475-19.3,19.5l.025,3.429,9.048-5.781c3.047-3.319,5.946-6.781,8.417-8.941a264.568,264.568,0,0,1,21.308-17.267c2-1.408,8.241-3.81,14.2-6.836l.077-8.867C429.133,99.947,417.787,108.446,406.817,116.772Z" transform="translate(-386.426 41.957)" fill="#e4baa4"/>
          </g>
        </g>
        <g id="Group_151440" data-name="Group 151440" transform="translate(3.617 3.097)" opacity="0.74">
          <path id="Path_209602" data-name="Path 209602" d="M379,43.718l7.6,1.751a42.1,42.1,0,0,1,6.026-2.6A55.085,55.085,0,0,1,403.8,41.091c1.62-.1,5.812.291,9.907.3l5.3-3.541C408.328,37.552,384.538,37.143,379,43.718Z" transform="translate(-310.739 -1.338)" fill="#e6b76b"/>
          <path id="Path_209603" data-name="Path 209603" d="M375.263,43.642a12.525,12.525,0,0,0-2.446,1.963l8.23,1.9a78.757,78.757,0,0,1,8.51-3.736c7.626-2.465,16.189-4.708,24.122-5.389a145.094,145.094,0,0,1,19.156-.324,22.757,22.757,0,0,1,4.082.84l4.637-3.1C419.562,34.22,394.9,31.544,375.263,43.642Z" transform="translate(-321.536 -7.139)" fill="#e6b76b"/>
          <path id="Path_209604" data-name="Path 209604" d="M407.751,32.757c-7.777.706-20.929,3.445-27.935,7.25-2.52,1.367-8.645,4.705-11.656,8.181l7.511,1.732c4.626-2.789,9.037-7.1,13.084-9.018,7.728-3.659,17-3.819,25.273-5.081,7.717-1.178,15.988-.373,23.9,0,2.951.14,11.5.406,18.072,1.274l6.067-4.057C442.135,30.38,427.651,30.948,407.751,32.757Z" transform="translate(-329.664 -12.67)" fill="#e6b76b"/>
          <path id="Path_209605" data-name="Path 209605" d="M454.441,29.261c-12.721-1.312-23.642-1.768-36.429,0-13.377,1.85-25.231,4.886-37.088,11.524-.966.541-12.241,6.1-16.466,10.506l7.02,1.617c6.078-3.753,13.7-9.932,16.139-11.231,7.5-4,16.521-5.007,24.682-6.715,17.83-3.728,36.835-2,54.912-.239.953.093,2.946.656,5.164,1.183l4.143-2.773C469.363,31.993,461.507,29.991,454.441,29.261Z" transform="translate(-336.125 -18.116)" fill="#e6b76b"/>
          <path id="Path_209606" data-name="Path 209606" d="M406.909,33.467A200.873,200.873,0,0,1,461,28.974c8.883.478,18.728,4.593,27.974,4.991l1.45-.969-29.64-5.054a49.253,49.253,0,0,1-5.628-.307,121.747,121.747,0,0,0-40.876.11,135.543,135.543,0,0,0-35.421,11.286c-4.005,1.911-15.368,7.865-19.054,13.053l7.9,1.82c6.355-2.907,12.823-8.376,17.75-11.173C392.585,38.681,398.937,35.246,406.909,33.467Z" transform="translate(-344.242 -21.85)" fill="#e6b76b"/>
          <path id="Path_209607" data-name="Path 209607" d="M420.826,27.911c7.159-1.057,14.47-1.584,21.761-2.144l-7.648-1.3a136.524,136.524,0,0,0-14.594.889c-10.709,1.318-20.364,4.326-30.535,7.78l-30.672,13.38c-.6.42-1.216.821-1.782,1.266a19.226,19.226,0,0,0-3.22,3.33l7.8,1.8c3.563-2.611,7.061-6.339,10.16-8.032C387.565,36.424,403.812,30.423,420.826,27.911Z" transform="translate(-354.137 -24.463)" fill="#e6b76b"/>
        </g>
        <path id="Path_209608" data-name="Path 209608" d="M502.617,29.87l0-1.168-1.669-.311L444.907,57.465h0l-91.318-17.8-.769,1.579.048,1.721L441.742,61.1l1.811,156.276,4.553,1.158,1.058-.578-.908-157.527.02-.06Z" transform="translate(-352.819 -14.511)" fill="#ffe4be"/>
      </g>
      <path id="Path_209609" data-name="Path 209609" d="M359.169,129.432a1.874,1.874,0,0,1,.815-.316,4.313,4.313,0,0,1,1.872.121,1.662,1.662,0,0,1,1.081.878c-.014-.184-.033-.368-.036-.552-.055-4.417.313-8.683.178-13.128-.14-4.6-.755-8.914-1.186-13.254-.535-5.339-1.864-10.942-1.828-16.7,0,5.043.1,10.026.1,15.123,0,9.427-.782,18.522-1.134,27.8Z" transform="translate(10.846 77.993)" fill="#985339"/>
      <path id="Path_209610" data-name="Path 209610" d="M402.271,121.069a6.445,6.445,0,0,1,1.842-.629,1.771,1.771,0,0,1,1.246.233l.288-.184c-.464-1.746-1.186-3.459-1.735-4.944-3.19-8.6-2.613-17.567-5.057-26.2.019,4.11-.327,8.318-.291,12.5.058,7.063,2.284,13.748,2.828,20.729A1.464,1.464,0,0,1,402.271,121.069Z" transform="translate(79.83 82.99)" fill="#985339"/>
    </g>
    <g id="Group_157328" data-name="Group 157328" transform="translate(1460.217 6385.649)">
      <path id="Path_209667" data-name="Path 209667" d="M188.8,145.191h0a1.755,1.755,0,0,1-1.755-1.755V88.751A1.752,1.752,0,0,1,188.8,87h0a1.752,1.752,0,0,1,1.755,1.752v54.686A1.755,1.755,0,0,1,188.8,145.191Z" transform="translate(15.164 48.328)" fill="#c7fff6"/>
      <path id="Path_209668" data-name="Path 209668" d="M198.193,145.191h0a1.754,1.754,0,0,1-1.752-1.755V88.751A1.752,1.752,0,0,1,198.193,87h0a1.752,1.752,0,0,1,1.755,1.752v54.686A1.755,1.755,0,0,1,198.193,145.191Z" transform="translate(31.493 48.328)" fill="#c7fff6"/>
      <g id="Group_151457" data-name="Group 151457" transform="translate(178.315 59.183)">
        <path id="Path_209669" data-name="Path 209669" d="M255.226,65.1l-3.9-3.9a6.93,6.93,0,0,0-4.892-2.026H189.125a6.923,6.923,0,0,0-4.889,2.026l-3.9,3.9A6.918,6.918,0,0,0,178.315,70V113.97h78.936V70A6.93,6.93,0,0,0,255.226,65.1Z" transform="translate(-178.315 -59.183)" fill="#6bb3a7"/>
        <path id="Path_209670" data-name="Path 209670" d="M226.841,105.594H186.013V61.617a6.9,6.9,0,0,1,.4-2.228,6.876,6.876,0,0,0-2.176,1.462l-3.9,3.9a6.918,6.918,0,0,0-2.026,4.892v43.974h78.936v-8.018Z" transform="translate(-178.315 -58.825)" fill="#253d39" opacity="0.1"/>
        <path id="Path_209671" data-name="Path 209671" d="M252.989,65.1l-3.9-3.9a6.93,6.93,0,0,0-4.892-2.026H186.889A6.923,6.923,0,0,0,182,61.209l-2.4,2.4a6.9,6.9,0,0,1,4.465-1.678H241.38a6.921,6.921,0,0,1,4.892,2.028l3.893,3.9a6.907,6.907,0,0,1,2.026,4.889V113.97h2.825V70A6.93,6.93,0,0,0,252.989,65.1Z" transform="translate(-176.079 -59.183)" fill="#98ffee" opacity="0.3"/>
        <path id="Path_209672" data-name="Path 209672" d="M219.144,79.2H178.315l17.147,32.567a4.372,4.372,0,0,0,3.865,2.335h36.909a4.373,4.373,0,0,0,3.868-2.335L257.251,79.2Z" transform="translate(-178.315 -24.41)" fill="#497a72"/>
        <path id="Path_209673" data-name="Path 209673" d="M212.073,79.2l-15,28.494a4.372,4.372,0,0,0,3.868,6.408h0a4.38,4.38,0,0,0,3.868-2.335L221.953,79.2Z" transform="translate(-146.61 -24.41)" fill="#9fe" opacity="0.3"/>
        <path id="Path_209674" data-name="Path 209674" d="M224.889,106.078H202.437L188.285,79.2h-9.97l17.147,32.567a4.372,4.372,0,0,0,3.865,2.335h36.909a4.373,4.373,0,0,0,3.868-2.335l2.992-5.686Z" transform="translate(-178.315 -24.41)" fill="#253d39" opacity="0.2"/>
        <path id="Path_209675" data-name="Path 209675" d="M254.359,84.689l2.892-5.492H178.315l2.892,5.492Z" transform="translate(-178.315 -24.41)" fill="#253d39" opacity="0.2"/>
        <rect id="Rectangle_45011" data-name="Rectangle 45011" width="57.224" height="30.408" rx="1.101" transform="translate(10.214 9.762)" fill="#9bffee"/>
        <path id="Rectangle_45012" data-name="Rectangle 45012" d="M1.1,0H56.123a1.1,1.1,0,0,1,1.1,1.1V29.307a1.1,1.1,0,0,1-1.1,1.1H1.1a1.1,1.1,0,0,1-1.1-1.1V1.1A1.1,1.1,0,0,1,1.1,0Z" transform="translate(10.856 9.097)" fill="#253d39"/>
        <path id="Path_209676" data-name="Path 209676" d="M236.487,62.506H185.295a3.015,3.015,0,0,0-3.014,3.017v1.218h51.13a3.014,3.014,0,0,1,3.014,3.014V92.913h.063A3.015,3.015,0,0,0,239.5,89.9V65.523A3.015,3.015,0,0,0,236.487,62.506Z" transform="translate(-171.424 -53.41)" opacity="0.3"/>
        <g id="Group_151452" data-name="Group 151452" transform="translate(10.857 9.096)" opacity="0.4">
          <path id="Path_209677" data-name="Path 209677" d="M224.2,75.927V65.914c-10.972,6.986-23.085,14.7-33.109,21.078H205.3Z" transform="translate(-166.976 -56.585)" fill="#9bffee"/>
          <path id="Path_209678" data-name="Path 209678" d="M236.487,62.506H199.026c-5.453,6.271-11.344,13.044-16.745,19.25V89.9a3.014,3.014,0,0,0,3.014,3.014h11.85c12.726-9.4,27.465-20.35,40.6-30.125A2.965,2.965,0,0,0,236.487,62.506Z" transform="translate(-182.281 -62.506)" fill="#9bffee"/>
        </g>
        <g id="Group_151453" data-name="Group 151453" transform="translate(12.602 44.78)">
          <path id="Rectangle_45013" data-name="Rectangle 45013" d="M.481,0H7.09a.48.48,0,0,1,.48.48V3.5a.48.48,0,0,1-.48.48H.48A.48.48,0,0,1,0,3.5V.481A.481.481,0,0,1,.481,0Z" transform="translate(0 0.711)" fill="#253d39" opacity="0.3"/>
          <path id="Rectangle_45014" data-name="Rectangle 45014" d="M.481,0H7.09a.48.48,0,0,1,.48.48V3.5a.48.48,0,0,1-.48.48H.48A.48.48,0,0,1,0,3.5V.481A.481.481,0,0,1,.481,0Z" transform="translate(0.385)" fill="#253d39"/>
        </g>
        <g id="Group_151454" data-name="Group 151454" transform="translate(27.016 44.78)">
          <path id="Rectangle_45015" data-name="Rectangle 45015" d="M.481,0H7.09a.48.48,0,0,1,.48.48V3.5a.48.48,0,0,1-.48.48H.48A.48.48,0,0,1,0,3.5V.481A.481.481,0,0,1,.481,0Z" transform="translate(0 0.711)" fill="#253d39" opacity="0.3"/>
          <path id="Rectangle_45016" data-name="Rectangle 45016" d="M.481,0H7.089a.48.48,0,0,1,.48.48V3.5a.48.48,0,0,1-.48.48H.48A.48.48,0,0,1,0,3.5V.481A.481.481,0,0,1,.481,0Z" transform="translate(0.385)" fill="#253d39"/>
        </g>
        <g id="Group_151455" data-name="Group 151455" transform="translate(41.43 44.78)">
          <path id="Rectangle_45017" data-name="Rectangle 45017" d="M.481,0H7.09a.48.48,0,0,1,.48.48V3.5a.48.48,0,0,1-.48.48H.481A.481.481,0,0,1,0,3.5V.481A.481.481,0,0,1,.481,0Z" transform="translate(0 0.711)" fill="#253d39" opacity="0.3"/>
          <rect id="Rectangle_45018" data-name="Rectangle 45018" width="7.57" height="3.977" rx="0.48" transform="translate(0.385)" fill="#253d39"/>
        </g>
        <g id="Group_151456" data-name="Group 151456" transform="translate(55.844 44.78)">
          <path id="Rectangle_45019" data-name="Rectangle 45019" d="M.481,0H7.09a.48.48,0,0,1,.48.48V3.5a.48.48,0,0,1-.48.48H.48A.48.48,0,0,1,0,3.5V.481A.481.481,0,0,1,.481,0Z" transform="translate(0 0.711)" fill="#253d39" opacity="0.3"/>
          <path id="Rectangle_45020" data-name="Rectangle 45020" d="M.481,0H7.09a.48.48,0,0,1,.48.48V3.5a.48.48,0,0,1-.48.48H.48A.48.48,0,0,1,0,3.5V.481A.481.481,0,0,1,.481,0Z" transform="translate(0.385)" fill="#253d39"/>
        </g>
      </g>
      <rect id="Rectangle_45021" data-name="Rectangle 45021" width="3.508" height="1.571" transform="translate(202.208 148.871)" fill="#253d39" opacity="0.3"/>
      <rect id="Rectangle_45022" data-name="Rectangle 45022" width="3.508" height="1.571" transform="translate(227.933 148.871)" fill="#253d39" opacity="0.3"/>
    </g>
  </g>
</svg>
