<svg xmlns="http://www.w3.org/2000/svg" width="656.131" height="334.474" viewBox="0 0 656.131 334.474">
  <g id="Group_157321" data-name="Group 157321" transform="translate(5975.455 4482.165)">
    <g id="Group_151199" data-name="Group 151199" transform="translate(-5610.147 -4479.379)">
      <path id="Path_209154" data-name="Path 209154" d="M389.349,103.41,274.7,191.534l49.777,3.389,10.863-.785,3.444-.249,51.774-3.735,112.722-86.841C465.3,103,427.328,102.782,389.349,103.41Z" transform="translate(-274.704 -102.999)" fill="#ffb85a"/>
      <path id="Path_209155" data-name="Path 209155" d="M404.611,131.142c-29.959,23.144-65.631,48.184-78.244,62.117l1.276,3.876a40.622,40.622,0,0,1,2.458-3.245,96.858,96.858,0,0,1,7.378-7.948c6.969-6.778,34.64-28.308,51.688-39.866s33.862-26.746,44.03-36.237c2.042-1.905,4.7-4.247,7.714-6.838-1.308,0-2.615.006-3.924,0C428.067,110.817,423.249,116.743,404.611,131.142Z" transform="translate(-266.017 -103)" fill="#ea9a44"/>
      <path id="Path_209156" data-name="Path 209156" d="M295.659,202.7A248.364,248.364,0,0,1,324.9,178.981c16.714-11.5,28.48-22.271,48.251-36.247s42.4-30.226,42.4-30.226-25,27.951-42.59,40.338S318,194.392,318,194.392l-2.75,1.022s13.29-10.5,26.576-21.258,24.67-21.058,33.027-26.53c10.377-6.794,30.4-25.961,32.373-28.041,0,0-19.656,15.307-30.826,23.635-14.886,11.1-17.145,13.522-29.213,22.58s-24.4,18.056-31.14,23.6-16.2,11.737-16.2,11.737Z" transform="translate(-271.181 -101.401)" fill="#ea9a44"/>
      <path id="Path_209157" data-name="Path 209157" d="M503.285,103.269,390.561,190.111l-12.438.146-1.1.015L290.671,191.3l-3.282.04-12.684.151,8.795,22.662,33.12.049,33.828.048,48.831.072,111.735-86.862c-1.964-8.026-3.657-16.146-5.884-24.174Z" transform="translate(-274.704 -102.954)" fill="#ffb85a"/>
      <path id="Path_209158" data-name="Path 209158" d="M299.1,178.609s9.342,13.269,26.014,13.638S351.793,186.678,355,184.3s7.532-6.442,7.532-6.442l-5.668-.009s-6.42,7.15-12.258,8.8-18.633,4.787-26.288,1.724-12.422-6.25-13.546-8.032l-1.124-1.784Z" transform="translate(-270.603 -90.415)" fill="#ea9a44"/>
      <path id="Path_209159" data-name="Path 209159" d="M379.427,178.128s-3.316,10.114-13,15.417c-5.615,3.073-11.041,6.172-17.8,8.2l-33.828-.048a75.344,75.344,0,0,0-8.7-3.219c-10.928-3.224-20.528-19.642-20.528-19.642l3.282-.04s2.057,3.427,11.324,11.8,19.494,9.531,29.976,10.072,17.4-1.461,28.366-6.917c10.245-5.1,15.976-14.734,16.689-15.983l.076-.135,1.021.12Z" transform="translate(-272.878 -90.451)" fill="#ea9a44"/>
      <path id="Path_209160" data-name="Path 209160" d="M377.149,177.611s.468,11.648-8.26,16.634-14.411,7.526-14.411,7.526l9.826.015s8.483-5.1,11.416-8.455,3.12-10.58,3.12-10.58Z" transform="translate(-261.291 -90.454)" fill="#ea9a44"/>
      <path id="Path_209161" data-name="Path 209161" d="M488.9,105.039c-3.932,3.14-8.086,6.3-12.778,9.58-17.87,12.5-32.039,26.191-52.806,43.825s-41.52,26.276-48.722,33.875l.867,2.635a177.669,177.669,0,0,1,33.562-23.107c20.294-10.847,36.889-28.41,46.566-37.17,8.492-7.688,20.114-16.461,34.082-26.668Q489.293,106.524,488.9,105.039Z" transform="translate(-257.909 -102.657)" fill="#ea9a44"/>
      <path id="Path_209162" data-name="Path 209162" d="M476.8,129.2c-20.452,17.148-33.5,25.312-57.695,44.7-26.116,20.935-40.016,30.786-40.016,30.786L380.1,207.5s21.609-19.334,56.167-43.937,40.99-31.37,48.726-36.48a69.828,69.828,0,0,0,7.471-6.1q-.48-2.04-.95-4.083C486.975,120.65,482.173,124.686,476.8,129.2Z" transform="translate(-257.153 -100.663)" fill="#ea9a44"/>
      <path id="Path_209163" data-name="Path 209163" d="M274.7,191.492l3.418-.041s38.648-29.289,64.631-46.592c13.4-8.92,34.362-25.826,53.428-41.619-2.278.032-4.556.092-6.834.131Z" transform="translate(-274.704 -102.959)" fill="#ea9a44"/>
      <path id="Path_209164" data-name="Path 209164" d="M398.379,108.248s-50.213,38.064-73.468,53.371a368.282,368.282,0,0,0-39.348,29.74l3.282-.04s30.689-26.094,43.837-32.25,45.414-33.016,58.787-42.8a188.837,188.837,0,0,0,16.525-13.133q-2.309.021-4.62.043C400.154,106.363,398.379,108.248,398.379,108.248Z" transform="translate(-272.878 -102.977)" fill="#ea9a44"/>
      <path id="Path_209165" data-name="Path 209165" d="M393.034,119.5c-21.979,19.187-43.375,31.734-60.149,43.379s-33.79,28.309-33.79,28.309l4.551-.054s18.659-17.415,33.481-26.576,29.333-24.334,46.048-34.273c15.353-9.129,21.7-17.78,33.332-27.235-.926.006-1.852.02-2.777.026C407.225,107.857,400.4,113.067,393.034,119.5Z" transform="translate(-270.603 -102.992)" fill="#ea9a44"/>
      <path id="Path_209166" data-name="Path 209166" d="M396.491,120.943s9.358-6.961,23.28-17.933q-1.295,0-2.59,0C405.517,113.113,396.491,120.943,396.491,120.943Z" transform="translate(-254.227 -102.998)" fill="#ea9a44"/>
      <path id="Path_209167" data-name="Path 209167" d="M401.167,147.037c-45.018,32.354-52.619,43.385-52.619,43.385l5.668.009s5.847-8.5,22.342-20.05,49.6-40.864,58.712-47.369c5.279-3.767,13.033-11.4,22.121-19.938l-2.9-.012C442.735,115.016,440.5,118.765,401.167,147.037Z" transform="translate(-262.288 -102.989)" fill="#ea9a44"/>
      <path id="Path_209168" data-name="Path 209168" d="M455.341,106.379C440,119.7,392.013,157,392.013,157s41.707-27.2,71.176-53.664c.067-.06.145-.134.213-.2-1.454-.009-2.91-.023-4.364-.033Q457.248,104.721,455.341,106.379Z" transform="translate(-254.979 -102.981)" fill="#ea9a44"/>
      <path id="Path_209169" data-name="Path 209169" d="M461.751,115.721c-17.2,15.946-45.093,32.127-59.732,41.843S362.3,190.287,362.3,190.287l4.226.36a190.252,190.252,0,0,1,21.031-19.094c12.709-9.974,39.088-25.138,48.285-32.7s34.306-26.616,40.987-33.415c.62-.631,1.391-1.4,2.229-2.223l-3.835-.029C470.622,107.482,466.084,111.7,461.751,115.721Z" transform="translate(-259.976 -102.969)" fill="#ea9a44"/>
      <path id="Path_209170" data-name="Path 209170" d="M490.1,110.256c-7.531,5.657-14.838,11.366-23.528,18.988-18.94,16.61-21.975,25.366-46.241,39.518a402.322,402.322,0,0,0-43.742,29.777l1.21,2.535s8.862-7.517,18.475-13.938S414,174,424.9,168.26s17.332-13.364,26.922-21.68,14.131-13.99,23.941-21.639c4.414-3.443,9.746-7.733,15.008-11.922C490.551,112.1,490.326,111.178,490.1,110.256Z" transform="translate(-257.572 -101.78)" fill="#ea9a44"/>
      <path id="Path_209171" data-name="Path 209171" d="M276.853,184.328s6.616,14.615,14.595,17.139l3.455,0s-8.064-5.828-11.634-11.825a59.326,59.326,0,0,1-5.147-10.893l-3.418.041Z" transform="translate(-274.704 -90.262)" fill="#ea9a44"/>
      <path id="Path_209172" data-name="Path 209172" d="M274.7,178.987l8.8,22.662,115.779.17-8.718-24.207Z" transform="translate(-274.704 -90.454)" fill="#9b4b16" opacity="0.17" style="mix-blend-mode: multiply;isolation: isolate"/>
      <path id="Path_209173" data-name="Path 209173" d="M486.608,103.269,373.886,190.111l8.717,24.207,111.735-86.862c-1.964-8.026-3.657-16.146-5.884-24.174Z" transform="translate(-258.027 -102.954)" fill="#994913" opacity="0.33" style="mix-blend-mode: multiply;isolation: isolate"/>
      <path id="Path_209174" data-name="Path 209174" d="M387.334,119.087s9.983-5.993,19.688-12.083c2.128-1.336,4.077-2.649,5.951-3.985-1.144,0-2.286,0-3.429,0C397.736,111.7,387.334,119.087,387.334,119.087Z" transform="translate(-255.766 -102.996)" fill="#ea9a44"/>
      <path id="Path_209175" data-name="Path 209175" d="M426.906,120.574c-16.258,12.528-35.737,25.908-54.747,42.012s-34.311,28.066-34.311,28.066l4.515-.054s31.54-27.145,44.011-36.17,27.983-20.692,37.724-28c9.435-7.078,13.448-11.124,26.014-23.389l-2.926-.013A207.1,207.1,0,0,1,426.906,120.574Z" transform="translate(-264.087 -102.995)" fill="#ea9a44"/>
      <g id="Group_151198" data-name="Group 151198" transform="translate(0.001 0.278)" opacity="0.4" style="mix-blend-mode: screen;isolation: isolate">
        <path id="Path_209176" data-name="Path 209176" d="M392.805,183.644a13.743,13.743,0,0,1-7.893,2.793l-107.9,3.284-2.307,1.772,115.857-1.376,112.722-86.842c-1.557-.014-3.114-.023-4.671-.036Z" transform="translate(-274.705 -103.238)" fill="#ffbe88"/>
      </g>
    </g>
    <g id="Group_151201" data-name="Group 151201" transform="translate(-5792.377 -4340.371)">
      <path id="Path_209177" data-name="Path 209177" d="M286.349,206.41,171.7,294.534l49.777,3.389,10.863-.785,3.444-.249,51.774-3.735,112.722-86.841C362.3,206,324.328,205.782,286.349,206.41Z" transform="translate(-171.704 -205.999)" fill="#ffb85a"/>
      <path id="Path_209178" data-name="Path 209178" d="M301.611,234.142c-29.959,23.144-65.631,48.184-78.244,62.117l1.276,3.876a40.626,40.626,0,0,1,2.458-3.245,96.85,96.85,0,0,1,7.378-7.948c6.969-6.778,34.64-28.308,51.688-39.866s33.862-26.746,44.03-36.237c2.042-1.905,4.7-4.247,7.714-6.838-1.308,0-2.615.006-3.924,0C325.067,213.817,320.249,219.743,301.611,234.142Z" transform="translate(-163.017 -206)" fill="#ea9a44"/>
      <path id="Path_209179" data-name="Path 209179" d="M192.659,305.7A248.369,248.369,0,0,1,221.9,281.981c16.714-11.5,28.48-22.271,48.251-36.247s42.4-30.226,42.4-30.226-25,27.951-42.59,40.338S215,297.392,215,297.392l-2.75,1.022s13.29-10.5,26.576-21.258,24.67-21.058,33.027-26.53c10.377-6.794,30.4-25.961,32.373-28.041,0,0-19.656,15.307-30.826,23.635-14.886,11.1-17.145,13.522-29.213,22.58s-24.4,18.056-31.14,23.6-16.2,11.737-16.2,11.737Z" transform="translate(-168.181 -204.401)" fill="#ea9a44"/>
      <path id="Path_209180" data-name="Path 209180" d="M400.285,206.269,287.561,293.111l-12.438.146-1.1.015L187.671,294.3l-3.282.04-12.684.151,8.795,22.662,33.12.049,33.828.048,48.831.072,111.735-86.862c-1.964-8.026-3.657-16.146-5.884-24.174Z" transform="translate(-171.704 -205.954)" fill="#ffb85a"/>
      <path id="Path_209181" data-name="Path 209181" d="M196.1,281.609s9.342,13.269,26.015,13.638S248.793,289.678,252,287.3s7.532-6.442,7.532-6.442l-5.668-.009s-6.42,7.15-12.258,8.8-18.633,4.787-26.288,1.724-12.422-6.25-13.546-8.032l-1.124-1.784Z" transform="translate(-167.603 -193.415)" fill="#ea9a44"/>
      <path id="Path_209182" data-name="Path 209182" d="M276.427,281.128s-3.316,10.114-13,15.417c-5.615,3.073-11.041,6.172-17.8,8.2l-33.828-.048a75.344,75.344,0,0,0-8.7-3.219c-10.928-3.224-20.528-19.642-20.528-19.642l3.282-.04s2.057,3.427,11.324,11.8,19.494,9.531,29.976,10.072,17.4-1.461,28.366-6.917c10.245-5.1,15.976-14.734,16.689-15.983l.076-.135,1.021.12Z" transform="translate(-169.878 -193.451)" fill="#ea9a44"/>
      <path id="Path_209183" data-name="Path 209183" d="M274.149,280.611s.468,11.648-8.26,16.634-14.411,7.526-14.411,7.526l9.826.015s8.483-5.1,11.416-8.455,3.12-10.58,3.12-10.58Z" transform="translate(-158.291 -193.454)" fill="#ea9a44"/>
      <path id="Path_209184" data-name="Path 209184" d="M385.9,208.039c-3.932,3.14-8.086,6.3-12.778,9.58-17.87,12.5-32.039,26.191-52.806,43.825s-41.52,26.276-48.722,33.875l.867,2.635a177.669,177.669,0,0,1,33.562-23.107c20.294-10.847,36.889-28.41,46.566-37.17,8.492-7.688,20.114-16.461,34.082-26.668Q386.293,209.524,385.9,208.039Z" transform="translate(-154.909 -205.657)" fill="#ea9a44"/>
      <path id="Path_209185" data-name="Path 209185" d="M373.8,232.2c-20.452,17.148-33.5,25.312-57.694,44.7-26.116,20.935-40.016,30.786-40.016,30.786L277.1,310.5s21.609-19.334,56.167-43.937,40.99-31.37,48.726-36.48a69.822,69.822,0,0,0,7.471-6.1q-.48-2.04-.95-4.083C383.975,223.65,379.173,227.686,373.8,232.2Z" transform="translate(-154.153 -203.663)" fill="#ea9a44"/>
      <path id="Path_209186" data-name="Path 209186" d="M171.705,294.492l3.418-.041s38.648-29.289,64.631-46.592c13.4-8.92,34.362-25.826,53.428-41.619-2.278.032-4.556.092-6.834.131Z" transform="translate(-171.704 -205.959)" fill="#ea9a44"/>
      <path id="Path_209187" data-name="Path 209187" d="M295.379,211.248s-50.213,38.064-73.468,53.371a368.279,368.279,0,0,0-39.348,29.74l3.282-.04s30.689-26.094,43.837-32.25,45.414-33.016,58.787-42.8a188.837,188.837,0,0,0,16.525-13.133q-2.309.021-4.62.043C297.154,209.363,295.379,211.248,295.379,211.248Z" transform="translate(-169.878 -205.977)" fill="#ea9a44"/>
      <path id="Path_209188" data-name="Path 209188" d="M290.034,222.5c-21.979,19.187-43.375,31.734-60.149,43.379s-33.79,28.309-33.79,28.309l4.551-.054s18.659-17.415,33.481-26.576,29.333-24.334,46.048-34.273c15.353-9.129,21.7-17.78,33.332-27.235-.926.006-1.851.02-2.777.026C304.225,210.857,297.4,216.067,290.034,222.5Z" transform="translate(-167.603 -205.992)" fill="#ea9a44"/>
      <path id="Path_209189" data-name="Path 209189" d="M293.491,223.943s9.358-6.961,23.28-17.933q-1.295,0-2.59,0C302.517,216.113,293.491,223.943,293.491,223.943Z" transform="translate(-151.227 -205.998)" fill="#ea9a44"/>
      <path id="Path_209190" data-name="Path 209190" d="M298.167,250.037c-45.018,32.354-52.619,43.385-52.619,43.385l5.668.009s5.847-8.5,22.342-20.05,49.6-40.864,58.712-47.369c5.279-3.767,13.033-11.4,22.121-19.938l-2.9-.012C339.735,218.016,337.5,221.765,298.167,250.037Z" transform="translate(-159.288 -205.989)" fill="#ea9a44"/>
      <path id="Path_209191" data-name="Path 209191" d="M352.341,209.379C337,222.7,289.013,260,289.013,260s41.707-27.2,71.176-53.664c.067-.06.145-.134.213-.2-1.454-.009-2.91-.023-4.364-.033Q354.248,207.721,352.341,209.379Z" transform="translate(-151.979 -205.981)" fill="#ea9a44"/>
      <path id="Path_209192" data-name="Path 209192" d="M358.751,218.721c-17.2,15.946-45.093,32.127-59.732,41.843S259.3,293.287,259.3,293.287l4.226.36a190.249,190.249,0,0,1,21.031-19.094c12.709-9.974,39.088-25.138,48.285-32.7s34.306-26.616,40.987-33.415c.62-.631,1.391-1.4,2.229-2.223l-3.835-.029C367.622,210.482,363.084,214.7,358.751,218.721Z" transform="translate(-156.976 -205.969)" fill="#ea9a44"/>
      <path id="Path_209193" data-name="Path 209193" d="M387.1,213.256c-7.531,5.657-14.838,11.366-23.528,18.988-18.94,16.61-21.975,25.366-46.241,39.518a402.324,402.324,0,0,0-43.742,29.777l1.21,2.535s8.862-7.517,18.475-13.938S311,277,321.9,271.26s17.332-13.364,26.922-21.68,14.131-13.99,23.941-21.639c4.414-3.443,9.746-7.733,15.008-11.922C387.551,215.1,387.326,214.178,387.1,213.256Z" transform="translate(-154.572 -204.78)" fill="#ea9a44"/>
      <path id="Path_209194" data-name="Path 209194" d="M173.853,287.328s6.616,14.615,14.595,17.139l3.455,0s-8.064-5.828-11.634-11.825a59.327,59.327,0,0,1-5.147-10.893l-3.418.041Z" transform="translate(-171.704 -193.262)" fill="#ea9a44"/>
      <path id="Path_209195" data-name="Path 209195" d="M171.705,281.987l8.8,22.661,115.779.17-8.718-24.207Z" transform="translate(-171.704 -193.454)" fill="#9b4b16" opacity="0.17" style="mix-blend-mode: multiply;isolation: isolate"/>
      <path id="Path_209196" data-name="Path 209196" d="M383.608,206.269,270.886,293.111l8.717,24.207,111.735-86.862c-1.964-8.026-3.657-16.146-5.884-24.174Z" transform="translate(-155.027 -205.954)" fill="#994913" opacity="0.33" style="mix-blend-mode: multiply;isolation: isolate"/>
      <path id="Path_209197" data-name="Path 209197" d="M284.334,222.087s9.983-5.993,19.688-12.083c2.128-1.336,4.077-2.649,5.951-3.985-1.144,0-2.286,0-3.429,0C294.736,214.7,284.334,222.087,284.334,222.087Z" transform="translate(-152.766 -205.996)" fill="#ea9a44"/>
      <path id="Path_209198" data-name="Path 209198" d="M323.906,223.574c-16.258,12.528-35.737,25.908-54.747,42.012s-34.311,28.066-34.311,28.066l4.515-.054s31.54-27.145,44.011-36.17,27.983-20.692,37.724-28c9.435-7.078,13.448-11.124,26.014-23.389l-2.926-.013A207.089,207.089,0,0,1,323.906,223.574Z" transform="translate(-161.087 -205.995)" fill="#ea9a44"/>
      <g id="Group_151200" data-name="Group 151200" transform="translate(0.001 0.278)" opacity="0.4" style="mix-blend-mode: screen;isolation: isolate">
        <path id="Path_209199" data-name="Path 209199" d="M289.805,286.644a13.743,13.743,0,0,1-7.893,2.793l-107.9,3.284-2.307,1.772,115.857-1.376,112.722-86.842c-1.557-.014-3.114-.023-4.671-.036Z" transform="translate(-171.705 -206.238)" fill="#ffbe88"/>
      </g>
    </g>
    <g id="Group_151202" data-name="Group 151202" transform="translate(-5799.442 -4465.361)">
      <path id="Path_209200" data-name="Path 209200" d="M237.1,62H364.176s-25.7,12.41-30.376,12.735-124.481-.778-125.117-.778S237.1,62,237.1,62Z" transform="translate(-208.653 -62)" fill="#ffbc72"/>
      <path id="Path_209201" data-name="Path 209201" d="M346.09,62c.256.082.383,15.2,0,16.5s-29.854,16.979-29.854,16.979V74.666Z" transform="translate(-190.567 -62)" fill="#e98c4c"/>
      <path id="Path_209202" data-name="Path 209202" d="M208.685,72.236l125.64.709V93.756l-125.668-.223Z" transform="translate(-208.656 -60.279)" fill="#ffe093"/>
      <path id="Path_209203" data-name="Path 209203" d="M263.644,83.645c-4.588-.453-5.778.152-20-.237s-23.678-.563-29.116-.649-5.864.887-5.864.887l-.012,8.119,114.3.224a59.888,59.888,0,0,0-7.987-.751c-6.543-.389-64.662-1.167-82.761-1.816S213,88.63,211.9,87.371s0-1.194,11.9-1.064S263.644,83.645,263.644,83.645Z" transform="translate(-208.656 -58.51)" fill="#ffbc72"/>
      <path id="Path_209204" data-name="Path 209204" d="M331.791,84.628s-48.164.714-66.007,1.3-42.06.7-42.06,1.13,29.909.493,51.152.428,56.915-.237,56.915-.237Z" transform="translate(-206.122 -58.195)" fill="#ffbc72"/>
      <path id="Path_209205" data-name="Path 209205" d="M332.94,74.546c0,2.336-40.212,2.823-72.459,3.5s-43.717.973-43.589,1.557,18.549-.2,48.914-.487,59.489-.584,62.833-1.265,3.344.326,3.09,1.964-43.971,2.869-53.531,2.788-13.889-.125-13.777,0,5.379.688,9.288.991,26.624.3,36.537,0,17.73-.727,20-.991a2.945,2.945,0,0,0,2.7-1.908Z" transform="translate(-207.271 -59.891)" fill="#ffbc72"/>
      <path id="Path_209206" data-name="Path 209206" d="M208.681,72.236c0,.331,7.723.849,37.122,1.174s58.713.584,58.969.714-10.962.714-32.544.811-58.8-.356-60.413,0-2.974,1.331,1.02,1.46,31.778-.325,32.2,0-32.631,1.135-34.5.973-1.86-3.211-1.86-3.211Z" transform="translate(-208.652 -60.279)" fill="#ffbc72"/>
      <path id="Path_209207" data-name="Path 209207" d="M339.385,79.167s-.947-.539,0-3.036a6.457,6.457,0,0,1,3.471-3.439v-1.2s-4.306,1.265-5.58,4.7.279,4.058.279,4.058Z" transform="translate(-187.114 -60.404)" fill="#d4773a"/>
      <path id="Path_209208" data-name="Path 209208" d="M335.26,83.013s-1.741-.806-1.117-5.391,6.053-8.544,9.739-9.3V66.353s-7.53,1.826-11.212,6.872-.98,10.117.246,11.107Z" transform="translate(-188.117 -61.268)" fill="#d4773a"/>
      <path id="Path_209209" data-name="Path 209209" d="M329.056,87.652s-2.767-3.278-2.427-9.55,7.087-11.871,14.165-14.609L329.24,68.4S323,73.387,323.286,79.833s2.836,9.425,2.836,9.425Z" transform="translate(-189.383 -61.749)" fill="#d4773a"/>
      <path id="Path_209210" data-name="Path 209210" d="M321.844,90.874c-2.642-1.441-4.285-7.844-4.341-12.213s1.243-6.384,2.775-7.17c0,0-4.043,1.454-4.043,1.579V89.455a4.224,4.224,0,0,0,3.45,2.58Z" transform="translate(-190.567 -60.404)" fill="#d4773a"/>
      <path id="Path_209211" data-name="Path 209211" d="M228.122,64.506s23.695.892,37.205,0S290.053,62.528,299.1,62h27.02s.211.132-8.851.607-22.716,1.557-38.1,2.661-42.59,1.223-53.2.125Z" transform="translate(-205.744 -62)" fill="#d4773a"/>
      <path id="Path_209212" data-name="Path 209212" d="M231.6,62.678s18.274.536,29.094.19S276.22,62,276.22,62H233.249Z" transform="translate(-204.797 -62)" fill="#d4773a"/>
      <path id="Path_209213" data-name="Path 209213" d="M222.536,67.213s22,1.26,42.388.742,62.194-5.01,74.135-5.5,22.091,0,22.091,0L358.2,63.706a141.508,141.508,0,0,0-20.133.334c-9.5.994-44.419,4.984-72.077,5.569a427.661,427.661,0,0,1-46.206-1.25Z" transform="translate(-206.786 -61.961)" fill="#d4773a"/>
      <path id="Path_209214" data-name="Path 209214" d="M296.978,68.366c-.042-.292,6.118-.843,14.147-2.012s17.263-1.882,23.154-2.184a75.831,75.831,0,0,1,9.185-.027l-3.271,1.391s-4.215-.578-16.847.283a156.406,156.406,0,0,0-19.09,2.239c.113-.036,7.251.093,16.371-.426s17.163-.994,17.163-.994l-4.531,1.73s-.624-.477-16.541.562S296.978,68.366,296.978,68.366Z" transform="translate(-193.805 -61.659)" fill="#d4773a"/>
      <path id="Path_209215" data-name="Path 209215" d="M217.049,68.647c6.968,1.689,39.031,3.812,56.195,2.448s31.325-2.625,32.261-2.448-12.915,3.022-19.459,3.812-17.5.728-17.5.728L235.658,73s27.615-.217,40.36-.931,16.74-1.947,16.4-1.947-8.249.888-23.028,1.752-48.84-1.493-53.437-2.725Z" transform="translate(-207.429 -60.885)" fill="#d4773a"/>
      <path id="Path_209216" data-name="Path 209216" d="M213.825,70.119s3.059,1.117,13.511,1.44,17.164.649,17.164.649-2.889.356-17.078,0-16.04-1.051-16.04-1.051Z" transform="translate(-208.198 -60.635)" fill="#d4773a"/>
      <path id="Path_209217" data-name="Path 209217" d="M289.777,71.05c.68-.346,5.382-1.168,12.519-1.168s17.673-.043,21.752-.432,8.193-.8,8.193-.8l-1.985.843a102.456,102.456,0,0,1-15.775,1c-9.517-.043-11.819.111-17.172.089A38.634,38.634,0,0,0,289.777,71.05Z" transform="translate(-195.016 -60.883)" fill="#d4773a"/>
    </g>
    <g id="Group_151203" data-name="Group 151203" transform="translate(-5968.823 -4324.016)">
      <path id="Path_209218" data-name="Path 209218" d="M84.1,176H211.176s-25.7,12.41-30.376,12.735-124.481-.778-125.117-.778S84.1,176,84.1,176Z" transform="translate(-55.653 -176)" fill="#ffbc72"/>
      <path id="Path_209219" data-name="Path 209219" d="M193.09,176c.256.082.383,15.2,0,16.5s-29.854,16.979-29.854,16.979V188.666Z" transform="translate(-37.567 -176)" fill="#e98c4c"/>
      <path id="Path_209220" data-name="Path 209220" d="M55.685,186.236l125.64.709v20.812l-125.668-.223Z" transform="translate(-55.656 -174.279)" fill="#ffe093"/>
      <path id="Path_209221" data-name="Path 209221" d="M110.644,197.645c-4.588-.453-5.778.152-20-.237s-23.678-.563-29.116-.649-5.864.887-5.864.887l-.012,8.119,114.3.224a59.885,59.885,0,0,0-7.987-.751c-6.543-.389-64.662-1.167-82.76-1.816S60,202.63,58.9,201.371s0-1.194,11.9-1.064S110.644,197.645,110.644,197.645Z" transform="translate(-55.656 -172.511)" fill="#ffbc72"/>
      <path id="Path_209222" data-name="Path 209222" d="M178.791,198.628s-48.164.714-66.007,1.3-42.06.7-42.06,1.13,29.909.493,51.152.428,56.915-.237,56.915-.237Z" transform="translate(-53.122 -172.195)" fill="#ffbc72"/>
      <path id="Path_209223" data-name="Path 209223" d="M179.94,188.546c0,2.336-40.212,2.823-72.459,3.5s-43.717.973-43.589,1.557,18.549-.2,48.914-.487,59.489-.584,62.833-1.265,3.344.326,3.09,1.964-43.971,2.869-53.531,2.788-13.889-.125-13.777,0,5.379.688,9.288.991,26.624.3,36.537,0,17.73-.727,20-.991a2.945,2.945,0,0,0,2.7-1.908Z" transform="translate(-54.271 -173.89)" fill="#ffbc72"/>
      <path id="Path_209224" data-name="Path 209224" d="M55.681,186.236c0,.331,7.723.849,37.122,1.174s58.713.584,58.969.714-10.962.714-32.544.811-58.8-.356-60.413,0-2.974,1.331,1.02,1.46,31.778-.325,32.2,0-32.631,1.135-34.5.973-1.86-3.211-1.86-3.211Z" transform="translate(-55.652 -174.279)" fill="#ffbc72"/>
      <path id="Path_209225" data-name="Path 209225" d="M186.385,193.167s-.947-.539,0-3.036a6.457,6.457,0,0,1,3.471-3.439v-1.2s-4.306,1.265-5.58,4.7.279,4.058.279,4.058Z" transform="translate(-34.114 -174.404)" fill="#d4773a"/>
      <path id="Path_209226" data-name="Path 209226" d="M182.26,197.013s-1.741-.806-1.117-5.391,6.053-8.544,9.739-9.3v-1.968s-7.53,1.826-11.212,6.872-.98,10.117.247,11.107Z" transform="translate(-35.117 -175.268)" fill="#d4773a"/>
      <path id="Path_209227" data-name="Path 209227" d="M176.056,201.652s-2.767-3.278-2.427-9.55,7.087-11.871,14.165-14.609l-11.553,4.9s-6.237,4.991-5.954,11.437,2.836,9.425,2.836,9.425Z" transform="translate(-36.383 -175.749)" fill="#d4773a"/>
      <path id="Path_209228" data-name="Path 209228" d="M168.844,204.874c-2.642-1.441-4.285-7.844-4.341-12.213s1.243-6.384,2.776-7.17c0,0-4.043,1.454-4.043,1.579v16.384a4.224,4.224,0,0,0,3.45,2.58Z" transform="translate(-37.567 -174.404)" fill="#d4773a"/>
      <path id="Path_209229" data-name="Path 209229" d="M75.122,178.506s23.695.892,37.205,0S137.053,176.528,146.1,176h27.02s.211.132-8.851.607-22.716,1.557-38.1,2.661-42.59,1.223-53.2.125Z" transform="translate(-52.744 -176)" fill="#d4773a"/>
      <path id="Path_209230" data-name="Path 209230" d="M78.605,176.678s18.274.536,29.094.19S123.22,176,123.22,176H80.249Z" transform="translate(-51.797 -176)" fill="#d4773a"/>
      <path id="Path_209231" data-name="Path 209231" d="M69.536,181.213s22,1.26,42.388.742,62.194-5.01,74.135-5.5,22.091,0,22.091,0l-2.954,1.253a141.508,141.508,0,0,0-20.133.334c-9.5.994-44.419,4.984-72.077,5.569a427.663,427.663,0,0,1-46.206-1.25Z" transform="translate(-53.786 -175.961)" fill="#d4773a"/>
      <path id="Path_209232" data-name="Path 209232" d="M143.978,182.366c-.042-.292,6.118-.843,14.147-2.012s17.263-1.882,23.154-2.184a75.828,75.828,0,0,1,9.185-.027l-3.271,1.391s-4.215-.578-16.847.283a156.4,156.4,0,0,0-19.09,2.239c.113-.036,7.251.093,16.372-.426s17.164-.994,17.164-.994l-4.531,1.73s-.624-.477-16.541.562S143.978,182.366,143.978,182.366Z" transform="translate(-40.805 -175.659)" fill="#d4773a"/>
      <path id="Path_209233" data-name="Path 209233" d="M64.049,182.647c6.968,1.689,39.031,3.812,56.195,2.448s31.325-2.625,32.261-2.448-12.915,3.022-19.459,3.812-17.5.728-17.5.728L82.658,187s27.615-.217,40.36-.931,16.739-1.947,16.4-1.947-8.249.888-23.028,1.752-48.84-1.493-53.437-2.725Z" transform="translate(-54.429 -174.885)" fill="#d4773a"/>
      <path id="Path_209234" data-name="Path 209234" d="M60.825,184.119s3.059,1.117,13.511,1.44,17.164.649,17.164.649-2.889.356-17.078,0-16.04-1.051-16.04-1.051Z" transform="translate(-55.198 -174.635)" fill="#d4773a"/>
      <path id="Path_209235" data-name="Path 209235" d="M136.777,185.05c.68-.346,5.382-1.168,12.519-1.168s17.673-.043,21.752-.432,8.193-.8,8.193-.8l-1.985.843a102.458,102.458,0,0,1-15.775,1c-9.517-.043-11.819.111-17.172.089A38.635,38.635,0,0,0,136.777,185.05Z" transform="translate(-42.016 -174.883)" fill="#d4773a"/>
    </g>
    <path id="Path_221745" data-name="Path 221745" d="M12.715-4.737a5.493,5.493,0,0,1-1.748,3.656A5.73,5.73,0,0,1,7.055.205a5.261,5.261,0,0,1-4.24-1.9A7.632,7.632,0,0,1,1.22-6.768V-8.2a8.506,8.506,0,0,1,.743-3.661,5.553,5.553,0,0,1,2.107-2.425,5.867,5.867,0,0,1,3.158-.846,5.4,5.4,0,0,1,3.814,1.328,5.559,5.559,0,0,1,1.671,3.676H10.736a4.29,4.29,0,0,0-1.113-2.592,3.366,3.366,0,0,0-2.394-.8,3.522,3.522,0,0,0-2.958,1.4A6.407,6.407,0,0,0,3.2-8.158v1.447A6.586,6.586,0,0,0,4.214-2.842,3.28,3.28,0,0,0,7.055-1.4a3.789,3.789,0,0,0,2.517-.743,4.125,4.125,0,0,0,1.164-2.589ZM21.954,0a3.985,3.985,0,0,1-.267-1.169A4.233,4.233,0,0,1,18.529.205a3.916,3.916,0,0,1-2.692-.928,3,3,0,0,1-1.051-2.353A3.136,3.136,0,0,1,16.1-5.768a6.212,6.212,0,0,1,3.707-.959h1.846V-7.6a2.131,2.131,0,0,0-.595-1.584,2.39,2.39,0,0,0-1.753-.59,2.766,2.766,0,0,0-1.7.513,1.511,1.511,0,0,0-.687,1.241H15.012a2.618,2.618,0,0,1,.59-1.6,4.024,4.024,0,0,1,1.6-1.225,5.381,5.381,0,0,1,2.22-.451,4.386,4.386,0,0,1,3,.959A3.458,3.458,0,0,1,23.553-7.7v5.106a6.243,6.243,0,0,0,.39,2.43V0ZM18.806-1.446A3.334,3.334,0,0,0,20.5-1.907a2.791,2.791,0,0,0,1.159-1.2V-5.383H20.169q-3.486,0-3.486,2.041a1.727,1.727,0,0,0,.595,1.395A2.286,2.286,0,0,0,18.806-1.446ZM35.9-5.424A6.643,6.643,0,0,1,34.74-1.343,3.714,3.714,0,0,1,31.6.205a4.069,4.069,0,0,1-3.179-1.282V4.266h-1.9v-15.36H28.26l.092,1.23a3.908,3.908,0,0,1,3.22-1.436,3.783,3.783,0,0,1,3.163,1.507A6.716,6.716,0,0,1,35.9-5.6ZM34-5.64A4.9,4.9,0,0,0,33.2-8.6,2.576,2.576,0,0,0,31.008-9.69a2.789,2.789,0,0,0-2.584,1.528v5.3a2.794,2.794,0,0,0,2.6,1.518A2.564,2.564,0,0,0,33.2-2.425,5.351,5.351,0,0,0,34-5.64ZM45.158,0a3.985,3.985,0,0,1-.267-1.169A4.233,4.233,0,0,1,41.733.205a3.916,3.916,0,0,1-2.692-.928,3,3,0,0,1-1.051-2.353,3.136,3.136,0,0,1,1.318-2.692,6.212,6.212,0,0,1,3.707-.959h1.846V-7.6a2.131,2.131,0,0,0-.595-1.584,2.39,2.39,0,0,0-1.753-.59,2.766,2.766,0,0,0-1.7.513,1.511,1.511,0,0,0-.687,1.241H38.216a2.618,2.618,0,0,1,.59-1.6,4.024,4.024,0,0,1,1.6-1.225,5.381,5.381,0,0,1,2.22-.451,4.386,4.386,0,0,1,3,.959A3.458,3.458,0,0,1,46.758-7.7v5.106a6.243,6.243,0,0,0,.39,2.43V0ZM42.01-1.446A3.334,3.334,0,0,0,43.7-1.907a2.791,2.791,0,0,0,1.159-1.2V-5.383H43.374q-3.486,0-3.486,2.041a1.727,1.727,0,0,0,.595,1.395A2.286,2.286,0,0,0,42.01-1.446Zm19.38-1.5a1.4,1.4,0,0,0-.579-1.195,5.576,5.576,0,0,0-2.02-.733A9.551,9.551,0,0,1,56.5-5.609a3.253,3.253,0,0,1-1.251-1.025,2.453,2.453,0,0,1-.405-1.415A2.878,2.878,0,0,1,56-10.356,4.505,4.505,0,0,1,58.95-11.3a4.636,4.636,0,0,1,3.061.974,3.094,3.094,0,0,1,1.174,2.492H61.277a1.713,1.713,0,0,0-.661-1.343,2.478,2.478,0,0,0-1.666-.564,2.593,2.593,0,0,0-1.62.451,1.42,1.42,0,0,0-.584,1.179,1.151,1.151,0,0,0,.543,1.036,6.687,6.687,0,0,0,1.964.667,10.231,10.231,0,0,1,2.3.759,3.358,3.358,0,0,1,1.307,1.061,2.609,2.609,0,0,1,.426,1.512A2.839,2.839,0,0,1,62.1-.692a4.989,4.989,0,0,1-3.086.9,5.587,5.587,0,0,1-2.358-.472,3.836,3.836,0,0,1-1.6-1.318,3.176,3.176,0,0,1-.579-1.83h1.9A1.964,1.964,0,0,0,57.13-1.9a2.964,2.964,0,0,0,1.882.559,3.059,3.059,0,0,0,1.728-.436A1.339,1.339,0,0,0,61.39-2.943ZM70.362.205a4.848,4.848,0,0,1-3.671-1.482A5.5,5.5,0,0,1,65.276-5.24v-.349a6.658,6.658,0,0,1,.631-2.948,4.919,4.919,0,0,1,1.764-2.03,4.434,4.434,0,0,1,2.456-.733A4.155,4.155,0,0,1,73.49-9.875a6.171,6.171,0,0,1,1.2,4.081V-5H67.173a3.944,3.944,0,0,0,.959,2.651,3.014,3.014,0,0,0,2.333,1.01,3.3,3.3,0,0,0,1.7-.41,4.277,4.277,0,0,0,1.22-1.087l1.159.9A4.659,4.659,0,0,1,70.362.205Zm-.236-9.946a2.53,2.53,0,0,0-1.928.836,4.062,4.062,0,0,0-.964,2.343h5.558v-.144a3.613,3.613,0,0,0-.779-2.24A2.382,2.382,0,0,0,70.126-9.741ZM78.945,0h-1.9V-15.75h1.9Zm5.1,0h-1.9V-15.75h1.9Zm9.885,0a3.985,3.985,0,0,1-.267-1.169A4.233,4.233,0,0,1,90.5.205a3.916,3.916,0,0,1-2.692-.928,3,3,0,0,1-1.051-2.353,3.136,3.136,0,0,1,1.318-2.692,6.212,6.212,0,0,1,3.707-.959h1.846V-7.6a2.131,2.131,0,0,0-.595-1.584,2.39,2.39,0,0,0-1.753-.59,2.766,2.766,0,0,0-1.7.513,1.511,1.511,0,0,0-.687,1.241H86.984a2.618,2.618,0,0,1,.59-1.6,4.024,4.024,0,0,1,1.6-1.225,5.381,5.381,0,0,1,2.22-.451,4.386,4.386,0,0,1,3,.959A3.458,3.458,0,0,1,95.525-7.7v5.106a6.243,6.243,0,0,0,.39,2.43V0ZM90.778-1.446a3.334,3.334,0,0,0,1.692-.461,2.791,2.791,0,0,0,1.159-1.2V-5.383H92.142q-3.486,0-3.486,2.041a1.727,1.727,0,0,0,.595,1.395A2.286,2.286,0,0,0,90.778-1.446Zm7.26-4.194a6.5,6.5,0,0,1,1.21-4.107,3.826,3.826,0,0,1,3.168-1.553A3.848,3.848,0,0,1,105.5-9.967V-15.75h1.9V0h-1.743l-.092-1.189A3.863,3.863,0,0,1,102.4.205a3.789,3.789,0,0,1-3.143-1.579A6.573,6.573,0,0,1,98.038-5.5Zm1.9.215a4.921,4.921,0,0,0,.779,2.953A2.519,2.519,0,0,0,102.867-1.4a2.767,2.767,0,0,0,2.635-1.62v-5.1a2.789,2.789,0,0,0-2.615-1.569,2.531,2.531,0,0,0-2.174,1.077A5.418,5.418,0,0,0,99.935-5.424Zm9.905-.226a6.553,6.553,0,0,1,.641-2.933,4.781,4.781,0,0,1,1.784-2.01,4.857,4.857,0,0,1,2.61-.708,4.679,4.679,0,0,1,3.666,1.569,6.036,6.036,0,0,1,1.4,4.173v.133a6.61,6.61,0,0,1-.62,2.907,4.71,4.71,0,0,1-1.774,2A4.913,4.913,0,0,1,114.9.205a4.667,4.667,0,0,1-3.656-1.569,6.005,6.005,0,0,1-1.4-4.153Zm1.907.226a4.746,4.746,0,0,0,.856,2.963A2.74,2.74,0,0,0,114.9-1.343a2.724,2.724,0,0,0,2.3-1.133,5.19,5.19,0,0,0,.851-3.174,4.738,4.738,0,0,0-.866-2.958,2.755,2.755,0,0,0-2.3-1.133,2.724,2.724,0,0,0-2.266,1.118A5.152,5.152,0,0,0,111.747-5.424Zm15.935-3.968a5.685,5.685,0,0,0-.933-.072,2.5,2.5,0,0,0-2.533,1.589V0h-1.9V-11.095h1.846l.031,1.282a2.954,2.954,0,0,1,2.646-1.487,1.938,1.938,0,0,1,.841.144ZM135.864,0a3.985,3.985,0,0,1-.267-1.169A4.233,4.233,0,0,1,132.439.205a3.916,3.916,0,0,1-2.692-.928A3,3,0,0,1,128.7-3.076a3.136,3.136,0,0,1,1.318-2.692,6.212,6.212,0,0,1,3.707-.959h1.846V-7.6a2.131,2.131,0,0,0-.595-1.584,2.39,2.39,0,0,0-1.753-.59,2.766,2.766,0,0,0-1.7.513,1.511,1.511,0,0,0-.687,1.241h-1.907a2.618,2.618,0,0,1,.59-1.6,4.024,4.024,0,0,1,1.6-1.225,5.381,5.381,0,0,1,2.22-.451,4.386,4.386,0,0,1,3,.959,3.458,3.458,0,0,1,1.128,2.64v5.106a6.243,6.243,0,0,0,.39,2.43V0Zm-3.148-1.446a3.334,3.334,0,0,0,1.692-.461,2.791,2.791,0,0,0,1.159-1.2V-5.383H134.08q-3.486,0-3.486,2.041a1.727,1.727,0,0,0,.595,1.395A2.286,2.286,0,0,0,132.716-1.446Z" transform="translate(-5457.177 -4244.274)" fill="#12263f"/>
    <path id="Path_221742" data-name="Path 221742" d="M-72.49-5.845V0h-1.969V-14.93h5.506a5.532,5.532,0,0,1,3.84,1.251,4.241,4.241,0,0,1,1.389,3.312,4.185,4.185,0,0,1-1.359,3.348,5.779,5.779,0,0,1-3.891,1.174Zm0-1.61h3.538a3.537,3.537,0,0,0,2.42-.745,2.723,2.723,0,0,0,.841-2.152,2.813,2.813,0,0,0-.841-2.136,3.314,3.314,0,0,0-2.307-.832h-3.65Zm16.345-1.938a5.685,5.685,0,0,0-.933-.072,2.5,2.5,0,0,0-2.533,1.589V0h-1.9V-11.095h1.846l.031,1.282A2.954,2.954,0,0,1-56.986-11.3a1.938,1.938,0,0,1,.841.144ZM-55.11-5.65a6.553,6.553,0,0,1,.641-2.933,4.781,4.781,0,0,1,1.784-2.01,4.857,4.857,0,0,1,2.61-.708,4.679,4.679,0,0,1,3.666,1.569,6.036,6.036,0,0,1,1.4,4.173v.133a6.61,6.61,0,0,1-.62,2.907,4.71,4.71,0,0,1-1.774,2,4.913,4.913,0,0,1-2.651.718A4.667,4.667,0,0,1-53.71-1.364a6.005,6.005,0,0,1-1.4-4.153Zm1.907.226a4.746,4.746,0,0,0,.856,2.963,2.74,2.74,0,0,0,2.292,1.118,2.724,2.724,0,0,0,2.3-1.133,5.19,5.19,0,0,0,.851-3.174,4.738,4.738,0,0,0-.866-2.958,2.755,2.755,0,0,0-2.3-1.133,2.724,2.724,0,0,0-2.266,1.118A5.152,5.152,0,0,0-53.2-5.424Zm19.964,0a6.6,6.6,0,0,1-1.169,4.086A3.735,3.735,0,0,1-37.545.205,3.868,3.868,0,0,1-40.8-1.282L-40.887,0h-1.743V-15.75h1.9v5.875A3.846,3.846,0,0,1-37.565-11.3a3.758,3.758,0,0,1,3.174,1.528,6.8,6.8,0,0,1,1.154,4.184Zm-1.9-.215a5.126,5.126,0,0,0-.749-2.994A2.478,2.478,0,0,0-38.037-9.69a2.785,2.785,0,0,0-2.7,1.743v4.8A2.863,2.863,0,0,0-38.016-1.4a2.464,2.464,0,0,0,2.123-1.056A5.451,5.451,0,0,0-35.135-5.64Zm8.89,5.845a4.848,4.848,0,0,1-3.671-1.482A5.5,5.5,0,0,1-31.331-5.24v-.349A6.658,6.658,0,0,1-30.7-8.536a4.919,4.919,0,0,1,1.764-2.03,4.434,4.434,0,0,1,2.456-.733,4.155,4.155,0,0,1,3.363,1.425,6.171,6.171,0,0,1,1.2,4.081V-5h-7.516a3.944,3.944,0,0,0,.959,2.651,3.014,3.014,0,0,0,2.333,1.01,3.3,3.3,0,0,0,1.7-.41A4.277,4.277,0,0,0-23.22-2.84l1.159.9A4.659,4.659,0,0,1-26.245.205Zm-.236-9.946a2.53,2.53,0,0,0-1.928.836,4.062,4.062,0,0,0-.964,2.343h5.558v-.144a3.613,3.613,0,0,0-.779-2.24A2.382,2.382,0,0,0-26.481-9.741Zm9.331-4.04v2.687h2.071v1.466H-17.15v6.889a1.54,1.54,0,0,0,.277,1,1.165,1.165,0,0,0,.943.334,4.593,4.593,0,0,0,.9-.123V0a5.532,5.532,0,0,1-1.456.2A2.362,2.362,0,0,1-18.4-.564a3.3,3.3,0,0,1-.646-2.184v-6.88h-2.02v-1.466h2.02v-2.687ZM-6.014,0a3.985,3.985,0,0,1-.267-1.169A4.233,4.233,0,0,1-9.439.205,3.916,3.916,0,0,1-12.13-.723a3,3,0,0,1-1.051-2.353,3.136,3.136,0,0,1,1.318-2.692,6.212,6.212,0,0,1,3.707-.959h1.846V-7.6a2.131,2.131,0,0,0-.595-1.584,2.39,2.39,0,0,0-1.753-.59,2.766,2.766,0,0,0-1.7.513,1.511,1.511,0,0,0-.687,1.241h-1.907a2.618,2.618,0,0,1,.59-1.6,4.024,4.024,0,0,1,1.6-1.225,5.381,5.381,0,0,1,2.22-.451,4.386,4.386,0,0,1,3,.959A3.458,3.458,0,0,1-4.414-7.7v5.106a6.243,6.243,0,0,0,.39,2.43V0ZM-9.162-1.446A3.334,3.334,0,0,0-7.47-1.907a2.791,2.791,0,0,0,1.159-1.2V-5.383H-7.8q-3.486,0-3.486,2.041a1.727,1.727,0,0,0,.595,1.395A2.286,2.286,0,0,0-9.162-1.446Zm14.181-1.5A1.4,1.4,0,0,0,4.44-4.137a5.576,5.576,0,0,0-2.02-.733A9.551,9.551,0,0,1,.133-5.609,3.253,3.253,0,0,1-1.118-6.634a2.453,2.453,0,0,1-.405-1.415A2.878,2.878,0,0,1-.369-10.356,4.505,4.505,0,0,1,2.579-11.3a4.636,4.636,0,0,1,3.061.974A3.094,3.094,0,0,1,6.814-7.834H4.906a1.713,1.713,0,0,0-.661-1.343,2.478,2.478,0,0,0-1.666-.564,2.593,2.593,0,0,0-1.62.451A1.42,1.42,0,0,0,.374-8.111,1.151,1.151,0,0,0,.918-7.075a6.687,6.687,0,0,0,1.964.667,10.231,10.231,0,0,1,2.3.759A3.358,3.358,0,0,1,6.491-4.589a2.609,2.609,0,0,1,.426,1.512A2.839,2.839,0,0,1,5.727-.692a4.989,4.989,0,0,1-3.086.9A5.587,5.587,0,0,1,.282-.267a3.836,3.836,0,0,1-1.6-1.318A3.176,3.176,0,0,1-1.9-3.415h1.9A1.964,1.964,0,0,0,.759-1.9a2.964,2.964,0,0,0,1.882.559,3.059,3.059,0,0,0,1.728-.436A1.339,1.339,0,0,0,5.019-2.943ZM23.958-5.424A6.643,6.643,0,0,1,22.8-1.343,3.714,3.714,0,0,1,19.662.205a4.069,4.069,0,0,1-3.179-1.282V4.266h-1.9v-15.36h1.733l.092,1.23a3.908,3.908,0,0,1,3.22-1.436,3.783,3.783,0,0,1,3.163,1.507A6.716,6.716,0,0,1,23.958-5.6Zm-1.9-.215a4.9,4.9,0,0,0-.8-2.963A2.576,2.576,0,0,0,19.067-9.69a2.789,2.789,0,0,0-2.584,1.528v5.3a2.794,2.794,0,0,0,2.6,1.518,2.564,2.564,0,0,0,2.169-1.082A5.351,5.351,0,0,0,22.061-5.64ZM33.218,0a3.985,3.985,0,0,1-.267-1.169A4.233,4.233,0,0,1,29.793.205,3.916,3.916,0,0,1,27.1-.723,3,3,0,0,1,26.05-3.076a3.136,3.136,0,0,1,1.318-2.692,6.212,6.212,0,0,1,3.707-.959H32.92V-7.6a2.131,2.131,0,0,0-.595-1.584,2.39,2.39,0,0,0-1.753-.59,2.766,2.766,0,0,0-1.7.513,1.511,1.511,0,0,0-.687,1.241H26.276a2.618,2.618,0,0,1,.59-1.6,4.024,4.024,0,0,1,1.6-1.225,5.381,5.381,0,0,1,2.22-.451,4.386,4.386,0,0,1,3,.959A3.458,3.458,0,0,1,34.817-7.7v5.106a6.243,6.243,0,0,0,.39,2.43V0ZM30.07-1.446a3.334,3.334,0,0,0,1.692-.461,2.791,2.791,0,0,0,1.159-1.2V-5.383H31.433q-3.486,0-3.486,2.041a1.727,1.727,0,0,0,.595,1.395A2.286,2.286,0,0,0,30.07-1.446ZM43.154-9.393a5.685,5.685,0,0,0-.933-.072,2.5,2.5,0,0,0-2.533,1.589V0h-1.9V-11.095h1.846l.031,1.282A2.954,2.954,0,0,1,42.313-11.3a1.938,1.938,0,0,1,.841.144ZM51.336,0a3.985,3.985,0,0,1-.267-1.169A4.233,4.233,0,0,1,47.911.205,3.916,3.916,0,0,1,45.22-.723a3,3,0,0,1-1.051-2.353,3.136,3.136,0,0,1,1.318-2.692,6.212,6.212,0,0,1,3.707-.959h1.846V-7.6a2.131,2.131,0,0,0-.595-1.584,2.39,2.39,0,0,0-1.753-.59,2.766,2.766,0,0,0-1.7.513A1.511,1.511,0,0,0,46.3-8.019H44.394a2.618,2.618,0,0,1,.59-1.6,4.024,4.024,0,0,1,1.6-1.225A5.381,5.381,0,0,1,48.8-11.3a4.386,4.386,0,0,1,3,.959A3.458,3.458,0,0,1,52.936-7.7v5.106a6.243,6.243,0,0,0,.39,2.43V0ZM48.188-1.446a3.334,3.334,0,0,0,1.692-.461,2.791,2.791,0,0,0,1.159-1.2V-5.383H49.552q-3.486,0-3.486,2.041a1.727,1.727,0,0,0,.595,1.395A2.286,2.286,0,0,0,48.188-1.446ZM63.169,0h-1.9V-15.75h1.9Zm9.885,0a3.985,3.985,0,0,1-.267-1.169A4.233,4.233,0,0,1,69.629.205a3.916,3.916,0,0,1-2.692-.928,3,3,0,0,1-1.051-2.353A3.136,3.136,0,0,1,67.2-5.768a6.212,6.212,0,0,1,3.707-.959h1.846V-7.6a2.131,2.131,0,0,0-.595-1.584,2.39,2.39,0,0,0-1.753-.59,2.766,2.766,0,0,0-1.7.513,1.511,1.511,0,0,0-.687,1.241H66.112a2.618,2.618,0,0,1,.59-1.6,4.024,4.024,0,0,1,1.6-1.225,5.381,5.381,0,0,1,2.22-.451,4.386,4.386,0,0,1,3,.959A3.458,3.458,0,0,1,74.654-7.7v5.106a6.243,6.243,0,0,0,.39,2.43V0ZM69.906-1.446A3.334,3.334,0,0,0,71.6-1.907a2.791,2.791,0,0,0,1.159-1.2V-5.383H71.27q-3.486,0-3.486,2.041a1.727,1.727,0,0,0,.595,1.395A2.286,2.286,0,0,0,69.906-1.446ZM-112.455,17.36a6.5,6.5,0,0,1,1.21-4.107,3.826,3.826,0,0,1,3.168-1.553,3.848,3.848,0,0,1,3.086,1.333V7.25h1.9V23h-1.743l-.092-1.189a3.863,3.863,0,0,1-3.168,1.395,3.789,3.789,0,0,1-3.143-1.579,6.573,6.573,0,0,1-1.215-4.122Zm1.9.215a4.921,4.921,0,0,0,.779,2.953,2.519,2.519,0,0,0,2.153,1.066,2.767,2.767,0,0,0,2.635-1.62v-5.1A2.789,2.789,0,0,0-107.6,13.31a2.531,2.531,0,0,0-2.174,1.077A5.418,5.418,0,0,0-110.558,17.576Zm15.012,5.629a4.848,4.848,0,0,1-3.671-1.482,5.5,5.5,0,0,1-1.415-3.963v-.349A6.658,6.658,0,0,1-100,14.464a4.919,4.919,0,0,1,1.764-2.03,4.434,4.434,0,0,1,2.456-.733,4.155,4.155,0,0,1,3.363,1.425,6.171,6.171,0,0,1,1.2,4.081V18h-7.516a3.944,3.944,0,0,0,.959,2.651,3.014,3.014,0,0,0,2.333,1.01,3.3,3.3,0,0,0,1.7-.41,4.277,4.277,0,0,0,1.22-1.087l1.159.9A4.659,4.659,0,0,1-95.546,23.205Zm-.236-9.946a2.53,2.53,0,0,0-1.928.836,4.062,4.062,0,0,0-.964,2.343h5.558v-.144a3.613,3.613,0,0,0-.779-2.24A2.382,2.382,0,0,0-95.782,13.259Zm9.331-4.04v2.687h2.071v1.466h-2.071v6.889a1.54,1.54,0,0,0,.277,1,1.165,1.165,0,0,0,.943.334,4.593,4.593,0,0,0,.9-.123V23a5.532,5.532,0,0,1-1.456.2,2.362,2.362,0,0,1-1.917-.769,3.3,3.3,0,0,1-.646-2.184v-6.88h-2.02V11.905h2.02V9.219Zm8.89,13.986a4.848,4.848,0,0,1-3.671-1.482,5.5,5.5,0,0,1-1.415-3.963v-.349a6.658,6.658,0,0,1,.631-2.948,4.919,4.919,0,0,1,1.764-2.03A4.434,4.434,0,0,1-77.8,11.7a4.155,4.155,0,0,1,3.363,1.425,6.171,6.171,0,0,1,1.2,4.081V18H-80.75a3.944,3.944,0,0,0,.959,2.651,3.014,3.014,0,0,0,2.333,1.01,3.3,3.3,0,0,0,1.7-.41,4.277,4.277,0,0,0,1.22-1.087l1.159.9A4.659,4.659,0,0,1-77.561,23.205Zm-.236-9.946a2.53,2.53,0,0,0-1.928.836,4.062,4.062,0,0,0-.964,2.343h5.558v-.144a3.613,3.613,0,0,0-.779-2.24A2.382,2.382,0,0,0-77.8,13.259Zm12.12.349a5.685,5.685,0,0,0-.933-.072,2.5,2.5,0,0,0-2.533,1.589V23h-1.9V11.905h1.846l.031,1.282A2.954,2.954,0,0,1-66.517,11.7a1.938,1.938,0,0,1,.841.144Zm3.527-1.7.051,1.23A4.1,4.1,0,0,1-58.806,11.7a3.172,3.172,0,0,1,3.168,1.784A4.2,4.2,0,0,1-54.2,12.192a4.255,4.255,0,0,1,2.1-.492q3.65,0,3.712,3.866V23h-1.9V15.679a2.548,2.548,0,0,0-.543-1.779,2.393,2.393,0,0,0-1.825-.59,2.515,2.515,0,0,0-1.753.631,2.558,2.558,0,0,0-.81,1.7V23h-1.907V15.73a2.117,2.117,0,0,0-2.369-2.42A2.538,2.538,0,0,0-62.046,14.9V23h-1.9V11.905ZM-43.466,23h-1.9V11.905h1.9ZM-45.517,8.962a1.132,1.132,0,0,1,.282-.779,1.059,1.059,0,0,1,.836-.318,1.075,1.075,0,0,1,.841.318,1.12,1.12,0,0,1,.287.779,1.084,1.084,0,0,1-.287.769,1.1,1.1,0,0,1-.841.308,1.078,1.078,0,0,1-.836-.308A1.1,1.1,0,0,1-45.517,8.962Zm6.88,2.943.062,1.395a4.043,4.043,0,0,1,3.322-1.6q3.517,0,3.548,3.968V23h-1.9V15.658a2.554,2.554,0,0,0-.549-1.774,2.2,2.2,0,0,0-1.677-.574,2.738,2.738,0,0,0-1.62.492,3.342,3.342,0,0,0-1.087,1.292V23h-1.9V11.905ZM-21.995,23a3.985,3.985,0,0,1-.267-1.169,4.233,4.233,0,0,1-3.158,1.374,3.916,3.916,0,0,1-2.692-.928,3,3,0,0,1-1.051-2.353,3.136,3.136,0,0,1,1.318-2.692,6.212,6.212,0,0,1,3.707-.959h1.846V15.4a2.131,2.131,0,0,0-.595-1.584,2.39,2.39,0,0,0-1.753-.59,2.766,2.766,0,0,0-1.7.513,1.511,1.511,0,0,0-.687,1.241h-1.907a2.618,2.618,0,0,1,.59-1.6,4.024,4.024,0,0,1,1.6-1.225,5.381,5.381,0,0,1,2.22-.451,4.386,4.386,0,0,1,3,.959A3.458,3.458,0,0,1-20.4,15.3v5.106a6.243,6.243,0,0,0,.39,2.43V23Zm-3.148-1.446a3.334,3.334,0,0,0,1.692-.461,2.791,2.791,0,0,0,1.159-1.2V17.617h-1.487q-3.486,0-3.486,2.041a1.727,1.727,0,0,0,.595,1.395A2.286,2.286,0,0,0-25.143,21.554Zm12.171.1a2.732,2.732,0,0,0,1.774-.615,2.164,2.164,0,0,0,.841-1.538h1.794a3.44,3.44,0,0,1-.656,1.815,4.322,4.322,0,0,1-1.615,1.374,4.66,4.66,0,0,1-2.138.513,4.57,4.57,0,0,1-3.6-1.512,6.024,6.024,0,0,1-1.338-4.137v-.318a6.679,6.679,0,0,1,.595-2.881A4.53,4.53,0,0,1-15.612,12.4a4.85,4.85,0,0,1,2.63-.7,4.45,4.45,0,0,1,3.1,1.118,3.994,3.994,0,0,1,1.318,2.9h-1.794a2.614,2.614,0,0,0-.815-1.769,2.536,2.536,0,0,0-1.81-.692,2.655,2.655,0,0,0-2.24,1.041,4.888,4.888,0,0,0-.795,3.01v.359a4.79,4.79,0,0,0,.79,2.953A2.668,2.668,0,0,0-12.971,21.657ZM-4.368,23h-1.9V11.905h1.9ZM-6.419,8.962a1.132,1.132,0,0,1,.282-.779A1.059,1.059,0,0,1-5.3,7.865a1.075,1.075,0,0,1,.841.318,1.12,1.12,0,0,1,.287.779,1.084,1.084,0,0,1-.287.769,1.1,1.1,0,0,1-.841.308,1.078,1.078,0,0,1-.836-.308A1.1,1.1,0,0,1-6.419,8.962Zm4.583,8.388a6.553,6.553,0,0,1,.641-2.933A4.781,4.781,0,0,1,.59,12.408,4.857,4.857,0,0,1,3.2,11.7a4.679,4.679,0,0,1,3.666,1.569,6.036,6.036,0,0,1,1.4,4.173v.133a6.61,6.61,0,0,1-.62,2.907,4.71,4.71,0,0,1-1.774,2,4.913,4.913,0,0,1-2.651.718A4.667,4.667,0,0,1-.436,21.636a6.005,6.005,0,0,1-1.4-4.153Zm1.907.226a4.746,4.746,0,0,0,.856,2.963A2.74,2.74,0,0,0,3.22,21.657a2.724,2.724,0,0,0,2.3-1.133,5.19,5.19,0,0,0,.851-3.174A4.738,4.738,0,0,0,5.5,14.392a2.755,2.755,0,0,0-2.3-1.133A2.724,2.724,0,0,0,.933,14.376,5.152,5.152,0,0,0,.072,17.576ZM4.061,7.25h2.3L3.609,10.265,2.082,10.26Zm8.377,4.655L12.5,13.3a4.043,4.043,0,0,1,3.322-1.6q3.517,0,3.548,3.968V23h-1.9V15.658a2.554,2.554,0,0,0-.549-1.774,2.2,2.2,0,0,0-1.677-.574,2.738,2.738,0,0,0-1.62.492,3.342,3.342,0,0,0-1.087,1.292V23h-1.9V11.905Zm14.53,5.455a6.5,6.5,0,0,1,1.21-4.107,4.117,4.117,0,0,1,6.255-.22V7.25h1.9V23H34.586l-.092-1.189a3.863,3.863,0,0,1-3.168,1.395,3.789,3.789,0,0,1-3.143-1.579A6.573,6.573,0,0,1,26.968,17.5Zm1.9.215a4.921,4.921,0,0,0,.779,2.953A2.519,2.519,0,0,0,31.8,21.6a2.767,2.767,0,0,0,2.635-1.62v-5.1a2.789,2.789,0,0,0-2.615-1.569,2.531,2.531,0,0,0-2.174,1.077A5.418,5.418,0,0,0,28.865,17.576Zm15.012,5.629a4.848,4.848,0,0,1-3.671-1.482,5.5,5.5,0,0,1-1.415-3.963v-.349a6.658,6.658,0,0,1,.631-2.948,4.919,4.919,0,0,1,1.764-2.03,4.434,4.434,0,0,1,2.456-.733A4.155,4.155,0,0,1,47,13.125a6.171,6.171,0,0,1,1.2,4.081V18H40.688a3.944,3.944,0,0,0,.959,2.651,3.014,3.014,0,0,0,2.333,1.01,3.3,3.3,0,0,0,1.7-.41A4.277,4.277,0,0,0,46.9,20.16l1.159.9A4.659,4.659,0,0,1,43.876,23.205Zm-.236-9.946a2.53,2.53,0,0,0-1.928.836,4.062,4.062,0,0,0-.964,2.343h5.558v-.144a3.613,3.613,0,0,0-.779-2.24A2.382,2.382,0,0,0,43.641,13.259ZM52.459,23h-1.9V7.25h1.9Zm8.162-6.06a15.853,15.853,0,0,1,.62-4.45,12.928,12.928,0,0,1,1.851-3.876,7.874,7.874,0,0,1,2.553-2.461l.39,1.251a8.167,8.167,0,0,0-2.456,3.507,15.2,15.2,0,0,0-1.051,5.281l-.01.872a15.282,15.282,0,0,0,1.446,6.87,8.205,8.205,0,0,0,2.071,2.728l-.39,1.159a8.127,8.127,0,0,1-2.6-2.543A14.253,14.253,0,0,1,60.621,16.94ZM79.15,18.263A5.493,5.493,0,0,1,77.4,21.918a5.73,5.73,0,0,1-3.912,1.287,5.261,5.261,0,0,1-4.24-1.9,7.632,7.632,0,0,1-1.594-5.076V14.8a8.506,8.506,0,0,1,.743-3.661,5.553,5.553,0,0,1,2.107-2.425,5.867,5.867,0,0,1,3.158-.846,5.4,5.4,0,0,1,3.814,1.328,5.559,5.559,0,0,1,1.671,3.676H77.171a4.29,4.29,0,0,0-1.113-2.592,3.366,3.366,0,0,0-2.394-.8,3.522,3.522,0,0,0-2.958,1.4,6.407,6.407,0,0,0-1.072,3.972v1.447a6.586,6.586,0,0,0,1.015,3.869A3.28,3.28,0,0,0,73.49,21.6a3.789,3.789,0,0,0,2.517-.743,4.125,4.125,0,0,0,1.164-2.589Zm2.43,3.743a1.188,1.188,0,0,1,.292-.82,1.114,1.114,0,0,1,.877-.328,1.147,1.147,0,0,1,.887.328,1.164,1.164,0,0,1,.3.82,1.1,1.1,0,0,1-.3.79,1.168,1.168,0,0,1-.887.318,1.055,1.055,0,0,1-1.169-1.107ZM98.837,23H96.858V16.1H89.332V23H87.363V8.07h1.969v6.419h7.526V8.07h1.979Zm3.24-.995a1.188,1.188,0,0,1,.292-.82,1.114,1.114,0,0,1,.877-.328,1.147,1.147,0,0,1,.887.328,1.164,1.164,0,0,1,.3.82,1.1,1.1,0,0,1-.3.79,1.168,1.168,0,0,1-.887.318,1.055,1.055,0,0,1-1.169-1.107Zm9.864-4.963a15.861,15.861,0,0,1-.6,4.384,12.962,12.962,0,0,1-1.835,3.871,8.042,8.042,0,0,1-2.589,2.522l-.4-1.159a8.243,8.243,0,0,0,2.538-3.758,16.258,16.258,0,0,0,.979-5.655v-.328a16.88,16.88,0,0,0-.451-4A13.514,13.514,0,0,0,108.327,9.6a7.662,7.662,0,0,0-1.81-2.287l.4-1.159a8.01,8.01,0,0,1,2.579,2.5,12.99,12.99,0,0,1,1.835,3.866A16.227,16.227,0,0,1,111.942,17.042Z" transform="translate(-5863 -4390.292)" fill="#12263f"/>
    <path id="Path_221741" data-name="Path 221741" d="M10.5,0H1.182V-1.3L6.1-6.768A11.693,11.693,0,0,0,7.612-8.784a3.366,3.366,0,0,0,.415-1.606,2.551,2.551,0,0,0-.674-1.826,2.356,2.356,0,0,0-1.8-.713,2.79,2.79,0,0,0-2.095.767,2.928,2.928,0,0,0-.747,2.134H.908A4.194,4.194,0,0,1,2.173-13.2a4.688,4.688,0,0,1,3.384-1.211,4.5,4.5,0,0,1,3.135,1.04,3.548,3.548,0,0,1,1.152,2.769q0,2.1-2.676,5L3.359-1.475H10.5Zm2.744-7.129.723-7.09H21.25v1.67H15.5l-.43,3.877a4.588,4.588,0,0,1,2.373-.615A3.923,3.923,0,0,1,20.527-8,5.033,5.033,0,0,1,21.67-4.531a4.858,4.858,0,0,1-1.187,3.462A4.325,4.325,0,0,1,17.168.2,4.494,4.494,0,0,1,14.092-.85,4.171,4.171,0,0,1,12.734-3.74h1.709A2.869,2.869,0,0,0,15.313-1.9a2.7,2.7,0,0,0,1.855.62,2.438,2.438,0,0,0,1.978-.859,3.593,3.593,0,0,0,.718-2.373,3.3,3.3,0,0,0-.776-2.29,2.641,2.641,0,0,0-2.065-.864,2.978,2.978,0,0,0-1.855.518l-.479.391Zm17.236-3.437.049,1.172a3.9,3.9,0,0,1,3.135-1.367,3.021,3.021,0,0,1,3.018,1.7,4,4,0,0,1,1.372-1.23,4.052,4.052,0,0,1,2-.469q3.477,0,3.535,3.682V0H41.777V-6.973a2.426,2.426,0,0,0-.518-1.694,2.279,2.279,0,0,0-1.738-.562,2.4,2.4,0,0,0-1.67.6,2.436,2.436,0,0,0-.771,1.616V0H35.264V-6.924a2.016,2.016,0,0,0-2.256-2.3,2.417,2.417,0,0,0-2.432,1.514V0H28.77V-10.566Zm17.529,0,.049,1.172a3.9,3.9,0,0,1,3.135-1.367,3.021,3.021,0,0,1,3.018,1.7,4,4,0,0,1,1.372-1.23,4.052,4.052,0,0,1,2-.469q3.477,0,3.535,3.682V0H59.307V-6.973a2.426,2.426,0,0,0-.518-1.694,2.279,2.279,0,0,0-1.738-.562,2.4,2.4,0,0,0-1.67.6,2.436,2.436,0,0,0-.771,1.616V0H52.793V-6.924a2.016,2.016,0,0,0-2.256-2.3,2.417,2.417,0,0,0-2.432,1.514V0H46.3V-10.566Z" transform="translate(-5926.77 -4458.043)" fill="#12263f"/>
    <path id="Path_221743" data-name="Path 221743" d="M9.977-3.907H3.722L2.317,0H.287l5.7-14.93H7.711L13.422,0H11.4Zm-5.66-1.61H9.393L6.85-12.5ZM17.2,0H15.3V-15.75h1.9ZM27.214-11.095l.051,1.23A4.1,4.1,0,0,1,30.557-11.3a3.172,3.172,0,0,1,3.168,1.784,4.2,4.2,0,0,1,1.441-1.292,4.255,4.255,0,0,1,2.1-.492q3.65,0,3.712,3.866V0h-1.9V-7.321A2.548,2.548,0,0,0,38.534-9.1a2.393,2.393,0,0,0-1.825-.59,2.515,2.515,0,0,0-1.753.631,2.558,2.558,0,0,0-.81,1.7V0H32.238V-7.27A2.117,2.117,0,0,0,29.87-9.69,2.538,2.538,0,0,0,27.316-8.1V0h-1.9V-11.095ZM48.439.205a4.848,4.848,0,0,1-3.671-1.482A5.5,5.5,0,0,1,43.354-5.24v-.349a6.658,6.658,0,0,1,.631-2.948,4.919,4.919,0,0,1,1.764-2.03A4.434,4.434,0,0,1,48.2-11.3a4.155,4.155,0,0,1,3.363,1.425,6.171,6.171,0,0,1,1.2,4.081V-5H45.25a3.944,3.944,0,0,0,.959,2.651,3.014,3.014,0,0,0,2.333,1.01,3.3,3.3,0,0,0,1.7-.41,4.277,4.277,0,0,0,1.22-1.087l1.159.9A4.659,4.659,0,0,1,48.439.205ZM48.2-9.741a2.53,2.53,0,0,0-1.928.836,4.062,4.062,0,0,0-.964,2.343H50.87v-.144a3.613,3.613,0,0,0-.779-2.24A2.382,2.382,0,0,0,48.2-9.741Zm8.552-1.354L56.817-9.7a4.043,4.043,0,0,1,3.322-1.6q3.517,0,3.548,3.968V0h-1.9V-7.342a2.554,2.554,0,0,0-.549-1.774,2.2,2.2,0,0,0-1.677-.574,2.738,2.738,0,0,0-1.62.492,3.342,3.342,0,0,0-1.087,1.292V0h-1.9V-11.095Zm9.29,5.445a6.553,6.553,0,0,1,.641-2.933,4.781,4.781,0,0,1,1.784-2.01,4.857,4.857,0,0,1,2.61-.708,4.679,4.679,0,0,1,3.666,1.569,6.036,6.036,0,0,1,1.4,4.173v.133a6.61,6.61,0,0,1-.62,2.907,4.71,4.71,0,0,1-1.774,2A4.913,4.913,0,0,1,71.1.205a4.667,4.667,0,0,1-3.656-1.569,6.005,6.005,0,0,1-1.4-4.153Zm1.907.226a4.746,4.746,0,0,0,.856,2.963A2.74,2.74,0,0,0,71.1-1.343a2.724,2.724,0,0,0,2.3-1.133,5.19,5.19,0,0,0,.851-3.174,4.738,4.738,0,0,0-.866-2.958,2.755,2.755,0,0,0-2.3-1.133,2.724,2.724,0,0,0-2.266,1.118A5.152,5.152,0,0,0,67.953-5.424ZM84.984-2.943a1.4,1.4,0,0,0-.579-1.195,5.576,5.576,0,0,0-2.02-.733A9.551,9.551,0,0,1,80.1-5.609a3.253,3.253,0,0,1-1.251-1.025,2.453,2.453,0,0,1-.405-1.415A2.878,2.878,0,0,1,79.6-10.356a4.505,4.505,0,0,1,2.948-.943,4.636,4.636,0,0,1,3.061.974,3.094,3.094,0,0,1,1.174,2.492H84.872a1.713,1.713,0,0,0-.661-1.343,2.478,2.478,0,0,0-1.666-.564,2.593,2.593,0,0,0-1.62.451,1.42,1.42,0,0,0-.584,1.179,1.151,1.151,0,0,0,.543,1.036,6.687,6.687,0,0,0,1.964.667,10.231,10.231,0,0,1,2.3.759,3.358,3.358,0,0,1,1.307,1.061,2.609,2.609,0,0,1,.426,1.512A2.839,2.839,0,0,1,85.692-.692a4.989,4.989,0,0,1-3.086.9,5.587,5.587,0,0,1-2.358-.472,3.836,3.836,0,0,1-1.6-1.318,3.176,3.176,0,0,1-.579-1.83h1.9A1.964,1.964,0,0,0,80.724-1.9a2.964,2.964,0,0,0,1.882.559,3.059,3.059,0,0,0,1.728-.436A1.339,1.339,0,0,0,84.984-2.943Zm18.734-3.425a8.676,8.676,0,0,1-1.138,4.953A4.048,4.048,0,0,1,99.022.205a4.077,4.077,0,0,1-3.538-1.584,8.235,8.235,0,0,1-1.189-4.732V-8.644a8.483,8.483,0,0,1,1.138-4.891A4.079,4.079,0,0,1,99-15.135a4.116,4.116,0,0,1,3.548,1.543,8.186,8.186,0,0,1,1.169,4.763Zm-1.9-2.594a6.951,6.951,0,0,0-.677-3.512A2.329,2.329,0,0,0,99-13.576a2.3,2.3,0,0,0-2.123,1.1,6.787,6.787,0,0,0-.687,3.374V-6.07a7.062,7.062,0,0,0,.7,3.573,2.325,2.325,0,0,0,2.128,1.154,2.293,2.293,0,0,0,2.087-1.087,6.807,6.807,0,0,0,.713-3.425Zm4.563,7.967a1.188,1.188,0,0,1,.292-.82,1.114,1.114,0,0,1,.877-.328,1.147,1.147,0,0,1,.887.328,1.164,1.164,0,0,1,.3.82,1.1,1.1,0,0,1-.3.79,1.168,1.168,0,0,1-.887.318,1.133,1.133,0,0,1-.877-.318A1.123,1.123,0,0,1,106.384-.995Zm6.163-6.491.759-7.444h7.649v1.753h-6.04l-.451,4.071a4.818,4.818,0,0,1,2.492-.646A4.119,4.119,0,0,1,120.2-8.4a5.285,5.285,0,0,1,1.2,3.645,5.1,5.1,0,0,1-1.246,3.635A4.541,4.541,0,0,1,116.669.205a4.719,4.719,0,0,1-3.23-1.1,4.379,4.379,0,0,1-1.425-3.035h1.794a3.013,3.013,0,0,0,.913,1.933,2.838,2.838,0,0,0,1.948.651,2.56,2.56,0,0,0,2.076-.9,3.772,3.772,0,0,0,.754-2.492,3.462,3.462,0,0,0-.815-2.4,2.773,2.773,0,0,0-2.169-.907,3.127,3.127,0,0,0-1.948.543l-.5.41Zm18.1-3.609.051,1.23a4.1,4.1,0,0,1,3.292-1.436,3.172,3.172,0,0,1,3.168,1.784,4.2,4.2,0,0,1,1.441-1.292,4.255,4.255,0,0,1,2.1-.492q3.65,0,3.712,3.866V0h-1.9V-7.321a2.548,2.548,0,0,0-.543-1.779,2.393,2.393,0,0,0-1.825-.59,2.515,2.515,0,0,0-1.753.631,2.558,2.558,0,0,0-.81,1.7V0h-1.907V-7.27A2.117,2.117,0,0,0,133.3-9.69,2.538,2.538,0,0,0,130.748-8.1V0h-1.9V-11.095Z" transform="translate(-5583.336 -4175.353)" fill="#12263f"/>
    <path id="Path_221746" data-name="Path 221746" d="M10.1-6.064A8.263,8.263,0,0,1,9.014-1.348,3.855,3.855,0,0,1,5.625.2,3.883,3.883,0,0,1,2.256-1.313,7.843,7.843,0,0,1,1.123-5.82V-8.232a8.079,8.079,0,0,1,1.084-4.658,3.885,3.885,0,0,1,3.4-1.523,3.92,3.92,0,0,1,3.379,1.47A7.8,7.8,0,0,1,10.1-8.408ZM8.291-8.535a6.62,6.62,0,0,0-.645-3.345,2.218,2.218,0,0,0-2.041-1.05,2.189,2.189,0,0,0-2.021,1.045A6.464,6.464,0,0,0,2.93-8.672v2.891a6.726,6.726,0,0,0,.669,3.4,2.214,2.214,0,0,0,2.026,1.1A2.184,2.184,0,0,0,7.612-2.314a6.483,6.483,0,0,0,.679-3.262ZM12.637-.947a1.131,1.131,0,0,1,.278-.781,1.061,1.061,0,0,1,.835-.312,1.092,1.092,0,0,1,.845.313,1.109,1.109,0,0,1,.288.781,1.048,1.048,0,0,1-.288.752,1.112,1.112,0,0,1-.845.3,1.079,1.079,0,0,1-.835-.3A1.069,1.069,0,0,1,12.637-.947Zm5.869-6.182.723-7.09h7.285v1.67H20.762l-.43,3.877a4.588,4.588,0,0,1,2.373-.615A3.923,3.923,0,0,1,25.791-8a5.033,5.033,0,0,1,1.143,3.472,4.858,4.858,0,0,1-1.187,3.462A4.325,4.325,0,0,1,22.432.2,4.494,4.494,0,0,1,19.355-.85,4.171,4.171,0,0,1,18-3.74h1.709A2.869,2.869,0,0,0,20.576-1.9a2.7,2.7,0,0,0,1.855.62,2.438,2.438,0,0,0,1.978-.859,3.593,3.593,0,0,0,.718-2.373,3.3,3.3,0,0,0-.776-2.29,2.641,2.641,0,0,0-2.065-.864,2.978,2.978,0,0,0-1.855.518l-.479.391ZM40.566,0a3.8,3.8,0,0,1-.254-1.113A4.031,4.031,0,0,1,37.3.2a3.73,3.73,0,0,1-2.563-.884,2.859,2.859,0,0,1-1-2.241A2.987,2.987,0,0,1,35-5.493a5.916,5.916,0,0,1,3.53-.913h1.758v-.83a2.029,2.029,0,0,0-.566-1.509,2.276,2.276,0,0,0-1.67-.562,2.634,2.634,0,0,0-1.621.488,1.439,1.439,0,0,0-.654,1.182H33.955a2.493,2.493,0,0,1,.562-1.528,3.832,3.832,0,0,1,1.523-1.167,5.125,5.125,0,0,1,2.114-.43,4.177,4.177,0,0,1,2.861.913A3.294,3.294,0,0,1,42.09-7.334v4.863a5.946,5.946,0,0,0,.371,2.314V0Zm-3-1.377a3.175,3.175,0,0,0,1.611-.439,2.658,2.658,0,0,0,1.1-1.143V-5.127H38.867q-3.32,0-3.32,1.943a1.645,1.645,0,0,0,.566,1.328A2.177,2.177,0,0,0,37.568-1.377ZM55.625,0H53.809V-12.041L50.166-10.7v-1.641l5.176-1.943h.283ZM67.754-10.566,67.8-9.395a3.9,3.9,0,0,1,3.135-1.367,3.021,3.021,0,0,1,3.018,1.7,4,4,0,0,1,1.372-1.23,4.052,4.052,0,0,1,2-.469q3.477,0,3.535,3.682V0H79.053V-6.973a2.426,2.426,0,0,0-.518-1.694A2.279,2.279,0,0,0,76.8-9.229a2.4,2.4,0,0,0-1.67.6,2.436,2.436,0,0,0-.771,1.616V0H72.539V-6.924a2.016,2.016,0,0,0-2.256-2.3,2.417,2.417,0,0,0-2.432,1.514V0H66.045V-10.566Z" transform="matrix(0.799, -0.602, 0.602, 0.799, -5444.421, -4334.097)" fill="#12263f"/>
    <path id="Path_221744" data-name="Path 221744" d="M4.843-13.508l3.47,9.8,3.451-9.8h3.655V0H12.626V-3.692l.278-6.374L9.259,0H7.348L3.711-10.057l.278,6.364V0H1.206V-13.508ZM23.685-1.021A3.362,3.362,0,0,1,20.939.186a3.171,3.171,0,0,1-2.463-.928,3.96,3.96,0,0,1-.867-2.718v-6.578H20.29v6.492q0,1.57,1.429,1.57a1.936,1.936,0,0,0,1.874-.947v-7.115h2.69V0H23.759ZM32.925.186A4.928,4.928,0,0,1,29.33-1.169a4.815,4.815,0,0,1-1.387-3.609v-.26a6.064,6.064,0,0,1,.584-2.7,4.289,4.289,0,0,1,1.656-1.837,4.648,4.648,0,0,1,2.445-.645,4.166,4.166,0,0,1,3.242,1.3,5.278,5.278,0,0,1,1.183,3.683v1.095H30.662a2.491,2.491,0,0,0,.784,1.577,2.37,2.37,0,0,0,1.656.594A2.894,2.894,0,0,0,35.523-3.1L36.84-1.624A4.025,4.025,0,0,1,35.208-.292,5.357,5.357,0,0,1,32.925.186Zm-.306-8.248a1.675,1.675,0,0,0-1.294.54,2.8,2.8,0,0,0-.635,1.547h3.729v-.214a2,2,0,0,0-.482-1.384A1.729,1.729,0,0,0,32.619-8.062ZM44.012-2.774a.864.864,0,0,0-.487-.775,5.533,5.533,0,0,0-1.563-.506Q38.38-4.806,38.38-7.1a2.758,2.758,0,0,1,1.109-2.231,4.472,4.472,0,0,1,2.9-.9,4.813,4.813,0,0,1,3.057.9,2.836,2.836,0,0,1,1.146,2.338H43.91a1.3,1.3,0,0,0-.371-.951,1.57,1.57,0,0,0-1.16-.376,1.6,1.6,0,0,0-1.048.306.966.966,0,0,0-.371.779.826.826,0,0,0,.422.719,4.342,4.342,0,0,0,1.424.473,11.632,11.632,0,0,1,1.688.45,2.774,2.774,0,0,1,2.125,2.7A2.618,2.618,0,0,1,45.44-.663,5.083,5.083,0,0,1,42.4.186a5.309,5.309,0,0,1-2.24-.45A3.759,3.759,0,0,1,38.622-1.5a2.867,2.867,0,0,1-.557-1.693h2.542A1.4,1.4,0,0,0,41.136-2.1a2.1,2.1,0,0,0,1.317.38,1.941,1.941,0,0,0,1.164-.292A.909.909,0,0,0,44.012-2.774Zm7.542-9.732v2.468h1.716v1.967H51.554v5.01a1.2,1.2,0,0,0,.213.8,1.072,1.072,0,0,0,.816.241,4.276,4.276,0,0,0,.789-.065V-.056a5.52,5.52,0,0,1-1.624.241,2.56,2.56,0,0,1-2.876-2.848V-8.071H47.407v-1.967h1.466v-2.468ZM60.4-7.524A7.284,7.284,0,0,0,59.44-7.6a1.964,1.964,0,0,0-1.995,1.03V0H54.764V-10.038H57.3l.074,1.2a2.484,2.484,0,0,1,2.236-1.382,2.809,2.809,0,0,1,.835.121ZM67.233,0a2.977,2.977,0,0,1-.269-.9A3.244,3.244,0,0,1,64.431.186a3.564,3.564,0,0,1-2.445-.854,2.745,2.745,0,0,1-.969-2.152A2.837,2.837,0,0,1,62.2-5.27a5.837,5.837,0,0,1,3.419-.863h1.234v-.575A1.654,1.654,0,0,0,66.5-7.821a1.405,1.405,0,0,0-1.127-.417,1.6,1.6,0,0,0-1.062.325,1.1,1.1,0,0,0-.385.891H61.24a2.693,2.693,0,0,1,.538-1.614A3.557,3.557,0,0,1,63.3-9.8a5.545,5.545,0,0,1,2.208-.422,4.381,4.381,0,0,1,2.946.932,3.262,3.262,0,0,1,1.09,2.621v4.351a4.8,4.8,0,0,0,.4,2.162V0ZM65.016-1.865a2.309,2.309,0,0,0,1.095-.264,1.737,1.737,0,0,0,.742-.71V-4.564h-1q-2.013,0-2.143,1.392l-.009.158a1.073,1.073,0,0,0,.353.826A1.369,1.369,0,0,0,65.016-1.865ZM4.24,6.494V8.962H5.956v1.967H4.24v5.01a1.2,1.2,0,0,0,.213.8,1.072,1.072,0,0,0,.816.241,4.276,4.276,0,0,0,.789-.065v2.032a5.52,5.52,0,0,1-1.624.241,2.56,2.56,0,0,1-2.876-2.848V10.929H.093V8.962H1.559V6.494Zm7.83,12.691a4.928,4.928,0,0,1-3.595-1.354,4.815,4.815,0,0,1-1.387-3.609v-.26a6.064,6.064,0,0,1,.584-2.7A4.289,4.289,0,0,1,9.328,9.421a4.648,4.648,0,0,1,2.445-.645,4.166,4.166,0,0,1,3.242,1.3A5.278,5.278,0,0,1,16.2,13.758v1.095H9.806a2.491,2.491,0,0,0,.784,1.577,2.37,2.37,0,0,0,1.656.594A2.894,2.894,0,0,0,14.667,15.9l1.317,1.475a4.025,4.025,0,0,1-1.633,1.331A5.357,5.357,0,0,1,12.07,19.186Zm-.306-8.248a1.675,1.675,0,0,0-1.294.54,2.8,2.8,0,0,0-.635,1.547h3.729v-.214a2,2,0,0,0-.482-1.384A1.729,1.729,0,0,0,11.764,10.938Zm11.393,5.288a.864.864,0,0,0-.487-.775,5.533,5.533,0,0,0-1.563-.506q-3.581-.751-3.581-3.043a2.758,2.758,0,0,1,1.109-2.231,4.472,4.472,0,0,1,2.9-.9,4.813,4.813,0,0,1,3.057.9,2.836,2.836,0,0,1,1.146,2.338H23.054a1.3,1.3,0,0,0-.371-.951,1.57,1.57,0,0,0-1.16-.376,1.6,1.6,0,0,0-1.048.306.966.966,0,0,0-.371.779.826.826,0,0,0,.422.719,4.342,4.342,0,0,0,1.424.473,11.632,11.632,0,0,1,1.688.45,2.774,2.774,0,0,1,2.125,2.7,2.618,2.618,0,0,1-1.178,2.222,5.083,5.083,0,0,1-3.043.849,5.309,5.309,0,0,1-2.24-.45A3.759,3.759,0,0,1,17.766,17.5a2.867,2.867,0,0,1-.557-1.693h2.542A1.4,1.4,0,0,0,20.28,16.9a2.1,2.1,0,0,0,1.317.38,1.941,1.941,0,0,0,1.164-.292A.909.909,0,0,0,23.156,16.226ZM30.7,6.494V8.962h1.716v1.967H30.7v5.01a1.2,1.2,0,0,0,.213.8,1.072,1.072,0,0,0,.816.241,4.276,4.276,0,0,0,.789-.065v2.032a5.52,5.52,0,0,1-1.624.241,2.56,2.56,0,0,1-2.876-2.848V10.929H26.552V8.962h1.466V6.494ZM36.738,19h-2.69V8.962h2.69ZM33.89,6.364a1.32,1.32,0,0,1,.4-.993,1.739,1.739,0,0,1,2.194,0,1.313,1.313,0,0,1,.408.993,1.316,1.316,0,0,1-.413,1,1.72,1.72,0,0,1-2.18,0A1.316,1.316,0,0,1,33.89,6.364Zm4.667,7.542a5.883,5.883,0,0,1,1.1-3.72,3.562,3.562,0,0,1,2.964-1.41,3.124,3.124,0,0,1,2.57,1.132l.111-.946h2.431v9.7a4.29,4.29,0,0,1-.6,2.292,3.843,3.843,0,0,1-1.684,1.484,5.919,5.919,0,0,1-2.542.51,5.5,5.5,0,0,1-2.152-.441,3.82,3.82,0,0,1-1.586-1.136l1.188-1.633a3.141,3.141,0,0,0,2.431,1.123,2.3,2.3,0,0,0,1.661-.571,2.14,2.14,0,0,0,.594-1.619v-.538a3.1,3.1,0,0,1-2.44,1.048,3.553,3.553,0,0,1-2.927-1.415,5.881,5.881,0,0,1-1.118-3.753Zm2.681.2a3.663,3.663,0,0,0,.547,2.142,1.741,1.741,0,0,0,1.5.776,1.862,1.862,0,0,0,1.753-.92V11.876a1.857,1.857,0,0,0-1.735-.92,1.752,1.752,0,0,0-1.517.79A4.129,4.129,0,0,0,41.238,14.106Zm8.136-.218a5.953,5.953,0,0,1,.575-2.663,4.211,4.211,0,0,1,1.656-1.809,4.831,4.831,0,0,1,2.51-.64,4.571,4.571,0,0,1,3.317,1.243A4.989,4.989,0,0,1,58.865,13.4l.019.687a5.247,5.247,0,0,1-1.29,3.706,5,5,0,0,1-6.926,0,5.339,5.339,0,0,1-1.294-3.785Zm2.681.19a3.752,3.752,0,0,0,.538,2.188,1.933,1.933,0,0,0,3.062.009,4.106,4.106,0,0,0,.547-2.393,3.715,3.715,0,0,0-.547-2.174,1.779,1.779,0,0,0-1.54-.771,1.75,1.75,0,0,0-1.521.767A4.175,4.175,0,0,0,52.055,14.079Z" transform="translate(-5519.593 -4443.026)" fill="#12263f"/>
    <path id="Path_204459" data-name="Path 204459" d="M21.71,10.117,0,0V20.235Z" transform="matrix(-0.799, 0.602, -0.602, -0.799, -5618.956, -4160.757)" fill="red"/>
    <path id="Path_209236" data-name="Path 209236" d="M21.71,10.117,0,0V20.235Z" transform="matrix(0.799, -0.602, 0.602, 0.799, -5547.717, -4239.777)" fill="red"/>
    <path id="Path_204460" data-name="Path 204460" d="M114.377,0H0" transform="matrix(-0.799, 0.602, -0.602, -0.799, -5538.706, -4233.898)" fill="none" stroke="red" stroke-miterlimit="10" stroke-width="2"/>
    <path id="Path_204459-2" data-name="Path 204459" d="M21.71,10.117,0,0V20.235Z" transform="matrix(-0.799, 0.602, -0.602, -0.799, -5437.111, -4298.143)" fill="red"/>
    <path id="Path_209236-2" data-name="Path 209236" d="M21.71,10.117,0,0V20.235Z" transform="matrix(0.799, -0.602, 0.602, 0.799, -5365.872, -4377.163)" fill="red"/>
    <path id="Path_204460-2" data-name="Path 204460" d="M114.377,0H0" transform="matrix(-0.799, 0.602, -0.602, -0.799, -5356.861, -4371.284)" fill="none" stroke="red" stroke-miterlimit="10" stroke-width="2"/>
    <path id="Path_204459-3" data-name="Path 204459" d="M5.743,2.676,0,0V5.353Z" transform="matrix(-0.602, 0.799, -0.799, -0.602, -5846.747, -4452.292)" fill="red"/>
    <path id="Path_209236-3" data-name="Path 209236" d="M5.743,2.676,0,0V5.353Z" transform="matrix(0.602, -0.799, 0.799, 0.602, -5834.394, -4477.579)" fill="red"/>
    <path id="Path_204460-3" data-name="Path 204460" d="M30.255,0H0" transform="matrix(-0.602, 0.799, -0.799, -0.602, -5831.674, -4476.741)" fill="none" stroke="red" stroke-miterlimit="10" stroke-width="2"/>
    <path id="Path_204460-4" data-name="Path 204460" d="M61.519,0H0" transform="translate(-5665.305 -4222.947) rotate(68)" fill="none" stroke="red" stroke-miterlimit="10" stroke-width="2"/>
    <path id="Path_204460-5" data-name="Path 204460" d="M61.519,0H0" transform="translate(-5483.46 -4360.333) rotate(68)" fill="none" stroke="red" stroke-miterlimit="10" stroke-width="2"/>
    <path id="Path_204460-6" data-name="Path 204460" d="M27.891,0H0" transform="translate(-5950.458 -4354.193) rotate(68)" fill="none" stroke="red" stroke-miterlimit="10" stroke-width="2"/>
    <path id="Path_204460-7" data-name="Path 204460" d="M29.387,0H0" transform="translate(-5761.285 -4424.303) rotate(112)" fill="none" stroke="red" stroke-miterlimit="10" stroke-width="2"/>
    <path id="Path_204460-8" data-name="Path 204460" d="M61.519,0H0" transform="matrix(0.276, 0.961, -0.961, 0.276, -5553.85, -4310.321)" fill="none" stroke="red" stroke-miterlimit="10" stroke-width="2"/>
    <path id="Path_204460-9" data-name="Path 204460" d="M61.519,0H0" transform="matrix(0.276, 0.961, -0.961, 0.276, -5372.005, -4447.706)" fill="none" stroke="red" stroke-miterlimit="10" stroke-width="2"/>
    <path id="Path_204460-10" data-name="Path 204460" d="M114.377,0H0" transform="translate(-5503.318 -4365.561) rotate(90)" fill="none" stroke="red" stroke-miterlimit="10" stroke-width="2"/>
    <path id="Path_204460-11" data-name="Path 204460" d="M1151.806,590.378h-34.364" transform="translate(-6621.927 -4842.053)" fill="none" stroke="red" stroke-miterlimit="10" stroke-width="2"/>
    <path id="Path_204460-12" data-name="Path 204460" d="M1151.806,590.378h-34.364" transform="translate(-6940.83 -5059.327)" fill="none" stroke="red" stroke-miterlimit="10" stroke-width="2"/>
    <path id="Path_204460-13" data-name="Path 204460" d="M1151.806,590.378h-34.364" transform="translate(-6958.012 -5044.141)" fill="none" stroke="red" stroke-miterlimit="10" stroke-width="2"/>
    <path id="Path_209237" data-name="Path 209237" d="M-6754.733-3028.377l8.976,22.313h115.134l-8.671-24.422Z" transform="translate(1144.841 -1361.851)" fill="#3c4f91" stroke="#707070" stroke-width="1" opacity="0.7"/>
  </g>
</svg>
