<svg xmlns="http://www.w3.org/2000/svg" width="644.536" height="329.501" viewBox="0 0 644.536 329.501">
  <g id="Group_157322" data-name="Group 157322" transform="translate(-705 -9068)">
    <path id="Path_221741" data-name="Path 221741" d="M10.513,6.781l3.174,9.893,3.164-9.893h4.512V21H17.925V17.68l.332-6.8L14.819,21H12.554L9.106,10.873l.332,6.807V21H6.011V6.781Zm19.17,13.076A3.393,3.393,0,0,1,26.86,21.2a3.328,3.328,0,0,1-2.632-1.011,4.251,4.251,0,0,1-.894-2.905V10.434h3.291V17.3a1.183,1.183,0,0,0,1.318,1.357,1.72,1.72,0,0,0,1.611-.811V10.434h3.311V21H29.78ZM39.78,21.2a5.432,5.432,0,0,1-3.936-1.45,5.008,5.008,0,0,1-1.5-3.774V15.7a6.489,6.489,0,0,1,.6-2.861,4.395,4.395,0,0,1,1.753-1.919,5.292,5.292,0,0,1,2.734-.679,4.574,4.574,0,0,1,3.516,1.382,5.43,5.43,0,0,1,1.289,3.853v1.279H37.69a2.372,2.372,0,0,0,.771,1.4A2.3,2.3,0,0,0,40,18.656a2.958,2.958,0,0,0,2.441-1.094l1.5,1.777a4.2,4.2,0,0,1-1.743,1.353A5.891,5.891,0,0,1,39.78,21.2Zm-.371-8.418q-1.445,0-1.719,1.914h3.32v-.254a1.63,1.63,0,0,0-.4-1.226A1.593,1.593,0,0,0,39.409,12.777Zm11.68,5.254a.76.76,0,0,0-.439-.674,6.684,6.684,0,0,0-1.67-.527,7.615,7.615,0,0,1-2.031-.718,3.4,3.4,0,0,1-1.221-1.079,2.577,2.577,0,0,1-.42-1.455,2.92,2.92,0,0,1,1.2-2.4,4.948,4.948,0,0,1,3.145-.942,5.482,5.482,0,0,1,3.359.947,2.962,2.962,0,0,1,1.27,2.49h-3.3q0-1.27-1.338-1.27a1.326,1.326,0,0,0-.869.288.892.892,0,0,0-.352.718.819.819,0,0,0,.43.713,4.06,4.06,0,0,0,1.372.449,11.857,11.857,0,0,1,1.655.42,3.007,3.007,0,0,1,2.383,2.939,2.767,2.767,0,0,1-1.284,2.354,5.632,5.632,0,0,1-3.325.908,5.747,5.747,0,0,1-2.422-.488,4.05,4.05,0,0,1-1.66-1.328,3.007,3.007,0,0,1-.6-1.768h3.076a1.272,1.272,0,0,0,.488,1.069,2.009,2.009,0,0,0,1.2.337,1.58,1.58,0,0,0,1.011-.273A.875.875,0,0,0,51.089,18.031ZM59.634,7.807v2.627h1.738v2.285H59.634v4.834a1.234,1.234,0,0,0,.215.83,1.152,1.152,0,0,0,.85.234,4.828,4.828,0,0,0,.82-.059v2.354a6.074,6.074,0,0,1-1.855.283,3.448,3.448,0,0,1-2.51-.8,3.282,3.282,0,0,1-.811-2.432V12.719H55V10.434h1.348V7.807Zm9.424,5.605-1.084-.078a1.947,1.947,0,0,0-1.992.977V21H62.69V10.434h3.086l.107,1.357A2.548,2.548,0,0,1,68.2,10.238a3.209,3.209,0,0,1,.918.117ZM75.9,21a3.716,3.716,0,0,1-.312-.947A3.06,3.06,0,0,1,73.052,21.2a3.749,3.749,0,0,1-2.539-.9,2.875,2.875,0,0,1-1.045-2.271,2.955,2.955,0,0,1,1.27-2.6,6.468,6.468,0,0,1,3.691-.879h1.016v-.559q0-1.462-1.26-1.462a1.03,1.03,0,0,0-1.172,1.158H69.722a2.95,2.95,0,0,1,1.3-2.487,5.479,5.479,0,0,1,3.325-.956,4.8,4.8,0,0,1,3.193.986,3.429,3.429,0,0,1,1.2,2.705v4.678a4.79,4.79,0,0,0,.449,2.227V21Zm-2.061-2.148a1.836,1.836,0,0,0,1.021-.264,1.653,1.653,0,0,0,.581-.6V16.3h-.957q-1.719,0-1.719,1.543a.942.942,0,0,0,.3.728A1.1,1.1,0,0,0,73.843,18.852Zm16.172-.2a1.464,1.464,0,0,0,1.074-.376,1.379,1.379,0,0,0,.371-1.05h3.086A3.653,3.653,0,0,1,93.3,20.082,4.631,4.631,0,0,1,90.093,21.2,4.689,4.689,0,0,1,86.46,19.75a5.7,5.7,0,0,1-1.328-4v-.137a6.436,6.436,0,0,1,.591-2.827,4.3,4.3,0,0,1,1.7-1.885,5.081,5.081,0,0,1,2.637-.659,4.573,4.573,0,0,1,3.271,1.143,4.053,4.053,0,0,1,1.211,3.1H91.46a1.806,1.806,0,0,0-.4-1.26,1.382,1.382,0,0,0-1.074-.439q-1.279,0-1.494,1.631a11.508,11.508,0,0,0-.068,1.426,4.52,4.52,0,0,0,.381,2.207A1.319,1.319,0,0,0,90.015,18.656Zm5.508-3.037a6.236,6.236,0,0,1,.615-2.817,4.4,4.4,0,0,1,1.768-1.9,5.323,5.323,0,0,1,2.705-.664,4.858,4.858,0,0,1,3.74,1.47,5.64,5.64,0,0,1,1.367,4v.117a5.472,5.472,0,0,1-1.372,3.921,4.871,4.871,0,0,1-3.716,1.45,4.927,4.927,0,0,1-3.623-1.353,5.29,5.29,0,0,1-1.475-3.667Zm3.291.205a3.932,3.932,0,0,0,.459,2.148,1.529,1.529,0,0,0,1.357.684q1.758,0,1.8-2.705v-.332q0-2.842-1.816-2.842-1.65,0-1.787,2.451Zm11.377-5.391.107,1.24a3.583,3.583,0,0,1,3.018-1.436,3.015,3.015,0,0,1,2.466.986,4.7,4.7,0,0,1,.845,2.969V21h-3.3V14.33A1.783,1.783,0,0,0,113,13.153a1.491,1.491,0,0,0-1.172-.376,1.569,1.569,0,0,0-1.436.762V21H107.1V10.434Zm12.09-2.627v2.627h1.738v2.285H122.28v4.834a1.234,1.234,0,0,0,.215.83,1.152,1.152,0,0,0,.85.234,4.828,4.828,0,0,0,.82-.059v2.354a6.074,6.074,0,0,1-1.855.283,3.448,3.448,0,0,1-2.51-.8,3.282,3.282,0,0,1-.811-2.432V12.719h-1.348V10.434h1.348V7.807Zm9.424,5.605-1.084-.078a1.947,1.947,0,0,0-1.992.977V21h-3.291V10.434h3.086l.107,1.357a2.548,2.548,0,0,1,2.314-1.553,3.209,3.209,0,0,1,.918.117Zm.42,2.207a6.236,6.236,0,0,1,.615-2.817,4.4,4.4,0,0,1,1.768-1.9,5.323,5.323,0,0,1,2.705-.664,4.858,4.858,0,0,1,3.74,1.47,5.64,5.64,0,0,1,1.367,4v.117a5.472,5.472,0,0,1-1.372,3.921,4.871,4.871,0,0,1-3.716,1.45,4.927,4.927,0,0,1-3.623-1.353,5.29,5.29,0,0,1-1.475-3.667Zm3.291.205a3.932,3.932,0,0,0,.459,2.148,1.529,1.529,0,0,0,1.357.684q1.758,0,1.8-2.705v-.332q0-2.842-1.816-2.842-1.65,0-1.787,2.451ZM147.241,21h-3.3V6h3.3Zm6.592-5.361a6.455,6.455,0,0,1,1.084-3.955,3.568,3.568,0,0,1,3.027-1.445,3.035,3.035,0,0,1,2.383,1.113V6h3.3V21h-2.959l-.166-1.133a3.116,3.116,0,0,1-2.578,1.328,3.562,3.562,0,0,1-2.988-1.445A6.659,6.659,0,0,1,153.833,15.639Zm3.291.205q0,2.813,1.641,2.813a1.62,1.62,0,0,0,1.563-.918V13.715a1.576,1.576,0,0,0-1.543-.937q-1.523,0-1.65,2.461ZM170.61,21.2a5.432,5.432,0,0,1-3.936-1.45,5.008,5.008,0,0,1-1.5-3.774V15.7a6.489,6.489,0,0,1,.6-2.861,4.395,4.395,0,0,1,1.753-1.919,5.292,5.292,0,0,1,2.734-.679,4.574,4.574,0,0,1,3.516,1.382,5.43,5.43,0,0,1,1.289,3.853v1.279h-6.543a2.372,2.372,0,0,0,.771,1.4,2.3,2.3,0,0,0,1.543.508,2.958,2.958,0,0,0,2.441-1.094l1.5,1.777a4.2,4.2,0,0,1-1.743,1.353A5.891,5.891,0,0,1,170.61,21.2Zm-.371-8.418q-1.445,0-1.719,1.914h3.32v-.254a1.63,1.63,0,0,0-.4-1.226A1.593,1.593,0,0,0,170.239,12.777Zm16.66,5.254a.76.76,0,0,0-.439-.674,6.684,6.684,0,0,0-1.67-.527,7.615,7.615,0,0,1-2.031-.718,3.4,3.4,0,0,1-1.221-1.079,2.577,2.577,0,0,1-.42-1.455,2.92,2.92,0,0,1,1.2-2.4,4.948,4.948,0,0,1,3.145-.942,5.482,5.482,0,0,1,3.359.947,2.962,2.962,0,0,1,1.27,2.49h-3.3q0-1.27-1.338-1.27a1.326,1.326,0,0,0-.869.288.892.892,0,0,0-.352.718.819.819,0,0,0,.43.713,4.06,4.06,0,0,0,1.372.449,11.857,11.857,0,0,1,1.655.42,3.007,3.007,0,0,1,2.383,2.939,2.767,2.767,0,0,1-1.284,2.354,5.632,5.632,0,0,1-3.325.908,5.747,5.747,0,0,1-2.422-.488,4.05,4.05,0,0,1-1.66-1.328,3.007,3.007,0,0,1-.6-1.768h3.076a1.272,1.272,0,0,0,.488,1.069,2.009,2.009,0,0,0,1.2.337,1.58,1.58,0,0,0,1.011-.273A.875.875,0,0,0,186.9,18.031Zm9.824,3.164a5.432,5.432,0,0,1-3.936-1.45,5.008,5.008,0,0,1-1.5-3.774V15.7a6.489,6.489,0,0,1,.6-2.861,4.395,4.395,0,0,1,1.753-1.919,5.292,5.292,0,0,1,2.734-.679,4.574,4.574,0,0,1,3.516,1.382,5.43,5.43,0,0,1,1.289,3.853v1.279h-6.543a2.372,2.372,0,0,0,.771,1.4,2.3,2.3,0,0,0,1.543.508,2.958,2.958,0,0,0,2.441-1.094l1.5,1.777a4.2,4.2,0,0,1-1.743,1.353A5.891,5.891,0,0,1,196.724,21.2Zm-.371-8.418q-1.445,0-1.719,1.914h3.32v-.254a1.63,1.63,0,0,0-.4-1.226A1.593,1.593,0,0,0,196.353,12.777Zm10.615,5.879a1.464,1.464,0,0,0,1.074-.376,1.379,1.379,0,0,0,.371-1.05H211.5a3.653,3.653,0,0,1-1.245,2.852,4.631,4.631,0,0,1-3.208,1.113,4.689,4.689,0,0,1-3.633-1.445,5.7,5.7,0,0,1-1.328-4v-.137a6.436,6.436,0,0,1,.591-2.827,4.3,4.3,0,0,1,1.7-1.885,5.081,5.081,0,0,1,2.637-.659,4.573,4.573,0,0,1,3.271,1.143,4.053,4.053,0,0,1,1.211,3.1h-3.086a1.807,1.807,0,0,0-.4-1.26,1.382,1.382,0,0,0-1.074-.439q-1.279,0-1.494,1.631a11.507,11.507,0,0,0-.068,1.426,4.52,4.52,0,0,0,.381,2.207A1.319,1.319,0,0,0,206.968,18.656ZM218.843,21a3.716,3.716,0,0,1-.312-.947,3.06,3.06,0,0,1-2.539,1.143,3.749,3.749,0,0,1-2.539-.9,2.875,2.875,0,0,1-1.045-2.271,2.955,2.955,0,0,1,1.27-2.6,6.468,6.468,0,0,1,3.691-.879h1.016v-.559q0-1.462-1.26-1.462a1.03,1.03,0,0,0-1.172,1.158h-3.291a2.95,2.95,0,0,1,1.3-2.487,5.479,5.479,0,0,1,3.325-.956,4.8,4.8,0,0,1,3.193.986,3.429,3.429,0,0,1,1.2,2.705v4.678a4.79,4.79,0,0,0,.449,2.227V21Zm-2.061-2.148a1.836,1.836,0,0,0,1.021-.264,1.653,1.653,0,0,0,.581-.6V16.3h-.957q-1.719,0-1.719,1.543a.942.942,0,0,0,.3.728A1.1,1.1,0,0,0,216.782,18.852Zm6.309-3.213a6.455,6.455,0,0,1,1.084-3.955,3.568,3.568,0,0,1,3.027-1.445,3.035,3.035,0,0,1,2.383,1.113V6h3.3V21h-2.959l-.166-1.133a3.116,3.116,0,0,1-2.578,1.328,3.562,3.562,0,0,1-2.988-1.445A6.659,6.659,0,0,1,223.091,15.639Zm3.291.205q0,2.813,1.641,2.813a1.62,1.62,0,0,0,1.563-.918V13.715a1.576,1.576,0,0,0-1.543-.937q-1.523,0-1.65,2.461Zm7.959-.225a6.236,6.236,0,0,1,.615-2.817,4.4,4.4,0,0,1,1.768-1.9,5.323,5.323,0,0,1,2.705-.664,4.858,4.858,0,0,1,3.74,1.47,5.64,5.64,0,0,1,1.367,4v.117a5.472,5.472,0,0,1-1.372,3.921,4.871,4.871,0,0,1-3.716,1.45,4.927,4.927,0,0,1-3.623-1.353,5.29,5.29,0,0,1-1.475-3.667Zm3.291.205a3.932,3.932,0,0,0,.459,2.148,1.529,1.529,0,0,0,1.357.684q1.758,0,1.8-2.705v-.332q0-2.842-1.816-2.842-1.65,0-1.787,2.451ZM39.58,47.857A3.393,3.393,0,0,1,36.758,49.2a3.328,3.328,0,0,1-2.632-1.011,4.251,4.251,0,0,1-.894-2.905V38.434h3.291V45.3a1.183,1.183,0,0,0,1.318,1.357,1.72,1.72,0,0,0,1.611-.811V38.434h3.311V49H39.678ZM54.375,43.8A6.44,6.44,0,0,1,53.3,47.8a3.6,3.6,0,0,1-3.027,1.4,3.122,3.122,0,0,1-2.6-1.279L47.539,49H44.59V34h3.291v5.283a3.013,3.013,0,0,1,2.373-1.045A3.6,3.6,0,0,1,53.3,39.654a6.473,6.473,0,0,1,1.074,3.984Zm-3.3-.21a4.3,4.3,0,0,0-.405-2.169,1.366,1.366,0,0,0-1.245-.648,1.576,1.576,0,0,0-1.543.848v4.192a1.585,1.585,0,0,0,1.563.838,1.4,1.4,0,0,0,1.475-1.131A8.121,8.121,0,0,0,51.074,43.595ZM59.3,49H56V38.434h3.3ZM55.8,35.709a1.469,1.469,0,0,1,.508-1.152,2.159,2.159,0,0,1,2.637,0,1.561,1.561,0,0,1,0,2.3,2.159,2.159,0,0,1-2.637,0A1.469,1.469,0,0,1,55.8,35.709Zm9.99,10.947a1.464,1.464,0,0,0,1.074-.376,1.379,1.379,0,0,0,.371-1.05h3.086a3.653,3.653,0,0,1-1.245,2.852A4.631,4.631,0,0,1,65.869,49.2a4.689,4.689,0,0,1-3.633-1.445,5.7,5.7,0,0,1-1.328-4v-.137a6.436,6.436,0,0,1,.591-2.827A4.3,4.3,0,0,1,63.2,38.9a5.081,5.081,0,0,1,2.637-.659,4.573,4.573,0,0,1,3.271,1.143,4.053,4.053,0,0,1,1.211,3.1H67.236a1.806,1.806,0,0,0-.4-1.26,1.382,1.382,0,0,0-1.074-.439q-1.279,0-1.494,1.631a11.508,11.508,0,0,0-.068,1.426,4.52,4.52,0,0,0,.381,2.207A1.319,1.319,0,0,0,65.791,46.656ZM77.666,49a3.716,3.716,0,0,1-.312-.947A3.06,3.06,0,0,1,74.814,49.2a3.749,3.749,0,0,1-2.539-.9,2.875,2.875,0,0,1-1.045-2.271,2.955,2.955,0,0,1,1.27-2.6,6.468,6.468,0,0,1,3.691-.879h1.016v-.559q0-1.462-1.26-1.462a1.03,1.03,0,0,0-1.172,1.158H71.484a2.95,2.95,0,0,1,1.3-2.487,5.479,5.479,0,0,1,3.325-.956,4.8,4.8,0,0,1,3.193.986,3.429,3.429,0,0,1,1.2,2.705v4.678a4.79,4.79,0,0,0,.449,2.227V49Zm-2.061-2.148a1.836,1.836,0,0,0,1.021-.264,1.653,1.653,0,0,0,.581-.6V44.3H76.25q-1.719,0-1.719,1.543a.942.942,0,0,0,.3.728A1.1,1.1,0,0,0,75.605,46.852Zm6.309-3.213A6.455,6.455,0,0,1,83,39.684a3.568,3.568,0,0,1,3.027-1.445,3.035,3.035,0,0,1,2.383,1.113V34h3.3V49H88.75l-.166-1.133A3.116,3.116,0,0,1,86.006,49.2a3.562,3.562,0,0,1-2.988-1.445A6.659,6.659,0,0,1,81.914,43.639Zm3.291.205q0,2.813,1.641,2.813a1.62,1.62,0,0,0,1.563-.918V41.715a1.576,1.576,0,0,0-1.543-.937q-1.523,0-1.65,2.461ZM99.531,49a3.716,3.716,0,0,1-.312-.947A3.06,3.06,0,0,1,96.68,49.2a3.749,3.749,0,0,1-2.539-.9A2.875,2.875,0,0,1,93.1,46.021a2.955,2.955,0,0,1,1.27-2.6,6.468,6.468,0,0,1,3.691-.879h1.016v-.559q0-1.462-1.26-1.462a1.03,1.03,0,0,0-1.172,1.158H93.35a2.95,2.95,0,0,1,1.3-2.487,5.479,5.479,0,0,1,3.325-.956,4.8,4.8,0,0,1,3.193.986,3.429,3.429,0,0,1,1.2,2.705v4.678a4.79,4.79,0,0,0,.449,2.227V49Zm-2.061-2.148a1.836,1.836,0,0,0,1.021-.264,1.653,1.653,0,0,0,.581-.6V44.3h-.957q-1.719,0-1.719,1.543a.942.942,0,0,0,.3.728A1.1,1.1,0,0,0,97.471,46.852ZM114.287,49.2a5.432,5.432,0,0,1-3.936-1.45,5.008,5.008,0,0,1-1.5-3.774V43.7a6.489,6.489,0,0,1,.6-2.861,4.395,4.395,0,0,1,1.753-1.919,5.292,5.292,0,0,1,2.734-.679,4.574,4.574,0,0,1,3.516,1.382,5.43,5.43,0,0,1,1.289,3.853v1.279H112.2a2.372,2.372,0,0,0,.771,1.4,2.3,2.3,0,0,0,1.543.508,2.958,2.958,0,0,0,2.441-1.094l1.5,1.777a4.2,4.2,0,0,1-1.743,1.353A5.891,5.891,0,0,1,114.287,49.2Zm-.371-8.418q-1.445,0-1.719,1.914h3.32v-.254a1.63,1.63,0,0,0-.4-1.226A1.593,1.593,0,0,0,113.916,40.777Zm9.17-2.344.107,1.24a3.583,3.583,0,0,1,3.018-1.436,3.015,3.015,0,0,1,2.466.986,4.7,4.7,0,0,1,.845,2.969V49h-3.3V42.33a1.783,1.783,0,0,0-.322-1.177,1.491,1.491,0,0,0-1.172-.376,1.569,1.569,0,0,0-1.436.762V49H120V38.434Zm18.77,7.6a.76.76,0,0,0-.439-.674,6.685,6.685,0,0,0-1.67-.527,7.615,7.615,0,0,1-2.031-.718,3.4,3.4,0,0,1-1.221-1.079,2.577,2.577,0,0,1-.42-1.455,2.92,2.92,0,0,1,1.2-2.4,4.948,4.948,0,0,1,3.145-.942,5.482,5.482,0,0,1,3.359.947,2.962,2.962,0,0,1,1.27,2.49h-3.3q0-1.27-1.338-1.27a1.326,1.326,0,0,0-.869.288.892.892,0,0,0-.352.718.819.819,0,0,0,.43.713,4.06,4.06,0,0,0,1.372.449,11.857,11.857,0,0,1,1.655.42,3.007,3.007,0,0,1,2.383,2.939,2.767,2.767,0,0,1-1.284,2.354,5.632,5.632,0,0,1-3.325.908A5.747,5.747,0,0,1,138,48.707a4.05,4.05,0,0,1-1.66-1.328,3.007,3.007,0,0,1-.6-1.768h3.076a1.272,1.272,0,0,0,.488,1.069,2.009,2.009,0,0,0,1.2.337,1.58,1.58,0,0,0,1.011-.273A.875.875,0,0,0,141.855,46.031Zm11.006,1.826a3.393,3.393,0,0,1-2.822,1.338,3.328,3.328,0,0,1-2.632-1.011,4.251,4.251,0,0,1-.894-2.905V38.434H149.8V45.3a1.183,1.183,0,0,0,1.318,1.357,1.72,1.72,0,0,0,1.611-.811V38.434h3.311V49h-3.086Zm12.988-9.424.107,1.24a3.583,3.583,0,0,1,3.018-1.436,3.015,3.015,0,0,1,2.466.986,4.7,4.7,0,0,1,.845,2.969V49h-3.3V42.33a1.783,1.783,0,0,0-.322-1.177,1.491,1.491,0,0,0-1.172-.376,1.569,1.569,0,0,0-1.436.762V49h-3.291V38.434ZM177.578,49h-3.3V38.434h3.3Zm-3.5-13.291a1.469,1.469,0,0,1,.508-1.152,2.159,2.159,0,0,1,2.637,0,1.561,1.561,0,0,1,0,2.3,2.159,2.159,0,0,1-2.637,0A1.469,1.469,0,0,1,174.082,35.709Zm9.99,10.947a1.464,1.464,0,0,0,1.074-.376,1.379,1.379,0,0,0,.371-1.05H188.6a3.653,3.653,0,0,1-1.245,2.852A4.631,4.631,0,0,1,184.15,49.2a4.689,4.689,0,0,1-3.633-1.445,5.7,5.7,0,0,1-1.328-4v-.137a6.436,6.436,0,0,1,.591-2.827,4.3,4.3,0,0,1,1.7-1.885,5.081,5.081,0,0,1,2.637-.659,4.573,4.573,0,0,1,3.271,1.143,4.053,4.053,0,0,1,1.211,3.1h-3.086a1.807,1.807,0,0,0-.4-1.26,1.382,1.382,0,0,0-1.074-.439q-1.279,0-1.494,1.631a11.507,11.507,0,0,0-.068,1.426,4.52,4.52,0,0,0,.381,2.207A1.319,1.319,0,0,0,184.072,46.656Zm9.141-7.09a3.612,3.612,0,0,1,5.332-.293,4.651,4.651,0,0,1,.908,3.057V49h-3.3V42.408a1.86,1.86,0,0,0-.342-1.235,1.469,1.469,0,0,0-1.162-.4,1.582,1.582,0,0,0-1.436.645V49h-3.291V34h3.291Zm7.656,4.053a6.236,6.236,0,0,1,.615-2.817,4.4,4.4,0,0,1,1.768-1.9,5.323,5.323,0,0,1,2.705-.664,4.858,4.858,0,0,1,3.74,1.47,5.64,5.64,0,0,1,1.367,4v.117a5.472,5.472,0,0,1-1.372,3.921,4.871,4.871,0,0,1-3.716,1.45,4.927,4.927,0,0,1-3.623-1.353,5.29,5.29,0,0,1-1.475-3.667Zm3.291.205a3.932,3.932,0,0,0,.459,2.148,1.529,1.529,0,0,0,1.357.684q1.758,0,1.8-2.705v-.332q0-2.842-1.816-2.842-1.65,0-1.787,2.451Zm10.391,1.982a1.874,1.874,0,0,1,1.3.464,1.619,1.619,0,0,1,0,2.373,2.049,2.049,0,0,1-2.6,0,1.618,1.618,0,0,1,0-2.363A1.858,1.858,0,0,1,214.551,45.807Z" transform="translate(1105 9307)" fill="#12263f"/>
    <path id="Path_209405" data-name="Path 209405" d="M5094.128,1218.954l-26.37,2.246-231.782-131.724,164.457-94.326,235.542,141.909Z" transform="translate(-4130.977 8176.3)" fill="#1a1818" opacity="0.2"/>
    <g id="Group_151427" data-name="Group 151427" transform="translate(745.051 9068)">
      <g id="Group_151375" data-name="Group 151375" transform="translate(0 90.15)">
        <g id="Group_151362" data-name="Group 151362" transform="translate(116.611 87.615)">
          <g id="Group_151361" data-name="Group 151361">
            <g id="Group_151359" data-name="Group 151359" transform="translate(123.171 71.113)">
              <path id="Path_209406" data-name="Path 209406" d="M5184.871,1587.082l-37.481-21.639v-22.58l37.481,21.64Z" transform="translate(-5147.39 -1542.863)" fill="#7b461b"/>
            </g>
            <g id="Group_151360" data-name="Group 151360" transform="translate(0)">
              <path id="Path_209407" data-name="Path 209407" d="M5648.763,1319.254l-37.48-21.64v-22.58l37.48,21.64Z" transform="translate(-5611.282 -1275.034)" fill="#cc985d"/>
            </g>
          </g>
        </g>
        <g id="Group_151366" data-name="Group 151366" transform="translate(175.773 53.458)">
          <g id="Group_151365" data-name="Group 151365">
            <g id="Group_151363" data-name="Group 151363" transform="translate(123.172 71.113)">
              <path id="Path_209408" data-name="Path 209408" d="M4962.052,1458.438l-37.48-21.64v-22.58l37.48,21.64Z" transform="translate(-4924.572 -1414.218)" fill="#7b461b"/>
            </g>
            <g id="Group_151364" data-name="Group 151364">
              <path id="Path_209409" data-name="Path 209409" d="M5425.943,1190.61l-37.481-21.64v-22.58l37.481,21.64Z" transform="translate(-5388.462 -1146.39)" fill="#cc985d"/>
            </g>
          </g>
        </g>
        <g id="Group_151367" data-name="Group 151367" transform="translate(218.1 132.629)">
          <path id="Path_209410" data-name="Path 209410" d="M4835.973,1458.151l0,22.58,23.524-13.581v-22.58Z" transform="translate(-4717.647 -1444.569)" fill="#e3ac6a"/>
          <path id="Path_209411" data-name="Path 209411" d="M5058.792,1586.8v22.58l23.523-13.581v-22.58Z" transform="translate(-4999.628 -1539.057)" fill="#e3ac6a"/>
          <path id="Path_209412" data-name="Path 209412" d="M5281.611,1715.439v22.58l23.524-13.581v-22.58Z" transform="translate(-5281.61 -1633.543)" fill="#e3ac6a"/>
        </g>
        <g id="Group_151368" data-name="Group 151368" transform="translate(110.247 70.398)">
          <path id="Path_209413" data-name="Path 209413" d="M5242.172,1223.771v22.58l23.523-13.581v-22.58Z" transform="translate(-5123.847 -1210.19)" fill="#e3ac6a"/>
          <path id="Path_209414" data-name="Path 209414" d="M5464.991,1352.416V1375l23.523-13.582v-22.58Z" transform="translate(-5405.828 -1304.677)" fill="#e3ac6a"/>
          <path id="Path_209415" data-name="Path 209415" d="M5687.81,1481.06v22.58l23.523-13.581v-22.58Z" transform="translate(-5687.809 -1399.164)" fill="#6f4017"/>
        </g>
        <g id="Group_151369" data-name="Group 151369" transform="translate(23.525 20.344)">
          <path id="Path_209416" data-name="Path 209416" d="M5568.792,1035.257v22.58l23.523-13.581v-22.58Z" transform="translate(-5450.467 -1021.675)" fill="#e3ac6a"/>
          <path id="Path_209417" data-name="Path 209417" d="M5791.612,1163.9v22.58l23.523-13.581v-22.58Z" transform="translate(-5732.45 -1116.163)" fill="#e3ac6a"/>
          <path id="Path_209418" data-name="Path 209418" d="M6014.432,1292.546v22.58l23.523-13.581v-22.58Z" transform="translate(-6014.431 -1210.65)" fill="#6f4017"/>
        </g>
        <path id="Path_209419" data-name="Path 209419" d="M5370.206,1260.287l218.1,125.838v-6.791l-218.1-125.838Z" transform="translate(-5370.206 -1171.6)" fill="#bf8c58"/>
        <path id="Path_209420" data-name="Path 209420" d="M5266.4,1200.35l218.1,125.838V1319.4L5266.4,1193.56Z" transform="translate(-5238.838 -1127.578)" fill="#b7833a"/>
        <path id="Path_209421" data-name="Path 209421" d="M5206.894,1165.394,5425,1291.232v-6.791l-218.1-125.838Z" transform="translate(-5163.532 -1101.903)" fill="#b7833a"/>
        <path id="Path_209422" data-name="Path 209422" d="M5147.389,1131.648l218.1,125.838V1250.7l-218.1-125.838Z" transform="translate(-5088.228 -1077.117)" fill="#b7833a"/>
        <path id="Path_209423" data-name="Path 209423" d="M5043.584,1071.712l218.1,125.838v-6.791l-218.1-125.838Z" transform="translate(-4956.86 -1033.095)" fill="#b7833a"/>
        <path id="Path_209424" data-name="Path 209424" d="M4984.077,1036.756l218.1,125.838V1155.8l-218.1-125.838Z" transform="translate(-4881.554 -1007.42)" fill="#b7833a"/>
        <path id="Path_209425" data-name="Path 209425" d="M4924.567,1003.078l218.1,125.838v-6.791l-218.1-125.838Z" transform="translate(-4806.243 -982.685)" fill="#b7833a"/>
        <path id="Path_209426" data-name="Path 209426" d="M5054.072,1084.475l-218.1-125.838,23.523-13.581,218.1,125.838Z" transform="translate(-4717.647 -945.056)" fill="#8c561b"/>
        <path id="Path_209427" data-name="Path 209427" d="M5276.894,1213.12l-218.1-125.838,23.524-13.581,218.1,125.838Z" transform="translate(-4999.63 -1039.543)" fill="#8c561b"/>
        <path id="Path_209428" data-name="Path 209428" d="M5157.879,1137.616l-218.1-125.838,11.762-6.791,218.1,125.838Z" transform="translate(-4837.253 -989.075)" fill="#8c561b"/>
        <path id="Path_209429" data-name="Path 209429" d="M5217.385,1171.973l-218.1-125.838,11.761-6.791,218.1,125.838Z" transform="translate(-4912.56 -1014.309)" fill="#8c561b"/>
        <path id="Path_209430" data-name="Path 209430" d="M5499.71,1341.764l-218.1-125.838,23.523-13.582,218.1,125.838Z" transform="translate(-5281.609 -1134.03)" fill="#8c561b"/>
        <path id="Path_209431" data-name="Path 209431" d="M5380.7,1266.261l-218.1-125.838,11.763-6.791,218.1,125.838Z" transform="translate(-5119.234 -1083.562)" fill="#8c561b"/>
        <path id="Path_209432" data-name="Path 209432" d="M5440.2,1300.617l-218.1-125.838,11.762-6.791,218.1,125.838Z" transform="translate(-5194.541 -1108.796)" fill="#8c561b"/>
        <path id="Path_209433" data-name="Path 209433" d="M4835.971,1432.575v6.791l23.523-13.581v-6.791Z" transform="translate(-4499.545 -1293.155)" fill="#e3ac6a"/>
        <path id="Path_209434" data-name="Path 209434" d="M5058.791,1561.219v6.791l23.523-13.581v-6.791Z" transform="translate(-4781.527 -1387.642)" fill="#e3ac6a"/>
        <path id="Path_209435" data-name="Path 209435" d="M4939.776,1485.716v6.791l11.761-6.791v-6.791Z" transform="translate(-4619.15 -1337.174)" fill="#e3ac6a"/>
        <path id="Path_209436" data-name="Path 209436" d="M4999.284,1520.072v6.791l11.762-6.791v-6.791Z" transform="translate(-4694.458 -1362.408)" fill="#e3ac6a"/>
        <path id="Path_209437" data-name="Path 209437" d="M5281.609,1689.864v6.791l23.524-13.582v-6.791Z" transform="translate(-5063.508 -1482.129)" fill="#e3ac6a"/>
        <path id="Path_209438" data-name="Path 209438" d="M5162.594,1614.36v6.791l11.762-6.791v-6.791Z" transform="translate(-4901.131 -1431.661)" fill="#e3ac6a"/>
        <path id="Path_209439" data-name="Path 209439" d="M5222.1,1648.717v6.791l11.762-6.791v-6.791Z" transform="translate(-4976.439 -1456.895)" fill="#e3ac6a"/>
        <g id="Group_151374" data-name="Group 151374" transform="translate(0 88.658)">
          <g id="Group_151373" data-name="Group 151373">
            <g id="Group_151370" data-name="Group 151370">
              <path id="Path_209440" data-name="Path 209440" d="M6126.551,1292.546v22.58l-23.523-13.581v-22.58Z" transform="translate(-6103.028 -1278.964)" fill="#bf8c58"/>
            </g>
            <g id="Group_151371" data-name="Group 151371" transform="translate(194.576 112.286)">
              <path id="Path_209441" data-name="Path 209441" d="M5393.732,1715.439v22.58l-23.523-13.581v-22.58Z" transform="translate(-5370.208 -1701.858)" fill="#bf8c58"/>
            </g>
            <g id="Group_151372" data-name="Group 151372" transform="translate(86.723 50.054)">
              <path id="Path_209442" data-name="Path 209442" d="M5799.931,1481.06v22.58l-23.523-13.581v-22.58Z" transform="translate(-5776.408 -1467.479)" fill="#bf8c58"/>
            </g>
          </g>
        </g>
      </g>
      <g id="Group_151392" data-name="Group 151392" transform="translate(0 59.952)">
        <g id="Group_151379" data-name="Group 151379" transform="translate(116.611 87.615)">
          <g id="Group_151378" data-name="Group 151378">
            <g id="Group_151376" data-name="Group 151376" transform="translate(123.171 71.113)">
              <path id="Path_209443" data-name="Path 209443" d="M5184.871,1473.349l-37.481-21.639v-22.58l37.481,21.639Z" transform="translate(-5147.39 -1429.129)" fill="#7b461b"/>
            </g>
            <g id="Group_151377" data-name="Group 151377" transform="translate(0)">
              <path id="Path_209444" data-name="Path 209444" d="M5648.763,1205.521l-37.48-21.64V1161.3l37.48,21.639Z" transform="translate(-5611.282 -1161.301)" fill="#cc985d"/>
            </g>
          </g>
        </g>
        <g id="Group_151383" data-name="Group 151383" transform="translate(175.773 53.458)">
          <g id="Group_151382" data-name="Group 151382">
            <g id="Group_151380" data-name="Group 151380" transform="translate(123.172 71.113)">
              <path id="Path_209445" data-name="Path 209445" d="M4962.052,1344.7l-37.48-21.64v-22.58l37.48,21.64Z" transform="translate(-4924.572 -1300.485)" fill="#7b461b"/>
            </g>
            <g id="Group_151381" data-name="Group 151381">
              <path id="Path_209446" data-name="Path 209446" d="M5425.943,1076.876l-37.481-21.64v-22.58l37.481,21.64Z" transform="translate(-5388.462 -1032.656)" fill="#cc985d"/>
            </g>
          </g>
        </g>
        <g id="Group_151384" data-name="Group 151384" transform="translate(218.1 132.629)">
          <path id="Path_209447" data-name="Path 209447" d="M4835.973,1344.417l0,22.58,23.524-13.581v-22.58Z" transform="translate(-4717.647 -1330.836)" fill="#e3ac6a"/>
          <path id="Path_209448" data-name="Path 209448" d="M5058.792,1473.062v22.58l23.523-13.581v-22.58Z" transform="translate(-4999.628 -1425.323)" fill="#e3ac6a"/>
          <path id="Path_209449" data-name="Path 209449" d="M5281.611,1601.706v22.58l23.524-13.581v-22.58Z" transform="translate(-5281.61 -1519.81)" fill="#e3ac6a"/>
        </g>
        <g id="Group_151385" data-name="Group 151385" transform="translate(110.247 70.398)">
          <path id="Path_209450" data-name="Path 209450" d="M5242.172,1110.038v22.58l23.523-13.581v-22.58Z" transform="translate(-5123.847 -1096.456)" fill="#e3ac6a"/>
          <path id="Path_209451" data-name="Path 209451" d="M5464.991,1238.682v22.58l23.523-13.581V1225.1Z" transform="translate(-5405.828 -1190.944)" fill="#e3ac6a"/>
          <path id="Path_209452" data-name="Path 209452" d="M5687.81,1367.327v22.58l23.523-13.581v-22.58Z" transform="translate(-5687.809 -1285.43)" fill="#6f4017"/>
        </g>
        <g id="Group_151386" data-name="Group 151386" transform="translate(23.525 20.344)">
          <path id="Path_209453" data-name="Path 209453" d="M5568.792,921.523V944.1l23.523-13.581v-22.58Z" transform="translate(-5450.467 -907.942)" fill="#e3ac6a"/>
          <path id="Path_209454" data-name="Path 209454" d="M5791.612,1050.167v22.58l23.523-13.581v-22.58Z" transform="translate(-5732.45 -1002.429)" fill="#e3ac6a"/>
          <path id="Path_209455" data-name="Path 209455" d="M6014.432,1178.812v22.58l23.523-13.581v-22.58Z" transform="translate(-6014.431 -1096.916)" fill="#6f4017"/>
        </g>
        <path id="Path_209456" data-name="Path 209456" d="M5370.206,1146.553l218.1,125.838V1265.6l-218.1-125.838Z" transform="translate(-5370.206 -1057.866)" fill="#bf8c58"/>
        <path id="Path_209457" data-name="Path 209457" d="M5266.4,1086.617l218.1,125.838v-6.791l-218.1-125.838Z" transform="translate(-5238.838 -1013.844)" fill="#b7833a"/>
        <path id="Path_209458" data-name="Path 209458" d="M5206.894,1051.66,5425,1177.5v-6.791l-218.1-125.838Z" transform="translate(-5163.532 -988.169)" fill="#b7833a"/>
        <path id="Path_209459" data-name="Path 209459" d="M5147.389,1017.914l218.1,125.838v-6.791l-218.1-125.838Z" transform="translate(-5088.228 -963.383)" fill="#b7833a"/>
        <path id="Path_209460" data-name="Path 209460" d="M5043.584,957.978l218.1,125.838v-6.791l-218.1-125.838Z" transform="translate(-4956.86 -919.361)" fill="#b7833a"/>
        <path id="Path_209461" data-name="Path 209461" d="M4984.077,923.022l218.1,125.839v-6.791l-218.1-125.839Z" transform="translate(-4881.554 -893.686)" fill="#b7833a"/>
        <path id="Path_209462" data-name="Path 209462" d="M4924.567,889.345l218.1,125.838v-6.791l-218.1-125.838Z" transform="translate(-4806.243 -868.951)" fill="#b7833a"/>
        <path id="Path_209463" data-name="Path 209463" d="M5054.072,970.742,4835.971,844.9l23.523-13.581,218.1,125.838Z" transform="translate(-4717.647 -831.322)" fill="#8c561b"/>
        <path id="Path_209464" data-name="Path 209464" d="M5276.894,1099.386l-218.1-125.838,23.524-13.581,218.1,125.838Z" transform="translate(-4999.63 -925.809)" fill="#8c561b"/>
        <path id="Path_209465" data-name="Path 209465" d="M5157.879,1023.883l-218.1-125.838,11.762-6.791,218.1,125.838Z" transform="translate(-4837.253 -875.341)" fill="#8c561b"/>
        <path id="Path_209466" data-name="Path 209466" d="M5217.385,1058.239,4999.284,932.4l11.761-6.791,218.1,125.838Z" transform="translate(-4912.56 -900.575)" fill="#8c561b"/>
        <path id="Path_209467" data-name="Path 209467" d="M5499.71,1228.031l-218.1-125.838,23.523-13.582,218.1,125.838Z" transform="translate(-5281.609 -1020.296)" fill="#8c561b"/>
        <path id="Path_209468" data-name="Path 209468" d="M5380.7,1152.527l-218.1-125.838,11.763-6.791,218.1,125.838Z" transform="translate(-5119.234 -969.828)" fill="#8c561b"/>
        <path id="Path_209469" data-name="Path 209469" d="M5440.2,1186.884l-218.1-125.838,11.762-6.791,218.1,125.838Z" transform="translate(-5194.541 -995.062)" fill="#8c561b"/>
        <path id="Path_209470" data-name="Path 209470" d="M4835.971,1318.841v6.791l23.523-13.581v-6.791Z" transform="translate(-4499.545 -1179.421)" fill="#e3ac6a"/>
        <path id="Path_209471" data-name="Path 209471" d="M5058.791,1447.486v6.791l23.523-13.581V1433.9Z" transform="translate(-4781.527 -1273.909)" fill="#e3ac6a"/>
        <path id="Path_209472" data-name="Path 209472" d="M4939.776,1371.982v6.791l11.761-6.791v-6.791Z" transform="translate(-4619.15 -1223.44)" fill="#e3ac6a"/>
        <path id="Path_209473" data-name="Path 209473" d="M4999.284,1406.339v6.791l11.762-6.791v-6.791Z" transform="translate(-4694.458 -1248.674)" fill="#e3ac6a"/>
        <path id="Path_209474" data-name="Path 209474" d="M5281.609,1576.13v6.791l23.524-13.581v-6.791Z" transform="translate(-5063.508 -1368.396)" fill="#e3ac6a"/>
        <path id="Path_209475" data-name="Path 209475" d="M5162.594,1500.627v6.791l11.762-6.791v-6.791Z" transform="translate(-4901.131 -1317.927)" fill="#e3ac6a"/>
        <path id="Path_209476" data-name="Path 209476" d="M5222.1,1534.983v6.791l11.762-6.791v-6.791Z" transform="translate(-4976.439 -1343.161)" fill="#e3ac6a"/>
        <g id="Group_151391" data-name="Group 151391" transform="translate(0 88.658)">
          <g id="Group_151390" data-name="Group 151390">
            <g id="Group_151387" data-name="Group 151387">
              <path id="Path_209477" data-name="Path 209477" d="M6126.551,1178.812v22.58l-23.523-13.581v-22.58Z" transform="translate(-6103.028 -1165.231)" fill="#bf8c58"/>
            </g>
            <g id="Group_151388" data-name="Group 151388" transform="translate(194.576 112.286)">
              <path id="Path_209478" data-name="Path 209478" d="M5393.732,1601.706v22.58l-23.523-13.581v-22.58Z" transform="translate(-5370.208 -1588.125)" fill="#bf8c58"/>
            </g>
            <g id="Group_151389" data-name="Group 151389" transform="translate(86.723 50.054)">
              <path id="Path_209479" data-name="Path 209479" d="M5799.931,1367.327v22.58l-23.523-13.581v-22.58Z" transform="translate(-5776.408 -1353.745)" fill="#bf8c58"/>
            </g>
          </g>
        </g>
      </g>
      <g id="Group_151409" data-name="Group 151409" transform="translate(0 29.898)">
        <g id="Group_151396" data-name="Group 151396" transform="translate(116.611 87.615)">
          <g id="Group_151395" data-name="Group 151395">
            <g id="Group_151393" data-name="Group 151393" transform="translate(123.171 71.113)">
              <path id="Path_209480" data-name="Path 209480" d="M5184.871,1360.158l-37.481-21.639v-22.58l37.481,21.639Z" transform="translate(-5147.39 -1315.938)" fill="#7b461b"/>
            </g>
            <g id="Group_151394" data-name="Group 151394" transform="translate(0)">
              <path id="Path_209481" data-name="Path 209481" d="M5648.763,1092.33l-37.48-21.639v-22.58l37.48,21.639Z" transform="translate(-5611.282 -1048.11)" fill="#cc985d"/>
            </g>
          </g>
        </g>
        <g id="Group_151400" data-name="Group 151400" transform="translate(175.773 53.458)">
          <g id="Group_151399" data-name="Group 151399">
            <g id="Group_151397" data-name="Group 151397" transform="translate(123.172 71.113)">
              <path id="Path_209482" data-name="Path 209482" d="M4962.052,1231.514l-37.48-21.64v-22.58l37.48,21.64Z" transform="translate(-4924.572 -1187.294)" fill="#7b461b"/>
            </g>
            <g id="Group_151398" data-name="Group 151398">
              <path id="Path_209483" data-name="Path 209483" d="M5425.943,963.685l-37.481-21.64v-22.58l37.481,21.639Z" transform="translate(-5388.462 -919.466)" fill="#cc985d"/>
            </g>
          </g>
        </g>
        <g id="Group_151401" data-name="Group 151401" transform="translate(218.1 132.629)">
          <path id="Path_209484" data-name="Path 209484" d="M4835.973,1231.226l0,22.58,23.524-13.581v-22.58Z" transform="translate(-4717.647 -1217.645)" fill="#e3ac6a"/>
          <path id="Path_209485" data-name="Path 209485" d="M5058.792,1359.871v22.58l23.523-13.581v-22.58Z" transform="translate(-4999.628 -1312.132)" fill="#e3ac6a"/>
          <path id="Path_209486" data-name="Path 209486" d="M5281.611,1488.515v22.58l23.524-13.581v-22.58Z" transform="translate(-5281.61 -1406.619)" fill="#e3ac6a"/>
        </g>
        <g id="Group_151402" data-name="Group 151402" transform="translate(110.247 70.398)">
          <path id="Path_209487" data-name="Path 209487" d="M5242.172,996.847v22.58l23.523-13.581v-22.58Z" transform="translate(-5123.847 -983.266)" fill="#e3ac6a"/>
          <path id="Path_209488" data-name="Path 209488" d="M5464.991,1125.491v22.58l23.523-13.582v-22.58Z" transform="translate(-5405.828 -1077.753)" fill="#e3ac6a"/>
          <path id="Path_209489" data-name="Path 209489" d="M5687.81,1254.136v22.58l23.523-13.581v-22.58Z" transform="translate(-5687.809 -1172.24)" fill="#6f4017"/>
        </g>
        <g id="Group_151403" data-name="Group 151403" transform="translate(23.525 20.344)">
          <path id="Path_209490" data-name="Path 209490" d="M5568.792,808.332v22.58l23.523-13.581v-22.58Z" transform="translate(-5450.467 -794.751)" fill="#e3ac6a"/>
          <path id="Path_209491" data-name="Path 209491" d="M5791.612,936.977v22.58l23.523-13.581V923.4Z" transform="translate(-5732.45 -889.238)" fill="#e3ac6a"/>
          <path id="Path_209492" data-name="Path 209492" d="M6014.432,1065.621v22.58l23.523-13.581v-22.58Z" transform="translate(-6014.431 -983.725)" fill="#6f4017"/>
        </g>
        <path id="Path_209493" data-name="Path 209493" d="M5370.206,1033.362l218.1,125.838v-6.791l-218.1-125.838Z" transform="translate(-5370.206 -944.675)" fill="#bf8c58"/>
        <path id="Path_209494" data-name="Path 209494" d="M5266.4,973.426l218.1,125.838v-6.791L5266.4,966.635Z" transform="translate(-5238.838 -900.653)" fill="#b7833a"/>
        <path id="Path_209495" data-name="Path 209495" d="M5206.894,938.47,5425,1064.308v-6.791l-218.1-125.838Z" transform="translate(-5163.532 -874.979)" fill="#b7833a"/>
        <path id="Path_209496" data-name="Path 209496" d="M5147.389,904.724l218.1,125.838v-6.791l-218.1-125.838Z" transform="translate(-5088.228 -850.193)" fill="#b7833a"/>
        <path id="Path_209497" data-name="Path 209497" d="M5043.584,844.787l218.1,125.838v-6.791L5043.584,838Z" transform="translate(-4956.86 -806.17)" fill="#b7833a"/>
        <path id="Path_209498" data-name="Path 209498" d="M4984.077,809.831l218.1,125.838v-6.791l-218.1-125.838Z" transform="translate(-4881.554 -780.496)" fill="#b7833a"/>
        <path id="Path_209499" data-name="Path 209499" d="M4924.567,776.154l218.1,125.838V895.2l-218.1-125.838Z" transform="translate(-4806.243 -755.76)" fill="#b7833a"/>
        <path id="Path_209500" data-name="Path 209500" d="M5054.072,857.551l-218.1-125.838,23.523-13.581L5077.6,843.97Z" transform="translate(-4717.647 -718.131)" fill="#8c561b"/>
        <path id="Path_209501" data-name="Path 209501" d="M5276.894,986.2l-218.1-125.838,23.524-13.581,218.1,125.838Z" transform="translate(-4999.63 -812.619)" fill="#8c561b"/>
        <path id="Path_209502" data-name="Path 209502" d="M5157.879,910.692l-218.1-125.838,11.762-6.791,218.1,125.838Z" transform="translate(-4837.253 -762.15)" fill="#8c561b"/>
        <path id="Path_209503" data-name="Path 209503" d="M5217.385,945.049l-218.1-125.839,11.761-6.791,218.1,125.838Z" transform="translate(-4912.56 -787.384)" fill="#8c561b"/>
        <path id="Path_209504" data-name="Path 209504" d="M5499.71,1114.84,5281.609,989l23.523-13.581,218.1,125.838Z" transform="translate(-5281.609 -907.106)" fill="#8c561b"/>
        <path id="Path_209505" data-name="Path 209505" d="M5380.7,1039.337,5162.6,913.5l11.763-6.791,218.1,125.838Z" transform="translate(-5119.234 -856.637)" fill="#8c561b"/>
        <path id="Path_209506" data-name="Path 209506" d="M5440.2,1073.693,5222.1,947.855l11.762-6.791,218.1,125.838Z" transform="translate(-5194.541 -881.872)" fill="#8c561b"/>
        <path id="Path_209507" data-name="Path 209507" d="M4835.971,1205.65v6.791l23.523-13.581v-6.791Z" transform="translate(-4499.545 -1066.23)" fill="#e3ac6a"/>
        <path id="Path_209508" data-name="Path 209508" d="M5058.791,1334.295v6.791l23.523-13.581v-6.791Z" transform="translate(-4781.527 -1160.718)" fill="#e3ac6a"/>
        <path id="Path_209509" data-name="Path 209509" d="M4939.776,1258.791v6.791l11.761-6.791V1252Z" transform="translate(-4619.15 -1110.249)" fill="#e3ac6a"/>
        <path id="Path_209510" data-name="Path 209510" d="M4999.284,1293.148v6.791l11.762-6.791v-6.791Z" transform="translate(-4694.458 -1135.483)" fill="#e3ac6a"/>
        <path id="Path_209511" data-name="Path 209511" d="M5281.609,1462.939v6.791l23.524-13.581v-6.791Z" transform="translate(-5063.508 -1255.205)" fill="#e3ac6a"/>
        <path id="Path_209512" data-name="Path 209512" d="M5162.594,1387.436v6.791l11.762-6.791v-6.791Z" transform="translate(-4901.131 -1204.736)" fill="#e3ac6a"/>
        <path id="Path_209513" data-name="Path 209513" d="M5222.1,1421.792v6.791l11.762-6.791V1415Z" transform="translate(-4976.439 -1229.971)" fill="#e3ac6a"/>
        <g id="Group_151408" data-name="Group 151408" transform="translate(0 88.658)">
          <g id="Group_151407" data-name="Group 151407">
            <g id="Group_151404" data-name="Group 151404">
              <path id="Path_209514" data-name="Path 209514" d="M6126.551,1065.621v22.58l-23.523-13.581v-22.58Z" transform="translate(-6103.028 -1052.04)" fill="#bf8c58"/>
            </g>
            <g id="Group_151405" data-name="Group 151405" transform="translate(194.576 112.286)">
              <path id="Path_209515" data-name="Path 209515" d="M5393.732,1488.515v22.58l-23.523-13.581v-22.58Z" transform="translate(-5370.208 -1474.934)" fill="#bf8c58"/>
            </g>
            <g id="Group_151406" data-name="Group 151406" transform="translate(86.723 50.054)">
              <path id="Path_209516" data-name="Path 209516" d="M5799.931,1254.136v22.58l-23.523-13.581v-22.58Z" transform="translate(-5776.408 -1240.555)" fill="#bf8c58"/>
            </g>
          </g>
        </g>
      </g>
      <g id="Group_151426" data-name="Group 151426">
        <g id="Group_151413" data-name="Group 151413" transform="translate(116.611 87.615)">
          <g id="Group_151412" data-name="Group 151412">
            <g id="Group_151410" data-name="Group 151410" transform="translate(123.171 71.113)">
              <path id="Path_209517" data-name="Path 209517" d="M5184.871,1247.557l-37.481-21.64v-22.58l37.481,21.64Z" transform="translate(-5147.39 -1203.337)" fill="#7b461b"/>
            </g>
            <g id="Group_151411" data-name="Group 151411" transform="translate(0)">
              <path id="Path_209518" data-name="Path 209518" d="M5648.763,979.729l-37.48-21.64v-22.58l37.48,21.639Z" transform="translate(-5611.282 -935.509)" fill="#cc985d"/>
            </g>
          </g>
        </g>
        <g id="Group_151417" data-name="Group 151417" transform="translate(175.773 53.458)">
          <g id="Group_151416" data-name="Group 151416">
            <g id="Group_151414" data-name="Group 151414" transform="translate(123.172 71.113)">
              <path id="Path_209519" data-name="Path 209519" d="M4962.052,1118.912l-37.48-21.639v-22.58l37.48,21.639Z" transform="translate(-4924.572 -1074.693)" fill="#7b461b"/>
            </g>
            <g id="Group_151415" data-name="Group 151415">
              <path id="Path_209520" data-name="Path 209520" d="M5425.943,851.084l-37.481-21.64v-22.58l37.481,21.64Z" transform="translate(-5388.462 -806.864)" fill="#cc985d"/>
            </g>
          </g>
        </g>
        <g id="Group_151418" data-name="Group 151418" transform="translate(218.1 132.629)">
          <path id="Path_209521" data-name="Path 209521" d="M4835.973,1118.625l0,22.58,23.524-13.581v-22.58Z" transform="translate(-4717.647 -1105.044)" fill="#e3ac6a"/>
          <path id="Path_209522" data-name="Path 209522" d="M5058.792,1247.269v22.58l23.523-13.581v-22.58Z" transform="translate(-4999.628 -1199.531)" fill="#e3ac6a"/>
          <path id="Path_209523" data-name="Path 209523" d="M5281.611,1375.914v22.58l23.524-13.581v-22.58Z" transform="translate(-5281.61 -1294.018)" fill="#e3ac6a"/>
        </g>
        <g id="Group_151419" data-name="Group 151419" transform="translate(110.247 70.398)">
          <path id="Path_209524" data-name="Path 209524" d="M5242.172,884.246v22.58l23.523-13.581v-22.58Z" transform="translate(-5123.847 -870.664)" fill="#e3ac6a"/>
          <path id="Path_209525" data-name="Path 209525" d="M5464.991,1012.89v22.58l23.523-13.581v-22.58Z" transform="translate(-5405.828 -965.151)" fill="#e3ac6a"/>
          <path id="Path_209526" data-name="Path 209526" d="M5687.81,1141.535v22.58l23.523-13.581v-22.58Z" transform="translate(-5687.809 -1059.639)" fill="#6f4017"/>
        </g>
        <g id="Group_151420" data-name="Group 151420" transform="translate(23.525 20.344)">
          <path id="Path_209527" data-name="Path 209527" d="M5568.792,695.731v22.58l23.523-13.581V682.15Z" transform="translate(-5450.467 -682.15)" fill="#e3ac6a"/>
          <path id="Path_209528" data-name="Path 209528" d="M5791.612,824.376v22.58l23.523-13.581v-22.58Z" transform="translate(-5732.45 -776.637)" fill="#e3ac6a"/>
          <path id="Path_209529" data-name="Path 209529" d="M6014.432,953.02V975.6l23.523-13.581v-22.58Z" transform="translate(-6014.431 -871.124)" fill="#6f4017"/>
        </g>
        <path id="Path_209530" data-name="Path 209530" d="M5370.206,920.761l218.1,125.838v-6.791l-218.1-125.838Z" transform="translate(-5370.206 -832.074)" fill="#bf8c58"/>
        <path id="Path_209531" data-name="Path 209531" d="M5266.4,860.825l218.1,125.838v-6.791L5266.4,854.034Z" transform="translate(-5238.838 -788.052)" fill="#b7833a"/>
        <path id="Path_209532" data-name="Path 209532" d="M5206.894,825.869,5425,951.707v-6.791l-218.1-125.838Z" transform="translate(-5163.532 -762.377)" fill="#b7833a"/>
        <path id="Path_209533" data-name="Path 209533" d="M5147.389,792.122l218.1,125.838V911.17l-218.1-125.838Z" transform="translate(-5088.228 -737.591)" fill="#b7833a"/>
        <path id="Path_209534" data-name="Path 209534" d="M5043.584,732.186l218.1,125.838v-6.791L5043.584,725.4Z" transform="translate(-4956.86 -693.569)" fill="#b7833a"/>
        <path id="Path_209535" data-name="Path 209535" d="M4984.077,697.23l218.1,125.838v-6.791l-218.1-125.838Z" transform="translate(-4881.554 -667.894)" fill="#b7833a"/>
        <path id="Path_209536" data-name="Path 209536" d="M4924.567,663.553l218.1,125.838V782.6l-218.1-125.838Z" transform="translate(-4806.243 -643.159)" fill="#b7833a"/>
        <path id="Path_209537" data-name="Path 209537" d="M5054.072,744.95l-218.1-125.838,23.523-13.581,218.1,125.838Z" transform="translate(-4717.647 -605.53)" fill="#f4be72"/>
        <path id="Path_209538" data-name="Path 209538" d="M5276.894,873.594l-218.1-125.838,23.524-13.581,218.1,125.838Z" transform="translate(-4999.63 -700.017)" fill="#f4be72"/>
        <path id="Path_209539" data-name="Path 209539" d="M5157.879,798.091l-218.1-125.838,11.762-6.791,218.1,125.838Z" transform="translate(-4837.253 -649.549)" fill="#f4be72"/>
        <path id="Path_209540" data-name="Path 209540" d="M5217.385,832.447l-218.1-125.838,11.761-6.791,218.1,125.838Z" transform="translate(-4912.56 -674.783)" fill="#f4be72"/>
        <path id="Path_209541" data-name="Path 209541" d="M5499.71,1002.239,5281.609,876.4l23.523-13.581,218.1,125.838Z" transform="translate(-5281.609 -794.504)" fill="#f4be72"/>
        <path id="Path_209542" data-name="Path 209542" d="M5380.7,926.735,5162.6,800.9l11.763-6.791,218.1,125.838Z" transform="translate(-5119.234 -744.036)" fill="#f4be72"/>
        <path id="Path_209543" data-name="Path 209543" d="M5440.2,961.092,5222.1,835.253l11.762-6.791,218.1,125.838Z" transform="translate(-5194.541 -769.27)" fill="#f4be72"/>
        <path id="Path_209544" data-name="Path 209544" d="M4835.971,1093.049v6.791l23.523-13.581v-6.791Z" transform="translate(-4499.545 -953.629)" fill="#e3ac6a"/>
        <path id="Path_209545" data-name="Path 209545" d="M5058.791,1221.694v6.791l23.523-13.581v-6.791Z" transform="translate(-4781.527 -1048.116)" fill="#e3ac6a"/>
        <path id="Path_209546" data-name="Path 209546" d="M4939.776,1146.19v6.791l11.761-6.791V1139.4Z" transform="translate(-4619.15 -997.648)" fill="#e3ac6a"/>
        <path id="Path_209547" data-name="Path 209547" d="M4999.284,1180.547v6.791l11.762-6.791v-6.791Z" transform="translate(-4694.458 -1022.882)" fill="#e3ac6a"/>
        <path id="Path_209548" data-name="Path 209548" d="M5281.609,1350.338v6.791l23.524-13.581v-6.791Z" transform="translate(-5063.508 -1142.604)" fill="#e3ac6a"/>
        <path id="Path_209549" data-name="Path 209549" d="M5162.594,1274.835v6.791l11.762-6.791v-6.791Z" transform="translate(-4901.131 -1092.135)" fill="#e3ac6a"/>
        <path id="Path_209550" data-name="Path 209550" d="M5222.1,1309.191v6.791l11.762-6.791V1302.4Z" transform="translate(-4976.439 -1117.37)" fill="#e3ac6a"/>
        <g id="Group_151425" data-name="Group 151425" transform="translate(0 88.658)">
          <g id="Group_151424" data-name="Group 151424">
            <g id="Group_151421" data-name="Group 151421">
              <path id="Path_209551" data-name="Path 209551" d="M6126.551,953.02V975.6l-23.523-13.581v-22.58Z" transform="translate(-6103.028 -939.439)" fill="#bf8c58"/>
            </g>
            <g id="Group_151422" data-name="Group 151422" transform="translate(194.576 112.286)">
              <path id="Path_209552" data-name="Path 209552" d="M5393.732,1375.914v22.58l-23.523-13.581v-22.58Z" transform="translate(-5370.208 -1362.333)" fill="#bf8c58"/>
            </g>
            <g id="Group_151423" data-name="Group 151423" transform="translate(86.723 50.054)">
              <path id="Path_209553" data-name="Path 209553" d="M5799.931,1141.535v22.58l-23.523-13.581v-22.58Z" transform="translate(-5776.408 -1127.953)" fill="#bf8c58"/>
            </g>
          </g>
        </g>
      </g>
    </g>
    <path id="Path_204460" data-name="Path 204460" d="M32.727,0H0" transform="translate(1062.585 9318.506) rotate(90)" fill="none" stroke="red" stroke-miterlimit="10" stroke-width="2"/>
    <path id="Path_204460-2" data-name="Path 204460" d="M71.115,0H0" transform="translate(1132.701 9350.232) rotate(180)" fill="none" stroke="red" stroke-miterlimit="10" stroke-width="2"/>
  </g>
</svg>
