<svg xmlns="http://www.w3.org/2000/svg" xmlns:xlink="http://www.w3.org/1999/xlink" width="205.184" height="260.293" viewBox="0 0 205.184 260.293">
  <defs>
    <linearGradient id="linear-gradient" y1="0.5" x2="1" y2="0.5" gradientUnits="objectBoundingBox">
      <stop offset="0" stop-color="#fff"/>
      <stop offset="1" stop-color="#d1d3d4"/>
    </linearGradient>
    <linearGradient id="linear-gradient-2" y1="0.5" x2="1" y2="0.5" gradientUnits="objectBoundingBox">
      <stop offset="0" stop-color="#d1d3d4"/>
      <stop offset="1" stop-color="#fff"/>
    </linearGradient>
  </defs>
  <g id="Group_157322" data-name="Group 157322" transform="translate(-269.816 -1486)">
    <g id="Group_151482" data-name="Group 151482" transform="translate(-83.003 1470.491)">
      <g id="Group_151479" data-name="Group 151479" transform="translate(352.819 49.093)">
        <path id="Path_209754" data-name="Path 209754" d="M387.084,88.464l1.677,177.3L434.3,245.382c-.414-.7-.248-1.53,1.019-1.97a11.5,11.5,0,0,1,2.523-.6,3.322,3.322,0,0,1,1.707.222l21.7-9.712,2.173-180.591Z" transform="translate(-258.245 -39.06)" fill="#ffd392"/>
        <path id="Path_209755" data-name="Path 209755" d="M483.086,97.876,558,62.763,443.577,49.093,352.819,76.837Z" transform="translate(-352.819 -49.093)" fill="#fcd381"/>
        <path id="Path_209756" data-name="Path 209756" d="M483.086,77.513,352.82,56.471V232.144l23.55,4.166a3.254,3.254,0,0,1,1.117-.3,8.359,8.359,0,0,1,2.564.113,1.983,1.983,0,0,1,1.594,1.124L479.6,254.58c.955-.312,1.9-.632,2.9-.865a6.251,6.251,0,0,1,1.184-.1c.173-.064.316-.113.414-.143.083-.135.222-.211.32-.331Z" transform="translate(-352.818 -28.729)" fill="#ecaf59"/>
        <g id="Group_151475" data-name="Group 151475" transform="translate(0.002 31.247)" opacity="0.32" style="mix-blend-mode: multiply;isolation: isolate">
          <path id="Path_209757" data-name="Path 209757" d="M408.23,103.465c2.455,2.963,5.674,6.069,7.994,9.3l-.049-6.7c-.707-.673-1.4-1.342-2.027-2.012a86.282,86.282,0,0,1-12.469-16.6C396.69,78.4,391.437,69.545,384.1,61.525L377.171,60.4c4.617,8.814,10.938,17.1,17.8,25.332C399.766,91.493,403.458,97.708,408.23,103.465Z" transform="translate(-285.608 -49.12)" fill="#d69776"/>
          <path id="Path_209758" data-name="Path 209758" d="M388.473,83.142c7.186,11.63,16.082,22.121,24.486,33.285,6.8,9.028,16,16.3,23.7,24.445l-.042-5.321c-1.707-2.1-3.986-4.279-6.734-7.656-6.569-8.065-11.529-16.612-16.718-25.193-5.64-9.329-11.732-18.319-17.936-27.426-3.489-5.118-8.34-9.483-12.649-14L369.838,59.22l.041.06C375.463,67.556,383.28,74.746,388.473,83.142Z" transform="translate(-305.848 -52.388)" fill="#d69776"/>
          <path id="Path_209759" data-name="Path 209759" d="M396.67,110.748C406.9,122.28,419.4,133.2,430.752,144.224c10.788,10.487,25.1,19.237,35.3,29.867a39.721,39.721,0,0,1,1.9,3.948l-.1-13.074c-3.805-2.888-8.776-4.926-12.408-7.588-5.332-3.911-8.942-8.893-12.45-13.728-9.333-12.871-18.631-25.452-28.366-38.064C405.454,93.7,395.2,82.363,386.056,70.443c-2.6-3.392-5.4-6.659-8.186-9.927L358.588,57.4c3.008,6.039,7.7,11.363,11.957,17.041C379.524,86.424,386.593,99.381,396.67,110.748Z" transform="translate(-336.9 -57.403)" fill="#d69776"/>
          <path id="Path_209760" data-name="Path 209760" d="M396.9,123.174c13.679,14.39,26.881,28.991,44.26,41.625,8.472,6.155,16.575,11.589,23.647,18.443a55.851,55.851,0,0,0,18.8,11.423.5.5,0,0,0,.474-.109l-.064-8.566c-1.523-1.906-3.76-2.286-6.979-4.606-10.671-7.689-23.448-15.9-32.837-24.478-10.965-10.025-15.518-23.35-26.08-33.762-11.656-11.491-22.911-23.012-34.736-34.319-6.6-6.313-13.266-11.938-20.406-17.842-2.952-2.44-6.4-6.167-10.156-9.637v18.59c.323.3.666.62.974.914C368.616,94.928,383.021,108.573,396.9,123.174Z" transform="translate(-352.82 -46.52)" fill="#d69776"/>
          <path id="Path_209761" data-name="Path 209761" d="M471.952,174.937c-7.757-5.6-14.86-11.54-23.425-16.285-20.188-11.186-37.447-26.614-51.469-42.2-8.028-8.919-17.767-16.691-25.9-25.753-4.035-4.5-8.434-8.731-12.649-13.142C356.5,75.456,354.8,72.624,352.82,70V82.848c.117.132.214.271.338.406,11.521,12.747,24.96,24.9,37.387,37.346,14.694,14.713,28.686,28.34,46.49,40.914,7.881,5.565,15.462,12.025,25.328,16.172,5.407,2.271,14.164,6.753,21.839,9.37l-.041-5.467C480.134,179.374,475.674,177.626,471.952,174.937Z" transform="translate(-352.82 -22.645)" fill="#d69776"/>
          <path id="Path_209762" data-name="Path 209762" d="M468.139,164.379c-9.987-5.682-16.59-13.048-25.106-19.489-8.8-6.659-19.835-13.484-29.63-19.289-22.294-13.213-40-30.363-60.583-45.449V98.061c5.163,4.358,10.75,8.505,15.687,13.1,6.881,6.4,15.676,9.336,24.283,14.443,8.167,4.843,13.5,10.4,23.065,14.3,10.728,4.377,19.128,9.731,28.344,15.413,13.123,8.092,26.012,17.048,40.162,23.993L484.311,173a8.453,8.453,0,0,0-.891-1.072C479.946,168.511,472.99,167.139,468.139,164.379Z" transform="translate(-352.82 5.387)" fill="#d69776"/>
          <path id="Path_209763" data-name="Path 209763" d="M381.75,107.5c-3.764-2.459-17.5-12.882-28.93-19.541v13.9c5.358,3.847,10.292,7,11.811,7.923,9.532,5.824,19.985,11.066,29.363,17.157,9.671,6.287,21.414,10.032,31.408,16,10.758,6.426,20.955,12.856,29.942,20.448l13.627,2.41c-7.374-7.272-16.3-14.183-24.527-20.557C426.12,131.038,401.758,120.563,381.75,107.5Z" transform="translate(-352.82 26.924)" fill="#d69776"/>
          <path id="Path_209764" data-name="Path 209764" d="M402.792,124.7c-10.6-6.031-18.458-13.322-29.389-18.759-4.166-2.072-12.939-8.111-20.583-11.57v10.78c7.908,6.137,18.552,11.216,26.5,15.947,9.073,5.4,17.906,10.976,27.385,15.969l26.185,4.636C424.405,134.79,412.869,130.439,402.792,124.7Z" transform="translate(-352.82 44.636)" fill="#d69776"/>
          <path id="Path_209765" data-name="Path 209765" d="M377.486,117.429a8.359,8.359,0,0,1,2.564.113,1.983,1.983,0,0,1,1.594,1.124l11.551,2.046a187.238,187.238,0,0,0-22.241-12.3,155.779,155.779,0,0,1-15.51-7.434c-.526-.3-1.482-.887-2.625-1.549v5.524c2.779,1.117,5.381,2.083,6.7,2.764,4.884,2.508,8.66,5.715,13.066,8.716.4.271.835.564,1.248.846l2.534.447A3.254,3.254,0,0,1,377.486,117.429Z" transform="translate(-352.82 58.605)" fill="#d69776"/>
        </g>
        <g id="Group_151477" data-name="Group 151477" transform="translate(128.982 21.459)" opacity="0.32" style="mix-blend-mode: multiply;isolation: isolate">
          <g id="Group_151476" data-name="Group 151476">
            <path id="Path_209766" data-name="Path 209766" d="M407.7,96.056c10.532-6.437,21.361-12.683,31.837-19,7.633-4.606,16.225-8.37,23.58-13.1l.113-9.152c-.854.5-1.677.978-2.41,1.346-8.212,4.147-16.556,8.024-24.587,12.314-10.987,5.87-21.993,11.871-32.612,17.872-5.636,3.185-12,7.088-16.5,11.483l.128,13.457c2.373-1.876,4.238-4.279,6.576-6.065A160.7,160.7,0,0,1,407.7,96.056Z" transform="translate(-387.122 -54.8)" fill="#e4baa4"/>
            <path id="Path_209767" data-name="Path 209767" d="M443.551,84.12c5.016-3.061,12.566-6.885,18.966-11.145l.132-10.9c-8.355,6.05-18.688,11.619-26.486,16.789-10.1,6.693-21.726,12.939-31.115,19.974-5.809,4.354-12.623,9.344-17.187,14.33-.226.248-.44.5-.647.741l.056,5.93a19.094,19.094,0,0,0,3.813-1.4C410.195,109.558,426.194,94.72,443.551,84.12Z" transform="translate(-386.871 -34.731)" fill="#e4baa4"/>
            <path id="Path_209768" data-name="Path 209768" d="M412.141,113.129c10.284-7.276,20.632-14.48,31.833-21.192,5.791-3.471,12.314-6.855,18-10.683l.15-12.322c-5.55,4.369-11.092,9.2-15.905,12.736-11.269,8.287-23.305,15.935-34.089,24.55-6.87,5.49-19.218,11.946-24.843,19.346l.075,7.9C396.423,128.8,404.53,118.506,412.141,113.129Z" transform="translate(-386.658 -15.791)" fill="#e4baa4"/>
            <path id="Path_209769" data-name="Path 209769" d="M413.715,126.74c10.889-7.4,21.948-13.92,31.656-22.136A132.048,132.048,0,0,0,461.4,89.067l.15-12.487c-15.51,12.732-31.457,25.464-48.013,37.146-9.667,6.825-21.218,15.492-26.159,24.73l.06,6.182C396.208,142.209,407.657,130.854,413.715,126.74Z" transform="translate(-386.424 5.315)" fill="#e4baa4"/>
            <path id="Path_209770" data-name="Path 209770" d="M415.878,119.341c9.8-5.565,18.323-12.1,27.689-17.793,5.328-3.234,11.732-6.178,17.368-9.46l.079-6.554c-4.625,2.952-9.611,5.569-14.341,8.487-9.953,6.136-19.707,12.032-29.837,17.868-6.606,3.805-23.918,12.6-29.415,20.15l.045,4.538C397.1,133.9,407.823,123.914,415.878,119.341Z" transform="translate(-386.297 30.03)" fill="#e4baa4"/>
            <path id="Path_209771" data-name="Path 209771" d="M414.926,122.431c9.934-5.366,20.463-10.919,30.98-15.826,4.061-1.891,9.633-3.847,14.642-6.1l.117-9.727c-5.885,3.516-12.472,6.663-17.8,9.648-11.07,6.208-22.384,12.57-32.833,19.308-5.249,3.38-16.364,8.513-22.568,14.1l.071,7.347C397,137.194,406.834,126.8,414.926,122.431Z" transform="translate(-386.184 44.495)" fill="#e4baa4"/>
            <path id="Path_209772" data-name="Path 209772" d="M413.951,120.974c-9.581,5.095-21.019,11.013-26.43,18.718l.034,3.29,12.393-5.546c4.174-3.185,8.145-6.509,11.529-8.584,9.378-5.749,19.068-11.574,29.186-16.571,2.737-1.35,11.288-3.655,19.444-6.558l.105-8.509C444.517,104.828,428.976,112.98,413.951,120.974Z" transform="translate(-386.021 62.268)" fill="#e4baa4"/>
          </g>
        </g>
        <g id="Group_151478" data-name="Group 151478" transform="translate(4.954 2.97)" opacity="0.74">
          <path id="Path_209773" data-name="Path 209773" d="M379,64.929l10.4,1.681a73.781,73.781,0,0,1,8.254-2.5,105.406,105.406,0,0,1,15.3-1.7c2.218-.094,7.96.278,13.57.29l7.253-3.4C419.17,59.014,386.584,58.619,379,64.929Z" transform="translate(-285.501 -24.256)" fill="#e6b76b"/>
          <path id="Path_209774" data-name="Path 209774" d="M376.167,65.717a17.666,17.666,0,0,0-3.35,1.884l11.273,1.82c3.865-1.245,7.641-2.677,11.656-3.583a212.706,212.706,0,0,1,33.04-5.174c8.615-.519,17.5-.6,26.238-.308a42.613,42.613,0,0,1,5.591.8l6.351-2.978C436.844,56.674,403.067,54.11,376.167,65.717Z" transform="translate(-302.578 -30.684)" fill="#e6b76b"/>
          <path id="Path_209775" data-name="Path 209775" d="M422.388,56.092c-10.652.677-28.667,3.309-38.263,6.96-3.452,1.312-11.841,4.516-15.965,7.851l10.288,1.662c6.336-2.677,12.378-6.813,17.921-8.656,10.585-3.512,23.286-3.662,34.616-4.877,10.57-1.132,21.9-.357,32.736,0,4.042.135,15.747.391,24.753,1.226l8.31-3.9C469.484,53.809,449.645,54.358,422.388,56.092Z" transform="translate(-315.432 -36.814)" fill="#e6b76b"/>
          <path id="Path_209776" data-name="Path 209776" d="M487.707,53.549c-17.424-1.263-32.382-1.7-49.9,0-18.323,1.775-34.559,4.685-50.8,11.059-1.323.519-16.766,5.855-22.553,10.081l9.615,1.553c8.325-3.6,18.767-9.532,22.106-10.78,10.276-3.835,22.628-4.805,33.807-6.441,24.422-3.58,50.453-1.925,75.214-.229,1.3.09,4.035.628,7.073,1.136l5.674-2.662C508.147,56.166,497.386,54.248,487.707,53.549Z" transform="translate(-325.65 -42.848)" fill="#e6b76b"/>
          <path id="Path_209777" data-name="Path 209777" d="M424.323,58.138a389.85,389.85,0,0,1,74.093-4.313c12.168.459,25.651,4.407,38.316,4.79l1.985-.929-40.6-4.851c-2.568-.105-5.174.011-7.708-.3a237.139,237.139,0,0,0-55.988.105,245.835,245.835,0,0,0-48.517,10.833c-5.486,1.831-21.049,7.547-26.1,12.525l10.814,1.745c8.7-2.79,17.563-8.035,24.313-10.72C404.7,63.142,413.4,59.845,424.323,58.138Z" transform="translate(-338.487 -46.985)" fill="#e6b76b"/>
          <path id="Path_209778" data-name="Path 209778" d="M445.482,53.2c9.806-1.015,19.82-1.519,29.807-2.061l-10.476-1.252c-6.678.075-13.349.282-19.989.857C430.155,52,416.931,54.891,403,58.2L360.988,71.049c-.816.4-1.666.786-2.44,1.211a23.751,23.751,0,0,0-4.411,3.2l10.679,1.726c4.881-2.5,9.671-6.084,13.916-7.708A261.683,261.683,0,0,1,445.482,53.2Z" transform="translate(-354.137 -49.883)" fill="#e6b76b"/>
        </g>
        <path id="Path_209779" data-name="Path 209779" d="M558,54.3l0-1.311-2.286-.349L478.952,85.264h0L353.873,65.286l-1.054,1.772.065,1.931L474.617,89.341,477.1,264.724l6.236,1.3,1.449-.649L483.539,88.587l.028-.068Z" transform="translate(-352.819 -39.315)" fill="#ffe4be"/>
      </g>
      <path id="Path_209780" data-name="Path 209780" d="M359.218,134.555a3.254,3.254,0,0,1,1.117-.3,8.359,8.359,0,0,1,2.564.113,2.252,2.252,0,0,1,1.481.846c-.019-.177-.045-.353-.049-.53-.075-4.238.429-8.332.245-12.6-.192-4.414-1.034-8.554-1.624-12.72-.733-5.125-2.553-10.5-2.5-16.026,0,4.839.139,9.622.139,14.51,0,9.051-1.072,17.778-1.553,26.678Z" transform="translate(17.153 122.119)" fill="#985339"/>
      <path id="Path_209781" data-name="Path 209781" d="M403.642,125.791a11.5,11.5,0,0,1,2.523-.6,3.322,3.322,0,0,1,1.707.222l.395-.177a43.2,43.2,0,0,0-2.376-4.742c-4.369-8.253-3.58-16.86-6.926-25.151.026,3.944-.448,7.986-.4,11.995.079,6.78,3.128,13.194,3.873,19.895C402.375,126.679,402.69,126.122,403.642,125.791Z" transform="translate(126.255 127.653)" fill="#985339"/>
    </g>
    <g id="_10" data-name="10" transform="translate(328.144 1486)">
      <g id="Group_151484" data-name="Group 151484" transform="translate(0.258 0.258)" style="mix-blend-mode: multiply;isolation: isolate">
        <path id="Path_209782" data-name="Path 209782" d="M2118.6,1225.487a39.927,39.927,0,0,1-23.182-72.434v-115.6a23.183,23.183,0,1,1,46.366,0v115.605a39.927,39.927,0,0,1-23.183,72.433Z" transform="translate(-2069.302 -1004.89)" fill="#fff" opacity="0"/>
        <path id="Path_209783" data-name="Path 209783" d="M2094.441,1036.457a23.171,23.171,0,1,1,46.341,0v115.612l.11.078a39.914,39.914,0,1,1-46.451-.079Z" transform="translate(-2068.77 -1004.357)" fill="#f9f9f9" opacity="0.048"/>
        <path id="Path_209784" data-name="Path 209784" d="M2093.462,1035.467a23.158,23.158,0,1,1,46.317,0v115.618l.11.078a39.9,39.9,0,1,1-46.426-.079Z" transform="translate(-2068.237 -1003.826)" fill="#f3f3f3" opacity="0.095"/>
        <path id="Path_209785" data-name="Path 209785" d="M2092.484,1034.475a23.146,23.146,0,1,1,46.292,0V1150.1l.11.078a39.889,39.889,0,1,1-46.4-.079Z" transform="translate(-2067.705 -1003.293)" fill="#ededee" opacity="0.143"/>
        <path id="Path_209786" data-name="Path 209786" d="M2091.505,1033.484a23.134,23.134,0,1,1,46.267,0v115.631l.11.079a39.877,39.877,0,1,1-46.377-.079Z" transform="translate(-2067.173 -1002.761)" fill="#e7e7e8" opacity="0.19"/>
        <path id="Path_209787" data-name="Path 209787" d="M2090.526,1032.494a23.121,23.121,0,1,1,46.243,0V1148.13l.11.079a39.865,39.865,0,1,1-46.352-.079Z" transform="translate(-2066.64 -1002.229)" fill="#e1e1e2" opacity="0.238"/>
        <path id="Path_209788" data-name="Path 209788" d="M2089.547,1031.5a23.109,23.109,0,1,1,46.218,0v115.643l.11.078a39.853,39.853,0,1,1-46.327-.079Z" transform="translate(-2066.108 -1001.696)" fill="#dbdbdc" opacity="0.286"/>
        <path id="Path_209789" data-name="Path 209789" d="M2088.569,1030.511a23.1,23.1,0,0,1,46.194,0v115.65l.109.078a39.84,39.84,0,1,1-46.3-.079Z" transform="translate(-2065.576 -1001.164)" fill="#d5d5d6" opacity="0.333"/>
        <path id="Path_209790" data-name="Path 209790" d="M2087.59,1029.521a23.085,23.085,0,1,1,46.169,0v115.656l.109.078a39.827,39.827,0,1,1-46.278-.079Z" transform="translate(-2065.043 -1000.632)" fill="#cfcfd1" opacity="0.381"/>
        <path id="Path_209791" data-name="Path 209791" d="M2086.611,1028.529a23.073,23.073,0,0,1,46.145,0v115.662l.109.078a39.816,39.816,0,1,1-46.253-.078Z" transform="translate(-2064.511 -1000.1)" fill="#c9c9cb" opacity="0.429"/>
        <path id="Path_209792" data-name="Path 209792" d="M2085.633,1027.538a23.06,23.06,0,1,1,46.12,0v115.668l.109.078a39.8,39.8,0,1,1-46.229-.078Z" transform="translate(-2063.979 -999.567)" fill="#c3c3c5" opacity="0.476"/>
        <path id="Path_209793" data-name="Path 209793" d="M2084.654,1026.547a23.048,23.048,0,1,1,46.1,0v115.675l.108.078a39.791,39.791,0,1,1-46.2-.078Z" transform="translate(-2063.447 -999.035)" fill="#bcbebf" opacity="0.524"/>
        <path id="Path_209794" data-name="Path 209794" d="M2083.675,1025.556a23.036,23.036,0,0,1,46.071,0v115.681l.109.078a39.778,39.778,0,1,1-46.179-.078Z" transform="translate(-2062.914 -998.503)" fill="#b6b8b9" opacity="0.571"/>
        <path id="Path_209795" data-name="Path 209795" d="M2082.7,1024.565a23.023,23.023,0,0,1,46.047,0v115.688l.108.078a39.766,39.766,0,1,1-46.154-.078Z" transform="translate(-2062.383 -997.97)" fill="#b0b2b3" opacity="0.619"/>
        <path id="Path_209796" data-name="Path 209796" d="M2081.718,1023.574a23.011,23.011,0,1,1,46.022,0v115.694l.108.078a39.753,39.753,0,1,1-46.13-.079Z" transform="translate(-2061.85 -997.438)" fill="#aaacae" opacity="0.667"/>
        <path id="Path_209797" data-name="Path 209797" d="M2080.739,1022.584a23,23,0,0,1,46,0v115.7l.108.078a39.742,39.742,0,1,1-46.105-.078Z" transform="translate(-2061.318 -996.906)" fill="#a4a6a8" opacity="0.714"/>
        <path id="Path_209798" data-name="Path 209798" d="M2079.76,1021.593a22.987,22.987,0,0,1,45.973,0V1137.3l.108.077a39.73,39.73,0,1,1-46.08-.078Z" transform="translate(-2060.785 -996.374)" fill="#9ea0a2" opacity="0.762"/>
        <path id="Path_209799" data-name="Path 209799" d="M2078.782,1020.6a22.974,22.974,0,1,1,45.948,0v115.713l.108.078a39.716,39.716,0,1,1-46.056-.078Z" transform="translate(-2060.253 -995.841)" fill="#989a9c" opacity="0.81"/>
        <path id="Path_209800" data-name="Path 209800" d="M2077.8,1019.611a22.962,22.962,0,0,1,45.924,0v115.719l.108.078a39.7,39.7,0,1,1-46.031-.078Z" transform="translate(-2059.721 -995.309)" fill="#929496" opacity="0.857"/>
        <path id="Path_209801" data-name="Path 209801" d="M2076.824,1018.62a22.95,22.95,0,1,1,45.9,0v115.725l.108.078a39.692,39.692,0,1,1-46.006-.079Z" transform="translate(-2059.188 -994.777)" fill="#8c8e91" opacity="0.905"/>
        <path id="Path_209802" data-name="Path 209802" d="M2075.846,1017.628a22.937,22.937,0,0,1,45.875,0V1133.36l.108.077a39.68,39.68,0,1,1-45.982-.078Z" transform="translate(-2058.656 -994.244)" fill="#86888b" opacity="0.952"/>
        <path id="Path_209803" data-name="Path 209803" d="M2097.792,1204.419a39.669,39.669,0,0,1-23.033-71.966l.108-.078V1016.637a22.925,22.925,0,1,1,45.85,0v115.738l.108.078a39.669,39.669,0,0,1-23.032,71.966Z" transform="translate(-2058.124 -993.712)" fill="#808285"/>
      </g>
      <path id="Path_209804" data-name="Path 209804" d="M2097.485,1204.369a39.927,39.927,0,0,1-23.182-72.434v-115.6a23.183,23.183,0,1,1,46.366,0v115.605a39.927,39.927,0,0,1-23.183,72.434Z" transform="translate(-2057.559 -993.147)" fill="url(#linear-gradient)"/>
      <path id="Path_209805" data-name="Path 209805" d="M2099.02,1204.617a38.639,38.639,0,0,1-21.895-70.475V1017.866a21.895,21.895,0,1,1,43.79,0v116.276a38.639,38.639,0,0,1-21.895,70.475Z" transform="translate(-2059.094 -994.683)" fill="url(#linear-gradient-2)"/>
      <g id="Group_151485" data-name="Group 151485" transform="translate(11.205 11.205)" style="mix-blend-mode: multiply;isolation: isolate">
        <path id="Path_209806" data-name="Path 209806" d="M2124.6,1220.533a28.98,28.98,0,0,1-16.419-52.859l4.184-2.879V1043.442a12.235,12.235,0,1,1,24.471,0V1164.8l4.183,2.879a28.98,28.98,0,0,1-16.419,52.859Z" transform="translate(-2089.463 -1025.051)" fill="#fff" opacity="0"/>
        <path id="Path_209807" data-name="Path 209807" d="M2123.942,1219.866a28.967,28.967,0,0,1-16.412-52.836l4.189-2.883V1042.787a12.223,12.223,0,0,1,24.446,0v121.361l4.189,2.883a28.968,28.968,0,0,1-16.412,52.836Z" transform="translate(-2089.113 -1024.702)" fill="#f9f9f9" opacity="0.048"/>
        <path id="Path_209808" data-name="Path 209808" d="M2123.287,1219.2a28.955,28.955,0,0,1-16.405-52.814l4.194-2.886V1042.132a12.211,12.211,0,1,1,24.422,0V1163.5l4.194,2.886a28.955,28.955,0,0,1-16.405,52.814Z" transform="translate(-2088.764 -1024.352)" fill="#f3f3f3" opacity="0.095"/>
        <path id="Path_209809" data-name="Path 209809" d="M2122.632,1218.532a28.943,28.943,0,0,1-16.4-52.792l4.2-2.89V1041.477a12.2,12.2,0,0,1,24.4,0v121.374l4.2,2.89a28.943,28.943,0,0,1-16.4,52.792Z" transform="translate(-2088.414 -1024.003)" fill="#ededee" opacity="0.143"/>
        <path id="Path_209810" data-name="Path 209810" d="M2121.977,1217.865a28.931,28.931,0,0,1-16.391-52.769l4.2-2.894v-121.38a12.186,12.186,0,1,1,24.373,0V1162.2l4.2,2.894a28.931,28.931,0,0,1-16.391,52.769Z" transform="translate(-2088.065 -1023.653)" fill="#e7e7e8" opacity="0.19"/>
        <path id="Path_209811" data-name="Path 209811" d="M2121.322,1217.2a28.918,28.918,0,0,1-16.384-52.746l4.21-2.9V1040.168a12.174,12.174,0,0,1,24.348,0v121.387l4.21,2.9a28.918,28.918,0,0,1-16.384,52.746Z" transform="translate(-2087.715 -1023.304)" fill="#e1e1e2" opacity="0.238"/>
        <path id="Path_209812" data-name="Path 209812" d="M2120.667,1216.531a28.906,28.906,0,0,1-16.377-52.724l4.215-2.9V1039.513a12.162,12.162,0,1,1,24.323,0v121.393l4.216,2.9a28.906,28.906,0,0,1-16.377,52.724Z" transform="translate(-2087.366 -1022.954)" fill="#dbdbdc" opacity="0.286"/>
        <path id="Path_209813" data-name="Path 209813" d="M2120.013,1215.863a28.894,28.894,0,0,1-16.37-52.7l4.221-2.9v-121.4a12.149,12.149,0,1,1,24.3,0v121.4l4.221,2.9a28.894,28.894,0,0,1-16.37,52.7Z" transform="translate(-2087.017 -1022.604)" fill="#d5d5d6" opacity="0.333"/>
        <path id="Path_209814" data-name="Path 209814" d="M2119.357,1215.2a28.881,28.881,0,0,1-16.363-52.679l4.226-2.908V1038.2a12.137,12.137,0,0,1,24.275,0v121.406l4.226,2.908a28.881,28.881,0,0,1-16.363,52.679Z" transform="translate(-2086.667 -1022.255)" fill="#cfcfd1" opacity="0.381"/>
        <path id="Path_209815" data-name="Path 209815" d="M2118.7,1214.529a28.869,28.869,0,0,1-16.357-52.657l4.232-2.912V1037.548a12.125,12.125,0,1,1,24.25,0V1158.96l4.232,2.912a28.869,28.869,0,0,1-16.356,52.657Z" transform="translate(-2086.318 -1021.906)" fill="#c9c9cb" opacity="0.429"/>
        <path id="Path_209816" data-name="Path 209816" d="M2118.048,1213.862a28.857,28.857,0,0,1-16.349-52.635l4.237-2.915V1036.893a12.113,12.113,0,0,1,24.226,0v121.419l4.237,2.915a28.857,28.857,0,0,1-16.35,52.635Z" transform="translate(-2085.968 -1021.557)" fill="#c3c3c5" opacity="0.476"/>
        <path id="Path_209817" data-name="Path 209817" d="M2117.394,1213.2a28.845,28.845,0,0,1-16.342-52.612l4.241-2.919V1036.239a12.1,12.1,0,1,1,24.2,0v121.425l4.242,2.919a28.845,28.845,0,0,1-16.342,52.612Z" transform="translate(-2085.619 -1021.207)" fill="#bcbebf" opacity="0.524"/>
        <path id="Path_209818" data-name="Path 209818" d="M2116.738,1212.528a28.832,28.832,0,0,1-16.336-52.589l4.248-2.923V1035.584a12.088,12.088,0,0,1,24.176,0v121.432l4.247,2.923a28.832,28.832,0,0,1-16.335,52.589Z" transform="translate(-2085.269 -1020.858)" fill="#b6b8b9" opacity="0.571"/>
        <path id="Path_209819" data-name="Path 209819" d="M2116.083,1211.861a28.82,28.82,0,0,1-16.329-52.567l4.253-2.927V1034.929a12.076,12.076,0,0,1,24.152,0v121.438l4.253,2.927a28.82,28.82,0,0,1-16.329,52.567Z" transform="translate(-2084.919 -1020.508)" fill="#b0b2b3" opacity="0.619"/>
        <path id="Path_209820" data-name="Path 209820" d="M2115.428,1211.194a28.808,28.808,0,0,1-16.321-52.545l4.258-2.93V1034.274a12.063,12.063,0,1,1,24.127,0v121.445l4.258,2.93a28.808,28.808,0,0,1-16.322,52.545Z" transform="translate(-2084.57 -1020.158)" fill="#aaacae" opacity="0.667"/>
        <path id="Path_209821" data-name="Path 209821" d="M2114.773,1210.527A28.8,28.8,0,0,1,2098.459,1158l4.263-2.934V1033.619a12.051,12.051,0,1,1,24.1,0V1155.07l4.263,2.934a28.8,28.8,0,0,1-16.315,52.522Z" transform="translate(-2084.22 -1019.809)" fill="#a4a6a8" opacity="0.714"/>
        <path id="Path_209822" data-name="Path 209822" d="M2114.119,1209.859a28.783,28.783,0,0,1-16.307-52.5l4.269-2.937V1032.964a12.039,12.039,0,1,1,24.077,0v121.458l4.269,2.938a28.783,28.783,0,0,1-16.308,52.5Z" transform="translate(-2083.871 -1019.459)" fill="#9ea0a2" opacity="0.762"/>
        <path id="Path_209823" data-name="Path 209823" d="M2113.464,1209.192a28.771,28.771,0,0,1-16.3-52.477l4.274-2.941V1032.31a12.027,12.027,0,1,1,24.053,0v121.464l4.274,2.941a28.771,28.771,0,0,1-16.3,52.477Z" transform="translate(-2083.522 -1019.11)" fill="#989a9c" opacity="0.81"/>
        <path id="Path_209824" data-name="Path 209824" d="M2112.809,1208.525a28.759,28.759,0,0,1-16.293-52.455l4.279-2.944V1031.654a12.015,12.015,0,0,1,24.029,0v121.471l4.279,2.944a28.759,28.759,0,0,1-16.294,52.455Z" transform="translate(-2083.173 -1018.761)" fill="#929496" opacity="0.857"/>
        <path id="Path_209825" data-name="Path 209825" d="M2112.154,1207.859a28.746,28.746,0,0,1-16.287-52.433l4.285-2.948V1031a12,12,0,1,1,24,0v121.477l4.284,2.948a28.746,28.746,0,0,1-16.287,52.433Z" transform="translate(-2082.823 -1018.411)" fill="#8c8e91" opacity="0.905"/>
        <path id="Path_209826" data-name="Path 209826" d="M2111.5,1207.191a28.734,28.734,0,0,1-16.28-52.41l4.29-2.952V1030.345a11.99,11.99,0,0,1,23.98,0v121.484l4.29,2.952a28.733,28.733,0,0,1-16.279,52.41Z" transform="translate(-2082.474 -1018.062)" fill="#86888b" opacity="0.952"/>
        <path id="Path_209827" data-name="Path 209827" d="M2110.845,1206.524a28.722,28.722,0,0,1-16.273-52.388l4.3-2.955V1029.69a11.978,11.978,0,1,1,23.955,0v121.49l4.3,2.955a28.722,28.722,0,0,1-16.273,52.388Z" transform="translate(-2082.124 -1017.712)" fill="#808285"/>
      </g>
      <path id="Path_209828" data-name="Path 209828" d="M2110.537,1206.474a28.98,28.98,0,0,1-16.419-52.859l4.184-2.879V1029.383a12.235,12.235,0,1,1,24.471,0v121.354l4.183,2.879a28.98,28.98,0,0,1-16.419,52.859Z" transform="translate(-2070.612 -1006.199)" fill="red"/>
      <g id="Group_151486" data-name="Group 151486" transform="translate(56.562 23.183)">
        <path id="Path_209829" data-name="Path 209829" d="M2186.066,1271.141H2182.2a.644.644,0,0,1,0-1.288h3.864a.644.644,0,0,1,0,1.288Z" transform="translate(-2181.558 -1166.818)" fill="#808285"/>
        <path id="Path_209830" data-name="Path 209830" d="M2186.066,1242.906H2182.2a.644.644,0,1,1,0-1.288h3.864a.644.644,0,0,1,0,1.288Z" transform="translate(-2181.558 -1151.462)" fill="#808285"/>
        <path id="Path_209831" data-name="Path 209831" d="M2186.066,1214.67H2182.2a.644.644,0,0,1,0-1.288h3.864a.644.644,0,0,1,0,1.288Z" transform="translate(-2181.558 -1136.106)" fill="#808285"/>
        <path id="Path_209832" data-name="Path 209832" d="M2186.066,1186.435H2182.2a.644.644,0,0,1,0-1.288h3.864a.644.644,0,0,1,0,1.288Z" transform="translate(-2181.558 -1120.75)" fill="#808285"/>
        <path id="Path_209833" data-name="Path 209833" d="M2186.066,1158.2H2182.2a.644.644,0,1,1,0-1.288h3.864a.644.644,0,0,1,0,1.288Z" transform="translate(-2181.558 -1105.395)" fill="#808285"/>
        <path id="Path_209834" data-name="Path 209834" d="M2186.066,1129.965H2182.2a.644.644,0,1,1,0-1.288h3.864a.644.644,0,0,1,0,1.288Z" transform="translate(-2181.558 -1090.039)" fill="#808285"/>
        <path id="Path_209835" data-name="Path 209835" d="M2186.066,1101.729H2182.2a.644.644,0,0,1,0-1.288h3.864a.644.644,0,0,1,0,1.288Z" transform="translate(-2181.558 -1074.682)" fill="#808285"/>
        <path id="Path_209836" data-name="Path 209836" d="M2186.066,1073.494H2182.2a.644.644,0,0,1,0-1.288h3.864a.644.644,0,0,1,0,1.288Z" transform="translate(-2181.558 -1059.327)" fill="#808285"/>
        <path id="Path_209837" data-name="Path 209837" d="M2186.066,1045.259H2182.2a.644.644,0,1,1,0-1.288h3.864a.644.644,0,0,1,0,1.288Z" transform="translate(-2181.558 -1043.971)" fill="#808285"/>
      </g>
    </g>
    <g id="_10-2" data-name="10" transform="translate(327.666 1486)">
      <g id="Group_151484-2" data-name="Group 151484" transform="translate(0.258 0.258)" style="mix-blend-mode: multiply;isolation: isolate">
        <path id="Path_209782-2" data-name="Path 209782" d="M2118.6,1225.487a39.927,39.927,0,0,1-23.182-72.434v-115.6a23.183,23.183,0,1,1,46.366,0v115.605a39.927,39.927,0,0,1-23.183,72.433Z" transform="translate(-2069.302 -1004.89)" fill="#fff" opacity="0"/>
        <path id="Path_209783-2" data-name="Path 209783" d="M2094.441,1036.457a23.171,23.171,0,1,1,46.341,0v115.612l.11.078a39.914,39.914,0,1,1-46.451-.079Z" transform="translate(-2068.77 -1004.357)" fill="#f9f9f9" opacity="0.048"/>
        <path id="Path_209784-2" data-name="Path 209784" d="M2093.462,1035.467a23.158,23.158,0,1,1,46.317,0v115.618l.11.078a39.9,39.9,0,1,1-46.426-.079Z" transform="translate(-2068.237 -1003.826)" fill="#f3f3f3" opacity="0.095"/>
        <path id="Path_209785-2" data-name="Path 209785" d="M2092.484,1034.475a23.146,23.146,0,1,1,46.292,0V1150.1l.11.078a39.889,39.889,0,1,1-46.4-.079Z" transform="translate(-2067.705 -1003.293)" fill="#ededee" opacity="0.143"/>
        <path id="Path_209786-2" data-name="Path 209786" d="M2091.505,1033.484a23.134,23.134,0,1,1,46.267,0v115.631l.11.079a39.877,39.877,0,1,1-46.377-.079Z" transform="translate(-2067.173 -1002.761)" fill="#e7e7e8" opacity="0.19"/>
        <path id="Path_209787-2" data-name="Path 209787" d="M2090.526,1032.494a23.121,23.121,0,1,1,46.243,0V1148.13l.11.079a39.865,39.865,0,1,1-46.352-.079Z" transform="translate(-2066.64 -1002.229)" fill="#e1e1e2" opacity="0.238"/>
        <path id="Path_209788-2" data-name="Path 209788" d="M2089.547,1031.5a23.109,23.109,0,1,1,46.218,0v115.643l.11.078a39.853,39.853,0,1,1-46.327-.079Z" transform="translate(-2066.108 -1001.696)" fill="#dbdbdc" opacity="0.286"/>
        <path id="Path_209789-2" data-name="Path 209789" d="M2088.569,1030.511a23.1,23.1,0,0,1,46.194,0v115.65l.109.078a39.84,39.84,0,1,1-46.3-.079Z" transform="translate(-2065.576 -1001.164)" fill="#d5d5d6" opacity="0.333"/>
        <path id="Path_209790-2" data-name="Path 209790" d="M2087.59,1029.521a23.085,23.085,0,1,1,46.169,0v115.656l.109.078a39.827,39.827,0,1,1-46.278-.079Z" transform="translate(-2065.043 -1000.632)" fill="#cfcfd1" opacity="0.381"/>
        <path id="Path_209791-2" data-name="Path 209791" d="M2086.611,1028.529a23.073,23.073,0,0,1,46.145,0v115.662l.109.078a39.816,39.816,0,1,1-46.253-.078Z" transform="translate(-2064.511 -1000.1)" fill="#c9c9cb" opacity="0.429"/>
        <path id="Path_209792-2" data-name="Path 209792" d="M2085.633,1027.538a23.06,23.06,0,1,1,46.12,0v115.668l.109.078a39.8,39.8,0,1,1-46.229-.078Z" transform="translate(-2063.979 -999.567)" fill="#c3c3c5" opacity="0.476"/>
        <path id="Path_209793-2" data-name="Path 209793" d="M2084.654,1026.547a23.048,23.048,0,1,1,46.1,0v115.675l.108.078a39.791,39.791,0,1,1-46.2-.078Z" transform="translate(-2063.447 -999.035)" fill="#bcbebf" opacity="0.524"/>
        <path id="Path_209794-2" data-name="Path 209794" d="M2083.675,1025.556a23.036,23.036,0,0,1,46.071,0v115.681l.109.078a39.778,39.778,0,1,1-46.179-.078Z" transform="translate(-2062.914 -998.503)" fill="#b6b8b9" opacity="0.571"/>
        <path id="Path_209795-2" data-name="Path 209795" d="M2082.7,1024.565a23.023,23.023,0,0,1,46.047,0v115.688l.108.078a39.766,39.766,0,1,1-46.154-.078Z" transform="translate(-2062.383 -997.97)" fill="#b0b2b3" opacity="0.619"/>
        <path id="Path_209796-2" data-name="Path 209796" d="M2081.718,1023.574a23.011,23.011,0,1,1,46.022,0v115.694l.108.078a39.753,39.753,0,1,1-46.13-.079Z" transform="translate(-2061.85 -997.438)" fill="#aaacae" opacity="0.667"/>
        <path id="Path_209797-2" data-name="Path 209797" d="M2080.739,1022.584a23,23,0,0,1,46,0v115.7l.108.078a39.742,39.742,0,1,1-46.105-.078Z" transform="translate(-2061.318 -996.906)" fill="#a4a6a8" opacity="0.714"/>
        <path id="Path_209798-2" data-name="Path 209798" d="M2079.76,1021.593a22.987,22.987,0,0,1,45.973,0V1137.3l.108.077a39.73,39.73,0,1,1-46.08-.078Z" transform="translate(-2060.785 -996.374)" fill="#9ea0a2" opacity="0.762"/>
        <path id="Path_209799-2" data-name="Path 209799" d="M2078.782,1020.6a22.974,22.974,0,1,1,45.948,0v115.713l.108.078a39.716,39.716,0,1,1-46.056-.078Z" transform="translate(-2060.253 -995.841)" fill="#989a9c" opacity="0.81"/>
        <path id="Path_209800-2" data-name="Path 209800" d="M2077.8,1019.611a22.962,22.962,0,0,1,45.924,0v115.719l.108.078a39.7,39.7,0,1,1-46.031-.078Z" transform="translate(-2059.721 -995.309)" fill="#929496" opacity="0.857"/>
        <path id="Path_209801-2" data-name="Path 209801" d="M2076.824,1018.62a22.95,22.95,0,1,1,45.9,0v115.725l.108.078a39.692,39.692,0,1,1-46.006-.079Z" transform="translate(-2059.188 -994.777)" fill="#8c8e91" opacity="0.905"/>
        <path id="Path_209802-2" data-name="Path 209802" d="M2075.846,1017.628a22.937,22.937,0,0,1,45.875,0V1133.36l.108.077a39.68,39.68,0,1,1-45.982-.078Z" transform="translate(-2058.656 -994.244)" fill="#86888b" opacity="0.952"/>
        <path id="Path_209803-2" data-name="Path 209803" d="M2097.792,1204.419a39.669,39.669,0,0,1-23.033-71.966l.108-.078V1016.637a22.925,22.925,0,1,1,45.85,0v115.738l.108.078a39.669,39.669,0,0,1-23.032,71.966Z" transform="translate(-2058.124 -993.712)" fill="#808285"/>
      </g>
      <path id="Path_209804-2" data-name="Path 209804" d="M2097.485,1204.369a39.927,39.927,0,0,1-23.182-72.434v-115.6a23.183,23.183,0,1,1,46.366,0v115.605a39.927,39.927,0,0,1-23.183,72.434Z" transform="translate(-2057.559 -993.147)" fill="url(#linear-gradient)"/>
      <path id="Path_209805-2" data-name="Path 209805" d="M2099.02,1204.617a38.639,38.639,0,0,1-21.895-70.475V1017.866a21.895,21.895,0,1,1,43.79,0v116.276a38.639,38.639,0,0,1-21.895,70.475Z" transform="translate(-2059.094 -994.683)" fill="url(#linear-gradient-2)"/>
      <g id="Group_151485-2" data-name="Group 151485" transform="translate(11.205 11.205)" style="mix-blend-mode: multiply;isolation: isolate">
        <path id="Path_209806-2" data-name="Path 209806" d="M2124.6,1220.533a28.98,28.98,0,0,1-16.419-52.859l4.184-2.879V1043.442a12.235,12.235,0,1,1,24.471,0V1164.8l4.183,2.879a28.98,28.98,0,0,1-16.419,52.859Z" transform="translate(-2089.463 -1025.051)" fill="#fff" opacity="0"/>
        <path id="Path_209807-2" data-name="Path 209807" d="M2123.942,1219.866a28.967,28.967,0,0,1-16.412-52.836l4.189-2.883V1042.787a12.223,12.223,0,0,1,24.446,0v121.361l4.189,2.883a28.968,28.968,0,0,1-16.412,52.836Z" transform="translate(-2089.113 -1024.702)" fill="#f9f9f9" opacity="0.048"/>
        <path id="Path_209808-2" data-name="Path 209808" d="M2123.287,1219.2a28.955,28.955,0,0,1-16.405-52.814l4.194-2.886V1042.132a12.211,12.211,0,1,1,24.422,0V1163.5l4.194,2.886a28.955,28.955,0,0,1-16.405,52.814Z" transform="translate(-2088.764 -1024.352)" fill="#f3f3f3" opacity="0.095"/>
        <path id="Path_209809-2" data-name="Path 209809" d="M2122.632,1218.532a28.943,28.943,0,0,1-16.4-52.792l4.2-2.89V1041.477a12.2,12.2,0,0,1,24.4,0v121.374l4.2,2.89a28.943,28.943,0,0,1-16.4,52.792Z" transform="translate(-2088.414 -1024.003)" fill="#ededee" opacity="0.143"/>
        <path id="Path_209810-2" data-name="Path 209810" d="M2121.977,1217.865a28.931,28.931,0,0,1-16.391-52.769l4.2-2.894v-121.38a12.186,12.186,0,1,1,24.373,0V1162.2l4.2,2.894a28.931,28.931,0,0,1-16.391,52.769Z" transform="translate(-2088.065 -1023.653)" fill="#e7e7e8" opacity="0.19"/>
        <path id="Path_209811-2" data-name="Path 209811" d="M2121.322,1217.2a28.918,28.918,0,0,1-16.384-52.746l4.21-2.9V1040.168a12.174,12.174,0,0,1,24.348,0v121.387l4.21,2.9a28.918,28.918,0,0,1-16.384,52.746Z" transform="translate(-2087.715 -1023.304)" fill="#e1e1e2" opacity="0.238"/>
        <path id="Path_209812-2" data-name="Path 209812" d="M2120.667,1216.531a28.906,28.906,0,0,1-16.377-52.724l4.215-2.9V1039.513a12.162,12.162,0,1,1,24.323,0v121.393l4.216,2.9a28.906,28.906,0,0,1-16.377,52.724Z" transform="translate(-2087.366 -1022.954)" fill="#dbdbdc" opacity="0.286"/>
        <path id="Path_209813-2" data-name="Path 209813" d="M2120.013,1215.863a28.894,28.894,0,0,1-16.37-52.7l4.221-2.9v-121.4a12.149,12.149,0,1,1,24.3,0v121.4l4.221,2.9a28.894,28.894,0,0,1-16.37,52.7Z" transform="translate(-2087.017 -1022.604)" fill="#d5d5d6" opacity="0.333"/>
        <path id="Path_209814-2" data-name="Path 209814" d="M2119.357,1215.2a28.881,28.881,0,0,1-16.363-52.679l4.226-2.908V1038.2a12.137,12.137,0,0,1,24.275,0v121.406l4.226,2.908a28.881,28.881,0,0,1-16.363,52.679Z" transform="translate(-2086.667 -1022.255)" fill="#cfcfd1" opacity="0.381"/>
        <path id="Path_209815-2" data-name="Path 209815" d="M2118.7,1214.529a28.869,28.869,0,0,1-16.357-52.657l4.232-2.912V1037.548a12.125,12.125,0,1,1,24.25,0V1158.96l4.232,2.912a28.869,28.869,0,0,1-16.356,52.657Z" transform="translate(-2086.318 -1021.906)" fill="#c9c9cb" opacity="0.429"/>
        <path id="Path_209816-2" data-name="Path 209816" d="M2118.048,1213.862a28.857,28.857,0,0,1-16.349-52.635l4.237-2.915V1036.893a12.113,12.113,0,0,1,24.226,0v121.419l4.237,2.915a28.857,28.857,0,0,1-16.35,52.635Z" transform="translate(-2085.968 -1021.557)" fill="#c3c3c5" opacity="0.476"/>
        <path id="Path_209817-2" data-name="Path 209817" d="M2117.394,1213.2a28.845,28.845,0,0,1-16.342-52.612l4.241-2.919V1036.239a12.1,12.1,0,1,1,24.2,0v121.425l4.242,2.919a28.845,28.845,0,0,1-16.342,52.612Z" transform="translate(-2085.619 -1021.207)" fill="#bcbebf" opacity="0.524"/>
        <path id="Path_209818-2" data-name="Path 209818" d="M2116.738,1212.528a28.832,28.832,0,0,1-16.336-52.589l4.248-2.923V1035.584a12.088,12.088,0,0,1,24.176,0v121.432l4.247,2.923a28.832,28.832,0,0,1-16.335,52.589Z" transform="translate(-2085.269 -1020.858)" fill="#b6b8b9" opacity="0.571"/>
        <path id="Path_209819-2" data-name="Path 209819" d="M2116.083,1211.861a28.82,28.82,0,0,1-16.329-52.567l4.253-2.927V1034.929a12.076,12.076,0,0,1,24.152,0v121.438l4.253,2.927a28.82,28.82,0,0,1-16.329,52.567Z" transform="translate(-2084.919 -1020.508)" fill="#b0b2b3" opacity="0.619"/>
        <path id="Path_209820-2" data-name="Path 209820" d="M2115.428,1211.194a28.808,28.808,0,0,1-16.321-52.545l4.258-2.93V1034.274a12.063,12.063,0,1,1,24.127,0v121.445l4.258,2.93a28.808,28.808,0,0,1-16.322,52.545Z" transform="translate(-2084.57 -1020.158)" fill="#aaacae" opacity="0.667"/>
        <path id="Path_209821-2" data-name="Path 209821" d="M2114.773,1210.527A28.8,28.8,0,0,1,2098.459,1158l4.263-2.934V1033.619a12.051,12.051,0,1,1,24.1,0V1155.07l4.263,2.934a28.8,28.8,0,0,1-16.315,52.522Z" transform="translate(-2084.22 -1019.809)" fill="#a4a6a8" opacity="0.714"/>
        <path id="Path_209822-2" data-name="Path 209822" d="M2114.119,1209.859a28.783,28.783,0,0,1-16.307-52.5l4.269-2.937V1032.964a12.039,12.039,0,1,1,24.077,0v121.458l4.269,2.938a28.783,28.783,0,0,1-16.308,52.5Z" transform="translate(-2083.871 -1019.459)" fill="#9ea0a2" opacity="0.762"/>
        <path id="Path_209823-2" data-name="Path 209823" d="M2113.464,1209.192a28.771,28.771,0,0,1-16.3-52.477l4.274-2.941V1032.31a12.027,12.027,0,1,1,24.053,0v121.464l4.274,2.941a28.771,28.771,0,0,1-16.3,52.477Z" transform="translate(-2083.522 -1019.11)" fill="#989a9c" opacity="0.81"/>
        <path id="Path_209824-2" data-name="Path 209824" d="M2112.809,1208.525a28.759,28.759,0,0,1-16.293-52.455l4.279-2.944V1031.654a12.015,12.015,0,0,1,24.029,0v121.471l4.279,2.944a28.759,28.759,0,0,1-16.294,52.455Z" transform="translate(-2083.173 -1018.761)" fill="#929496" opacity="0.857"/>
        <path id="Path_209825-2" data-name="Path 209825" d="M2112.154,1207.859a28.746,28.746,0,0,1-16.287-52.433l4.285-2.948V1031a12,12,0,1,1,24,0v121.477l4.284,2.948a28.746,28.746,0,0,1-16.287,52.433Z" transform="translate(-2082.823 -1018.411)" fill="#8c8e91" opacity="0.905"/>
        <path id="Path_209826-2" data-name="Path 209826" d="M2111.5,1207.191a28.734,28.734,0,0,1-16.28-52.41l4.29-2.952V1030.345a11.99,11.99,0,0,1,23.98,0v121.484l4.29,2.952a28.733,28.733,0,0,1-16.279,52.41Z" transform="translate(-2082.474 -1018.062)" fill="#86888b" opacity="0.952"/>
        <path id="Path_209827-2" data-name="Path 209827" d="M2110.845,1206.524a28.722,28.722,0,0,1-16.273-52.388l4.3-2.955V1029.69a11.978,11.978,0,1,1,23.955,0v121.49l4.3,2.955a28.722,28.722,0,0,1-16.273,52.388Z" transform="translate(-2082.124 -1017.712)" fill="#808285"/>
      </g>
      <path id="Path_209828-2" data-name="Path 209828" d="M2110.537,1206.474a28.98,28.98,0,0,1-16.419-52.859l4.184-2.879V1029.383a12.235,12.235,0,1,1,24.471,0v121.354l4.183,2.879a28.98,28.98,0,0,1-16.419,52.859Z" transform="translate(-2070.612 -1006.199)" fill="red"/>
      <g id="Group_151486-2" data-name="Group 151486" transform="translate(56.562 23.183)">
        <path id="Path_209829-2" data-name="Path 209829" d="M2186.066,1271.141H2182.2a.644.644,0,0,1,0-1.288h3.864a.644.644,0,0,1,0,1.288Z" transform="translate(-2181.558 -1166.818)" fill="#808285"/>
        <path id="Path_209830-2" data-name="Path 209830" d="M2186.066,1242.906H2182.2a.644.644,0,1,1,0-1.288h3.864a.644.644,0,0,1,0,1.288Z" transform="translate(-2181.558 -1151.462)" fill="#808285"/>
        <path id="Path_209831-2" data-name="Path 209831" d="M2186.066,1214.67H2182.2a.644.644,0,0,1,0-1.288h3.864a.644.644,0,0,1,0,1.288Z" transform="translate(-2181.558 -1136.106)" fill="#808285"/>
        <path id="Path_209832-2" data-name="Path 209832" d="M2186.066,1186.435H2182.2a.644.644,0,0,1,0-1.288h3.864a.644.644,0,0,1,0,1.288Z" transform="translate(-2181.558 -1120.75)" fill="#808285"/>
        <path id="Path_209833-2" data-name="Path 209833" d="M2186.066,1158.2H2182.2a.644.644,0,1,1,0-1.288h3.864a.644.644,0,0,1,0,1.288Z" transform="translate(-2181.558 -1105.395)" fill="#808285"/>
        <path id="Path_209834-2" data-name="Path 209834" d="M2186.066,1129.965H2182.2a.644.644,0,1,1,0-1.288h3.864a.644.644,0,0,1,0,1.288Z" transform="translate(-2181.558 -1090.039)" fill="#808285"/>
        <path id="Path_209835-2" data-name="Path 209835" d="M2186.066,1101.729H2182.2a.644.644,0,0,1,0-1.288h3.864a.644.644,0,0,1,0,1.288Z" transform="translate(-2181.558 -1074.682)" fill="#808285"/>
        <path id="Path_209836-2" data-name="Path 209836" d="M2186.066,1073.494H2182.2a.644.644,0,0,1,0-1.288h3.864a.644.644,0,0,1,0,1.288Z" transform="translate(-2181.558 -1059.327)" fill="#808285"/>
        <path id="Path_209837-2" data-name="Path 209837" d="M2186.066,1045.259H2182.2a.644.644,0,1,1,0-1.288h3.864a.644.644,0,0,1,0,1.288Z" transform="translate(-2181.558 -1043.971)" fill="#808285"/>
      </g>
    </g>
  </g>
</svg>
