<svg xmlns="http://www.w3.org/2000/svg" width="43.683" height="81.09" viewBox="0 0 43.683 81.09">
  <g id="Group_151470" data-name="Group 151470" transform="translate(-756.197 47.544)">
    <path id="Path_209715" data-name="Path 209715" d="M794.958,30.837a1.319,1.319,0,0,0-.1.806c-.008.763,0,1.526,0,2.289a.586.586,0,0,1-.324.2,1.57,1.57,0,0,0-1.093,1.654c.011,1.834,0,3.668,0,5.5,0,1.062-.023,1.084-1.094,1.084H772.388c-1.042,0-1.062-.021-1.062-1.06,0-7.11-.034-14.22.02-21.33a8.994,8.994,0,0,0-2.021-5.751,25.116,25.116,0,0,0-2.2-2.4A12.3,12.3,0,0,1,763.617,4.4a14.554,14.554,0,0,1-.086-1.846q0-8.814,0-17.629a2,2,0,0,1,.547-1.6,1.613,1.613,0,0,1,1.09-.474q.244,0,.487,0h33.457c.162,0,.325,0,.487.006a1.712,1.712,0,0,1,1.619,1.484,5.356,5.356,0,0,1,.027.778c0,5.99.035,11.981-.013,17.97a12.139,12.139,0,0,1-3.641,8.81,18.448,18.448,0,0,0-3.031,3.667,7.7,7.7,0,0,0-1.114,4.028c.02,3.117,0,6.233.008,9.35a1.523,1.523,0,0,0,1.262,1.755A.445.445,0,0,1,794.958,30.837Z" transform="translate(-4.355 -18.049)" fill="#fef7a9"/>
    <path id="Path_209716" data-name="Path 209716" d="M790.6,26.233a1.554,1.554,0,0,1-1.66-1.732c0-3.085.047-6.17-.017-9.253a8.872,8.872,0,0,1,2.058-5.731c.744-.97,1.659-1.779,2.484-2.671a12.194,12.194,0,0,0,3.18-7.107,43.8,43.8,0,0,0,.086-4.815c.013-4.886-.018-9.774.023-14.66a1.755,1.755,0,0,0-1.865-1.9q-16.876.044-33.752,0a1.739,1.739,0,0,0-1.833,1.83c.032,5.991.007,11.981.019,17.972a12.5,12.5,0,0,0,4,9.43,12.952,12.952,0,0,1,3.282,4.538,6.921,6.921,0,0,1,.511,2.6q-.006,11.153-.013,22.306c0,.47.115.591.588.589q10.374-.023,20.748,0c.422,0,.51-.134.506-.523-.017-2.013-.01-4.026-.009-6.039a1.6,1.6,0,0,1,1.564-1.749,1.581,1.581,0,0,1,1.559,1.793q0,4.042,0,8.083a7.758,7.758,0,0,1-7.8,7.786q-6.209.005-12.417,0A7.754,7.754,0,0,1,764,39.157c0-7.872-.028-15.745.021-23.617a6.461,6.461,0,0,0-1.551-4.278c-.8-.987-1.8-1.781-2.608-2.757A15.829,15.829,0,0,1,756.3.171a19.763,19.763,0,0,1-.1-2.429q0-8.814,0-17.628a4.65,4.65,0,0,1,4.867-4.865A7.54,7.54,0,0,0,763-24.824c1.109-.127,2.222-.033,3.333-.052,1.009-.02,2.018.022,3.027-.031.936.053,1.873.02,2.809.028a1.942,1.942,0,0,1,.623.063.8.8,0,0,0,.473.07q4.767,0,9.534,0a.8.8,0,0,0,.473-.069,9,9,0,0,1,1.737-.058c.564-.015,1.13,0,1.694-.033,1.008.061,2.016.007,3.025.034,1.114.018,2.228-.076,3.34.051a9.4,9.4,0,0,0,2.126.073,4.582,4.582,0,0,1,3,1.091,4.426,4.426,0,0,1,1.67,3.482c.01,6.25.05,12.5-.011,18.75A15.268,15.268,0,0,1,795.03,9.745a11.926,11.926,0,0,0-2.428,3.021,4.674,4.674,0,0,0-.54,2.2c.01,3.2.006,6.4,0,9.594A1.537,1.537,0,0,1,790.6,26.233Z" transform="translate(0 -13.445)" fill="#feb728"/>
    <path id="Path_209717" data-name="Path 209717" d="M776.317-38.2c-1.033.007-2.066.016-3.1.017a.947.947,0,0,1-.268-.084c1.153-2.781,2.3-5.564,3.462-8.342a1.452,1.452,0,0,1,1.412-.932,1.422,1.422,0,0,1,1.433.9c1.175,2.789,2.326,5.589,3.485,8.385a7.315,7.315,0,0,1-1.954.071,3.667,3.667,0,0,1-1.425-.074c-.24-.054-.245-.28-.315-.447-.382-.911-.742-1.831-1.148-2.729-.2.028-.2.184-.24.291-.341.825-.688,1.648-1.033,2.471C776.553-38.5,776.519-38.3,776.317-38.2Z" transform="translate(-9.951)" fill="#fe554e"/>
    <path id="Path_209718" data-name="Path 209718" d="M832.676-38.269c-.218.162-.469.084-.7.084-.887,0-1.775-.011-2.663-.019-.229-.117-.257-.36-.344-.562-.394-.914-.764-1.839-1.181-2.813-.451,1-.816,1.965-1.235,2.9-.066.148-.065.362-.286.408a1.406,1.406,0,0,1-.847.078,13.988,13.988,0,0,1-2.535-.076c1.153-2.781,2.3-5.565,3.463-8.341a1.448,1.448,0,0,1,1.409-.938,1.453,1.453,0,0,1,1.46.931C830.376-43.834,831.523-41.05,832.676-38.269Z" transform="translate(-39.611 -0.001)" fill="#fe554e"/>
    <path id="Path_209719" data-name="Path 209719" d="M787.144-9.138h13.78c1.244,0,1.827.574,1.828,1.8q0,9.082,0,18.162c0,1.308-.559,1.871-1.859,1.871q-13.78,0-27.56,0a1.57,1.57,0,0,1-1.779-1.755q0-9.155,0-18.309a1.567,1.567,0,0,1,1.76-1.77Q780.229-9.14,787.144-9.138Z" transform="translate(-9.122 -22.813)" fill="#1193fe"/>
    <path id="Path_209720" data-name="Path 209720" d="M807.682,68.13a16.452,16.452,0,0,1-.089,2.3,4.622,4.622,0,0,1-4.58,3.732,4.508,4.508,0,0,1-4.569-3.719,15.2,15.2,0,0,1,.024-5.13,4.324,4.324,0,0,1,3.19-3.416,4.69,4.69,0,0,1,6.024,4.5C807.685,66.913,807.682,67.432,807.682,68.13Z" transform="translate(-24.972 -64.875)" fill="#feb728"/>
    <path id="Path_209721" data-name="Path 209721" d="M794.486,136.817h10.129c.544,0,.554.007.307.484a4.467,4.467,0,0,1-4.166,2.62q-6.258.034-12.516,0a4.476,4.476,0,0,1-4.152-2.567c-.284-.532-.272-.539.317-.54Z" transform="translate(-16.46 -109.513)" fill="#fef7a9"/>
    <path id="Path_209722" data-name="Path 209722" d="M831.211-30.061l1.517-3.67L834.257-30A20.568,20.568,0,0,1,831.211-30.061Z" transform="translate(-44.559 -8.205)" fill="#fde2d6"/>
    <path id="Path_209723" data-name="Path 209723" d="M781.243-29.994l1.524-3.73,1.522,3.668a7.849,7.849,0,0,1-1.831.075C782.054-29.967,781.648-29.989,781.243-29.994Z" transform="translate(-14.878 -8.209)" fill="#fbe1d5"/>
    <path id="Path_209724" data-name="Path 209724" d="M791.74-1.456c3.993,0,7.987.006,11.981-.009.392,0,.482.111.481.488q-.02,7.281,0,14.561c0,.453-.126.557-.565.556q-11.932-.02-23.863,0c-.442,0-.531-.124-.53-.542q.022-7.28,0-14.561c0-.417.124-.5.518-.5C783.753-1.45,787.746-1.456,791.74-1.456Z" transform="translate(-13.688 -27.372)" fill="#b2fcfd"/>
    <path id="Path_209725" data-name="Path 209725" d="M806.14,72.456c0-.486-.01-.972,0-1.458a1.552,1.552,0,1,1,3.1-.025q.028,1.555,0,3.111a1.553,1.553,0,1,1-3.1-.024C806.128,73.525,806.14,72.99,806.14,72.456Z" transform="translate(-29.664 -69.471)" fill="#fefefe"/>
    <path id="Path_209726" data-name="Path 209726" d="M811.645,6.222c1.248,0,2.5,0,3.744,0a1.563,1.563,0,1,1,.016,3.122q-3.841.015-7.683,0a1.561,1.561,0,1,1,.033-3.121C809.052,6.216,810.349,6.222,811.645,6.222Z" transform="translate(-29.664 -31.937)" fill="#1193fe"/>
    <path id="Path_209727" data-name="Path 209727" d="M793.892,23.161a1.561,1.561,0,1,1-1.563-1.566A1.553,1.553,0,0,1,793.892,23.161Z" transform="translate(-20.537 -41.07)" fill="#1193fe"/>
    <path id="Path_209728" data-name="Path 209728" d="M811.179,23.176a1.56,1.56,0,1,1-1.514-1.58A1.558,1.558,0,0,1,811.179,23.176Z" transform="translate(-30.807 -41.07)" fill="#1193fe"/>
    <path id="Path_209729" data-name="Path 209729" d="M826.924,21.595a1.56,1.56,0,0,1-.047,3.12,1.56,1.56,0,1,1,.047-3.12Z" transform="translate(-41.071 -41.07)" fill="#1193fe"/>
  </g>
</svg>
