<svg xmlns="http://www.w3.org/2000/svg" xmlns:xlink="http://www.w3.org/1999/xlink" width="610" height="227.529" viewBox="0 0 610 227.529">
  <defs>
    <clipPath id="clip-path">
      <rect id="Rectangle_45314" data-name="Rectangle 45314" width="119.244" height="30.046" fill="none"/>
    </clipPath>
    <clipPath id="clip-path-2">
      <path id="Path_215759" data-name="Path 215759" d="M2728.6,1683.168s-21.343,3.372-31.027,0-6.689-12.8-5.913-14.687,4.215-6.729,6.323-8.3,13.3-4.769,16.188-3.67S2732.259,1676.445,2728.6,1683.168Z" transform="translate(-2690.609 -1656.285)" fill="none"/>
    </clipPath>
    <clipPath id="clip-path-3">
      <path id="Path_215780" data-name="Path 215780" d="M500.617,341.4H241.573s12.8-127.323,22.241-145.068,55.786-63.671,68.3-64.13,49.386-11.215,69.378,2.637S465.9,221.6,465.9,221.6s39.141,17.959,39.929,31.25S500.617,341.4,500.617,341.4Z" transform="translate(-241.573 -127.786)" fill="none"/>
    </clipPath>
  </defs>
  <g id="Group_152422" data-name="Group 152422" transform="translate(0 0.059)">
    <g id="Group_152141" data-name="Group 152141" transform="translate(0.057 -0.059)">
      <rect id="Rectangle_45299" data-name="Rectangle 45299" width="609.886" height="227.529" fill="#fff"/>
    </g>
    <g id="Group_152142" data-name="Group 152142" transform="translate(26.165 122.887)">
      <path id="Path_215667" data-name="Path 215667" d="M479.956,1155.773c-4.034-10.877-11.288-17.955-19.37-18.895-10.762-1.252-25.834-2.623-35.667-1.915-16.739,1.2-83.1,12.048-102.275,14.458s-40.976,0-56.547,7.831-24.524,22.99-24.524,22.99H489.031Z" transform="translate(-241.573 -1134.77)" fill="#ffe3de"/>
    </g>
    <g id="Group_152143" data-name="Group 152143" transform="translate(0 168.359)">
      <rect id="Rectangle_45300" data-name="Rectangle 45300" width="610" height="59.072" fill="#5cbec6"/>
    </g>
    <g id="Group_152265" data-name="Group 152265" transform="translate(183.414 -0.019)">
      <g id="Group_152179" data-name="Group 152179" transform="translate(247.258 35.353)">
        <g id="Group_152148" data-name="Group 152148" transform="translate(47.041 29.711)">
          <g id="Group_152144" data-name="Group 152144" transform="translate(0 9.898)">
            <path id="Path_215668" data-name="Path 215668" d="M4410.661,698.357l.035-6.25,4.426.025,12.08,4.012-.046,8.3-16.529-.092Z" transform="translate(-4410.628 -692.107)" fill="#cdd2d3"/>
          </g>
          <g id="Group_152147" data-name="Group 152147" transform="translate(3.228)">
            <g id="Group_152145" data-name="Group 152145">
              <path id="Path_215669" data-name="Path 215669" d="M4441.252,600.83a4.353,4.353,0,0,1,1.986.011l1.313,11.017c.031.263-.307.474-.689.432a10.831,10.831,0,0,1-1.714-.33,2.919,2.919,0,0,1-1.657-.893.292.292,0,0,1-.056-.2Z" transform="translate(-4440.434 -600.721)" fill="#cdd2d3"/>
            </g>
            <g id="Group_152146" data-name="Group 152146" transform="translate(4.807 1.613)">
              <path id="Path_215670" data-name="Path 215670" d="M4486.623,615.618a2.252,2.252,0,0,1,.993.12l1.313,11.017c.031.263-.307.474-.689.432a10.864,10.864,0,0,1-1.715-.33,2.921,2.921,0,0,1-1.657-.893.3.3,0,0,1-.055-.2l.817-10.042A2.251,2.251,0,0,1,4486.623,615.618Z" transform="translate(-4484.811 -615.618)" fill="#cdd2d3"/>
            </g>
          </g>
        </g>
        <g id="Group_152153" data-name="Group 152153" transform="translate(29.031 20.486)">
          <g id="Group_152149" data-name="Group 152149" transform="translate(0 17.509)">
            <path id="Path_215671" data-name="Path 215671" d="M4263.893,677.206l-19.3.044-.25,27.091,19.945-.088Z" transform="translate(-4244.341 -677.206)" fill="#5d677a"/>
          </g>
          <g id="Group_152152" data-name="Group 152152" transform="translate(5.42)">
            <g id="Group_152150" data-name="Group 152150" transform="translate(5.63 2.417)">
              <path id="Path_215672" data-name="Path 215672" d="M4350.442,538.675c0-.1-.516-.357-1.154-.568s-1.157-.3-1.158-.2l-1.764,17.333a1,1,0,0,0,.793.972,8.733,8.733,0,0,0,2,.14c1.319-.068,1.79-.541,1.948-.794a.506.506,0,0,0,.069-.3Z" transform="translate(-4346.362 -537.869)" fill="#5d677a"/>
            </g>
            <g id="Group_152151" data-name="Group 152151">
              <path id="Path_215673" data-name="Path 215673" d="M4297.309,515.788c-.639-.211-1.157-.3-1.158-.2l-1.765,17.333a1,1,0,0,0,.793.972,8.735,8.735,0,0,0,2,.14c1.319-.068,1.79-.541,1.948-.794a.506.506,0,0,0,.069-.3l-.736-16.591C4298.464,516.254,4297.947,516,4297.309,515.788Z" transform="translate(-4294.383 -515.55)" fill="#5d677a"/>
            </g>
          </g>
        </g>
        <g id="Group_152163" data-name="Group 152163" transform="translate(0 13.212)">
          <g id="Group_152154" data-name="Group 152154" transform="translate(17.604)">
            <path id="Path_215674" data-name="Path 215674" d="M4144.089,448.653c0-.156-.752-.272-1.675-.258s-1.669.152-1.667.308l-1.9,27.226a1,1,0,0,0,1.172,1.059,13.168,13.168,0,0,0,2.875-.835,4.939,4.939,0,0,0,2.763-2.225.988.988,0,0,0,.089-.484Z" transform="translate(-4138.844 -448.393)" fill="#434a59"/>
          </g>
          <g id="Group_152155" data-name="Group 152155" transform="translate(9.511 0.625)">
            <path id="Path_215675" data-name="Path 215675" d="M4067.69,454.168c-.923.014-1.669.152-1.667.308l-1.9,27.226a1,1,0,0,0,1.172,1.06,13.154,13.154,0,0,0,2.875-.836,4.938,4.938,0,0,0,2.763-2.225.985.985,0,0,0,.088-.484l-1.655-24.792C4069.363,454.269,4068.613,454.154,4067.69,454.168Z" transform="translate(-4064.12 -454.166)" fill="#434a59"/>
          </g>
          <g id="Group_152156" data-name="Group 152156" transform="translate(0 22.816)">
            <rect id="Rectangle_45301" data-name="Rectangle 45301" width="35.783" height="21.692" transform="matrix(1, -0.015, 0.015, 1, 0, 0.54)" fill="#434a59"/>
          </g>
          <g id="Group_152159" data-name="Group 152159" transform="translate(18.769 3.41)">
            <g id="Group_152157" data-name="Group 152157" transform="translate(0.323)">
              <path id="Path_215676" data-name="Path 215676" d="M4152.777,479.937l-.2,2.8,4.155-.063-.187-2.793Z" transform="translate(-4152.582 -479.88)" fill="#d47328"/>
            </g>
            <g id="Group_152158" data-name="Group 152158" transform="translate(0 4.614)">
              <path id="Path_215677" data-name="Path 215677" d="M4154.386,525.271l-.187-2.793-4.4.066-.2,2.8Z" transform="translate(-4149.601 -522.479)" fill="#d47328"/>
            </g>
          </g>
          <g id="Group_152162" data-name="Group 152162" transform="translate(10.697 3.328)">
            <g id="Group_152160" data-name="Group 152160" transform="translate(0.341)">
              <path id="Path_215678" data-name="Path 215678" d="M4078.421,479.177l-.206,2.953,4.079-.062-.2-2.947Z" transform="translate(-4078.215 -479.122)" fill="#d47328"/>
            </g>
            <g id="Group_152161" data-name="Group 152161" transform="translate(0 4.869)">
              <path id="Path_215679" data-name="Path 215679" d="M4079.813,527.024l-.2-2.947-4.342.066-.206,2.953Z" transform="translate(-4075.068 -524.077)" fill="#d47328"/>
            </g>
          </g>
        </g>
        <g id="Group_152167" data-name="Group 152167" transform="translate(36.777)">
          <g id="Group_152164" data-name="Group 152164" transform="translate(0 16.611)">
            <path id="Path_215680" data-name="Path 215680" d="M4319.25,480.461c-1.013-.768-3.039-1.141-3.353.217s1.708,1.421,1.708,1.421C4319.573,482.212,4320.264,481.23,4319.25,480.461Z" transform="translate(-4315.864 -479.771)" fill="#e7f2f2"/>
          </g>
          <g id="Group_152165" data-name="Group 152165" transform="translate(0.175 18.232)">
            <path id="Path_215681" data-name="Path 215681" d="M4319.895,495.375c-.7-.741-2.122-1.06-2.379.3s1.172,1.374,1.172,1.374C4320.078,497.113,4320.592,496.115,4319.895,495.375Z" transform="translate(-4317.484 -494.737)" fill="#e7f2f2"/>
          </g>
          <g id="Group_152166" data-name="Group 152166" transform="translate(0.103)">
            <path id="Path_215682" data-name="Path 215682" d="M4362.536,330.618c-2.451-1.264-6.787-2.1-8.852-1.056a9.012,9.012,0,0,0-6.444-3.156c-3.026.018-4.956.383-6.312,1.183a11.515,11.515,0,0,0-4.289-.9c-8.58.052-11.278,1.959-13.405,6.637a3.511,3.511,0,0,0-.359,1.616c-2.479-.262-3.416.5-4.322,2.428a1.6,1.6,0,0,0,0,1.6c-1.2.2-2.068,1.057-1.606,2.033.743,1.572,3.6,1.51,3.6,1.51,1.1-.17,1.722-.779,1.592-1.524,1.474.486,3.122.508,4.052-.909a2.416,2.416,0,0,0,.189-2.049,14.056,14.056,0,0,0,2.636.475c5.209,1.748,14.6,3.144,18-1.863a3.5,3.5,0,0,0,.551-1.3c2.662.138,5.294-.368,6.6-2.292q.036-.054.069-.109a13.5,13.5,0,0,0,3.573.706C4363.651,334.049,4365.609,332.2,4362.536,330.618Z" transform="translate(-4316.816 -326.406)" fill="#e7f2f2"/>
          </g>
        </g>
        <g id="Group_152171" data-name="Group 152171" transform="translate(51.596 19.401)">
          <g id="Group_152168" data-name="Group 152168" transform="translate(0 8.009)">
            <path id="Path_215683" data-name="Path 215683" d="M4454.7,579.889c-.6-.458-1.81-.679-2,.129s1.017.846,1.017.846C4454.89,580.932,4455.3,580.347,4454.7,579.889Z" transform="translate(-4452.681 -579.479)" fill="#e7f2f2"/>
          </g>
          <g id="Group_152169" data-name="Group 152169" transform="translate(0.355 3.905)">
            <path id="Path_215684" data-name="Path 215684" d="M4458.96,541.633c-1.3-.187-1.757.154-2.2,1.091a.739.739,0,0,0,0,.738c-.551.092-.952.486-.739.935.342.723,1.657.695,1.657.695.509-.078.792-.359.732-.7a1.51,1.51,0,0,0,1.865-.418C4460.809,543.16,4459.825,541.757,4458.96,541.633Z" transform="translate(-4455.963 -541.583)" fill="#e7f2f2"/>
          </g>
          <g id="Group_152170" data-name="Group 152170" transform="translate(3.141)">
            <path id="Path_215685" data-name="Path 215685" d="M4492.9,505.533a5.8,5.8,0,0,0-2.9.544,5.3,5.3,0,0,0-1.974-.414c-3.948.024-5.19.9-6.168,3.054s2.66,2.386,2.66,2.386c2.4.8,6.72,1.447,8.284-.857a1.6,1.6,0,0,0,.253-.6,3.324,3.324,0,0,0,3.037-1.055C4496.95,507.313,4494.65,505.522,4492.9,505.533Z" transform="translate(-4481.682 -505.533)" fill="#e7f2f2"/>
          </g>
        </g>
        <g id="Group_152178" data-name="Group 152178" transform="translate(3.901 39.151)">
          <g id="Group_152172" data-name="Group 152172">
            <rect id="Rectangle_45302" data-name="Rectangle 45302" width="2.573" height="1.654" fill="#30353f"/>
          </g>
          <g id="Group_152173" data-name="Group 152173" transform="translate(5.146)">
            <rect id="Rectangle_45303" data-name="Rectangle 45303" width="2.573" height="1.654" fill="#30353f"/>
          </g>
          <g id="Group_152174" data-name="Group 152174" transform="translate(10.292)">
            <rect id="Rectangle_45304" data-name="Rectangle 45304" width="2.573" height="1.654" fill="#30353f"/>
          </g>
          <g id="Group_152175" data-name="Group 152175" transform="translate(15.439)">
            <rect id="Rectangle_45305" data-name="Rectangle 45305" width="2.573" height="1.654" fill="#30353f"/>
          </g>
          <g id="Group_152176" data-name="Group 152176" transform="translate(20.585)">
            <rect id="Rectangle_45306" data-name="Rectangle 45306" width="2.573" height="1.654" fill="#30353f"/>
          </g>
          <g id="Group_152177" data-name="Group 152177" transform="translate(25.731)">
            <rect id="Rectangle_45307" data-name="Rectangle 45307" width="2.573" height="1.654" fill="#30353f"/>
          </g>
        </g>
      </g>
      <g id="Group_152180" data-name="Group 152180" transform="translate(24.763 34.874)">
        <path id="Path_215686" data-name="Path 215686" d="M1991.665,322a6,6,0,0,0-5.581,3.789c-.651,1.688-.545,3.726,1.888,5.634,5.563,4.361,11.76.607,11.564,5.651s-28.043-1.421-37.345,4.979-.616,8.987,5.334,10.729,12.187,1.477,11.576,3.061-36.5-3.342-47.326,2.948-13.92,16.583-2.473,21.069,87.228.264,95.128,0,76.259,1.6,74.8-5.015-3.411-35.214-21.538-44.541C2061.668,322.056,2004.672,321.919,1991.665,322Z" transform="translate(-1922.061 -321.987)" fill="#e7f2f2"/>
      </g>
      <g id="Group_152202" data-name="Group 152202" transform="translate(325.092 62.44)">
        <g id="Group_152189" data-name="Group 152189" transform="translate(0 8.966)">
          <g id="Group_152184" data-name="Group 152184" transform="translate(28.34 4.709)">
            <g id="Group_152181" data-name="Group 152181">
              <path id="Path_215687" data-name="Path 215687" d="M4962.876,717.13h-6.285V704.581l3.142-1.825,3.143,1.825Z" transform="translate(-4956.591 -702.756)" fill="#cdd2d3"/>
            </g>
            <g id="Group_152182" data-name="Group 152182" transform="translate(0.878 2.996)">
              <rect id="Rectangle_45308" data-name="Rectangle 45308" width="1.065" height="2.206" fill="#cdd2d3"/>
            </g>
            <g id="Group_152183" data-name="Group 152183" transform="translate(3.874 6.578)">
              <rect id="Rectangle_45309" data-name="Rectangle 45309" width="1.065" height="1.64" fill="#cdd2d3"/>
            </g>
          </g>
          <g id="Group_152185" data-name="Group 152185" transform="translate(0 0.389)">
            <rect id="Rectangle_45310" data-name="Rectangle 45310" width="7.03" height="18.694" fill="#cdd2d3"/>
          </g>
          <g id="Group_152186" data-name="Group 152186" transform="translate(18.514)">
            <path id="Path_215688" data-name="Path 215688" d="M4875.307,659.277h-9.441v1.794h.613V678.36h8.215V661.071h.613Z" transform="translate(-4865.866 -659.277)" fill="#cdd2d3"/>
          </g>
          <g id="Group_152187" data-name="Group 152187" transform="translate(5.334 7.175)">
            <rect id="Rectangle_45311" data-name="Rectangle 45311" width="8.726" height="11.908" fill="#cdd2d3"/>
          </g>
          <g id="Group_152188" data-name="Group 152188" transform="translate(11.28 2.214)">
            <path id="Path_215689" data-name="Path 215689" d="M4807.8,696.588h-8.726V682.514l4.363-2.795,4.363,2.795Z" transform="translate(-4799.077 -679.719)" fill="#cdd2d3"/>
          </g>
        </g>
        <g id="Group_152190" data-name="Group 152190" transform="translate(34.079 17.078)">
          <path id="Path_215690" data-name="Path 215690" d="M5019.047,736.561h-2.409l-2.232-2.391-2.232,2.391h-2.409l-.187,1.84h.442v6.74h8.771V738.4h.442Z" transform="translate(-5009.577 -734.17)" fill="#cdd2d3"/>
        </g>
        <g id="Group_152191" data-name="Group 152191" transform="translate(41.251 5.743)">
          <rect id="Rectangle_45312" data-name="Rectangle 45312" width="7.611" height="22.306" fill="#cdd2d3"/>
        </g>
        <g id="Group_152192" data-name="Group 152192" transform="translate(42.448 1.948)">
          <rect id="Rectangle_45313" data-name="Rectangle 45313" width="5.215" height="8.704" rx="2.608" fill="#cdd2d3"/>
        </g>
        <g id="Group_152193" data-name="Group 152193" transform="translate(43.27)">
          <path id="Path_215691" data-name="Path 215691" d="M5096.219,576.495a1.7,1.7,0,0,0-1.786,1.586v2.79a1.8,1.8,0,0,0,3.572,0v-2.79A1.7,1.7,0,0,0,5096.219,576.495Z" transform="translate(-5094.433 -576.495)" fill="#cdd2d3"/>
        </g>
        <g id="Group_152194" data-name="Group 152194" transform="translate(47.308 11.546)">
          <path id="Path_215692" data-name="Path 215692" d="M5147.417,703.267l-15.7-3.669v-16.5h15.7Z" transform="translate(-5131.717 -683.095)" fill="#cdd2d3"/>
        </g>
        <g id="Group_152197" data-name="Group 152197" transform="translate(57.899 8.453)">
          <g id="Group_152195" data-name="Group 152195" transform="translate(0.383 1.059)">
            <path id="Path_215693" data-name="Path 215693" d="M5234.824,664.319a1.7,1.7,0,0,0-1.786,1.586v2.79a1.8,1.8,0,0,0,3.572,0V665.9A1.7,1.7,0,0,0,5234.824,664.319Z" transform="translate(-5233.038 -664.319)" fill="#cdd2d3"/>
          </g>
          <g id="Group_152196" data-name="Group 152196">
            <path id="Path_215694" data-name="Path 215694" d="M5231.661,654.538l-2.163,2.388h4.339S5231.66,654.529,5231.661,654.538Z" transform="translate(-5229.498 -654.538)" fill="#cdd2d3"/>
          </g>
        </g>
        <g id="Group_152200" data-name="Group 152200" transform="translate(51.631 8.453)">
          <g id="Group_152198" data-name="Group 152198" transform="translate(0.383 1.059)">
            <path id="Path_215695" data-name="Path 215695" d="M5176.957,664.319a1.7,1.7,0,0,0-1.786,1.586v2.79a1.8,1.8,0,0,0,3.572,0V665.9A1.7,1.7,0,0,0,5176.957,664.319Z" transform="translate(-5175.171 -664.319)" fill="#cdd2d3"/>
          </g>
          <g id="Group_152199" data-name="Group 152199">
            <path id="Path_215696" data-name="Path 215696" d="M5173.794,654.538l-2.163,2.388h4.339S5173.793,654.529,5173.794,654.538Z" transform="translate(-5171.631 -654.538)" fill="#cdd2d3"/>
          </g>
        </g>
        <g id="Group_152201" data-name="Group 152201" transform="translate(60.631 3.811)">
          <path id="Path_215697" data-name="Path 215697" d="M5295.586,611.677h-4.566v15.045c-.33-.037-.63-.081-.9-.132v-6.646h-4.566v6.021c-.642.011-1.292.052-1.94.11v-10.94h-1.082v-.794a2.7,2.7,0,0,0-5.356,0v.794H5276.1v3.513h-2.925v-3.46h-1.432v-1.961h-2.567v1.961h-1.552v11.019c-.545.034-1.093.074-1.637.121V614.923h-3.149l-3.149,5v7.356q-.209.056-.4.114v-4.42h-4.566v23.112h40.863Z" transform="translate(-5254.723 -611.677)" fill="#cdd2d3"/>
        </g>
      </g>
      <g id="Group_152207" data-name="Group 152207" transform="translate(205.328 49.308)">
        <g id="Group_152204" data-name="Group 152204">
          <g id="Group_152203" data-name="Group 152203">
            <path id="Path_215698" data-name="Path 215698" d="M3626.541,476.681a36.711,36.711,0,0,1-2.732-17.464l.345-3.964h-23.3l.345,3.964a36.711,36.711,0,0,1-2.732,17.464l-9.283,21.891h46.645Z" transform="translate(-3589.179 -455.253)" fill="#cdd2d3"/>
          </g>
        </g>
        <g id="Group_152206" data-name="Group 152206" transform="translate(11.931 5.66)">
          <g id="Group_152205" data-name="Group 152205">
            <path id="Path_215699" data-name="Path 215699" d="M3722.118,513.087a37.085,37.085,0,0,1-.192-5.58h-22.4a37.054,37.054,0,0,1-.192,5.58h22.782Z" transform="translate(-3699.336 -507.507)" fill="#dde3e4"/>
          </g>
        </g>
      </g>
      <g id="Group_152212" data-name="Group 152212" transform="translate(155.736 34.631)">
        <g id="Group_152209" data-name="Group 152209">
          <g id="Group_152208" data-name="Group 152208">
            <path id="Path_215700" data-name="Path 215700" d="M3187.8,352.142a55.512,55.512,0,0,1-4.132-26.407l.521-5.995h-35.239l.521,5.995a55.511,55.511,0,0,1-4.131,26.407l-14.037,33.1h70.533Z" transform="translate(-3131.305 -319.74)" fill="#778191"/>
          </g>
        </g>
        <g id="Group_152211" data-name="Group 152211" transform="translate(18.042 8.558)">
          <g id="Group_152210" data-name="Group 152210">
            <path id="Path_215701" data-name="Path 215701" d="M3332.329,407.193a56.058,56.058,0,0,1-.291-8.438h-33.869a56.094,56.094,0,0,1-.291,8.438h34.45Z" transform="translate(-3297.879 -398.755)" fill="#88909e"/>
          </g>
        </g>
      </g>
      <g id="Group_152217" data-name="Group 152217" transform="translate(99.508 21.865)">
        <g id="Group_152214" data-name="Group 152214">
          <g id="Group_152213" data-name="Group 152213">
            <path id="Path_215702" data-name="Path 215702" d="M2686.312,244.405a72.862,72.862,0,0,1-5.423-34.661l.684-7.868h-46.251l.684,7.868a72.869,72.869,0,0,1-5.423,34.661l-18.424,43.449h92.577Z" transform="translate(-2612.159 -201.876)" fill="#5d677a"/>
          </g>
        </g>
        <g id="Group_152216" data-name="Group 152216" transform="translate(23.68 11.233)">
          <g id="Group_152215" data-name="Group 152215">
            <path id="Path_215703" data-name="Path 215703" d="M2876.009,316.661a73.587,73.587,0,0,1-.382-11.075h-44.454a73.655,73.655,0,0,1-.382,11.076h45.217Z" transform="translate(-2830.792 -305.586)" fill="#778191"/>
          </g>
        </g>
      </g>
      <g id="Group_152218" data-name="Group 152218" transform="translate(0 83.309)">
        <path id="Path_215704" data-name="Path 215704" d="M1693.426,862.219a105,105,0,0,0,15.189-7.089,142.482,142.482,0,0,0,31.54-23.281,121.23,121.23,0,0,0,17.977-22.43c5.5-8.877,10.958-18.161,15.7-27.094a13.062,13.062,0,0,1,9.955-6.758,1188.289,1188.289,0,0,1,151.855-6.046q24.133.589,48.217,2.162c16.553,1.051,33.094,2,49.611,3.485q35.5,3.2,70.7,8.513,7.93,1.2,15.838,2.505v76.033Z" transform="translate(-1693.426 -769.17)" fill="#ffc9bb"/>
      </g>
      <g id="Group_152219" data-name="Group 152219" transform="translate(0 92.576)">
        <path id="Path_215705" data-name="Path 215705" d="M2065.042,854.731c-.351.015-.695.033-1.028.052-19.616,1.138-10.615,6.481-9.45,7.509s16.771,3.522,27.014,5.472,8.79,7.8,4.238,12.674-9.357,5.524-21.8,8.774-28.551,37.7-39.226,38.3-25.928-6.449-33.72-9.4-21.491-2.9-33.571,0-28.551,1.328-37.691,0-10.259-6.146-15.965-8.026-36.388,2.855-45.553,8.026-16.458,5.228-25.609,3.15-21.6,5.652-28.917,7.961-21.6-11.407-20.7-17.6-12.241-6.8-26.883,0a65.408,65.408,0,0,1-26.269,5.636,146.566,146.566,0,0,1-21.293,14.177,105,105,0,0,1-15.189,7.089h426.585V862.48q-7.908-1.306-15.838-2.505Q2084.665,857.026,2065.042,854.731Z" transform="translate(-1693.426 -854.731)" fill="#efa495"/>
      </g>
      <g id="Group_152220" data-name="Group 152220" transform="translate(81.253 78.366)">
        <path id="Path_215706" data-name="Path 215706" d="M2445.093,736.11c-1.024-.734-2.011-2.219-1.15-3.385.811-1.1,2.472-1.406,3.841-1.679,4.033-.8,8.181-1.236,12.263-1.795,22.519-3.085,45.536-3.8,68.269-4.711q38.728-1.548,77.505-.707c3.426.074,6.877.212,10.286.236,19.813.139,39.948,1.824,59.762,3.51,30.863,2.627,61.593,1.443,92.071,6.491q10.524,1.743,21.007,3.677V752.06q-10.226-1.86-20.492-3.543-46.693-7.653-94.031-11.591c-23.9-1.992-47.829-3.019-71.8-3.96-8.774-.344-17.58-.307-26.359-.269-26.824.115-53.627,1.138-80.4,2.512-11.447.587-22.894,1.294-34.353,1.67-3.675.12-7.366.231-11.042.087C2448.853,736.9,2446.356,737.015,2445.093,736.11Z" transform="translate(-2443.615 -723.538)" fill="#36995e"/>
      </g>
      <g id="Group_152233" data-name="Group 152233" transform="translate(128.327 113.725)">
        <g id="Group_152221" data-name="Group 152221" transform="translate(25.995 8.002)">
          <path id="Path_215707" data-name="Path 215707" d="M3147.162,1123.881s14.527,23.231,6.986,33.628c-10.722,14.783-35.9-4.711-35.9-4.711Z" transform="translate(-3118.245 -1123.881)" fill="#efa495"/>
        </g>
        <g id="Group_152222" data-name="Group 152222" transform="translate(18.664)">
          <path id="Path_215708" data-name="Path 215708" d="M3075.218,1050c7.825,0,14.168,8.43,14.168,18.829s-6.343,18.829-14.168,18.829h-24.656V1050Z" transform="translate(-3050.562 -1050)" fill="#959a9b"/>
        </g>
        <g id="Group_152223" data-name="Group 152223" transform="translate(4.496)">
          <ellipse id="Ellipse_4250" data-name="Ellipse 4250" cx="14.168" cy="18.829" rx="14.168" ry="18.829" fill="#434a59"/>
        </g>
        <g id="Group_152224" data-name="Group 152224" transform="translate(6.423 24.841)">
          <path id="Path_215709" data-name="Path 215709" d="M2937.545,1282.828c2.457,5.589,7.019,9.345,12.241,9.345,5.56,0,10.371-4.257,12.69-10.451-.734-1.443-1.25-2.365-1.25-2.365h-23.681Z" transform="translate(-2937.545 -1279.356)" fill="#36995e"/>
        </g>
        <g id="Group_152225" data-name="Group 152225" transform="translate(4.496)">
          <path id="Path_215710" data-name="Path 215710" d="M2933.922,1051.927c3.164,0,6.175,1.686,8.479,4.746a21.517,21.517,0,0,1,0,24.311c-2.3,3.061-5.314,4.747-8.479,4.747s-6.175-1.686-8.478-4.747a21.517,21.517,0,0,1,0-24.311c2.3-3.061,5.314-4.746,8.478-4.746Zm0-1.927c-7.824,0-14.168,8.43-14.168,18.829s6.343,18.829,14.168,18.829,14.168-8.43,14.168-18.829S2941.746,1050,2933.922,1050Z" transform="translate(-2919.754 -1050)" fill="#ebeded"/>
        </g>
        <g id="Group_152226" data-name="Group 152226" transform="translate(0 24.841)">
          <path id="Path_215711" data-name="Path 215711" d="M2896.269,1279.356h-9.362a4.563,4.563,0,0,0-4.544,4.152l-4.121,45.669h29.032l-5.811-40.155-4.333-5.963Z" transform="translate(-2878.241 -1279.356)" fill="#36995e"/>
        </g>
        <g id="Group_152227" data-name="Group 152227" transform="translate(2.981 26.259)">
          <path id="Path_215712" data-name="Path 215712" d="M2906.252,1330.674h-.033a.487.487,0,0,1-.454-.519l1.712-25.628c.029-.86.3-8.065,1.629-9.957,1.41-2.012,4.865-2.121,5.012-2.125a.487.487,0,0,1,.025.974h0c-.031,0-3.112.1-4.238,1.709-.985,1.406-1.383,7.289-1.453,9.438v.016l-1.713,25.636A.488.488,0,0,1,2906.252,1330.674Z" transform="translate(-2905.764 -1292.445)" fill="#79d894"/>
        </g>
        <g id="Group_152228" data-name="Group 152228" transform="translate(6.921 37.17)">
          <path id="Path_215713" data-name="Path 215713" d="M2942.625,1425.512h-.011a.487.487,0,0,1-.477-.5l.685-31.353a.487.487,0,1,1,.975.021l-.685,31.353A.487.487,0,0,1,2942.625,1425.512Z" transform="translate(-2942.137 -1393.185)" fill="#79d894"/>
        </g>
        <g id="Group_152229" data-name="Group 152229" transform="translate(7.606 29.678)">
          <path id="Path_215714" data-name="Path 215714" d="M2948.951,1329.015h-.029a.487.487,0,0,1-.458-.515c.021-.367.249-3.612,1.656-4.426a.487.487,0,1,1,.488.844c-.683.395-1.1,2.365-1.17,3.639A.488.488,0,0,1,2948.951,1329.015Z" transform="translate(-2948.463 -1324.008)" fill="#79d894"/>
        </g>
        <g id="Group_152230" data-name="Group 152230" transform="translate(20.109 35.936)">
          <path id="Path_215715" data-name="Path 215715" d="M3067.647,1413.171a.487.487,0,0,1-.484-.436l-3.255-30.4a.488.488,0,1,1,.969-.1l3.254,30.4a.487.487,0,0,1-.433.536A.476.476,0,0,1,3067.647,1413.171Z" transform="translate(-3063.906 -1381.793)" fill="#79d894"/>
        </g>
        <g id="Group_152231" data-name="Group 152231" transform="translate(14.029 25.66)">
          <path id="Path_215716" data-name="Path 215716" d="M3018.959,1287.885h-10.705a.487.487,0,0,1,0-.975h10.705a.487.487,0,0,1,0,.975Z" transform="translate(-3007.767 -1286.91)" fill="#79d894"/>
        </g>
        <g id="Group_152232" data-name="Group 152232" transform="translate(28.067 1.44)">
          <path id="Path_215717" data-name="Path 215717" d="M3155.082,1064.266H3137.86a.487.487,0,0,1,0-.975h17.221a.487.487,0,1,1,0,.975Z" transform="translate(-3137.373 -1063.291)" fill="#fff"/>
        </g>
      </g>
      <g id="Group_152246" data-name="Group 152246" transform="translate(226.376 113.725)">
        <g id="Group_152234" data-name="Group 152234" transform="translate(25.995 8.002)">
          <path id="Path_215718" data-name="Path 215718" d="M4052.434,1123.881s14.527,23.231,6.986,33.628c-10.722,14.783-35.9-4.711-35.9-4.711Z" transform="translate(-4023.517 -1123.881)" fill="#efa495"/>
        </g>
        <g id="Group_152235" data-name="Group 152235" transform="translate(18.664)">
          <path id="Path_215719" data-name="Path 215719" d="M3980.489,1050c7.824,0,14.167,8.43,14.167,18.829s-6.343,18.829-14.167,18.829h-24.656V1050Z" transform="translate(-3955.833 -1050)" fill="#959a9b"/>
        </g>
        <g id="Group_152236" data-name="Group 152236" transform="translate(4.496)">
          <ellipse id="Ellipse_4251" data-name="Ellipse 4251" cx="14.168" cy="18.829" rx="14.168" ry="18.829" fill="#434a59"/>
        </g>
        <g id="Group_152237" data-name="Group 152237" transform="translate(6.423 24.841)">
          <path id="Path_215720" data-name="Path 215720" d="M3842.816,1282.828c2.457,5.589,7.019,9.345,12.241,9.345,5.56,0,10.37-4.257,12.69-10.451-.734-1.443-1.25-2.365-1.25-2.365h-23.681Z" transform="translate(-3842.816 -1279.356)" fill="#36995e"/>
        </g>
        <g id="Group_152238" data-name="Group 152238" transform="translate(4.496)">
          <path id="Path_215721" data-name="Path 215721" d="M3839.193,1051.927c3.164,0,6.175,1.686,8.478,4.746a21.515,21.515,0,0,1,0,24.311c-2.3,3.061-5.314,4.747-8.478,4.747s-6.176-1.686-8.479-4.747a21.518,21.518,0,0,1,0-24.311c2.3-3.061,5.314-4.746,8.479-4.746Zm0-1.927c-7.825,0-14.168,8.43-14.168,18.829s6.343,18.829,14.168,18.829,14.168-8.43,14.168-18.829S3847.017,1050,3839.193,1050Z" transform="translate(-3825.025 -1050)" fill="#ebeded"/>
        </g>
        <g id="Group_152239" data-name="Group 152239" transform="translate(0 24.841)">
          <path id="Path_215722" data-name="Path 215722" d="M3801.54,1279.356h-9.362a4.563,4.563,0,0,0-4.544,4.152l-4.122,45.669h29.033l-5.811-40.155-4.333-5.963Z" transform="translate(-3783.512 -1279.356)" fill="#36995e"/>
        </g>
        <g id="Group_152240" data-name="Group 152240" transform="translate(2.981 26.259)">
          <path id="Path_215723" data-name="Path 215723" d="M3811.524,1330.674h-.033a.487.487,0,0,1-.454-.519l1.712-25.628c.028-.86.3-8.065,1.629-9.957,1.41-2.012,4.865-2.121,5.012-2.125a.487.487,0,1,1,.024.974h0c-.031,0-3.111.1-4.238,1.709-.985,1.406-1.383,7.289-1.454,9.438v.016l-1.712,25.636A.488.488,0,0,1,3811.524,1330.674Z" transform="translate(-3811.036 -1292.445)" fill="#79d894"/>
        </g>
        <g id="Group_152241" data-name="Group 152241" transform="translate(6.921 37.17)">
          <path id="Path_215724" data-name="Path 215724" d="M3847.9,1425.512h-.011a.487.487,0,0,1-.477-.5l.685-31.353a.487.487,0,1,1,.975.021l-.685,31.353A.488.488,0,0,1,3847.9,1425.512Z" transform="translate(-3847.408 -1393.185)" fill="#79d894"/>
        </g>
        <g id="Group_152242" data-name="Group 152242" transform="translate(7.606 29.678)">
          <path id="Path_215725" data-name="Path 215725" d="M3854.222,1329.015h-.029a.487.487,0,0,1-.458-.515c.021-.367.249-3.612,1.656-4.426a.487.487,0,1,1,.488.844c-.683.395-1.1,2.365-1.17,3.639A.487.487,0,0,1,3854.222,1329.015Z" transform="translate(-3853.734 -1324.008)" fill="#79d894"/>
        </g>
        <g id="Group_152243" data-name="Group 152243" transform="translate(20.109 35.936)">
          <path id="Path_215726" data-name="Path 215726" d="M3972.918,1413.171a.488.488,0,0,1-.484-.436l-3.254-30.4a.487.487,0,1,1,.969-.1l3.254,30.4a.487.487,0,0,1-.433.536A.475.475,0,0,1,3972.918,1413.171Z" transform="translate(-3969.177 -1381.793)" fill="#79d894"/>
        </g>
        <g id="Group_152244" data-name="Group 152244" transform="translate(14.029 25.66)">
          <path id="Path_215727" data-name="Path 215727" d="M3924.23,1287.885h-10.705a.487.487,0,0,1,0-.975h10.705a.487.487,0,0,1,0,.975Z" transform="translate(-3913.038 -1286.91)" fill="#79d894"/>
        </g>
        <g id="Group_152245" data-name="Group 152245" transform="translate(28.067 1.44)">
          <path id="Path_215728" data-name="Path 215728" d="M4060.354,1064.266h-17.221a.487.487,0,0,1,0-.975h17.221a.487.487,0,0,1,0,.975Z" transform="translate(-4042.645 -1063.291)" fill="#fff"/>
        </g>
      </g>
      <g id="Group_152255" data-name="Group 152255" transform="translate(107.409 105.022)">
        <g id="Group_152247" data-name="Group 152247" transform="translate(0 2.677)">
          <path id="Path_215729" data-name="Path 215729" d="M2686.423,1004.978a40.86,40.86,0,0,0,7.211-7.255c2.462-3.574,5.276-4.224,7.739-2.274s-5.276,9.747-7.475,13.159S2681.549,1009.41,2686.423,1004.978Z" transform="translate(-2685.115 -994.368)" fill="#efa495"/>
        </g>
        <g id="Group_152248" data-name="Group 152248" transform="translate(14.148 10.526)">
          <path id="Path_215730" data-name="Path 215730" d="M2817.147,1073.385s3.166-6.015,7.035-6.5,3.693,2.439,1.231,6.5-5.1,5.2-8.266,4.549S2817.147,1073.385,2817.147,1073.385Z" transform="translate(-2815.74 -1066.832)" fill="#efa495"/>
        </g>
        <g id="Group_152249" data-name="Group 152249" transform="translate(96.776 11.237)">
          <path id="Path_215731" data-name="Path 215731" d="M3586.417,1076.363a2.049,2.049,0,0,0-2.254-2.931,2.423,2.423,0,0,0-1.647,1.123c-1.759,2.6-5.452,6.938-3.166,8.18s3.87-.544,5.1-2.819C3585.068,1078.771,3585.821,1077.422,3586.417,1076.363Z" transform="translate(-3578.624 -1073.401)" fill="#efa495"/>
        </g>
        <g id="Group_152250" data-name="Group 152250" transform="translate(106.902 7.816)">
          <path id="Path_215732" data-name="Path 215732" d="M3673.974,1042.973s-3.342,2.6-1.055,3.736,5.276,0,5.979-1.868S3675.824,1040.22,3673.974,1042.973Z" transform="translate(-3672.118 -1041.81)" fill="#efa495"/>
        </g>
        <g id="Group_152251" data-name="Group 152251" transform="translate(230.277 16.725)">
          <path id="Path_215733" data-name="Path 215733" d="M4813.069,1125.232s-3.341,2.6-1.055,3.737,5.276,0,5.979-1.868S4814.92,1122.479,4813.069,1125.232Z" transform="translate(-4811.214 -1124.069)" fill="#efa495"/>
        </g>
        <g id="Group_152252" data-name="Group 152252" transform="translate(23.908)">
          <path id="Path_215734" data-name="Path 215734" d="M2907.7,970.814s-3.342,2.6-1.055,3.737,5.276,0,5.98-1.868S2909.554,968.061,2907.7,970.814Z" transform="translate(-2905.848 -969.65)" fill="#efa495"/>
        </g>
        <g id="Group_152253" data-name="Group 152253" transform="translate(201.265 1.56)">
          <path id="Path_215735" data-name="Path 215735" d="M4548.771,984.059a3.674,3.674,0,0,0-3.293,1.836,15.624,15.624,0,0,0-2.118,5.744c-.176,2.924,5.333,1.334,6.624-.876s.819-5.3,0-6.272A1.6,1.6,0,0,0,4548.771,984.059Z" transform="translate(-4543.355 -984.057)" fill="#efa495"/>
        </g>
        <g id="Group_152254" data-name="Group 152254" transform="translate(187.463 11.389)">
          <path id="Path_215736" data-name="Path 215736" d="M4423.578,1074.888a9.172,9.172,0,0,0-6.277,4.665c-1.127,2.184-2.115,4.985-.636,6.229,2.6,2.186,5.766,1.291,7-3.46s2.814-8.038,0-7.451Z" transform="translate(-4415.917 -1074.802)" fill="#efa495"/>
        </g>
      </g>
      <g id="Group_152256" data-name="Group 152256" transform="translate(176.348 21.86)">
        <path id="Path_215737" data-name="Path 215737" d="M3321.609,214.6a9.26,9.26,0,0,1,6.607-3.083c4.224-.108,5.2.975,5.2.975s1.733-4.441,5.524-3.791,3.9,1.516,3.9,1.516,3.249-2.079,5.091-1.581,2.176,1.256,2.176,1.256,3.023-7.993,17.753-8.058,19.712.477,23.178,4.7-3.9,5.74-8.232,6.174c0,0,2.058.267-.758,1.892s-28.163,0-28.163,0Z" transform="translate(-3321.609 -201.831)" fill="#e7f2f2"/>
      </g>
      <g id="Group_152257" data-name="Group 152257" transform="translate(216.999 40.023)">
        <path id="Path_215738" data-name="Path 215738" d="M3696.929,378.81a8.08,8.08,0,0,1,5.272-1.9,16.226,16.226,0,0,1,4.4.639s2.6-1.805,4.693-1.372a8.174,8.174,0,0,1,3.177,1.283s-.505-3.232,3.971-5.688,9.6-2.672,15.308-1.733,2.888,3.755,2.888,3.755,1.083-1.444,5.127,1.95-.361,3.066-.361,3.066h-44.48Z" transform="translate(-3696.929 -369.525)" fill="#e7f2f2"/>
      </g>
      <g id="Group_152264" data-name="Group 152264" transform="translate(130.531)">
        <g id="Group_152263" data-name="Group 152263" clip-path="url(#clip-path)">
          <g id="Group_152262" data-name="Group 152262" transform="translate(6.679 -12.945)">
            <g id="Group_152259" data-name="Group 152259" transform="translate(0 25.383)">
              <g id="Group_152258" data-name="Group 152258" transform="translate(0 0)">
                <path id="Path_215739" data-name="Path 215739" d="M2960.26,124.277a14.523,14.523,0,0,1,4.585-4.079,8.13,8.13,0,0,1,6.683-.633s2.03-2.931,7.181-3.053,6.5,1.832,6.5,1.832,7.449-4.518,13.066-3.3,13,5.151,13,5.151-6.692,4.541-11.493,5.006-20.714-.927-20.714-.927Z" transform="translate(-2960.26 -114.838)" fill="#e7f2f2"/>
              </g>
            </g>
            <g id="Group_152261" data-name="Group 152261" transform="translate(12.807)">
              <g id="Group_152260" data-name="Group 152260">
                <path id="Path_215740" data-name="Path 215740" d="M3080.466-84.638s-4.92-9.09.84-14.129,10.622,1.56,10.622,1.56a7.628,7.628,0,0,1,3.518-4.92c2.9-1.56,5.945,2.16,5.945,2.16s-2.145-14.518,8.383-18.118,14.947,7.8,14.947,7.8,2.217-3.84,5.8-3.48,4.9,1.56,4.9,1.56,7.242-10.045,22.1-6.582,13.908,22.13,10.543,27.675-16.339,6.931-19.451,7.737-30.229-1.842-30.229-1.842-4.391,5.745-16.294,6.267S3080.466-84.638,3080.466-84.638Z" transform="translate(-3078.509 119.514)" fill="#e7f2f2"/>
              </g>
            </g>
          </g>
        </g>
      </g>
    </g>
    <g id="Group_152266" data-name="Group 152266" transform="translate(276.969 185.478)">
      <path id="Path_215741" data-name="Path 215741" d="M2594.957,1712.651a68.052,68.052,0,0,0-9.76.854l-3.275.729s-25.969.574-24.682,1.681,24.8.881,24.8.881-2.827,1.13,3.158,1.507,41.153-.155,42.333-.379-1.118-1.43-1.118-1.43,23.433-.212,24.284-1.435c1.082-1.554-20.341-2.088-27.824-2.088S2594.957,1712.651,2594.957,1712.651Z" transform="translate(-2557.194 -1712.651)" fill="#36995e"/>
    </g>
    <g id="Group_152268" data-name="Group 152268" transform="translate(173.125 10.875)">
      <g id="Group_152267" data-name="Group 152267">
        <path id="Path_215742" data-name="Path 215742" d="M1598.422,125.53h78.629s2.051-10.81-8.493-10.239-11.839,4.728-11.839,4.728.772-18.769-11.968-19.41-15.571,11.277-15.571,11.277-.544-3.806-6.514-3.1-5.84,8.885-5.84,8.885S1601.51,115.439,1598.422,125.53Z" transform="translate(-1598.422 -100.584)" fill="#e7f2f2"/>
      </g>
    </g>
    <g id="Group_152269" data-name="Group 152269" transform="translate(385.915 182.717)">
      <path id="Path_215743" data-name="Path 215743" d="M3664.069,1691.194h0a3.034,3.034,0,0,0-2.334-1.1l-10.747.191a4.029,4.029,0,0,1-3.549-2.047l-.011-.019h0a1.919,1.919,0,0,0-1.6-1.062l-66.261,1.664a1.142,1.142,0,0,0-.544.175h0a1.621,1.621,0,0,0-.376.323,6.51,6.51,0,0,1-4.8,2.338l-8.674.154a2.172,2.172,0,0,0-.793.181h0a2.174,2.174,0,0,0,.872,4.166h96.484A3.033,3.033,0,0,0,3664.069,1691.194Z" transform="translate(-3563.073 -1687.161)" fill="#36995e"/>
    </g>
    <g id="Group_152270" data-name="Group 152270" transform="translate(212.52 53.121)">
      <path id="Path_215744" data-name="Path 215744" d="M1981.908,491.044s-11.65-1.349-16.845.8-3.67,6.547,6.4,6.555,15.415,1.081,16.026-1.5S1985.425,490.972,1981.908,491.044Z" transform="translate(-1962.149 -490.627)" fill="#e7f2f2"/>
    </g>
    <g id="Group_152271" data-name="Group 152271" transform="translate(273.622 27.703)">
      <path id="Path_215745" data-name="Path 215745" d="M2532.432,256.309s-3.826-1.191-5.775.758,4.549,4.657,7.473,3.033S2532.432,256.309,2532.432,256.309Z" transform="translate(-2526.298 -255.948)" fill="#e7f2f2"/>
    </g>
    <g id="Group_152272" data-name="Group 152272" transform="translate(256.387 35.041)">
      <path id="Path_215746" data-name="Path 215746" d="M2380.3,327.822a3.489,3.489,0,0,0-2.929-3.81c-2.547-.428-6.833-.733-9.363,1.364-3.771,3.126,6.016,6.713,10.075,5.063A3.18,3.18,0,0,0,2380.3,327.822Z" transform="translate(-2367.164 -323.702)" fill="#e7f2f2"/>
    </g>
    <g id="Group_152273" data-name="Group 152273" transform="translate(182.723 204.455)">
      <path id="Path_215747" data-name="Path 215747" d="M2114.076,1890.756s-58.91-6.5-92.778,0-59.58,9.1-63.245,9.1-64.5-3.889-118.258-.5-152.756,11.488-152.756,11.488h427.277Z" transform="translate(-1687.039 -1887.869)" fill="#ffae43"/>
    </g>
    <g id="Group_152310" data-name="Group 152310" transform="translate(291.419 179.372)">
      <g id="Group_152309" data-name="Group 152309" clip-path="url(#clip-path-2)">
        <g id="Group_152308" data-name="Group 152308" transform="translate(3.973 2.549)">
          <g id="Group_152305" data-name="Group 152305">
            <g id="Group_152290" data-name="Group 152290">
              <g id="Group_152275" data-name="Group 152275" transform="translate(0.01 0.054)">
                <g id="Group_152274" data-name="Group 152274">
                  <path id="Path_215748" data-name="Path 215748" d="M2727.382,1690.368l14.584,25.779c.229.405,4.391-1.516,9.295-4.29s8.694-5.352,8.465-5.757l-14.584-25.779Z" transform="translate(-2727.382 -1680.321)" fill="#434a59"/>
                </g>
              </g>
              <g id="Group_152278" data-name="Group 152278" transform="translate(14.236 25.475)">
                <g id="Group_152277" data-name="Group 152277">
                  <g id="Group_152276" data-name="Group 152276">
                    <path id="Path_215749" data-name="Path 215749" d="M2868.555,1921.454c-2.38,1.347-4.662,2.537-6.427,3.351a21.658,21.658,0,0,1-2.072.858c-.534.178-1.073.321-1.285-.054a.358.358,0,0,1,.5-.482,11.619,11.619,0,0,0,2.927-1.146c1.69-.8,3.822-1.917,6-3.151s4.239-2.485,5.793-3.523a11.626,11.626,0,0,0,2.49-1.919.358.358,0,0,1,.67-.18c.212.375-.187.763-.615,1.129a21.717,21.717,0,0,1-1.8,1.334C2873.132,1918.764,2870.936,1920.108,2868.555,1921.454Zm-9.159,3.8Z" transform="translate(-2858.726 -1915.027)" fill="#54678c"/>
                  </g>
                </g>
              </g>
              <g id="Group_152281" data-name="Group 152281" transform="translate(10.103 18.169)">
                <g id="Group_152280" data-name="Group 152280">
                  <g id="Group_152279" data-name="Group 152279">
                    <path id="Path_215750" data-name="Path 215750" d="M2830.4,1854c-2.38,1.346-4.662,2.537-6.427,3.351a21.659,21.659,0,0,1-2.072.858c-.533.178-1.072.32-1.284-.054a.358.358,0,0,1,.5-.482,11.628,11.628,0,0,0,2.927-1.146c1.69-.8,3.822-1.917,6-3.151s4.239-2.486,5.793-3.523a11.638,11.638,0,0,0,2.49-1.918.358.358,0,0,1,.67-.18c.212.375-.188.763-.615,1.129a21.675,21.675,0,0,1-1.8,1.334C2834.973,1851.314,2832.777,1852.657,2830.4,1854Zm-9.159,3.8Z" transform="translate(-2820.567 -1847.576)" fill="#54678c"/>
                  </g>
                </g>
              </g>
              <g id="Group_152284" data-name="Group 152284" transform="translate(5.97 10.864)">
                <g id="Group_152283" data-name="Group 152283">
                  <g id="Group_152282" data-name="Group 152282">
                    <path id="Path_215751" data-name="Path 215751" d="M2792.238,1786.553c-2.38,1.346-4.663,2.537-6.427,3.351a21.646,21.646,0,0,1-2.072.858c-.533.178-1.072.321-1.284-.054a.358.358,0,0,1,.5-.482,11.618,11.618,0,0,0,2.927-1.146c1.69-.8,3.822-1.917,6-3.151s4.239-2.486,5.793-3.523a11.638,11.638,0,0,0,2.49-1.918.358.358,0,0,1,.67-.18c.212.375-.188.763-.615,1.129a21.682,21.682,0,0,1-1.8,1.333C2796.813,1783.863,2794.618,1785.207,2792.238,1786.553Zm-9.16,3.8h0Z" transform="translate(-2782.408 -1780.126)" fill="#54678c"/>
                  </g>
                </g>
              </g>
              <g id="Group_152287" data-name="Group 152287" transform="translate(1.837 3.558)">
                <g id="Group_152286" data-name="Group 152286">
                  <g id="Group_152285" data-name="Group 152285">
                    <path id="Path_215752" data-name="Path 215752" d="M2754.079,1719.1c-2.38,1.347-4.663,2.537-6.427,3.351a21.744,21.744,0,0,1-2.072.858c-.534.178-1.073.32-1.285-.054a.358.358,0,0,1,.5-.482,11.638,11.638,0,0,0,2.927-1.146c1.69-.8,3.822-1.917,6-3.151s4.239-2.485,5.793-3.523a11.628,11.628,0,0,0,2.49-1.919.358.358,0,0,1,.67-.18c.212.375-.187.763-.615,1.129a21.685,21.685,0,0,1-1.8,1.334C2758.655,1716.412,2756.459,1717.756,2754.079,1719.1Zm-9.159,3.8h0Z" transform="translate(-2744.25 -1712.675)" fill="#54678c"/>
                  </g>
                </g>
              </g>
              <g id="Group_152289" data-name="Group 152289">
                <g id="Group_152288" data-name="Group 152288">
                  <path id="Path_215753" data-name="Path 215753" d="M2745.061,1679.877c.229.405-3.561,2.983-8.465,5.757s-9.066,4.7-9.295,4.29,3.561-2.983,8.465-5.757S2744.832,1679.472,2745.061,1679.877Z" transform="translate(-2727.291 -1679.823)" fill="#54678c"/>
                </g>
              </g>
            </g>
            <g id="Group_152304" data-name="Group 152304" transform="translate(6.955 11.626)">
              <g id="Group_152292" data-name="Group 152292" transform="translate(0 0)">
                <g id="Group_152291" data-name="Group 152291">
                  <circle id="Ellipse_4252" data-name="Ellipse 4252" cx="5.33" cy="5.33" r="5.33" transform="matrix(0.527, -0.85, 0.85, 0.527, 0, 9.06)" fill="#ff915a"/>
                </g>
              </g>
              <g id="Group_152303" data-name="Group 152303" transform="translate(4.005 3.604)">
                <g id="Group_152302" data-name="Group 152302">
                  <g id="Group_152294" data-name="Group 152294" transform="translate(2.568 3.05)">
                    <g id="Group_152293" data-name="Group 152293">
                      <path id="Path_215754" data-name="Path 215754" d="M2852.3,1849.895a.874.874,0,1,0,.346-1.187A.874.874,0,0,0,2852.3,1849.895Z" transform="translate(-2852.189 -1848.6)" fill="#434a59"/>
                    </g>
                  </g>
                  <g id="Group_152301" data-name="Group 152301">
                    <g id="Group_152296" data-name="Group 152296" transform="translate(0.213)">
                      <g id="Group_152295" data-name="Group 152295">
                        <path id="Path_215755" data-name="Path 215755" d="M2833.62,1822.931a1.427,1.427,0,0,0-1.123.615l-1.005-.7-1.047-.725a3.931,3.931,0,0,1,3.081-1.689l.048,1.272Z" transform="translate(-2830.445 -1820.436)" fill="#434a59"/>
                      </g>
                    </g>
                    <g id="Group_152298" data-name="Group 152298" transform="translate(0 4.619)">
                      <g id="Group_152297" data-name="Group 152297">
                        <path id="Path_215756" data-name="Path 215756" d="M2828.483,1864.282l1.117-.61,1.073-.586a1.429,1.429,0,0,0,1.052.722l-.176,1.219-.181,1.252A3.92,3.92,0,0,1,2828.483,1864.282Z" transform="translate(-2828.483 -1863.086)" fill="#434a59"/>
                      </g>
                    </g>
                    <g id="Group_152300" data-name="Group 152300" transform="translate(4.7 2.039)">
                      <g id="Group_152299" data-name="Group 152299">
                        <path id="Path_215757" data-name="Path 215757" d="M2871.923,1841.741a1.43,1.43,0,0,0-.043-1.276l1.071-.59,1.115-.614a3.92,3.92,0,0,1,.132,3.507l-1.153-.521Z" transform="translate(-2871.88 -1839.261)" fill="#434a59"/>
                      </g>
                    </g>
                  </g>
                </g>
              </g>
            </g>
          </g>
          <g id="Group_152307" data-name="Group 152307" transform="translate(2.749 7.539)">
            <g id="Group_152306" data-name="Group 152306">
              <path id="Path_215758" data-name="Path 215758" d="M2755.926,1749.574l3.365,5.948a.827.827,0,0,1-.31,1.123.761.761,0,0,1-1.113-.311l-1.544-2.729a.8.8,0,0,0-1.2-.332h0a1.1,1.1,0,0,1-1.5-.416l-.913-1.615a.332.332,0,0,1,.145-.464c.449-.217,1.362-.662,2.683-1.322A.291.291,0,0,1,2755.926,1749.574Z" transform="translate(-2752.672 -1749.427)" fill="#36995e"/>
            </g>
          </g>
        </g>
      </g>
    </g>
    <g id="Group_152328" data-name="Group 152328" transform="translate(288.448 208.967)">
      <g id="Group_152311" data-name="Group 152311" transform="translate(210.122 10.052)">
        <ellipse id="Ellipse_4253" data-name="Ellipse 4253" cx="3.617" cy="1.056" rx="3.617" ry="1.056" fill="#d47328"/>
      </g>
      <g id="Group_152312" data-name="Group 152312" transform="translate(0 12.164)">
        <ellipse id="Ellipse_4254" data-name="Ellipse 4254" cx="3.617" cy="1.056" rx="3.617" ry="1.056" fill="#d47328"/>
      </g>
      <g id="Group_152313" data-name="Group 152313" transform="translate(145.269 10.052)">
        <ellipse id="Ellipse_4255" data-name="Ellipse 4255" cx="3.617" cy="1.056" rx="3.617" ry="1.056" fill="#d47328"/>
      </g>
      <g id="Group_152314" data-name="Group 152314" transform="translate(56.054 10.63)">
        <ellipse id="Ellipse_4256" data-name="Ellipse 4256" cx="3.617" cy="1.056" rx="3.617" ry="1.056" fill="#d47328"/>
      </g>
      <g id="Group_152315" data-name="Group 152315" transform="translate(279.693 1.712)">
        <ellipse id="Ellipse_4257" data-name="Ellipse 4257" cx="3.617" cy="1.056" rx="3.617" ry="1.056" fill="#d47328"/>
      </g>
      <g id="Group_152316" data-name="Group 152316" transform="translate(306.807 10.052)">
        <ellipse id="Ellipse_4258" data-name="Ellipse 4258" cx="3.617" cy="1.056" rx="3.617" ry="1.056" fill="#d47328"/>
      </g>
      <g id="Group_152317" data-name="Group 152317" transform="translate(235.376 8.032)">
        <path id="Path_215760" data-name="Path 215760" d="M4839.975,2004.212c0,.292-.81.528-1.809.528s-1.809-.236-1.809-.528.81-.528,1.809-.528S4839.975,2003.92,4839.975,2004.212Z" transform="translate(-4836.357 -2003.684)" fill="#d47328"/>
      </g>
      <g id="Group_152318" data-name="Group 152318" transform="translate(287.685 11.108)">
        <path id="Path_215761" data-name="Path 215761" d="M5322.933,2032.612c0,.292-.81.528-1.809.528s-1.808-.236-1.808-.528.81-.528,1.808-.528S5322.933,2032.32,5322.933,2032.612Z" transform="translate(-5319.316 -2032.084)" fill="#d47328"/>
      </g>
      <g id="Group_152319" data-name="Group 152319" transform="translate(227.565 4.217)">
        <path id="Path_215762" data-name="Path 215762" d="M4767.853,1968.991c0,.292-.81.528-1.809.528s-1.808-.236-1.808-.528.81-.528,1.808-.528S4767.853,1968.7,4767.853,1968.991Z" transform="translate(-4764.236 -1968.463)" fill="#d47328"/>
      </g>
      <g id="Group_152320" data-name="Group 152320" transform="translate(13.366 9.524)">
        <ellipse id="Ellipse_4259" data-name="Ellipse 4259" cx="1.808" cy="0.528" rx="1.808" ry="0.528" fill="#d47328"/>
      </g>
      <g id="Group_152321" data-name="Group 152321" transform="translate(207.952 8.032)">
        <path id="Path_215763" data-name="Path 215763" d="M4586.77,2004.212c0,.292-.81.528-1.809.528s-1.808-.236-1.808-.528.81-.528,1.808-.528S4586.77,2003.92,4586.77,2004.212Z" transform="translate(-4583.153 -2003.684)" fill="#d47328"/>
      </g>
      <g id="Group_152322" data-name="Group 152322" transform="translate(184.642 8.032)">
        <path id="Path_215764" data-name="Path 215764" d="M4371.556,2004.212c0,.292-.81.528-1.809.528s-1.808-.236-1.808-.528.81-.528,1.808-.528S4371.556,2003.92,4371.556,2004.212Z" transform="translate(-4367.939 -2003.684)" fill="#d47328"/>
      </g>
      <g id="Group_152323" data-name="Group 152323" transform="translate(109.804 9.399)">
        <ellipse id="Ellipse_4260" data-name="Ellipse 4260" cx="6.543" cy="1.91" rx="6.543" ry="1.91" fill="#d47328"/>
      </g>
      <g id="Group_152324" data-name="Group 152324" transform="translate(68.936 10.253)">
        <ellipse id="Ellipse_4261" data-name="Ellipse 4261" cx="6.543" cy="1.91" rx="6.543" ry="1.91" fill="#d47328"/>
      </g>
      <g id="Group_152325" data-name="Group 152325" transform="translate(157.68 11.636)">
        <path id="Path_215765" data-name="Path 215765" d="M4122.621,2037.487c0,.292-.81.528-1.808.528s-1.809-.236-1.809-.528.81-.528,1.809-.528S4122.621,2037.2,4122.621,2037.487Z" transform="translate(-4119.004 -2036.959)" fill="#d47328"/>
      </g>
      <g id="Group_152326" data-name="Group 152326" transform="translate(261.437 11.636)">
        <path id="Path_215766" data-name="Path 215766" d="M5080.586,2037.487c0,.292-.81.528-1.808.528s-1.808-.236-1.808-.528.81-.528,1.808-.528S5080.586,2037.2,5080.586,2037.487Z" transform="translate(-5076.97 -2036.959)" fill="#d47328"/>
      </g>
      <g id="Group_152327" data-name="Group 152327" transform="translate(236.086)">
        <ellipse id="Ellipse_4262" data-name="Ellipse 4262" cx="3.303" cy="0.964" rx="3.303" ry="0.964" fill="#d47328"/>
      </g>
    </g>
    <g id="Group_152382" data-name="Group 152382" transform="translate(26.165 13.821)">
      <g id="Group_152381" data-name="Group 152381" clip-path="url(#clip-path-3)">
        <g id="Group_152380" data-name="Group 152380" transform="translate(6.802 88.484)">
          <g id="Group_152379" data-name="Group 152379" transform="translate(0 0)">
            <g id="Group_152375" data-name="Group 152375">
              <g id="Group_152355" data-name="Group 152355">
                <g id="Group_152331" data-name="Group 152331" transform="translate(2.163 4.804)">
                  <g id="Group_152330" data-name="Group 152330">
                    <g id="Group_152329" data-name="Group 152329">
                      <path id="Path_215767" data-name="Path 215767" d="M380.313,989.1,324.36,1157.953c-.879,2.654,24.449,13.434,56.571,24.078s58.876,17.123,59.755,14.469l55.953-168.853Z" transform="translate(-324.338 -989.1)" fill="#38404f"/>
                    </g>
                  </g>
                </g>
                <g id="Group_152335" data-name="Group 152335" transform="translate(0 171.505)">
                  <g id="Group_152334" data-name="Group 152334">
                    <g id="Group_152333" data-name="Group 152333">
                      <g id="Group_152332" data-name="Group 152332">
                        <path id="Path_215768" data-name="Path 215768" d="M362.449,2556.484c-15.59-5.166-30.09-10.528-40.827-15.1a130.422,130.422,0,0,1-12.172-5.763c-2.945-1.658-5.751-3.482-4.938-5.937a2.152,2.152,0,0,1,4.158.281c.7.655,3.81,2.97,16.9,8.41,10.364,4.306,23.941,9.286,38.232,14.021s28.156,8.85,39.04,11.584c13.748,3.454,17.629,3.456,18.578,3.346a2.152,2.152,0,0,1,3.5,2.258c-.813,2.454-4.154,2.241-7.506,1.813a130.29,130.29,0,0,1-13.2-2.646C392.872,2566.008,378.039,2561.651,362.449,2556.484ZM308.6,2531.041h0Z" transform="translate(-304.37 -2528.211)" fill="#54678c"/>
                      </g>
                    </g>
                  </g>
                </g>
                <g id="Group_152339" data-name="Group 152339" transform="translate(15.856 123.654)">
                  <g id="Group_152338" data-name="Group 152338">
                    <g id="Group_152337" data-name="Group 152337">
                      <g id="Group_152336" data-name="Group 152336">
                        <path id="Path_215769" data-name="Path 215769" d="M508.848,2114.687c-15.59-5.166-30.09-10.528-40.827-15.1a130.3,130.3,0,0,1-12.172-5.763c-2.945-1.658-5.751-3.482-4.938-5.936a2.152,2.152,0,0,1,4.158.281c.7.655,3.811,2.971,16.9,8.41,10.363,4.306,23.941,9.286,38.233,14.021s28.156,8.85,39.04,11.584c13.747,3.454,17.629,3.457,18.578,3.347a2.152,2.152,0,0,1,3.5,2.258c-.813,2.454-4.154,2.241-7.506,1.813a130.292,130.292,0,0,1-13.2-2.646C539.271,2124.211,524.438,2119.854,508.848,2114.687ZM455,2089.244h0Z" transform="translate(-450.769 -2086.414)" fill="#54678c"/>
                      </g>
                    </g>
                  </g>
                </g>
                <g id="Group_152343" data-name="Group 152343" transform="translate(31.713 75.803)">
                  <g id="Group_152342" data-name="Group 152342">
                    <g id="Group_152341" data-name="Group 152341">
                      <g id="Group_152340" data-name="Group 152340">
                        <path id="Path_215770" data-name="Path 215770" d="M655.245,1672.887c15.59,5.166,30.424,9.522,41.766,12.27a130.586,130.586,0,0,0,13.2,2.646c3.352.427,6.694.64,7.507-1.814a2.152,2.152,0,0,0-3.5-2.256c-.949.108-4.831.107-18.578-3.348-10.885-2.734-24.749-6.847-39.04-11.583s-27.868-9.715-38.232-14.023c-3.312-1.377-5.989-2.554-8.146-3.554-2.4-1.11-4.155-2-5.444-2.709a17.412,17.412,0,0,1-3.311-2.145,2.152,2.152,0,0,0-4.158-.283c-.813,2.454,1.994,4.279,4.939,5.938.376.212.774.428,1.2.652,1.526.812,3.351,1.707,5.46,2.677q2.5,1.148,5.517,2.432C625.155,1662.356,639.655,1667.721,655.245,1672.887Z" transform="translate(-597.166 -1644.612)" fill="#54678c"/>
                      </g>
                    </g>
                  </g>
                </g>
                <g id="Group_152347" data-name="Group 152347" transform="translate(47.569 27.952)">
                  <g id="Group_152346" data-name="Group 152346">
                    <g id="Group_152345" data-name="Group 152345">
                      <g id="Group_152344" data-name="Group 152344">
                        <path id="Path_215771" data-name="Path 215771" d="M801.643,1231.091c15.59,5.166,30.423,9.524,41.765,12.272a129.734,129.734,0,0,0,13.2,2.644c3.352.43,6.693.642,7.507-1.811a2.152,2.152,0,0,0-3.5-2.259c-.95.11-4.831.109-18.578-3.346-10.885-2.733-24.749-6.847-39.04-11.583s-27.868-9.715-38.232-14.023c-3.289-1.367-5.95-2.536-8.1-3.531-2.388-1.108-4.146-2-5.44-2.7a17.373,17.373,0,0,1-3.362-2.175,2.153,2.153,0,0,0-4.159-.28c-.813,2.454,1.994,4.279,4.939,5.936.385.217.794.44,1.226.673,1.524.808,3.345,1.7,5.448,2.665q2.487,1.145,5.5,2.426C771.553,1220.563,786.054,1225.925,801.643,1231.091Z" transform="translate(-743.564 -1202.819)" fill="#54678c"/>
                      </g>
                    </g>
                  </g>
                </g>
                <g id="Group_152350" data-name="Group 152350" transform="translate(56.546)">
                  <g id="Group_152349" data-name="Group 152349" transform="translate(0)">
                    <g id="Group_152348" data-name="Group 152348">
                      <ellipse id="Ellipse_4263" data-name="Ellipse 4263" cx="5.061" cy="61.273" rx="5.061" ry="61.273" transform="translate(0 9.609) rotate(-71.666)" fill="#54678c"/>
                    </g>
                  </g>
                </g>
                <g id="Group_152352" data-name="Group 152352" transform="translate(129.367 92.415)">
                  <g id="Group_152351" data-name="Group 152351">
                    <path id="Path_215772" data-name="Path 215772" d="M1501.491,1839.009a2.7,2.7,0,0,0,2.563-1.847l11.886-35.615a2.7,2.7,0,0,0-5.127-1.711l-11.886,35.614a2.7,2.7,0,0,0,2.564,3.559Z" transform="translate(-1498.788 -1797.989)" fill="#fff"/>
                  </g>
                </g>
                <g id="Group_152354" data-name="Group 152354" transform="translate(147.149 56.8)">
                  <g id="Group_152353" data-name="Group 152353">
                    <path id="Path_215773" data-name="Path 215773" d="M1665.665,1492.525a2.7,2.7,0,0,0,2.563-1.848l5.991-17.951a2.7,2.7,0,0,0-5.127-1.711l-5.991,17.951a2.7,2.7,0,0,0,2.564,3.559Z" transform="translate(-1662.961 -1469.167)" fill="#fff"/>
                  </g>
                </g>
              </g>
              <g id="Group_152374" data-name="Group 152374" transform="translate(44.259 72.116)">
                <g id="Group_152358" data-name="Group 152358">
                  <g id="Group_152357" data-name="Group 152357">
                    <g id="Group_152356" data-name="Group 152356">
                      <circle id="Ellipse_4264" data-name="Ellipse 4264" cx="32.013" cy="32.013" r="32.013" fill="#ff915a"/>
                    </g>
                  </g>
                </g>
                <g id="Group_152373" data-name="Group 152373" transform="translate(8.014 9.663)">
                  <g id="Group_152372" data-name="Group 152372">
                    <g id="Group_152361" data-name="Group 152361" transform="translate(18.178 18.177)">
                      <g id="Group_152360" data-name="Group 152360" transform="translate(0 0)">
                        <g id="Group_152359" data-name="Group 152359">
                          <circle id="Ellipse_4265" data-name="Ellipse 4265" cx="5.249" cy="5.249" r="5.249" transform="translate(0 0.33) rotate(-1.802)" fill="#434a59"/>
                        </g>
                      </g>
                    </g>
                    <g id="Group_152371" data-name="Group 152371">
                      <g id="Group_152364" data-name="Group 152364" transform="translate(20.52)">
                        <g id="Group_152363" data-name="Group 152363">
                          <g id="Group_152362" data-name="Group 152362">
                            <path id="Path_215774" data-name="Path 215774" d="M985.675,1717.374a8.567,8.567,0,0,0-7.265-2.515l-.956-7.283-1-7.583a23.618,23.618,0,0,1,19.941,6.9l-5.47,5.345Z" transform="translate(-976.458 -1699.79)" fill="#434a59"/>
                          </g>
                        </g>
                      </g>
                      <g id="Group_152367" data-name="Group 152367" transform="translate(0 15.89)">
                        <g id="Group_152366" data-name="Group 152366">
                          <g id="Group_152365" data-name="Group 152365">
                            <path id="Path_215775" data-name="Path 215775" d="M788.3,1846.5l7.219,2.514,6.935,2.415a8.589,8.589,0,0,0,1.028,7.6l-6.135,4.129-6.3,4.241A23.547,23.547,0,0,1,788.3,1846.5Z" transform="translate(-787.001 -1846.499)" fill="#434a59"/>
                          </g>
                        </g>
                      </g>
                      <g id="Group_152370" data-name="Group 152370" transform="translate(26.193 26.443)">
                        <g id="Group_152369" data-name="Group 152369">
                          <g id="Group_152368" data-name="Group 152368">
                            <path id="Path_215776" data-name="Path 215776" d="M1028.836,1949.265a8.59,8.59,0,0,0,5.506-5.336l6.944,2.389,7.228,2.487a23.548,23.548,0,0,1-15.077,14.728l-2.332-7.23Z" transform="translate(-1028.836 -1943.929)" fill="#434a59"/>
                          </g>
                        </g>
                      </g>
                    </g>
                  </g>
                </g>
              </g>
            </g>
            <g id="Group_152376" data-name="Group 152376" transform="translate(122.951 31.51)">
              <path id="Path_215777" data-name="Path 215777" d="M1465.034,1243.25v7.14a4.737,4.737,0,0,1-4.737,4.737h0a2.03,2.03,0,0,0-2.03,2.03v13.859a5.517,5.517,0,0,1-5.517,5.517h0a5.517,5.517,0,0,1-5.517-5.517v-18.429a6.015,6.015,0,0,0-6.015-6.015h0a1.67,1.67,0,0,1-1.669-1.67v-8.538a.693.693,0,0,1,.9-.663Z" transform="translate(-1439.549 -1235.67)" fill="#43b572"/>
            </g>
            <g id="Group_152377" data-name="Group 152377" transform="translate(73.606 13.658)">
              <path id="Path_215778" data-name="Path 215778" d="M1026.65,1086.593s.734,4.609-3.864,3.292-7.619-4.347-10.509-3.752-4.335,1.222-6.7-.077-4.109-5.162-6.915-6.383-9.978-2.141-12.041-4.374a11.939,11.939,0,0,1-2.667-4.457s10.194,3.012,12.3,3.8,5.272,2.1,9.073,3.547S1026.614,1085.665,1026.65,1086.593Z" transform="translate(-983.954 -1070.843)" fill="#43b572"/>
            </g>
            <g id="Group_152378" data-name="Group 152378" transform="translate(108.956 33.665)">
              <path id="Path_215779" data-name="Path 215779" d="M1315.658,1257.6s1.051,4.871-2.1,3.558-4.335-5.8-1.97-5.593S1315.5,1256.411,1315.658,1257.6Z" transform="translate(-1310.337 -1255.56)" fill="#43b572"/>
            </g>
          </g>
        </g>
      </g>
    </g>
    <g id="Group_152386" data-name="Group 152386" transform="translate(509.722 194.124)">
      <g id="Group_152383" data-name="Group 152383">
        <path id="Path_215781" data-name="Path 215781" d="M4720.8,1793.566s-5.849-1.661-9.387-.866-5.993,1.516-5.055,2.744,7.365,1.589,9.892,1.444a10.593,10.593,0,0,0,5.055-2.187s3.9,1.031,4.549.526-1.588-1.516-1.588-1.516.867-1.152-.145-1.226A10.268,10.268,0,0,0,4720.8,1793.566Z" transform="translate(-4706.153 -1792.481)" fill="#cdd2d3"/>
      </g>
      <g id="Group_152384" data-name="Group 152384" transform="translate(3.866 0.571)">
        <path id="Path_215782" data-name="Path 215782" d="M4742.928,1801.134l-.025,0a.109.109,0,0,1-.08-.131,4.732,4.732,0,0,0,0-1.769,1.716,1.716,0,0,0-.91-1.273.108.108,0,0,1,.083-.2,1.914,1.914,0,0,1,1.04,1.435,4.852,4.852,0,0,1,0,1.859A.108.108,0,0,1,4742.928,1801.134Z" transform="translate(-4741.845 -1797.749)" fill="#a5acad"/>
      </g>
      <g id="Group_152385" data-name="Group 152385" transform="translate(1.997 1.247)">
        <circle id="Ellipse_4266" data-name="Ellipse 4266" cx="0.298" cy="0.298" r="0.298" fill="#434a59"/>
      </g>
    </g>
    <g id="Group_152390" data-name="Group 152390" transform="translate(488.884 197.818)">
      <g id="Group_152387" data-name="Group 152387">
        <path id="Path_215783" data-name="Path 215783" d="M4516.585,1827.18s3.19-.906,5.12-.473,3.269.827,2.757,1.5-4.017.866-5.4.788a5.779,5.779,0,0,1-2.757-1.193s-2.127.563-2.481.287.866-.827.866-.827-.472-.629.079-.669A5.6,5.6,0,0,1,4516.585,1827.18Z" transform="translate(-4513.764 -1826.588)" fill="#cdd2d3"/>
      </g>
      <g id="Group_152388" data-name="Group 152388" transform="translate(7.954 0.262)">
        <path id="Path_215784" data-name="Path 215784" d="M4587.36,1830.952a.108.108,0,0,1-.1-.083,2.69,2.69,0,0,1,0-1.035,1.094,1.094,0,0,1,.6-.819.108.108,0,0,1,.083.2.879.879,0,0,0-.467.658,2.519,2.519,0,0,0,0,.945.108.108,0,0,1-.08.131A.1.1,0,0,1,4587.36,1830.952Z" transform="translate(-4587.206 -1829.007)" fill="#a5acad"/>
      </g>
      <g id="Group_152389" data-name="Group 152389" transform="translate(9.394 0.68)">
        <path id="Path_215785" data-name="Path 215785" d="M4600.5,1833.032a.163.163,0,1,0,.162-.163A.162.162,0,0,0,4600.5,1833.032Z" transform="translate(-4600.495 -1832.87)" fill="#434a59"/>
      </g>
    </g>
    <g id="Group_152394" data-name="Group 152394" transform="translate(490.4 181.507)">
      <g id="Group_152391" data-name="Group 152391">
        <path id="Path_215786" data-name="Path 215786" d="M4530.576,1676.582s3.19-.906,5.12-.473,3.269.827,2.757,1.5-4.018.866-5.4.788a5.776,5.776,0,0,1-2.757-1.193s-2.127.563-2.481.287.866-.827.866-.827-.473-.628.079-.669A5.6,5.6,0,0,1,4530.576,1676.582Z" transform="translate(-4527.755 -1675.99)" fill="#cdd2d3"/>
      </g>
      <g id="Group_152392" data-name="Group 152392" transform="translate(7.954 0.262)">
        <path id="Path_215787" data-name="Path 215787" d="M4601.351,1680.353a.108.108,0,0,1-.1-.083,2.689,2.689,0,0,1,0-1.035,1.1,1.1,0,0,1,.6-.819.108.108,0,0,1,.083.2.879.879,0,0,0-.467.658,2.532,2.532,0,0,0,0,.945.108.108,0,0,1-.08.13A.1.1,0,0,1,4601.351,1680.353Z" transform="translate(-4601.196 -1678.409)" fill="#a5acad"/>
      </g>
      <g id="Group_152393" data-name="Group 152393" transform="translate(9.394 0.68)">
        <path id="Path_215788" data-name="Path 215788" d="M4614.485,1682.434a.163.163,0,1,0,.162-.162A.162.162,0,0,0,4614.485,1682.434Z" transform="translate(-4614.485 -1682.272)" fill="#434a59"/>
      </g>
    </g>
    <g id="Group_152397" data-name="Group 152397" transform="translate(152.208 79.16)">
      <g id="Group_152396" data-name="Group 152396">
        <g id="Group_152395" data-name="Group 152395">
          <path id="Path_215789" data-name="Path 215789" d="M1405.3,742.513h31.207a3.041,3.041,0,0,0-2.825-2.939c-2.747-.226-3.9.575-3.9.575s3.373-4.287.964-8.23-14.948,6.7-14.948,6.7.781-2.644-2.013-2.548S1405.3,742.513,1405.3,742.513Z" transform="translate(-1405.302 -731.042)" fill="#e7f2f2"/>
        </g>
      </g>
    </g>
    <g id="Group_152400" data-name="Group 152400" transform="translate(147.198 30.81)">
      <g id="Group_152399" data-name="Group 152399">
        <g id="Group_152398" data-name="Group 152398">
          <path id="Path_215790" data-name="Path 215790" d="M1359.052,303.03h35.661s2.022-5.006-1.654-5.558a5.263,5.263,0,0,0-5.331,2.779s-.552-1.8-4.412-2.841-6.468,2.81-6.468,2.81,6.652-10.1,1.321-14.329S1362.728,288.367,1359.052,303.03Z" transform="translate(-1359.052 -284.643)" fill="#e7f2f2"/>
        </g>
      </g>
    </g>
    <g id="Group_152403" data-name="Group 152403" transform="translate(35.512 48.35)">
      <g id="Group_152402" data-name="Group 152402">
        <g id="Group_152401" data-name="Group 152401">
          <path id="Path_215791" data-name="Path 215791" d="M327.872,457.011h24.893s4.55-6.109.773-9.677-12.757,6.675-12.757,6.675S335.168,448.789,327.872,457.011Z" transform="translate(-327.872 -446.579)" fill="#e7f2f2"/>
        </g>
      </g>
    </g>
    <g id="Group_152406" data-name="Group 152406" transform="translate(62.677 25.104)">
      <g id="Group_152405" data-name="Group 152405">
        <g id="Group_152404" data-name="Group 152404">
          <path id="Path_215792" data-name="Path 215792" d="M578.686,241.313l19.566.49s3.564-8.507-1.072-9.533c-9.9-2.191-10.48,7.81-10.48,7.81S585.354,233.8,578.686,241.313Z" transform="translate(-578.686 -231.956)" fill="#e7f2f2"/>
        </g>
      </g>
    </g>
    <g id="Group_152421" data-name="Group 152421" transform="translate(538.756 123.311)">
      <g id="Group_152408" data-name="Group 152408" transform="translate(17.352 46.142)">
        <g id="Group_152407" data-name="Group 152407">
          <path id="Path_215793" data-name="Path 215793" d="M5139.465,1614.933l-5.037-.017,9.714-50.216,4.868.917Z" transform="translate(-5134.428 -1564.7)" fill="#d17a69"/>
        </g>
      </g>
      <g id="Group_152420" data-name="Group 152420">
        <g id="Group_152409" data-name="Group 152409">
          <circle id="Ellipse_4267" data-name="Ellipse 4267" cx="23.164" cy="23.164" r="23.164" transform="translate(0 32.758) rotate(-45)" fill="#fff"/>
        </g>
        <g id="Group_152414" data-name="Group 152414" transform="translate(17.352 25.348)">
          <g id="Group_152410" data-name="Group 152410" transform="translate(19.782 1.174)">
            <circle id="Ellipse_4268" data-name="Ellipse 4268" cx="3.172" cy="3.172" r="3.172" fill="#434a59"/>
          </g>
          <g id="Group_152411" data-name="Group 152411" transform="translate(1.905)">
            <path id="Path_215794" data-name="Path 215794" d="M5172.5,1382.358l-2.33-2.509a1.787,1.787,0,0,0-.266-.329l-6.484-6.3a1.776,1.776,0,0,0-1.908-.372l-8.391,3.413a1.776,1.776,0,0,0,1.338,3.291l7.316-2.975,1.994,1.938-10.942,4.37a3.375,3.375,0,0,0,2.288.361c1.365-.241,2.289-1.7,5.38-1.092s3.653,1.332,5.219,1.413c.861.044,1.7-.568,2.9-.994h.051a1.776,1.776,0,0,0,.955-.279A7.054,7.054,0,0,1,5172.5,1382.358Z" transform="translate(-5152.014 -1372.713)" fill="#434a59"/>
          </g>
          <g id="Group_152413" data-name="Group 152413" transform="translate(0 10.579)">
            <g id="Group_152412" data-name="Group 152412">
              <path id="Path_215795" data-name="Path 215795" d="M5138.179,1474.628a5.415,5.415,0,0,1-3.185-.949,1.339,1.339,0,0,1,.2-2.306l.036-.017a1.328,1.328,0,0,1,1.332.113,2.824,2.824,0,0,0,1.807.445,6.341,6.341,0,0,0,2.414-.692,6.257,6.257,0,0,1,4.334-.64,16.387,16.387,0,0,1,2.462.793,4.5,4.5,0,0,0,2.611.447,7.949,7.949,0,0,0,1.965-.6,6.578,6.578,0,0,1,5.13-.392l.78.29c2.005.75,2.415.886,3.43.726a1.7,1.7,0,0,0,1.179-.721,1.355,1.355,0,1,1,2.415,1.23,4.351,4.351,0,0,1-3.172,2.169c-1.75.275-2.707-.082-4.8-.865l-.77-.286a4,4,0,0,0-3.188.368,10.321,10.321,0,0,1-2.644.771,7.1,7.1,0,0,1-3.924-.614,13.7,13.7,0,0,0-2.083-.675,3.706,3.706,0,0,0-2.626.476,8.9,8.9,0,0,1-3.393.922C5138.384,1474.625,5138.281,1474.628,5138.179,1474.628Z" transform="translate(-5134.427 -1470.386)" fill="#434a59"/>
            </g>
          </g>
        </g>
        <g id="Group_152419" data-name="Group 152419" transform="translate(12.976 12.976)">
          <g id="Group_152416" data-name="Group 152416">
            <g id="Group_152415" data-name="Group 152415">
              <path id="Path_215796" data-name="Path 215796" d="M5113.805,1298.048a19.782,19.782,0,1,1,13.989-5.794A19.653,19.653,0,0,1,5113.805,1298.048Zm0-36.653a16.871,16.871,0,1,0,16.871,16.871A16.89,16.89,0,0,0,5113.805,1261.395Z" transform="translate(-5094.023 -1258.483)" fill="#ff5f4a"/>
            </g>
          </g>
          <g id="Group_152418" data-name="Group 152418" transform="translate(5.94 5.94)">
            <g id="Group_152417" data-name="Group 152417" transform="translate(0 0)">
              <rect id="Rectangle_45315" data-name="Rectangle 45315" width="2.912" height="36.24" transform="matrix(0.707, -0.707, 0.707, 0.707, 0, 2.059)" fill="#ff5f4a"/>
            </g>
          </g>
        </g>
      </g>
    </g>
  </g>
</svg>
