<svg xmlns="http://www.w3.org/2000/svg" width="610.574" height="235.805" viewBox="0 0 610.574 235.805">
  <g id="Group_152140" data-name="Group 152140" transform="translate(-1834.517 -477.871)">
    <g id="Group_152138" data-name="Group 152138" transform="translate(1834.517 603.825)">
      <path id="Path_215586" data-name="Path 215586" d="M2347.273,981.119c-.012-2.162-.161-4.332,0-6.478.195-2.649-.111-4.978-2.6-6.506a1.931,1.931,0,0,1-.318-.333q-5.308-5.317-10.616-10.638-5.758-5.753-11.528-11.493-5.308-5.317-10.591-10.663c-3.462-3.483-7.09-6.8-10.332-10.5-.426-.485-.784-1.118-1.553-1.167-1.155-1.26-1.4-1.232-2.427.3a1.736,1.736,0,0,1-1.636-.337c-2.64-1.127-5.271-2.273-7.921-3.375q-10.658-4.447-21.328-8.85c-2.823-1.164-5.494-.494-6.778,1.782-1.7,3-1.766,6.318,2.162,8.266-.222,1.3,1.025,1.572,1.649,2.2q13.84,13.947,27.761,27.813c1.3,1.3,2.551,2.64,3.826,3.965-.34.726-.683,1.448-1.025,2.174-2.227-1.164-3.4-3.465-5.321-4.956-.615-.908-.886-.37-.995.281a3.779,3.779,0,0,0,.886,2.51c-1.578-.207-1.924-2-3.32-2.64-.006.077-.015.154-.022.229-.037-.037-.074-.071-.111-.108a1.491,1.491,0,0,1,.108.139c-.04.423-.077.784-.108,1.146h-.009c-.055-.287-.111-.578-.164-.862-.071-.371.148-.991-.349-1.019-.612-.034-.553.605-.568,1.053a4.741,4.741,0,0,0,1.6,3.826,51.6,51.6,0,0,0,4.74,3.381c1.278.923,2.647,1.813,2.569,3.7-.012.3.324.352.55.454.009.92,1.423,1.007,1.288,2.013-.021.034-.046.071-.071.108a5.28,5.28,0,0,1-4.36-2.909,1.485,1.485,0,0,0-1.56-.908q-12.506.032-25.009-.006c-.75,0-.96.2-.955.942.015,2.106-.034,4.215-.086,6.321a.934.934,0,0,0,.528.855c.312.374-.327.886-.139.911,2.06.259,2.829,2.183,4.008,3.366,2.859,2.866,5.8,5.669,8.591,8.612.969,1.022,1.93,2.084,2.977,3.054,1.334,1.235,2.517,2.634,3.885,3.829,1.661,1.454,2.946,3.289,4.731,4.607-11.469.009-22.94.191-34.4-.037-8.2-.164-14.838-7.735-14.825-16.168q.06-38.185.052-76.374c0-8.615,5.271-15.026,13.618-16.5a17.045,17.045,0,0,1,2.918-.176q37.805-.018,75.6.009a12.253,12.253,0,0,1,4.273.324,6.665,6.665,0,0,1,2.158.6,15.893,15.893,0,0,1,10.74,15.032q.064,33.535.034,67.073c0,3.341.025,6.682.015,10.02A4.137,4.137,0,0,1,2347.273,981.119Z" transform="translate(-2113.483 -885.875)" fill="#546e79"/>
      <path id="Path_215587" data-name="Path 215587" d="M2390.517,1103.422c-.037,0-.074-.006-.108-.012.031-.361.068-.723.108-1.146A.884.884,0,0,1,2390.517,1103.422Z" transform="translate(-2218.754 -1035.41)" fill="#546e79"/>
      <path id="Path_215588" data-name="Path 215588" d="M2349.9,1138.407a2.4,2.4,0,0,1-.176.213,4.843,4.843,0,0,1-4.147-2.254,2.847,2.847,0,0,0-2.482-1.2q-11.487.032-22.974-.006c-1.112-.006-1.615.352-1.547,1.5.111,1.844-.13,3.693.05,5.537.028.108.062.219.093.327.018.056.031.111.046.167a.751.751,0,0,1-.339.9,1.219,1.219,0,0,1,1.383.3c.951.852,1.837,1.785,2.711,2.7,3.6,3.777,7.389,7.359,11.021,11.1,2.81,2.9,5.8,5.632,8.5,8.64.194.219.521.361.472.738-1.785-1.319-3.069-3.153-4.73-4.607-1.368-1.2-2.551-2.594-3.885-3.829-1.047-.97-2.007-2.032-2.976-3.054-2.792-2.943-5.732-5.747-8.591-8.612-1.18-1.183-1.948-3.106-4.008-3.366-.188-.025.451-.537.139-.911a.933.933,0,0,1-.528-.855c.053-2.106.1-4.215.086-6.321-.006-.741.2-.945.954-.942q12.506.046,25.009.006a1.485,1.485,0,0,1,1.559.908A5.28,5.28,0,0,0,2349.9,1138.407Z" transform="translate(-2168.654 -1057.75)" fill="#546e79"/>
      <path id="Path_215589" data-name="Path 215589" d="M2397.621,1114.311c.136-1.007-1.278-1.093-1.287-2.013-.225-.1-.562-.157-.55-.454.077-1.89-1.291-2.779-2.569-3.7a51.606,51.606,0,0,1-4.74-3.381,4.741,4.741,0,0,1-1.6-3.826c.015-.448-.044-1.087.568-1.053.5.028.278.648.349,1.019.052.284.108.574.164.862-.88-.124-.469-.923-.688-1.664a5.149,5.149,0,0,0,1.748,4.589c1.467,1.208,3.082,2.193,4.623,3.286a5.143,5.143,0,0,1,2.56,3.628.65.65,0,0,0,.151.327v0c.049.059.1.117.154.176.037.043.074.087.108.13C2396.964,1112.921,2398.239,1113.317,2397.621,1114.311Z" transform="translate(-2216.308 -1033.762)" fill="#546e79"/>
      <path id="Path_215590" data-name="Path 215590" d="M2393.013,1029.675c-.16,2.146-.012,4.317,0,6.478-.562-.473-.407-1.133-.414-1.726-.022-2.418-.034-4.836.006-7.253a3.067,3.067,0,0,0-1.069-2.421c-4.678-4.549-9.258-9.205-13.877-13.815q-6.762-6.753-13.516-13.519c-4.613-4.62-9.211-9.255-13.858-13.837a69.177,69.177,0,0,0-4.851-4.944l-.046-.046c-.037-.037-.071-.071-.108-.1-.8-.719-1.488-.343-2.137.367-.012.012-.025.028-.037.04-.04.006-.08.012-.12.015a2.811,2.811,0,0,1-1.674-.157,2.084,2.084,0,0,1-.3-.185s-.006,0-.009,0c-2.847-1.3-5.765-2.433-8.646-3.65-6.3-2.659-12.623-5.231-18.92-7.886-.472-.2-.948-.4-1.433-.571-2.958-1.068-5.092-.374-6.457,2.1-1.47,2.659-.969,4.922,1.529,6.88a2.077,2.077,0,0,1,.426.442,1.47,1.47,0,0,0,.1.262.064.064,0,0,0,.015.037,3.311,3.311,0,0,0,.738.954q15.146,14.9,30.052,30.052c.868.883,1.995,1.553,2.461,2.776a.678.678,0,0,1,.04.114.872.872,0,0,1,.043.124,3.051,3.051,0,0,1-.988,2.183.569.569,0,0,1-.068.019,1.009,1.009,0,0,1-.186.043,1.912,1.912,0,0,1-1.831-.945,25.593,25.593,0,0,0-3.459-3.6c-.062-.056-.12-.114-.182-.173a.245.245,0,0,1-.028-.025c-.318.59-.305.587-.176,1.025.133.466.568.889.3,1.414a1.015,1.015,0,0,1-.08.13c-1.062.389-1.346-.645-1.958-1.075a11.011,11.011,0,0,1-1.306-1.467c.006-.074.015-.151.022-.229,1.4.639,1.741,2.433,3.319,2.64a3.78,3.78,0,0,1-.886-2.51c.108-.652.38-1.189.994-.281,1.924,1.492,3.094,3.792,5.321,4.956.343-.726.686-1.448,1.025-2.174-1.275-1.325-2.529-2.665-3.826-3.965q-13.886-13.9-27.76-27.813c-.624-.63-1.871-.9-1.649-2.2-3.928-1.948-3.86-5.265-2.162-8.266,1.285-2.276,3.956-2.946,6.778-1.782q10.676,4.4,21.328,8.85c2.649,1.1,5.281,2.248,7.921,3.375a1.736,1.736,0,0,0,1.636.337c1.031-1.529,1.272-1.556,2.427-.3.769.049,1.127.682,1.553,1.167,3.242,3.7,6.871,7.019,10.332,10.5q5.3,5.331,10.592,10.663,5.753,5.757,11.527,11.493,5.317,5.313,10.617,10.638a1.934,1.934,0,0,0,.318.333C2392.9,1024.7,2393.208,1027.025,2393.013,1029.675Z" transform="translate(-2159.223 -940.909)" fill="#546e79"/>
      <path id="Path_215591" data-name="Path 215591" d="M2754.364,960.338c.252-.338.5-.268.752,0,7.686,8.27,15.9,16.012,23.816,24.059,3.744,3.807,7.542,7.56,11.328,11.326.423.421.752,1.009,1.466,1.032.033,2.771.091,5.542.095,8.313.009,6.728.045,13.456-.027,20.183a15.89,15.89,0,0,1-13.908,15.381,2.81,2.81,0,0,1-1.216.109q-21.886.005-43.773,0c-.448,0-.929.145-1.34-.175-.045-.641-.562-.956-.951-1.345q-9.349-9.369-18.714-18.723a3.489,3.489,0,0,0-1.057-.87c-.913-.351-.613-.827-.258-1.362.606-.268,1.1.083,1.6.313a20.764,20.764,0,0,0,23.729-4.406c1.138-1.208,1.464-1.22,2.743.094a19.265,19.265,0,0,0,9.291,5.526,20.529,20.529,0,0,0,15.523-1.926c.806-.454,1.592-.943,2.4-1.387a16.14,16.14,0,0,1-3.731,1.779,15.491,15.491,0,0,1-4.114.529,16.087,16.087,0,0,1-4.286-.38,18.421,18.421,0,0,1-3.867-1.507,15.091,15.091,0,0,1-3.487-2.529c-4.438-4.606-6.1-9.993-4.365-16.284.242-.88,1.063-1.8.128-2.719-1-.98-1.965-.345-2.965.1a4.629,4.629,0,0,1-4.307-.147c-.18-.1-.369-.184-.543-.293-.808-.5-1.477-.12-2.127.336-.679.477-.4,1.09-.193,1.669a16.924,16.924,0,0,1,.582,8.976,16.052,16.052,0,0,1-15.51,12.8,13.958,13.958,0,0,1-9.23-2.8,1.8,1.8,0,0,1-.705-.783c-3.484-2.624-5.231-6.266-6.1-10.421a11.289,11.289,0,0,1,.078-6.773c2.075-6.315,6.434-10.312,12.947-11.415a15.632,15.632,0,0,1,14.668,5.083c.49.527.91,1.15,1.806.769a1.632,1.632,0,0,0,1.237-1.553,5.428,5.428,0,0,1,2.839-4.965,1.533,1.533,0,0,0,.786-1.692c-.1-.894-.811-.927-1.458-1.093-7.126-1.826-11.526-6.273-12.846-13.566-1.123-6.2,2.162-13.164,7.464-16.044,1.556-.6,2.922-1.756,4.73-1.615a7.905,7.905,0,0,0,1.492-.273c1.7-.657,5.27-.157,6.629.435-.272-.388-3.058.005-3.449-.552a12.957,12.957,0,0,1,4.363.731,9.837,9.837,0,0,1,5.628,2.81c4.685,4.324,6.533,9.707,4.983,15.929-1.524,6.117-5.489,10.1-11.577,11.891-.494.145-1,.246-1.5.355-.538.116-.971.345-1.059.959a1.4,1.4,0,0,0,.592,1.482c.128.086.26.166.387.254a5.338,5.338,0,0,1,2.666,4.594,1.969,1.969,0,0,0,1.506,1.913c.868.353,1.157-.4,1.61-.851,4.752-4.707,10.4-6.414,16.82-4.466,6.582,2,10.278,6.711,11.394,13.452a13.418,13.418,0,0,1-.241,4.185c.544-4.455.381-8.835-1.566-12.991a20.513,20.513,0,0,0-13.9-11.508c-1.571-.425-1.821-.833-1.361-2.291,1.652-5.234.93-10.241-1.337-15.13C2754.992,962.047,2754.285,961.344,2754.364,960.338Z" transform="translate(-2433.135 -931.101)" fill="#3e515c"/>
      <path id="Path_215592" data-name="Path 215592" d="M1974.064,969.242c1.145-.174,1.673.873,2.2,1.439,5.631,6.045,11.648,11.7,17.443,17.583,5.47,5.548,11.013,11.024,16.522,16.533a1.336,1.336,0,0,0,.923.494c.028,1.8.079,3.594.081,5.391.008,8.583.024,17.167,0,25.75-.03,9.356-6.846,16.337-16.164,16.386-13.156.069-26.313,0-39.469-.015-1.42-.694-2.264-2.033-3.342-3.088-4.424-4.328-8.745-8.761-13.1-13.163-.611-.617-1.715-.771-1.793-1.893,1.343-.373,2.832-.38,3.772-1.7a2.958,2.958,0,0,0,.787-1.62,2.293,2.293,0,0,1,1.573-2.064c2.8-1.39,5.716-2.525,8.524-3.9.353-.172.808-.188,1.051-.723-1.881-1-3.633-2.2-5.912-.789a32.53,32.53,0,0,1-4.194,1.9c-.483.211-.97.665-1.549.185-3.023-2.945-5.773-6.163-8.956-8.95-.225-.2-.872-.4-.321-.932,1.339-.591,2.9-.428,4.179-1.336.524-.371,1.287.14,1.9.406,5.653,2.475,11.3,4.971,16.906,7.543,4.628,2.122,9.307,4.13,13.935,6.251a3.383,3.383,0,0,1,2.288,2.621,3.2,3.2,0,0,0,3.474,2.643c1.376-.111,2.108-.933,1.774-2.282a1.723,1.723,0,0,1,1.012-2.335,1.96,1.96,0,0,0,.1-3.426,3.316,3.316,0,0,0-3.912-.212,2.767,2.767,0,0,1-2.893.171c-4.942-2.175-9.842-4.445-14.784-6.62-.4-.174-.92-.3-.84-.933-1.466-1.528-2.952-3.038-4.389-4.593-.5-.543-1.444-.861-1.154-1.9.683-.516,1.385-.117,2.076-.034a36.982,36.982,0,0,0,9.521-.028,6.051,6.051,0,0,0,5.222-4.421,47.689,47.689,0,0,1,3.5-9.04c.193-.337.439-.814-.05-1.083-.359-.2-.67.155-.924.4a6.715,6.715,0,0,0-1.773,4.031c-.427,3.074-2.058,4.445-5.963,4.769a49.312,49.312,0,0,1-10.6-.026c-3-.4-4.347-1.468-4.943-4.388-.208-1.018-.942-1.988-.454-3.114.7-.115,1.086.253,1.445.818a1.9,1.9,0,0,0,1.255,1.016c1.951,1.663,4.4,1.078,6.625,1.37,2.7.354,5.432-.1,8.146-.292a2.036,2.036,0,0,0,1.927-1.512c.144-.439.287-.879.425-1.32a14.42,14.42,0,0,1,4.971-7.257,39.1,39.1,0,0,0,3.8-3.6,7.922,7.922,0,0,0,2.259-5.565,28.469,28.469,0,0,0-1.942-12.071A1.615,1.615,0,0,1,1974.064,969.242Z" transform="translate(-1901.846 -943.451)" fill="#3f525d"/>
      <path id="Path_215593" data-name="Path 215593" d="M2400.264,1053.259c-.16,2.146-.012,4.317,0,6.478a8.645,8.645,0,0,1-.886,3.7,10.652,10.652,0,0,0-5.12.238,2.214,2.214,0,0,1-1.612-.349c-2.6-1.257-3.814-1.068-5.917.994-2.742,2.69-5.444,5.422-8.155,8.146a5.957,5.957,0,0,1-1.819,1.386l-36.428-.028c-1.785-1.318-3.069-3.153-4.731-4.607-1.368-1.2-2.551-2.594-3.885-3.829-1.047-.97-2.007-2.032-2.977-3.054-2.792-2.943-5.731-5.747-8.591-8.612-1.179-1.182-1.948-3.106-4.008-3.366-.188-.025.451-.537.139-.911a1.915,1.915,0,0,1,.256-.179,4.308,4.308,0,0,1,2.263-.259c12.5-.015,25,.006,37.5-.015,6.945-.012,13.889.034,20.834,0,2.43-.009,2.523-.1,2.539-2.507,0-.976-.034-1.955,0-2.93.044-1.2-.522-1.618-1.673-1.618-7.355,0-14.714.034-22.07-.019a1.97,1.97,0,0,0-1.822.911,6.278,6.278,0,0,1-3.264,2.48,3.035,3.035,0,0,1-3.079-.154c.009-.04.015-.077.022-.114.136-1.007-1.279-1.093-1.288-2.013.009-.127.012-.247.012-.368v0c0-2.171-1.436-3.418-3.153-4.459a18.862,18.862,0,0,1-4.6-3.529c-.525-.6-1.152-1.223-.633-2.152a.071.071,0,0,1,0-.025c.031-.361.068-.723.108-1.146,0-.009,0-.022,0-.031.006-.074.015-.151.022-.229,1.4.639,1.741,2.433,3.319,2.64h0c.972-.127,1.467.787,2.467,1.065-.6-.664-1.318-.979-1.772-1.553s-1.093-1.136-.794-1.927a1.627,1.627,0,0,1,.2-.377c1.924,1.492,3.094,3.792,5.32,4.956a.463.463,0,0,1,.133.093c.262.238.241.652.482.914.4.426.8.818,1.436.516a1.128,1.128,0,0,0,.679-1.241,6.769,6.769,0,0,0-1.164-2.6c-.077-.117-.259,0-.42.086a1.036,1.036,0,0,1-.12.059c-1.275-1.325-2.529-2.665-3.826-3.965q-13.886-13.9-27.76-27.813c-.624-.63-1.872-.9-1.649-2.2a.294.294,0,0,1,.049-.012,3.129,3.129,0,0,1,2.029.38q13.187,5.433,26.337,10.95a.79.79,0,0,0,.312.053c-.071-.491-.528-.476-.837-.611-3.814-1.664-7.711-3.134-11.53-4.789-.139-.062-.288-.111-.423-.188-.466-.266-1.3-.386-1.121-1.044.154-.574.954-.472,1.51-.476,3.6-.025,7.2-.006,10.8-.009.927,0,1.853-.052,2.776.009,1.513.1,2.884.006,3.477-1.729a.313.313,0,0,1,.077-.12,1.806,1.806,0,0,1,.414-.235,1.737,1.737,0,0,0,1.637.337,1.56,1.56,0,0,1,.093.188c.241.621-.158,1.142-.389,1.683-1.2,2.832-2.334,5.688-3.474,8.541a2.425,2.425,0,0,0-.253,1.038.558.558,0,0,0,.42.571.546.546,0,0,0,.537-.225,5.178,5.178,0,0,0,.676-1.374c1.26-3.085,2.5-6.173,3.807-9.236a2.86,2.86,0,0,1,.812-1.365,1.234,1.234,0,0,1,.2-.117c.769.049,1.127.682,1.553,1.167,3.242,3.7,6.871,7.019,10.332,10.5q5.3,5.331,10.592,10.663,5.753,5.757,11.527,11.493,5.317,5.313,10.616,10.638a1.931,1.931,0,0,0,.318.333C2400.153,1048.281,2400.459,1050.61,2400.264,1053.259Z" transform="translate(-2166.475 -964.493)" fill="#3f525d"/>
      <path id="Path_215594" data-name="Path 215594" d="M3276.474,1036.222a14.481,14.481,0,0,1-3.067,9,14,14,0,0,1-5.83,4.95q-.977.412-1.955.831a9.318,9.318,0,0,1-3.591.713c-6.621-.022-13.244-.068-19.865-.049a3.648,3.648,0,0,1-2.924-1.176c-6.3-6.408-12.707-12.7-19.016-19.1-.833-.846-1.973-1.445-2.452-2.631,1.241-.247,2.406.333,3.647.29a6.755,6.755,0,0,0,6.5-4.941,6.855,6.855,0,0,0-2.65-7.34c-.648-.476-1.541-.611-1.954-1.408-.763-1.532-2.35-2.381-3.2-3.832-.445-.76-1.377-1.044-1.7-1.89a.878.878,0,0,1,.723-.2c1.581.077,3.174.4,4.722-.219a3.981,3.981,0,0,0,2.2-3.468c.429-5.274.769-10.555,1.142-15.832.38-5.33.679-10.666,1.149-15.989a41.021,41.021,0,0,1,.365-4.762c.1-.5.04-1.038.438-1.442.059-.374.1-.528.522-.2a54.156,54.156,0,0,1,4.629,4.481q4.891,4.845,9.761,9.711,4.062,4.053,8.115,8.115,4.553,4.553,9.1,9.116,6.564,6.586,13.13,13.176c.646.645,1.347,1.238,2.02,1.856q.005,6.943.006,13.889c0,.414,0,.828,0,1.238Q3276.462,1032.669,3276.474,1036.222Z" transform="translate(-2790.637 -942.159)" fill="#3f5259"/>
      <path id="Path_215595" data-name="Path 215595" d="M2528.692,1216.175l-6.47.022c-.388-.566.1-.842.408-1.141,2.792-2.714,5.5-5.51,8.278-8.239,1.412-1.387,2.544-1.583,4.281-.621a3.952,3.952,0,0,0,3.24.4,6.039,6.039,0,0,1,1.953-.385c.743.027,1.6-.007,1.633,1.106a14.844,14.844,0,0,1-5.295,6.123.8.8,0,0,1-.727.134,6.168,6.168,0,0,0-6.349,2.145C2529.4,1216.017,2529.01,1216.022,2528.692,1216.175Z" transform="translate(-2309.765 -1106.837)" fill="#3e515c"/>
      <path id="Path_215596" data-name="Path 215596" d="M2537.471,1204.647c-.724-1.14-1.789-.848-2.736-.527a4.781,4.781,0,0,1-4.648-.46,2.286,2.286,0,0,0-3.069.378c-3.08,3.076-6.184,6.128-9.274,9.2-.06.06-.047.195-.068.295l-2.174,0c3.464-3.5,6.88-7.046,10.414-10.471,1.661-1.61,3.478-1.7,5.484-.492a2.538,2.538,0,0,0,2.307.261c1.487-.474,3.006-.725,4.417.289Z" transform="translate(-2305.22 -1104.169)" fill="#6b7a83"/>
      <path id="Path_215597" data-name="Path 215597" d="M1943.827,902.221h0q0-.626-.007-1.253h0c.113-5.623-4.134-11.609-9.862-13.9l-1.844-.6,0,0a13.682,13.682,0,0,0-5.154-.639c-25.1,0-50.213.117-75.314-.065a16.7,16.7,0,0,0-17.126,17.193c.188,25.052.068,50.108.056,75.16a19.273,19.273,0,0,0,.908,6.219h0l.928,2.148a15.779,15.779,0,0,0,11.369,8.384,4.171,4.171,0,0,0,2.225.218h0q19.134.014,38.266.025a.305.305,0,0,0-.031-.29c-5.321-5.4-10.709-10.746-16.06-16.122-.679-.686-1.84-.9-2.016-2.072a2.373,2.373,0,0,1-.831-2.492,1.586,1.586,0,0,0-.991-2.115,1.769,1.769,0,0,1-1.18-1.822,2.359,2.359,0,0,1,1.442-2.044,3.818,3.818,0,0,1,3.7.17c.587.352,1.211.932,1.887.108.114-.611-.364-.9-.692-1.272-1.445-1.646-3.168-3.032-4.552-4.721-1.257-1.535-3.122-2.477-4.052-4.3a1.732,1.732,0,0,0-.417-.445c-2.026-1.6-2.013-2.686.12-4.051a1.448,1.448,0,0,0,.608-1.84c-.4-1.739.593-2.77,2.359-2.535a3.239,3.239,0,0,1,2.8,2.7,2.581,2.581,0,0,0,1.853,2.359c4.543,2.038,9.054,4.144,13.624,6.114.639.275,1.238.781,2.023.562.472-.618-.118-.927-.408-1.275-.457-.553-1.087-.966-1.485-1.547-1.01-1.473-2.847-2.22-3.471-4.017a8.81,8.81,0,0,1-4.008-5.768,27.107,27.107,0,0,0-2.776-7.006,3.7,3.7,0,0,1-.408-1,.674.674,0,0,1,.151-.71c.3-.25.574-.09.837.09.651.445.865,1.281,1.529,1.714.812.191,1.173.93,1.748,1.408.417.352.865.985,1.433.157a7.494,7.494,0,0,0-.747-2.8c-1.127-2.958-3.406-4.962-5.722-6.923-3.069-2.594-5.395-5.564-4.965-9.875a61.9,61.9,0,0,1,.917-7.013c1.334-6.163,5.317-10.07,11.5-11.425,3.474-.76,6.957-.562,10.434-.494,5.361.108,10.116,1.692,13.321,6.4a1.894,1.894,0,0,0,.673.624,3.616,3.616,0,0,1,1.263.852c1.791,1.544,3.264,3.4,4.956,5.043,5.447,5.293,10.752,10.727,16.153,16.066,4.595,4.545,9.072,9.208,13.738,13.682.355.337.689.831,1.3.426.028-.509.077-1.019.077-1.532q.01-20.853,0-41.705C1943.9,903.651,1943.852,902.935,1943.827,902.221Z" transform="translate(-1834.517 -885.762)" fill="#546e79"/>
      <path id="Path_215598" data-name="Path 215598" d="M3566.5,901.555a15.065,15.065,0,0,0-7.745-12.262,13.152,13.152,0,0,0-8.667-2.145h0a12.229,12.229,0,0,0-1.222-.119q-37.176.007-74.352.036a21.756,21.756,0,0,0-3.994.234c-7.933,1.5-13.24,8.37-13.192,16.582.141,23.909.05,47.82.056,71.731,0,1.077.046,2.155.071,3.233a14.423,14.423,0,0,0,2.16,9.586h0c3.1,5.111,7.693,7.888,13.611,7.915,24.071.108,48.142.078,72.214.058,2.3,0,4.614.3,6.9-.21-1.2-.882-2.574-.435-3.867-.466a3.283,3.283,0,0,1-2.938-1.335,2,2,0,0,0-2.126-.929,3.9,3.9,0,0,1-1.535-.074,2.621,2.621,0,0,0-2.767.935,4.187,4.187,0,0,1-3.573,1.393q-15.128-.055-30.255-.008a3.632,3.632,0,0,1-3.071-1.192c-4.621-4.832-9.365-9.552-14.161-14.215a2.393,2.393,0,0,1-.857-1.247,11.135,11.135,0,0,1-.218-3.211c0-2.241.129-2.375,2.326-2.382,4.208-.014,8.417.019,12.625-.014a53.137,53.137,0,0,0,6.612-.132c.823-.281.536-.7.139-1.12a27.2,27.2,0,0,0-2.436-2.512,12.6,12.6,0,0,1-3.336-3.538,6.279,6.279,0,0,0-1.449-1.363,13.971,13.971,0,0,1-4.1-5.3,16.643,16.643,0,0,1-.687-12.692,2.719,2.719,0,0,0,.245-1.493,10.5,10.5,0,0,0-1.068-1.789,4.657,4.657,0,0,1-1.5-3.744,14.2,14.2,0,0,1,1.009-4.645c.805-1.834,1.6-3.674,2.3-5.55.916-2.453,1.141-4.885-.772-7.234a9.448,9.448,0,0,1,5.054,3.37c.4.534.762,1.1,1.212,1.594.39.428.7.348.891-.2a1.944,1.944,0,0,0,.076-1.066,16.916,16.916,0,0,1,.065-5.971,19.986,19.986,0,0,1,4.623-10.9,13.833,13.833,0,0,1,5.706-4.289c.71-.351.995.251,1.369.622,2.117,2.1,4.231,4.2,6.312,6.334a21.4,21.4,0,0,1,3.849,4.359,1.107,1.107,0,0,0,.261.348c.751.014,1.176.533,1.642,1.019,1.991,2.076,4.039,4.1,6.082,6.119q13.25,13.127,26.371,26.383c1.559,1.565,3.128,3.122,4.743,4.628.528.492,1.338,1.218,1.462-.353q0-25.467-.006-50.946A5.823,5.823,0,0,0,3566.5,901.555Z" transform="translate(-2956.22 -886.638)" fill="#546e79"/>
      <path id="Path_215599" data-name="Path 215599" d="M2543.5,1232.757c1.411-1.675,2.92-3.1,5.344-3.166a20.724,20.724,0,0,1,2.686.429A15.321,15.321,0,0,1,2543.5,1232.757Z" transform="translate(-2324.569 -1123.419)" fill="#6d7d85"/>
      <path id="Path_215600" data-name="Path 215600" d="M3209.545,1004.3l-.7-.209a4.288,4.288,0,0,1-2.356-3.849q-.84-12.683-1.715-25.363c-.257-3.735-.516-7.47-.827-11.2-.24-2.878,1.042-4.335,3.965-4.348q3.856-.017,7.711,0c2.385.018,3.1.545,3.966,2.845q-1.168,16.872-2.335,33.744c-.1,1.432-.27,2.863-.288,4.3a4.121,4.121,0,0,1-2.62,3.969C3212.75,1004.379,3211.144,1004.169,3209.545,1004.3Z" transform="translate(-2781.06 -936.606)" fill="#fefd00"/>
      <path id="Path_215601" data-name="Path 215601" d="M3215.059,1122.266c4.192,1.548,6.256,5.558,4.815,9.355-1.608,4.237-5.8,5.874-10.356,4.044-2.674-1.976-4.18-4.475-3.546-7.931A7.338,7.338,0,0,1,3215.059,1122.266Z" transform="translate(-2782.378 -1049.062)" fill="#fefd00"/>
      <path id="Path_215602" data-name="Path 215602" d="M2380.885,1142.654c-6.679-.043-13.358-.025-20.034-.025q-20.431,0-40.856,0c-.411,0-.822.025-1.236.043-.1,0-.2.009-.3.012a.933.933,0,0,1-.528-.855c.053-2.106.1-4.215.086-6.321-.006-.741.2-.945.954-.942q12.506.047,25.009.006a1.485,1.485,0,0,1,1.559.908,5.28,5.28,0,0,0,4.36,2.909c.015,0,.034,0,.049.006a5.606,5.606,0,0,0,6.207-3.159,1.132,1.132,0,0,1,1.2-.661q11.793.037,23.589-.015c.988-.006,1.377.262,1.337,1.3-.071,1.8-.077,3.6,0,5.395C2382.33,1142.345,2381.962,1142.66,2380.885,1142.654Z" transform="translate(-2168.654 -1057.736)" fill="#fdfd01"/>
      <path id="Path_215603" data-name="Path 215603" d="M2341.414,978.332c-.031.148-.065.29-.1.423-.509,1.776-1.77,2.189-3.724,2.118-4.98-.182-9.97-.059-15.05.173,1.164.525,2.313,1.078,3.492,1.562,3.465,1.43,6.942,2.825,10.406,4.258.466.191,1.312.281.9,1.084-.336.667-.9.133-1.334-.046q-13.09-5.415-26.176-10.851c-.732-.3-1.476-.584-2.217-.874a.567.567,0,0,1-.065-.025c-3.928-1.948-3.86-5.265-2.162-8.266,1.285-2.276,3.956-2.946,6.778-1.782q10.676,4.4,21.328,8.85C2336.143,976.059,2338.774,977.2,2341.414,978.332Z" transform="translate(-2159.223 -940.909)" fill="#fefd00"/>
      <path id="Path_215604" data-name="Path 215604" d="M2421.932,1005.067c-.031.074-.062.145-.09.219-1.6,3.863-3.212,7.726-4.8,11.6-.287.695-.472,1.42-1.491,1s-.615-1.177-.361-1.807c1.346-3.332,2.733-6.645,4.1-9.971a2.944,2.944,0,0,0,.148-.494c.022-.08.04-.164.065-.244C2420.536,1003.835,2420.777,1003.807,2421.932,1005.067Z" transform="translate(-2235.678 -967.604)" fill="#f8f809"/>
      <path id="Path_215605" data-name="Path 215605" d="M2396.5,1112.106a1.354,1.354,0,0,1-.167.192c-.225-.1-.562-.157-.55-.454.077-1.89-1.291-2.779-2.569-3.7a51.606,51.606,0,0,1-4.74-3.381,4.741,4.741,0,0,1-1.6-3.826c.015-.448-.044-1.087.568-1.053.5.028.278.648.349,1.019.052.284.108.574.164.862,0,.009,0,.016.006.025-.028,1.223.812,1.942,1.6,2.662a43.383,43.383,0,0,0,4.4,3.069,6.806,6.806,0,0,1,2.628,2.921A1.677,1.677,0,0,1,2396.5,1112.106Z" transform="translate(-2216.308 -1033.762)" fill="#f1f30d"/>
      <path id="Path_215606" data-name="Path 215606" d="M2421.547,1111.523a1.3,1.3,0,0,1-1.692.244c-.63-.426-1.359-.855-1.034-1.794.015-.043.031-.089.052-.136.343-.726.686-1.448,1.025-2.174a1.245,1.245,0,0,0,.08-.173,1.387,1.387,0,0,1,.559-.846c.454.985.892,1.955,1.349,2.915A1.557,1.557,0,0,1,2421.547,1111.523Z" transform="translate(-2238.337 -1038.438)" fill="#f5f510"/>
      <path id="Path_215607" data-name="Path 215607" d="M2402.629,1104.107c-.392.593-.9-.015-1.3-.272-.605-.383-1.189-.794-1.785-1.189h0a3.78,3.78,0,0,1-.886-2.51c.108-.652.38-1.189.994-.281a2.576,2.576,0,0,0-.021.55c.086,1.334,1.26,1.9,2.235,2.631C2402.222,1103.3,2403.025,1103.511,2402.629,1104.107Z" transform="translate(-2224.435 -1033.412)" fill="#ebed11"/>
      <path id="Path_215608" data-name="Path 215608" d="M3608.314,955.177c-2.331,3.3-2.313,6.817-.8,10.386.923,2.172,2.048,4.257,3.062,6.391,1.539,3.241,2.277,6.512.264,9.851-.1.163-.219.312-.433.614-2.911-4.525-5.772-8.9-6.74-14.3-1.983,1.206-2.841,3.307-3.917,5.211-.2-.13-.344-.177-.348-.234a19.8,19.8,0,0,0-4.48-10.61,7.34,7.34,0,0,1-1.745-5c-2.078.636-3.6,3.04-3.673,5.86-.044,1.693.057,3.39.066,5.086.006.976-.01,1.954-.073,2.927-.043.651.055,1.531-.6,1.8-.754.311-.859-.682-1.263-1.076a8.2,8.2,0,0,0-4.608-2.61c.752,2.735-.315,5.11-1.332,7.438a12.849,12.849,0,0,1-2.009,2.479,12.18,12.18,0,0,0-1.945,2.938c-1.188-.248-1.29-1.313-1.523-2.182-.8-2.988.383-5.649,1.505-8.306.479-1.134.982-2.257,1.445-3.4,1.1-2.72,1.447-5.358-.933-7.738,3.513.376,5.728,2.481,7.447,5.386a40.434,40.434,0,0,1,.025-7.034c.874-6.693,3.786-12.091,9.8-15.528.294-.168.671-1,1.094-.082a.706.706,0,0,1,0,.6c-2.18,4.619-.879,8.921,1.227,13.132a34.632,34.632,0,0,0,1.784,3.238c.48.748.84.764,1.313,0a13.76,13.76,0,0,1,5.692-5.26c.513-.252,1.042-.759,1.687-.242A.371.371,0,0,0,3608.314,955.177Z" transform="translate(-3038.217 -925.338)" fill="#fdfd01"/>
      <path id="Path_215609" data-name="Path 215609" d="M3581.741,1053.792a17.086,17.086,0,0,1,9.029-8.424,16.758,16.758,0,0,1,22.846,17.613c-1.285,11.336-14.173,18.9-25.777,12.037-4.736-3.492-7.453-8.04-7.55-14.051A21,21,0,0,1,3581.741,1053.792Z" transform="translate(-3041.208 -995.201)" fill="#fefd01"/>
      <path id="Path_215610" data-name="Path 215610" d="M3574.233,1165.017q12.417.036,24.833.071c3.634.008,3.634,0,3.634,3.567,0,2.841,0,2.842-2.843,2.842q-23.142,0-46.283,0c-.513,0-1.026.035-1.539.053-.6-1.91-.233-3.867-.229-5.8,0-.907.894-.656,1.462-.657q9.637-.021,19.275-.012C3573.106,1165.083,3573.67,1165.04,3574.233,1165.017Z" transform="translate(-3021.443 -1078.785)" fill="#fcfd01"/>
      <path id="Path_215611" data-name="Path 215611" d="M3651.143,955.154a12.9,12.9,0,0,0-7.4,6.318c-.193.34-.39,1.262-.98.365-2.676-4.066-4.957-8.3-4.814-13.373a8.419,8.419,0,0,1,1.5-4.771c.631-.7,1.123-.047,1.452.281,3.257,3.251,6.465,6.551,9.7,9.823A1.468,1.468,0,0,1,3651.143,955.154Z" transform="translate(-3081.06 -925.589)" fill="#3f525c"/>
      <path id="Path_215612" data-name="Path 215612" d="M1984.415,952.074a29.805,29.805,0,0,1,2.6,12.849,9.416,9.416,0,0,1-2.958,7.174c-1.324,1.286-2.712,2.508-4.1,3.724a13.452,13.452,0,0,0-4.375,7.43,2.387,2.387,0,0,1-2.451,2.064,79.146,79.146,0,0,1-12.3.013,2.562,2.562,0,0,1-2.442-1.531,13.5,13.5,0,0,0-4.861-8.331,32.107,32.107,0,0,1-4.575-4.343,7.978,7.978,0,0,1-1.977-4.43c-.277-4.98.146-9.878,2.487-14.4a13.362,13.362,0,0,1,9.595-7.052,37.083,37.083,0,0,1,16.2.089A14.075,14.075,0,0,1,1984.415,952.074Z" transform="translate(-1912.197 -926.283)" fill="#fefd00"/>
      <path id="Path_215613" data-name="Path 215613" d="M1950.589,1101.875q6.779,3.1,13.557,6.2c.7.32,1.422.6,2.108.943a2.194,2.194,0,0,0,2.779-.2c1.363-1.132,4.105-.413,5.056,1.095a2.249,2.249,0,0,1-1.195,3.479c-.636.252-1.049.356-.751,1.263.79,2.4-.715,3.938-3.179,3.256a3.4,3.4,0,0,1-2.738-3c-.05-1.475-.932-1.781-1.88-2.213q-5.39-2.459-10.8-4.875-10.18-4.565-20.365-9.121a1.9,1.9,0,0,0-2.469.244c-.887.859-2.142.455-3.257.437a12.876,12.876,0,0,1-1.4-.932,2.266,2.266,0,0,1,.584-3.953c.856-.352,1.2-.64.768-1.648a2.172,2.172,0,0,1,2.07-3.082,3.78,3.78,0,0,1,3.985,3.61,1.191,1.191,0,0,0,.849,1.253C1939.732,1097.061,1945.069,1099.674,1950.589,1101.875Z" transform="translate(-1897.16 -1026.771)" fill="#fdfc02"/>
      <path id="Path_215614" data-name="Path 215614" d="M1967.98,1060.415a34.907,34.907,0,0,1,.952,3.554,3.7,3.7,0,0,0,3.37,3.282,40.588,40.588,0,0,0,13.786-.08,3.744,3.744,0,0,0,3.291-3.518,12.043,12.043,0,0,1,1.3-3.93,2.815,2.815,0,0,1,.63-.862c.523-.432,1.016-1.314,1.8-.8.842.557.374,1.385-.03,2.048A32.683,32.683,0,0,0,1990,1067.8c-1.368,4.5-3.11,5.91-7.832,6.19a30.169,30.169,0,0,1-9.79-.643,7.682,7.682,0,0,1-4.117-5.441,31.128,31.128,0,0,0-3.118-7.84c-.378-.639-.767-1.4-.079-1.957.788-.638,1.324.239,1.8.674A8.466,8.466,0,0,1,1967.98,1060.415Z" transform="translate(-1924.49 -1004.734)" fill="#fdfd01"/>
      <path id="Path_215615" data-name="Path 215615" d="M1946.085,1145.79c2.071-.884,4.185-1.683,6.2-2.683a3.474,3.474,0,0,1,3.721.073,29.182,29.182,0,0,0,3.054,1.412c-3.36,1.514-6.38,2.873-9.4,4.236-.607.274-1.225.531-1.807.851a1.477,1.477,0,0,0-.884,1.3,3.9,3.9,0,0,1-4.936,3.516,2.386,2.386,0,0,1-1-3.3c.326-.674.079-1.011-.63-1.212a2.1,2.1,0,0,1-1.725-2.23,2.7,2.7,0,0,1,1.768-2.47,3.725,3.725,0,0,1,4.262.467A.923.923,0,0,0,1946.085,1145.79Z" transform="translate(-1906.513 -1063.293)" fill="#fdfc01"/>
      <path id="Path_215616" data-name="Path 215616" d="M2721.455,1111.206a15.858,15.858,0,0,0,19.218.023,16.02,16.02,0,0,0,5.19-18.276c-.185-.511-1.053-1.22-.056-1.7.9-.436,1.615-1.629,2.968-.637a4.5,4.5,0,0,0,5.6-.085c1.246-.885,1.84.352,2.695.673.952.357.3,1.038.115,1.541a15.853,15.853,0,0,0,23.4,19.133c.2-.125.356-.392.8-.169a18.384,18.384,0,0,1-8.24,4.482c-7.942,1.969-14.851.042-20.624-5.762-.787-.791-1.117-1.062-2.048-.063a20.744,20.744,0,0,1-24.891,4.179c-.226-.117-.47-.2-.705-.3-1.18-.984-2.628-1.629-3.619-2.853-.012-.016.026-.089.056-.118A.526.526,0,0,1,2721.455,1111.206Z" transform="translate(-2447.442 -1027.082)" fill="#fefd00"/>
      <path id="Path_215617" data-name="Path 215617" d="M2838.844,962.007a20.505,20.505,0,0,1,2.629,18.078c-.371,1.17.218,1.24,1.042,1.451a20.568,20.568,0,0,1,15.147,13.96,19.7,19.7,0,0,1,.146,11.822,22.909,22.909,0,0,0-.044-5.511c-1.3-6.619-5.125-11.083-11.613-12.8-6.365-1.689-11.865.206-16.265,5.152-.353.4-.634,1.12-1.321.586-.715-.555-2.11-.5-2.025-1.8a5.007,5.007,0,0,0-3.125-5.311c-1.077-.505-.426-1.446-.539-2.18-.125-.818.584-.8,1.132-.9a15.732,15.732,0,0,0,12.853-11.213c2.569-7.707-2.371-17.261-10.053-19.387.794-.458,1.449.079,2.118.336A21.46,21.46,0,0,1,2838.844,962.007Z" transform="translate(-2517.615 -932.77)" fill="#fdfd01"/>
      <path id="Path_215618" data-name="Path 215618" d="M2727.822,958.318c-5.484,3.711-8.09,8.913-7.235,15.447.889,6.8,4.931,11.213,11.488,13.274.536.169,1.1.238,1.656.354.57.12,1.369-.015,1.28.934-.078.834.443,1.813-.8,2.368a4.642,4.642,0,0,0-2.831,5c.145,1.692-1.431,1.307-2.122,1.972-.606.584-.861-.194-1.158-.535a15.823,15.823,0,0,0-18.978-4.345c-6.167,2.739-9.777,9.4-8.972,16.565-.022.047-.048.091-.067.139-.072.184-.2.222-.248.019a20.291,20.291,0,0,1,.175-10.21c2.3-7.865,7.485-12.794,15.373-14.85,1.16-.3,1.305-.6.973-1.727-2.935-10,1.884-20.882,10.864-24.708C2727.524,957.908,2727.817,957.827,2727.822,958.318Z" transform="translate(-2432.239 -935.648)" fill="#fefd00"/>
      <path id="Path_215619" data-name="Path 215619" d="M2790.389,954.964l-.6-.3a7.764,7.764,0,0,1,5.18-1.528C2793.261,953.3,2791.934,954.4,2790.389,954.964Z" transform="translate(-2494.806 -932.294)" fill="#bacc2b"/>
      <path id="Path_215620" data-name="Path 215620" d="M2792.5,1018.6a13.148,13.148,0,0,0-7.4,2.089,1.3,1.3,0,0,1-1.965-.215c-3.086-3.3-2.962-3.016.69-4.811,6.756-3.32,13.386-2.8,19.806,1.075,1,.6,1.166,1.187.33,2.016-.109.108-.191.242-.293.357-1.872,2.12-1.869,2.114-4.414.928A14.212,14.212,0,0,0,2792.5,1018.6Z" transform="translate(-2488.697 -974.033)" fill="#fdfc01"/>
      <path id="Path_215621" data-name="Path 215621" d="M2853.83,1075.807c-.482,6.521-4.072,12.291-10.882,16.052-1,.552-1.49.321-1.767-.7-.027-.1-.045-.2-.079-.3-.992-2.9-.977-2.875,1.411-4.621a14.679,14.679,0,0,0,6.3-11.8c.045-1.19.47-1.667,1.489-1.888.25-.054.5-.121.747-.177C2853.882,1071.747,2853.92,1071.777,2853.83,1075.807Z" transform="translate(-2529.848 -1014.544)" fill="#fdfc01"/>
      <path id="Path_215622" data-name="Path 215622" d="M2755.72,1072.066c.192.026.551.062.9.126,2.805.517,2.713.528,3,3.321a14.192,14.192,0,0,0,7.023,11.16,2.126,2.126,0,0,1,1.076,2.855c-.836,3.025-1.123,3.236-3.625,1.575-6.366-4.227-9.732-10.111-9.546-17.863C2754.577,1072.031,2754.6,1072.032,2755.72,1072.066Z" transform="translate(-2470.445 -1014.53)" fill="#fdfc02"/>
      <path id="Path_215623" data-name="Path 215623" d="M2018.926,1101.617c5.042-2.284,9.7-4.409,14.38-6.5,1.06-.475,1.894-.883,1.937-2.361.046-1.586,1.959-2.96,3.616-3,1.946-.047,3.026,1.267,2.4,3.11-.289.857-.289,1.192.648,1.563,1.9.751,2.142,2.626.636,4.04a3.721,3.721,0,0,1-4.8.318,1.657,1.657,0,0,0-2.078-.177c-3.329,1.482-6.68,2.919-9.962,4.5a3.524,3.524,0,0,1-3.6-.025C2021.195,1102.555,2020.189,1102.188,2018.926,1101.617Z" transform="translate(-1961.982 -1026.761)" fill="#fdfc01"/>
      <path id="Path_215624" data-name="Path 215624" d="M2439.6,1101.29a4.483,4.483,0,0,1-1.911,3.94c-1.158.925-2.467,1.658-3.643,2.562-1.415,1.089-3.317,1.823-3.257,4.108a.43.43,0,0,1-.541.409.606.606,0,0,1-.5-.675,3.951,3.951,0,0,1,1.494-2.916,25.979,25.979,0,0,1,3.739-2.689,13.862,13.862,0,0,0,2.548-1.969,3.729,3.729,0,0,0,1.171-2.746c-.013-.463-.244-1.276.436-1.27C2440.006,1100.053,2439.412,1100.941,2439.6,1101.29Z" transform="translate(-2245.947 -1033.876)" fill="#eef110"/>
      <path id="Path_215625" data-name="Path 215625" d="M2420.79,1064.244c.53,1.133,1.031,2.128,1.461,3.152a1.438,1.438,0,0,1-.511,1.9,1.416,1.416,0,0,1-1.846.029,1.514,1.514,0,0,1-.548-1.914C2419.794,1066.4,2420.265,1065.394,2420.79,1064.244Z" transform="translate(-2238.653 -1009.13)" fill="#f6f60a"/>
      <path id="Path_215626" data-name="Path 215626" d="M2440.962,1100.853c-.093,1.276-2.238,3.567-3.49,3.776a.4.4,0,0,1-.487-.213.5.5,0,0,1,.194-.675c.45-.34.944-.623,1.4-.953a2.537,2.537,0,0,0,1.39-2.079c0-.409-.02-.945.576-.858C2441.074,1099.929,2441.011,1100.437,2440.962,1100.853Z" transform="translate(-2250.902 -1033.736)" fill="#e4eb12"/>
      <path id="Path_215627" data-name="Path 215627" d="M3222.137,1104.73l4.8-.111A13.211,13.211,0,0,1,3222.137,1104.73Z" transform="translate(-2793.651 -1037.038)" fill="#546e79"/>
      <path id="Path_215628" data-name="Path 215628" d="M2751.152,902.5a15.728,15.728,0,0,0-15.733-15.384q-38.807-.068-77.613,0a15.835,15.835,0,0,0-15.7,13.607v0a6.025,6.025,0,0,0-.271,2.727q-.014,38.12-.009,76.24a7.455,7.455,0,0,0,.316,2.588,3.931,3.931,0,0,0,.159,1.662,15.979,15.979,0,0,0,11.571,11.93.709.709,0,0,0,.445.122,15.268,15.268,0,0,0,3.787.43q38.379.048,76.759.07a4.51,4.51,0,0,0,2.414-.28c-.511-.01-1.023-.028-1.534-.028l-44.8-.042h-.243c.529-.49.474-.687-.35-1.5-6.6-6.547-13.032-13.273-19.812-19.642a1.093,1.093,0,0,1-.425-1.055c-.121-.758-.817-.971-1.3-1.391-.749-.649-1.792-.976-2.207-1.995a4.1,4.1,0,0,0-.984-1.168,12.748,12.748,0,0,1-3.812-5.648c-.441-1.132-.453-2.413-1.216-3.428a17.316,17.316,0,0,1,.228-10.337,20.107,20.107,0,0,1,14.682-14.062c1.8-.5,1.908-.715,1.415-2.485a20.808,20.808,0,0,1-.568-8.409c.961-7.191,4.921-12.258,11.213-15.644,1.66-.794,3.273-1.744,5.223-1.585,1.659-.115,3.371-.6,4.773.852.229.237.988.429.852-.247-.241-1.19.451-.781.981-.744a17.329,17.329,0,0,0,2.253.45,2.1,2.1,0,0,1,1.349.133,30.214,30.214,0,0,1,5.929,3.179c1.8,1.308,3.1,3.086,4.671,4.61a1.59,1.59,0,0,1,.9.532c1.363,1.537,2.857,2.947,4.3,4.4,8.01,8.064,16.075,16.075,24.1,24.123,2.179,2.185,4.351,4.378,6.557,6.536.436.426.816,1.152,1.655.716a5.346,5.346,0,0,0,.068-.611C2751.184,935.314,2751.25,918.906,2751.152,902.5Zm-90.516,93.64.077-.083v0a.719.719,0,0,0,.044.082Z" transform="translate(-2392.522 -886.675)" fill="#546e79"/>
      <path id="Path_215629" data-name="Path 215629" d="M3163.017,902.362c-.034-5.515-2.75-9.765-7.354-12.794h0l-2.216-1.2a.333.333,0,0,0-.224-.07,11.541,11.541,0,0,0-4.722-1.151,9.758,9.758,0,0,0-2.785-.041.415.415,0,0,0-.3.034,2.78,2.78,0,0,0-.59-.128c-7.146.006-14.292.029-21.438.031-17.945.006-35.889-.023-53.834.015a15.819,15.819,0,0,0-15.58,13.886,6.583,6.583,0,0,0-.247,3.034q-.029,37.706-.017,75.412a16.279,16.279,0,0,0,2.817,9.864h0a15.577,15.577,0,0,0,13.316,7.09q38.557.1,77.114.042a2.574,2.574,0,0,0,1.645-.2c-.551-.662-1.321-.458-2.009-.461-5.85-.019-11.7-.035-17.549.009a3.823,3.823,0,0,1-3.122-1.275c-1.63-1.776-3.394-3.426-5.093-5.138-5.384-5.423-10.85-10.765-16.186-16.238-.431-.512-.969-.912-1.441-1.38a6.626,6.626,0,0,1-1.62-7.467,6.769,6.769,0,0,1,6.258-4.145,4.255,4.255,0,0,0,1.962-.229c.519-.814-.168-1.19-.613-1.623-1.538-1.495-2.783-3.262-4.384-4.692-1.531-1.277-1.743-3.046-1.846-4.876-.147-2.611-.321-5.222-.492-7.832-.326-4.965-.75-9.922-1.063-14.888-.251-3.993-.427-7.992-.772-11.978-.243-2.805.738-4.081,3.543-4.14,2.311-.049,4.627.073,6.934-.039a3.936,3.936,0,0,1,4.178,2.223c.606-.11.9.347,1.248.689,6.849,6.744,13.635,13.552,20.427,20.354,8.029,8.041,16.106,16.035,24.06,24.152.542.554,1.022,1.323,1.991,1.244a3.432,3.432,0,0,0,.058-.457C3163.068,939.454,3163.131,920.908,3163.017,902.362Zm-108.863,75.5-.129.125v-.2a.5.5,0,0,0,.083.057C3054.124,977.858,3054.138,977.859,3054.154,977.865Z" transform="translate(-2677.207 -886.629)" fill="#546e79"/>
      <g id="Group_152137" data-name="Group 152137" transform="translate(530.594 14.917)">
        <path id="Path_215630" data-name="Path 215630" d="M3632.755,1012.846a3.58,3.58,0,0,1-.272,1.958c-.337,6.9-7,13.445-14.146,13.9-1.334-.022-2.677-.142-4-.037a4.494,4.494,0,0,1-1.05-.034c-1.476,0-2.863-.025-3.011-.025h-.043c-.216,0-.429,0-.646.006h-5.8a3.44,3.44,0,0,1-1.041.018q-16.263,0-32.525,0a1.688,1.688,0,0,1-1.417-.544c-4.681-4.762-9.458-9.427-14.173-14.155-.636-.636-1.581-1.019-1.822-2.016.812-.633,1.772-.432,2.68-.432q22.15-.023,44.3-.012c3.156,0,3.156,0,3.137-3.143-.012-2.27-.062-2.334-2.332-2.338-7.719-.006-15.439.009-23.156-.015-.84,0-1.775.213-2.436-.593-2.072-2.007-4.147-4.008-6.21-6.028-.056-.052.031-.256.049-.389.791-.219,1.374.3,2.013.584,7.732,3.4,15.789,1.26,20.655-5.506a16.231,16.231,0,0,0-3.823-22.329c-6.019-4.172-12.228-4.348-18.49-.6a15.477,15.477,0,0,0-5.058,5.092c-.368.577-.562,1.362-1.393,1.538-.485-.442-1.1-.8-1-1.606-.117-1.59,1.034-2.541,1.945-3.508a11.155,11.155,0,0,0,3.122-8.411c-.037-1.149.438-1.371,1.4-1.068a11.472,11.472,0,0,1,4.36,3.073c.661-.5.482-1.164.491-1.742.034-2.313-.031-4.629.028-6.945a7.424,7.424,0,0,1,2.566-5.886c1.177-.973,1.674-.874,1.943.6a14.158,14.158,0,0,0,2.758,5.469,17.222,17.222,0,0,1,3.239,7.748.537.537,0,0,0,.371.55,11.012,11.012,0,0,1,2.554-3.591c.383-.337.781-.769,1.349-.525.494.213.488.753.519,1.21a10.306,10.306,0,0,0,1.587,4.465c1.254,2.174,1.878,4.7,3.65,6.58.293.312.355,1.007.936.846.47-.13.531-.723.664-1.155a9.5,9.5,0,0,0-.716-7.189c-1.124-2.313-2.3-4.6-3.313-6.966a10.843,10.843,0,0,1-.229-9.122c.293-.642.525-1.371,1.346-1.578.374-.377.571-.605,1.146-.022,6.485,6.58,13.025,13.105,19.553,19.639q8.967,8.976,17.95,17.944c.213.213.4.463.63.667a1.4,1.4,0,0,0,.83.4q.01-25.772.025-51.54c0-.667.034-1.334.052-2,.38.506.222,1.093.222,1.643q.046,31.784.068,63.568Q3632.791,1006.062,3632.755,1012.846Z" transform="translate(-3552.806 -934.07)" fill="#3f5259"/>
      </g>
      <path id="Path_215631" data-name="Path 215631" d="M3596.656,1072.233a11.694,11.694,0,1,1,11.723,11.729A11.676,11.676,0,0,1,3596.656,1072.233Z" transform="translate(-3052.521 -1006.574)" fill="#3f525d"/>
      <path id="Path_215632" data-name="Path 215632" d="M1969.494,997.111c3.146.021,5.033,1.035,5.67,2.975.681,2.077-.327,4.309-2.631,6.044a5.013,5.013,0,0,1-5.469.727,5.738,5.738,0,0,1-3.438-4.922,4.047,4.047,0,0,1,3.415-4.551A8.556,8.556,0,0,1,1969.494,997.111Z" transform="translate(-1923.742 -962.716)" fill="#3f525c"/>
      <path id="Path_215633" data-name="Path 215633" d="M2027.764,996.915c.556.069,1.118.107,1.666.212,3.332.642,4.745,2.64,4.009,5.642-.731,2.977-3.952,5.108-6.64,4.292a7.065,7.065,0,0,1-4.654-4.153,3.983,3.983,0,0,1,2.586-5.5A9.691,9.691,0,0,1,2027.764,996.915Z" transform="translate(-1963.965 -962.592)" fill="#3f525c"/>
      <path id="Path_215634" data-name="Path 215634" d="M2012.672,1039.992c.092-1.034-.232-2.392.691-2.6,1.033-.233,1.334,1.174,1.835,1.959a3.536,3.536,0,0,1,.546,1.9,1.583,1.583,0,0,1-1.351,1.783c-.938.106-1.493-.568-1.619-1.5C2012.7,1040.978,2012.7,1040.411,2012.672,1039.992Z" transform="translate(-1957.659 -990.553)" fill="#45575a"/>
      <path id="Path_215635" data-name="Path 215635" d="M2003.961,1039.83c0,.459.032.921-.007,1.377-.078.942-.621,1.6-1.548,1.555a1.516,1.516,0,0,1-1.417-1.708,5.956,5.956,0,0,1,1.785-3.793c.435-.476.871-.291,1,.3.157.742.2,1.508.3,2.263Z" transform="translate(-1949.583 -990.292)" fill="#405459"/>
    </g>
    <g id="Group_152139" data-name="Group 152139" transform="translate(1894.123 477.871)">
      <path id="Path_215636" data-name="Path 215636" d="M3355.492,489.792c-2.186-6.71-8.288-10.953-15.823-10.956q-31.7-.019-63.4,0c-.821,0-1.64.043-2.461.068q-3.4-.023-6.8-.052l-3.394.019a15.453,15.453,0,0,0-9.585,2.758,14.575,14.575,0,0,0-4.974,5.518l-.828,1.624a15.229,15.229,0,0,0-1.239,5.994q-.014,38.412,0,76.831c.01,6.83,3.091,11.879,9.205,15.02a15.173,15.173,0,0,0,8.35,1.482l1.837.037,2.171.019c4.2,0,8.406.015,12.608.009q12.992-.014,25.985-.046c.139-.636-.392-.892-.723-1.254-2.038-2.242-4.243-4.32-6.38-6.463q-9.185-9.2-18.417-18.355a3.664,3.664,0,0,1-.945-1.39,3.681,3.681,0,0,0-1.232-1.127,17.154,17.154,0,0,1-3.131-2.943,19.746,19.746,0,0,1-4.564-14.152c.467-5.972,2.869-10.947,7.995-14.362.55-.732,1.491-1.115,1.8-2.05a51.042,51.042,0,0,0,.1-6.766c-.012-1.3.349-1.93,1.757-2.094a60.84,60.84,0,0,1,7.825-.488,15.617,15.617,0,0,0,4.138-.173c.543-.232.494-.624.21-.988-.531-.676-1-1.457-2-1.532a.7.7,0,0,0-.253.4c-.164.392.42.966.077,1.068a3.639,3.639,0,0,1-2.214-.028c-.642-.229-.17-.76-.126-1.161.389-2.5,1.995-3.937,4.221-4.857a18.935,18.935,0,0,1,4.5-.923,11.482,11.482,0,0,1,10.86,4.088,52.579,52.579,0,0,1,4.712,6.457,14.58,14.58,0,0,0,4.555,4.724,4.089,4.089,0,0,0,5.194-.784c-.791-1.4-2.162-2.263-3.286-3.557,1.8-.009,3.465.059,5.123-.04.46-.028,1.309.161,1.05-.858-1.939-.562-3.934-.065-5.957-.315.936.015,1.8-.037,2.665.015,1.612.1,3.246-.293,4.833.253a5.565,5.565,0,0,0,.988.917c.964.071,1.368-.741,1.924-1.266.88-.837,1.627-.9,2.344.158,1.7,1.6,3.613,2.977,5.21,4.706.343.374.892.778,1.321.324.389-.411-.13-.849-.438-1.149a47.493,47.493,0,0,0-3.545-3.591c-.161-.139-.318-.278-.485-.411-1.188-.929-1.5-2.779-3.255-3.119.2-.228.09-.371-.043-.509-.007,0-.009,0-.016,0a.056.056,0,0,1-.006-.022,1.164,1.164,0,0,1-.1-.117,9.2,9.2,0,0,1-.149-.914,4.745,4.745,0,0,0,.253,1.031.172.172,0,0,1,.022.025c1.13.17.787-.763.806-1.238.093-2.128,0-4.261.062-6.546,1.569,1.748,3.193,3.174,4.607,4.8,1.022.367,1.328-.618,1.942-1.022.485-.318.695-1.22,1.563-.766a16.6,16.6,0,0,1,1.328,1.266c3.434,3.431,6.852,6.874,10.307,10.286.537.531,1.031,1.386,2.041.781q.037-11.719.077-23.44C3356.317,495.665,3356.431,492.679,3355.492,489.792Zm-22.245,23.252a34.753,34.753,0,0,1,0-3.974c-.015-.67,0-1.343-.021-2.01.04.67.037,1.34.021,2.01,0,.2.009.4.021.593C3333.333,510.784,3333.16,511.923,3333.247,513.044Z" transform="translate(-2870.424 -478.534)" fill="#546e79"/>
      <path id="Path_215637" data-name="Path 215637" d="M3526.307,572.26c-.016-.67,0-1.343-.022-2.01C3526.325,570.92,3526.322,571.59,3526.307,572.26Z" transform="translate(-3063.487 -541.724)" fill="#546e7a"/>
      <path id="Path_215638" data-name="Path 215638" d="M3527.357,594.345c-.006,0-.01,0-.016,0a.06.06,0,0,1-.006-.022A.161.161,0,0,1,3527.357,594.345Z" transform="translate(-3064.212 -558.362)" fill="#546e7a"/>
      <path id="Path_215639" data-name="Path 215639" d="M3380.284,648.28q-5.352-5.363-10.7-10.727c-2.733-2.747-5.446-5.516-8.185-8.258-2.2-2.2-4.434-4.368-6.633-6.57-.457-.458-1.13-.811-1.046-1.629.621-.344,1.077.1,1.559.347a19.911,19.911,0,0,0,22.937-32.186,2.415,2.415,0,0,0-2.252-.591,57.506,57.506,0,0,1-13.021,1.095,67.36,67.36,0,0,1-8.411-.916c-.641-.112-1.349-.15-1.746-.817.128-.871.887-1.088,1.5-1.45,1.556-.422,3.064.122,4.59.239a64.471,64.471,0,0,0,13.85-.264c1.309-.182,1.875-.718,1.891-2.063.025-1.9-.12-3.8-.059-5.707.028-.887-.41-1.3-1.27-1.406-.766-.1-1.533-.182-2.295-.3a3.046,3.046,0,0,1-2.12-.754,11.3,11.3,0,0,0-2.176-2.1c-.472-.883.2-1.321.723-1.786,1.809-1.621,4.107-1.771,6.348-1.993,4.518-.446,7.577,1.931,10.092,5.334,1.769,2.393,3.227,5.01,5.216,7.244a9.519,9.519,0,0,0,4.072,2.929c3.5,1.165,6.337-.4,9-2.3a31.247,31.247,0,0,0,6.009-5.458c2.09,1.654,4.057,3.452,5.984,5.3l.264-.276-4.181-4.279c.417-.619,1.079-.521,1.675-.529,2-.027,4-.024,5.144-.012a59.672,59.672,0,0,0-7.178.151,4.192,4.192,0,0,1-1.649-1.984c-.193-.486-.951-.778-1.5-1.084-.625-.351.147-.4.1-.61l.031-.048c.6-1.159.211-2.4.264-3.6.073-1.669.019-3.344.019-5.016l.434-.337c1.531,1.677,3.071,3.345,4.578,5.044.18.2.174.569.255.86.015,1.1-1,1.466-1.551,2.165a14.893,14.893,0,0,0-1.182,1.323c1.6-1.509,3.142-3.082,4.712-4.624.432-.424.789-.97,1.465-1.066q5.924,5.882,11.847,11.763c.468.465.882,1.025,1.665.91.032.564.091,1.127.091,1.691,0,16.039.034,32.078-.009,48.117a15.918,15.918,0,0,1-13.247,16.034,8.216,8.216,0,0,1-1.526.2Q3397.478,648.294,3380.284,648.28Z" transform="translate(-2943.563 -538.699)" fill="#3f525d"/>
      <path id="Path_215640" data-name="Path 215640" d="M2137.072,600.1c-.213-1.232-1.538-1.547-2.082-2.519-.214-.383-.7-.6-.753-1.105.366-.7,1.081-.376,1.679-.565-2.557-2.594-2.734-5.719-2.107-9.035.556-2.941,1.925-5.644,2.482-8.59a9.859,9.859,0,0,0,.125-3.814c-.321-1.639.126-1.961,1.754-1.367a11.477,11.477,0,0,1,6.069,5.49,25.732,25.732,0,0,0,.618-8.142,28.717,28.717,0,0,1,.157-8.448,10.124,10.124,0,0,1,3.4-5.9c.411-.365.878-.848,1.493-.537.526.266.469.873.5,1.379a11.668,11.668,0,0,0,1.861,5.494c2.029,3.278,4.171,6.492,5.19,10.292a29.424,29.424,0,0,1,.83,5.516c.607-1.181,1.126-2.218,1.629-3.263a12.55,12.55,0,0,1,1.881-2.814c.495-.567.988-1.428,1.83-1.193.949.265.646,1.279.673,2a14.807,14.807,0,0,0,1.668,5.421,72.341,72.341,0,0,1,2.875,6.654c1.154,3.528,1.05,6.886-1.287,9.964-.175.231-.436.452-.338.834a1.914,1.914,0,0,0,1.942-.622c4.452-4.646,6.178-9.122,3.886-16.061a91.639,91.639,0,0,0-3.841-8.923,23.493,23.493,0,0,1-2.352-10.125,19.787,19.787,0,0,1,1.923-7.26,17.058,17.058,0,0,0-5.638,4.373,25.86,25.86,0,0,0-2.965,4.5c-.69,1.3-1.226,1.348-1.94.144-3.633-6.129-6.594-12.5-6.142-19.87.157-2.556.529-5.134,2.519-7.084.623-.295.784.326,1.055.6q13.714,13.669,27.4,27.37,10.567,10.566,21.136,21.128c.389.389.706.913,1.361.921.033,5.5.076,11,.1,16.507.012,3.241.05,6.483-.03,9.722a15.812,15.812,0,0,1-15.655,15.491c-14.2.085-28.4.028-42.6.027-.461,0-.923-.052-1.385-.081.427-.739-.267-1.005-.621-1.363-3-3.026-6.016-6.031-9.026-9.044q-4.243-4.248-8.476-8.506a13.151,13.151,0,0,1-.886-1.148c4.1,0,8.013.007,11.929-.007a3.555,3.555,0,0,0,1.813-.166c.688-.891,1.685-.614,2.566-.617q14.259-.036,28.518-.015c3.048,0,3.048,0,3.01-3.059-.025-2.005-.12-2.111-2.25-2.113q-16.417-.012-32.835-.013C2138.836,600.561,2137.874,600.76,2137.072,600.1Z" transform="translate(-2096.282 -517.258)" fill="#3f525d"/>
      <path id="Path_215641" data-name="Path 215641" d="M2526.3,604.233a60.674,60.674,0,0,1-5.759-5.621c-2.015-2.066-4.18-3.986-6.223-6.026s-4.03-4.137-6.014-6.235c-.872-.923-1.905-1.666-2.781-2.6-.426-.455-.477-1.169-1.091-1.43.638-.619,1.45-.426,2.2-.428,6.682-.016,13.365-.008,20.048-.01,2.172,0,2.19,0,2.625-2.063a8.929,8.929,0,0,1,3.054-5.059c1.177-.991,1-1.853.337-2.926-3.184-5.163-6.08-10.494-9.136-15.731-.562-.962-1.578-1.819-1.221-3.163,1.056-.121,1.206.967,1.719,1.455,3.092,2.945,5.908,6.185,9.062,9.057,2.146,1.956,4.014,4.174,6.206,6.077a46.993,46.993,0,0,1,3.7,3.815c.289.315.5.639.974.612.073.019.147.039.221.057,1.243.891,2.159,2.141,3.377,3.061a5.284,5.284,0,0,1,1.326,3.068c.137,1.433.9,1.749,2.164,1.733,3.441-.043,6.883-.015,10.325-.015,3.544,0,7.089.014,10.633-.007,1.594-.009,1.612-.123,1.54-1.684a33.678,33.678,0,0,0-4.822-15.748c-.281-.477-.638-.956-.406-1.575a5.128,5.128,0,0,1,2.879,1.97q10.758,11.127,21.892,21.876a1.841,1.841,0,0,0,.542.25c.026,2.159.073,4.318.076,6.477q.012,14.662,0,29.324c-.014,9.533-6.892,16.417-16.436,16.439q-13.89.032-27.781.006c-.615,0-1.231-.053-1.846-.081-.023-.71-.6-1.043-1.024-1.466q-10.888-10.956-21.769-21.919c-.387-.392-2.09-.492-.661-1.675.762-.38,1.4.086,2.046.339a34.746,34.746,0,0,0,24.163.59c1.522-.5,2.93-1.253,4.389-1.895,1.009-.444,1.083-.991.553-1.923-2.465-4.337-5.025-8.619-7.481-12.961-1.088-1.924-2.281-3.79-3.3-5.75-.483-.925-1.006-1.274-2.081-.825a8.506,8.506,0,0,1-6.761.023,1.435,1.435,0,0,0-2.112.788c-1.971,3.553-4.14,6.993-6.069,10.571C2527.278,603.542,2527.031,604.146,2526.3,604.233Z" transform="translate(-2357.173 -529.754)" fill="#3f525d"/>
      <path id="Path_215642" data-name="Path 215642" d="M3016.087,605.891c1.123.307,1.7,1.3,2.448,2.038,4.4,4.334,8.748,8.722,13.124,13.081q3.64,3.624,7.319,7.21a1.92,1.92,0,0,0,.538.262c.253.314.165.687.165,1.038q.006,15.711,0,31.422a1.921,1.921,0,0,1-.112.907c-.567,7.032-7.03,13.631-14.3,13.81-10.985.271-21.983.052-32.975.041.164-.317.06-.477-.209-.744q-10.517-10.438-20.99-20.922c-.572-.572-1.095-1.192-1.641-1.79a3.239,3.239,0,0,1,.981-1.357q6.594-6.6,13.193-13.188c1.41-1.4,1.559-1.408,2.969-.023,4.358,4.281,8.755,8.525,12.934,12.984,1.087,1.16,1.138,1.168,2.292.017,4.257-4.246,8.486-8.521,12.773-12.736.873-.858.851-1.415,0-2.263-4.3-4.278-8.646-8.5-12.837-12.889-1.443-1.51-1.417-1.8.054-3.274q6.364-6.39,12.76-12.75C3014.99,606.354,3015.329,605.738,3016.087,605.891Z" transform="translate(-2678.605 -566.343)" fill="#3f525d"/>
      <path id="Path_215643" data-name="Path 215643" d="M2155.66,535.1c-2.848,5.112-2.668,10.423-1.04,15.828a52.328,52.328,0,0,0,5.646,12.059c2.212-4.848,5.3-8.644,10.146-10.632.313.214.192.363.123.476-2.775,4.613-2.82,9.436-1.107,14.391,1.329,3.843,3.32,7.4,4.8,11.182,2.459,6.269,1.511,11.842-3.185,16.764-1.048,1.1-2.1,1.755-3.653,1.314-.209-.494.275-.7.5-.98a10,10,0,0,0,1.722-9.857,46.593,46.593,0,0,0-2.588-6.092c-1.215-2.61-2.493-5.187-2.017-8.528-3.141,2.278-4.315,5.455-5.882,8.853-.184-1.721-.273-3.068-.482-4.4a25.38,25.38,0,0,0-3.916-9.8c-1.938-3.017-4.07-5.953-3.687-10.092a10.005,10.005,0,0,0-4.633,6.873,32.726,32.726,0,0,0-.135,8,24.766,24.766,0,0,1-.948,9.514,11.571,11.571,0,0,0-7.828-6.877c1.313,3.769-.117,6.952-1.17,10.2-.969,2.984-1.978,5.958-1.084,9.181a11.457,11.457,0,0,0,2.552,4.023l-2.52.154c-4.5-2.017-7.5-7.875-6.632-12.778.662-3.735,2.288-7.128,3.592-10.638.376-1.011.751-2.027,1.043-3.064.979-3.467.782-6.711-1.924-9.5,5.1.577,7.848,3.946,9.989,8.2-.2-1.5-.159-2.986-.3-4.458a28.354,28.354,0,0,1,.086-4.613,32.034,32.034,0,0,1,6.211-17.776A21.732,21.732,0,0,1,2155.66,535.1Z" transform="translate(-2097.325 -517.432)" fill="#fefd00"/>
      <path id="Path_215644" data-name="Path 215644" d="M2136.063,746.162c4.211.029,8.421.076,12.632.083,8.07.014,16.139.031,24.208-.021,1.238-.008,1.639.362,1.522,1.57a15.326,15.326,0,0,0,0,3.08c.135,1.267-.382,1.525-1.56,1.521-10.844-.037-21.689-.015-32.533-.007-.2,0-.407.032-.611.049-4.217-.026-8.434-.1-12.65-.05-1.231.014-1.637-.349-1.527-1.564a22.61,22.61,0,0,0,.006-3.393c-.059-.979.34-1.228,1.262-1.2A81.852,81.852,0,0,0,2136.063,746.162Z" transform="translate(-2095.272 -663.316)" fill="#fefd00"/>
      <path id="Path_215645" data-name="Path 215645" d="M2982.292,571.194q-7.382,7.322-14.777,14.632c-.714.7-.218,1.015.231,1.463,4.471,4.473,8.9,8.985,13.423,13.407,1.011.99,1.183,1.5.058,2.594-4.574,4.433-9.041,8.977-13.512,13.514-.657.667-1.024.692-1.7,0-4.577-4.655-9.222-9.244-13.79-13.907-.732-.747-1.1-.715-1.8,0-4.328,4.39-8.7,8.735-13.067,13.088-.543.541-1.128,1.039-1.693,1.558-4.79-4.8-9.545-9.641-14.4-14.377-1.029-1-.826-1.523.049-2.385,4.5-4.434,8.94-8.931,13.446-13.36.738-.724.9-1.1.065-1.92-4.582-4.5-9.066-9.1-13.653-13.6-.875-.858-.74-1.325.025-2.083,4.485-4.443,8.961-8.9,13.378-13.406.881-.9,1.362-.972,2.287-.026,4.383,4.486,8.875,8.864,13.265,13.344.883.9,1.383.975,2.3.04,4.419-4.515,8.935-8.936,13.354-13.451.858-.876,1.322-.862,2.167,0,4.485,4.578,9.035,9.093,13.559,13.633C2981.854,570.307,2982.359,570.571,2982.292,571.194Z" transform="translate(-2644.81 -531.646)" fill="#fefd00"/>
      <path id="Path_215646" data-name="Path 215646" d="M2656.874,561.085a36.4,36.4,0,0,1,5.787,17.961c.061,1.187-.235,1.469-1.4,1.461q-11.26-.075-22.52,0c-1.108.007-1.54-.28-1.613-1.43a6.308,6.308,0,0,0-1.495-3.8,28.6,28.6,0,0,0-3.137-3.091l.014.008c1.666-3.465,3.777-6.679,5.647-10.029,2.048-3.668,4.2-7.277,6.281-10.929.468-.822.76-1.171,1.794-.5A39.231,39.231,0,0,1,2656.874,561.085Z" transform="translate(-2445.697 -527.991)" fill="#fefd00"/>
      <path id="Path_215647" data-name="Path 215647" d="M2521.4,551.3c1.362,2.927,3.165,5.606,4.744,8.411q3.245,5.764,6.625,11.452c.469.793.37,1.181-.373,1.715a8.822,8.822,0,0,0-3.762,6.3c-.142,1.22-.574,1.464-1.7,1.457-7.3-.046-14.6-.025-21.9-.021-.512,0-1.024.046-1.536.07-.686-1.047-.345-2.213-.228-3.278A35.024,35.024,0,0,1,2519.32,551C2520.22,550.4,2520.831,550.346,2521.4,551.3Z" transform="translate(-2356.241 -528.117)" fill="#fefd00"/>
      <path id="Path_215648" data-name="Path 215648" d="M2565.388,689.113c2.4-4.127,4.818-8.242,7.182-12.389.5-.886.867-1.254,1.99-.728a8.367,8.367,0,0,0,7.311-.037c1.023-.479,1.4-.178,1.891.69,3.679,6.476,7.341,12.963,11.173,19.348.866,1.443.261,1.816-.787,2.323a34.975,34.975,0,0,1-29.678,1.008c-.376-.154-.771-.265-1.159-.4-.661-.781-2.286-.652-2.328-1.71-.034-.871.829-1.788,1.322-2.669C2563.324,692.734,2564.36,690.925,2565.388,689.113Z" transform="translate(-2396.263 -614.634)" fill="#fefd00"/>
      <path id="Path_215649" data-name="Path 215649" d="M3334.026,637.619a54.77,54.77,0,0,0,23.223.172,2.412,2.412,0,0,1,2.436.694,20.333,20.333,0,0,1-24.172,32.458c-.175-.1-.369-.172-.554-.257a21.289,21.289,0,0,1-8.756-12.421c-1.838-7.168.991-15.823,6.7-20.3A1.574,1.574,0,0,1,3334.026,637.619Z" transform="translate(-2924.803 -588.289)" fill="#fefd00"/>
      <path id="Path_215650" data-name="Path 215650" d="M3372.246,599.648c1.674.219,3.343.471,5.021.642.847.086,1.274.34,1.25,1.3-.061,2.405-.027,4.814-.015,7.221,0,.665-.049,1.18-.9,1.312a57.391,57.391,0,0,1-19.942-.226c.018-2.716.078-5.433.032-8.149-.016-.953.26-1.286,1.228-1.457A70.522,70.522,0,0,1,3372.246,599.648Z" transform="translate(-2946.931 -562.021)" fill="#fefd00"/>
      <path id="Path_215651" data-name="Path 215651" d="M3432.993,583.174a2.258,2.258,0,0,1-.523,1.251c-2.545,2.466-5.126,4.88-8.415,6.364-3.95,1.782-7.368,1.018-10.241-2.258-1.766-2.013-3.118-4.317-4.677-6.474a28.7,28.7,0,0,0-2.9-3.576c-2.963-2.951-9.314-3.618-12.923-1.407-.8.489-1.745.956-1.782,2.128a.219.219,0,0,0-.055.224,2.108,2.108,0,0,1-2.768.083c-.048-2.154,1.256-3.507,2.869-4.576,2.86-1.9,10.479-3.028,14.668.062a25.822,25.822,0,0,1,5.957,6.751,36.343,36.343,0,0,0,4.03,5.417c2.063,2.112,4.129,2.414,6.8,1.022,1.882-1.21,3.445-2.884,5.527-3.8.563-.5,1.13-1,1.688-1.506C3431.493,581.738,3431.933,581.784,3432.993,583.174Z" transform="translate(-2968.392 -543.676)" fill="#fbfb06"/>
      <path id="Path_215652" data-name="Path 215652" d="M3495.943,607.465a17.241,17.241,0,0,1-5.526,3.8l-4.217-3.955c2.537-.311,4.921.165,7.257-.286.478-.718,1.18-.569,1.866-.484Z" transform="translate(-3035.78 -566.759)" fill="#3f525a"/>
      <path id="Path_215653" data-name="Path 215653" d="M3497.329,576.633c.2.165.413.307.59.483q2.664,2.644,5.321,5.3c.267.265.55.568.283.915-.3.385-.646.138-.907-.127q-2.745-2.781-5.475-5.576c-.21-.215-.439-.468-.239-.8C3496.963,576.727,3497.155,576.708,3497.329,576.633Z" transform="translate(-3043.123 -546.136)" fill="#eaf012"/>
      <path id="Path_215654" data-name="Path 215654" d="M3537.658,605.591c.245-.586.731-.6,1.275-.6,2.357.017,4.714,0,7.071,0,.451,0,1.115-.078,1.116.493,0,.636-.691.442-1.112.446-2.664.029-5.328.033-7.991.045Z" transform="translate(-3071.347 -565.739)" fill="#e7ef0e"/>
      <path id="Path_215655" data-name="Path 215655" d="M3494.528,605.524c-.506.605-1.238.345-1.865.484-2.249-.026-4.5-.049-6.746-.082-.342-.005-.83.085-.866-.39-.032-.433.406-.525.773-.526q3.913-.015,7.826-.014A1.022,1.022,0,0,1,3494.528,605.524Z" transform="translate(-3034.985 -565.74)" fill="#ebf30f"/>
      <path id="Path_215656" data-name="Path 215656" d="M3525.834,574.391c-.866.088-.868-.522-.869-1.1q-.01-3.536.006-7.072c0-.434-.083-1.075.555-1.039.545.03.372.643.372,1.017,0,2.716-.02,5.431-.034,8.147Z" transform="translate(-3062.571 -538.218)" fill="#e8f10f"/>
      <path id="Path_215657" data-name="Path 215657" d="M3541.156,576.982c-1.817,2.225-4.021,4.074-5.983,6.157-.262.278-.6.51-.932.2-.421-.39.056-.627.272-.854,1.056-1.11,2.131-2.2,3.2-3.3.76-.726,1.546-1.426,2.27-2.186C3540.412,576.546,3540.754,576.374,3541.156,576.982Z" transform="translate(-3068.87 -546.106)" fill="#f0f51b"/>
      <path id="Path_215658" data-name="Path 215658" d="M3387.726,593.73l2.768-.083c-.052.625.634.885.772,1.622-.937,0-1.829-.052-2.711.012C3387.04,595.391,3387.041,594.761,3387.726,593.73Z" transform="translate(-2967.409 -557.896)" fill="#3f525d"/>
      <path id="Path_215659" data-name="Path 215659" d="M3534.689,613.94c.234.2.472.385.683.6,1.752,1.737,3.506,3.472,5.239,5.228.253.257.782.525.377,1-.439.518-.737-.014-.99-.264-1.826-1.809-3.632-3.639-5.441-5.465-.209-.212-.5-.419-.278-.775C3534.351,614.145,3534.506,614.08,3534.689,613.94Z" transform="translate(-3068.957 -571.923)" fill="#e8ed13"/>
      <path id="Path_215660" data-name="Path 215660" d="M3525.953,622.886c0,1.329.007,2.657-.005,3.986,0,.3,0,.688-.418.682-.36,0-.492-.355-.493-.665q-.017-3.985,0-7.971c0-.314.126-.687.473-.683.5.006.443.477.447.816.014,1.277.006,2.555.006,3.833Z" transform="translate(-3062.618 -574.893)" fill="#e7ef0f"/>
      <path id="Path_215661" data-name="Path 215661" d="M2169.533,670.346c2.9.628,3.771,1.693,4.335,5.373a3.5,3.5,0,0,0,1.657-2.773c.3-2.081.434-4.187.726-6.269a6.661,6.661,0,0,1,3.608-5.357c-.043,2.171.946,3.831,1.964,5.486,1.509,2.45,2.982,4.919,3.409,8.079a18.105,18.105,0,0,1,3.862-4.331c-.6,2.681.39,4.824,1.162,7a6.76,6.76,0,0,1,.494,3.012c-.313,2.863-.824,3.35-3.278,3.294-5.291-.121-10.587-.036-15.88-.039a3.958,3.958,0,0,1-4-3.754,9.449,9.449,0,0,1,1.1-4.59C2169.844,672.774,2169.839,672.772,2169.533,670.346Z" transform="translate(-2124.334 -604.672)" fill="#fefd00"/>
      <path id="Path_215662" data-name="Path 215662" d="M2597.241,634.213a5.975,5.975,0,0,1,6.025-6.076,6.069,6.069,0,0,1,6.034,5.966,5.958,5.958,0,0,1-6,6.1A5.853,5.853,0,0,1,2597.241,634.213Z" transform="translate(-2421.324 -581.736)" fill="#fefd00"/>
      <path id="Path_215663" data-name="Path 215663" d="M2632.5,620.993a7.2,7.2,0,0,1,3.137,3.091A13.294,13.294,0,0,1,2632.5,620.993Z" transform="translate(-2445.697 -576.798)" fill="#546e79"/>
      <path id="Path_215664" data-name="Path 215664" d="M2952.536,571.242q.007-36.849-.022-73.7a26.9,26.9,0,0,0-.46-6.94,1.073,1.073,0,0,0-.146-.507,13.441,13.441,0,0,0-1.957-4.462,15.207,15.207,0,0,0-11.323-7.247,13.152,13.152,0,0,0-2.59-.341q-38.5.024-77,.032a4.5,4.5,0,0,0-2.266.268h0c-7.853,1.043-13.611,7.782-13.623,16.137q-.05,38.347,0,76.695c.014,9.383,6.913,16.214,16.309,16.235q22.144.05,44.289.012c.409,0,.818-.049,1.227-.075.758-.535.12-.864-.2-1.193-2.343-2.38-4.657-4.795-7.035-7.133-5.167-5.08-10.365-10.125-15.323-15.412-4.506-4.654-9.111-9.21-13.687-13.793-1.516-1.517-1.516-1.518.052-3.086q5.672-5.674,11.342-11.349c2.928-2.949,2.9-2.329-.025-5.275-3.841-3.861-7.755-7.649-11.528-11.578-1.348-1.405-1.3-1.457.035-2.8,4.058-4.086,8.158-8.129,12.215-12.215,1.29-1.3,1.312-1.3,2.676.063q6.114,6.105,12.22,12.217c1.886,1.883,2.114,1.886,3.956.048q6.168-6.16,12.33-12.326c1.272-1.269,1.319-1.248,2.581-.042,2.342,2.236,4.628,4.53,6.891,6.842,2.406,2.459,5,4.733,7.19,7.405a76.979,76.979,0,0,1,5.548,5.351c5.333,5.354,10.707,10.668,16.019,16.044a4.681,4.681,0,0,0,1.328,1.045c.267.122.491.14.635.023.022,1.008.06,2.016.061,3.023q0,15.147-.007,30.294A4.016,4.016,0,0,0,2952.536,571.242Z" transform="translate(-2591.28 -477.992)" fill="#546e79"/>
      <path id="Path_215665" data-name="Path 215665" d="M2136.857,493.009c-.185-7.509-6.869-14.416-14.135-14.814a5.188,5.188,0,0,0-2.573-.247q-18.429-.023-36.86-.011c-11.36,0-22.72-.051-34.08.029-2.5.018-5.018-.32-7.5.182-.057,0-.113.008-.168.01a.467.467,0,0,0-.143.055c-7.237.938-13.364,7.306-13.571,14.105a.721.721,0,0,1,.009.163l-.009-.163c-.379.5-.229,1.092-.232,1.639,0,.659,0,1.317-.007,1.976a4.479,4.479,0,0,0,0,1.112q-.022,5.617-.022,11.234.007,31.357.031,62.714a4.187,4.187,0,0,0,.246,2.113v0a4.7,4.7,0,0,0,.2,1.824,15.967,15.967,0,0,0,15.948,12.374q12.1,0,24.2,0c3.028,0,6.057-.05,9.085-.077.861-.825-.018-1.3-.439-1.729-2.47-2.548-4.983-5.052-7.515-7.538-1.32-1.3-2.432-2.807-3.819-4.007-2.33-2.016-4.359-4.309-6.466-6.4,3.991.027,8,.048,12-.019a1.206,1.206,0,0,0,.858-.289c.349-.345.064-.518-.218-.673-3.372-.4-6.758-.108-10.138-.169-3.482-.062-3.258.253-3.244-3.26.008-1.85.272-2.079,2.08-1.85a22.706,22.706,0,0,0,7.646-.327c.888-.576.366-1.143-.083-1.59-.817-.814-1.567-1.685-2.326-2.55a8.954,8.954,0,0,0-.761-.526c-4.87-3.427-6.565-7.881-5.173-13.675a34.625,34.625,0,0,1,1.819-5.4,41.534,41.534,0,0,0,2.655-7.387,9.017,9.017,0,0,0-1.8-8.253,6.737,6.737,0,0,1,2.55.8,12.816,12.816,0,0,1,5.668,6.091c.227.44.411,1.13,1.012.959s.406-.846.345-1.342a38.91,38.91,0,0,1,.227-11.34c1.5-8.89,5.493-16.177,13.55-20.816.746-.235.978.444,1.342.807q15.892,15.854,31.755,31.738,8.078,8.075,16.166,16.14c.492.488.881,1.371,1.873.934.026-.563.074-1.126.074-1.688q.006-16.877,0-33.755C2136.905,504.414,2137,498.708,2136.857,493.009Zm-108.894.868-.051.062,0-.073C2027.923,493.871,2027.944,493.872,2027.963,493.876Z" transform="translate(-2027.547 -477.871)" fill="#546e79"/>
      <path id="Path_215666" data-name="Path 215666" d="M2547.7,488.963h0c-1.913-6.157-8.2-10.686-15.036-10.693q-38.636-.044-77.273-.015a14.111,14.111,0,0,0-6.545,1.47,5.613,5.613,0,0,0-1.861.933,14.765,14.765,0,0,0-5.534,5.881h0a12.305,12.305,0,0,0-1.919,5.457c-.6,4.194-.223,8.418-.236,12.623-.069,22.414-.024,44.828-.012,67.243a3.071,3.071,0,0,0,.272,1.8h0a13.32,13.32,0,0,0,.18,1.368,15.875,15.875,0,0,0,15.659,12.527q23.058.049,46.118.007c.357,0,.714-.049,1.072-.075.424-1.054-.511-1.451-1.031-1.976-7.288-7.349-14.647-14.629-21.934-21.979-.351-.354-.679-.624-.407-1.154-.065-.546-.489-.754-.92-.912-1.057-.389-1.093-1.026-.568-1.9.416-.7.822-1.411,1.174-2.139.789-1.634,2.133-2.982,2.494-4.832a56.428,56.428,0,0,0-4.068-4.152c-2.015-2.025-4.032-4.051-6.069-6.056-2.219-2.183-4.462-4.35-6.591-6.617-1.672-1.78-3.756-3.186-4.995-5.369a3.2,3.2,0,0,1-.224-1.657,33.544,33.544,0,0,1,1.675-9.036,34.53,34.53,0,0,1,13.228-17.659c.781-.559,1.563-1.267,2.64-.6a2.039,2.039,0,0,1,.935.769c1.575,1.965,3.594,3.487,5.326,5.308,2.327,2.446,4.73,4.834,7.177,7.174,2.479,2.371,4.85,4.858,7.265,7.3.333.337.666.666,1.2.424a5.826,5.826,0,0,0,1.362-1.849c3.459-6.246,7.149-12.359,10.622-18.6.5-.9.98-1.183,1.921-.524a44.893,44.893,0,0,1,4.576,3.641,64.852,64.852,0,0,1,5.677,6.259,7.789,7.789,0,0,1,2.7,2c2.351,2.576,4.867,4.987,7.34,7.439,4.693,4.653,9.241,9.453,14.1,13.941.37.342.672,1,1.388.591.025-4.817.072-9.633.07-14.45,0-7.43-.038-14.861-.059-22.292C2548.734,495.333,2549,492.076,2547.7,488.963Z" transform="translate(-2312.077 -478.13)" fill="#546e79"/>
    </g>
  </g>
</svg>
