<svg xmlns="http://www.w3.org/2000/svg" width="425.438" height="229.739" viewBox="0 0 425.438 229.739">
  <g id="Group_157336" data-name="Group 157336" transform="translate(-1454.455 -6044.429)">
    <g id="Group_157326" data-name="Group 157326" transform="translate(999.941 5880.167)">
      <path id="Path_209557" data-name="Path 209557" d="M907.667,317.894,689.815,363.48v43.033l217.852-47.045Z" transform="translate(-27.715 -12.513)" fill="#c57716"/>
      <g id="Group_151434" data-name="Group 151434" transform="translate(454.514 211.656)">
        <path id="Path_209558" data-name="Path 209558" d="M879.952,305.381,612.128,211.656,454.514,222.839,662.1,350.966Z" transform="translate(-454.514 -211.656)" fill="#ffd392"/>
        <g id="Group_151433" data-name="Group 151433" transform="translate(0 0.073)">
          <path id="Path_209559" data-name="Path 209559" d="M623.546,324.785c13.313,8.025,27.875,17.269,43.914,26.539l2.4-.5c-1.668-.9-3.244-1.79-4.687-2.659-15.923-9.582-29.78-18.827-43.955-27.839-29.417-18.7-50.546-36.5-78.609-53.176a560.1,560.1,0,0,0-54.261-28.838c-10.975-4.97-22.041-9.377-32.255-14.1l-1.577.112,12.659,7.814c31.13,16.258,66.219,33.2,95.853,52.071C583.322,297.126,600.4,310.832,623.546,324.785Z" transform="translate(-454.514 -213.207)" fill="#f7c372"/>
          <path id="Path_209560" data-name="Path 209560" d="M582.073,287.23c15.7,9.661,25.632,20.03,42,30.375,15.446,9.76,32.642,19.581,51.135,29.891.963.537,2,1.125,3.083,1.74l6.911-1.446c-19.868-10.505-39.7-20.675-57.375-30.441-31.484-17.395-45.956-34.263-75.1-50.2-15.029-8.221-23.874-15.821-37.015-23.488a380.214,380.214,0,0,0-41.389-20.789l-6.163.437c25.306,13.277,53.138,26.826,76.457,41.662C556.087,272.262,569.594,279.553,582.073,287.23Z" transform="translate(-456.122 -213.05)" fill="#f7c372"/>
          <path id="Path_209561" data-name="Path 209561" d="M638.846,318.021c16.043,9.407,33.462,19.07,52.818,28.672l5.716-1.2c-10-5.348-20.213-10.576-30.132-15.712-15.81-8.186-33.366-16.753-46.547-24.908-12.184-7.539-18.937-15.316-28.961-22.683-10.111-7.43-22.007-14.419-31.369-21.432a273.471,273.471,0,0,0-35.629-22.992c-10.414-5.575-20.989-11.009-32.09-16.22l-7.8.554c21.642,11.024,44.372,22.312,62.143,34.714C573.989,275.66,602.345,296.617,638.846,318.021Z" transform="translate(-458.087 -212.895)" fill="#f7c372"/>
          <path id="Path_209562" data-name="Path 209562" d="M580.8,269.749c21.891,14.981,44.4,30.908,73.444,47.489,16.82,9.6,33.5,17.507,52.408,26.606l3-.627c-2.137-1.154-4.266-2.307-6.349-3.434-22.506-12.181-42.626-23.956-62.328-35.319-18.042-10.407-35.861-20.345-51.078-29.8-14.969-9.3-24.257-17.476-36.462-26.188-13.448-9.6-29.836-18.908-46.973-27.878l-5.39.383c10.487,5.414,21,10.934,31.362,16.472C552.2,248.009,564.177,258.37,580.8,269.749Z" transform="translate(-459.998 -212.782)" fill="#f7c372"/>
          <path id="Path_209563" data-name="Path 209563" d="M613.535,283.858C633.1,300.1,664.92,316.748,700.11,334.51c4.919,2.483,10.036,5.063,15.266,7.679l6.339-1.326c-23.238-11.744-45.436-23.212-63.676-33.683-35.137-20.17-53.6-35.595-80.792-53.252-17.717-11.5-40.133-23.158-61.469-33.986l-4.692.334c14.98,7.837,30.439,16.739,45.582,24.791C579.422,257.165,597.567,270.6,613.535,283.858Z" transform="translate(-461.177 -212.705)" fill="#f7c372"/>
          <path id="Path_209564" data-name="Path 209564" d="M682.051,316.629c12.365,7.6,26.662,15.8,42.068,23.917l6.02-1.26c-17.2-10.1-35.549-17.731-50.808-27.342C646.664,291.369,625.113,273.07,594,254.639c-18.333-10.86-37.327-25.635-58.473-35.453-.435-.2-.87-.4-1.3-.6l-9.117.648C555.423,236,587.648,254,616.415,272.147,638.954,286.363,656.531,300.949,682.051,316.629Z" transform="translate(-462.829 -212.546)" fill="#f7c372"/>
          <path id="Path_209565" data-name="Path 209565" d="M635.582,273.246c13.677,10.793,37.142,27.847,53.066,36.681,8.082,4.483,16.669,8.9,25.523,13.3,8.716,5.172,18.677,10.986,24.8,14.5l5.286-1.106c-12.053-6.168-23.83-12.087-33.986-17.128-7.389-4.955-14.56-9.816-21.773-14.334-8.871-5.557-16.991-10.415-25.005-15.169-3.635-2.156-12.943-8.1-20.922-13.166-10.67-8.716-21.51-17.219-35.772-25.061-16.631-9.144-26.54-17.356-41.1-25.842-4.85-2.827-9.96-5.662-15.249-8.474l-8.04.571c19.156,10.029,38.393,20.336,55.515,31.126C609.944,256.72,622.563,265.2,635.582,273.246Z" transform="translate(-464.867 -212.412)" fill="#f7c372"/>
          <path id="Path_209566" data-name="Path 209566" d="M702.115,307.958c15.291,8.952,31.7,18.146,49.583,27.393l5.97-1.249c-8.129-4.3-16.294-8.545-24.291-12.73-17.473-9.145-36.855-18.765-51.481-27.752-13.521-8.308-21.172-16.6-32.348-24.632-11.271-8.1-24.456-15.831-34.9-23.466-8.9-6.505-18.317-12.958-29.015-19.291l-19.5-9.883-6.936.492c14.594,7.751,28.694,15.706,40.8,24C630.045,261.441,661.661,284.277,702.115,307.958Z" transform="translate(-466.844 -212.282)" fill="#f7c372"/>
          <path id="Path_209567" data-name="Path 209567" d="M652.253,264.324c-10.391-6.411-18.356-12.264-26.192-18.076l-6.642-3.367c7.378,5.183,14.578,10.454,22.775,15.973,24.355,16.4,49.422,33.8,81.589,52.183,15.549,8.886,30.925,16.543,47.716,24.779l3.736-.783c-23.83-13.036-45.335-25.59-66.38-37.726C688.869,285.781,669.142,274.744,652.253,264.324Z" transform="translate(-473.937 -215.407)" fill="#f7c372"/>
          <path id="Path_209568" data-name="Path 209568" d="M730.486,301.617c2.233,1.252,4.511,2.543,6.814,3.854-4.528-2.46-8.939-4.911-13.188-7.351-9.06-5.2-17.045-10.232-24.359-15.133L681.818,273.9c21.846,16.665,53.259,35.943,89.037,54.243,1.592.814,3.232,1.625,4.875,2.436l7.666-1.6c-3.906-1.815-7.518-3.591-10.573-5.3-16.217-9.076-30.358-17.882-44.809-26.443-29.992-17.769-51.669-34.892-80.244-50.675a560,560,0,0,0-55.141-27.115c-3.508-1.457-7.024-2.857-10.519-4.23l-7.12.506c30.681,14.722,64.689,30.013,93.728,47.243C689.411,275.239,706.91,288.4,730.486,301.617Z" transform="translate(-468.704 -212.148)" fill="#f7c372"/>
          <path id="Path_209569" data-name="Path 209569" d="M688.244,265.439c16,9.163,26.249,19.214,42.937,29.037,15.745,9.269,33.242,18.545,52.05,28.267,2.558,1.323,5.556,2.923,8.86,4.673l7.5-1.57c-22.3-10.99-44.8-21.571-64.667-31.743-32.017-16.4-47.012-32.8-76.641-47.815-15.28-7.744-24.361-15.061-37.737-22.311-6.283-3.405-13.025-6.8-20.082-10.082l-8.534.606c19.935,9.5,40.319,19.28,58.177,29.866C661.8,251.3,675.53,258.158,688.244,265.439Z" transform="translate(-470.7 -211.993)" fill="#f7c372"/>
          <path id="Path_209570" data-name="Path 209570" d="M746.108,294.492c17.413,9.488,36.369,19.218,57.6,28.783,1,.452,2.025.91,3.033,1.364l5.487-1.149c-12.288-6.222-25.046-12.239-37.365-18.133-16.059-7.685-33.876-15.7-47.306-23.431-12.416-7.151-19.41-14.713-29.662-21.76-10.34-7.108-22.45-13.718-32.028-20.434a273.531,273.531,0,0,0-36.335-21.859q-5.381-2.666-10.827-5.277l-8.876.63c15.2,7.287,30.042,14.834,42.543,22.984C679.949,254.194,708.951,274.248,746.108,294.492Z" transform="translate(-472.808 -211.84)" fill="#f7c372"/>
          <path id="Path_209571" data-name="Path 209571" d="M686.631,248.143c22.351,14.285,45.351,29.5,74.9,45.154,19.076,10.109,37.888,18.1,59.891,27.9.341.153.682.309,1.023.461l2.565-.536c-4.671-2.3-9.279-4.605-13.738-6.84-22.878-11.466-43.359-22.6-63.408-33.341-18.361-9.833-36.484-19.206-51.991-28.179-15.253-8.827-24.795-16.7-37.268-25.028-8.195-5.469-17.444-10.8-27.256-16l-4.866.345q5.408,2.645,10.785,5.3C657.356,227.314,669.652,237.292,686.631,248.143Z" transform="translate(-474.769 -211.739)" fill="#f7c372"/>
          <path id="Path_209572" data-name="Path 209572" d="M720.723,261.782c20.065,15.621,52.4,31.257,88.127,47.9,7.449,3.47,15.319,7.134,23.4,10.821l6.527-1.366c-26.522-12.319-52.155-24.425-72.84-35.448-35.753-19.054-54.69-33.891-82.428-50.683-5.418-3.28-11.272-6.558-17.379-9.817l-21.728-7.6c6.106,3.124,12.209,6.235,18.258,9.211C685.788,236.176,704.345,249.031,720.723,261.782Z" transform="translate(-476.88 -212.192)" fill="#f7c372"/>
          <path id="Path_209573" data-name="Path 209573" d="M794.1,294.52c14.719,8.417,32.094,17.574,50.794,26.421l5.751-1.2c-2.183-1.09-4.241-2.158-6.106-3.2-17.983-10.02-37.261-17.2-53.306-26.618-31.336-18.385-52.775-35.066-81.593-51.506L691.2,231.963c12.281,6.646,24.362,13.383,35.9,20.163C750.074,265.626,768.1,279.651,794.1,294.52Z" transform="translate(-482.392 -214.121)" fill="#f7c372"/>
          <path id="Path_209574" data-name="Path 209574" d="M804.244,289.838c8.219,4.227,16.94,8.37,25.93,12.493,11.2,6.175,24.434,13.328,29.255,15.829,1.26.654,2.621,1.37,4.057,2.13l6.108-1.277c-15.28-7.293-30.629-14.429-43.435-20.291-7.541-4.721-14.862-9.353-22.213-13.643-9.042-5.274-17.311-9.874-25.47-14.374-3.7-2.041-13.192-7.689-21.327-12.5-2.593-1.985-5.2-3.957-7.852-5.91l-8.935-3.127q4.806,2.86,9.688,5.678C764.059,265.2,788.05,281.51,804.244,289.838Z" transform="translate(-488.182 -216.147)" fill="#f7c372"/>
          <path id="Path_209575" data-name="Path 209575" d="M878.513,318.923l5.907-1.236c-11.265-5.617-22.745-11.114-33.9-16.513-17.753-8.59-37.428-17.595-52.329-26.117a146.18,146.18,0,0,1-17.139-11.651l-13.7-4.793c15.783,9.827,32.71,19.921,51.494,30.138C837.017,298.633,856.707,308.8,878.513,318.923Z" transform="translate(-491.362 -217.26)" fill="#f7c372"/>
          <path id="Path_209576" data-name="Path 209576" d="M896.7,317.728l3.117-.652c-2.308-1.163-4.612-2.325-6.865-3.462-22.54-11.369-43-22.384-62.9-33.058l-23.051-8.067c9.711,5.705,19.978,11.5,31.079,17.393C856.986,299.907,875.6,308.2,896.7,317.728Z" transform="translate(-496.032 -218.894)" fill="#f7c372"/>
          <path id="Path_209577" data-name="Path 209577" d="M912.323,317.584l7.531-1.576C907.4,310.365,895.229,304.8,883.6,299.293l-29.163-10.205c13.084,7.181,27.245,14.412,42.156,21.455C901.6,312.91,906.894,315.248,912.323,317.584Z" transform="translate(-501.619 -220.85)" fill="#f7c372"/>
        </g>
      </g>
      <path id="Path_209578" data-name="Path 209578" d="M454.514,224.333v26.744L662.1,395.493V352.46Z" transform="translate(0 -1.493)" fill="#ecaf59"/>
      <g id="Group_151435" data-name="Group 151435" transform="translate(454.514 225.821)">
        <path id="Path_209579" data-name="Path 209579" d="M637.106,376.035c4.2,2.615,16.635,11.091,24.994,16.735v-5.628c-61.559-39.487-111.993-71.359-143.1-93.277-30.929-21.789-45.91-36.05-64.482-50.584v2.429a309.4,309.4,0,0,1,25.032,22.24,207.19,207.19,0,0,0,17.411,14.886l57.107,39.729c4.076,2.682,8.244,5.416,12.55,8.231C586.232,343.621,610.331,359.373,637.106,376.035Z" transform="translate(-454.514 -229.546)" fill="#d28636"/>
        <path id="Path_209580" data-name="Path 209580" d="M542.258,306.144c27.312,20,68.253,47.692,119.842,78.648v-4.38c-21.673-13.439-42.579-26.077-56.034-35.538-25.217-17.732-48.973-30.716-67.2-44.17-33.052-24.4-52.227-42.545-76.058-58.943-2.788-1.918-5.551-3.948-8.3-6.011v3.23c8.232,5.658,16.736,11.662,25.34,18.018C498.811,271,515.494,286.55,542.258,306.144Z" transform="translate(-454.514 -228.659)" fill="#d28636"/>
        <path id="Path_209581" data-name="Path 209581" d="M493.42,257.848c12.313,10.721,35.566,29.6,52.859,40.952,9.387,6.161,19.8,12.632,31.075,19.478,15.059,10.325,34.251,23.31,41.641,28.185,10.227,6.747,25.29,17.014,43.106,28.555V368.38c-34.517-21.57-67.391-41.6-90.066-55.25-9.4-7-18.133-13.556-26.5-19.477-9.83-6.953-18.385-12.789-26.464-18.264-3.551-2.407-12.378-8.764-19.607-13.945-9.345-8.337-18.3-16.041-29.211-22.8-6.308-3.908-11.167-7.507-15.734-10.929v2.33q4.707,3.119,9.384,6.435C472.745,242.787,482.618,250.264,493.42,257.848Z" transform="translate(-454.514 -227.712)" fill="#d28636"/>
        <path id="Path_209582" data-name="Path 209582" d="M651.962,356.541c3.839,2.28,7.793,4.625,11.8,7v-4.861c-22.7-14.031-44.072-26.8-63.019-38.206-23.792-14.327-47.376-28-63.741-39.162-13.575-9.254-21.317-17.561-31.307-25.391L468.638,233.05c22.45,16.98,50.149,38.6,91.628,66.06C584.431,315.11,614.045,334.019,651.962,356.541Z" transform="translate(-456.178 -228.341)" fill="#d28636"/>
      </g>
    </g>
    <g id="Group_157327" data-name="Group 157327" transform="translate(1487.694 5985.246)">
      <path id="Path_209667" data-name="Path 209667" d="M188.8,145.191h0a1.755,1.755,0,0,1-1.755-1.755V88.751A1.752,1.752,0,0,1,188.8,87h0a1.752,1.752,0,0,1,1.755,1.752v54.686A1.755,1.755,0,0,1,188.8,145.191Z" transform="translate(15.164 48.328)" fill="#c7fff6"/>
      <path id="Path_209668" data-name="Path 209668" d="M198.193,145.191h0a1.754,1.754,0,0,1-1.752-1.755V88.751A1.752,1.752,0,0,1,198.193,87h0a1.752,1.752,0,0,1,1.755,1.752v54.686A1.755,1.755,0,0,1,198.193,145.191Z" transform="translate(31.493 48.328)" fill="#c7fff6"/>
      <g id="Group_151457" data-name="Group 151457" transform="translate(178.315 59.183)">
        <path id="Path_209669" data-name="Path 209669" d="M255.226,65.1l-3.9-3.9a6.93,6.93,0,0,0-4.892-2.026H189.125a6.923,6.923,0,0,0-4.889,2.026l-3.9,3.9A6.918,6.918,0,0,0,178.315,70V113.97h78.936V70A6.93,6.93,0,0,0,255.226,65.1Z" transform="translate(-178.315 -59.183)" fill="#6bb3a7"/>
        <path id="Path_209670" data-name="Path 209670" d="M226.841,105.594H186.013V61.617a6.9,6.9,0,0,1,.4-2.228,6.876,6.876,0,0,0-2.176,1.462l-3.9,3.9a6.918,6.918,0,0,0-2.026,4.892v43.974h78.936v-8.018Z" transform="translate(-178.315 -58.825)" fill="#253d39" opacity="0.1"/>
        <path id="Path_209671" data-name="Path 209671" d="M252.989,65.1l-3.9-3.9a6.93,6.93,0,0,0-4.892-2.026H186.889A6.923,6.923,0,0,0,182,61.209l-2.4,2.4a6.9,6.9,0,0,1,4.465-1.678H241.38a6.921,6.921,0,0,1,4.892,2.028l3.893,3.9a6.907,6.907,0,0,1,2.026,4.889V113.97h2.825V70A6.93,6.93,0,0,0,252.989,65.1Z" transform="translate(-176.079 -59.183)" fill="#98ffee" opacity="0.3"/>
        <path id="Path_209672" data-name="Path 209672" d="M219.144,79.2H178.315l17.147,32.567a4.372,4.372,0,0,0,3.865,2.335h36.909a4.373,4.373,0,0,0,3.868-2.335L257.251,79.2Z" transform="translate(-178.315 -24.41)" fill="#497a72"/>
        <path id="Path_209673" data-name="Path 209673" d="M212.073,79.2l-15,28.494a4.372,4.372,0,0,0,3.868,6.408h0a4.38,4.38,0,0,0,3.868-2.335L221.953,79.2Z" transform="translate(-146.61 -24.41)" fill="#9fe" opacity="0.3"/>
        <path id="Path_209674" data-name="Path 209674" d="M224.889,106.078H202.437L188.285,79.2h-9.97l17.147,32.567a4.372,4.372,0,0,0,3.865,2.335h36.909a4.373,4.373,0,0,0,3.868-2.335l2.992-5.686Z" transform="translate(-178.315 -24.41)" fill="#253d39" opacity="0.2"/>
        <path id="Path_209675" data-name="Path 209675" d="M254.359,84.689l2.892-5.492H178.315l2.892,5.492Z" transform="translate(-178.315 -24.41)" fill="#253d39" opacity="0.2"/>
        <rect id="Rectangle_45011" data-name="Rectangle 45011" width="57.224" height="30.408" rx="1.101" transform="translate(10.214 9.762)" fill="#9bffee"/>
        <path id="Rectangle_45012" data-name="Rectangle 45012" d="M1.1,0H56.123a1.1,1.1,0,0,1,1.1,1.1V29.307a1.1,1.1,0,0,1-1.1,1.1H1.1a1.1,1.1,0,0,1-1.1-1.1V1.1A1.1,1.1,0,0,1,1.1,0Z" transform="translate(10.856 9.097)" fill="#253d39"/>
        <path id="Path_209676" data-name="Path 209676" d="M236.487,62.506H185.295a3.015,3.015,0,0,0-3.014,3.017v1.218h51.13a3.014,3.014,0,0,1,3.014,3.014V92.913h.063A3.015,3.015,0,0,0,239.5,89.9V65.523A3.015,3.015,0,0,0,236.487,62.506Z" transform="translate(-171.424 -53.41)" opacity="0.3"/>
        <g id="Group_151452" data-name="Group 151452" transform="translate(10.857 9.096)" opacity="0.4">
          <path id="Path_209677" data-name="Path 209677" d="M224.2,75.927V65.914c-10.972,6.986-23.085,14.7-33.109,21.078H205.3Z" transform="translate(-166.976 -56.585)" fill="#9bffee"/>
          <path id="Path_209678" data-name="Path 209678" d="M236.487,62.506H199.026c-5.453,6.271-11.344,13.044-16.745,19.25V89.9a3.014,3.014,0,0,0,3.014,3.014h11.85c12.726-9.4,27.465-20.35,40.6-30.125A2.965,2.965,0,0,0,236.487,62.506Z" transform="translate(-182.281 -62.506)" fill="#9bffee"/>
        </g>
        <g id="Group_151453" data-name="Group 151453" transform="translate(12.602 44.78)">
          <path id="Rectangle_45013" data-name="Rectangle 45013" d="M.481,0H7.09a.48.48,0,0,1,.48.48V3.5a.48.48,0,0,1-.48.48H.48A.48.48,0,0,1,0,3.5V.481A.481.481,0,0,1,.481,0Z" transform="translate(0 0.711)" fill="#253d39" opacity="0.3"/>
          <path id="Rectangle_45014" data-name="Rectangle 45014" d="M.481,0H7.09a.48.48,0,0,1,.48.48V3.5a.48.48,0,0,1-.48.48H.48A.48.48,0,0,1,0,3.5V.481A.481.481,0,0,1,.481,0Z" transform="translate(0.385)" fill="#253d39"/>
        </g>
        <g id="Group_151454" data-name="Group 151454" transform="translate(27.016 44.78)">
          <path id="Rectangle_45015" data-name="Rectangle 45015" d="M.481,0H7.09a.48.48,0,0,1,.48.48V3.5a.48.48,0,0,1-.48.48H.48A.48.48,0,0,1,0,3.5V.481A.481.481,0,0,1,.481,0Z" transform="translate(0 0.711)" fill="#253d39" opacity="0.3"/>
          <path id="Rectangle_45016" data-name="Rectangle 45016" d="M.481,0H7.089a.48.48,0,0,1,.48.48V3.5a.48.48,0,0,1-.48.48H.48A.48.48,0,0,1,0,3.5V.481A.481.481,0,0,1,.481,0Z" transform="translate(0.385)" fill="#253d39"/>
        </g>
        <g id="Group_151455" data-name="Group 151455" transform="translate(41.43 44.78)">
          <path id="Rectangle_45017" data-name="Rectangle 45017" d="M.481,0H7.09a.48.48,0,0,1,.48.48V3.5a.48.48,0,0,1-.48.48H.481A.481.481,0,0,1,0,3.5V.481A.481.481,0,0,1,.481,0Z" transform="translate(0 0.711)" fill="#253d39" opacity="0.3"/>
          <rect id="Rectangle_45018" data-name="Rectangle 45018" width="7.57" height="3.977" rx="0.48" transform="translate(0.385)" fill="#253d39"/>
        </g>
        <g id="Group_151456" data-name="Group 151456" transform="translate(55.844 44.78)">
          <path id="Rectangle_45019" data-name="Rectangle 45019" d="M.481,0H7.09a.48.48,0,0,1,.48.48V3.5a.48.48,0,0,1-.48.48H.48A.48.48,0,0,1,0,3.5V.481A.481.481,0,0,1,.481,0Z" transform="translate(0 0.711)" fill="#253d39" opacity="0.3"/>
          <path id="Rectangle_45020" data-name="Rectangle 45020" d="M.481,0H7.09a.48.48,0,0,1,.48.48V3.5a.48.48,0,0,1-.48.48H.48A.48.48,0,0,1,0,3.5V.481A.481.481,0,0,1,.481,0Z" transform="translate(0.385)" fill="#253d39"/>
        </g>
      </g>
      <rect id="Rectangle_45021" data-name="Rectangle 45021" width="3.508" height="1.571" transform="translate(202.208 148.871)" fill="#253d39" opacity="0.3"/>
      <rect id="Rectangle_45022" data-name="Rectangle 45022" width="3.508" height="1.571" transform="translate(227.933 148.871)" fill="#253d39" opacity="0.3"/>
    </g>
  </g>
</svg>
