<svg xmlns="http://www.w3.org/2000/svg" width="414.595" height="252.713" viewBox="0 0 414.595 252.713">
  <g id="Group_157335" data-name="Group 157335" transform="translate(5883.904 5223.68)">
    <g id="Group_157331" data-name="Group 157331" transform="translate(-6280.623 -5369.998)">
      <path id="Path_209611" data-name="Path 209611" d="M529.5,396.621l4.81,45.7,306.858-45.7V354.8Z" transform="translate(-29.857 -43.288)" fill="#c57716"/>
      <path id="Path_209612" data-name="Path 209612" d="M504.456,402.327,396.719,218.758V176.932l102.927,179.7Z" transform="translate(0 -3.295)" fill="#ecaf59"/>
      <g id="Group_151443" data-name="Group 151443" transform="translate(396.719 190.425)">
        <path id="Path_209613" data-name="Path 209613" d="M498.885,402.057c2.087,3.465,4.212,7.05,6.38,10.714l-.539-5.12c-1.962-3.486-3.92-6.958-5.9-10.431-16.978-29.744-27.434-55.077-44.48-83.092a611.329,611.329,0,0,0-34.986-52.095c-5.735-7.538-11.678-14.836-17.291-22.031l16.1,27.429c16.3,23.538,33.1,47.855,46.494,71.344C476.531,359.6,485.229,379.375,498.885,402.057Z" transform="translate(-397.921 -207.902)" fill="#d28636"/>
        <path id="Path_209614" data-name="Path 209614" d="M477.058,344.6c9.273,15.764,13.275,29.28,22.719,45.741.992,1.73,2.008,3.473,3.035,5.223l-.512-4.871c-18.621-28.986-23.885-50.119-41.86-77.589-9.482-14.493-13.907-25.476-22.071-38.7a421.2,421.2,0,0,0-29.627-41.886c-4.532-5.644-8.465-11.006-12.023-16.184v3.4c18.515,28.226,41.3,58.823,57.641,87.522C461.142,319.16,469.646,332,477.058,344.6Z" transform="translate(-396.719 -202.579)" fill="#d28636"/>
        <path id="Path_209615" data-name="Path 209615" d="M458.145,296.519c13.011,25.218,26.084,51.981,43.223,81.342l-.437-4.156c-.088-.151-.189-.309-.277-.459-7.109-12.171-9.516-22.006-14.907-33.1-5.463-11.244-12.678-23.027-17.73-33.653-.212-.447-.435-.9-.649-1.345l-23.094-40.319c-7.631-11.392-15.571-22.8-24.453-34.38-4.917-6.414-10.723-12.874-15.059-19.046-3.272-4.657-5.242-8.483-8.044-12.811v3.387c2.578,4.1,5.2,8.224,7.977,12.439C422.313,241.142,444.624,270.313,458.145,296.519Z" transform="translate(-396.719 -198.59)" fill="#d28636"/>
      </g>
      <g id="Group_151445" data-name="Group 151445" transform="translate(396.719 162.277)">
        <path id="Path_209616" data-name="Path 209616" d="M499.646,353.333l311.668-41.826L625.628,162.277l-228.909,11.36Z" transform="translate(-396.719 -162.277)" fill="#ffd392"/>
        <g id="Group_151444" data-name="Group 151444" transform="translate(2.954 1.742)">
          <path id="Path_209617" data-name="Path 209617" d="M480.839,314.593c7.447,12.576,15.355,26.6,24.215,41.288l2.168-.291c-9.652-16.5-17.827-31.909-26.313-47.111-18.845-33.759-29.914-62.613-48.169-92.87-7.711-12.781-16.271-26.233-25.6-39.288l-6.611.328c15.067,21.559,30.337,43.949,42.831,66.377C456.194,266.062,465.559,288.79,480.839,314.593Z" transform="translate(-400.53 -167.177)" fill="#f7c372"/>
          <path id="Path_209618" data-name="Path 209618" d="M461.563,253.856c10.143,17.459,14.335,33.361,24.875,52.09,8.71,15.475,18.743,31.647,29.663,48.717l5.7-.765c-11.08-16.155-21.934-31.867-31.557-46.648-21.556-33.106-26.675-58.07-46.39-87.971-10.1-15.321-14.534-27.267-23.04-41.063-.507-.822-1.04-1.654-1.56-2.482l-5.58.277c8.429,12.422,16.539,24.972,23.507,37.441C444.356,226.291,453.544,240.051,461.563,253.856Z" transform="translate(-403.485 -167.045)" fill="#f7c372"/>
          <path id="Path_209619" data-name="Path 209619" d="M501.78,311.872c8.121,13.255,16.964,27.063,26.834,41.366l5.32-.714c-3.519-5.07-7.038-10.1-10.492-15.07-11.227-16.14-23.909-33.386-32.493-48.234-7.9-13.663-10.372-25.226-16.211-37.66-5.862-12.483-13.652-25.187-18.958-36.79A268.4,268.4,0,0,0,433.827,175l-6.246.31a292.007,292.007,0,0,1,17.412,29.5C461.016,236.81,477.428,272.124,501.78,311.872Z" transform="translate(-406.612 -166.881)" fill="#f7c372"/>
          <path id="Path_209620" data-name="Path 209620" d="M471.786,232.441c13.28,25.79,26.79,53.141,46.458,84.277,7.634,12.085,15.629,23.318,24.2,34.962l4-.537c-12.416-19.035-23.583-37.086-34.537-54.585-12.113-19.352-24.187-37.978-33.935-54.872-9.538-16.528-14.164-29.336-21.276-43.89-3.708-7.589-8.091-15.373-12.9-23.242l-3.024.15c.549.807,1.108,1.613,1.656,2.421C455.76,196.771,461.778,213.007,471.786,232.441Z" transform="translate(-409.58 -166.78)" fill="#f7c372"/>
          <path id="Path_209621" data-name="Path 209621" d="M496.518,261.342c10.034,25.219,30.836,55.832,54.657,89.293l5.666-.76C546.026,334.437,536,319.7,527.58,306.334c-23.65-37.524-33.469-62.379-50.394-93.095-6.905-12.531-15.538-25.868-24.634-39.138l-4.189.208c4.565,6.951,9.145,13.92,13.765,20.693C477.582,217.657,488.012,239.962,496.518,261.342Z" transform="translate(-411.285 -166.678)" fill="#f7c372"/>
          <path id="Path_209622" data-name="Path 209622" d="M546.931,326.553c4.266,7.268,8.979,14.97,14.057,22.934l4.9-.657c-6.936-9.7-13.713-19.107-19.245-28.784-21.165-37.027-32.581-66.421-52.921-99.647-8.882-14.508-16.94-31.412-26.68-47.062l-7.373.366c16,24.6,32.239,50.211,46.522,75.236C520.6,274.177,530.144,297.951,546.931,326.553Z" transform="translate(-413.828 -166.506)" fill="#f7c372"/>
          <path id="Path_209623" data-name="Path 209623" d="M525.374,257.378c7.668,17.7,21.679,46.709,32.633,63.437,5.58,8.522,11.695,17.2,18.088,25.992l.547.893,2.263-.3c-1.623-2.24-3.215-4.432-4.746-6.534-4.7-8.795-9.218-17.363-13.935-25.536-5.783-10.021-11.176-18.907-16.5-27.612-2.411-3.939-8.361-14.476-13.46-23.444-5.815-14.083-11.867-27.928-21.48-42.428-11.158-16.831-16.362-29.755-25.8-44.865-.881-1.409-1.821-2.844-2.737-4.27l-5.488.273c9.585,14.057,18.862,28.253,26.912,42.3C509.255,228.524,516.994,243.067,525.374,257.378Z" transform="translate(-417.219 -166.365)" fill="#f7c372"/>
          <path id="Path_209624" data-name="Path 209624" d="M573.039,323.392q7.011,11.285,14.7,23.082l4.664-.626c-11.247-16.039-23.189-32.705-31.73-47.167-8.845-14.978-12.047-27.4-18.72-40.948-6.7-13.593-15.363-27.526-21.439-40.143A354.49,354.49,0,0,0,502.8,184.866l-9.223-12.816-5.235.26a371.316,371.316,0,0,1,20.631,34.1C527.137,241.282,545.909,279.73,573.039,323.392Z" transform="translate(-420.275 -166.217)" fill="#f7c372"/>
          <path id="Path_209625" data-name="Path 209625" d="M551.178,258.505c-6.681-11.33-11.319-21-15.837-30.535l-4.6-6.392c4.387,8.649,8.575,17.346,13.6,26.758,15.026,28.15,30.391,57.993,52.256,92.24,3.421,5.359,6.9,10.565,10.439,15.723l5.269-.708c-8.055-12.59-15.761-24.829-23.358-36.822C575.473,297.5,562.09,277.009,551.178,258.505Z" transform="translate(-429.808 -177.353)" fill="#f7c372"/>
          <path id="Path_209626" data-name="Path 209626" d="M604.422,327.261c1.537,2.353,3.1,4.773,4.677,7.224-3.156-4.687-6.2-9.31-9.094-13.846-6.155-9.652-11.351-18.633-15.955-27.165l-12.655-17.584c9.052,19.7,22.191,43.082,38.244,67.9l7.648-1.026c-4.442-7.275-8.756-14.417-13.137-21.5-20.048-32.432-32.34-60.367-51.657-89.442-11.307-17.018-24.244-35.263-38.5-51.927-2.461-2.877-4.956-5.693-7.444-8.479l-4.94.245c20.913,27.508,44.338,56.994,62.682,86.728C577.958,280.544,588.258,302.513,604.422,327.261Z" transform="translate(-423.257 -166.073)" fill="#f7c372"/>
          <path id="Path_209627" data-name="Path 209627" d="M564.135,235.937c-10.614-14.7-15.569-26.294-24.564-39.562-4.214-6.216-8.858-12.6-13.842-18.989l-8.312-2.95c13.988,18.326,28.322,37.223,39.949,56.017,7.649,12.364,17.287,25.55,25.8,38.82,10.757,16.773,15.687,32.23,26.887,50.216,4.739,7.61,9.838,15.4,15.209,23.363l4.354-.584c-5.493-7.386-10.815-14.623-15.825-21.642C591.168,288.936,584.833,264.6,564.135,235.937Z" transform="translate(-426.812 -166.753)" fill="#f7c372"/>
          <path id="Path_209628" data-name="Path 209628" d="M597.188,268.388c-6.352-12.05-14.578-24.251-20.351-35.465a272.7,272.7,0,0,0-23.446-38.348q-3.728-5.043-7.539-10.047l-8.612-3.056c10.647,14,20.862,28.164,28.628,42.056,17.261,30.874,35.065,64.961,60.744,103.063q5.537,8.215,11.512,16.716l4.514-.606c-9.939-12.927-20.214-26.174-27.721-37.931C606.541,291.649,603.513,280.386,597.188,268.388Z" transform="translate(-431.269 -168.335)" fill="#f7c372"/>
          <path id="Path_209629" data-name="Path 209629" d="M601.034,260.239c-10.126-15.894-15.308-28.319-22.99-42.377a313.781,313.781,0,0,0-17.721-28.2l-4.707-1.67q3.758,5.021,7.491,10.047c13.973,18.851,20.694,34.6,31.44,53.343,14.249,24.85,28.8,51.2,49.467,81.017,2.616,3.773,5.273,7.437,7.959,11.067l5.38-.722c-7.059-10.185-13.846-20.124-20.555-29.884C624.052,294.32,611.378,276.477,601.034,260.239Z" transform="translate(-435.401 -169.802)" fill="#f7c372"/>
          <path id="Path_209630" data-name="Path 209630" d="M656.4,320.3c3.687,5.3,7.477,10.859,11.4,16.6l2.8-.375c-4.946-7.6-9.754-15.078-14.647-22.512-21.839-33.176-35.6-62.279-56.978-92.564-12.108-17.156-25.954-35.571-41.154-52.611l-6.651.33c21.084,25.938,43.3,53.043,61.165,80.226C627.42,272.356,638.866,295.105,656.4,320.3Z" transform="translate(-434.401 -165.496)" fill="#f7c372"/>
          <path id="Path_209631" data-name="Path 209631" d="M632.071,259.422c11.775,17.29,17.371,33.382,29.529,51.736,5.323,8.035,11.032,16.219,17.033,24.572l4.716-.633c-6.18-7.81-12.183-15.483-17.841-22.944-24.456-32.25-31.825-57.775-54.56-87.5-11.755-15.37-17.427-27.682-27.5-41.708-3.492-4.862-7.243-9.822-11.217-14.815l-6.458.321c13.433,16.721,26.717,33.714,37.817,50.592C612.1,231.988,622.7,245.67,632.071,259.422Z" transform="translate(-437.685 -165.335)" fill="#f7c372"/>
          <path id="Path_209632" data-name="Path 209632" d="M677.731,316.128q6.416,8.973,13.335,18.222l4.9-.658c-10.957-13.453-22.506-27.4-30.95-39.874-9.087-13.423-12.572-25.194-19.541-37.629-7.025-12.537-16.06-25.206-22.507-36.975a292.793,292.793,0,0,0-26.184-40.436q-4.465-5.729-9.064-11.421l-6.633.329c11.158,13.988,21.744,28.062,29.956,41.875C630.285,241.922,649.988,277.324,677.731,316.128Z" transform="translate(-441.129 -165.162)" fill="#f7c372"/>
          <path id="Path_209633" data-name="Path 209633" d="M641.013,236.7c15.672,25.793,31.562,52.94,53.715,83.137,3.264,4.449,6.564,8.757,9.916,13l5.634-.757c-8.064-10.99-15.811-21.738-23.492-32.319-13.7-18.868-27.4-37.127-38.693-53.9-11.123-16.517-16.974-29.6-25.547-44.4a358.74,358.74,0,0,0-23.372-34.635l-3.866.192q5.385,6.8,10.706,13.607C621.491,200.455,629.106,217.109,641.013,236.7Z" transform="translate(-444.326 -165.043)" fill="#f7c372"/>
          <path id="Path_209634" data-name="Path 209634" d="M668.68,264.913c9.62,19.915,26.1,42.529,45.458,66.81l6.161-.826c-6.042-7.739-11.733-15.225-16.931-22.354-26.63-36.526-38.6-61.493-58.378-92.252-10.246-15.933-23.474-33.116-36.974-49.9l-4.145.205c8.046,10.547,16.093,21.357,24.158,31.648C645.783,220.9,658.283,243.39,668.68,264.913Z" transform="translate(-446.251 -164.944)" fill="#f7c372"/>
          <path id="Path_209635" data-name="Path 209635" d="M724.33,327.617c.6.88,1.224,1.78,1.837,2.672l3.623-.486c-2.17-2.9-4.287-5.813-6.255-8.778-23.892-36-37.706-65.377-60.976-98.335-12.368-17.517-23.919-38.914-38.555-57.15l-7.842.389c21.007,27.925,42.621,57.184,61.392,85.508C694.06,276.342,705.487,299.946,724.33,327.617Z" transform="translate(-449.015 -164.753)" fill="#f7c372"/>
          <path id="Path_209636" data-name="Path 209636" d="M697.607,258.873c9.086,17.623,25.285,46.144,37.373,62.2,1.894,2.515,3.851,5.041,5.835,7.572l4.149-.557c-2.731-4.354-5.459-8.634-8.238-12.8C730.263,305.6,724.25,297,718.3,288.555c-2.7-3.832-9.451-14.154-15.252-22.968-6.959-14.081-14.167-27.96-25.044-42.308-12.706-16.759-19.107-29.956-30.046-45.213-3.1-4.329-6.429-8.75-9.868-13.2l-6.149.3c13.58,17.2,26.929,34.607,38.329,51.8C679.045,230.214,688.041,244.728,697.607,258.873Z" transform="translate(-452.562 -164.602)" fill="#f7c372"/>
          <path id="Path_209637" data-name="Path 209637" d="M750.223,322.676c1.1,1.536,2.21,3.083,3.325,4.63l3.781-.507c-7.7-9.7-15.121-19.305-21.147-28.164-9.9-14.556-14.06-27.045-21.771-40.443-7.775-13.51-17.586-27.282-24.736-39.956a381.277,381.277,0,0,0-20.67-32.989l-15.223-18.669-7.073-2.053-.062,0c11.268,14.407,21.936,28.836,30.465,42.9C698.3,242.376,720.116,280.511,750.223,322.676Z" transform="translate(-455.87 -164.525)" fill="#f7c372"/>
          <path id="Path_209638" data-name="Path 209638" d="M725.773,260.9c-7.585-11.2-13.018-20.885-18.339-30.471l-5.155-6.322c5.132,8.694,10.052,17.425,15.85,26.808,16.957,27.436,34.21,56.255,57.636,88.483l5.817-.781Q774.6,328.97,767.758,319.5C752.909,298.984,738.09,279.1,725.773,260.9Z" transform="translate(-468.379 -177.923)" fill="#f7c372"/>
          <path id="Path_209639" data-name="Path 209639" d="M723.99,232.115c-12.66-16.81-27.146-34.9-42.943-51.359-2.856-2.977-5.748-5.894-8.633-8.775l-7.286-2.115c24.209,28.332,51.313,58.38,72.673,88.746,15.161,21.554,26.908,43.029,44.414,66.606l3.226-.433q-1.91-2.737-3.83-5.465C759.649,288.145,745.419,260.572,723.99,232.115Z" transform="translate(-460.025 -165.726)" fill="#f7c372"/>
          <path id="Path_209640" data-name="Path 209640" d="M783.464,323.676l-13.771-16.889a518.465,518.465,0,0,0,31.144,49.875l4.768-.64q-2.317-3.1-4.549-6.169C794.353,340.624,788.611,331.962,783.464,323.676Z" transform="translate(-483.537 -196.513)" fill="#f7c372"/>
          <path id="Path_209641" data-name="Path 209641" d="M736.722,236.321c-11.733-14.416-17.623-26.109-27.725-39.3-4.751-6.2-9.961-12.564-15.529-18.93l-8.653-2.512c15.677,18.262,31.625,36.949,44.747,55.594,8.58,12.192,19.148,25.011,28.555,37.94,11.823,16.246,17.8,31.56,30.015,48.8,1.8,2.532,3.644,5.084,5.516,7.646l3.388-.455c-1.756-2.14-3.5-4.27-5.2-6.378C767.468,288.544,759.4,264.184,736.722,236.321Z" transform="translate(-464.452 -167.011)" fill="#f7c372"/>
          <path id="Path_209642" data-name="Path 209642" d="M771.951,267.134c-7.157-11.845-16.207-23.745-22.792-34.876a287.6,287.6,0,0,0-26.428-38.126q-4.149-5.006-8.389-9.98l-8.916-2.588c11.868,13.91,23.247,27.95,32.105,41.809,19.526,30.552,39.605,63.991,67.349,100.375.522.684,1.06,1.377,1.585,2.063l3.631-.488c-6.611-7.754-12.932-15.427-18.128-22.609C782.847,290.1,779.047,278.876,771.951,267.134Z" transform="translate(-469.086 -168.356)" fill="#f7c372"/>
          <path id="Path_209643" data-name="Path 209643" d="M768.864,250.8c15.412,23.627,31.08,48.468,52.228,75.8l5.785-.777q-6.189-8.005-12.26-15.87c-13.683-17.687-27.346-34.8-38.7-50.572-11.182-15.539-17.268-27.967-25.989-41.95-3.951-6.336-8.451-12.788-13.274-19.29l-9.085-7.3c1.967,2.353,3.939,4.707,5.888,7.056C748.894,216.5,756.8,232.313,768.864,250.8Z" transform="translate(-474.065 -170.442)" fill="#f7c372"/>
          <path id="Path_209644" data-name="Path 209644" d="M826.261,317.555c2.523,3.3,5.1,6.7,7.718,10.189l3.054-.41c-3.85-5.389-7.655-10.726-11.507-16.037-23.318-32.153-38.387-60.6-61.11-89.889-.66-.851-1.346-1.717-2.015-2.574l-21.211-17.046c13.378,15.426,26.391,31.127,37.837,46.933C795.14,270.972,807.6,293.178,826.261,317.555Z" transform="translate(-477.128 -172.904)" fill="#f7c372"/>
          <path id="Path_209645" data-name="Path 209645" d="M836.122,315.208q6.564,8.995,13.78,18.233l4.454-.6c-4.912-5.7-9.706-11.318-14.284-16.819-23.213-27.893-32.493-51.014-51.5-76.157l-10.233-8.224c8.179,10.776,17.494,21.949,25.939,33.217C816.827,281.6,823.146,297.423,836.122,315.208Z" transform="translate(-485.481 -179.617)" fill="#f7c372"/>
          <path id="Path_209646" data-name="Path 209646" d="M864.585,336.743l4.7-.63c-10.185-11.395-20.478-22.974-28.346-33.534-9.685-13-13.7-24.6-21.224-36.706-.416-.67-.859-1.34-1.286-2.009l-15.087-12.126c14.9,22.775,31.194,46.956,51.3,72.552Q859.491,330.453,864.585,336.743Z" transform="translate(-491.103 -184.135)" fill="#f7c372"/>
          <path id="Path_209647" data-name="Path 209647" d="M882.081,340.946l5.992-.8c-7.265-9.057-14.326-17.959-21.325-26.734-8.186-10.265-16.348-20.324-24.082-30.067L834.4,276.7c12.044,17.813,25.12,36.463,41.189,56.407C877.741,335.773,879.906,338.372,882.081,340.946Z" transform="translate(-498.087 -189.748)" fill="#f7c372"/>
          <path id="Path_209648" data-name="Path 209648" d="M901.219,343.074c-5.08-5.991-9.934-11.833-14.419-17.435-5.031-6.283-9.563-12.207-13.764-17.891L856.671,294.6c9.75,15.3,23.034,31.868,38.14,49.338Z" transform="translate(-503.094 -193.771)" fill="#f7c372"/>
          <path id="Path_209649" data-name="Path 209649" d="M917.877,349.826c-1.2-1.529-2.4-3.058-3.532-4.612-2.486-3.4-4.848-6.726-7.155-10.017l-7.895-6.345c4.632,6.937,9.567,14.053,15.06,21.448Z" transform="translate(-512.678 -201.474)" fill="#f7c372"/>
        </g>
      </g>
    </g>
    <g id="Group_157334" data-name="Group 157334" transform="translate(-5908.251 -5282.863)">
      <path id="Path_209667" data-name="Path 209667" d="M188.8,145.191h0a1.755,1.755,0,0,1-1.755-1.755V88.751A1.752,1.752,0,0,1,188.8,87h0a1.752,1.752,0,0,1,1.755,1.752v54.686A1.755,1.755,0,0,1,188.8,145.191Z" transform="translate(15.164 48.328)" fill="#c7fff6"/>
      <path id="Path_209668" data-name="Path 209668" d="M198.193,145.191h0a1.754,1.754,0,0,1-1.752-1.755V88.751A1.752,1.752,0,0,1,198.193,87h0a1.752,1.752,0,0,1,1.755,1.752v54.686A1.755,1.755,0,0,1,198.193,145.191Z" transform="translate(31.493 48.328)" fill="#c7fff6"/>
      <g id="Group_151457" data-name="Group 151457" transform="translate(178.315 59.183)">
        <path id="Path_209669" data-name="Path 209669" d="M255.226,65.1l-3.9-3.9a6.93,6.93,0,0,0-4.892-2.026H189.125a6.923,6.923,0,0,0-4.889,2.026l-3.9,3.9A6.918,6.918,0,0,0,178.315,70V113.97h78.936V70A6.93,6.93,0,0,0,255.226,65.1Z" transform="translate(-178.315 -59.183)" fill="#6bb3a7"/>
        <path id="Path_209670" data-name="Path 209670" d="M226.841,105.594H186.013V61.617a6.9,6.9,0,0,1,.4-2.228,6.876,6.876,0,0,0-2.176,1.462l-3.9,3.9a6.918,6.918,0,0,0-2.026,4.892v43.974h78.936v-8.018Z" transform="translate(-178.315 -58.825)" fill="#253d39" opacity="0.1"/>
        <path id="Path_209671" data-name="Path 209671" d="M252.989,65.1l-3.9-3.9a6.93,6.93,0,0,0-4.892-2.026H186.889A6.923,6.923,0,0,0,182,61.209l-2.4,2.4a6.9,6.9,0,0,1,4.465-1.678H241.38a6.921,6.921,0,0,1,4.892,2.028l3.893,3.9a6.907,6.907,0,0,1,2.026,4.889V113.97h2.825V70A6.93,6.93,0,0,0,252.989,65.1Z" transform="translate(-176.079 -59.183)" fill="#98ffee" opacity="0.3"/>
        <path id="Path_209672" data-name="Path 209672" d="M219.144,79.2H178.315l17.147,32.567a4.372,4.372,0,0,0,3.865,2.335h36.909a4.373,4.373,0,0,0,3.868-2.335L257.251,79.2Z" transform="translate(-178.315 -24.41)" fill="#497a72"/>
        <path id="Path_209673" data-name="Path 209673" d="M212.073,79.2l-15,28.494a4.372,4.372,0,0,0,3.868,6.408h0a4.38,4.38,0,0,0,3.868-2.335L221.953,79.2Z" transform="translate(-146.61 -24.41)" fill="#9fe" opacity="0.3"/>
        <path id="Path_209674" data-name="Path 209674" d="M224.889,106.078H202.437L188.285,79.2h-9.97l17.147,32.567a4.372,4.372,0,0,0,3.865,2.335h36.909a4.373,4.373,0,0,0,3.868-2.335l2.992-5.686Z" transform="translate(-178.315 -24.41)" fill="#253d39" opacity="0.2"/>
        <path id="Path_209675" data-name="Path 209675" d="M254.359,84.689l2.892-5.492H178.315l2.892,5.492Z" transform="translate(-178.315 -24.41)" fill="#253d39" opacity="0.2"/>
        <rect id="Rectangle_45011" data-name="Rectangle 45011" width="57.224" height="30.408" rx="1.101" transform="translate(10.214 9.762)" fill="#9bffee"/>
        <path id="Rectangle_45012" data-name="Rectangle 45012" d="M1.1,0H56.123a1.1,1.1,0,0,1,1.1,1.1V29.307a1.1,1.1,0,0,1-1.1,1.1H1.1a1.1,1.1,0,0,1-1.1-1.1V1.1A1.1,1.1,0,0,1,1.1,0Z" transform="translate(10.856 9.097)" fill="#253d39"/>
        <path id="Path_209676" data-name="Path 209676" d="M236.487,62.506H185.295a3.015,3.015,0,0,0-3.014,3.017v1.218h51.13a3.014,3.014,0,0,1,3.014,3.014V92.913h.063A3.015,3.015,0,0,0,239.5,89.9V65.523A3.015,3.015,0,0,0,236.487,62.506Z" transform="translate(-171.424 -53.41)" opacity="0.3"/>
        <g id="Group_151452" data-name="Group 151452" transform="translate(10.857 9.096)" opacity="0.4">
          <path id="Path_209677" data-name="Path 209677" d="M224.2,75.927V65.914c-10.972,6.986-23.085,14.7-33.109,21.078H205.3Z" transform="translate(-166.976 -56.585)" fill="#9bffee"/>
          <path id="Path_209678" data-name="Path 209678" d="M236.487,62.506H199.026c-5.453,6.271-11.344,13.044-16.745,19.25V89.9a3.014,3.014,0,0,0,3.014,3.014h11.85c12.726-9.4,27.465-20.35,40.6-30.125A2.965,2.965,0,0,0,236.487,62.506Z" transform="translate(-182.281 -62.506)" fill="#9bffee"/>
        </g>
        <g id="Group_151453" data-name="Group 151453" transform="translate(12.602 44.78)">
          <path id="Rectangle_45013" data-name="Rectangle 45013" d="M.481,0H7.09a.48.48,0,0,1,.48.48V3.5a.48.48,0,0,1-.48.48H.48A.48.48,0,0,1,0,3.5V.481A.481.481,0,0,1,.481,0Z" transform="translate(0 0.711)" fill="#253d39" opacity="0.3"/>
          <path id="Rectangle_45014" data-name="Rectangle 45014" d="M.481,0H7.09a.48.48,0,0,1,.48.48V3.5a.48.48,0,0,1-.48.48H.48A.48.48,0,0,1,0,3.5V.481A.481.481,0,0,1,.481,0Z" transform="translate(0.385)" fill="#253d39"/>
        </g>
        <g id="Group_151454" data-name="Group 151454" transform="translate(27.016 44.78)">
          <path id="Rectangle_45015" data-name="Rectangle 45015" d="M.481,0H7.09a.48.48,0,0,1,.48.48V3.5a.48.48,0,0,1-.48.48H.48A.48.48,0,0,1,0,3.5V.481A.481.481,0,0,1,.481,0Z" transform="translate(0 0.711)" fill="#253d39" opacity="0.3"/>
          <path id="Rectangle_45016" data-name="Rectangle 45016" d="M.481,0H7.089a.48.48,0,0,1,.48.48V3.5a.48.48,0,0,1-.48.48H.48A.48.48,0,0,1,0,3.5V.481A.481.481,0,0,1,.481,0Z" transform="translate(0.385)" fill="#253d39"/>
        </g>
        <g id="Group_151455" data-name="Group 151455" transform="translate(41.43 44.78)">
          <path id="Rectangle_45017" data-name="Rectangle 45017" d="M.481,0H7.09a.48.48,0,0,1,.48.48V3.5a.48.48,0,0,1-.48.48H.481A.481.481,0,0,1,0,3.5V.481A.481.481,0,0,1,.481,0Z" transform="translate(0 0.711)" fill="#253d39" opacity="0.3"/>
          <rect id="Rectangle_45018" data-name="Rectangle 45018" width="7.57" height="3.977" rx="0.48" transform="translate(0.385)" fill="#253d39"/>
        </g>
        <g id="Group_151456" data-name="Group 151456" transform="translate(55.844 44.78)">
          <path id="Rectangle_45019" data-name="Rectangle 45019" d="M.481,0H7.09a.48.48,0,0,1,.48.48V3.5a.48.48,0,0,1-.48.48H.48A.48.48,0,0,1,0,3.5V.481A.481.481,0,0,1,.481,0Z" transform="translate(0 0.711)" fill="#253d39" opacity="0.3"/>
          <path id="Rectangle_45020" data-name="Rectangle 45020" d="M.481,0H7.09a.48.48,0,0,1,.48.48V3.5a.48.48,0,0,1-.48.48H.48A.48.48,0,0,1,0,3.5V.481A.481.481,0,0,1,.481,0Z" transform="translate(0.385)" fill="#253d39"/>
        </g>
      </g>
      <rect id="Rectangle_45021" data-name="Rectangle 45021" width="3.508" height="1.571" transform="translate(202.208 148.871)" fill="#253d39" opacity="0.3"/>
      <rect id="Rectangle_45022" data-name="Rectangle 45022" width="3.508" height="1.571" transform="translate(227.933 148.871)" fill="#253d39" opacity="0.3"/>
    </g>
  </g>
</svg>
