<svg xmlns="http://www.w3.org/2000/svg" width="79.522" height="51.163" viewBox="0 0 79.522 51.163">
  <g id="Group_151540" data-name="Group 151540" transform="translate(-1006.447 -1139.22)">
    <g id="Group_151543" data-name="Group 151543" transform="translate(1030.551 1139.22)">
      <rect id="Rectangle_45032" data-name="Rectangle 45032" width="23.964" height="2.876" transform="translate(3.554 45.123)" fill="#131616"/>
      <path id="Path_210390" data-name="Path 210390" d="M1407.891,1142.375a4.145,4.145,0,0,0-4.025-3.155H1389.61a4.145,4.145,0,0,0-4.025,3.155l-2.1,8.549h26.508Z" transform="translate(-1381.123 -1139.22)" fill="#f7cb14"/>
      <path id="Rectangle_45033" data-name="Rectangle 45033" d="M5.067,0H25.7A5.067,5.067,0,0,1,30.77,5.067v0a0,0,0,0,1,0,0H0a0,0,0,0,1,0,0v0A5.067,5.067,0,0,1,5.067,0Z" transform="translate(0 11.704)" fill="#f7cb14"/>
      <path id="Path_210391" data-name="Path 210391" d="M1396.825,1378.139h-13.34l4.049,30.9a1.3,1.3,0,0,0,1.29,1.132h15.829a1.3,1.3,0,0,0,1.29-1.132l4.049-30.9Z" transform="translate(-1381.123 -1361.369)" fill="#f7cb14"/>
      <path id="Path_210392" data-name="Path 210392" d="M1470.883,1163.57l-1.085-5.216a2.014,2.014,0,0,0-1.971-1.6H1458a2.013,2.013,0,0,0-1.971,1.6l-1.085,5.216a2.013,2.013,0,0,0,1.971,2.423h11.993A2.013,2.013,0,0,0,1470.883,1163.57Z" transform="translate(-1447.53 -1155.52)" fill="#c18e0e"/>
      <g id="Group_151540-2" data-name="Group 151540" transform="translate(1.235 42.513)">
        <rect id="Rectangle_45034" data-name="Rectangle 45034" width="3.182" height="8.65" transform="translate(1.126 0)" fill="#313738"/>
        <path id="Path_210393" data-name="Path 210393" d="M1386.667,1744.881h-.82a14.274,14.274,0,0,1,.183,2.621,5.444,5.444,0,0,1-.887,2.893,3.638,3.638,0,0,1-.96.938,3.444,3.444,0,0,1-.7.322v1.877h3.182Z" transform="translate(-1382.358 -1744.881)" fill="#131616"/>
        <path id="Path_210394" data-name="Path 210394" d="M1368.586,1761.732a4.887,4.887,0,0,0,0,6.284Z" transform="translate(-1367.442 -1760.549)" fill="#f7cb14"/>
      </g>
      <g id="Group_151541" data-name="Group 151541" transform="translate(25.727 42.5)">
        <rect id="Rectangle_45035" data-name="Rectangle 45035" width="3.182" height="8.65" transform="translate(3.219 8.65) rotate(179.758)" fill="#313738"/>
        <path id="Path_210395" data-name="Path 210395" d="M1716.362,1744.837l.82,0a14.291,14.291,0,0,0-.172,2.622,5.441,5.441,0,0,0,.9,2.889,3.638,3.638,0,0,0,.964.934,3.455,3.455,0,0,0,.7.319l.008,1.876-3.182.014Z" transform="translate(-1716.362 -1744.823)" fill="#131616"/>
        <path id="Path_210396" data-name="Path 210396" d="M1761.514,1761.543a4.887,4.887,0,0,1,.026,6.284Z" transform="translate(-1758.345 -1760.36)" fill="#f7cb14"/>
      </g>
      <path id="Path_210397" data-name="Path 210397" d="M1396.825,1378.139h-13.34l.114.871c6.1,1.055,12.54.218,18.4,2.231a6.05,6.05,0,0,1,3.743,2.776,6.734,6.734,0,0,1,.478,2.395,74.16,74.16,0,0,1-.583,15.758,8.7,8.7,0,0,1-1.32,4.015c-1.573,2.123-4.558,2.486-7.2,2.6a41.948,41.948,0,0,1-6.329-.08,7.108,7.108,0,0,1-2.982-.842,3.894,3.894,0,0,1-.47-.338l.2,1.507a1.3,1.3,0,0,0,1.29,1.132h15.829a1.3,1.3,0,0,0,1.29-1.132l4.049-30.9Z" transform="translate(-1381.123 -1361.369)" fill="#f4b80f"/>
      <path id="Path_210398" data-name="Path 210398" d="M1405.417,1412.084a2.767,2.767,0,0,0-.023,1.683q1.656,8.479,2.542,17.085c.068.662.39,1.537,1.046,1.425.607-.1.687-.936.61-1.547-.659-5.258-1.609-10.531-1.262-15.819a6.109,6.109,0,0,0-.08-2.084C1407.939,1411.739,1406.109,1410.59,1405.417,1412.084Z" transform="translate(-1401.383 -1392.268)" fill="#fff" opacity="0.44"/>
      <path id="Path_210399" data-name="Path 210399" d="M1361.9,1315.669a.781.781,0,0,0,.618.647,2.409,2.409,0,0,0,.951-.018,69.758,69.758,0,0,1,9.7-.446.821.821,0,0,0,.391-.068.282.282,0,0,0,.148-.334c-.055-.128-.217-.165-.356-.181a17,17,0,0,0-1.959-.073l-5.322.007C1365.452,1315.2,1361.851,1314.776,1361.9,1315.669Z" transform="translate(-1361.056 -1302.755)" fill="#fff" opacity="0.44"/>
      <path id="Path_210400" data-name="Path 210400" d="M1469.8,1158.353a2.014,2.014,0,0,0-1.971-1.6H1458a2.013,2.013,0,0,0-1.971,1.6l-1.085,5.216a2.013,2.013,0,0,0,1.971,2.423h2.615a3.312,3.312,0,0,1-.452-2.039,4.8,4.8,0,0,1,2.889-3.584,11.137,11.137,0,0,1,4.707-.785,8.723,8.723,0,0,1,3.5.607Z" transform="translate(-1447.53 -1155.52)" fill="#966c0c"/>
      <path id="Path_210401" data-name="Path 210401" d="M1517.717,1482.569c-.046-.1-.282-.189-.6-.267a7.277,7.277,0,0,0-.413-2.532c-.349-1.143-2.365-2.942-2.871-3.381a.386.386,0,0,0-.023-.157c-.174-.42-2.081-.791-2.274-.514a1.069,1.069,0,0,0,.071.657,6.64,6.64,0,0,0-2.151,1.7c-.934,1-1.52,4.326-1.52,4.326l.056-.1c-.2.452.4,2.15.719,2.178.108.009.306-.151.534-.39a6.641,6.641,0,0,0,2.547,1.014c1.333.308,4.507-.847,4.507-.847h-.006C1516.824,1484.061,1517.847,1482.844,1517.717,1482.569Zm-5.291,1.29a5.963,5.963,0,0,1-2.149-1.1,1.878,1.878,0,0,0,.282-.541c.025-.309-2.215-.4-2.542.031v0a15.055,15.055,0,0,1,2.2-3.007,5.963,5.963,0,0,1,2.024-1.313,1.871,1.871,0,0,0,.328.515c.223.155,1.168-1.282,1.261-1.974a14.928,14.928,0,0,1,1.483,3.366,6.127,6.127,0,0,1,.153,2.228,1.93,1.93,0,0,0-.623.025c-.266.126.667,1.929,1.217,2.163A14.844,14.844,0,0,1,1512.427,1483.859Z" transform="translate(-1496.837 -1452.009)" fill="#fff"/>
      <g id="Group_151542" data-name="Group 151542" transform="translate(12.35 35.559)">
        <path id="Path_210402" data-name="Path 210402" d="M1527.742,1645.815v2.435h-.554v-1.644l-.22,1.644h-.393l-.232-1.607v1.607h-.553v-2.435h.819q.036.22.075.518l.09.62.146-1.137Z" transform="translate(-1525.788 -1645.815)" fill="#fff"/>
        <path id="Path_210403" data-name="Path 210403" d="M1557.247,1645.815h1.056v.487h-.423v.462h.4v.463h-.4v.535h.465v.488h-1.1Z" transform="translate(-1555.039 -1645.815)" fill="#fff"/>
        <path id="Path_210404" data-name="Path 210404" d="M1574.746,1645.815v.487h-.376v1.948h-.633V1646.3h-.375v-.487Z" transform="translate(-1570.023 -1645.815)" fill="#fff"/>
        <path id="Path_210405" data-name="Path 210405" d="M1592.57,1645.815l.362,2.435h-.647l-.034-.438h-.226l-.038.438h-.655l.323-2.435Zm-.336,1.566q-.048-.414-.1-1.023-.1.7-.121,1.023Z" transform="translate(-1586.731 -1645.815)" fill="#fff"/>
        <path id="Path_210406" data-name="Path 210406" d="M1616.3,1645.815v1.948h.385v.488h-1.018v-2.435Z" transform="translate(-1609.355 -1645.815)" fill="#fff"/>
      </g>
    </g>
    <g id="Group_151547" data-name="Group 151547" transform="translate(1055.199 1139.22)">
      <rect id="Rectangle_45036" data-name="Rectangle 45036" width="23.964" height="2.876" transform="translate(3.554 45.123)" fill="#131616"/>
      <path id="Path_210407" data-name="Path 210407" d="M1759.038,1142.375a4.145,4.145,0,0,0-4.025-3.155h-14.256a4.145,4.145,0,0,0-4.025,3.155l-2.1,8.549h26.508Z" transform="translate(-1732.27 -1139.22)" fill="#26881b"/>
      <path id="Rectangle_45037" data-name="Rectangle 45037" d="M5.067,0H25.7A5.067,5.067,0,0,1,30.77,5.067v0a0,0,0,0,1,0,0H0a0,0,0,0,1,0,0v0A5.067,5.067,0,0,1,5.067,0Z" transform="translate(0 11.704)" fill="#26881b"/>
      <path id="Path_210408" data-name="Path 210408" d="M1747.972,1378.139h-13.34l4.049,30.9a1.3,1.3,0,0,0,1.29,1.132H1755.8a1.3,1.3,0,0,0,1.29-1.132l4.049-30.9Z" transform="translate(-1732.27 -1361.369)" fill="#26881b"/>
      <path id="Path_210409" data-name="Path 210409" d="M1822.029,1163.57l-1.085-5.216a2.013,2.013,0,0,0-1.971-1.6h-9.823a2.014,2.014,0,0,0-1.971,1.6l-1.085,5.216a2.013,2.013,0,0,0,1.971,2.423h11.993A2.013,2.013,0,0,0,1822.029,1163.57Z" transform="translate(-1798.676 -1155.52)" fill="#1b5912"/>
      <g id="Group_151544" data-name="Group 151544" transform="translate(1.235 42.513)">
        <rect id="Rectangle_45038" data-name="Rectangle 45038" width="3.182" height="8.65" transform="translate(1.126 0)" fill="#313738"/>
        <path id="Path_210410" data-name="Path 210410" d="M1737.813,1744.881h-.82a14.285,14.285,0,0,1,.183,2.621,5.442,5.442,0,0,1-.887,2.893,3.64,3.64,0,0,1-.96.938,3.444,3.444,0,0,1-.7.322v1.877h3.182Z" transform="translate(-1733.505 -1744.881)" fill="#131616"/>
        <path id="Path_210411" data-name="Path 210411" d="M1719.733,1761.732a4.887,4.887,0,0,0,0,6.284Z" transform="translate(-1718.589 -1760.549)" fill="#26881b"/>
      </g>
      <g id="Group_151545" data-name="Group 151545" transform="translate(25.727 42.5)">
        <rect id="Rectangle_45039" data-name="Rectangle 45039" width="3.182" height="8.65" transform="translate(3.219 8.65) rotate(179.758)" fill="#313738"/>
        <path id="Path_210412" data-name="Path 210412" d="M2067.509,1744.837l.82,0a14.291,14.291,0,0,0-.172,2.622,5.441,5.441,0,0,0,.9,2.889,3.635,3.635,0,0,0,.964.934,3.455,3.455,0,0,0,.7.319l.008,1.876-3.182.014Z" transform="translate(-2067.509 -1744.823)" fill="#131616"/>
        <path id="Path_210413" data-name="Path 210413" d="M2112.66,1761.543a4.886,4.886,0,0,1,.027,6.284Z" transform="translate(-2109.491 -1760.36)" fill="#26881b"/>
      </g>
      <path id="Path_210414" data-name="Path 210414" d="M1747.971,1378.139h-13.34l.114.871c6.1,1.055,12.54.218,18.4,2.231a6.05,6.05,0,0,1,3.742,2.776,6.731,6.731,0,0,1,.479,2.395,74.16,74.16,0,0,1-.583,15.758,8.7,8.7,0,0,1-1.32,4.015c-1.573,2.123-4.558,2.486-7.2,2.6a41.949,41.949,0,0,1-6.329-.08,7.109,7.109,0,0,1-2.982-.842,3.892,3.892,0,0,1-.47-.338l.2,1.507a1.3,1.3,0,0,0,1.29,1.132H1755.8a1.3,1.3,0,0,0,1.29-1.132l4.049-30.9Z" transform="translate(-1732.269 -1361.369)" fill="#247520"/>
      <path id="Path_210415" data-name="Path 210415" d="M1756.564,1412.084a2.764,2.764,0,0,0-.023,1.683q1.656,8.479,2.542,17.085c.068.662.391,1.537,1.046,1.425.607-.1.687-.936.61-1.547-.659-5.258-1.609-10.531-1.262-15.819a6.112,6.112,0,0,0-.08-2.084C1759.085,1411.739,1757.255,1410.59,1756.564,1412.084Z" transform="translate(-1752.529 -1392.268)" fill="#fff" opacity="0.12"/>
      <path id="Path_210416" data-name="Path 210416" d="M1713.05,1315.669a.781.781,0,0,0,.618.647,2.409,2.409,0,0,0,.951-.018,69.76,69.76,0,0,1,9.7-.446.82.82,0,0,0,.391-.068.282.282,0,0,0,.149-.334c-.055-.128-.217-.165-.356-.181a17,17,0,0,0-1.959-.073l-5.322.007C1716.6,1315.2,1713,1314.776,1713.05,1315.669Z" transform="translate(-1712.203 -1302.755)" fill="#fff" opacity="0.12"/>
      <path id="Path_210417" data-name="Path 210417" d="M1820.944,1158.353a2.013,2.013,0,0,0-1.971-1.6h-9.823a2.014,2.014,0,0,0-1.971,1.6l-1.085,5.216a2.013,2.013,0,0,0,1.971,2.423h2.615a3.311,3.311,0,0,1-.452-2.039,4.8,4.8,0,0,1,2.889-3.584,11.137,11.137,0,0,1,4.707-.785,8.724,8.724,0,0,1,3.5.607Z" transform="translate(-1798.676 -1155.52)" fill="#153f0d"/>
      <path id="Path_210418" data-name="Path 210418" d="M1868.864,1482.569c-.046-.1-.282-.189-.6-.267a7.272,7.272,0,0,0-.414-2.532c-.349-1.143-2.365-2.942-2.871-3.381a.392.392,0,0,0-.023-.157c-.174-.42-2.081-.791-2.274-.514-.062.089-.023.34.07.657a6.644,6.644,0,0,0-2.151,1.7c-.933,1-1.52,4.326-1.52,4.326l.056-.1c-.2.452.4,2.15.719,2.178.108.009.306-.151.534-.39a6.641,6.641,0,0,0,2.547,1.014c1.333.308,4.507-.847,4.507-.847h-.006C1867.97,1484.061,1868.993,1482.844,1868.864,1482.569Zm-5.291,1.29a5.963,5.963,0,0,1-2.149-1.1,1.885,1.885,0,0,0,.282-.541c.025-.309-2.215-.4-2.542.031v0a15.065,15.065,0,0,1,2.2-3.007,5.963,5.963,0,0,1,2.024-1.313,1.877,1.877,0,0,0,.328.515c.223.155,1.168-1.282,1.261-1.974a14.938,14.938,0,0,1,1.483,3.366,6.12,6.12,0,0,1,.152,2.228,1.929,1.929,0,0,0-.623.025c-.266.126.667,1.929,1.217,2.163A14.844,14.844,0,0,1,1863.573,1483.859Z" transform="translate(-1847.983 -1452.009)" fill="#fff"/>
      <g id="Group_151546" data-name="Group 151546" transform="translate(12.236 35.115)">
        <path id="Path_210419" data-name="Path 210419" d="M1876.779,1640.44h-.633v-.221a1.1,1.1,0,0,0-.018-.262.095.095,0,0,0-.166-.007.735.735,0,0,0-.021.232v1.169a.7.7,0,0,0,.021.216.082.082,0,0,0,.084.052.093.093,0,0,0,.094-.059.689.689,0,0,0,.025-.229v-.289h-.128v-.37h.742v1.307h-.4l-.059-.174a.442.442,0,0,1-.163.169.459.459,0,0,1-.233.056.606.606,0,0,1-.3-.077.575.575,0,0,1-.212-.192.61.61,0,0,1-.09-.24,2.9,2.9,0,0,1-.018-.377v-.724a2.437,2.437,0,0,1,.037-.507.521.521,0,0,1,.216-.29.757.757,0,0,1,.461-.132.86.86,0,0,1,.462.114.541.541,0,0,1,.239.271,1.443,1.443,0,0,1,.056.457Z" transform="translate(-1875.308 -1639.492)" fill="#fff"/>
        <path id="Path_210420" data-name="Path 210420" d="M1900.392,1640.221v1.948h.385v.487h-1.018v-2.435Z" transform="translate(-1898.043 -1640.17)" fill="#fff"/>
        <path id="Path_210421" data-name="Path 210421" d="M1916.737,1640.221l.362,2.435h-.647l-.034-.438h-.226l-.038.438h-.655l.323-2.435Zm-.336,1.566q-.048-.414-.1-1.023-.1.7-.121,1.023Z" transform="translate(-1912.678 -1640.17)" fill="#fff"/>
        <path id="Path_210422" data-name="Path 210422" d="M1940.476,1640.28h-.588v-.18a.354.354,0,0,0-.023-.161.083.083,0,0,0-.075-.035.1.1,0,0,0-.086.047.271.271,0,0,0-.029.142.4.4,0,0,0,.033.184.479.479,0,0,0,.179.149,1.809,1.809,0,0,1,.533.412.944.944,0,0,1,.11.519.907.907,0,0,1-.061.384.474.474,0,0,1-.235.207.931.931,0,0,1-.406.083.906.906,0,0,1-.434-.1.472.472,0,0,1-.235-.245,1.26,1.26,0,0,1-.056-.423v-.159h.588v.3a.39.39,0,0,0,.025.176.1.1,0,0,0,.088.039.1.1,0,0,0,.094-.05.283.283,0,0,0,.031-.147.458.458,0,0,0-.059-.281,1.884,1.884,0,0,0-.3-.221,2.924,2.924,0,0,1-.313-.227.532.532,0,0,1-.127-.2.862.862,0,0,1-.05-.319.883.883,0,0,1,.071-.409.481.481,0,0,1,.231-.2.924.924,0,0,1,.385-.073,1,1,0,0,1,.42.08.439.439,0,0,1,.23.2,1.06,1.06,0,0,1,.056.411Z" transform="translate(-1934.606 -1639.492)" fill="#fff"/>
        <path id="Path_210423" data-name="Path 210423" d="M1963.171,1640.28h-.588v-.18a.355.355,0,0,0-.023-.161.083.083,0,0,0-.075-.035.1.1,0,0,0-.086.047.271.271,0,0,0-.03.142.4.4,0,0,0,.033.184.481.481,0,0,0,.179.149,1.807,1.807,0,0,1,.533.412.942.942,0,0,1,.11.519.911.911,0,0,1-.061.384.475.475,0,0,1-.235.207.931.931,0,0,1-.406.083.906.906,0,0,1-.434-.1.474.474,0,0,1-.235-.245,1.256,1.256,0,0,1-.056-.423v-.159h.588v.3a.389.389,0,0,0,.025.176.1.1,0,0,0,.088.039.1.1,0,0,0,.094-.05.281.281,0,0,0,.031-.147.456.456,0,0,0-.059-.281,1.871,1.871,0,0,0-.3-.221,2.931,2.931,0,0,1-.313-.227.528.528,0,0,1-.127-.2.859.859,0,0,1-.051-.319.888.888,0,0,1,.072-.409.483.483,0,0,1,.231-.2.922.922,0,0,1,.385-.073,1,1,0,0,1,.42.08.441.441,0,0,1,.23.2,1.068,1.068,0,0,1,.056.411Z" transform="translate(-1955.706 -1639.492)" fill="#fff"/>
      </g>
    </g>
    <g id="Group_151551" data-name="Group 151551" transform="translate(1006.447 1139.22)">
      <rect id="Rectangle_45040" data-name="Rectangle 45040" width="23.964" height="2.876" transform="translate(3.554 45.123)" fill="#131616"/>
      <path id="Path_210424" data-name="Path 210424" d="M1064.493,1142.375a4.145,4.145,0,0,0-4.025-3.155h-14.256a4.145,4.145,0,0,0-4.025,3.155l-2.1,8.549h26.508Z" transform="translate(-1037.725 -1139.22)" fill="#f98715"/>
      <path id="Rectangle_45041" data-name="Rectangle 45041" d="M5.067,0H25.7A5.067,5.067,0,0,1,30.77,5.067v0a0,0,0,0,1,0,0H0a0,0,0,0,1,0,0v0A5.067,5.067,0,0,1,5.067,0Z" transform="translate(0 11.704)" fill="#f98715"/>
      <path id="Path_210425" data-name="Path 210425" d="M1053.427,1378.139h-13.34l4.049,30.9a1.3,1.3,0,0,0,1.29,1.132h15.829a1.3,1.3,0,0,0,1.29-1.132l4.049-30.9Z" transform="translate(-1037.725 -1361.369)" fill="#f98715"/>
      <path id="Path_210426" data-name="Path 210426" d="M1127.485,1163.57l-1.085-5.216a2.013,2.013,0,0,0-1.971-1.6h-9.823a2.014,2.014,0,0,0-1.971,1.6l-1.085,5.216a2.013,2.013,0,0,0,1.971,2.423h11.993A2.013,2.013,0,0,0,1127.485,1163.57Z" transform="translate(-1104.132 -1155.52)" fill="#b25400"/>
      <g id="Group_151548" data-name="Group 151548" transform="translate(1.235 42.513)">
        <rect id="Rectangle_45042" data-name="Rectangle 45042" width="3.182" height="8.65" transform="translate(1.126 0)" fill="#313738"/>
        <path id="Path_210427" data-name="Path 210427" d="M1043.269,1744.881h-.82a14.285,14.285,0,0,1,.183,2.621,5.441,5.441,0,0,1-.887,2.893,3.636,3.636,0,0,1-.96.938,3.45,3.45,0,0,1-.7.322v1.877h3.182Z" transform="translate(-1038.96 -1744.881)" fill="#131616"/>
        <path id="Path_210428" data-name="Path 210428" d="M1025.188,1761.732a4.886,4.886,0,0,0,0,6.284Z" transform="translate(-1024.044 -1760.549)" fill="#f98715"/>
      </g>
      <g id="Group_151549" data-name="Group 151549" transform="translate(25.727 42.5)">
        <rect id="Rectangle_45043" data-name="Rectangle 45043" width="3.182" height="8.65" transform="translate(3.219 8.65) rotate(179.758)" fill="#313738"/>
        <path id="Path_210429" data-name="Path 210429" d="M1372.965,1744.837l.82,0a14.3,14.3,0,0,0-.172,2.622,5.441,5.441,0,0,0,.9,2.889,3.638,3.638,0,0,0,.964.934,3.453,3.453,0,0,0,.7.319l.008,1.876-3.182.014Z" transform="translate(-1372.965 -1744.823)" fill="#131616"/>
        <path id="Path_210430" data-name="Path 210430" d="M1418.116,1761.543a4.887,4.887,0,0,1,.027,6.284Z" transform="translate(-1414.947 -1760.36)" fill="#f98715"/>
      </g>
      <path id="Path_210431" data-name="Path 210431" d="M1053.427,1378.139h-13.34l.114.871c6.1,1.055,12.54.218,18.4,2.231a6.051,6.051,0,0,1,3.742,2.776,6.734,6.734,0,0,1,.478,2.395,74.16,74.16,0,0,1-.583,15.758,8.7,8.7,0,0,1-1.32,4.015c-1.573,2.123-4.558,2.486-7.2,2.6a41.948,41.948,0,0,1-6.329-.08,7.109,7.109,0,0,1-2.982-.842,3.894,3.894,0,0,1-.47-.338l.2,1.507a1.3,1.3,0,0,0,1.29,1.132h15.829a1.3,1.3,0,0,0,1.29-1.132l4.049-30.9Z" transform="translate(-1037.725 -1361.369)" fill="#f76c0d"/>
      <path id="Path_210432" data-name="Path 210432" d="M1062.02,1412.084a2.764,2.764,0,0,0-.023,1.683q1.656,8.479,2.542,17.085c.068.662.39,1.537,1.046,1.425.607-.1.687-.936.61-1.547-.659-5.258-1.609-10.531-1.262-15.819a6.106,6.106,0,0,0-.08-2.084C1064.541,1411.739,1062.711,1410.59,1062.02,1412.084Z" transform="translate(-1057.985 -1392.268)" fill="#fff" opacity="0.12"/>
      <path id="Path_210433" data-name="Path 210433" d="M1018.5,1315.669a.782.782,0,0,0,.618.647,2.41,2.41,0,0,0,.951-.018,69.756,69.756,0,0,1,9.7-.446.821.821,0,0,0,.391-.068.282.282,0,0,0,.148-.334c-.055-.128-.217-.165-.356-.181a17,17,0,0,0-1.959-.073l-5.322.007C1022.054,1315.2,1018.453,1314.776,1018.5,1315.669Z" transform="translate(-1017.658 -1302.755)" fill="#fff" opacity="0.12"/>
      <path id="Path_210434" data-name="Path 210434" d="M1126.4,1158.353a2.013,2.013,0,0,0-1.971-1.6h-9.823a2.014,2.014,0,0,0-1.971,1.6l-1.085,5.216a2.013,2.013,0,0,0,1.971,2.423h2.615a3.312,3.312,0,0,1-.452-2.039,4.8,4.8,0,0,1,2.888-3.584,11.138,11.138,0,0,1,4.707-.785,8.723,8.723,0,0,1,3.5.607Z" transform="translate(-1104.132 -1155.52)" fill="#7f3900"/>
      <path id="Path_210435" data-name="Path 210435" d="M1174.319,1482.569c-.046-.1-.281-.189-.6-.267a7.272,7.272,0,0,0-.414-2.532c-.349-1.143-2.365-2.942-2.871-3.381a.39.39,0,0,0-.023-.157c-.174-.42-2.081-.791-2.274-.514a1.07,1.07,0,0,0,.07.657,6.643,6.643,0,0,0-2.151,1.7c-.933,1-1.52,4.326-1.52,4.326l.056-.1c-.2.452.4,2.15.719,2.178.108.009.306-.151.534-.39a6.64,6.64,0,0,0,2.547,1.014c1.333.308,4.507-.847,4.507-.847h-.006C1173.427,1484.061,1174.449,1482.844,1174.319,1482.569Zm-5.291,1.29a5.963,5.963,0,0,1-2.149-1.1,1.887,1.887,0,0,0,.282-.541c.025-.309-2.215-.4-2.542.031v0a15.061,15.061,0,0,1,2.2-3.007,5.964,5.964,0,0,1,2.024-1.313,1.874,1.874,0,0,0,.328.515c.223.155,1.168-1.282,1.261-1.974a14.939,14.939,0,0,1,1.483,3.366,6.121,6.121,0,0,1,.152,2.228,1.93,1.93,0,0,0-.623.025c-.266.126.667,1.929,1.217,2.163A14.845,14.845,0,0,1,1169.029,1483.859Z" transform="translate(-1153.439 -1452.009)" fill="#fff"/>
      <g id="Group_151550" data-name="Group 151550" transform="translate(11.042 35.511)">
        <path id="Path_210436" data-name="Path 210436" d="M1163.751,1645.849h.638a1.5,1.5,0,0,1,.4.041.447.447,0,0,1,.209.117.4.4,0,0,1,.095.186,1.66,1.66,0,0,1,.025.338v.212a.882.882,0,0,1-.048.34.33.33,0,0,1-.177.164.835.835,0,0,1-.336.057h-.17v.981h-.633Zm.633.417v.62l.047,0a.146.146,0,0,0,.121-.043.315.315,0,0,0,.034-.178v-.2a.236.236,0,0,0-.039-.162A.245.245,0,0,0,1164.384,1646.266Z" transform="translate(-1163.751 -1645.798)" fill="#fff"/>
        <path id="Path_210437" data-name="Path 210437" d="M1186.413,1645.849v1.948h.385v.487h-1.018v-2.435Z" transform="translate(-1184.234 -1645.798)" fill="#fff"/>
        <path id="Path_210438" data-name="Path 210438" d="M1202.758,1645.849l.362,2.435h-.647l-.034-.437h-.226l-.038.438h-.655l.323-2.435Zm-.336,1.566q-.048-.414-.1-1.023-.1.7-.122,1.023Z" transform="translate(-1198.869 -1645.798)" fill="#fff"/>
        <path id="Path_210439" data-name="Path 210439" d="M1226.5,1645.909h-.588v-.181a.351.351,0,0,0-.023-.161.083.083,0,0,0-.075-.035.1.1,0,0,0-.087.047.273.273,0,0,0-.029.142.4.4,0,0,0,.033.183.478.478,0,0,0,.179.149,1.8,1.8,0,0,1,.532.412.943.943,0,0,1,.11.519.91.91,0,0,1-.061.384.477.477,0,0,1-.236.207.93.93,0,0,1-.406.083.907.907,0,0,1-.434-.1.473.473,0,0,1-.235-.245,1.261,1.261,0,0,1-.056-.423v-.159h.588v.3a.39.39,0,0,0,.025.176.1.1,0,0,0,.088.039.1.1,0,0,0,.094-.049.284.284,0,0,0,.031-.148.456.456,0,0,0-.059-.281,1.845,1.845,0,0,0-.3-.221,2.911,2.911,0,0,1-.313-.227.534.534,0,0,1-.127-.2.862.862,0,0,1-.05-.319.885.885,0,0,1,.071-.409.48.48,0,0,1,.231-.2.922.922,0,0,1,.385-.073,1,1,0,0,1,.42.08.44.44,0,0,1,.23.2,1.061,1.061,0,0,1,.057.411Z" transform="translate(-1220.797 -1645.121)" fill="#fff"/>
        <path id="Path_210440" data-name="Path 210440" d="M1248.389,1645.849v.487h-.376v1.948h-.633v-1.948h-.375v-.487Z" transform="translate(-1241.161 -1645.798)" fill="#fff"/>
        <path id="Path_210441" data-name="Path 210441" d="M1269.41,1645.849v2.435h-.633v-2.435Z" transform="translate(-1261.405 -1645.798)" fill="#fff"/>
        <path id="Path_210442" data-name="Path 210442" d="M1282.661,1646.233h-.633v-.423a.759.759,0,0,0-.02-.23.087.087,0,0,0-.089-.046.094.094,0,0,0-.1.056.85.85,0,0,0-.021.241v1.131a.791.791,0,0,0,.021.232.09.09,0,0,0,.095.054.089.089,0,0,0,.093-.054.893.893,0,0,0,.022-.255v-.306h.633v.095a1.868,1.868,0,0,1-.053.536.547.547,0,0,1-.236.277.808.808,0,0,1-.45.119.933.933,0,0,1-.459-.1.489.489,0,0,1-.239-.279,1.828,1.828,0,0,1-.059-.536v-.711a3.175,3.175,0,0,1,.018-.395.555.555,0,0,1,.108-.254.6.6,0,0,1,.248-.192,1.016,1.016,0,0,1,.827.038.518.518,0,0,1,.239.27,1.619,1.619,0,0,1,.057.5Z" transform="translate(-1272.922 -1645.121)" fill="#fff"/>
      </g>
    </g>
  </g>
</svg>
