<svg xmlns="http://www.w3.org/2000/svg" xmlns:xlink="http://www.w3.org/1999/xlink" width="99.771" height="50.188" viewBox="0 0 99.771 50.188">
  <defs>
    <linearGradient id="linear-gradient" x1="0.487" y1="-0.067" x2="0.535" y2="1.594" gradientUnits="objectBoundingBox">
      <stop offset="0.144" stop-color="#c3e0e0"/>
      <stop offset="0.449" stop-color="#8ecddc"/>
    </linearGradient>
    <linearGradient id="linear-gradient-2" x1="0.561" y1="-0.663" x2="0.431" y2="1.284" gradientUnits="objectBoundingBox">
      <stop offset="0.373" stop-color="#7a757d"/>
      <stop offset="0.757" stop-color="#605c63"/>
    </linearGradient>
    <linearGradient id="linear-gradient-3" x1="0.725" y1="-0.568" x2="0.229" y2="1.697" gradientUnits="objectBoundingBox">
      <stop offset="0.441" stop-color="#96964d"/>
      <stop offset="0.962" stop-color="#d4d169"/>
    </linearGradient>
    <linearGradient id="linear-gradient-4" x1="0.482" y1="-0.599" x2="0.523" y2="1.519" gradientUnits="objectBoundingBox">
      <stop offset="0.552" stop-color="#8a8a47"/>
      <stop offset="0.878" stop-color="#d4d169"/>
    </linearGradient>
    <linearGradient id="linear-gradient-5" x1="0.508" y1="-0.186" x2="0.482" y2="1.323" gradientUnits="objectBoundingBox">
      <stop offset="0.885" stop-color="#96964d"/>
      <stop offset="0.962" stop-color="#d4d169"/>
    </linearGradient>
    <linearGradient id="linear-gradient-6" x1="0.533" y1="-0.34" x2="0.47" y2="1.274" gradientUnits="objectBoundingBox">
      <stop offset="0.273" stop-color="#b5bec8"/>
      <stop offset="0.636" stop-color="#7f8594"/>
    </linearGradient>
    <linearGradient id="linear-gradient-7" x1="0.531" y1="-0.048" x2="0.464" y2="1.138" gradientUnits="objectBoundingBox">
      <stop offset="0.388" stop-color="#ccd5de"/>
      <stop offset="0.869" stop-color="#8695a3"/>
    </linearGradient>
    <linearGradient id="linear-gradient-8" x1="1.947" y1="0.568" x2="-1.229" y2="0.422" gradientUnits="objectBoundingBox">
      <stop offset="0.195" stop-color="#7a757d"/>
      <stop offset="0.569" stop-color="#605c63"/>
    </linearGradient>
    <linearGradient id="linear-gradient-9" x1="0.551" y1="-0.04" x2="0.364" y2="1.204" xlink:href="#linear-gradient-7"/>
    <linearGradient id="linear-gradient-10" x1="0.563" y1="-0.991" x2="0.5" y2="0.682" gradientUnits="objectBoundingBox">
      <stop offset="0" stop-color="#b5bec8"/>
      <stop offset="0.636" stop-color="#7f8594"/>
    </linearGradient>
    <linearGradient id="linear-gradient-11" x1="0.69" y1="-0.174" x2="0.351" y2="0.932" xlink:href="#linear-gradient-7"/>
    <linearGradient id="linear-gradient-12" x1="0.576" y1="-0.163" x2="0.381" y2="1.009" xlink:href="#linear-gradient-7"/>
    <linearGradient id="linear-gradient-13" x1="0" y1="0.5" x2="1" y2="0.5" xlink:href="#linear-gradient-10"/>
    <linearGradient id="linear-gradient-14" x1="0.533" y1="-0.34" x2="0.47" y2="1.273" xlink:href="#linear-gradient-6"/>
    <linearGradient id="linear-gradient-15" x1="0.531" y1="-0.048" x2="0.464" y2="1.138" xlink:href="#linear-gradient-7"/>
    <linearGradient id="linear-gradient-17" x1="0.551" y1="-0.04" x2="0.364" y2="1.204" xlink:href="#linear-gradient-7"/>
    <linearGradient id="linear-gradient-19" x1="0.69" y1="-0.174" x2="0.35" y2="0.932" xlink:href="#linear-gradient-7"/>
    <linearGradient id="linear-gradient-20" x1="0.576" y1="-0.163" x2="0.381" y2="1.009" xlink:href="#linear-gradient-7"/>
    <linearGradient id="linear-gradient-21" x1="0.937" y1="0.315" x2="-0.108" y2="0.681" gradientUnits="objectBoundingBox">
      <stop offset="0" stop-color="#d9ab6b"/>
      <stop offset="0.766" stop-color="#bf7f41"/>
    </linearGradient>
    <linearGradient id="linear-gradient-22" x1="1.428" y1="0.295" x2="0.139" y2="0.572" gradientUnits="objectBoundingBox">
      <stop offset="0.204" stop-color="#d9ab6b"/>
      <stop offset="0.519" stop-color="#bf7f41"/>
    </linearGradient>
    <linearGradient id="linear-gradient-23" x1="1.242" y1="0.322" x2="-0.175" y2="0.662" gradientUnits="objectBoundingBox">
      <stop offset="0.15" stop-color="#efcf81"/>
      <stop offset="0.973" stop-color="#bf7f41"/>
    </linearGradient>
    <linearGradient id="linear-gradient-24" x1="1.255" y1="0.279" x2="-0.21" y2="0.708" xlink:href="#linear-gradient-23"/>
    <linearGradient id="linear-gradient-25" x1="1.851" y1="2.429" x2="-0.215" y2="-0.694" xlink:href="#linear-gradient-22"/>
    <linearGradient id="linear-gradient-26" x1="1.354" y1="0.338" x2="0.176" y2="0.552" xlink:href="#linear-gradient-22"/>
    <linearGradient id="linear-gradient-27" x1="1.919" y1="0.415" x2="-0.228" y2="0.537" xlink:href="#linear-gradient-22"/>
    <linearGradient id="linear-gradient-28" x1="0.527" y1="-0.065" x2="0.46" y2="1.384" gradientUnits="objectBoundingBox">
      <stop offset="0" stop-color="#efcf81"/>
      <stop offset="0.973" stop-color="#bf7f41"/>
    </linearGradient>
    <linearGradient id="linear-gradient-29" x1="0.785" y1="0.227" x2="-0.092" y2="1.069" gradientUnits="objectBoundingBox">
      <stop offset="0.251" stop-color="#eb6b75"/>
      <stop offset="0.618" stop-color="#dc3f58"/>
    </linearGradient>
    <linearGradient id="linear-gradient-30" x1="1.184" y1="0.1" x2="0.269" y2="0.968" gradientUnits="objectBoundingBox">
      <stop offset="0.421" stop-color="#eb6b75"/>
      <stop offset="0.969" stop-color="#dc3f58"/>
    </linearGradient>
    <linearGradient id="linear-gradient-31" x1="0.537" y1="-0.107" x2="0.455" y2="1.483" gradientUnits="objectBoundingBox">
      <stop offset="0.121" stop-color="#efcf81"/>
      <stop offset="0.973" stop-color="#bf7f41"/>
    </linearGradient>
    <linearGradient id="linear-gradient-32" x1="1.177" y1="0.463" x2="-0.586" y2="0.562" gradientUnits="objectBoundingBox">
      <stop offset="0.121" stop-color="#d9ab6b"/>
      <stop offset="0.706" stop-color="#bf7f41"/>
    </linearGradient>
    <linearGradient id="linear-gradient-33" x1="1.459" y1="0.295" x2="0.14" y2="0.577" xlink:href="#linear-gradient-22"/>
    <linearGradient id="linear-gradient-34" x1="1.242" y1="0.338" x2="-0.158" y2="0.644" xlink:href="#linear-gradient-23"/>
    <linearGradient id="linear-gradient-35" x1="1.293" y1="0.426" x2="0.335" y2="0.514" xlink:href="#linear-gradient-22"/>
    <linearGradient id="linear-gradient-36" x1="1.643" y1="0.435" x2="-0.158" y2="0.525" xlink:href="#linear-gradient-22"/>
    <linearGradient id="linear-gradient-37" x1="1.545" y1="2.501" x2="-0.131" y2="-0.719" xlink:href="#linear-gradient-22"/>
    <linearGradient id="linear-gradient-38" x1="1.237" y1="0.452" x2="0.12" y2="0.525" xlink:href="#linear-gradient-22"/>
    <linearGradient id="linear-gradient-39" x1="0.91" y1="0.416" x2="-0.368" y2="0.679" xlink:href="#linear-gradient-28"/>
    <linearGradient id="linear-gradient-40" x1="0.711" y1="2.274" x2="0.4" y2="-0.67" gradientUnits="objectBoundingBox">
      <stop offset="0.446" stop-color="#3da2db"/>
      <stop offset="0.734" stop-color="#95d5f6"/>
    </linearGradient>
    <linearGradient id="linear-gradient-41" x1="0.511" y1="0.848" x2="0.474" y2="-0.083" gradientUnits="objectBoundingBox">
      <stop offset="0.622" stop-color="#3a9bd0"/>
      <stop offset="1" stop-color="#95d5f6"/>
    </linearGradient>
    <linearGradient id="linear-gradient-42" x1="-1.998" y1="-0.175" x2="-1.492" y2="1.714" gradientUnits="objectBoundingBox">
      <stop offset="0.187" stop-color="#fff"/>
      <stop offset="0.638" stop-color="#d9d9d9"/>
    </linearGradient>
    <linearGradient id="linear-gradient-43" x1="4.452" y1="0.298" x2="-2.94" y2="0.676" gradientUnits="objectBoundingBox">
      <stop offset="0.316" stop-color="#fff"/>
      <stop offset="0.782" stop-color="#d9d9d9"/>
    </linearGradient>
    <linearGradient id="linear-gradient-44" x1="0.574" y1="0.558" x2="-2.149" y2="0.683" gradientUnits="objectBoundingBox">
      <stop offset="0.309" stop-color="#d9ab6b"/>
      <stop offset="1" stop-color="#bf7f41"/>
    </linearGradient>
    <linearGradient id="linear-gradient-45" x1="0.448" y1="1.562" x2="0.528" y2="-0.29" gradientUnits="objectBoundingBox">
      <stop offset="0.32" stop-color="#efcf81"/>
      <stop offset="0.68" stop-color="#f8ea9f"/>
    </linearGradient>
    <linearGradient id="linear-gradient-46" x1="0.63" y1="-0.147" x2="0.415" y2="1.234" gradientUnits="objectBoundingBox">
      <stop offset="0.186" stop-color="#efcf81"/>
      <stop offset="0.934" stop-color="#bf7f41"/>
    </linearGradient>
    <linearGradient id="linear-gradient-47" x1="0.232" y1="1.937" x2="0.726" y2="-0.709" xlink:href="#linear-gradient-45"/>
    <linearGradient id="linear-gradient-48" x1="0.427" y1="1.732" x2="0.598" y2="-0.616" gradientUnits="objectBoundingBox">
      <stop offset="0.447" stop-color="#efcf81"/>
      <stop offset="0.792" stop-color="#f8ea9f"/>
    </linearGradient>
    <linearGradient id="linear-gradient-49" x1="0.878" y1="-1.545" x2="0.35" y2="1.667" gradientUnits="objectBoundingBox">
      <stop offset="0" stop-color="#efcf81"/>
      <stop offset="1" stop-color="#bf7f41"/>
    </linearGradient>
    <linearGradient id="linear-gradient-50" x1="0.465" y1="3.747" x2="0.522" y2="-1.28" gradientUnits="objectBoundingBox">
      <stop offset="0.447" stop-color="#efcf81"/>
      <stop offset="0.689" stop-color="#f8ea9f"/>
    </linearGradient>
    <linearGradient id="linear-gradient-51" x1="0.134" y1="2.327" x2="0.784" y2="-1.028" xlink:href="#linear-gradient-45"/>
    <linearGradient id="linear-gradient-52" x1="0.485" y1="-0.572" x2="0.523" y2="1.234" xlink:href="#linear-gradient-49"/>
    <linearGradient id="linear-gradient-53" x1="0.38" y1="2.706" x2="0.611" y2="-1.261" xlink:href="#linear-gradient-45"/>
    <linearGradient id="linear-gradient-54" x1="0.36" y1="1.866" x2="0.629" y2="-0.722" xlink:href="#linear-gradient-45"/>
    <linearGradient id="linear-gradient-55" x1="0.052" y1="2.293" x2="0.801" y2="-1.005" xlink:href="#linear-gradient-45"/>
    <linearGradient id="linear-gradient-56" x1="0.479" y1="-0.55" x2="0.524" y2="1.183" xlink:href="#linear-gradient-49"/>
    <linearGradient id="linear-gradient-57" x1="-0.326" y1="2.15" x2="1.001" y2="-0.89" xlink:href="#linear-gradient-45"/>
    <linearGradient id="linear-gradient-58" x1="0.037" y1="0.452" x2="1.981" y2="0.832" xlink:href="#linear-gradient-49"/>
    <linearGradient id="linear-gradient-59" x1="-3.783" y1="0.518" x2="3.712" y2="0.482" xlink:href="#linear-gradient-49"/>
    <linearGradient id="linear-gradient-60" x1="0.481" y1="-0.184" x2="0.533" y2="1.587" gradientUnits="objectBoundingBox">
      <stop offset="0" stop-color="#c3e0e0"/>
      <stop offset="1" stop-color="#8ecddc"/>
    </linearGradient>
    <linearGradient id="linear-gradient-61" x1="0.494" y1="-0.028" x2="0.539" y2="1.554" xlink:href="#linear-gradient-60"/>
    <linearGradient id="linear-gradient-62" x1="0.491" y1="-0.324" x2="0.518" y2="1.701" xlink:href="#linear-gradient-60"/>
    <linearGradient id="linear-gradient-63" x1="0.458" y1="-0.138" x2="0.634" y2="1.603" xlink:href="#linear-gradient-60"/>
    <linearGradient id="linear-gradient-64" x1="0.496" y1="-0.024" x2="0.549" y2="1.545" xlink:href="#linear-gradient-60"/>
    <linearGradient id="linear-gradient-65" x1="0.488" y1="-0.03" x2="0.546" y2="1.58" xlink:href="#linear-gradient-60"/>
    <linearGradient id="linear-gradient-66" x1="-0.006" y1="0.153" x2="1.272" y2="0.868" gradientUnits="objectBoundingBox">
      <stop offset="0.235" stop-color="#a7c843"/>
      <stop offset="0.75" stop-color="#3b6f37"/>
    </linearGradient>
    <linearGradient id="linear-gradient-67" x1="0.457" y1="-0.085" x2="0.543" y2="1.566" xlink:href="#linear-gradient-60"/>
    <linearGradient id="linear-gradient-68" x1="-1.715" y1="0.29" x2="2.886" y2="0.779" gradientUnits="objectBoundingBox">
      <stop offset="0" stop-color="#a7c843"/>
      <stop offset="0.498" stop-color="#3b6f37"/>
    </linearGradient>
    <linearGradient id="linear-gradient-69" x1="0.416" y1="-0.451" x2="0.681" y2="2.538" xlink:href="#linear-gradient-66"/>
    <linearGradient id="linear-gradient-70" x1="0.481" y1="-0.171" x2="0.528" y2="1.794" xlink:href="#linear-gradient-60"/>
    <linearGradient id="linear-gradient-71" x1="0.439" y1="-0.134" x2="0.66" y2="1.626" xlink:href="#linear-gradient-60"/>
    <linearGradient id="linear-gradient-72" x1="0.44" y1="-0.134" x2="0.66" y2="1.626" xlink:href="#linear-gradient-60"/>
    <linearGradient id="linear-gradient-73" x1="0.479" y1="-0.212" x2="0.538" y2="1.745" xlink:href="#linear-gradient-60"/>
  </defs>
  <g id="Group_151562" data-name="Group 151562" transform="translate(-34.802 -91.747)" opacity="0.6">
    <path id="Path_210495" data-name="Path 210495" d="M196.027,181.843a9.092,9.092,0,0,1-3.792,7.15c-3.015,2.263-6.448,1.8-10.006,1.783-.141,0-.289,0-.438.006a9.028,9.028,0,0,0-4.71,1.386,9.158,9.158,0,0,0-2.848,3.982c-.919,1.889-1.838,3.547-3.792,4.609a16.1,16.1,0,0,1-9.575,1.765,40.662,40.662,0,0,1-9.105-2.169,46,46,0,0,1-10.394-5.817,9.651,9.651,0,0,0-5.728-2.02,5.617,5.617,0,0,0-.844.1c-1.584.309-2.953,1.215-4.482,1.706a11.362,11.362,0,0,1-5.678.261,15.018,15.018,0,0,1-7.527-4.519,10.016,10.016,0,0,1-2.077-8.667l2.385-2.962,15.025-1.7,27.977-4.521,12.4-1.456,3.391.42c5.056,0,10.745,1.125,15.066,3.709C193.789,176.387,195.94,178.922,196.027,181.843Z" transform="translate(-61.457 -60.696)" fill="url(#linear-gradient)"/>
    <path id="Path_210496" data-name="Path 210496" d="M166.739,217.853a1.471,1.471,0,0,0-1.824,1.054s-.256,1.155-1.977.693c0,0-2.8-1.453-3.957-.842,0,0-.319.084.471.951a.664.664,0,0,1-.137.97s-.726.565,1.345.822a1.784,1.784,0,0,1,1.2.514,1,1,0,0,0,1.387.282,6.357,6.357,0,0,1,1.978-.72,2.9,2.9,0,0,0,2.029-1.334s.743-1.233,1.643-1.208c0,0-.642-.8-1.618.116a1.087,1.087,0,0,1-1.336-.534S165.647,218.245,166.739,217.853Z" transform="translate(-95.344 -96.837)" fill="url(#linear-gradient-2)"/>
    <path id="Path_210497" data-name="Path 210497" d="M114.752,121.479v2.284L53.575,133.978a2.265,2.265,0,0,0,.174-.55,2.382,2.382,0,0,0-.146-1.385,2.293,2.293,0,0,0-.871-.88,6,6,0,0,0-2.44-.615c-.835-.064-1.678-.119-2.5-.22a15.293,15.293,0,0,1-3.035-.623,18.48,18.48,0,0,1-3.888-1.917,16.025,16.025,0,0,1-5.09-5.081,6.691,6.691,0,0,1-.027-6.9,12.458,12.458,0,0,1,5.3-4.329,24.036,24.036,0,0,1,2.412-.972,29.565,29.565,0,0,1,9.555-1.467,27.134,27.134,0,0,1,3.8.275,40.017,40.017,0,0,1,9.913,2.916,59.052,59.052,0,0,1,6.355,3.466,9.8,9.8,0,0,0,9.281.321,10.7,10.7,0,0,1,5.292-1.192,28.647,28.647,0,0,1,5.695.972c2.081.551,4.118,1.321,6.181,1.972.394.119.788.238,1.182.348,1.587.449,3.2.835,4.824,1.211,1.265.294,2.54.578,3.8.871C111.138,120.607,112.946,121.048,114.752,121.479Z" transform="translate(0 -13.28)" fill="url(#linear-gradient-3)"/>
    <path id="Path_210498" data-name="Path 210498" d="M157.8,162.708v2.286L96.617,175.214a2.51,2.51,0,0,0,.178-.557,2.374,2.374,0,0,0-.154-1.386,2.267,2.267,0,0,0-.864-.877,5.925,5.925,0,0,0-2.441-.61c-.838-.064-1.676-.125-2.5-.225Z" transform="translate(-43.043 -54.511)" fill="url(#linear-gradient-4)"/>
    <path id="Path_210499" data-name="Path 210499" d="M148.726,116.983c-.4-.114-.8-.238-1.2-.361-2.1-.673-4.164-1.467-6.28-2.039a29.346,29.346,0,0,0-5.791-1.024,10.942,10.942,0,0,0-5.395,1.168,10.041,10.041,0,0,1-9.447-.391,60.121,60.121,0,0,0-6.444-3.551,40.936,40.936,0,0,0-10.073-3.021c-1.649.851-3,3.316-3.3,6.338-.4,3.874,1.106,7.186,3.356,7.388a2.822,2.822,0,0,0,1.957-.627v-.018l6.167.562a2.63,2.63,0,0,0,3.778.361l.038-.018,5.477.5a2.841,2.841,0,0,0,1.814.977,2.8,2.8,0,0,0,1.768-.508h.02l.169-.118-1.8-.171,8.071.733a2.735,2.735,0,0,0,1.368.548c1.625.142,3.186-1.285,4.058-3.458l1.095.091a2.745,2.745,0,0,0,1.8.977,2.7,2.7,0,0,0,1.768-.5h.019l.179-.118-1.811-.18,8.081.733a2.655,2.655,0,0,0,1.368.548c1.651.151,3.231-1.322,4.1-3.569C151.979,117.85,150.339,117.449,148.726,116.983Zm-44.667,3.681a.009.009,0,0,0-.009-.01l1.8.16Z" transform="translate(-50.643 -12.304)" fill="url(#linear-gradient-5)" style="mix-blend-mode: multiply;isolation: isolate"/>
    <g id="Group_151563" data-name="Group 151563" transform="translate(66.404 91.747)">
      <g id="Group_151562-2" data-name="Group 151562">
        <path id="Path_210500" data-name="Path 210500" d="M209.537,104.4a15.319,15.319,0,0,1-.724,3.567,6.408,6.408,0,0,1-1.2,2.293,1.387,1.387,0,0,1-1.128.577l-1.568-.137-7.832-.688-.1-.009-.5-.047-1.843-.156-5.621-.5-.642-.054-1.467-.128-1.8-.156-6.328-.551-1.265-.11-.835-.073-.009-.009-1.1-.091v-.028c-1.229-.385-1.962-3.329-1.642-6.823a15.7,15.7,0,0,1,.679-3.448c.009-.028.018-.055.028-.082a10.356,10.356,0,0,1,.513-1.265,5.594,5.594,0,0,1,.394-.67l.019-.018a2.218,2.218,0,0,1,.853-.816.541.541,0,0,1,.229-.092.8.8,0,0,1,.138-.037v-.028l3.164.276,6.4.559.569.055H187l1.3.119c.046,0,.083.009.129.009l.1.009,1.624.147,5.713.5.624.056.073.009,1.248.11c.046,0,.091.009.138.009l1.742.156,6.447.56.34.027.028.01,1.192.1a1.379,1.379,0,0,1,1.017.789,6.41,6.41,0,0,1,.761,2.43v.019A15.723,15.723,0,0,1,209.537,104.4Z" transform="translate(-173.221 -94.115)" fill="url(#linear-gradient-6)"/>
        <path id="Path_210501" data-name="Path 210501" d="M306.91,111.978c-.354,3.919-2.511,6.933-4.817,6.732s-3.89-3.539-3.536-7.457,2.51-6.934,4.818-6.735S307.264,108.058,306.91,111.978Z" transform="translate(-268.979 -101.55)" fill="url(#linear-gradient-7)"/>
        <path id="Path_210502" data-name="Path 210502" d="M310,114.575c-.313,3.481-1.978,6.18-3.726,6.029a1.388,1.388,0,0,1-.4-.092c-1.52-.524-2.475-3.282-2.187-6.487s1.722-5.74,3.3-6.019a1.572,1.572,0,0,1,.424-.017C309.158,108.141,310.314,111.085,310,114.575Z" transform="translate(-272.917 -104.218)" fill="#4c494e"/>
        <path id="Path_210503" data-name="Path 210503" d="M309.459,114.6a10.589,10.589,0,0,1-.618,2.793c-.65,1.717-1.7,2.928-2.848,3.16a.445.445,0,0,1-.135.034,1.786,1.786,0,0,1-.38-.191,4.782,4.782,0,0,1-1.7-3.243v-.008a11.612,11.612,0,0,1-.109-3.045c.3-3.21,1.724-5.742,3.3-6.022C308.659,108.612,309.752,111.39,309.459,114.6Z" transform="translate(-272.908 -104.292)" fill="url(#linear-gradient-8)"/>
        <path id="Path_210504" data-name="Path 210504" d="M175.421,105.943l1.265.1v.028a2.851,2.851,0,0,1-2,.688c-2.311-.2-3.88-3.724-3.5-7.868a11.63,11.63,0,0,1,1.412-4.732c.917-1.577,2.155-2.513,3.439-2.4a2.753,2.753,0,0,1,1.816.981l.027.027-1.742-.165c-.844-.073-1.687.569-2.357,1.669a11.231,11.231,0,0,0-1.4,4.722c-.312,3.43.661,6.365,2.2,6.869l.009.009Z" transform="translate(-171.129 -91.747)" fill="url(#linear-gradient-9)"/>
        <path id="Path_210505" data-name="Path 210505" d="M215.4,101.166a7.769,7.769,0,0,0-2.11,3.937s-14.822-5.81-25.365-4.378c0,0,.69-1.359,1.454-1.615Z" transform="translate(-184.033 -97.403)" fill="#fff" opacity="0.2"/>
        <path id="Path_210506" data-name="Path 210506" d="M300.571,109.615a17.969,17.969,0,0,0-.505,3.971c.159-2.216.825-6.022,3.462-7.754A6.1,6.1,0,0,0,300.571,109.615Z" transform="translate(-270.171 -102.567)" fill="#fff" opacity="0.7"/>
        <path id="Path_210507" data-name="Path 210507" d="M173.471,97.4a17.978,17.978,0,0,0-.505,3.971c.159-2.216.825-6.022,3.462-7.754A6.1,6.1,0,0,0,173.471,97.4Z" transform="translate(-172.535 -93.186)" fill="#fff" opacity="0.7"/>
        <path id="Path_210508" data-name="Path 210508" d="M210.468,118.131l-.776-.118s-2.98-.25-6.958-.842a16.5,16.5,0,0,1,.232-7.394l-.838,1.247-.367,2.407.256,3.631a90.2,90.2,0,0,1-9-1.824,15.974,15.974,0,0,1,.833-7.161l-.931,1.142-.7,2.98v2.819c-3.235-.907-6.146-2.049-7.9-3.472,0,0-.443,3.329,1,5.2l23.846,2.507,1.9.282A2.474,2.474,0,0,1,210.468,118.131Z" transform="translate(-181.209 -104.292)" opacity="0.4" fill="url(#linear-gradient-10)" style="mix-blend-mode: multiply;isolation: isolate"/>
        <path id="Path_210509" data-name="Path 210509" d="M220.067,109.8l.642.054-.037.019a2.884,2.884,0,0,1-2,.679,2.839,2.839,0,0,1-1.871-1.036,5.765,5.765,0,0,1-1-1.688,9.829,9.829,0,0,1-.624-2.659,12.5,12.5,0,0,1-.009-2.485,11.688,11.688,0,0,1,1.393-4.7c.019-.037.037-.064.056-.1a6.347,6.347,0,0,1,.688-.963,4.925,4.925,0,0,1,.733-.715,2.817,2.817,0,0,1,1.981-.66,2.764,2.764,0,0,1,1.825,1l.018.019-1.642-.166-.1-.009c-.047,0-.083-.009-.129-.009a2.075,2.075,0,0,0-1.393.642,4.356,4.356,0,0,0-.862,1.1.719.719,0,0,0-.091.166.878.878,0,0,0-.1.174,11.618,11.618,0,0,0-1.183,4.329,10.808,10.808,0,0,0,.651,5.163,2.849,2.849,0,0,0,1.587,1.715c.009.009.009.009.018.009Z" transform="translate(-204.917 -94.66)" fill="url(#linear-gradient-11)"/>
        <path id="Path_210510" data-name="Path 210510" d="M260.337,113.3l1.412.137-.174.129h-.019a2.76,2.76,0,0,1-1.806.55h-.009a2.817,2.817,0,0,1-1.853-1.027,5.408,5.408,0,0,1-.935-1.513,8.141,8.141,0,0,1-.486-1.541,12.835,12.835,0,0,1,.733-7.612,5.316,5.316,0,0,1,.275-.559,6.856,6.856,0,0,1,.973-1.449,4.288,4.288,0,0,1,.669-.633,2.8,2.8,0,0,1,1.99-.669,2.873,2.873,0,0,1,1.834,1.008l.01.009-1.752-.165c-.047,0-.092-.009-.138-.009a2.011,2.011,0,0,0-1.3.559,5.076,5.076,0,0,0-1.155,1.55,5.984,5.984,0,0,0-.3.651,2.119,2.119,0,0,0-.1.257v.009a12.845,12.845,0,0,0-.761,3.374,10.584,10.584,0,0,0,.733,5.346,2.655,2.655,0,0,0,1.559,1.54l.5.047Z" transform="translate(-236.474 -97.396)" fill="url(#linear-gradient-12)"/>
        <path id="Path_210511" data-name="Path 210511" d="M258.3,105.385a17.948,17.948,0,0,0-.505,3.971c.159-2.216.825-6.022,3.462-7.754A6.1,6.1,0,0,0,258.3,105.385Z" transform="translate(-237.695 -99.318)" fill="#fff" opacity="0.7"/>
        <path id="Path_210512" data-name="Path 210512" d="M217.413,101.51a17.965,17.965,0,0,0-.505,3.971c.159-2.216.825-6.022,3.462-7.754A6.1,6.1,0,0,0,217.413,101.51Z" transform="translate(-206.29 -96.341)" fill="#fff" opacity="0.7"/>
      </g>
      <path id="Path_210513" data-name="Path 210513" d="M194.606,105.394a3.408,3.408,0,0,0-1.348-1.11,2.1,2.1,0,0,0-.569-.165,1.7,1.7,0,0,0-.22-.037,1.929,1.929,0,0,0-.339,0,2.745,2.745,0,0,0-1.146.312l-.193-.019h-.009l-6.245-.541a3.142,3.142,0,0,0-.679-.587,2.213,2.213,0,0,0-.413-.229h-.009a.311.311,0,0,0-.082-.037,1.71,1.71,0,0,0-.193-.065,1.41,1.41,0,0,0-.33-.073.629.629,0,0,0-.128-.018,2.216,2.216,0,0,0-.7.046,3.134,3.134,0,0,0-1.293.623l-5.7-.5a3.133,3.133,0,0,0-1.229-.862,2.271,2.271,0,0,0-.6-.138h-.009a.545.545,0,0,0-.119-.009h-.11a1.484,1.484,0,0,0-.348.037,11.63,11.63,0,0,0-1.412,4.732c-.376,4.145,1.192,7.666,3.5,7.868a2.851,2.851,0,0,0,2-.688v-.019l6.328.551a2.839,2.839,0,0,0,1.871,1.036,2.884,2.884,0,0,0,2-.679l.037-.019,5.621.5a2.817,2.817,0,0,0,1.853,1.027h.009a6.481,6.481,0,0,0,.485-.825,8.907,8.907,0,0,0,.56-1.312,12.387,12.387,0,0,0,.348-1.265,13.473,13.473,0,0,0,.2-1.393A8.973,8.973,0,0,0,194.606,105.394Zm-11.115-1.66-.523-.036-.22-.019c.018,0,.037-.009.055-.009l.165.018Z" transform="translate(-171.129 -99.617)" opacity="0.4" fill="url(#linear-gradient-13)" style="mix-blend-mode: multiply;isolation: isolate"/>
    </g>
    <g id="Group_151564" data-name="Group 151564" transform="translate(49.454 93.898)">
      <path id="Path_210514" data-name="Path 210514" d="M103.656,104.143c-1.281.165-2.533,2.937-2.851,6.429s.413,6.437,1.644,6.821l0,.028,30.915,2.706c1.352.118,2.716-2.764,3.05-6.437s-.487-6.748-1.838-6.866l-30.917-2.706Z" transform="translate(-100.101 -103.4)" fill="url(#linear-gradient-14)"/>
      <path id="Path_210515" data-name="Path 210515" d="M233.788,121.262c-.354,3.919-2.511,6.933-4.817,6.732s-3.89-3.539-3.537-7.457,2.51-6.934,4.818-6.735S234.143,117.342,233.788,121.262Z" transform="translate(-195.858 -110.833)" fill="url(#linear-gradient-15)"/>
      <path id="Path_210516" data-name="Path 210516" d="M236.88,123.859c-.313,3.481-1.978,6.18-3.727,6.029a1.4,1.4,0,0,1-.4-.092c-1.52-.524-2.475-3.282-2.187-6.487s1.722-5.74,3.3-6.019a1.571,1.571,0,0,1,.424-.017C236.037,117.425,237.193,120.369,236.88,123.859Z" transform="translate(-199.797 -113.5)" fill="#4c494e"/>
      <path id="Path_210517" data-name="Path 210517" d="M236.338,123.882a10.592,10.592,0,0,1-.618,2.793c-.65,1.717-1.7,2.928-2.848,3.16a.445.445,0,0,1-.135.034,1.787,1.787,0,0,1-.38-.192,4.782,4.782,0,0,1-1.7-3.243v-.008a11.6,11.6,0,0,1-.109-3.045c.3-3.21,1.724-5.742,3.3-6.023C235.537,117.895,236.631,120.673,236.338,123.882Z" transform="translate(-199.787 -113.573)" fill="url(#linear-gradient-8)"/>
      <path id="Path_210518" data-name="Path 210518" d="M99.258,108.275c.333-3.683,2.015-6.545,3.76-6.393l1.746.165a2.822,2.822,0,0,0-1.843-1.012c-2.309-.2-4.481,3-4.854,7.137s1.189,7.663,3.5,7.864a2.836,2.836,0,0,0,2-.682l0-.028-2.1-.178C99.92,114.644,98.947,111.711,99.258,108.275Z" transform="translate(-98.01 -101.025)" fill="url(#linear-gradient-17)"/>
      <path id="Path_210519" data-name="Path 210519" d="M142.281,110.449a7.767,7.767,0,0,0-2.11,3.937s-14.822-5.811-25.365-4.378c0,0,.69-1.36,1.454-1.616Z" transform="translate(-110.913 -106.685)" fill="#fff" opacity="0.2"/>
      <path id="Path_210520" data-name="Path 210520" d="M227.45,118.9a17.963,17.963,0,0,0-.505,3.971c.159-2.216.825-6.022,3.462-7.754A6.1,6.1,0,0,0,227.45,118.9Z" transform="translate(-197.051 -111.849)" fill="#fff" opacity="0.7"/>
      <path id="Path_210521" data-name="Path 210521" d="M100.35,106.687a17.964,17.964,0,0,0-.505,3.971c.159-2.216.825-6.022,3.462-7.754A6.1,6.1,0,0,0,100.35,106.687Z" transform="translate(-99.414 -102.469)" fill="#fff" opacity="0.7"/>
      <path id="Path_210522" data-name="Path 210522" d="M137.347,127.415l-.776-.118s-2.979-.25-6.958-.842a16.5,16.5,0,0,1,.232-7.394l-.838,1.246-.367,2.407.256,3.631a90.122,90.122,0,0,1-9-1.824,15.973,15.973,0,0,1,.833-7.161l-.931,1.142-.7,2.98V124.3c-3.235-.907-6.146-2.049-7.9-3.472,0,0-.443,3.329,1,5.2l23.846,2.507,1.9.282A2.471,2.471,0,0,1,137.347,127.415Z" transform="translate(-108.088 -113.573)" opacity="0.4" fill="url(#linear-gradient-10)" style="mix-blend-mode: multiply;isolation: isolate"/>
      <path id="Path_210523" data-name="Path 210523" d="M143.242,112.085c.332-3.683,2.016-6.546,3.761-6.394l1.745.166a2.819,2.819,0,0,0-1.844-1.012c-2.307-.2-4.48,2.995-4.856,7.137s1.192,7.663,3.5,7.864a2.851,2.851,0,0,0,2-.68l.04-.016-2.092-.178C143.925,118.51,142.929,115.553,143.242,112.085Z" transform="translate(-131.798 -103.952)" fill="url(#linear-gradient-19)"/>
      <path id="Path_210524" data-name="Path 210524" d="M184.32,115.644c.334-3.683,2.017-6.546,3.762-6.394l1.746.166a2.823,2.823,0,0,0-1.845-1.013c-2.308-.2-4.48,3-4.856,7.137s1.193,7.663,3.5,7.863a2.756,2.756,0,0,0,1.806-.549l.022,0,.174-.128-2.017-.188C185.019,122.109,184.005,119.137,184.32,115.644Z" transform="translate(-163.354 -106.685)" fill="url(#linear-gradient-20)"/>
      <path id="Path_210525" data-name="Path 210525" d="M185.173,114.668a17.978,17.978,0,0,0-.505,3.971c.159-2.216.825-6.022,3.462-7.754A6.1,6.1,0,0,0,185.173,114.668Z" transform="translate(-164.574 -108.599)" fill="#fff" opacity="0.7"/>
      <path id="Path_210526" data-name="Path 210526" d="M144.291,110.793a17.994,17.994,0,0,0-.505,3.971c.159-2.216.825-6.022,3.462-7.754A6.1,6.1,0,0,0,144.291,110.793Z" transform="translate(-133.169 -105.623)" fill="#fff" opacity="0.7"/>
    </g>
    <path id="Path_210527" data-name="Path 210527" d="M231.474,199.4a6.23,6.23,0,0,1,3.495,1.978,9.028,9.028,0,0,0-4.71,1.386,9.158,9.158,0,0,0-2.848,3.982c-.919,1.889-1.838,3.547-3.792,4.609a15.2,15.2,0,0,1-6.085,1.806c-.24.024-.486.035-.733.048a18.182,18.182,0,0,1-2.756-.09,40.663,40.663,0,0,1-9.105-2.169c-.259-.089-.512-.184-.765-.284-.314-.124-.622-.249-.93-.391a52.971,52.971,0,0,1-8.7-5.142,9.651,9.651,0,0,0-5.728-2.02,5.611,5.611,0,0,0-.844.1c-1.6-.776-2.43-1.3-2.43-1.3-.774-.519-1.786-1.379-1.447-2.382.464-1.376,1.924-1.6,3.136-2.128a7.981,7.981,0,0,0,1.843-1.1,16.514,16.514,0,0,0,2.629-2.437c.689-.861,1.177-1.847,1.779-2.762a5.465,5.465,0,0,1,3.724-2.631,2.584,2.584,0,0,1,.537-.054,33.956,33.956,0,0,1,7.989.207c7.787,2.275,9.317-1.38,9.317-1.38,1.454-2.667,6.016-2.7,6.016-2.7l14.8,8.732c1.32,2.073-4.088,4.005-4.088,4.005C229.421,198.937,231.474,199.4,231.474,199.4Z" transform="translate(-114.635 -71.297)" fill="#aaac95" opacity="0.6"/>
    <g id="Group_151565" data-name="Group 151565" transform="translate(97.319 104.851)">
      <path id="Path_210528" data-name="Path 210528" d="M317.559,160.682l-3.063.734-.6.146-4.393-.954s1.825-7.492-3.008-9.243q-.22-.07-.468-.138a3.966,3.966,0,0,1-1.467-2.6,3.226,3.226,0,0,1-.073-.322h.009a24.073,24.073,0,0,1,2.944.037l.009.01c.514.037,1.064.091,1.633.174,2.6.394,5.52,1.358,6.593,3.668a32.509,32.509,0,0,1,1.642,6.841C317.4,159.546,317.486,160.1,317.559,160.682Z" transform="translate(-304.491 -148.274)" fill="url(#linear-gradient-21)"/>
      <path id="Path_210529" data-name="Path 210529" d="M314.74,162.574l-.6.146-4.393-.954s1.825-7.492-3.008-9.243q-.22-.07-.468-.138a3.966,3.966,0,0,1-1.467-2.6c.357.018,8.373.605,9.528,10.931Z" transform="translate(-304.735 -149.432)" fill="url(#linear-gradient-22)"/>
      <path id="Path_210530" data-name="Path 210530" d="M324.714,159.131a11.965,11.965,0,0,0,0-2.668,7.824,7.824,0,0,0-2.082-4.632,3.62,3.62,0,0,1,.743,1.724c-1.568-3.182-5.842-4.86-6.108-4.961.514.037,1.064.091,1.633.174,2.6.394,5.52,1.358,6.593,3.668a32.509,32.509,0,0,1,1.642,6.841C326.483,159.26,324.714,159.131,324.714,159.131Z" transform="translate(-314.305 -148.521)" fill="url(#linear-gradient-23)"/>
      <path id="Path_210531" data-name="Path 210531" d="M337.8,159.433s-.014-5.322-5.123-6.612a8.878,8.878,0,0,1,3.362,3.238l-.047-.8A11.911,11.911,0,0,1,337.8,159.433Z" transform="translate(-326.144 -151.767)" fill="#fff" opacity="0.5"/>
      <path id="Path_210532" data-name="Path 210532" d="M320.049,152.821a9.089,9.089,0,0,1,4.241,3.754A5.739,5.739,0,0,0,320.049,152.821Z" transform="translate(-316.442 -151.767)" fill="url(#linear-gradient-24)"/>
      <path id="Path_210533" data-name="Path 210533" d="M340.478,169.017a28.991,28.991,0,0,1,1.507,6.615l.594-.665a15.865,15.865,0,0,0-.807-4.015s.183,1.161.213,1.806A15.878,15.878,0,0,0,340.478,169.017Z" transform="translate(-332.136 -164.209)" fill="url(#linear-gradient-25)"/>
      <path id="Path_210534" data-name="Path 210534" d="M313.9,154.266s5.551,2,6.353,9.369l-.5.43A12.784,12.784,0,0,0,313.9,154.266Z" transform="translate(-311.718 -152.877)" opacity="0.5" fill="url(#linear-gradient-26)" style="mix-blend-mode: multiply;isolation: isolate"/>
      <path id="Path_210535" data-name="Path 210535" d="M327.181,169.65a10.409,10.409,0,0,1,1.332,7.722l-.548-.119S329.209,174.422,327.181,169.65Z" transform="translate(-321.921 -164.695)" opacity="0.5" fill="url(#linear-gradient-27)" style="mix-blend-mode: multiply;isolation: isolate"/>
    </g>
    <path id="Path_210536" data-name="Path 210536" d="M250.046,237.7a11.467,11.467,0,0,0,.4,1.534,13.259,13.259,0,0,0,.5,1.536c-.24.024-.486.035-.733.048a18.178,18.178,0,0,1-2.756-.09,40.659,40.659,0,0,1-9.105-2.169c-.259-.089-.512-.184-.765-.284-.314-.124-.622-.249-.93-.391a3.08,3.08,0,0,0-.377-.741,5.81,5.81,0,0,0-1.934-1.534A23.2,23.2,0,0,1,232.2,234.1a14.846,14.846,0,0,1-4.148-4.278,3.376,3.376,0,0,1-.414-2.559s.456-5.154,4.52-6.771l7.447,1.226,20.523,1.838a43.165,43.165,0,0,0-3.711,2.784,25.413,25.413,0,0,0-3,2.951c-1.729,1.966-3.569,4.105-3.523,6.823A9.584,9.584,0,0,0,250.046,237.7Z" transform="translate(-148.05 -98.897)" fill="#8d9987" opacity="0.5"/>
    <path id="Path_210537" data-name="Path 210537" d="M313.9,140.459" transform="translate(-214.399 -37.42)" fill="none" stroke="#1d1d1b" stroke-miterlimit="10" stroke-width="0.25"/>
    <path id="Path_210538" data-name="Path 210538" d="M314.074,194.347c-.082.468-.522.642-.935.724,0,0-.724.413-2.724,0,0,0-.724-.358-.614,1.44a1.775,1.775,0,0,1-1.027,1.724,2.491,2.491,0,0,1-.77.183,8.1,8.1,0,0,1-4.117-.825s-1.275-.844-1.889-.019c-.028.037-.046.073-.073.11a1.311,1.311,0,0,0-.137.322s-.88,2.825-3.393,1.953a2.566,2.566,0,0,1-1.7-1.789.009.009,0,0,0-.009-.009,4.009,4.009,0,0,1-.147-1.211l-7.685.073-3.2-4.209s-.193-2.926,4.42-2.825a7.643,7.643,0,0,1,6.465-.468l.019-.064.028-.119a1.8,1.8,0,0,1,2.475-1.247s1.944-2.329,4.081-1.275c0,0,1.468-1.3,3.467.706a8.546,8.546,0,0,0,1.778.954.114.114,0,0,0,.028.019,3.019,3.019,0,0,0,1.018.21s3.649-.256,4.163,1.183a1.7,1.7,0,0,1-.972,2.1c-.459.275.229.78.449.936C313.542,193.247,314.193,193.677,314.074,194.347Z" transform="translate(-192.701 -72.714)" fill="url(#linear-gradient-28)"/>
    <path id="Path_210539" data-name="Path 210539" d="M312.093,193.686a4.625,4.625,0,0,0-2.916,0l-.184-.247-2.091-2.806v-.542l2.119.826Z" transform="translate(-209.024 -75.547)" fill="url(#linear-gradient-29)"/>
    <path id="Path_210540" data-name="Path 210540" d="M300.853,193.686a1.6,1.6,0,0,0-1.761,0s-1.3-.944-2.027-.128a.736.736,0,0,0-1-.486l.2-.238,2.31-2.742,2.128,3.366Z" transform="translate(-200.7 -75.547)" fill="url(#linear-gradient-30)"/>
    <path id="Path_210541" data-name="Path 210541" d="M231.7,208.166c-.422,1.687-2.366,1.036-2.366,1.036-.844.028-2.971-1.073-3.063.468-.083,1.193,1.577,1.458,1.577,1.458,2.119.808,1.348,2.348,1.348,2.348-.935,1.889-3.31.431-3.31.431-1.348-.889-2.045-.312-2.045-.312a5.5,5.5,0,0,1-5.86-.88,3.533,3.533,0,0,0-.7-.422,1.072,1.072,0,0,0-1.651.688,2.318,2.318,0,0,1-2.888,1.77c-1.807.037-5.282-3.117-5.282-3.117a3.3,3.3,0,0,0-3.5.541,3.318,3.318,0,0,1-3.237.614c-2.815-1.66.67-3.586.67-3.586.174-2.265,2.834-2.274,2.834-2.274-.064-2.3,2.347-2.046,2.678-2.009l.037.009c1.4-5.933,6.906-3.549,6.906-3.549l2.522.615a7.987,7.987,0,0,1,2.76-.092,6.439,6.439,0,0,1,3.054,1.348c.861.679,1.265,1.706,2.448,1.981a7.264,7.264,0,0,0,2.137.1C232.811,205.011,231.7,208.166,231.7,208.166Z" transform="translate(-126.615 -83.855)" fill="url(#linear-gradient-31)"/>
    <path id="Path_210542" data-name="Path 210542" d="M376,178.115a.387.387,0,1,1-.385-.425A.4.4,0,0,1,376,178.115Z" transform="translate(-261.516 -66.02)" fill="#f8ea9f"/>
    <path id="Path_210543" data-name="Path 210543" d="M384.483,182.078c0,.4-.173.732-.385.732s-.385-.328-.385-.732.172-.733.385-.733S384.483,181.673,384.483,182.078Z" transform="translate(-268.03 -68.828)" fill="#f8ea9f"/>
    <path id="Path_210544" data-name="Path 210544" d="M368.137,197.832c0,.4-.173.732-.385.732s-.385-.328-.385-.732.172-.733.385-.733S368.137,197.428,368.137,197.832Z" transform="translate(-255.473 -80.93)" fill="#f8ea9f"/>
    <path id="Path_210545" data-name="Path 210545" d="M246.3,212.737c0,.4-.173.732-.385.732s-.385-.328-.385-.732.172-.733.385-.733S246.3,212.333,246.3,212.737Z" transform="translate(-161.878 -92.38)" fill="#f8ea9f"/>
    <path id="Path_210546" data-name="Path 210546" d="M410.247,209.577c0,.4-.173.732-.385.732s-.385-.328-.385-.732.172-.733.385-.733S410.247,209.173,410.247,209.577Z" transform="translate(-287.821 -89.952)" fill="#f8ea9f"/>
    <path id="Path_210547" data-name="Path 210547" d="M316.663,214.41a.512.512,0,1,1-.51-.482A.5.5,0,0,1,316.663,214.41Z" transform="translate(-215.738 -93.858)" fill="#f8ea9f"/>
    <path id="Path_210548" data-name="Path 210548" d="M352.738,193.841a.512.512,0,1,1-.51-.482A.5.5,0,0,1,352.738,193.841Z" transform="translate(-243.45 -78.057)" fill="#f8ea9f"/>
    <path id="Path_210549" data-name="Path 210549" d="M372.734,217.317a.509.509,0,1,1-.5-.426A.47.47,0,0,1,372.734,217.317Z" transform="translate(-258.824 -96.134)" fill="#f8ea9f"/>
    <path id="Path_210550" data-name="Path 210550" d="M328.225,226.626a.524.524,0,1,1-.522-.563A.544.544,0,0,1,328.225,226.626Z" transform="translate(-224.603 -103.18)" fill="#f8ea9f"/>
    <path id="Path_210551" data-name="Path 210551" d="M291.8,260.351a.539.539,0,0,1-.674.326c-.323-.064-.546-.316-.5-.562a.541.541,0,0,1,.675-.326C291.629,259.854,291.851,260.105,291.8,260.351Z" transform="translate(-196.519 -129.075)" fill="#f8ea9f"/>
    <path id="Path_210552" data-name="Path 210552" d="M297.078,244.522c-.047.193-.346.285-.665.206s-.543-.3-.5-.489.345-.284.664-.205S297.125,244.33,297.078,244.522Z" transform="translate(-200.582 -116.963)" fill="#f8ea9f"/>
    <path id="Path_210553" data-name="Path 210553" d="M222.844,203.5a.6.6,0,1,1-.6-.538A.57.57,0,0,1,222.844,203.5Z" transform="translate(-143.535 -85.432)" fill="#f8ea9f"/>
    <path id="Path_210554" data-name="Path 210554" d="M281.926,221.98a.6.6,0,1,1-.6-.538A.57.57,0,0,1,281.926,221.98Z" transform="translate(-188.921 -99.63)" fill="#f8ea9f"/>
    <path id="Path_210555" data-name="Path 210555" d="M245.555,170.12a2.682,2.682,0,0,0-1.815-.742h-.175a2.871,2.871,0,0,0-.569.037,4.694,4.694,0,0,0-.9.165c-.138.037-.257.083-.367.119-.238.083-.385.147-.385.147l-.056-.056a5.724,5.724,0,0,0-1.7-1.274c-.165-.083-.321-.147-.467-.21a3.335,3.335,0,0,0-2.137-.12c.257-2.568.128-7.043-3.595-8.4-.156-.056-.33-.11-.514-.156a4.565,4.565,0,0,1-1.642-3,2.4,2.4,0,0,1-.054-.247v-.01h.009a25.113,25.113,0,0,1,2.751.019h.009a.55.55,0,0,0,.064.009,20.829,20.829,0,0,1,2.228.22c2.852.439,6.062,1.5,7.245,4.071A40.253,40.253,0,0,1,245.555,170.12Z" transform="translate(-150.86 -49.624)" fill="url(#linear-gradient-32)"/>
    <g id="Group_151567" data-name="Group 151567" transform="translate(80.38 106.777)">
      <path id="Path_210556" data-name="Path 210556" d="M241.471,170.732a4.856,4.856,0,0,0-3.319-1.705,2.1,2.1,0,0,0-.486.009,2.283,2.283,0,0,0-.5.091c.257-2.568.128-7.043-3.595-8.4-.156-.056-.33-.11-.514-.156a4.566,4.566,0,0,1-1.642-3c1.339.165,8.749,1.495,9.813,11.06Z" transform="translate(-231.42 -157.344)" fill="url(#linear-gradient-33)"/>
      <path id="Path_210557" data-name="Path 210557" d="M253.129,169.561c.733-6.429-2.275-8.988-2.44-9.125a6.673,6.673,0,0,1,.816,2.284c-1.862-4.741-7.419-5.989-8.1-6.136a20.837,20.837,0,0,1,2.228.22c2.852.44,6.062,1.5,7.245,4.071a40.253,40.253,0,0,1,2.063,9.428A2.682,2.682,0,0,0,253.129,169.561Z" transform="translate(-240.629 -156.584)" fill="url(#linear-gradient-34)"/>
      <path id="Path_210558" data-name="Path 210558" d="M252.071,181.145v.009a2.1,2.1,0,0,0-.486.009c.6-5.035-1.715-7.483-2.045-7.8C252.538,175.615,252.071,181.145,252.071,181.145Z" transform="translate(-245.339 -169.47)" opacity="0.5" fill="url(#linear-gradient-35)" style="mix-blend-mode: multiply;isolation: isolate"/>
      <path id="Path_210559" data-name="Path 210559" d="M274.494,192.8c-.138.037-.257.083-.367.119a18.707,18.707,0,0,0-.77-6.346A22.644,22.644,0,0,1,274.494,192.8Z" transform="translate(-263.636 -179.62)" fill="url(#linear-gradient-36)"/>
      <path id="Path_210560" data-name="Path 210560" d="M272.527,182.812a2.87,2.87,0,0,0-.569.037c-.284-5.374-2.485-8.327-3.072-9.015C271.574,176.722,272.527,182.812,272.527,182.812Z" transform="translate(-260.202 -169.835)" fill="url(#linear-gradient-37)"/>
      <path id="Path_210561" data-name="Path 210561" d="M262.173,186.325c-.165-.083-.321-.147-.467-.21a24.333,24.333,0,0,0-1.128-6.585A18.826,18.826,0,0,1,262.173,186.325Z" transform="translate(-253.818 -174.21)" opacity="0.5" fill="url(#linear-gradient-38)" style="mix-blend-mode: multiply;isolation: isolate"/>
      <path id="Path_210562" data-name="Path 210562" d="M256.988,159.555s3.9.8,4.84,2.867a9.881,9.881,0,0,0-2.363-1.8,2.252,2.252,0,0,1,.777.974,13.918,13.918,0,0,0-4-2.11A3.814,3.814,0,0,1,256.988,159.555Z" transform="translate(-250.488 -158.816)" fill="#fff" opacity="0.5"/>
      <path id="Path_210563" data-name="Path 210563" d="M257.112,165.814a8.137,8.137,0,0,1,3.165,4A21.333,21.333,0,0,0,257.112,165.814Z" transform="translate(-251.156 -163.674)" fill="url(#linear-gradient-39)"/>
      <g id="Group_151566" data-name="Group 151566" transform="translate(8.38 7.583)">
        <path id="Path_210564" data-name="Path 210564" d="M274.259,190.874s-.046.018-.129.055a4.573,4.573,0,0,0-1.486.963,1.214,1.214,0,0,1-1,.358l-2.65.367-.248.037-.394-.431a.257.257,0,0,1-.046-.055.6.6,0,0,1-.119-.752.394.394,0,0,0-.129-.578c-.6-.541-.476-.991-.476-.991l1.1-.138,2.678-.33a1.167,1.167,0,0,1,1.045.083,4.5,4.5,0,0,0,1.771.56Z" transform="translate(-267.571 -189.295)" fill="url(#linear-gradient-40)"/>
        <path id="Path_210565" data-name="Path 210565" d="M273.734,190.948a4.18,4.18,0,0,1-1.3-.514,1.17,1.17,0,0,0-.788-.058l-3.331.427-.452.04.158.191,3.654-.441a1.358,1.358,0,0,1,.688.094,4.348,4.348,0,0,0,1.368.512A.188.188,0,0,0,273.734,190.948Z" transform="translate(-267.798 -190.096)" fill="#fff" opacity="0.6"/>
        <path id="Path_210566" data-name="Path 210566" d="M276.568,193.668a4.574,4.574,0,0,0-1.486.963,1.214,1.214,0,0,1-1,.358l-2.65.367-.248.037-.394-.431a.253.253,0,0,1-.046-.055l4.108-.578a5.134,5.134,0,0,1,1.23-.817,1.409,1.409,0,0,1,.183-.651Z" transform="translate(-270.009 -192.034)" fill="url(#linear-gradient-41)"/>
        <path id="Path_210567" data-name="Path 210567" d="M295.015,190.918l-.684.078c-.113.014-.169.35-.122.75s.176.717.291.7l.683-.078Z" transform="translate(-288.021 -190.542)" fill="url(#linear-gradient-42)"/>
        <path id="Path_210568" data-name="Path 210568" d="M297.451,192.369h-.009c-.119,0-.238-.312-.284-.7-.047-.4.009-.742.119-.752s.247.3.293.7S297.561,192.36,297.451,192.369Z" transform="translate(-290.287 -190.542)" fill="url(#linear-gradient-43)"/>
        <path id="Path_210569" data-name="Path 210569" d="M297.451,192.371h-.009c-.119,0-.238-.312-.284-.7-.047-.4.009-.742.119-.752A1.993,1.993,0,0,0,297.451,192.371Z" transform="translate(-290.287 -190.545)" fill="#fff"/>
      </g>
      <path id="Path_210570" data-name="Path 210570" d="M266.959,188.1s-.02,1,.522,1.323a1.04,1.04,0,0,1,.4,1.048.548.548,0,0,0-.02.536,1.554,1.554,0,0,1,.28,1.473,4.009,4.009,0,0,0-.193-.679c-.122-.318-.407-.557-.487-.885-.086-.35.078-.7-.229-.97C267.232,189.948,266.51,188.886,266.959,188.1Z" transform="translate(-258.608 -180.795)" fill="url(#linear-gradient-44)"/>
    </g>
    <path id="Path_210571" data-name="Path 210571" d="M247.191,203.576s1-.4,2.095.844c0,0,1.992-1.273,4.38,1.514,0,0,2.657-1.332,4.185.422a1.241,1.241,0,0,1,.752-.635,2.692,2.692,0,0,0-.752,1.013s-2.3-1.525-4.265-.323c0,0-1.812-2.4-4.391-1.659A2.9,2.9,0,0,0,247.191,203.576Z" transform="translate(-163.155 -85.859)" fill="url(#linear-gradient-45)"/>
    <path id="Path_210572" data-name="Path 210572" d="M217.285,225.491v.009a1.072,1.072,0,0,0-1.651.688,2.318,2.318,0,0,1-2.888,1.77c-1.807.037-5.282-3.117-5.282-3.117a3.3,3.3,0,0,0-3.5.541,3.318,3.318,0,0,1-3.237.614c-2.815-1.66.67-3.586.67-3.586.174-2.265,2.834-2.274,2.834-2.274-.055-1.853,1.495-2.045,2.274-2.036a.53.53,0,0,1,.083.01,2.326,2.326,0,0,1,.321.018l.037.009s2.018-.193,3.054,4.109c0,0,1.421-1.587,2.466.816,0,0,1.211-.88,1.293.184C213.754,223.244,216.258,221.8,217.285,225.491Z" transform="translate(-126.615 -97.062)" fill="url(#linear-gradient-46)"/>
    <path id="Path_210573" data-name="Path 210573" d="M233.054,222.279c-1.486-3.623-3.045-4.081-3.411-4.136a2.326,2.326,0,0,1,.321.018l.037.009S232.018,217.977,233.054,222.279Z" transform="translate(-149.675 -97.096)" fill="url(#linear-gradient-47)"/>
    <path id="Path_210574" data-name="Path 210574" d="M256.451,240.8c-.964-1.953-1.935-2.119-1.935-2.119-1.843-.376-2.146,1.064-2.146,1.064a.758.758,0,0,1,.266-.981c-.165-.926-1.862.386-2.027.514a3.35,3.35,0,0,1,1.017-.908s1.211-.88,1.293.184C252.92,238.553,255.424,237.113,256.451,240.8Z" transform="translate(-165.781 -112.371)" fill="url(#linear-gradient-48)"/>
    <path id="Path_210575" data-name="Path 210575" d="M215.944,232.566s1.479-1.786,2.517,0c0,0,.854-.238,1.175,1,0,0,.054-1.224-1.007-1.357A1.523,1.523,0,0,0,215.944,232.566Z" transform="translate(-139.152 -107.383)" fill="url(#linear-gradient-49)"/>
    <path id="Path_210576" data-name="Path 210576" d="M214.562,240.262a.6.6,0,1,1-.6-.539A.57.57,0,0,1,214.562,240.262Z" transform="translate(-137.172 -113.673)" fill="#f8ea9f"/>
    <path id="Path_210577" data-name="Path 210577" d="M354.457,220.3a.6.6,0,1,1-.6-.539A.57.57,0,0,1,354.457,220.3Z" transform="translate(-244.638 -98.342)" fill="#f8ea9f"/>
    <path id="Path_210578" data-name="Path 210578" d="M303.769,202.712a4.625,4.625,0,0,0-2.916,0,1.6,1.6,0,0,0-1.761,0s-1.3-.944-2.027-.128a.736.736,0,0,0-1-.486l.2-.238a1.042,1.042,0,0,1,.935.312,1.557,1.557,0,0,1,1.9.339,1.36,1.36,0,0,1,1.568-.046.069.069,0,0,1,.037.018l.055.028A3.931,3.931,0,0,1,303.769,202.712Z" transform="translate(-200.7 -84.572)" fill="url(#linear-gradient-50)"/>
    <path id="Path_210579" data-name="Path 210579" d="M287.357,228.523a3.237,3.237,0,0,0-.075,1.224s.508-3.81,3.76-4.781a3.762,3.762,0,0,0-3.435,2.1Z" transform="translate(-193.924 -102.337)" fill="url(#linear-gradient-51)"/>
    <path id="Path_210580" data-name="Path 210580" d="M268.73,224.894a3.73,3.73,0,0,0-3.951,2.556,1.956,1.956,0,0,0-2.281-.459s-2.354-2.726-4.3-1.072c0,0,2.122-1.173,4.082,1.883,0,0,1.425-1.223,2.763.649C265.046,228.451,265.8,225.234,268.73,224.894Z" transform="translate(-171.613 -102.265)" fill="url(#linear-gradient-52)"/>
    <path id="Path_210581" data-name="Path 210581" d="M342.048,187.524a2.893,2.893,0,0,0-3.521-.449c-2.027-1.037-4.109,1.376-4.109,1.376-1.6-.817-2.466,1.348-2.632,1.824l.192-.752.019-.064.028-.119a1.8,1.8,0,0,1,2.475-1.247s1.944-2.329,4.081-1.275C338.582,186.818,340.049,185.516,342.048,187.524Z" transform="translate(-228.14 -72.714)" fill="url(#linear-gradient-53)"/>
    <path id="Path_210582" data-name="Path 210582" d="M320.656,208.538a3.483,3.483,0,0,1,3.525,2.293v-.486l-.115-.907-.623-.525-.784-.378-.71-.088h-.48Z" transform="translate(-219.59 -89.647)" fill="url(#linear-gradient-54)"/>
    <path id="Path_210583" data-name="Path 210583" d="M347,204.542l-.047-1.11s-.323-2.694,2.892-3.173A4.745,4.745,0,0,0,347,204.542Z" transform="translate(-239.782 -83.357)" fill="url(#linear-gradient-55)"/>
    <path id="Path_210584" data-name="Path 210584" d="M320.656,202.249a3.357,3.357,0,0,1,3.639.9,2.637,2.637,0,0,1,2.149-.388,3.13,3.13,0,0,1,3.205-2.5,3.7,3.7,0,0,0-2.892,3.173,2.109,2.109,0,0,0-2.578.623S323.608,201.91,320.656,202.249Z" transform="translate(-219.59 -83.357)" fill="url(#linear-gradient-56)"/>
    <path id="Path_210585" data-name="Path 210585" d="M381.793,211.241a3.918,3.918,0,0,0-.859-4.338s-.888-1.107.855-2.141c0,0-.1-1.883,1.187-1.325l.519,1.174-.573,1.183-.383,2.061.115,1.16-.076.714-.153.686-.323.488Z" transform="translate(-265.721 -85.719)" fill="url(#linear-gradient-57)"/>
    <path id="Path_210586" data-name="Path 210586" d="M388.712,201.285c-.082.468-.522.642-.935.724a3.811,3.811,0,0,1-2.3.074h-.018c-.128-.019-.266-.046-.4-.074,0,0-.724-.358-.614,1.44a1.775,1.775,0,0,1-1.027,1.724c1.385-1.678,0-3.907,0-3.907-1.54-1.7.386-2.347.386-2.347-.175-1.806.8-1.55.8-1.55a3.435,3.435,0,0,0-1.54-1.934,3.019,3.019,0,0,0,1.018.21s3.649-.256,4.163,1.183a1.7,1.7,0,0,1-.972,2.1c-.458.275.229.78.449.936C388.18,200.184,388.831,200.615,388.712,201.285Z" transform="translate(-267.339 -79.651)" fill="url(#linear-gradient-58)"/>
    <path id="Path_210587" data-name="Path 210587" d="M395.565,200.259s.834.758.3,1.238c0,0,.435.486-.3.9,0,0,1.062-.352.6-.9A.966.966,0,0,0,395.565,200.259Z" transform="translate(-277.134 -83.357)" fill="url(#linear-gradient-59)"/>
    <path id="Path_210588" data-name="Path 210588" d="M198.965,240.994s-2.719,2.363,1.408,3.242a2.723,2.723,0,0,0,2.713-1.157,2.984,2.984,0,0,1,3.2-.651s-1.343-1.21-3.884.395a2.441,2.441,0,0,1-1.93.611s-1.776-.267-1.814-1.528A3.149,3.149,0,0,1,198.965,240.994Z" transform="translate(-125.433 -114.65)" fill="url(#linear-gradient-60)"/>
    <path id="Path_210589" data-name="Path 210589" d="M240.684,249.875s3.274,3.624,6.057,1.671a1.6,1.6,0,0,0,.5-1.409s-.035-1.263,1.343-.975h.239c-.052,0-.226-.132-.283-.154a1.085,1.085,0,0,0-.738-.054c-1.016.287-.852,1.572-1.712,1.957C246.093,250.911,244.012,252.049,240.684,249.875Z" transform="translate(-158.157 -120.733)" fill="url(#linear-gradient-61)"/>
    <path id="Path_210590" data-name="Path 210590" d="M278.816,251.846s2.534,1.815,4.913.764a2.322,2.322,0,0,1,2.644.225,2.027,2.027,0,0,0-1.531-.063S281.311,254.35,278.816,251.846Z" transform="translate(-187.449 -122.986)" fill="url(#linear-gradient-62)"/>
    <path id="Path_210591" data-name="Path 210591" d="M317.323,246.552s2.188-1.024.965-2.406a12.5,12.5,0,0,0-1.971-1.439s2.839.209,2.768,2.31A1.487,1.487,0,0,1,317.323,246.552Z" transform="translate(-216.257 -115.965)" fill="url(#linear-gradient-63)"/>
    <path id="Path_210592" data-name="Path 210592" d="M338.516,235.072a1.313,1.313,0,0,0-.137.322s-.88,2.825-3.393,1.953a2.566,2.566,0,0,1-1.7-1.789c.138.21,1.22,1.77,2.715,1.586C336,237.144,337.232,237.025,338.516,235.072Z" transform="translate(-229.294 -110.1)" fill="url(#linear-gradient-64)"/>
    <path id="Path_210593" data-name="Path 210593" d="M359.455,225.891s3.959,2.524,6.538,1.048a1.872,1.872,0,0,0,.717-1.706,2.633,2.633,0,0,1,.146-1.465s-.7.274-.518,1.408c0,0,.2,1.175-1.259,1.6C365.078,226.781,363.2,227.381,359.455,225.891Z" transform="translate(-249.395 -101.417)" fill="url(#linear-gradient-65)"/>
    <path id="Path_210594" data-name="Path 210594" d="M352.358,230.163a6,6,0,0,1-.688,3.1l-.064.165a2.841,2.841,0,0,0-.661.009.421.421,0,0,1-.074.009c-1.476.064-1.641-.725-1.641-.725a1.763,1.763,0,0,0-1.21-.844,3.027,3.027,0,0,0-.477-.064,1.681,1.681,0,0,0-.366-.009l.055-.156a6.009,6.009,0,0,1,1.385-2.842,20.164,20.164,0,0,0,2.779-4.2l.009-.01c.092-.183.147-.284.147-.284l.055.018,1.265.468A22.407,22.407,0,0,0,352.358,230.163Z" transform="translate(-239.963 -101.835)" fill="url(#linear-gradient-66)"/>
    <path id="Path_210595" data-name="Path 210595" d="M397.528,215.963c-.082.468-.522.642-.935.724a3.811,3.811,0,0,1-2.3.073,7.241,7.241,0,0,0,2.357-.339c1.211-.6-.119-1.88-.119-1.88C397,214.863,397.647,215.293,397.528,215.963Z" transform="translate(-276.156 -94.33)" fill="url(#linear-gradient-67)"/>
    <path id="Path_210596" data-name="Path 210596" d="M302.346,191.887,301,193.535l1.25-1.107,1.515,1.881Z" transform="translate(-204.49 -76.927)" fill="#fff" opacity="0.3"/>
    <path id="Path_210597" data-name="Path 210597" d="M312.682,193.278l.686.219,1.822,1.685-1.907-1.579Z" transform="translate(-213.464 -77.995)" fill="#fff" opacity="0.3"/>
    <path id="Path_210598" data-name="Path 210598" d="M352.976,227.227c-.257.724-1.2,2.467-1.2,2.467a6.774,6.774,0,0,1-1.1,1.458,6.292,6.292,0,0,0-1.439,2.825,3.022,3.022,0,0,0-.477-.064,8.369,8.369,0,0,1,1.752-3.237,13.779,13.779,0,0,0,2.119-3.577C352.948,226.925,352.976,227.227,352.976,227.227Z" transform="translate(-241.177 -103.934)" fill="#fff" opacity="0.3"/>
    <path id="Path_210599" data-name="Path 210599" d="M364.846,230.223a6,6,0,0,1-.688,3.1l-.064.166a2.839,2.839,0,0,0-.661.009,11.885,11.885,0,0,0,.908-4.86,12.875,12.875,0,0,1,.642-3.449l-1.1-.522.009-.01.2-.266,1.265.468A22.4,22.4,0,0,0,364.846,230.223Z" transform="translate(-252.452 -101.895)" opacity="0.4" fill="url(#linear-gradient-68)" style="mix-blend-mode: multiply;isolation: isolate"/>
    <path id="Path_210600" data-name="Path 210600" d="M364.389,222.374a.445.445,0,0,0,.277.558l1.278.464a.431.431,0,0,0,.56-.253h0a.446.446,0,0,0-.276-.56l-1.277-.465a.434.434,0,0,0-.561.256Z" transform="translate(-253.167 -100.129)" fill="url(#linear-gradient-69)"/>
    <path id="Path_210601" data-name="Path 210601" d="M365.223,223.285s.072-.5,1.634.347A8.85,8.85,0,0,0,365.223,223.285Z" transform="translate(-253.826 -100.934)" fill="#fff" opacity="0.4"/>
    <path id="Path_210602" data-name="Path 210602" d="M340.231,256.125a3.5,3.5,0,0,1,2.937-.356,2.566,2.566,0,0,1,1.018,1.045,1.282,1.282,0,0,0,.879.378s1.226-.152,1.635.5a3.36,3.36,0,0,0-1.425-.079,1.376,1.376,0,0,1-1.426-.538,1.977,1.977,0,0,0-2.008-1.1Z" transform="translate(-234.627 -125.848)" fill="url(#linear-gradient-70)"/>
    <path id="Path_210603" data-name="Path 210603" d="M372.27,251.846s1.454.677.878,1.743C373.148,253.589,373.441,252.856,372.27,251.846Z" transform="translate(-259.239 -122.986)" fill="url(#linear-gradient-71)"/>
    <path id="Path_210604" data-name="Path 210604" d="M375.418,251.816s1.454.677.878,1.743C376.3,253.559,376.589,252.825,375.418,251.816Z" transform="translate(-261.658 -122.963)" fill="url(#linear-gradient-72)"/>
    <path id="Path_210605" data-name="Path 210605" d="M349.541,266.187s.735,1.8,3.635,1.49A6.882,6.882,0,0,1,349.541,266.187Z" transform="translate(-241.779 -134.003)" fill="url(#linear-gradient-73)"/>
  </g>
</svg>
